<svg xmlns="http://www.w3.org/2000/svg" viewBox="0 0 512 512" width="100%" height="100%">
  <defs>
    <!-- Background Gradient -->
    <linearGradient id="bg-10" x1="0%" y1="0%" x2="0%" y2="100%">
      <stop offset="0%" stop-color="#fffcf9" />
      <stop offset="100%" stop-color="#fff7ef" />
    </linearGradient>

    <!-- Front Face Gradient -->
    <linearGradient id="front-10" x1="0%" y1="0%" x2="0%" y2="100%">
      <stop offset="0%" stop-color="#ffc889" />
      <stop offset="100%" stop-color="#f48200" />
    </linearGradient>

    <!-- 3D Side/Extrusion Color -->
    <linearGradient id="side-10" x1="0%" y1="0%" x2="0%" y2="100%">
      <stop offset="0%" stop-color="#c16700" />
      <stop offset="100%" stop-color="#8e4c00" />
    </linearGradient>

    <!-- Leaf Sprout Gradient -->
    <linearGradient id="leaf-10" x1="0%" y1="0%" x2="100%" y2="100%">
      <stop offset="0%" stop-color="#7BED9F" />
      <stop offset="100%" stop-color="#2ED573" />
    </linearGradient>

    <!-- 3D Base Shadow -->
    <filter id="shadow-10">
      <feDropShadow dx="0" dy="10" stdDeviation="8" flood-color="#000000" flood-opacity="0.25" />
    </filter>
  </defs>

  <!-- Background -->
  <circle cx="256" cy="256" r="236" fill="url(#bg-10)" stroke="#ead9c6" stroke-width="6" />

  <!-- Sparkles -->
  <g fill="#FFD43B">
    <circle cx="100" cy="130" r="8" />
    <circle cx="400" cy="120" r="10" />
    <circle cx="430" cy="330" r="7" />
  </g>

  <!-- Number -->
  <g filter="url(#shadow-10)">
    <!-- Side -->
    <text x="256" y="215" 
          text-anchor="middle" 
          font-size="180" 
          font-weight="900" 
          font-family="Comic Sans MS, Arial Rounded MT Bold, sans-serif" 
          fill="url(#side-10)" 
          stroke="url(#side-10)" 
          stroke-width="18" 
          transform="translate(0, 12)">10</text>

    <!-- Front -->
    <text x="256" y="215" 
          text-anchor="middle" 
          font-size="180" 
          font-weight="900" 
          font-family="Comic Sans MS, Arial Rounded MT Bold, sans-serif" 
          fill="url(#front-10)" 
          stroke="url(#front-10)" 
          stroke-width="18">10</text>
  </g>

  <!-- Cute Sprout -->
  <g transform="translate(256 65)">
    <path d="M0 0 Q-4 -15 -8 -24" stroke="#8B5A2B" stroke-width="5" fill="none" />
    <path d="M-8 -24 C-28 -28 -30 -5 -10 0 Z" fill="url(#leaf-10)" />
    <path d="M-8 -24 C5 -35 22 -20 5 -5 Z" fill="url(#leaf-10)" />
  </g>

  <!-- Eyes -->
  <g>
    <circle cx="215" cy="180" r="18" fill="#222" />
    <circle cx="208" cy="172" r="6" fill="#FFF" />

    <circle cx="297" cy="180" r="18" fill="#222" />
    <circle cx="290" cy="172" r="6" fill="#FFF" />
  </g>

  <!-- Cheeks -->
  <ellipse cx="185" cy="210" rx="18" ry="12" fill="#FF6B81" opacity="0.45" />
  <ellipse cx="327" cy="210" rx="18" ry="12" fill="#FF6B81" opacity="0.45" />

  <!-- Smile -->
  <path d="M225 225 Q256 255 287 225" stroke="#7A1022" stroke-width="8" fill="none" stroke-linecap="round" />

  <!-- Counting Object -->
  <g>
    <circle cx="146.0" cy="317.5" r="12.0" fill="#f1c40f" /><line x1="160.0" y1="317.5" x2="165.0" y2="317.5" stroke="#f39c12" stroke-width="1.2" stroke-linecap="round" /><line x1="155.9" y1="327.4" x2="159.4" y2="330.9" stroke="#f39c12" stroke-width="1.2" stroke-linecap="round" /><line x1="146.0" y1="331.5" x2="146.0" y2="336.5" stroke="#f39c12" stroke-width="1.2" stroke-linecap="round" /><line x1="136.1" y1="327.4" x2="132.6" y2="330.9" stroke="#f39c12" stroke-width="1.2" stroke-linecap="round" /><line x1="132.0" y1="317.5" x2="127.0" y2="317.5" stroke="#f39c12" stroke-width="1.2" stroke-linecap="round" /><line x1="136.1" y1="307.6" x2="132.6" y2="304.1" stroke="#f39c12" stroke-width="1.2" stroke-linecap="round" /><line x1="146.0" y1="303.5" x2="146.0" y2="298.5" stroke="#f39c12" stroke-width="1.2" stroke-linecap="round" /><line x1="155.9" y1="307.6" x2="159.4" y2="304.1" stroke="#f39c12" stroke-width="1.2" stroke-linecap="round" />
<circle cx="201.0" cy="317.5" r="12.0" fill="#f1c40f" /><line x1="215.0" y1="317.5" x2="220.0" y2="317.5" stroke="#f39c12" stroke-width="1.2" stroke-linecap="round" /><line x1="210.9" y1="327.4" x2="214.4" y2="330.9" stroke="#f39c12" stroke-width="1.2" stroke-linecap="round" /><line x1="201.0" y1="331.5" x2="201.0" y2="336.5" stroke="#f39c12" stroke-width="1.2" stroke-linecap="round" /><line x1="191.1" y1="327.4" x2="187.6" y2="330.9" stroke="#f39c12" stroke-width="1.2" stroke-linecap="round" /><line x1="187.0" y1="317.5" x2="182.0" y2="317.5" stroke="#f39c12" stroke-width="1.2" stroke-linecap="round" /><line x1="191.1" y1="307.6" x2="187.6" y2="304.1" stroke="#f39c12" stroke-width="1.2" stroke-linecap="round" /><line x1="201.0" y1="303.5" x2="201.0" y2="298.5" stroke="#f39c12" stroke-width="1.2" stroke-linecap="round" /><line x1="210.9" y1="307.6" x2="214.4" y2="304.1" stroke="#f39c12" stroke-width="1.2" stroke-linecap="round" />
<circle cx="256.0" cy="317.5" r="12.0" fill="#f1c40f" /><line x1="270.0" y1="317.5" x2="275.0" y2="317.5" stroke="#f39c12" stroke-width="1.2" stroke-linecap="round" /><line x1="265.9" y1="327.4" x2="269.4" y2="330.9" stroke="#f39c12" stroke-width="1.2" stroke-linecap="round" /><line x1="256.0" y1="331.5" x2="256.0" y2="336.5" stroke="#f39c12" stroke-width="1.2" stroke-linecap="round" /><line x1="246.1" y1="327.4" x2="242.6" y2="330.9" stroke="#f39c12" stroke-width="1.2" stroke-linecap="round" /><line x1="242.0" y1="317.5" x2="237.0" y2="317.5" stroke="#f39c12" stroke-width="1.2" stroke-linecap="round" /><line x1="246.1" y1="307.6" x2="242.6" y2="304.1" stroke="#f39c12" stroke-width="1.2" stroke-linecap="round" /><line x1="256.0" y1="303.5" x2="256.0" y2="298.5" stroke="#f39c12" stroke-width="1.2" stroke-linecap="round" /><line x1="265.9" y1="307.6" x2="269.4" y2="304.1" stroke="#f39c12" stroke-width="1.2" stroke-linecap="round" />
<circle cx="311.0" cy="317.5" r="12.0" fill="#f1c40f" /><line x1="325.0" y1="317.5" x2="330.0" y2="317.5" stroke="#f39c12" stroke-width="1.2" stroke-linecap="round" /><line x1="320.9" y1="327.4" x2="324.4" y2="330.9" stroke="#f39c12" stroke-width="1.2" stroke-linecap="round" /><line x1="311.0" y1="331.5" x2="311.0" y2="336.5" stroke="#f39c12" stroke-width="1.2" stroke-linecap="round" /><line x1="301.1" y1="327.4" x2="297.6" y2="330.9" stroke="#f39c12" stroke-width="1.2" stroke-linecap="round" /><line x1="297.0" y1="317.5" x2="292.0" y2="317.5" stroke="#f39c12" stroke-width="1.2" stroke-linecap="round" /><line x1="301.1" y1="307.6" x2="297.6" y2="304.1" stroke="#f39c12" stroke-width="1.2" stroke-linecap="round" /><line x1="311.0" y1="303.5" x2="311.0" y2="298.5" stroke="#f39c12" stroke-width="1.2" stroke-linecap="round" /><line x1="320.9" y1="307.6" x2="324.4" y2="304.1" stroke="#f39c12" stroke-width="1.2" stroke-linecap="round" />
<circle cx="366.0" cy="317.5" r="12.0" fill="#f1c40f" /><line x1="380.0" y1="317.5" x2="385.0" y2="317.5" stroke="#f39c12" stroke-width="1.2" stroke-linecap="round" /><line x1="375.9" y1="327.4" x2="379.4" y2="330.9" stroke="#f39c12" stroke-width="1.2" stroke-linecap="round" /><line x1="366.0" y1="331.5" x2="366.0" y2="336.5" stroke="#f39c12" stroke-width="1.2" stroke-linecap="round" /><line x1="356.1" y1="327.4" x2="352.6" y2="330.9" stroke="#f39c12" stroke-width="1.2" stroke-linecap="round" /><line x1="352.0" y1="317.5" x2="347.0" y2="317.5" stroke="#f39c12" stroke-width="1.2" stroke-linecap="round" /><line x1="356.1" y1="307.6" x2="352.6" y2="304.1" stroke="#f39c12" stroke-width="1.2" stroke-linecap="round" /><line x1="366.0" y1="303.5" x2="366.0" y2="298.5" stroke="#f39c12" stroke-width="1.2" stroke-linecap="round" /><line x1="375.9" y1="307.6" x2="379.4" y2="304.1" stroke="#f39c12" stroke-width="1.2" stroke-linecap="round" />
<circle cx="146.0" cy="372.5" r="12.0" fill="#f1c40f" /><line x1="160.0" y1="372.5" x2="165.0" y2="372.5" stroke="#f39c12" stroke-width="1.2" stroke-linecap="round" /><line x1="155.9" y1="382.4" x2="159.4" y2="385.9" stroke="#f39c12" stroke-width="1.2" stroke-linecap="round" /><line x1="146.0" y1="386.5" x2="146.0" y2="391.5" stroke="#f39c12" stroke-width="1.2" stroke-linecap="round" /><line x1="136.1" y1="382.4" x2="132.6" y2="385.9" stroke="#f39c12" stroke-width="1.2" stroke-linecap="round" /><line x1="132.0" y1="372.5" x2="127.0" y2="372.5" stroke="#f39c12" stroke-width="1.2" stroke-linecap="round" /><line x1="136.1" y1="362.6" x2="132.6" y2="359.1" stroke="#f39c12" stroke-width="1.2" stroke-linecap="round" /><line x1="146.0" y1="358.5" x2="146.0" y2="353.5" stroke="#f39c12" stroke-width="1.2" stroke-linecap="round" /><line x1="155.9" y1="362.6" x2="159.4" y2="359.1" stroke="#f39c12" stroke-width="1.2" stroke-linecap="round" />
<circle cx="201.0" cy="372.5" r="12.0" fill="#f1c40f" /><line x1="215.0" y1="372.5" x2="220.0" y2="372.5" stroke="#f39c12" stroke-width="1.2" stroke-linecap="round" /><line x1="210.9" y1="382.4" x2="214.4" y2="385.9" stroke="#f39c12" stroke-width="1.2" stroke-linecap="round" /><line x1="201.0" y1="386.5" x2="201.0" y2="391.5" stroke="#f39c12" stroke-width="1.2" stroke-linecap="round" /><line x1="191.1" y1="382.4" x2="187.6" y2="385.9" stroke="#f39c12" stroke-width="1.2" stroke-linecap="round" /><line x1="187.0" y1="372.5" x2="182.0" y2="372.5" stroke="#f39c12" stroke-width="1.2" stroke-linecap="round" /><line x1="191.1" y1="362.6" x2="187.6" y2="359.1" stroke="#f39c12" stroke-width="1.2" stroke-linecap="round" /><line x1="201.0" y1="358.5" x2="201.0" y2="353.5" stroke="#f39c12" stroke-width="1.2" stroke-linecap="round" /><line x1="210.9" y1="362.6" x2="214.4" y2="359.1" stroke="#f39c12" stroke-width="1.2" stroke-linecap="round" />
<circle cx="256.0" cy="372.5" r="12.0" fill="#f1c40f" /><line x1="270.0" y1="372.5" x2="275.0" y2="372.5" stroke="#f39c12" stroke-width="1.2" stroke-linecap="round" /><line x1="265.9" y1="382.4" x2="269.4" y2="385.9" stroke="#f39c12" stroke-width="1.2" stroke-linecap="round" /><line x1="256.0" y1="386.5" x2="256.0" y2="391.5" stroke="#f39c12" stroke-width="1.2" stroke-linecap="round" /><line x1="246.1" y1="382.4" x2="242.6" y2="385.9" stroke="#f39c12" stroke-width="1.2" stroke-linecap="round" /><line x1="242.0" y1="372.5" x2="237.0" y2="372.5" stroke="#f39c12" stroke-width="1.2" stroke-linecap="round" /><line x1="246.1" y1="362.6" x2="242.6" y2="359.1" stroke="#f39c12" stroke-width="1.2" stroke-linecap="round" /><line x1="256.0" y1="358.5" x2="256.0" y2="353.5" stroke="#f39c12" stroke-width="1.2" stroke-linecap="round" /><line x1="265.9" y1="362.6" x2="269.4" y2="359.1" stroke="#f39c12" stroke-width="1.2" stroke-linecap="round" />
<circle cx="311.0" cy="372.5" r="12.0" fill="#f1c40f" /><line x1="325.0" y1="372.5" x2="330.0" y2="372.5" stroke="#f39c12" stroke-width="1.2" stroke-linecap="round" /><line x1="320.9" y1="382.4" x2="324.4" y2="385.9" stroke="#f39c12" stroke-width="1.2" stroke-linecap="round" /><line x1="311.0" y1="386.5" x2="311.0" y2="391.5" stroke="#f39c12" stroke-width="1.2" stroke-linecap="round" /><line x1="301.1" y1="382.4" x2="297.6" y2="385.9" stroke="#f39c12" stroke-width="1.2" stroke-linecap="round" /><line x1="297.0" y1="372.5" x2="292.0" y2="372.5" stroke="#f39c12" stroke-width="1.2" stroke-linecap="round" /><line x1="301.1" y1="362.6" x2="297.6" y2="359.1" stroke="#f39c12" stroke-width="1.2" stroke-linecap="round" /><line x1="311.0" y1="358.5" x2="311.0" y2="353.5" stroke="#f39c12" stroke-width="1.2" stroke-linecap="round" /><line x1="320.9" y1="362.6" x2="324.4" y2="359.1" stroke="#f39c12" stroke-width="1.2" stroke-linecap="round" />
<circle cx="366.0" cy="372.5" r="12.0" fill="#f1c40f" /><line x1="380.0" y1="372.5" x2="385.0" y2="372.5" stroke="#f39c12" stroke-width="1.2" stroke-linecap="round" /><line x1="375.9" y1="382.4" x2="379.4" y2="385.9" stroke="#f39c12" stroke-width="1.2" stroke-linecap="round" /><line x1="366.0" y1="386.5" x2="366.0" y2="391.5" stroke="#f39c12" stroke-width="1.2" stroke-linecap="round" /><line x1="356.1" y1="382.4" x2="352.6" y2="385.9" stroke="#f39c12" stroke-width="1.2" stroke-linecap="round" /><line x1="352.0" y1="372.5" x2="347.0" y2="372.5" stroke="#f39c12" stroke-width="1.2" stroke-linecap="round" /><line x1="356.1" y1="362.6" x2="352.6" y2="359.1" stroke="#f39c12" stroke-width="1.2" stroke-linecap="round" /><line x1="366.0" y1="358.5" x2="366.0" y2="353.5" stroke="#f39c12" stroke-width="1.2" stroke-linecap="round" /><line x1="375.9" y1="362.6" x2="379.4" y2="359.1" stroke="#f39c12" stroke-width="1.2" stroke-linecap="round" />
  </g>

  <!-- Bottom Banner -->
  <g filter="url(#shadow-10)">
    <rect x="96" y="420" width="320" height="54" rx="27" fill="#FFF" stroke="#ead9c6" stroke-width="4" />
    <text x="256" y="455" 
          text-anchor="middle" 
          font-size="28" 
          font-weight="900" 
          font-family="Comic Sans MS, Arial Rounded MT Bold, sans-serif" 
          fill="#7C5730">10 - Ten</text>
  </g>
</svg>