<svg xmlns="http://www.w3.org/2000/svg" viewBox="0 0 512 512" width="100%" height="100%">
  <defs>
    <!-- Background Gradient -->
    <linearGradient id="bg-14" x1="0%" y1="0%" x2="0%" y2="100%">
      <stop offset="0%" stop-color="#fffdf9" />
      <stop offset="100%" stop-color="#fffbef" />
    </linearGradient>

    <!-- Front Face Gradient -->
    <linearGradient id="front-14" x1="0%" y1="0%" x2="0%" y2="100%">
      <stop offset="0%" stop-color="#ffe389" />
      <stop offset="100%" stop-color="#f4bb00" />
    </linearGradient>

    <!-- 3D Side/Extrusion Color -->
    <linearGradient id="side-14" x1="0%" y1="0%" x2="0%" y2="100%">
      <stop offset="0%" stop-color="#c19400" />
      <stop offset="100%" stop-color="#8e6d00" />
    </linearGradient>

    <!-- Leaf Sprout Gradient -->
    <linearGradient id="leaf-14" x1="0%" y1="0%" x2="100%" y2="100%">
      <stop offset="0%" stop-color="#7BED9F" />
      <stop offset="100%" stop-color="#2ED573" />
    </linearGradient>

    <!-- 3D Base Shadow -->
    <filter id="shadow-14">
      <feDropShadow dx="0" dy="10" stdDeviation="8" flood-color="#000000" flood-opacity="0.25" />
    </filter>
  </defs>

  <!-- Background -->
  <circle cx="256" cy="256" r="236" fill="url(#bg-14)" stroke="#eae2c6" stroke-width="6" />

  <!-- Sparkles -->
  <g fill="#FFD43B">
    <circle cx="100" cy="130" r="8" />
    <circle cx="400" cy="120" r="10" />
    <circle cx="430" cy="330" r="7" />
  </g>

  <!-- Number -->
  <g filter="url(#shadow-14)">
    <!-- Side -->
    <text x="256" y="215" 
          text-anchor="middle" 
          font-size="180" 
          font-weight="900" 
          font-family="Comic Sans MS, Arial Rounded MT Bold, sans-serif" 
          fill="url(#side-14)" 
          stroke="url(#side-14)" 
          stroke-width="18" 
          transform="translate(0, 12)">14</text>

    <!-- Front -->
    <text x="256" y="215" 
          text-anchor="middle" 
          font-size="180" 
          font-weight="900" 
          font-family="Comic Sans MS, Arial Rounded MT Bold, sans-serif" 
          fill="url(#front-14)" 
          stroke="url(#front-14)" 
          stroke-width="18">14</text>
  </g>

  <!-- Cute Sprout -->
  <g transform="translate(256 65)">
    <path d="M0 0 Q-4 -15 -8 -24" stroke="#8B5A2B" stroke-width="5" fill="none" />
    <path d="M-8 -24 C-28 -28 -30 -5 -10 0 Z" fill="url(#leaf-14)" />
    <path d="M-8 -24 C5 -35 22 -20 5 -5 Z" fill="url(#leaf-14)" />
  </g>

  <!-- Eyes -->
  <g>
    <circle cx="215" cy="180" r="18" fill="#222" />
    <circle cx="208" cy="172" r="6" fill="#FFF" />

    <circle cx="297" cy="180" r="18" fill="#222" />
    <circle cx="290" cy="172" r="6" fill="#FFF" />
  </g>

  <!-- Cheeks -->
  <ellipse cx="185" cy="210" rx="18" ry="12" fill="#FF6B81" opacity="0.45" />
  <ellipse cx="327" cy="210" rx="18" ry="12" fill="#FF6B81" opacity="0.45" />

  <!-- Smile -->
  <path d="M225 225 Q256 255 287 225" stroke="#7A1022" stroke-width="8" fill="none" stroke-linecap="round" />

  <!-- Counting Object -->
  <g>
    <circle cx="118.9" cy="322.1" r="19.2" fill="#81ecec" opacity="0.65" stroke="#00cec9" stroke-width="1.5" /><circle cx="113.1" cy="316.4" r="5.8" fill="#ffffff" opacity="0.85" />
<circle cx="164.6" cy="322.1" r="19.2" fill="#81ecec" opacity="0.65" stroke="#00cec9" stroke-width="1.5" /><circle cx="158.8" cy="316.4" r="5.8" fill="#ffffff" opacity="0.85" />
<circle cx="210.3" cy="322.1" r="19.2" fill="#81ecec" opacity="0.65" stroke="#00cec9" stroke-width="1.5" /><circle cx="204.5" cy="316.4" r="5.8" fill="#ffffff" opacity="0.85" />
<circle cx="256.0" cy="322.1" r="19.2" fill="#81ecec" opacity="0.65" stroke="#00cec9" stroke-width="1.5" /><circle cx="250.2" cy="316.4" r="5.8" fill="#ffffff" opacity="0.85" />
<circle cx="301.7" cy="322.1" r="19.2" fill="#81ecec" opacity="0.65" stroke="#00cec9" stroke-width="1.5" /><circle cx="296.0" cy="316.4" r="5.8" fill="#ffffff" opacity="0.85" />
<circle cx="347.4" cy="322.1" r="19.2" fill="#81ecec" opacity="0.65" stroke="#00cec9" stroke-width="1.5" /><circle cx="341.7" cy="316.4" r="5.8" fill="#ffffff" opacity="0.85" />
<circle cx="393.1" cy="322.1" r="19.2" fill="#81ecec" opacity="0.65" stroke="#00cec9" stroke-width="1.5" /><circle cx="387.4" cy="316.4" r="5.8" fill="#ffffff" opacity="0.85" />
<circle cx="118.9" cy="367.9" r="19.2" fill="#81ecec" opacity="0.65" stroke="#00cec9" stroke-width="1.5" /><circle cx="113.1" cy="362.1" r="5.8" fill="#ffffff" opacity="0.85" />
<circle cx="164.6" cy="367.9" r="19.2" fill="#81ecec" opacity="0.65" stroke="#00cec9" stroke-width="1.5" /><circle cx="158.8" cy="362.1" r="5.8" fill="#ffffff" opacity="0.85" />
<circle cx="210.3" cy="367.9" r="19.2" fill="#81ecec" opacity="0.65" stroke="#00cec9" stroke-width="1.5" /><circle cx="204.5" cy="362.1" r="5.8" fill="#ffffff" opacity="0.85" />
<circle cx="256.0" cy="367.9" r="19.2" fill="#81ecec" opacity="0.65" stroke="#00cec9" stroke-width="1.5" /><circle cx="250.2" cy="362.1" r="5.8" fill="#ffffff" opacity="0.85" />
<circle cx="301.7" cy="367.9" r="19.2" fill="#81ecec" opacity="0.65" stroke="#00cec9" stroke-width="1.5" /><circle cx="296.0" cy="362.1" r="5.8" fill="#ffffff" opacity="0.85" />
<circle cx="347.4" cy="367.9" r="19.2" fill="#81ecec" opacity="0.65" stroke="#00cec9" stroke-width="1.5" /><circle cx="341.7" cy="362.1" r="5.8" fill="#ffffff" opacity="0.85" />
<circle cx="393.1" cy="367.9" r="19.2" fill="#81ecec" opacity="0.65" stroke="#00cec9" stroke-width="1.5" /><circle cx="387.4" cy="362.1" r="5.8" fill="#ffffff" opacity="0.85" />
  </g>

  <!-- Bottom Banner -->
  <g filter="url(#shadow-14)">
    <rect x="96" y="420" width="320" height="54" rx="27" fill="#FFF" stroke="#eae2c6" stroke-width="4" />
    <text x="256" y="455" 
          text-anchor="middle" 
          font-size="28" 
          font-weight="900" 
          font-family="Comic Sans MS, Arial Rounded MT Bold, sans-serif" 
          fill="#7C5730">14 - Fourteen</text>
  </g>
</svg>