<svg xmlns="http://www.w3.org/2000/svg" viewBox="0 0 512 512" width="100%" height="100%">
  <defs>
    <!-- Background Gradient -->
    <linearGradient id="bg-20" x1="0%" y1="0%" x2="0%" y2="100%">
      <stop offset="0%" stop-color="#fefff9" />
      <stop offset="100%" stop-color="#fcffef" />
    </linearGradient>

    <!-- Front Face Gradient -->
    <linearGradient id="front-20" x1="0%" y1="0%" x2="0%" y2="100%">
      <stop offset="0%" stop-color="#efff89" />
      <stop offset="100%" stop-color="#d4f400" />
    </linearGradient>

    <!-- 3D Side/Extrusion Color -->
    <linearGradient id="side-20" x1="0%" y1="0%" x2="0%" y2="100%">
      <stop offset="0%" stop-color="#a7c100" />
      <stop offset="100%" stop-color="#7b8e00" />
    </linearGradient>

    <!-- Leaf Sprout Gradient -->
    <linearGradient id="leaf-20" x1="0%" y1="0%" x2="100%" y2="100%">
      <stop offset="0%" stop-color="#7BED9F" />
      <stop offset="100%" stop-color="#2ED573" />
    </linearGradient>

    <!-- 3D Base Shadow -->
    <filter id="shadow-20">
      <feDropShadow dx="0" dy="10" stdDeviation="8" flood-color="#000000" flood-opacity="0.25" />
    </filter>
  </defs>

  <!-- Background -->
  <circle cx="256" cy="256" r="236" fill="url(#bg-20)" stroke="#e5eac6" stroke-width="6" />

  <!-- Sparkles -->
  <g fill="#FFD43B">
    <circle cx="100" cy="130" r="8" />
    <circle cx="400" cy="120" r="10" />
    <circle cx="430" cy="330" r="7" />
  </g>

  <!-- Number -->
  <g filter="url(#shadow-20)">
    <!-- Side -->
    <text x="256" y="215" 
          text-anchor="middle" 
          font-size="180" 
          font-weight="900" 
          font-family="Comic Sans MS, Arial Rounded MT Bold, sans-serif" 
          fill="url(#side-20)" 
          stroke="url(#side-20)" 
          stroke-width="18" 
          transform="translate(0, 12)">20</text>

    <!-- Front -->
    <text x="256" y="215" 
          text-anchor="middle" 
          font-size="180" 
          font-weight="900" 
          font-family="Comic Sans MS, Arial Rounded MT Bold, sans-serif" 
          fill="url(#front-20)" 
          stroke="url(#front-20)" 
          stroke-width="18">20</text>
  </g>

  <!-- Cute Sprout -->
  <g transform="translate(256 65)">
    <path d="M0 0 Q-4 -15 -8 -24" stroke="#8B5A2B" stroke-width="5" fill="none" />
    <path d="M-8 -24 C-28 -28 -30 -5 -10 0 Z" fill="url(#leaf-20)" />
    <path d="M-8 -24 C5 -35 22 -20 5 -5 Z" fill="url(#leaf-20)" />
  </g>

  <!-- Eyes -->
  <g>
    <circle cx="215" cy="180" r="18" fill="#222" />
    <circle cx="208" cy="172" r="6" fill="#FFF" />

    <circle cx="297" cy="180" r="18" fill="#222" />
    <circle cx="290" cy="172" r="6" fill="#FFF" />
  </g>

  <!-- Cheeks -->
  <ellipse cx="185" cy="210" rx="18" ry="12" fill="#FF6B81" opacity="0.45" />
  <ellipse cx="327" cy="210" rx="18" ry="12" fill="#FF6B81" opacity="0.45" />

  <!-- Smile -->
  <path d="M225 225 Q256 255 287 225" stroke="#7A1022" stroke-width="8" fill="none" stroke-linecap="round" />

  <!-- Counting Object -->
  <g>
    <circle cx="146.0" cy="308.3" r="9.2" fill="#f1c40f" /><line x1="156.8" y1="308.3" x2="160.6" y2="308.3" stroke="#f39c12" stroke-width="1.2" stroke-linecap="round" /><line x1="153.6" y1="316.0" x2="156.3" y2="318.7" stroke="#f39c12" stroke-width="1.2" stroke-linecap="round" /><line x1="146.0" y1="319.1" x2="146.0" y2="323.0" stroke="#f39c12" stroke-width="1.2" stroke-linecap="round" /><line x1="138.4" y1="316.0" x2="135.7" y2="318.7" stroke="#f39c12" stroke-width="1.2" stroke-linecap="round" /><line x1="135.2" y1="308.3" x2="131.4" y2="308.3" stroke="#f39c12" stroke-width="1.2" stroke-linecap="round" /><line x1="138.4" y1="300.7" x2="135.7" y2="298.0" stroke="#f39c12" stroke-width="1.2" stroke-linecap="round" /><line x1="146.0" y1="297.6" x2="146.0" y2="293.7" stroke="#f39c12" stroke-width="1.2" stroke-linecap="round" /><line x1="153.6" y1="300.7" x2="156.3" y2="298.0" stroke="#f39c12" stroke-width="1.2" stroke-linecap="round" />
<circle cx="182.7" cy="308.3" r="9.2" fill="#f1c40f" /><line x1="193.4" y1="308.3" x2="197.3" y2="308.3" stroke="#f39c12" stroke-width="1.2" stroke-linecap="round" /><line x1="190.3" y1="316.0" x2="193.0" y2="318.7" stroke="#f39c12" stroke-width="1.2" stroke-linecap="round" /><line x1="182.7" y1="319.1" x2="182.7" y2="323.0" stroke="#f39c12" stroke-width="1.2" stroke-linecap="round" /><line x1="175.0" y1="316.0" x2="172.3" y2="318.7" stroke="#f39c12" stroke-width="1.2" stroke-linecap="round" /><line x1="171.9" y1="308.3" x2="168.0" y2="308.3" stroke="#f39c12" stroke-width="1.2" stroke-linecap="round" /><line x1="175.0" y1="300.7" x2="172.3" y2="298.0" stroke="#f39c12" stroke-width="1.2" stroke-linecap="round" /><line x1="182.7" y1="297.6" x2="182.7" y2="293.7" stroke="#f39c12" stroke-width="1.2" stroke-linecap="round" /><line x1="190.3" y1="300.7" x2="193.0" y2="298.0" stroke="#f39c12" stroke-width="1.2" stroke-linecap="round" />
<circle cx="219.3" cy="308.3" r="9.2" fill="#f1c40f" /><line x1="230.1" y1="308.3" x2="234.0" y2="308.3" stroke="#f39c12" stroke-width="1.2" stroke-linecap="round" /><line x1="227.0" y1="316.0" x2="229.7" y2="318.7" stroke="#f39c12" stroke-width="1.2" stroke-linecap="round" /><line x1="219.3" y1="319.1" x2="219.3" y2="323.0" stroke="#f39c12" stroke-width="1.2" stroke-linecap="round" /><line x1="211.7" y1="316.0" x2="209.0" y2="318.7" stroke="#f39c12" stroke-width="1.2" stroke-linecap="round" /><line x1="208.6" y1="308.3" x2="204.7" y2="308.3" stroke="#f39c12" stroke-width="1.2" stroke-linecap="round" /><line x1="211.7" y1="300.7" x2="209.0" y2="298.0" stroke="#f39c12" stroke-width="1.2" stroke-linecap="round" /><line x1="219.3" y1="297.6" x2="219.3" y2="293.7" stroke="#f39c12" stroke-width="1.2" stroke-linecap="round" /><line x1="227.0" y1="300.7" x2="229.7" y2="298.0" stroke="#f39c12" stroke-width="1.2" stroke-linecap="round" />
<circle cx="256.0" cy="308.3" r="9.2" fill="#f1c40f" /><line x1="266.8" y1="308.3" x2="270.6" y2="308.3" stroke="#f39c12" stroke-width="1.2" stroke-linecap="round" /><line x1="263.6" y1="316.0" x2="266.3" y2="318.7" stroke="#f39c12" stroke-width="1.2" stroke-linecap="round" /><line x1="256.0" y1="319.1" x2="256.0" y2="323.0" stroke="#f39c12" stroke-width="1.2" stroke-linecap="round" /><line x1="248.4" y1="316.0" x2="245.7" y2="318.7" stroke="#f39c12" stroke-width="1.2" stroke-linecap="round" /><line x1="245.2" y1="308.3" x2="241.4" y2="308.3" stroke="#f39c12" stroke-width="1.2" stroke-linecap="round" /><line x1="248.4" y1="300.7" x2="245.7" y2="298.0" stroke="#f39c12" stroke-width="1.2" stroke-linecap="round" /><line x1="256.0" y1="297.6" x2="256.0" y2="293.7" stroke="#f39c12" stroke-width="1.2" stroke-linecap="round" /><line x1="263.6" y1="300.7" x2="266.3" y2="298.0" stroke="#f39c12" stroke-width="1.2" stroke-linecap="round" />
<circle cx="292.7" cy="308.3" r="9.2" fill="#f1c40f" /><line x1="303.4" y1="308.3" x2="307.3" y2="308.3" stroke="#f39c12" stroke-width="1.2" stroke-linecap="round" /><line x1="300.3" y1="316.0" x2="303.0" y2="318.7" stroke="#f39c12" stroke-width="1.2" stroke-linecap="round" /><line x1="292.7" y1="319.1" x2="292.7" y2="323.0" stroke="#f39c12" stroke-width="1.2" stroke-linecap="round" /><line x1="285.0" y1="316.0" x2="282.3" y2="318.7" stroke="#f39c12" stroke-width="1.2" stroke-linecap="round" /><line x1="281.9" y1="308.3" x2="278.0" y2="308.3" stroke="#f39c12" stroke-width="1.2" stroke-linecap="round" /><line x1="285.0" y1="300.7" x2="282.3" y2="298.0" stroke="#f39c12" stroke-width="1.2" stroke-linecap="round" /><line x1="292.7" y1="297.6" x2="292.7" y2="293.7" stroke="#f39c12" stroke-width="1.2" stroke-linecap="round" /><line x1="300.3" y1="300.7" x2="303.0" y2="298.0" stroke="#f39c12" stroke-width="1.2" stroke-linecap="round" />
<circle cx="329.3" cy="308.3" r="9.2" fill="#f1c40f" /><line x1="340.1" y1="308.3" x2="344.0" y2="308.3" stroke="#f39c12" stroke-width="1.2" stroke-linecap="round" /><line x1="337.0" y1="316.0" x2="339.7" y2="318.7" stroke="#f39c12" stroke-width="1.2" stroke-linecap="round" /><line x1="329.3" y1="319.1" x2="329.3" y2="323.0" stroke="#f39c12" stroke-width="1.2" stroke-linecap="round" /><line x1="321.7" y1="316.0" x2="319.0" y2="318.7" stroke="#f39c12" stroke-width="1.2" stroke-linecap="round" /><line x1="318.6" y1="308.3" x2="314.7" y2="308.3" stroke="#f39c12" stroke-width="1.2" stroke-linecap="round" /><line x1="321.7" y1="300.7" x2="319.0" y2="298.0" stroke="#f39c12" stroke-width="1.2" stroke-linecap="round" /><line x1="329.3" y1="297.6" x2="329.3" y2="293.7" stroke="#f39c12" stroke-width="1.2" stroke-linecap="round" /><line x1="337.0" y1="300.7" x2="339.7" y2="298.0" stroke="#f39c12" stroke-width="1.2" stroke-linecap="round" />
<circle cx="366.0" cy="308.3" r="9.2" fill="#f1c40f" /><line x1="376.8" y1="308.3" x2="380.6" y2="308.3" stroke="#f39c12" stroke-width="1.2" stroke-linecap="round" /><line x1="373.6" y1="316.0" x2="376.3" y2="318.7" stroke="#f39c12" stroke-width="1.2" stroke-linecap="round" /><line x1="366.0" y1="319.1" x2="366.0" y2="323.0" stroke="#f39c12" stroke-width="1.2" stroke-linecap="round" /><line x1="358.4" y1="316.0" x2="355.7" y2="318.7" stroke="#f39c12" stroke-width="1.2" stroke-linecap="round" /><line x1="355.2" y1="308.3" x2="351.4" y2="308.3" stroke="#f39c12" stroke-width="1.2" stroke-linecap="round" /><line x1="358.4" y1="300.7" x2="355.7" y2="298.0" stroke="#f39c12" stroke-width="1.2" stroke-linecap="round" /><line x1="366.0" y1="297.6" x2="366.0" y2="293.7" stroke="#f39c12" stroke-width="1.2" stroke-linecap="round" /><line x1="373.6" y1="300.7" x2="376.3" y2="298.0" stroke="#f39c12" stroke-width="1.2" stroke-linecap="round" />
<circle cx="146.0" cy="345.0" r="9.2" fill="#f1c40f" /><line x1="156.8" y1="345.0" x2="160.6" y2="345.0" stroke="#f39c12" stroke-width="1.2" stroke-linecap="round" /><line x1="153.6" y1="352.6" x2="156.3" y2="355.3" stroke="#f39c12" stroke-width="1.2" stroke-linecap="round" /><line x1="146.0" y1="355.8" x2="146.0" y2="359.6" stroke="#f39c12" stroke-width="1.2" stroke-linecap="round" /><line x1="138.4" y1="352.6" x2="135.7" y2="355.3" stroke="#f39c12" stroke-width="1.2" stroke-linecap="round" /><line x1="135.2" y1="345.0" x2="131.4" y2="345.0" stroke="#f39c12" stroke-width="1.2" stroke-linecap="round" /><line x1="138.4" y1="337.4" x2="135.7" y2="334.7" stroke="#f39c12" stroke-width="1.2" stroke-linecap="round" /><line x1="146.0" y1="334.2" x2="146.0" y2="330.4" stroke="#f39c12" stroke-width="1.2" stroke-linecap="round" /><line x1="153.6" y1="337.4" x2="156.3" y2="334.7" stroke="#f39c12" stroke-width="1.2" stroke-linecap="round" />
<circle cx="182.7" cy="345.0" r="9.2" fill="#f1c40f" /><line x1="193.4" y1="345.0" x2="197.3" y2="345.0" stroke="#f39c12" stroke-width="1.2" stroke-linecap="round" /><line x1="190.3" y1="352.6" x2="193.0" y2="355.3" stroke="#f39c12" stroke-width="1.2" stroke-linecap="round" /><line x1="182.7" y1="355.8" x2="182.7" y2="359.6" stroke="#f39c12" stroke-width="1.2" stroke-linecap="round" /><line x1="175.0" y1="352.6" x2="172.3" y2="355.3" stroke="#f39c12" stroke-width="1.2" stroke-linecap="round" /><line x1="171.9" y1="345.0" x2="168.0" y2="345.0" stroke="#f39c12" stroke-width="1.2" stroke-linecap="round" /><line x1="175.0" y1="337.4" x2="172.3" y2="334.7" stroke="#f39c12" stroke-width="1.2" stroke-linecap="round" /><line x1="182.7" y1="334.2" x2="182.7" y2="330.4" stroke="#f39c12" stroke-width="1.2" stroke-linecap="round" /><line x1="190.3" y1="337.4" x2="193.0" y2="334.7" stroke="#f39c12" stroke-width="1.2" stroke-linecap="round" />
<circle cx="219.3" cy="345.0" r="9.2" fill="#f1c40f" /><line x1="230.1" y1="345.0" x2="234.0" y2="345.0" stroke="#f39c12" stroke-width="1.2" stroke-linecap="round" /><line x1="227.0" y1="352.6" x2="229.7" y2="355.3" stroke="#f39c12" stroke-width="1.2" stroke-linecap="round" /><line x1="219.3" y1="355.8" x2="219.3" y2="359.6" stroke="#f39c12" stroke-width="1.2" stroke-linecap="round" /><line x1="211.7" y1="352.6" x2="209.0" y2="355.3" stroke="#f39c12" stroke-width="1.2" stroke-linecap="round" /><line x1="208.6" y1="345.0" x2="204.7" y2="345.0" stroke="#f39c12" stroke-width="1.2" stroke-linecap="round" /><line x1="211.7" y1="337.4" x2="209.0" y2="334.7" stroke="#f39c12" stroke-width="1.2" stroke-linecap="round" /><line x1="219.3" y1="334.2" x2="219.3" y2="330.4" stroke="#f39c12" stroke-width="1.2" stroke-linecap="round" /><line x1="227.0" y1="337.4" x2="229.7" y2="334.7" stroke="#f39c12" stroke-width="1.2" stroke-linecap="round" />
<circle cx="256.0" cy="345.0" r="9.2" fill="#f1c40f" /><line x1="266.8" y1="345.0" x2="270.6" y2="345.0" stroke="#f39c12" stroke-width="1.2" stroke-linecap="round" /><line x1="263.6" y1="352.6" x2="266.3" y2="355.3" stroke="#f39c12" stroke-width="1.2" stroke-linecap="round" /><line x1="256.0" y1="355.8" x2="256.0" y2="359.6" stroke="#f39c12" stroke-width="1.2" stroke-linecap="round" /><line x1="248.4" y1="352.6" x2="245.7" y2="355.3" stroke="#f39c12" stroke-width="1.2" stroke-linecap="round" /><line x1="245.2" y1="345.0" x2="241.4" y2="345.0" stroke="#f39c12" stroke-width="1.2" stroke-linecap="round" /><line x1="248.4" y1="337.4" x2="245.7" y2="334.7" stroke="#f39c12" stroke-width="1.2" stroke-linecap="round" /><line x1="256.0" y1="334.2" x2="256.0" y2="330.4" stroke="#f39c12" stroke-width="1.2" stroke-linecap="round" /><line x1="263.6" y1="337.4" x2="266.3" y2="334.7" stroke="#f39c12" stroke-width="1.2" stroke-linecap="round" />
<circle cx="292.7" cy="345.0" r="9.2" fill="#f1c40f" /><line x1="303.4" y1="345.0" x2="307.3" y2="345.0" stroke="#f39c12" stroke-width="1.2" stroke-linecap="round" /><line x1="300.3" y1="352.6" x2="303.0" y2="355.3" stroke="#f39c12" stroke-width="1.2" stroke-linecap="round" /><line x1="292.7" y1="355.8" x2="292.7" y2="359.6" stroke="#f39c12" stroke-width="1.2" stroke-linecap="round" /><line x1="285.0" y1="352.6" x2="282.3" y2="355.3" stroke="#f39c12" stroke-width="1.2" stroke-linecap="round" /><line x1="281.9" y1="345.0" x2="278.0" y2="345.0" stroke="#f39c12" stroke-width="1.2" stroke-linecap="round" /><line x1="285.0" y1="337.4" x2="282.3" y2="334.7" stroke="#f39c12" stroke-width="1.2" stroke-linecap="round" /><line x1="292.7" y1="334.2" x2="292.7" y2="330.4" stroke="#f39c12" stroke-width="1.2" stroke-linecap="round" /><line x1="300.3" y1="337.4" x2="303.0" y2="334.7" stroke="#f39c12" stroke-width="1.2" stroke-linecap="round" />
<circle cx="329.3" cy="345.0" r="9.2" fill="#f1c40f" /><line x1="340.1" y1="345.0" x2="344.0" y2="345.0" stroke="#f39c12" stroke-width="1.2" stroke-linecap="round" /><line x1="337.0" y1="352.6" x2="339.7" y2="355.3" stroke="#f39c12" stroke-width="1.2" stroke-linecap="round" /><line x1="329.3" y1="355.8" x2="329.3" y2="359.6" stroke="#f39c12" stroke-width="1.2" stroke-linecap="round" /><line x1="321.7" y1="352.6" x2="319.0" y2="355.3" stroke="#f39c12" stroke-width="1.2" stroke-linecap="round" /><line x1="318.6" y1="345.0" x2="314.7" y2="345.0" stroke="#f39c12" stroke-width="1.2" stroke-linecap="round" /><line x1="321.7" y1="337.4" x2="319.0" y2="334.7" stroke="#f39c12" stroke-width="1.2" stroke-linecap="round" /><line x1="329.3" y1="334.2" x2="329.3" y2="330.4" stroke="#f39c12" stroke-width="1.2" stroke-linecap="round" /><line x1="337.0" y1="337.4" x2="339.7" y2="334.7" stroke="#f39c12" stroke-width="1.2" stroke-linecap="round" />
<circle cx="366.0" cy="345.0" r="9.2" fill="#f1c40f" /><line x1="376.8" y1="345.0" x2="380.6" y2="345.0" stroke="#f39c12" stroke-width="1.2" stroke-linecap="round" /><line x1="373.6" y1="352.6" x2="376.3" y2="355.3" stroke="#f39c12" stroke-width="1.2" stroke-linecap="round" /><line x1="366.0" y1="355.8" x2="366.0" y2="359.6" stroke="#f39c12" stroke-width="1.2" stroke-linecap="round" /><line x1="358.4" y1="352.6" x2="355.7" y2="355.3" stroke="#f39c12" stroke-width="1.2" stroke-linecap="round" /><line x1="355.2" y1="345.0" x2="351.4" y2="345.0" stroke="#f39c12" stroke-width="1.2" stroke-linecap="round" /><line x1="358.4" y1="337.4" x2="355.7" y2="334.7" stroke="#f39c12" stroke-width="1.2" stroke-linecap="round" /><line x1="366.0" y1="334.2" x2="366.0" y2="330.4" stroke="#f39c12" stroke-width="1.2" stroke-linecap="round" /><line x1="373.6" y1="337.4" x2="376.3" y2="334.7" stroke="#f39c12" stroke-width="1.2" stroke-linecap="round" />
<circle cx="146.0" cy="381.7" r="9.2" fill="#f1c40f" /><line x1="156.8" y1="381.7" x2="160.6" y2="381.7" stroke="#f39c12" stroke-width="1.2" stroke-linecap="round" /><line x1="153.6" y1="389.3" x2="156.3" y2="392.0" stroke="#f39c12" stroke-width="1.2" stroke-linecap="round" /><line x1="146.0" y1="392.4" x2="146.0" y2="396.3" stroke="#f39c12" stroke-width="1.2" stroke-linecap="round" /><line x1="138.4" y1="389.3" x2="135.7" y2="392.0" stroke="#f39c12" stroke-width="1.2" stroke-linecap="round" /><line x1="135.2" y1="381.7" x2="131.4" y2="381.7" stroke="#f39c12" stroke-width="1.2" stroke-linecap="round" /><line x1="138.4" y1="374.0" x2="135.7" y2="371.3" stroke="#f39c12" stroke-width="1.2" stroke-linecap="round" /><line x1="146.0" y1="370.9" x2="146.0" y2="367.0" stroke="#f39c12" stroke-width="1.2" stroke-linecap="round" /><line x1="153.6" y1="374.0" x2="156.3" y2="371.3" stroke="#f39c12" stroke-width="1.2" stroke-linecap="round" />
<circle cx="182.7" cy="381.7" r="9.2" fill="#f1c40f" /><line x1="193.4" y1="381.7" x2="197.3" y2="381.7" stroke="#f39c12" stroke-width="1.2" stroke-linecap="round" /><line x1="190.3" y1="389.3" x2="193.0" y2="392.0" stroke="#f39c12" stroke-width="1.2" stroke-linecap="round" /><line x1="182.7" y1="392.4" x2="182.7" y2="396.3" stroke="#f39c12" stroke-width="1.2" stroke-linecap="round" /><line x1="175.0" y1="389.3" x2="172.3" y2="392.0" stroke="#f39c12" stroke-width="1.2" stroke-linecap="round" /><line x1="171.9" y1="381.7" x2="168.0" y2="381.7" stroke="#f39c12" stroke-width="1.2" stroke-linecap="round" /><line x1="175.0" y1="374.0" x2="172.3" y2="371.3" stroke="#f39c12" stroke-width="1.2" stroke-linecap="round" /><line x1="182.7" y1="370.9" x2="182.7" y2="367.0" stroke="#f39c12" stroke-width="1.2" stroke-linecap="round" /><line x1="190.3" y1="374.0" x2="193.0" y2="371.3" stroke="#f39c12" stroke-width="1.2" stroke-linecap="round" />
<circle cx="219.3" cy="381.7" r="9.2" fill="#f1c40f" /><line x1="230.1" y1="381.7" x2="234.0" y2="381.7" stroke="#f39c12" stroke-width="1.2" stroke-linecap="round" /><line x1="227.0" y1="389.3" x2="229.7" y2="392.0" stroke="#f39c12" stroke-width="1.2" stroke-linecap="round" /><line x1="219.3" y1="392.4" x2="219.3" y2="396.3" stroke="#f39c12" stroke-width="1.2" stroke-linecap="round" /><line x1="211.7" y1="389.3" x2="209.0" y2="392.0" stroke="#f39c12" stroke-width="1.2" stroke-linecap="round" /><line x1="208.6" y1="381.7" x2="204.7" y2="381.7" stroke="#f39c12" stroke-width="1.2" stroke-linecap="round" /><line x1="211.7" y1="374.0" x2="209.0" y2="371.3" stroke="#f39c12" stroke-width="1.2" stroke-linecap="round" /><line x1="219.3" y1="370.9" x2="219.3" y2="367.0" stroke="#f39c12" stroke-width="1.2" stroke-linecap="round" /><line x1="227.0" y1="374.0" x2="229.7" y2="371.3" stroke="#f39c12" stroke-width="1.2" stroke-linecap="round" />
<circle cx="256.0" cy="381.7" r="9.2" fill="#f1c40f" /><line x1="266.8" y1="381.7" x2="270.6" y2="381.7" stroke="#f39c12" stroke-width="1.2" stroke-linecap="round" /><line x1="263.6" y1="389.3" x2="266.3" y2="392.0" stroke="#f39c12" stroke-width="1.2" stroke-linecap="round" /><line x1="256.0" y1="392.4" x2="256.0" y2="396.3" stroke="#f39c12" stroke-width="1.2" stroke-linecap="round" /><line x1="248.4" y1="389.3" x2="245.7" y2="392.0" stroke="#f39c12" stroke-width="1.2" stroke-linecap="round" /><line x1="245.2" y1="381.7" x2="241.4" y2="381.7" stroke="#f39c12" stroke-width="1.2" stroke-linecap="round" /><line x1="248.4" y1="374.0" x2="245.7" y2="371.3" stroke="#f39c12" stroke-width="1.2" stroke-linecap="round" /><line x1="256.0" y1="370.9" x2="256.0" y2="367.0" stroke="#f39c12" stroke-width="1.2" stroke-linecap="round" /><line x1="263.6" y1="374.0" x2="266.3" y2="371.3" stroke="#f39c12" stroke-width="1.2" stroke-linecap="round" />
<circle cx="292.7" cy="381.7" r="9.2" fill="#f1c40f" /><line x1="303.4" y1="381.7" x2="307.3" y2="381.7" stroke="#f39c12" stroke-width="1.2" stroke-linecap="round" /><line x1="300.3" y1="389.3" x2="303.0" y2="392.0" stroke="#f39c12" stroke-width="1.2" stroke-linecap="round" /><line x1="292.7" y1="392.4" x2="292.7" y2="396.3" stroke="#f39c12" stroke-width="1.2" stroke-linecap="round" /><line x1="285.0" y1="389.3" x2="282.3" y2="392.0" stroke="#f39c12" stroke-width="1.2" stroke-linecap="round" /><line x1="281.9" y1="381.7" x2="278.0" y2="381.7" stroke="#f39c12" stroke-width="1.2" stroke-linecap="round" /><line x1="285.0" y1="374.0" x2="282.3" y2="371.3" stroke="#f39c12" stroke-width="1.2" stroke-linecap="round" /><line x1="292.7" y1="370.9" x2="292.7" y2="367.0" stroke="#f39c12" stroke-width="1.2" stroke-linecap="round" /><line x1="300.3" y1="374.0" x2="303.0" y2="371.3" stroke="#f39c12" stroke-width="1.2" stroke-linecap="round" />
<circle cx="329.3" cy="381.7" r="9.2" fill="#f1c40f" /><line x1="340.1" y1="381.7" x2="344.0" y2="381.7" stroke="#f39c12" stroke-width="1.2" stroke-linecap="round" /><line x1="337.0" y1="389.3" x2="339.7" y2="392.0" stroke="#f39c12" stroke-width="1.2" stroke-linecap="round" /><line x1="329.3" y1="392.4" x2="329.3" y2="396.3" stroke="#f39c12" stroke-width="1.2" stroke-linecap="round" /><line x1="321.7" y1="389.3" x2="319.0" y2="392.0" stroke="#f39c12" stroke-width="1.2" stroke-linecap="round" /><line x1="318.6" y1="381.7" x2="314.7" y2="381.7" stroke="#f39c12" stroke-width="1.2" stroke-linecap="round" /><line x1="321.7" y1="374.0" x2="319.0" y2="371.3" stroke="#f39c12" stroke-width="1.2" stroke-linecap="round" /><line x1="329.3" y1="370.9" x2="329.3" y2="367.0" stroke="#f39c12" stroke-width="1.2" stroke-linecap="round" /><line x1="337.0" y1="374.0" x2="339.7" y2="371.3" stroke="#f39c12" stroke-width="1.2" stroke-linecap="round" />
  </g>

  <!-- Bottom Banner -->
  <g filter="url(#shadow-20)">
    <rect x="96" y="420" width="320" height="54" rx="27" fill="#FFF" stroke="#e5eac6" stroke-width="4" />
    <text x="256" y="455" 
          text-anchor="middle" 
          font-size="28" 
          font-weight="900" 
          font-family="Comic Sans MS, Arial Rounded MT Bold, sans-serif" 
          fill="#7C5730">20 - Twenty</text>
  </g>
</svg>