<svg xmlns="http://www.w3.org/2000/svg" viewBox="0 0 512 512" width="100%" height="100%">
  <defs>
    <!-- Background Gradient -->
    <linearGradient id="bg-30" x1="0%" y1="0%" x2="0%" y2="100%">
      <stop offset="0%" stop-color="#fbfff9" />
      <stop offset="100%" stop-color="#f3ffef" />
    </linearGradient>

    <!-- Front Face Gradient -->
    <linearGradient id="front-30" x1="0%" y1="0%" x2="0%" y2="100%">
      <stop offset="0%" stop-color="#a8ff89" />
      <stop offset="100%" stop-color="#41f400" />
    </linearGradient>

    <!-- 3D Side/Extrusion Color -->
    <linearGradient id="side-30" x1="0%" y1="0%" x2="0%" y2="100%">
      <stop offset="0%" stop-color="#33c100" />
      <stop offset="100%" stop-color="#268e00" />
    </linearGradient>

    <!-- Leaf Sprout Gradient -->
    <linearGradient id="leaf-30" x1="0%" y1="0%" x2="100%" y2="100%">
      <stop offset="0%" stop-color="#7BED9F" />
      <stop offset="100%" stop-color="#2ED573" />
    </linearGradient>

    <!-- 3D Base Shadow -->
    <filter id="shadow-30">
      <feDropShadow dx="0" dy="10" stdDeviation="8" flood-color="#000000" flood-opacity="0.25" />
    </filter>
  </defs>

  <!-- Background -->
  <circle cx="256" cy="256" r="236" fill="url(#bg-30)" stroke="#d0eac6" stroke-width="6" />

  <!-- Sparkles -->
  <g fill="#FFD43B">
    <circle cx="100" cy="130" r="8" />
    <circle cx="400" cy="120" r="10" />
    <circle cx="430" cy="330" r="7" />
  </g>

  <!-- Number -->
  <g filter="url(#shadow-30)">
    <!-- Side -->
    <text x="256" y="215" 
          text-anchor="middle" 
          font-size="180" 
          font-weight="900" 
          font-family="Comic Sans MS, Arial Rounded MT Bold, sans-serif" 
          fill="url(#side-30)" 
          stroke="url(#side-30)" 
          stroke-width="18" 
          transform="translate(0, 12)">30</text>

    <!-- Front -->
    <text x="256" y="215" 
          text-anchor="middle" 
          font-size="180" 
          font-weight="900" 
          font-family="Comic Sans MS, Arial Rounded MT Bold, sans-serif" 
          fill="url(#front-30)" 
          stroke="url(#front-30)" 
          stroke-width="18">30</text>
  </g>

  <!-- Cute Sprout -->
  <g transform="translate(256 65)">
    <path d="M0 0 Q-4 -15 -8 -24" stroke="#8B5A2B" stroke-width="5" fill="none" />
    <path d="M-8 -24 C-28 -28 -30 -5 -10 0 Z" fill="url(#leaf-30)" />
    <path d="M-8 -24 C5 -35 22 -20 5 -5 Z" fill="url(#leaf-30)" />
  </g>

  <!-- Eyes -->
  <g>
    <circle cx="215" cy="180" r="18" fill="#222" />
    <circle cx="208" cy="172" r="6" fill="#FFF" />

    <circle cx="297" cy="180" r="18" fill="#222" />
    <circle cx="290" cy="172" r="6" fill="#FFF" />
  </g>

  <!-- Cheeks -->
  <ellipse cx="185" cy="210" rx="18" ry="12" fill="#FF6B81" opacity="0.45" />
  <ellipse cx="327" cy="210" rx="18" ry="12" fill="#FF6B81" opacity="0.45" />

  <!-- Smile -->
  <path d="M225 225 Q256 255 287 225" stroke="#7A1022" stroke-width="8" fill="none" stroke-linecap="round" />

  <!-- Counting Object -->
  <g>
    <circle cx="112.0" cy="313.0" r="8.1" fill="#f1c40f" /><line x1="121.4" y1="313.0" x2="124.8" y2="313.0" stroke="#f39c12" stroke-width="1.2" stroke-linecap="round" /><line x1="118.7" y1="319.7" x2="121.0" y2="322.0" stroke="#f39c12" stroke-width="1.2" stroke-linecap="round" /><line x1="112.0" y1="322.4" x2="112.0" y2="325.8" stroke="#f39c12" stroke-width="1.2" stroke-linecap="round" /><line x1="105.3" y1="319.7" x2="103.0" y2="322.0" stroke="#f39c12" stroke-width="1.2" stroke-linecap="round" /><line x1="102.6" y1="313.0" x2="99.2" y2="313.0" stroke="#f39c12" stroke-width="1.2" stroke-linecap="round" /><line x1="105.3" y1="306.3" x2="103.0" y2="304.0" stroke="#f39c12" stroke-width="1.2" stroke-linecap="round" /><line x1="112.0" y1="303.6" x2="112.0" y2="300.2" stroke="#f39c12" stroke-width="1.2" stroke-linecap="round" /><line x1="118.7" y1="306.3" x2="121.0" y2="304.0" stroke="#f39c12" stroke-width="1.2" stroke-linecap="round" />
<circle cx="144.0" cy="313.0" r="8.1" fill="#f1c40f" /><line x1="153.4" y1="313.0" x2="156.8" y2="313.0" stroke="#f39c12" stroke-width="1.2" stroke-linecap="round" /><line x1="150.7" y1="319.7" x2="153.0" y2="322.0" stroke="#f39c12" stroke-width="1.2" stroke-linecap="round" /><line x1="144.0" y1="322.4" x2="144.0" y2="325.8" stroke="#f39c12" stroke-width="1.2" stroke-linecap="round" /><line x1="137.3" y1="319.7" x2="135.0" y2="322.0" stroke="#f39c12" stroke-width="1.2" stroke-linecap="round" /><line x1="134.6" y1="313.0" x2="131.2" y2="313.0" stroke="#f39c12" stroke-width="1.2" stroke-linecap="round" /><line x1="137.3" y1="306.3" x2="135.0" y2="304.0" stroke="#f39c12" stroke-width="1.2" stroke-linecap="round" /><line x1="144.0" y1="303.6" x2="144.0" y2="300.2" stroke="#f39c12" stroke-width="1.2" stroke-linecap="round" /><line x1="150.7" y1="306.3" x2="153.0" y2="304.0" stroke="#f39c12" stroke-width="1.2" stroke-linecap="round" />
<circle cx="176.0" cy="313.0" r="8.1" fill="#f1c40f" /><line x1="185.4" y1="313.0" x2="188.8" y2="313.0" stroke="#f39c12" stroke-width="1.2" stroke-linecap="round" /><line x1="182.7" y1="319.7" x2="185.0" y2="322.0" stroke="#f39c12" stroke-width="1.2" stroke-linecap="round" /><line x1="176.0" y1="322.4" x2="176.0" y2="325.8" stroke="#f39c12" stroke-width="1.2" stroke-linecap="round" /><line x1="169.3" y1="319.7" x2="167.0" y2="322.0" stroke="#f39c12" stroke-width="1.2" stroke-linecap="round" /><line x1="166.6" y1="313.0" x2="163.2" y2="313.0" stroke="#f39c12" stroke-width="1.2" stroke-linecap="round" /><line x1="169.3" y1="306.3" x2="167.0" y2="304.0" stroke="#f39c12" stroke-width="1.2" stroke-linecap="round" /><line x1="176.0" y1="303.6" x2="176.0" y2="300.2" stroke="#f39c12" stroke-width="1.2" stroke-linecap="round" /><line x1="182.7" y1="306.3" x2="185.0" y2="304.0" stroke="#f39c12" stroke-width="1.2" stroke-linecap="round" />
<circle cx="208.0" cy="313.0" r="8.1" fill="#f1c40f" /><line x1="217.4" y1="313.0" x2="220.8" y2="313.0" stroke="#f39c12" stroke-width="1.2" stroke-linecap="round" /><line x1="214.7" y1="319.7" x2="217.0" y2="322.0" stroke="#f39c12" stroke-width="1.2" stroke-linecap="round" /><line x1="208.0" y1="322.4" x2="208.0" y2="325.8" stroke="#f39c12" stroke-width="1.2" stroke-linecap="round" /><line x1="201.3" y1="319.7" x2="199.0" y2="322.0" stroke="#f39c12" stroke-width="1.2" stroke-linecap="round" /><line x1="198.6" y1="313.0" x2="195.2" y2="313.0" stroke="#f39c12" stroke-width="1.2" stroke-linecap="round" /><line x1="201.3" y1="306.3" x2="199.0" y2="304.0" stroke="#f39c12" stroke-width="1.2" stroke-linecap="round" /><line x1="208.0" y1="303.6" x2="208.0" y2="300.2" stroke="#f39c12" stroke-width="1.2" stroke-linecap="round" /><line x1="214.7" y1="306.3" x2="217.0" y2="304.0" stroke="#f39c12" stroke-width="1.2" stroke-linecap="round" />
<circle cx="240.0" cy="313.0" r="8.1" fill="#f1c40f" /><line x1="249.4" y1="313.0" x2="252.8" y2="313.0" stroke="#f39c12" stroke-width="1.2" stroke-linecap="round" /><line x1="246.7" y1="319.7" x2="249.0" y2="322.0" stroke="#f39c12" stroke-width="1.2" stroke-linecap="round" /><line x1="240.0" y1="322.4" x2="240.0" y2="325.8" stroke="#f39c12" stroke-width="1.2" stroke-linecap="round" /><line x1="233.3" y1="319.7" x2="231.0" y2="322.0" stroke="#f39c12" stroke-width="1.2" stroke-linecap="round" /><line x1="230.6" y1="313.0" x2="227.2" y2="313.0" stroke="#f39c12" stroke-width="1.2" stroke-linecap="round" /><line x1="233.3" y1="306.3" x2="231.0" y2="304.0" stroke="#f39c12" stroke-width="1.2" stroke-linecap="round" /><line x1="240.0" y1="303.6" x2="240.0" y2="300.2" stroke="#f39c12" stroke-width="1.2" stroke-linecap="round" /><line x1="246.7" y1="306.3" x2="249.0" y2="304.0" stroke="#f39c12" stroke-width="1.2" stroke-linecap="round" />
<circle cx="272.0" cy="313.0" r="8.1" fill="#f1c40f" /><line x1="281.4" y1="313.0" x2="284.8" y2="313.0" stroke="#f39c12" stroke-width="1.2" stroke-linecap="round" /><line x1="278.7" y1="319.7" x2="281.0" y2="322.0" stroke="#f39c12" stroke-width="1.2" stroke-linecap="round" /><line x1="272.0" y1="322.4" x2="272.0" y2="325.8" stroke="#f39c12" stroke-width="1.2" stroke-linecap="round" /><line x1="265.3" y1="319.7" x2="263.0" y2="322.0" stroke="#f39c12" stroke-width="1.2" stroke-linecap="round" /><line x1="262.6" y1="313.0" x2="259.2" y2="313.0" stroke="#f39c12" stroke-width="1.2" stroke-linecap="round" /><line x1="265.3" y1="306.3" x2="263.0" y2="304.0" stroke="#f39c12" stroke-width="1.2" stroke-linecap="round" /><line x1="272.0" y1="303.6" x2="272.0" y2="300.2" stroke="#f39c12" stroke-width="1.2" stroke-linecap="round" /><line x1="278.7" y1="306.3" x2="281.0" y2="304.0" stroke="#f39c12" stroke-width="1.2" stroke-linecap="round" />
<circle cx="304.0" cy="313.0" r="8.1" fill="#f1c40f" /><line x1="313.4" y1="313.0" x2="316.8" y2="313.0" stroke="#f39c12" stroke-width="1.2" stroke-linecap="round" /><line x1="310.7" y1="319.7" x2="313.0" y2="322.0" stroke="#f39c12" stroke-width="1.2" stroke-linecap="round" /><line x1="304.0" y1="322.4" x2="304.0" y2="325.8" stroke="#f39c12" stroke-width="1.2" stroke-linecap="round" /><line x1="297.3" y1="319.7" x2="295.0" y2="322.0" stroke="#f39c12" stroke-width="1.2" stroke-linecap="round" /><line x1="294.6" y1="313.0" x2="291.2" y2="313.0" stroke="#f39c12" stroke-width="1.2" stroke-linecap="round" /><line x1="297.3" y1="306.3" x2="295.0" y2="304.0" stroke="#f39c12" stroke-width="1.2" stroke-linecap="round" /><line x1="304.0" y1="303.6" x2="304.0" y2="300.2" stroke="#f39c12" stroke-width="1.2" stroke-linecap="round" /><line x1="310.7" y1="306.3" x2="313.0" y2="304.0" stroke="#f39c12" stroke-width="1.2" stroke-linecap="round" />
<circle cx="336.0" cy="313.0" r="8.1" fill="#f1c40f" /><line x1="345.4" y1="313.0" x2="348.8" y2="313.0" stroke="#f39c12" stroke-width="1.2" stroke-linecap="round" /><line x1="342.7" y1="319.7" x2="345.0" y2="322.0" stroke="#f39c12" stroke-width="1.2" stroke-linecap="round" /><line x1="336.0" y1="322.4" x2="336.0" y2="325.8" stroke="#f39c12" stroke-width="1.2" stroke-linecap="round" /><line x1="329.3" y1="319.7" x2="327.0" y2="322.0" stroke="#f39c12" stroke-width="1.2" stroke-linecap="round" /><line x1="326.6" y1="313.0" x2="323.2" y2="313.0" stroke="#f39c12" stroke-width="1.2" stroke-linecap="round" /><line x1="329.3" y1="306.3" x2="327.0" y2="304.0" stroke="#f39c12" stroke-width="1.2" stroke-linecap="round" /><line x1="336.0" y1="303.6" x2="336.0" y2="300.2" stroke="#f39c12" stroke-width="1.2" stroke-linecap="round" /><line x1="342.7" y1="306.3" x2="345.0" y2="304.0" stroke="#f39c12" stroke-width="1.2" stroke-linecap="round" />
<circle cx="368.0" cy="313.0" r="8.1" fill="#f1c40f" /><line x1="377.4" y1="313.0" x2="380.8" y2="313.0" stroke="#f39c12" stroke-width="1.2" stroke-linecap="round" /><line x1="374.7" y1="319.7" x2="377.0" y2="322.0" stroke="#f39c12" stroke-width="1.2" stroke-linecap="round" /><line x1="368.0" y1="322.4" x2="368.0" y2="325.8" stroke="#f39c12" stroke-width="1.2" stroke-linecap="round" /><line x1="361.3" y1="319.7" x2="359.0" y2="322.0" stroke="#f39c12" stroke-width="1.2" stroke-linecap="round" /><line x1="358.6" y1="313.0" x2="355.2" y2="313.0" stroke="#f39c12" stroke-width="1.2" stroke-linecap="round" /><line x1="361.3" y1="306.3" x2="359.0" y2="304.0" stroke="#f39c12" stroke-width="1.2" stroke-linecap="round" /><line x1="368.0" y1="303.6" x2="368.0" y2="300.2" stroke="#f39c12" stroke-width="1.2" stroke-linecap="round" /><line x1="374.7" y1="306.3" x2="377.0" y2="304.0" stroke="#f39c12" stroke-width="1.2" stroke-linecap="round" />
<circle cx="400.0" cy="313.0" r="8.1" fill="#f1c40f" /><line x1="409.4" y1="313.0" x2="412.8" y2="313.0" stroke="#f39c12" stroke-width="1.2" stroke-linecap="round" /><line x1="406.7" y1="319.7" x2="409.0" y2="322.0" stroke="#f39c12" stroke-width="1.2" stroke-linecap="round" /><line x1="400.0" y1="322.4" x2="400.0" y2="325.8" stroke="#f39c12" stroke-width="1.2" stroke-linecap="round" /><line x1="393.3" y1="319.7" x2="391.0" y2="322.0" stroke="#f39c12" stroke-width="1.2" stroke-linecap="round" /><line x1="390.6" y1="313.0" x2="387.2" y2="313.0" stroke="#f39c12" stroke-width="1.2" stroke-linecap="round" /><line x1="393.3" y1="306.3" x2="391.0" y2="304.0" stroke="#f39c12" stroke-width="1.2" stroke-linecap="round" /><line x1="400.0" y1="303.6" x2="400.0" y2="300.2" stroke="#f39c12" stroke-width="1.2" stroke-linecap="round" /><line x1="406.7" y1="306.3" x2="409.0" y2="304.0" stroke="#f39c12" stroke-width="1.2" stroke-linecap="round" />
<circle cx="112.0" cy="345.0" r="8.1" fill="#f1c40f" /><line x1="121.4" y1="345.0" x2="124.8" y2="345.0" stroke="#f39c12" stroke-width="1.2" stroke-linecap="round" /><line x1="118.7" y1="351.7" x2="121.0" y2="354.0" stroke="#f39c12" stroke-width="1.2" stroke-linecap="round" /><line x1="112.0" y1="354.4" x2="112.0" y2="357.8" stroke="#f39c12" stroke-width="1.2" stroke-linecap="round" /><line x1="105.3" y1="351.7" x2="103.0" y2="354.0" stroke="#f39c12" stroke-width="1.2" stroke-linecap="round" /><line x1="102.6" y1="345.0" x2="99.2" y2="345.0" stroke="#f39c12" stroke-width="1.2" stroke-linecap="round" /><line x1="105.3" y1="338.3" x2="103.0" y2="336.0" stroke="#f39c12" stroke-width="1.2" stroke-linecap="round" /><line x1="112.0" y1="335.6" x2="112.0" y2="332.2" stroke="#f39c12" stroke-width="1.2" stroke-linecap="round" /><line x1="118.7" y1="338.3" x2="121.0" y2="336.0" stroke="#f39c12" stroke-width="1.2" stroke-linecap="round" />
<circle cx="144.0" cy="345.0" r="8.1" fill="#f1c40f" /><line x1="153.4" y1="345.0" x2="156.8" y2="345.0" stroke="#f39c12" stroke-width="1.2" stroke-linecap="round" /><line x1="150.7" y1="351.7" x2="153.0" y2="354.0" stroke="#f39c12" stroke-width="1.2" stroke-linecap="round" /><line x1="144.0" y1="354.4" x2="144.0" y2="357.8" stroke="#f39c12" stroke-width="1.2" stroke-linecap="round" /><line x1="137.3" y1="351.7" x2="135.0" y2="354.0" stroke="#f39c12" stroke-width="1.2" stroke-linecap="round" /><line x1="134.6" y1="345.0" x2="131.2" y2="345.0" stroke="#f39c12" stroke-width="1.2" stroke-linecap="round" /><line x1="137.3" y1="338.3" x2="135.0" y2="336.0" stroke="#f39c12" stroke-width="1.2" stroke-linecap="round" /><line x1="144.0" y1="335.6" x2="144.0" y2="332.2" stroke="#f39c12" stroke-width="1.2" stroke-linecap="round" /><line x1="150.7" y1="338.3" x2="153.0" y2="336.0" stroke="#f39c12" stroke-width="1.2" stroke-linecap="round" />
<circle cx="176.0" cy="345.0" r="8.1" fill="#f1c40f" /><line x1="185.4" y1="345.0" x2="188.8" y2="345.0" stroke="#f39c12" stroke-width="1.2" stroke-linecap="round" /><line x1="182.7" y1="351.7" x2="185.0" y2="354.0" stroke="#f39c12" stroke-width="1.2" stroke-linecap="round" /><line x1="176.0" y1="354.4" x2="176.0" y2="357.8" stroke="#f39c12" stroke-width="1.2" stroke-linecap="round" /><line x1="169.3" y1="351.7" x2="167.0" y2="354.0" stroke="#f39c12" stroke-width="1.2" stroke-linecap="round" /><line x1="166.6" y1="345.0" x2="163.2" y2="345.0" stroke="#f39c12" stroke-width="1.2" stroke-linecap="round" /><line x1="169.3" y1="338.3" x2="167.0" y2="336.0" stroke="#f39c12" stroke-width="1.2" stroke-linecap="round" /><line x1="176.0" y1="335.6" x2="176.0" y2="332.2" stroke="#f39c12" stroke-width="1.2" stroke-linecap="round" /><line x1="182.7" y1="338.3" x2="185.0" y2="336.0" stroke="#f39c12" stroke-width="1.2" stroke-linecap="round" />
<circle cx="208.0" cy="345.0" r="8.1" fill="#f1c40f" /><line x1="217.4" y1="345.0" x2="220.8" y2="345.0" stroke="#f39c12" stroke-width="1.2" stroke-linecap="round" /><line x1="214.7" y1="351.7" x2="217.0" y2="354.0" stroke="#f39c12" stroke-width="1.2" stroke-linecap="round" /><line x1="208.0" y1="354.4" x2="208.0" y2="357.8" stroke="#f39c12" stroke-width="1.2" stroke-linecap="round" /><line x1="201.3" y1="351.7" x2="199.0" y2="354.0" stroke="#f39c12" stroke-width="1.2" stroke-linecap="round" /><line x1="198.6" y1="345.0" x2="195.2" y2="345.0" stroke="#f39c12" stroke-width="1.2" stroke-linecap="round" /><line x1="201.3" y1="338.3" x2="199.0" y2="336.0" stroke="#f39c12" stroke-width="1.2" stroke-linecap="round" /><line x1="208.0" y1="335.6" x2="208.0" y2="332.2" stroke="#f39c12" stroke-width="1.2" stroke-linecap="round" /><line x1="214.7" y1="338.3" x2="217.0" y2="336.0" stroke="#f39c12" stroke-width="1.2" stroke-linecap="round" />
<circle cx="240.0" cy="345.0" r="8.1" fill="#f1c40f" /><line x1="249.4" y1="345.0" x2="252.8" y2="345.0" stroke="#f39c12" stroke-width="1.2" stroke-linecap="round" /><line x1="246.7" y1="351.7" x2="249.0" y2="354.0" stroke="#f39c12" stroke-width="1.2" stroke-linecap="round" /><line x1="240.0" y1="354.4" x2="240.0" y2="357.8" stroke="#f39c12" stroke-width="1.2" stroke-linecap="round" /><line x1="233.3" y1="351.7" x2="231.0" y2="354.0" stroke="#f39c12" stroke-width="1.2" stroke-linecap="round" /><line x1="230.6" y1="345.0" x2="227.2" y2="345.0" stroke="#f39c12" stroke-width="1.2" stroke-linecap="round" /><line x1="233.3" y1="338.3" x2="231.0" y2="336.0" stroke="#f39c12" stroke-width="1.2" stroke-linecap="round" /><line x1="240.0" y1="335.6" x2="240.0" y2="332.2" stroke="#f39c12" stroke-width="1.2" stroke-linecap="round" /><line x1="246.7" y1="338.3" x2="249.0" y2="336.0" stroke="#f39c12" stroke-width="1.2" stroke-linecap="round" />
<circle cx="272.0" cy="345.0" r="8.1" fill="#f1c40f" /><line x1="281.4" y1="345.0" x2="284.8" y2="345.0" stroke="#f39c12" stroke-width="1.2" stroke-linecap="round" /><line x1="278.7" y1="351.7" x2="281.0" y2="354.0" stroke="#f39c12" stroke-width="1.2" stroke-linecap="round" /><line x1="272.0" y1="354.4" x2="272.0" y2="357.8" stroke="#f39c12" stroke-width="1.2" stroke-linecap="round" /><line x1="265.3" y1="351.7" x2="263.0" y2="354.0" stroke="#f39c12" stroke-width="1.2" stroke-linecap="round" /><line x1="262.6" y1="345.0" x2="259.2" y2="345.0" stroke="#f39c12" stroke-width="1.2" stroke-linecap="round" /><line x1="265.3" y1="338.3" x2="263.0" y2="336.0" stroke="#f39c12" stroke-width="1.2" stroke-linecap="round" /><line x1="272.0" y1="335.6" x2="272.0" y2="332.2" stroke="#f39c12" stroke-width="1.2" stroke-linecap="round" /><line x1="278.7" y1="338.3" x2="281.0" y2="336.0" stroke="#f39c12" stroke-width="1.2" stroke-linecap="round" />
<circle cx="304.0" cy="345.0" r="8.1" fill="#f1c40f" /><line x1="313.4" y1="345.0" x2="316.8" y2="345.0" stroke="#f39c12" stroke-width="1.2" stroke-linecap="round" /><line x1="310.7" y1="351.7" x2="313.0" y2="354.0" stroke="#f39c12" stroke-width="1.2" stroke-linecap="round" /><line x1="304.0" y1="354.4" x2="304.0" y2="357.8" stroke="#f39c12" stroke-width="1.2" stroke-linecap="round" /><line x1="297.3" y1="351.7" x2="295.0" y2="354.0" stroke="#f39c12" stroke-width="1.2" stroke-linecap="round" /><line x1="294.6" y1="345.0" x2="291.2" y2="345.0" stroke="#f39c12" stroke-width="1.2" stroke-linecap="round" /><line x1="297.3" y1="338.3" x2="295.0" y2="336.0" stroke="#f39c12" stroke-width="1.2" stroke-linecap="round" /><line x1="304.0" y1="335.6" x2="304.0" y2="332.2" stroke="#f39c12" stroke-width="1.2" stroke-linecap="round" /><line x1="310.7" y1="338.3" x2="313.0" y2="336.0" stroke="#f39c12" stroke-width="1.2" stroke-linecap="round" />
<circle cx="336.0" cy="345.0" r="8.1" fill="#f1c40f" /><line x1="345.4" y1="345.0" x2="348.8" y2="345.0" stroke="#f39c12" stroke-width="1.2" stroke-linecap="round" /><line x1="342.7" y1="351.7" x2="345.0" y2="354.0" stroke="#f39c12" stroke-width="1.2" stroke-linecap="round" /><line x1="336.0" y1="354.4" x2="336.0" y2="357.8" stroke="#f39c12" stroke-width="1.2" stroke-linecap="round" /><line x1="329.3" y1="351.7" x2="327.0" y2="354.0" stroke="#f39c12" stroke-width="1.2" stroke-linecap="round" /><line x1="326.6" y1="345.0" x2="323.2" y2="345.0" stroke="#f39c12" stroke-width="1.2" stroke-linecap="round" /><line x1="329.3" y1="338.3" x2="327.0" y2="336.0" stroke="#f39c12" stroke-width="1.2" stroke-linecap="round" /><line x1="336.0" y1="335.6" x2="336.0" y2="332.2" stroke="#f39c12" stroke-width="1.2" stroke-linecap="round" /><line x1="342.7" y1="338.3" x2="345.0" y2="336.0" stroke="#f39c12" stroke-width="1.2" stroke-linecap="round" />
<circle cx="368.0" cy="345.0" r="8.1" fill="#f1c40f" /><line x1="377.4" y1="345.0" x2="380.8" y2="345.0" stroke="#f39c12" stroke-width="1.2" stroke-linecap="round" /><line x1="374.7" y1="351.7" x2="377.0" y2="354.0" stroke="#f39c12" stroke-width="1.2" stroke-linecap="round" /><line x1="368.0" y1="354.4" x2="368.0" y2="357.8" stroke="#f39c12" stroke-width="1.2" stroke-linecap="round" /><line x1="361.3" y1="351.7" x2="359.0" y2="354.0" stroke="#f39c12" stroke-width="1.2" stroke-linecap="round" /><line x1="358.6" y1="345.0" x2="355.2" y2="345.0" stroke="#f39c12" stroke-width="1.2" stroke-linecap="round" /><line x1="361.3" y1="338.3" x2="359.0" y2="336.0" stroke="#f39c12" stroke-width="1.2" stroke-linecap="round" /><line x1="368.0" y1="335.6" x2="368.0" y2="332.2" stroke="#f39c12" stroke-width="1.2" stroke-linecap="round" /><line x1="374.7" y1="338.3" x2="377.0" y2="336.0" stroke="#f39c12" stroke-width="1.2" stroke-linecap="round" />
<circle cx="400.0" cy="345.0" r="8.1" fill="#f1c40f" /><line x1="409.4" y1="345.0" x2="412.8" y2="345.0" stroke="#f39c12" stroke-width="1.2" stroke-linecap="round" /><line x1="406.7" y1="351.7" x2="409.0" y2="354.0" stroke="#f39c12" stroke-width="1.2" stroke-linecap="round" /><line x1="400.0" y1="354.4" x2="400.0" y2="357.8" stroke="#f39c12" stroke-width="1.2" stroke-linecap="round" /><line x1="393.3" y1="351.7" x2="391.0" y2="354.0" stroke="#f39c12" stroke-width="1.2" stroke-linecap="round" /><line x1="390.6" y1="345.0" x2="387.2" y2="345.0" stroke="#f39c12" stroke-width="1.2" stroke-linecap="round" /><line x1="393.3" y1="338.3" x2="391.0" y2="336.0" stroke="#f39c12" stroke-width="1.2" stroke-linecap="round" /><line x1="400.0" y1="335.6" x2="400.0" y2="332.2" stroke="#f39c12" stroke-width="1.2" stroke-linecap="round" /><line x1="406.7" y1="338.3" x2="409.0" y2="336.0" stroke="#f39c12" stroke-width="1.2" stroke-linecap="round" />
<circle cx="112.0" cy="377.0" r="8.1" fill="#f1c40f" /><line x1="121.4" y1="377.0" x2="124.8" y2="377.0" stroke="#f39c12" stroke-width="1.2" stroke-linecap="round" /><line x1="118.7" y1="383.7" x2="121.0" y2="386.0" stroke="#f39c12" stroke-width="1.2" stroke-linecap="round" /><line x1="112.0" y1="386.4" x2="112.0" y2="389.8" stroke="#f39c12" stroke-width="1.2" stroke-linecap="round" /><line x1="105.3" y1="383.7" x2="103.0" y2="386.0" stroke="#f39c12" stroke-width="1.2" stroke-linecap="round" /><line x1="102.6" y1="377.0" x2="99.2" y2="377.0" stroke="#f39c12" stroke-width="1.2" stroke-linecap="round" /><line x1="105.3" y1="370.3" x2="103.0" y2="368.0" stroke="#f39c12" stroke-width="1.2" stroke-linecap="round" /><line x1="112.0" y1="367.6" x2="112.0" y2="364.2" stroke="#f39c12" stroke-width="1.2" stroke-linecap="round" /><line x1="118.7" y1="370.3" x2="121.0" y2="368.0" stroke="#f39c12" stroke-width="1.2" stroke-linecap="round" />
<circle cx="144.0" cy="377.0" r="8.1" fill="#f1c40f" /><line x1="153.4" y1="377.0" x2="156.8" y2="377.0" stroke="#f39c12" stroke-width="1.2" stroke-linecap="round" /><line x1="150.7" y1="383.7" x2="153.0" y2="386.0" stroke="#f39c12" stroke-width="1.2" stroke-linecap="round" /><line x1="144.0" y1="386.4" x2="144.0" y2="389.8" stroke="#f39c12" stroke-width="1.2" stroke-linecap="round" /><line x1="137.3" y1="383.7" x2="135.0" y2="386.0" stroke="#f39c12" stroke-width="1.2" stroke-linecap="round" /><line x1="134.6" y1="377.0" x2="131.2" y2="377.0" stroke="#f39c12" stroke-width="1.2" stroke-linecap="round" /><line x1="137.3" y1="370.3" x2="135.0" y2="368.0" stroke="#f39c12" stroke-width="1.2" stroke-linecap="round" /><line x1="144.0" y1="367.6" x2="144.0" y2="364.2" stroke="#f39c12" stroke-width="1.2" stroke-linecap="round" /><line x1="150.7" y1="370.3" x2="153.0" y2="368.0" stroke="#f39c12" stroke-width="1.2" stroke-linecap="round" />
<circle cx="176.0" cy="377.0" r="8.1" fill="#f1c40f" /><line x1="185.4" y1="377.0" x2="188.8" y2="377.0" stroke="#f39c12" stroke-width="1.2" stroke-linecap="round" /><line x1="182.7" y1="383.7" x2="185.0" y2="386.0" stroke="#f39c12" stroke-width="1.2" stroke-linecap="round" /><line x1="176.0" y1="386.4" x2="176.0" y2="389.8" stroke="#f39c12" stroke-width="1.2" stroke-linecap="round" /><line x1="169.3" y1="383.7" x2="167.0" y2="386.0" stroke="#f39c12" stroke-width="1.2" stroke-linecap="round" /><line x1="166.6" y1="377.0" x2="163.2" y2="377.0" stroke="#f39c12" stroke-width="1.2" stroke-linecap="round" /><line x1="169.3" y1="370.3" x2="167.0" y2="368.0" stroke="#f39c12" stroke-width="1.2" stroke-linecap="round" /><line x1="176.0" y1="367.6" x2="176.0" y2="364.2" stroke="#f39c12" stroke-width="1.2" stroke-linecap="round" /><line x1="182.7" y1="370.3" x2="185.0" y2="368.0" stroke="#f39c12" stroke-width="1.2" stroke-linecap="round" />
<circle cx="208.0" cy="377.0" r="8.1" fill="#f1c40f" /><line x1="217.4" y1="377.0" x2="220.8" y2="377.0" stroke="#f39c12" stroke-width="1.2" stroke-linecap="round" /><line x1="214.7" y1="383.7" x2="217.0" y2="386.0" stroke="#f39c12" stroke-width="1.2" stroke-linecap="round" /><line x1="208.0" y1="386.4" x2="208.0" y2="389.8" stroke="#f39c12" stroke-width="1.2" stroke-linecap="round" /><line x1="201.3" y1="383.7" x2="199.0" y2="386.0" stroke="#f39c12" stroke-width="1.2" stroke-linecap="round" /><line x1="198.6" y1="377.0" x2="195.2" y2="377.0" stroke="#f39c12" stroke-width="1.2" stroke-linecap="round" /><line x1="201.3" y1="370.3" x2="199.0" y2="368.0" stroke="#f39c12" stroke-width="1.2" stroke-linecap="round" /><line x1="208.0" y1="367.6" x2="208.0" y2="364.2" stroke="#f39c12" stroke-width="1.2" stroke-linecap="round" /><line x1="214.7" y1="370.3" x2="217.0" y2="368.0" stroke="#f39c12" stroke-width="1.2" stroke-linecap="round" />
<circle cx="240.0" cy="377.0" r="8.1" fill="#f1c40f" /><line x1="249.4" y1="377.0" x2="252.8" y2="377.0" stroke="#f39c12" stroke-width="1.2" stroke-linecap="round" /><line x1="246.7" y1="383.7" x2="249.0" y2="386.0" stroke="#f39c12" stroke-width="1.2" stroke-linecap="round" /><line x1="240.0" y1="386.4" x2="240.0" y2="389.8" stroke="#f39c12" stroke-width="1.2" stroke-linecap="round" /><line x1="233.3" y1="383.7" x2="231.0" y2="386.0" stroke="#f39c12" stroke-width="1.2" stroke-linecap="round" /><line x1="230.6" y1="377.0" x2="227.2" y2="377.0" stroke="#f39c12" stroke-width="1.2" stroke-linecap="round" /><line x1="233.3" y1="370.3" x2="231.0" y2="368.0" stroke="#f39c12" stroke-width="1.2" stroke-linecap="round" /><line x1="240.0" y1="367.6" x2="240.0" y2="364.2" stroke="#f39c12" stroke-width="1.2" stroke-linecap="round" /><line x1="246.7" y1="370.3" x2="249.0" y2="368.0" stroke="#f39c12" stroke-width="1.2" stroke-linecap="round" />
<circle cx="272.0" cy="377.0" r="8.1" fill="#f1c40f" /><line x1="281.4" y1="377.0" x2="284.8" y2="377.0" stroke="#f39c12" stroke-width="1.2" stroke-linecap="round" /><line x1="278.7" y1="383.7" x2="281.0" y2="386.0" stroke="#f39c12" stroke-width="1.2" stroke-linecap="round" /><line x1="272.0" y1="386.4" x2="272.0" y2="389.8" stroke="#f39c12" stroke-width="1.2" stroke-linecap="round" /><line x1="265.3" y1="383.7" x2="263.0" y2="386.0" stroke="#f39c12" stroke-width="1.2" stroke-linecap="round" /><line x1="262.6" y1="377.0" x2="259.2" y2="377.0" stroke="#f39c12" stroke-width="1.2" stroke-linecap="round" /><line x1="265.3" y1="370.3" x2="263.0" y2="368.0" stroke="#f39c12" stroke-width="1.2" stroke-linecap="round" /><line x1="272.0" y1="367.6" x2="272.0" y2="364.2" stroke="#f39c12" stroke-width="1.2" stroke-linecap="round" /><line x1="278.7" y1="370.3" x2="281.0" y2="368.0" stroke="#f39c12" stroke-width="1.2" stroke-linecap="round" />
<circle cx="304.0" cy="377.0" r="8.1" fill="#f1c40f" /><line x1="313.4" y1="377.0" x2="316.8" y2="377.0" stroke="#f39c12" stroke-width="1.2" stroke-linecap="round" /><line x1="310.7" y1="383.7" x2="313.0" y2="386.0" stroke="#f39c12" stroke-width="1.2" stroke-linecap="round" /><line x1="304.0" y1="386.4" x2="304.0" y2="389.8" stroke="#f39c12" stroke-width="1.2" stroke-linecap="round" /><line x1="297.3" y1="383.7" x2="295.0" y2="386.0" stroke="#f39c12" stroke-width="1.2" stroke-linecap="round" /><line x1="294.6" y1="377.0" x2="291.2" y2="377.0" stroke="#f39c12" stroke-width="1.2" stroke-linecap="round" /><line x1="297.3" y1="370.3" x2="295.0" y2="368.0" stroke="#f39c12" stroke-width="1.2" stroke-linecap="round" /><line x1="304.0" y1="367.6" x2="304.0" y2="364.2" stroke="#f39c12" stroke-width="1.2" stroke-linecap="round" /><line x1="310.7" y1="370.3" x2="313.0" y2="368.0" stroke="#f39c12" stroke-width="1.2" stroke-linecap="round" />
<circle cx="336.0" cy="377.0" r="8.1" fill="#f1c40f" /><line x1="345.4" y1="377.0" x2="348.8" y2="377.0" stroke="#f39c12" stroke-width="1.2" stroke-linecap="round" /><line x1="342.7" y1="383.7" x2="345.0" y2="386.0" stroke="#f39c12" stroke-width="1.2" stroke-linecap="round" /><line x1="336.0" y1="386.4" x2="336.0" y2="389.8" stroke="#f39c12" stroke-width="1.2" stroke-linecap="round" /><line x1="329.3" y1="383.7" x2="327.0" y2="386.0" stroke="#f39c12" stroke-width="1.2" stroke-linecap="round" /><line x1="326.6" y1="377.0" x2="323.2" y2="377.0" stroke="#f39c12" stroke-width="1.2" stroke-linecap="round" /><line x1="329.3" y1="370.3" x2="327.0" y2="368.0" stroke="#f39c12" stroke-width="1.2" stroke-linecap="round" /><line x1="336.0" y1="367.6" x2="336.0" y2="364.2" stroke="#f39c12" stroke-width="1.2" stroke-linecap="round" /><line x1="342.7" y1="370.3" x2="345.0" y2="368.0" stroke="#f39c12" stroke-width="1.2" stroke-linecap="round" />
<circle cx="368.0" cy="377.0" r="8.1" fill="#f1c40f" /><line x1="377.4" y1="377.0" x2="380.8" y2="377.0" stroke="#f39c12" stroke-width="1.2" stroke-linecap="round" /><line x1="374.7" y1="383.7" x2="377.0" y2="386.0" stroke="#f39c12" stroke-width="1.2" stroke-linecap="round" /><line x1="368.0" y1="386.4" x2="368.0" y2="389.8" stroke="#f39c12" stroke-width="1.2" stroke-linecap="round" /><line x1="361.3" y1="383.7" x2="359.0" y2="386.0" stroke="#f39c12" stroke-width="1.2" stroke-linecap="round" /><line x1="358.6" y1="377.0" x2="355.2" y2="377.0" stroke="#f39c12" stroke-width="1.2" stroke-linecap="round" /><line x1="361.3" y1="370.3" x2="359.0" y2="368.0" stroke="#f39c12" stroke-width="1.2" stroke-linecap="round" /><line x1="368.0" y1="367.6" x2="368.0" y2="364.2" stroke="#f39c12" stroke-width="1.2" stroke-linecap="round" /><line x1="374.7" y1="370.3" x2="377.0" y2="368.0" stroke="#f39c12" stroke-width="1.2" stroke-linecap="round" />
<circle cx="400.0" cy="377.0" r="8.1" fill="#f1c40f" /><line x1="409.4" y1="377.0" x2="412.8" y2="377.0" stroke="#f39c12" stroke-width="1.2" stroke-linecap="round" /><line x1="406.7" y1="383.7" x2="409.0" y2="386.0" stroke="#f39c12" stroke-width="1.2" stroke-linecap="round" /><line x1="400.0" y1="386.4" x2="400.0" y2="389.8" stroke="#f39c12" stroke-width="1.2" stroke-linecap="round" /><line x1="393.3" y1="383.7" x2="391.0" y2="386.0" stroke="#f39c12" stroke-width="1.2" stroke-linecap="round" /><line x1="390.6" y1="377.0" x2="387.2" y2="377.0" stroke="#f39c12" stroke-width="1.2" stroke-linecap="round" /><line x1="393.3" y1="370.3" x2="391.0" y2="368.0" stroke="#f39c12" stroke-width="1.2" stroke-linecap="round" /><line x1="400.0" y1="367.6" x2="400.0" y2="364.2" stroke="#f39c12" stroke-width="1.2" stroke-linecap="round" /><line x1="406.7" y1="370.3" x2="409.0" y2="368.0" stroke="#f39c12" stroke-width="1.2" stroke-linecap="round" />
  </g>

  <!-- Bottom Banner -->
  <g filter="url(#shadow-30)">
    <rect x="96" y="420" width="320" height="54" rx="27" fill="#FFF" stroke="#d0eac6" stroke-width="4" />
    <text x="256" y="455" 
          text-anchor="middle" 
          font-size="28" 
          font-weight="900" 
          font-family="Comic Sans MS, Arial Rounded MT Bold, sans-serif" 
          fill="#7C5730">30 - Thirty</text>
  </g>
</svg>