<svg xmlns="http://www.w3.org/2000/svg" viewBox="0 0 512 512" width="100%" height="100%">
  <defs>
    <!-- Background Gradient -->
    <linearGradient id="bg-35" x1="0%" y1="0%" x2="0%" y2="100%">
      <stop offset="0%" stop-color="#f9fffa" />
      <stop offset="100%" stop-color="#effff0" />
    </linearGradient>

    <!-- Front Face Gradient -->
    <linearGradient id="front-35" x1="0%" y1="0%" x2="0%" y2="100%">
      <stop offset="0%" stop-color="#89ff8d" />
      <stop offset="100%" stop-color="#00f408" />
    </linearGradient>

    <!-- 3D Side/Extrusion Color -->
    <linearGradient id="side-35" x1="0%" y1="0%" x2="0%" y2="100%">
      <stop offset="0%" stop-color="#00c106" />
      <stop offset="100%" stop-color="#008e04" />
    </linearGradient>

    <!-- Leaf Sprout Gradient -->
    <linearGradient id="leaf-35" x1="0%" y1="0%" x2="100%" y2="100%">
      <stop offset="0%" stop-color="#7BED9F" />
      <stop offset="100%" stop-color="#2ED573" />
    </linearGradient>

    <!-- 3D Base Shadow -->
    <filter id="shadow-35">
      <feDropShadow dx="0" dy="10" stdDeviation="8" flood-color="#000000" flood-opacity="0.25" />
    </filter>
  </defs>

  <!-- Background -->
  <circle cx="256" cy="256" r="236" fill="url(#bg-35)" stroke="#c6eac7" stroke-width="6" />

  <!-- Sparkles -->
  <g fill="#FFD43B">
    <circle cx="100" cy="130" r="8" />
    <circle cx="400" cy="120" r="10" />
    <circle cx="430" cy="330" r="7" />
  </g>

  <!-- Number -->
  <g filter="url(#shadow-35)">
    <!-- Side -->
    <text x="256" y="215" 
          text-anchor="middle" 
          font-size="180" 
          font-weight="900" 
          font-family="Comic Sans MS, Arial Rounded MT Bold, sans-serif" 
          fill="url(#side-35)" 
          stroke="url(#side-35)" 
          stroke-width="18" 
          transform="translate(0, 12)">35</text>

    <!-- Front -->
    <text x="256" y="215" 
          text-anchor="middle" 
          font-size="180" 
          font-weight="900" 
          font-family="Comic Sans MS, Arial Rounded MT Bold, sans-serif" 
          fill="url(#front-35)" 
          stroke="url(#front-35)" 
          stroke-width="18">35</text>
  </g>

  <!-- Cute Sprout -->
  <g transform="translate(256 65)">
    <path d="M0 0 Q-4 -15 -8 -24" stroke="#8B5A2B" stroke-width="5" fill="none" />
    <path d="M-8 -24 C-28 -28 -30 -5 -10 0 Z" fill="url(#leaf-35)" />
    <path d="M-8 -24 C5 -35 22 -20 5 -5 Z" fill="url(#leaf-35)" />
  </g>

  <!-- Eyes -->
  <g>
    <circle cx="215" cy="180" r="18" fill="#222" />
    <circle cx="208" cy="172" r="6" fill="#FFF" />

    <circle cx="297" cy="180" r="18" fill="#222" />
    <circle cx="290" cy="172" r="6" fill="#FFF" />
  </g>

  <!-- Cheeks -->
  <ellipse cx="185" cy="210" rx="18" ry="12" fill="#FF6B81" opacity="0.45" />
  <ellipse cx="327" cy="210" rx="18" ry="12" fill="#FF6B81" opacity="0.45" />

  <!-- Smile -->
  <path d="M225 225 Q256 255 287 225" stroke="#7A1022" stroke-width="8" fill="none" stroke-linecap="round" />

  <!-- Counting Object -->
  <g>
    <path d="M 146.0 313.0 C 132.1 301.4 136.8 294.5 146.0 299.1 C 155.2 294.5 159.9 301.4 146.0 313.0 Z" fill="#ff7675" />
<path d="M 173.5 313.0 C 159.6 301.4 164.3 294.5 173.5 299.1 C 182.7 294.5 187.4 301.4 173.5 313.0 Z" fill="#ff7675" />
<path d="M 201.0 313.0 C 187.1 301.4 191.8 294.5 201.0 299.1 C 210.2 294.5 214.9 301.4 201.0 313.0 Z" fill="#ff7675" />
<path d="M 228.5 313.0 C 214.6 301.4 219.3 294.5 228.5 299.1 C 237.7 294.5 242.4 301.4 228.5 313.0 Z" fill="#ff7675" />
<path d="M 256.0 313.0 C 242.1 301.4 246.8 294.5 256.0 299.1 C 265.2 294.5 269.9 301.4 256.0 313.0 Z" fill="#ff7675" />
<path d="M 283.5 313.0 C 269.6 301.4 274.3 294.5 283.5 299.1 C 292.7 294.5 297.4 301.4 283.5 313.0 Z" fill="#ff7675" />
<path d="M 311.0 313.0 C 297.1 301.4 301.8 294.5 311.0 299.1 C 320.2 294.5 324.9 301.4 311.0 313.0 Z" fill="#ff7675" />
<path d="M 338.5 313.0 C 324.6 301.4 329.3 294.5 338.5 299.1 C 347.7 294.5 352.4 301.4 338.5 313.0 Z" fill="#ff7675" />
<path d="M 366.0 313.0 C 352.1 301.4 356.8 294.5 366.0 299.1 C 375.2 294.5 379.9 301.4 366.0 313.0 Z" fill="#ff7675" />
<path d="M 146.0 340.5 C 132.1 328.9 136.8 322.0 146.0 326.6 C 155.2 322.0 159.9 328.9 146.0 340.5 Z" fill="#ff7675" />
<path d="M 173.5 340.5 C 159.6 328.9 164.3 322.0 173.5 326.6 C 182.7 322.0 187.4 328.9 173.5 340.5 Z" fill="#ff7675" />
<path d="M 201.0 340.5 C 187.1 328.9 191.8 322.0 201.0 326.6 C 210.2 322.0 214.9 328.9 201.0 340.5 Z" fill="#ff7675" />
<path d="M 228.5 340.5 C 214.6 328.9 219.3 322.0 228.5 326.6 C 237.7 322.0 242.4 328.9 228.5 340.5 Z" fill="#ff7675" />
<path d="M 256.0 340.5 C 242.1 328.9 246.8 322.0 256.0 326.6 C 265.2 322.0 269.9 328.9 256.0 340.5 Z" fill="#ff7675" />
<path d="M 283.5 340.5 C 269.6 328.9 274.3 322.0 283.5 326.6 C 292.7 322.0 297.4 328.9 283.5 340.5 Z" fill="#ff7675" />
<path d="M 311.0 340.5 C 297.1 328.9 301.8 322.0 311.0 326.6 C 320.2 322.0 324.9 328.9 311.0 340.5 Z" fill="#ff7675" />
<path d="M 338.5 340.5 C 324.6 328.9 329.3 322.0 338.5 326.6 C 347.7 322.0 352.4 328.9 338.5 340.5 Z" fill="#ff7675" />
<path d="M 366.0 340.5 C 352.1 328.9 356.8 322.0 366.0 326.6 C 375.2 322.0 379.9 328.9 366.0 340.5 Z" fill="#ff7675" />
<path d="M 146.0 368.0 C 132.1 356.4 136.8 349.5 146.0 354.1 C 155.2 349.5 159.9 356.4 146.0 368.0 Z" fill="#ff7675" />
<path d="M 173.5 368.0 C 159.6 356.4 164.3 349.5 173.5 354.1 C 182.7 349.5 187.4 356.4 173.5 368.0 Z" fill="#ff7675" />
<path d="M 201.0 368.0 C 187.1 356.4 191.8 349.5 201.0 354.1 C 210.2 349.5 214.9 356.4 201.0 368.0 Z" fill="#ff7675" />
<path d="M 228.5 368.0 C 214.6 356.4 219.3 349.5 228.5 354.1 C 237.7 349.5 242.4 356.4 228.5 368.0 Z" fill="#ff7675" />
<path d="M 256.0 368.0 C 242.1 356.4 246.8 349.5 256.0 354.1 C 265.2 349.5 269.9 356.4 256.0 368.0 Z" fill="#ff7675" />
<path d="M 283.5 368.0 C 269.6 356.4 274.3 349.5 283.5 354.1 C 292.7 349.5 297.4 356.4 283.5 368.0 Z" fill="#ff7675" />
<path d="M 311.0 368.0 C 297.1 356.4 301.8 349.5 311.0 354.1 C 320.2 349.5 324.9 356.4 311.0 368.0 Z" fill="#ff7675" />
<path d="M 338.5 368.0 C 324.6 356.4 329.3 349.5 338.5 354.1 C 347.7 349.5 352.4 356.4 338.5 368.0 Z" fill="#ff7675" />
<path d="M 366.0 368.0 C 352.1 356.4 356.8 349.5 366.0 354.1 C 375.2 349.5 379.9 356.4 366.0 368.0 Z" fill="#ff7675" />
<path d="M 146.0 395.5 C 132.1 383.9 136.8 377.0 146.0 381.6 C 155.2 377.0 159.9 383.9 146.0 395.5 Z" fill="#ff7675" />
<path d="M 173.5 395.5 C 159.6 383.9 164.3 377.0 173.5 381.6 C 182.7 377.0 187.4 383.9 173.5 395.5 Z" fill="#ff7675" />
<path d="M 201.0 395.5 C 187.1 383.9 191.8 377.0 201.0 381.6 C 210.2 377.0 214.9 383.9 201.0 395.5 Z" fill="#ff7675" />
<path d="M 228.5 395.5 C 214.6 383.9 219.3 377.0 228.5 381.6 C 237.7 377.0 242.4 383.9 228.5 395.5 Z" fill="#ff7675" />
<path d="M 256.0 395.5 C 242.1 383.9 246.8 377.0 256.0 381.6 C 265.2 377.0 269.9 383.9 256.0 395.5 Z" fill="#ff7675" />
<path d="M 283.5 395.5 C 269.6 383.9 274.3 377.0 283.5 381.6 C 292.7 377.0 297.4 383.9 283.5 395.5 Z" fill="#ff7675" />
<path d="M 311.0 395.5 C 297.1 383.9 301.8 377.0 311.0 381.6 C 320.2 377.0 324.9 383.9 311.0 395.5 Z" fill="#ff7675" />
<path d="M 338.5 395.5 C 324.6 383.9 329.3 377.0 338.5 381.6 C 347.7 377.0 352.4 383.9 338.5 395.5 Z" fill="#ff7675" />
  </g>

  <!-- Bottom Banner -->
  <g filter="url(#shadow-35)">
    <rect x="96" y="420" width="320" height="54" rx="27" fill="#FFF" stroke="#c6eac7" stroke-width="4" />
    <text x="256" y="455" 
          text-anchor="middle" 
          font-size="28" 
          font-weight="900" 
          font-family="Comic Sans MS, Arial Rounded MT Bold, sans-serif" 
          fill="#7C5730">35 - Thirty Five</text>
  </g>
</svg>