<svg xmlns="http://www.w3.org/2000/svg" viewBox="0 0 512 512" width="100%" height="100%">
  <defs>
    <!-- Background Gradient -->
    <linearGradient id="bg-36" x1="0%" y1="0%" x2="0%" y2="100%">
      <stop offset="0%" stop-color="#f9fffa" />
      <stop offset="100%" stop-color="#effff1" />
    </linearGradient>

    <!-- Front Face Gradient -->
    <linearGradient id="front-36" x1="0%" y1="0%" x2="0%" y2="100%">
      <stop offset="0%" stop-color="#89ff95" />
      <stop offset="100%" stop-color="#00f418" />
    </linearGradient>

    <!-- 3D Side/Extrusion Color -->
    <linearGradient id="side-36" x1="0%" y1="0%" x2="0%" y2="100%">
      <stop offset="0%" stop-color="#00c113" />
      <stop offset="100%" stop-color="#008e0e" />
    </linearGradient>

    <!-- Leaf Sprout Gradient -->
    <linearGradient id="leaf-36" x1="0%" y1="0%" x2="100%" y2="100%">
      <stop offset="0%" stop-color="#7BED9F" />
      <stop offset="100%" stop-color="#2ED573" />
    </linearGradient>

    <!-- 3D Base Shadow -->
    <filter id="shadow-36">
      <feDropShadow dx="0" dy="10" stdDeviation="8" flood-color="#000000" flood-opacity="0.25" />
    </filter>
  </defs>

  <!-- Background -->
  <circle cx="256" cy="256" r="236" fill="url(#bg-36)" stroke="#c6eaca" stroke-width="6" />

  <!-- Sparkles -->
  <g fill="#FFD43B">
    <circle cx="100" cy="130" r="8" />
    <circle cx="400" cy="120" r="10" />
    <circle cx="430" cy="330" r="7" />
  </g>

  <!-- Number -->
  <g filter="url(#shadow-36)">
    <!-- Side -->
    <text x="256" y="215" 
          text-anchor="middle" 
          font-size="180" 
          font-weight="900" 
          font-family="Comic Sans MS, Arial Rounded MT Bold, sans-serif" 
          fill="url(#side-36)" 
          stroke="url(#side-36)" 
          stroke-width="18" 
          transform="translate(0, 12)">36</text>

    <!-- Front -->
    <text x="256" y="215" 
          text-anchor="middle" 
          font-size="180" 
          font-weight="900" 
          font-family="Comic Sans MS, Arial Rounded MT Bold, sans-serif" 
          fill="url(#front-36)" 
          stroke="url(#front-36)" 
          stroke-width="18">36</text>
  </g>

  <!-- Cute Sprout -->
  <g transform="translate(256 65)">
    <path d="M0 0 Q-4 -15 -8 -24" stroke="#8B5A2B" stroke-width="5" fill="none" />
    <path d="M-8 -24 C-28 -28 -30 -5 -10 0 Z" fill="url(#leaf-36)" />
    <path d="M-8 -24 C5 -35 22 -20 5 -5 Z" fill="url(#leaf-36)" />
  </g>

  <!-- Eyes -->
  <g>
    <circle cx="215" cy="180" r="18" fill="#222" />
    <circle cx="208" cy="172" r="6" fill="#FFF" />

    <circle cx="297" cy="180" r="18" fill="#222" />
    <circle cx="290" cy="172" r="6" fill="#FFF" />
  </g>

  <!-- Cheeks -->
  <ellipse cx="185" cy="210" rx="18" ry="12" fill="#FF6B81" opacity="0.45" />
  <ellipse cx="327" cy="210" rx="18" ry="12" fill="#FF6B81" opacity="0.45" />

  <!-- Smile -->
  <path d="M225 225 Q256 255 287 225" stroke="#7A1022" stroke-width="8" fill="none" stroke-linecap="round" />

  <!-- Counting Object -->
  <g>
    <polygon points="146.0,303.8 134.4,298.0 134.4,309.5" fill="#a29bfe" /><polygon points="146.0,303.8 157.6,298.0 157.6,309.5" fill="#a29bfe" /><circle cx="146.0" cy="303.8" r="8.1" fill="#fd79a8" stroke="#ffffff" stroke-width="1.0" />
<polygon points="173.5,303.8 161.9,298.0 161.9,309.5" fill="#a29bfe" /><polygon points="173.5,303.8 185.1,298.0 185.1,309.5" fill="#a29bfe" /><circle cx="173.5" cy="303.8" r="8.1" fill="#fd79a8" stroke="#ffffff" stroke-width="1.0" />
<polygon points="201.0,303.8 189.4,298.0 189.4,309.5" fill="#a29bfe" /><polygon points="201.0,303.8 212.6,298.0 212.6,309.5" fill="#a29bfe" /><circle cx="201.0" cy="303.8" r="8.1" fill="#fd79a8" stroke="#ffffff" stroke-width="1.0" />
<polygon points="228.5,303.8 216.9,298.0 216.9,309.5" fill="#a29bfe" /><polygon points="228.5,303.8 240.1,298.0 240.1,309.5" fill="#a29bfe" /><circle cx="228.5" cy="303.8" r="8.1" fill="#fd79a8" stroke="#ffffff" stroke-width="1.0" />
<polygon points="256.0,303.8 244.4,298.0 244.4,309.5" fill="#a29bfe" /><polygon points="256.0,303.8 267.6,298.0 267.6,309.5" fill="#a29bfe" /><circle cx="256.0" cy="303.8" r="8.1" fill="#fd79a8" stroke="#ffffff" stroke-width="1.0" />
<polygon points="283.5,303.8 271.9,298.0 271.9,309.5" fill="#a29bfe" /><polygon points="283.5,303.8 295.1,298.0 295.1,309.5" fill="#a29bfe" /><circle cx="283.5" cy="303.8" r="8.1" fill="#fd79a8" stroke="#ffffff" stroke-width="1.0" />
<polygon points="311.0,303.8 299.4,298.0 299.4,309.5" fill="#a29bfe" /><polygon points="311.0,303.8 322.6,298.0 322.6,309.5" fill="#a29bfe" /><circle cx="311.0" cy="303.8" r="8.1" fill="#fd79a8" stroke="#ffffff" stroke-width="1.0" />
<polygon points="338.5,303.8 326.9,298.0 326.9,309.5" fill="#a29bfe" /><polygon points="338.5,303.8 350.1,298.0 350.1,309.5" fill="#a29bfe" /><circle cx="338.5" cy="303.8" r="8.1" fill="#fd79a8" stroke="#ffffff" stroke-width="1.0" />
<polygon points="366.0,303.8 354.4,298.0 354.4,309.5" fill="#a29bfe" /><polygon points="366.0,303.8 377.6,298.0 377.6,309.5" fill="#a29bfe" /><circle cx="366.0" cy="303.8" r="8.1" fill="#fd79a8" stroke="#ffffff" stroke-width="1.0" />
<polygon points="146.0,331.2 134.4,325.5 134.4,337.0" fill="#a29bfe" /><polygon points="146.0,331.2 157.6,325.5 157.6,337.0" fill="#a29bfe" /><circle cx="146.0" cy="331.2" r="8.1" fill="#fd79a8" stroke="#ffffff" stroke-width="1.0" />
<polygon points="173.5,331.2 161.9,325.5 161.9,337.0" fill="#a29bfe" /><polygon points="173.5,331.2 185.1,325.5 185.1,337.0" fill="#a29bfe" /><circle cx="173.5" cy="331.2" r="8.1" fill="#fd79a8" stroke="#ffffff" stroke-width="1.0" />
<polygon points="201.0,331.2 189.4,325.5 189.4,337.0" fill="#a29bfe" /><polygon points="201.0,331.2 212.6,325.5 212.6,337.0" fill="#a29bfe" /><circle cx="201.0" cy="331.2" r="8.1" fill="#fd79a8" stroke="#ffffff" stroke-width="1.0" />
<polygon points="228.5,331.2 216.9,325.5 216.9,337.0" fill="#a29bfe" /><polygon points="228.5,331.2 240.1,325.5 240.1,337.0" fill="#a29bfe" /><circle cx="228.5" cy="331.2" r="8.1" fill="#fd79a8" stroke="#ffffff" stroke-width="1.0" />
<polygon points="256.0,331.2 244.4,325.5 244.4,337.0" fill="#a29bfe" /><polygon points="256.0,331.2 267.6,325.5 267.6,337.0" fill="#a29bfe" /><circle cx="256.0" cy="331.2" r="8.1" fill="#fd79a8" stroke="#ffffff" stroke-width="1.0" />
<polygon points="283.5,331.2 271.9,325.5 271.9,337.0" fill="#a29bfe" /><polygon points="283.5,331.2 295.1,325.5 295.1,337.0" fill="#a29bfe" /><circle cx="283.5" cy="331.2" r="8.1" fill="#fd79a8" stroke="#ffffff" stroke-width="1.0" />
<polygon points="311.0,331.2 299.4,325.5 299.4,337.0" fill="#a29bfe" /><polygon points="311.0,331.2 322.6,325.5 322.6,337.0" fill="#a29bfe" /><circle cx="311.0" cy="331.2" r="8.1" fill="#fd79a8" stroke="#ffffff" stroke-width="1.0" />
<polygon points="338.5,331.2 326.9,325.5 326.9,337.0" fill="#a29bfe" /><polygon points="338.5,331.2 350.1,325.5 350.1,337.0" fill="#a29bfe" /><circle cx="338.5" cy="331.2" r="8.1" fill="#fd79a8" stroke="#ffffff" stroke-width="1.0" />
<polygon points="366.0,331.2 354.4,325.5 354.4,337.0" fill="#a29bfe" /><polygon points="366.0,331.2 377.6,325.5 377.6,337.0" fill="#a29bfe" /><circle cx="366.0" cy="331.2" r="8.1" fill="#fd79a8" stroke="#ffffff" stroke-width="1.0" />
<polygon points="146.0,358.8 134.4,353.0 134.4,364.5" fill="#a29bfe" /><polygon points="146.0,358.8 157.6,353.0 157.6,364.5" fill="#a29bfe" /><circle cx="146.0" cy="358.8" r="8.1" fill="#fd79a8" stroke="#ffffff" stroke-width="1.0" />
<polygon points="173.5,358.8 161.9,353.0 161.9,364.5" fill="#a29bfe" /><polygon points="173.5,358.8 185.1,353.0 185.1,364.5" fill="#a29bfe" /><circle cx="173.5" cy="358.8" r="8.1" fill="#fd79a8" stroke="#ffffff" stroke-width="1.0" />
<polygon points="201.0,358.8 189.4,353.0 189.4,364.5" fill="#a29bfe" /><polygon points="201.0,358.8 212.6,353.0 212.6,364.5" fill="#a29bfe" /><circle cx="201.0" cy="358.8" r="8.1" fill="#fd79a8" stroke="#ffffff" stroke-width="1.0" />
<polygon points="228.5,358.8 216.9,353.0 216.9,364.5" fill="#a29bfe" /><polygon points="228.5,358.8 240.1,353.0 240.1,364.5" fill="#a29bfe" /><circle cx="228.5" cy="358.8" r="8.1" fill="#fd79a8" stroke="#ffffff" stroke-width="1.0" />
<polygon points="256.0,358.8 244.4,353.0 244.4,364.5" fill="#a29bfe" /><polygon points="256.0,358.8 267.6,353.0 267.6,364.5" fill="#a29bfe" /><circle cx="256.0" cy="358.8" r="8.1" fill="#fd79a8" stroke="#ffffff" stroke-width="1.0" />
<polygon points="283.5,358.8 271.9,353.0 271.9,364.5" fill="#a29bfe" /><polygon points="283.5,358.8 295.1,353.0 295.1,364.5" fill="#a29bfe" /><circle cx="283.5" cy="358.8" r="8.1" fill="#fd79a8" stroke="#ffffff" stroke-width="1.0" />
<polygon points="311.0,358.8 299.4,353.0 299.4,364.5" fill="#a29bfe" /><polygon points="311.0,358.8 322.6,353.0 322.6,364.5" fill="#a29bfe" /><circle cx="311.0" cy="358.8" r="8.1" fill="#fd79a8" stroke="#ffffff" stroke-width="1.0" />
<polygon points="338.5,358.8 326.9,353.0 326.9,364.5" fill="#a29bfe" /><polygon points="338.5,358.8 350.1,353.0 350.1,364.5" fill="#a29bfe" /><circle cx="338.5" cy="358.8" r="8.1" fill="#fd79a8" stroke="#ffffff" stroke-width="1.0" />
<polygon points="366.0,358.8 354.4,353.0 354.4,364.5" fill="#a29bfe" /><polygon points="366.0,358.8 377.6,353.0 377.6,364.5" fill="#a29bfe" /><circle cx="366.0" cy="358.8" r="8.1" fill="#fd79a8" stroke="#ffffff" stroke-width="1.0" />
<polygon points="146.0,386.2 134.4,380.5 134.4,392.0" fill="#a29bfe" /><polygon points="146.0,386.2 157.6,380.5 157.6,392.0" fill="#a29bfe" /><circle cx="146.0" cy="386.2" r="8.1" fill="#fd79a8" stroke="#ffffff" stroke-width="1.0" />
<polygon points="173.5,386.2 161.9,380.5 161.9,392.0" fill="#a29bfe" /><polygon points="173.5,386.2 185.1,380.5 185.1,392.0" fill="#a29bfe" /><circle cx="173.5" cy="386.2" r="8.1" fill="#fd79a8" stroke="#ffffff" stroke-width="1.0" />
<polygon points="201.0,386.2 189.4,380.5 189.4,392.0" fill="#a29bfe" /><polygon points="201.0,386.2 212.6,380.5 212.6,392.0" fill="#a29bfe" /><circle cx="201.0" cy="386.2" r="8.1" fill="#fd79a8" stroke="#ffffff" stroke-width="1.0" />
<polygon points="228.5,386.2 216.9,380.5 216.9,392.0" fill="#a29bfe" /><polygon points="228.5,386.2 240.1,380.5 240.1,392.0" fill="#a29bfe" /><circle cx="228.5" cy="386.2" r="8.1" fill="#fd79a8" stroke="#ffffff" stroke-width="1.0" />
<polygon points="256.0,386.2 244.4,380.5 244.4,392.0" fill="#a29bfe" /><polygon points="256.0,386.2 267.6,380.5 267.6,392.0" fill="#a29bfe" /><circle cx="256.0" cy="386.2" r="8.1" fill="#fd79a8" stroke="#ffffff" stroke-width="1.0" />
<polygon points="283.5,386.2 271.9,380.5 271.9,392.0" fill="#a29bfe" /><polygon points="283.5,386.2 295.1,380.5 295.1,392.0" fill="#a29bfe" /><circle cx="283.5" cy="386.2" r="8.1" fill="#fd79a8" stroke="#ffffff" stroke-width="1.0" />
<polygon points="311.0,386.2 299.4,380.5 299.4,392.0" fill="#a29bfe" /><polygon points="311.0,386.2 322.6,380.5 322.6,392.0" fill="#a29bfe" /><circle cx="311.0" cy="386.2" r="8.1" fill="#fd79a8" stroke="#ffffff" stroke-width="1.0" />
<polygon points="338.5,386.2 326.9,380.5 326.9,392.0" fill="#a29bfe" /><polygon points="338.5,386.2 350.1,380.5 350.1,392.0" fill="#a29bfe" /><circle cx="338.5" cy="386.2" r="8.1" fill="#fd79a8" stroke="#ffffff" stroke-width="1.0" />
<polygon points="366.0,386.2 354.4,380.5 354.4,392.0" fill="#a29bfe" /><polygon points="366.0,386.2 377.6,380.5 377.6,392.0" fill="#a29bfe" /><circle cx="366.0" cy="386.2" r="8.1" fill="#fd79a8" stroke="#ffffff" stroke-width="1.0" />
  </g>

  <!-- Bottom Banner -->
  <g filter="url(#shadow-36)">
    <rect x="96" y="420" width="320" height="54" rx="27" fill="#FFF" stroke="#c6eaca" stroke-width="4" />
    <text x="256" y="455" 
          text-anchor="middle" 
          font-size="28" 
          font-weight="900" 
          font-family="Comic Sans MS, Arial Rounded MT Bold, sans-serif" 
          fill="#7C5730">36 - Thirty Six</text>
  </g>
</svg>