<svg xmlns="http://www.w3.org/2000/svg" viewBox="0 0 512 512" width="100%" height="100%">
  <defs>
    <!-- Background Gradient -->
    <linearGradient id="bg-37" x1="0%" y1="0%" x2="0%" y2="100%">
      <stop offset="0%" stop-color="#f9fffa" />
      <stop offset="100%" stop-color="#effff1" />
    </linearGradient>

    <!-- Front Face Gradient -->
    <linearGradient id="front-37" x1="0%" y1="0%" x2="0%" y2="100%">
      <stop offset="0%" stop-color="#89ff9b" />
      <stop offset="100%" stop-color="#00f424" />
    </linearGradient>

    <!-- 3D Side/Extrusion Color -->
    <linearGradient id="side-37" x1="0%" y1="0%" x2="0%" y2="100%">
      <stop offset="0%" stop-color="#00c11d" />
      <stop offset="100%" stop-color="#008e15" />
    </linearGradient>

    <!-- Leaf Sprout Gradient -->
    <linearGradient id="leaf-37" x1="0%" y1="0%" x2="100%" y2="100%">
      <stop offset="0%" stop-color="#7BED9F" />
      <stop offset="100%" stop-color="#2ED573" />
    </linearGradient>

    <!-- 3D Base Shadow -->
    <filter id="shadow-37">
      <feDropShadow dx="0" dy="10" stdDeviation="8" flood-color="#000000" flood-opacity="0.25" />
    </filter>
  </defs>

  <!-- Background -->
  <circle cx="256" cy="256" r="236" fill="url(#bg-37)" stroke="#c6eacc" stroke-width="6" />

  <!-- Sparkles -->
  <g fill="#FFD43B">
    <circle cx="100" cy="130" r="8" />
    <circle cx="400" cy="120" r="10" />
    <circle cx="430" cy="330" r="7" />
  </g>

  <!-- Number -->
  <g filter="url(#shadow-37)">
    <!-- Side -->
    <text x="256" y="215" 
          text-anchor="middle" 
          font-size="180" 
          font-weight="900" 
          font-family="Comic Sans MS, Arial Rounded MT Bold, sans-serif" 
          fill="url(#side-37)" 
          stroke="url(#side-37)" 
          stroke-width="18" 
          transform="translate(0, 12)">37</text>

    <!-- Front -->
    <text x="256" y="215" 
          text-anchor="middle" 
          font-size="180" 
          font-weight="900" 
          font-family="Comic Sans MS, Arial Rounded MT Bold, sans-serif" 
          fill="url(#front-37)" 
          stroke="url(#front-37)" 
          stroke-width="18">37</text>
  </g>

  <!-- Cute Sprout -->
  <g transform="translate(256 65)">
    <path d="M0 0 Q-4 -15 -8 -24" stroke="#8B5A2B" stroke-width="5" fill="none" />
    <path d="M-8 -24 C-28 -28 -30 -5 -10 0 Z" fill="url(#leaf-37)" />
    <path d="M-8 -24 C5 -35 22 -20 5 -5 Z" fill="url(#leaf-37)" />
  </g>

  <!-- Eyes -->
  <g>
    <circle cx="215" cy="180" r="18" fill="#222" />
    <circle cx="208" cy="172" r="6" fill="#FFF" />

    <circle cx="297" cy="180" r="18" fill="#222" />
    <circle cx="290" cy="172" r="6" fill="#FFF" />
  </g>

  <!-- Cheeks -->
  <ellipse cx="185" cy="210" rx="18" ry="12" fill="#FF6B81" opacity="0.45" />
  <ellipse cx="327" cy="210" rx="18" ry="12" fill="#FF6B81" opacity="0.45" />

  <!-- Smile -->
  <path d="M225 225 Q256 255 287 225" stroke="#7A1022" stroke-width="8" fill="none" stroke-linecap="round" />

  <!-- Counting Object -->
  <g>
    <circle cx="132.3" cy="298.6" r="4.6" fill="#ffbe76" /><circle cx="137.2" cy="302.1" r="4.6" fill="#ffbe76" /><circle cx="135.3" cy="308.0" r="4.6" fill="#ffbe76" /><circle cx="129.2" cy="308.0" r="4.6" fill="#ffbe76" /><circle cx="127.3" cy="302.1" r="4.6" fill="#ffbe76" /><circle cx="132.2" cy="303.8" r="4.0" fill="#f1c40f" />
<circle cx="159.8" cy="298.6" r="4.6" fill="#ffbe76" /><circle cx="164.7" cy="302.1" r="4.6" fill="#ffbe76" /><circle cx="162.8" cy="308.0" r="4.6" fill="#ffbe76" /><circle cx="156.7" cy="308.0" r="4.6" fill="#ffbe76" /><circle cx="154.8" cy="302.1" r="4.6" fill="#ffbe76" /><circle cx="159.8" cy="303.8" r="4.0" fill="#f1c40f" />
<circle cx="187.3" cy="298.6" r="4.6" fill="#ffbe76" /><circle cx="192.2" cy="302.1" r="4.6" fill="#ffbe76" /><circle cx="190.3" cy="308.0" r="4.6" fill="#ffbe76" /><circle cx="184.2" cy="308.0" r="4.6" fill="#ffbe76" /><circle cx="182.3" cy="302.1" r="4.6" fill="#ffbe76" /><circle cx="187.2" cy="303.8" r="4.0" fill="#f1c40f" />
<circle cx="214.8" cy="298.6" r="4.6" fill="#ffbe76" /><circle cx="219.7" cy="302.1" r="4.6" fill="#ffbe76" /><circle cx="217.8" cy="308.0" r="4.6" fill="#ffbe76" /><circle cx="211.7" cy="308.0" r="4.6" fill="#ffbe76" /><circle cx="209.8" cy="302.1" r="4.6" fill="#ffbe76" /><circle cx="214.8" cy="303.8" r="4.0" fill="#f1c40f" />
<circle cx="242.3" cy="298.6" r="4.6" fill="#ffbe76" /><circle cx="247.2" cy="302.1" r="4.6" fill="#ffbe76" /><circle cx="245.3" cy="308.0" r="4.6" fill="#ffbe76" /><circle cx="239.2" cy="308.0" r="4.6" fill="#ffbe76" /><circle cx="237.3" cy="302.1" r="4.6" fill="#ffbe76" /><circle cx="242.2" cy="303.8" r="4.0" fill="#f1c40f" />
<circle cx="269.8" cy="298.6" r="4.6" fill="#ffbe76" /><circle cx="274.7" cy="302.1" r="4.6" fill="#ffbe76" /><circle cx="272.8" cy="308.0" r="4.6" fill="#ffbe76" /><circle cx="266.7" cy="308.0" r="4.6" fill="#ffbe76" /><circle cx="264.8" cy="302.1" r="4.6" fill="#ffbe76" /><circle cx="269.8" cy="303.8" r="4.0" fill="#f1c40f" />
<circle cx="297.3" cy="298.6" r="4.6" fill="#ffbe76" /><circle cx="302.2" cy="302.1" r="4.6" fill="#ffbe76" /><circle cx="300.3" cy="308.0" r="4.6" fill="#ffbe76" /><circle cx="294.2" cy="308.0" r="4.6" fill="#ffbe76" /><circle cx="292.3" cy="302.1" r="4.6" fill="#ffbe76" /><circle cx="297.2" cy="303.8" r="4.0" fill="#f1c40f" />
<circle cx="324.8" cy="298.6" r="4.6" fill="#ffbe76" /><circle cx="329.7" cy="302.1" r="4.6" fill="#ffbe76" /><circle cx="327.8" cy="308.0" r="4.6" fill="#ffbe76" /><circle cx="321.7" cy="308.0" r="4.6" fill="#ffbe76" /><circle cx="319.8" cy="302.1" r="4.6" fill="#ffbe76" /><circle cx="324.8" cy="303.8" r="4.0" fill="#f1c40f" />
<circle cx="352.3" cy="298.6" r="4.6" fill="#ffbe76" /><circle cx="357.2" cy="302.1" r="4.6" fill="#ffbe76" /><circle cx="355.3" cy="308.0" r="4.6" fill="#ffbe76" /><circle cx="349.2" cy="308.0" r="4.6" fill="#ffbe76" /><circle cx="347.3" cy="302.1" r="4.6" fill="#ffbe76" /><circle cx="352.2" cy="303.8" r="4.0" fill="#f1c40f" />
<circle cx="379.8" cy="298.6" r="4.6" fill="#ffbe76" /><circle cx="384.7" cy="302.1" r="4.6" fill="#ffbe76" /><circle cx="382.8" cy="308.0" r="4.6" fill="#ffbe76" /><circle cx="376.7" cy="308.0" r="4.6" fill="#ffbe76" /><circle cx="374.8" cy="302.1" r="4.6" fill="#ffbe76" /><circle cx="379.8" cy="303.8" r="4.0" fill="#f1c40f" />
<circle cx="132.3" cy="326.1" r="4.6" fill="#ffbe76" /><circle cx="137.2" cy="329.6" r="4.6" fill="#ffbe76" /><circle cx="135.3" cy="335.5" r="4.6" fill="#ffbe76" /><circle cx="129.2" cy="335.5" r="4.6" fill="#ffbe76" /><circle cx="127.3" cy="329.6" r="4.6" fill="#ffbe76" /><circle cx="132.2" cy="331.2" r="4.0" fill="#f1c40f" />
<circle cx="159.8" cy="326.1" r="4.6" fill="#ffbe76" /><circle cx="164.7" cy="329.6" r="4.6" fill="#ffbe76" /><circle cx="162.8" cy="335.5" r="4.6" fill="#ffbe76" /><circle cx="156.7" cy="335.5" r="4.6" fill="#ffbe76" /><circle cx="154.8" cy="329.6" r="4.6" fill="#ffbe76" /><circle cx="159.8" cy="331.2" r="4.0" fill="#f1c40f" />
<circle cx="187.3" cy="326.1" r="4.6" fill="#ffbe76" /><circle cx="192.2" cy="329.6" r="4.6" fill="#ffbe76" /><circle cx="190.3" cy="335.5" r="4.6" fill="#ffbe76" /><circle cx="184.2" cy="335.5" r="4.6" fill="#ffbe76" /><circle cx="182.3" cy="329.6" r="4.6" fill="#ffbe76" /><circle cx="187.2" cy="331.2" r="4.0" fill="#f1c40f" />
<circle cx="214.8" cy="326.1" r="4.6" fill="#ffbe76" /><circle cx="219.7" cy="329.6" r="4.6" fill="#ffbe76" /><circle cx="217.8" cy="335.5" r="4.6" fill="#ffbe76" /><circle cx="211.7" cy="335.5" r="4.6" fill="#ffbe76" /><circle cx="209.8" cy="329.6" r="4.6" fill="#ffbe76" /><circle cx="214.8" cy="331.2" r="4.0" fill="#f1c40f" />
<circle cx="242.3" cy="326.1" r="4.6" fill="#ffbe76" /><circle cx="247.2" cy="329.6" r="4.6" fill="#ffbe76" /><circle cx="245.3" cy="335.5" r="4.6" fill="#ffbe76" /><circle cx="239.2" cy="335.5" r="4.6" fill="#ffbe76" /><circle cx="237.3" cy="329.6" r="4.6" fill="#ffbe76" /><circle cx="242.2" cy="331.2" r="4.0" fill="#f1c40f" />
<circle cx="269.8" cy="326.1" r="4.6" fill="#ffbe76" /><circle cx="274.7" cy="329.6" r="4.6" fill="#ffbe76" /><circle cx="272.8" cy="335.5" r="4.6" fill="#ffbe76" /><circle cx="266.7" cy="335.5" r="4.6" fill="#ffbe76" /><circle cx="264.8" cy="329.6" r="4.6" fill="#ffbe76" /><circle cx="269.8" cy="331.2" r="4.0" fill="#f1c40f" />
<circle cx="297.3" cy="326.1" r="4.6" fill="#ffbe76" /><circle cx="302.2" cy="329.6" r="4.6" fill="#ffbe76" /><circle cx="300.3" cy="335.5" r="4.6" fill="#ffbe76" /><circle cx="294.2" cy="335.5" r="4.6" fill="#ffbe76" /><circle cx="292.3" cy="329.6" r="4.6" fill="#ffbe76" /><circle cx="297.2" cy="331.2" r="4.0" fill="#f1c40f" />
<circle cx="324.8" cy="326.1" r="4.6" fill="#ffbe76" /><circle cx="329.7" cy="329.6" r="4.6" fill="#ffbe76" /><circle cx="327.8" cy="335.5" r="4.6" fill="#ffbe76" /><circle cx="321.7" cy="335.5" r="4.6" fill="#ffbe76" /><circle cx="319.8" cy="329.6" r="4.6" fill="#ffbe76" /><circle cx="324.8" cy="331.2" r="4.0" fill="#f1c40f" />
<circle cx="352.3" cy="326.1" r="4.6" fill="#ffbe76" /><circle cx="357.2" cy="329.6" r="4.6" fill="#ffbe76" /><circle cx="355.3" cy="335.5" r="4.6" fill="#ffbe76" /><circle cx="349.2" cy="335.5" r="4.6" fill="#ffbe76" /><circle cx="347.3" cy="329.6" r="4.6" fill="#ffbe76" /><circle cx="352.2" cy="331.2" r="4.0" fill="#f1c40f" />
<circle cx="379.8" cy="326.1" r="4.6" fill="#ffbe76" /><circle cx="384.7" cy="329.6" r="4.6" fill="#ffbe76" /><circle cx="382.8" cy="335.5" r="4.6" fill="#ffbe76" /><circle cx="376.7" cy="335.5" r="4.6" fill="#ffbe76" /><circle cx="374.8" cy="329.6" r="4.6" fill="#ffbe76" /><circle cx="379.8" cy="331.2" r="4.0" fill="#f1c40f" />
<circle cx="132.3" cy="353.6" r="4.6" fill="#ffbe76" /><circle cx="137.2" cy="357.1" r="4.6" fill="#ffbe76" /><circle cx="135.3" cy="363.0" r="4.6" fill="#ffbe76" /><circle cx="129.2" cy="363.0" r="4.6" fill="#ffbe76" /><circle cx="127.3" cy="357.1" r="4.6" fill="#ffbe76" /><circle cx="132.2" cy="358.8" r="4.0" fill="#f1c40f" />
<circle cx="159.8" cy="353.6" r="4.6" fill="#ffbe76" /><circle cx="164.7" cy="357.1" r="4.6" fill="#ffbe76" /><circle cx="162.8" cy="363.0" r="4.6" fill="#ffbe76" /><circle cx="156.7" cy="363.0" r="4.6" fill="#ffbe76" /><circle cx="154.8" cy="357.1" r="4.6" fill="#ffbe76" /><circle cx="159.8" cy="358.8" r="4.0" fill="#f1c40f" />
<circle cx="187.3" cy="353.6" r="4.6" fill="#ffbe76" /><circle cx="192.2" cy="357.1" r="4.6" fill="#ffbe76" /><circle cx="190.3" cy="363.0" r="4.6" fill="#ffbe76" /><circle cx="184.2" cy="363.0" r="4.6" fill="#ffbe76" /><circle cx="182.3" cy="357.1" r="4.6" fill="#ffbe76" /><circle cx="187.2" cy="358.8" r="4.0" fill="#f1c40f" />
<circle cx="214.8" cy="353.6" r="4.6" fill="#ffbe76" /><circle cx="219.7" cy="357.1" r="4.6" fill="#ffbe76" /><circle cx="217.8" cy="363.0" r="4.6" fill="#ffbe76" /><circle cx="211.7" cy="363.0" r="4.6" fill="#ffbe76" /><circle cx="209.8" cy="357.1" r="4.6" fill="#ffbe76" /><circle cx="214.8" cy="358.8" r="4.0" fill="#f1c40f" />
<circle cx="242.3" cy="353.6" r="4.6" fill="#ffbe76" /><circle cx="247.2" cy="357.1" r="4.6" fill="#ffbe76" /><circle cx="245.3" cy="363.0" r="4.6" fill="#ffbe76" /><circle cx="239.2" cy="363.0" r="4.6" fill="#ffbe76" /><circle cx="237.3" cy="357.1" r="4.6" fill="#ffbe76" /><circle cx="242.2" cy="358.8" r="4.0" fill="#f1c40f" />
<circle cx="269.8" cy="353.6" r="4.6" fill="#ffbe76" /><circle cx="274.7" cy="357.1" r="4.6" fill="#ffbe76" /><circle cx="272.8" cy="363.0" r="4.6" fill="#ffbe76" /><circle cx="266.7" cy="363.0" r="4.6" fill="#ffbe76" /><circle cx="264.8" cy="357.1" r="4.6" fill="#ffbe76" /><circle cx="269.8" cy="358.8" r="4.0" fill="#f1c40f" />
<circle cx="297.3" cy="353.6" r="4.6" fill="#ffbe76" /><circle cx="302.2" cy="357.1" r="4.6" fill="#ffbe76" /><circle cx="300.3" cy="363.0" r="4.6" fill="#ffbe76" /><circle cx="294.2" cy="363.0" r="4.6" fill="#ffbe76" /><circle cx="292.3" cy="357.1" r="4.6" fill="#ffbe76" /><circle cx="297.2" cy="358.8" r="4.0" fill="#f1c40f" />
<circle cx="324.8" cy="353.6" r="4.6" fill="#ffbe76" /><circle cx="329.7" cy="357.1" r="4.6" fill="#ffbe76" /><circle cx="327.8" cy="363.0" r="4.6" fill="#ffbe76" /><circle cx="321.7" cy="363.0" r="4.6" fill="#ffbe76" /><circle cx="319.8" cy="357.1" r="4.6" fill="#ffbe76" /><circle cx="324.8" cy="358.8" r="4.0" fill="#f1c40f" />
<circle cx="352.3" cy="353.6" r="4.6" fill="#ffbe76" /><circle cx="357.2" cy="357.1" r="4.6" fill="#ffbe76" /><circle cx="355.3" cy="363.0" r="4.6" fill="#ffbe76" /><circle cx="349.2" cy="363.0" r="4.6" fill="#ffbe76" /><circle cx="347.3" cy="357.1" r="4.6" fill="#ffbe76" /><circle cx="352.2" cy="358.8" r="4.0" fill="#f1c40f" />
<circle cx="379.8" cy="353.6" r="4.6" fill="#ffbe76" /><circle cx="384.7" cy="357.1" r="4.6" fill="#ffbe76" /><circle cx="382.8" cy="363.0" r="4.6" fill="#ffbe76" /><circle cx="376.7" cy="363.0" r="4.6" fill="#ffbe76" /><circle cx="374.8" cy="357.1" r="4.6" fill="#ffbe76" /><circle cx="379.8" cy="358.8" r="4.0" fill="#f1c40f" />
<circle cx="132.3" cy="381.1" r="4.6" fill="#ffbe76" /><circle cx="137.2" cy="384.6" r="4.6" fill="#ffbe76" /><circle cx="135.3" cy="390.5" r="4.6" fill="#ffbe76" /><circle cx="129.2" cy="390.5" r="4.6" fill="#ffbe76" /><circle cx="127.3" cy="384.6" r="4.6" fill="#ffbe76" /><circle cx="132.2" cy="386.2" r="4.0" fill="#f1c40f" />
<circle cx="159.8" cy="381.1" r="4.6" fill="#ffbe76" /><circle cx="164.7" cy="384.6" r="4.6" fill="#ffbe76" /><circle cx="162.8" cy="390.5" r="4.6" fill="#ffbe76" /><circle cx="156.7" cy="390.5" r="4.6" fill="#ffbe76" /><circle cx="154.8" cy="384.6" r="4.6" fill="#ffbe76" /><circle cx="159.8" cy="386.2" r="4.0" fill="#f1c40f" />
<circle cx="187.3" cy="381.1" r="4.6" fill="#ffbe76" /><circle cx="192.2" cy="384.6" r="4.6" fill="#ffbe76" /><circle cx="190.3" cy="390.5" r="4.6" fill="#ffbe76" /><circle cx="184.2" cy="390.5" r="4.6" fill="#ffbe76" /><circle cx="182.3" cy="384.6" r="4.6" fill="#ffbe76" /><circle cx="187.2" cy="386.2" r="4.0" fill="#f1c40f" />
<circle cx="214.8" cy="381.1" r="4.6" fill="#ffbe76" /><circle cx="219.7" cy="384.6" r="4.6" fill="#ffbe76" /><circle cx="217.8" cy="390.5" r="4.6" fill="#ffbe76" /><circle cx="211.7" cy="390.5" r="4.6" fill="#ffbe76" /><circle cx="209.8" cy="384.6" r="4.6" fill="#ffbe76" /><circle cx="214.8" cy="386.2" r="4.0" fill="#f1c40f" />
<circle cx="242.3" cy="381.1" r="4.6" fill="#ffbe76" /><circle cx="247.2" cy="384.6" r="4.6" fill="#ffbe76" /><circle cx="245.3" cy="390.5" r="4.6" fill="#ffbe76" /><circle cx="239.2" cy="390.5" r="4.6" fill="#ffbe76" /><circle cx="237.3" cy="384.6" r="4.6" fill="#ffbe76" /><circle cx="242.2" cy="386.2" r="4.0" fill="#f1c40f" />
<circle cx="269.8" cy="381.1" r="4.6" fill="#ffbe76" /><circle cx="274.7" cy="384.6" r="4.6" fill="#ffbe76" /><circle cx="272.8" cy="390.5" r="4.6" fill="#ffbe76" /><circle cx="266.7" cy="390.5" r="4.6" fill="#ffbe76" /><circle cx="264.8" cy="384.6" r="4.6" fill="#ffbe76" /><circle cx="269.8" cy="386.2" r="4.0" fill="#f1c40f" />
<circle cx="297.3" cy="381.1" r="4.6" fill="#ffbe76" /><circle cx="302.2" cy="384.6" r="4.6" fill="#ffbe76" /><circle cx="300.3" cy="390.5" r="4.6" fill="#ffbe76" /><circle cx="294.2" cy="390.5" r="4.6" fill="#ffbe76" /><circle cx="292.3" cy="384.6" r="4.6" fill="#ffbe76" /><circle cx="297.2" cy="386.2" r="4.0" fill="#f1c40f" />
  </g>

  <!-- Bottom Banner -->
  <g filter="url(#shadow-37)">
    <rect x="96" y="420" width="320" height="54" rx="27" fill="#FFF" stroke="#c6eacc" stroke-width="4" />
    <text x="256" y="455" 
          text-anchor="middle" 
          font-size="28" 
          font-weight="900" 
          font-family="Comic Sans MS, Arial Rounded MT Bold, sans-serif" 
          fill="#7C5730">37 - Thirty Seven</text>
  </g>
</svg>