<svg xmlns="http://www.w3.org/2000/svg" viewBox="0 0 512 512" width="100%" height="100%">
  <defs>
    <!-- Background Gradient -->
    <linearGradient id="bg-38" x1="0%" y1="0%" x2="0%" y2="100%">
      <stop offset="0%" stop-color="#f9fffb" />
      <stop offset="100%" stop-color="#effff3" />
    </linearGradient>

    <!-- Front Face Gradient -->
    <linearGradient id="front-38" x1="0%" y1="0%" x2="0%" y2="100%">
      <stop offset="0%" stop-color="#89ffa3" />
      <stop offset="100%" stop-color="#00f435" />
    </linearGradient>

    <!-- 3D Side/Extrusion Color -->
    <linearGradient id="side-38" x1="0%" y1="0%" x2="0%" y2="100%">
      <stop offset="0%" stop-color="#00c129" />
      <stop offset="100%" stop-color="#008e1e" />
    </linearGradient>

    <!-- Leaf Sprout Gradient -->
    <linearGradient id="leaf-38" x1="0%" y1="0%" x2="100%" y2="100%">
      <stop offset="0%" stop-color="#7BED9F" />
      <stop offset="100%" stop-color="#2ED573" />
    </linearGradient>

    <!-- 3D Base Shadow -->
    <filter id="shadow-38">
      <feDropShadow dx="0" dy="10" stdDeviation="8" flood-color="#000000" flood-opacity="0.25" />
    </filter>
  </defs>

  <!-- Background -->
  <circle cx="256" cy="256" r="236" fill="url(#bg-38)" stroke="#c6eace" stroke-width="6" />

  <!-- Sparkles -->
  <g fill="#FFD43B">
    <circle cx="100" cy="130" r="8" />
    <circle cx="400" cy="120" r="10" />
    <circle cx="430" cy="330" r="7" />
  </g>

  <!-- Number -->
  <g filter="url(#shadow-38)">
    <!-- Side -->
    <text x="256" y="215" 
          text-anchor="middle" 
          font-size="180" 
          font-weight="900" 
          font-family="Comic Sans MS, Arial Rounded MT Bold, sans-serif" 
          fill="url(#side-38)" 
          stroke="url(#side-38)" 
          stroke-width="18" 
          transform="translate(0, 12)">38</text>

    <!-- Front -->
    <text x="256" y="215" 
          text-anchor="middle" 
          font-size="180" 
          font-weight="900" 
          font-family="Comic Sans MS, Arial Rounded MT Bold, sans-serif" 
          fill="url(#front-38)" 
          stroke="url(#front-38)" 
          stroke-width="18">38</text>
  </g>

  <!-- Cute Sprout -->
  <g transform="translate(256 65)">
    <path d="M0 0 Q-4 -15 -8 -24" stroke="#8B5A2B" stroke-width="5" fill="none" />
    <path d="M-8 -24 C-28 -28 -30 -5 -10 0 Z" fill="url(#leaf-38)" />
    <path d="M-8 -24 C5 -35 22 -20 5 -5 Z" fill="url(#leaf-38)" />
  </g>

  <!-- Eyes -->
  <g>
    <circle cx="215" cy="180" r="18" fill="#222" />
    <circle cx="208" cy="172" r="6" fill="#FFF" />

    <circle cx="297" cy="180" r="18" fill="#222" />
    <circle cx="290" cy="172" r="6" fill="#FFF" />
  </g>

  <!-- Cheeks -->
  <ellipse cx="185" cy="210" rx="18" ry="12" fill="#FF6B81" opacity="0.45" />
  <ellipse cx="327" cy="210" rx="18" ry="12" fill="#FF6B81" opacity="0.45" />

  <!-- Smile -->
  <path d="M225 225 Q256 255 287 225" stroke="#7A1022" stroke-width="8" fill="none" stroke-linecap="round" />

  <!-- Counting Object -->
  <g>
    <circle cx="132.2" cy="303.8" r="11.5" fill="#f1c40f" stroke="#e67e22" stroke-width="1.2" /><circle cx="132.2" cy="303.8" r="8.1" fill="none" stroke="#f39c12" stroke-width="1.2" stroke-dasharray="1.5,1.5" /><polygon points="132.2,299.7 133.4,302.6 136.3,302.6 134.0,304.9 135.1,307.8 132.2,306.1 129.4,307.8 130.5,304.9 128.2,302.6 131.1,302.6" fill="#ffffff" />
<circle cx="159.8" cy="303.8" r="11.5" fill="#f1c40f" stroke="#e67e22" stroke-width="1.2" /><circle cx="159.8" cy="303.8" r="8.1" fill="none" stroke="#f39c12" stroke-width="1.2" stroke-dasharray="1.5,1.5" /><polygon points="159.8,299.7 160.9,302.6 163.8,302.6 161.5,304.9 162.6,307.8 159.8,306.1 156.9,307.8 158.0,304.9 155.7,302.6 158.6,302.6" fill="#ffffff" />
<circle cx="187.2" cy="303.8" r="11.5" fill="#f1c40f" stroke="#e67e22" stroke-width="1.2" /><circle cx="187.2" cy="303.8" r="8.1" fill="none" stroke="#f39c12" stroke-width="1.2" stroke-dasharray="1.5,1.5" /><polygon points="187.2,299.7 188.4,302.6 191.3,302.6 189.0,304.9 190.1,307.8 187.2,306.1 184.4,307.8 185.5,304.9 183.2,302.6 186.1,302.6" fill="#ffffff" />
<circle cx="214.8" cy="303.8" r="11.5" fill="#f1c40f" stroke="#e67e22" stroke-width="1.2" /><circle cx="214.8" cy="303.8" r="8.1" fill="none" stroke="#f39c12" stroke-width="1.2" stroke-dasharray="1.5,1.5" /><polygon points="214.8,299.7 215.9,302.6 218.8,302.6 216.5,304.9 217.6,307.8 214.8,306.1 211.9,307.8 213.0,304.9 210.7,302.6 213.6,302.6" fill="#ffffff" />
<circle cx="242.2" cy="303.8" r="11.5" fill="#f1c40f" stroke="#e67e22" stroke-width="1.2" /><circle cx="242.2" cy="303.8" r="8.1" fill="none" stroke="#f39c12" stroke-width="1.2" stroke-dasharray="1.5,1.5" /><polygon points="242.2,299.7 243.4,302.6 246.3,302.6 244.0,304.9 245.1,307.8 242.2,306.1 239.4,307.8 240.5,304.9 238.2,302.6 241.1,302.6" fill="#ffffff" />
<circle cx="269.8" cy="303.8" r="11.5" fill="#f1c40f" stroke="#e67e22" stroke-width="1.2" /><circle cx="269.8" cy="303.8" r="8.1" fill="none" stroke="#f39c12" stroke-width="1.2" stroke-dasharray="1.5,1.5" /><polygon points="269.8,299.7 270.9,302.6 273.8,302.6 271.5,304.9 272.6,307.8 269.8,306.1 266.9,307.8 268.0,304.9 265.7,302.6 268.6,302.6" fill="#ffffff" />
<circle cx="297.2" cy="303.8" r="11.5" fill="#f1c40f" stroke="#e67e22" stroke-width="1.2" /><circle cx="297.2" cy="303.8" r="8.1" fill="none" stroke="#f39c12" stroke-width="1.2" stroke-dasharray="1.5,1.5" /><polygon points="297.2,299.7 298.4,302.6 301.3,302.6 299.0,304.9 300.1,307.8 297.2,306.1 294.4,307.8 295.5,304.9 293.2,302.6 296.1,302.6" fill="#ffffff" />
<circle cx="324.8" cy="303.8" r="11.5" fill="#f1c40f" stroke="#e67e22" stroke-width="1.2" /><circle cx="324.8" cy="303.8" r="8.1" fill="none" stroke="#f39c12" stroke-width="1.2" stroke-dasharray="1.5,1.5" /><polygon points="324.8,299.7 325.9,302.6 328.8,302.6 326.5,304.9 327.6,307.8 324.8,306.1 321.9,307.8 323.0,304.9 320.7,302.6 323.6,302.6" fill="#ffffff" />
<circle cx="352.2" cy="303.8" r="11.5" fill="#f1c40f" stroke="#e67e22" stroke-width="1.2" /><circle cx="352.2" cy="303.8" r="8.1" fill="none" stroke="#f39c12" stroke-width="1.2" stroke-dasharray="1.5,1.5" /><polygon points="352.2,299.7 353.4,302.6 356.3,302.6 354.0,304.9 355.1,307.8 352.2,306.1 349.4,307.8 350.5,304.9 348.2,302.6 351.1,302.6" fill="#ffffff" />
<circle cx="379.8" cy="303.8" r="11.5" fill="#f1c40f" stroke="#e67e22" stroke-width="1.2" /><circle cx="379.8" cy="303.8" r="8.1" fill="none" stroke="#f39c12" stroke-width="1.2" stroke-dasharray="1.5,1.5" /><polygon points="379.8,299.7 380.9,302.6 383.8,302.6 381.5,304.9 382.6,307.8 379.8,306.1 376.9,307.8 378.0,304.9 375.7,302.6 378.6,302.6" fill="#ffffff" />
<circle cx="132.2" cy="331.2" r="11.5" fill="#f1c40f" stroke="#e67e22" stroke-width="1.2" /><circle cx="132.2" cy="331.2" r="8.1" fill="none" stroke="#f39c12" stroke-width="1.2" stroke-dasharray="1.5,1.5" /><polygon points="132.2,327.2 133.4,330.1 136.3,330.1 134.0,332.4 135.1,335.3 132.2,333.6 129.4,335.3 130.5,332.4 128.2,330.1 131.1,330.1" fill="#ffffff" />
<circle cx="159.8" cy="331.2" r="11.5" fill="#f1c40f" stroke="#e67e22" stroke-width="1.2" /><circle cx="159.8" cy="331.2" r="8.1" fill="none" stroke="#f39c12" stroke-width="1.2" stroke-dasharray="1.5,1.5" /><polygon points="159.8,327.2 160.9,330.1 163.8,330.1 161.5,332.4 162.6,335.3 159.8,333.6 156.9,335.3 158.0,332.4 155.7,330.1 158.6,330.1" fill="#ffffff" />
<circle cx="187.2" cy="331.2" r="11.5" fill="#f1c40f" stroke="#e67e22" stroke-width="1.2" /><circle cx="187.2" cy="331.2" r="8.1" fill="none" stroke="#f39c12" stroke-width="1.2" stroke-dasharray="1.5,1.5" /><polygon points="187.2,327.2 188.4,330.1 191.3,330.1 189.0,332.4 190.1,335.3 187.2,333.6 184.4,335.3 185.5,332.4 183.2,330.1 186.1,330.1" fill="#ffffff" />
<circle cx="214.8" cy="331.2" r="11.5" fill="#f1c40f" stroke="#e67e22" stroke-width="1.2" /><circle cx="214.8" cy="331.2" r="8.1" fill="none" stroke="#f39c12" stroke-width="1.2" stroke-dasharray="1.5,1.5" /><polygon points="214.8,327.2 215.9,330.1 218.8,330.1 216.5,332.4 217.6,335.3 214.8,333.6 211.9,335.3 213.0,332.4 210.7,330.1 213.6,330.1" fill="#ffffff" />
<circle cx="242.2" cy="331.2" r="11.5" fill="#f1c40f" stroke="#e67e22" stroke-width="1.2" /><circle cx="242.2" cy="331.2" r="8.1" fill="none" stroke="#f39c12" stroke-width="1.2" stroke-dasharray="1.5,1.5" /><polygon points="242.2,327.2 243.4,330.1 246.3,330.1 244.0,332.4 245.1,335.3 242.2,333.6 239.4,335.3 240.5,332.4 238.2,330.1 241.1,330.1" fill="#ffffff" />
<circle cx="269.8" cy="331.2" r="11.5" fill="#f1c40f" stroke="#e67e22" stroke-width="1.2" /><circle cx="269.8" cy="331.2" r="8.1" fill="none" stroke="#f39c12" stroke-width="1.2" stroke-dasharray="1.5,1.5" /><polygon points="269.8,327.2 270.9,330.1 273.8,330.1 271.5,332.4 272.6,335.3 269.8,333.6 266.9,335.3 268.0,332.4 265.7,330.1 268.6,330.1" fill="#ffffff" />
<circle cx="297.2" cy="331.2" r="11.5" fill="#f1c40f" stroke="#e67e22" stroke-width="1.2" /><circle cx="297.2" cy="331.2" r="8.1" fill="none" stroke="#f39c12" stroke-width="1.2" stroke-dasharray="1.5,1.5" /><polygon points="297.2,327.2 298.4,330.1 301.3,330.1 299.0,332.4 300.1,335.3 297.2,333.6 294.4,335.3 295.5,332.4 293.2,330.1 296.1,330.1" fill="#ffffff" />
<circle cx="324.8" cy="331.2" r="11.5" fill="#f1c40f" stroke="#e67e22" stroke-width="1.2" /><circle cx="324.8" cy="331.2" r="8.1" fill="none" stroke="#f39c12" stroke-width="1.2" stroke-dasharray="1.5,1.5" /><polygon points="324.8,327.2 325.9,330.1 328.8,330.1 326.5,332.4 327.6,335.3 324.8,333.6 321.9,335.3 323.0,332.4 320.7,330.1 323.6,330.1" fill="#ffffff" />
<circle cx="352.2" cy="331.2" r="11.5" fill="#f1c40f" stroke="#e67e22" stroke-width="1.2" /><circle cx="352.2" cy="331.2" r="8.1" fill="none" stroke="#f39c12" stroke-width="1.2" stroke-dasharray="1.5,1.5" /><polygon points="352.2,327.2 353.4,330.1 356.3,330.1 354.0,332.4 355.1,335.3 352.2,333.6 349.4,335.3 350.5,332.4 348.2,330.1 351.1,330.1" fill="#ffffff" />
<circle cx="379.8" cy="331.2" r="11.5" fill="#f1c40f" stroke="#e67e22" stroke-width="1.2" /><circle cx="379.8" cy="331.2" r="8.1" fill="none" stroke="#f39c12" stroke-width="1.2" stroke-dasharray="1.5,1.5" /><polygon points="379.8,327.2 380.9,330.1 383.8,330.1 381.5,332.4 382.6,335.3 379.8,333.6 376.9,335.3 378.0,332.4 375.7,330.1 378.6,330.1" fill="#ffffff" />
<circle cx="132.2" cy="358.8" r="11.5" fill="#f1c40f" stroke="#e67e22" stroke-width="1.2" /><circle cx="132.2" cy="358.8" r="8.1" fill="none" stroke="#f39c12" stroke-width="1.2" stroke-dasharray="1.5,1.5" /><polygon points="132.2,354.7 133.4,357.6 136.3,357.6 134.0,359.9 135.1,362.8 132.2,361.1 129.4,362.8 130.5,359.9 128.2,357.6 131.1,357.6" fill="#ffffff" />
<circle cx="159.8" cy="358.8" r="11.5" fill="#f1c40f" stroke="#e67e22" stroke-width="1.2" /><circle cx="159.8" cy="358.8" r="8.1" fill="none" stroke="#f39c12" stroke-width="1.2" stroke-dasharray="1.5,1.5" /><polygon points="159.8,354.7 160.9,357.6 163.8,357.6 161.5,359.9 162.6,362.8 159.8,361.1 156.9,362.8 158.0,359.9 155.7,357.6 158.6,357.6" fill="#ffffff" />
<circle cx="187.2" cy="358.8" r="11.5" fill="#f1c40f" stroke="#e67e22" stroke-width="1.2" /><circle cx="187.2" cy="358.8" r="8.1" fill="none" stroke="#f39c12" stroke-width="1.2" stroke-dasharray="1.5,1.5" /><polygon points="187.2,354.7 188.4,357.6 191.3,357.6 189.0,359.9 190.1,362.8 187.2,361.1 184.4,362.8 185.5,359.9 183.2,357.6 186.1,357.6" fill="#ffffff" />
<circle cx="214.8" cy="358.8" r="11.5" fill="#f1c40f" stroke="#e67e22" stroke-width="1.2" /><circle cx="214.8" cy="358.8" r="8.1" fill="none" stroke="#f39c12" stroke-width="1.2" stroke-dasharray="1.5,1.5" /><polygon points="214.8,354.7 215.9,357.6 218.8,357.6 216.5,359.9 217.6,362.8 214.8,361.1 211.9,362.8 213.0,359.9 210.7,357.6 213.6,357.6" fill="#ffffff" />
<circle cx="242.2" cy="358.8" r="11.5" fill="#f1c40f" stroke="#e67e22" stroke-width="1.2" /><circle cx="242.2" cy="358.8" r="8.1" fill="none" stroke="#f39c12" stroke-width="1.2" stroke-dasharray="1.5,1.5" /><polygon points="242.2,354.7 243.4,357.6 246.3,357.6 244.0,359.9 245.1,362.8 242.2,361.1 239.4,362.8 240.5,359.9 238.2,357.6 241.1,357.6" fill="#ffffff" />
<circle cx="269.8" cy="358.8" r="11.5" fill="#f1c40f" stroke="#e67e22" stroke-width="1.2" /><circle cx="269.8" cy="358.8" r="8.1" fill="none" stroke="#f39c12" stroke-width="1.2" stroke-dasharray="1.5,1.5" /><polygon points="269.8,354.7 270.9,357.6 273.8,357.6 271.5,359.9 272.6,362.8 269.8,361.1 266.9,362.8 268.0,359.9 265.7,357.6 268.6,357.6" fill="#ffffff" />
<circle cx="297.2" cy="358.8" r="11.5" fill="#f1c40f" stroke="#e67e22" stroke-width="1.2" /><circle cx="297.2" cy="358.8" r="8.1" fill="none" stroke="#f39c12" stroke-width="1.2" stroke-dasharray="1.5,1.5" /><polygon points="297.2,354.7 298.4,357.6 301.3,357.6 299.0,359.9 300.1,362.8 297.2,361.1 294.4,362.8 295.5,359.9 293.2,357.6 296.1,357.6" fill="#ffffff" />
<circle cx="324.8" cy="358.8" r="11.5" fill="#f1c40f" stroke="#e67e22" stroke-width="1.2" /><circle cx="324.8" cy="358.8" r="8.1" fill="none" stroke="#f39c12" stroke-width="1.2" stroke-dasharray="1.5,1.5" /><polygon points="324.8,354.7 325.9,357.6 328.8,357.6 326.5,359.9 327.6,362.8 324.8,361.1 321.9,362.8 323.0,359.9 320.7,357.6 323.6,357.6" fill="#ffffff" />
<circle cx="352.2" cy="358.8" r="11.5" fill="#f1c40f" stroke="#e67e22" stroke-width="1.2" /><circle cx="352.2" cy="358.8" r="8.1" fill="none" stroke="#f39c12" stroke-width="1.2" stroke-dasharray="1.5,1.5" /><polygon points="352.2,354.7 353.4,357.6 356.3,357.6 354.0,359.9 355.1,362.8 352.2,361.1 349.4,362.8 350.5,359.9 348.2,357.6 351.1,357.6" fill="#ffffff" />
<circle cx="379.8" cy="358.8" r="11.5" fill="#f1c40f" stroke="#e67e22" stroke-width="1.2" /><circle cx="379.8" cy="358.8" r="8.1" fill="none" stroke="#f39c12" stroke-width="1.2" stroke-dasharray="1.5,1.5" /><polygon points="379.8,354.7 380.9,357.6 383.8,357.6 381.5,359.9 382.6,362.8 379.8,361.1 376.9,362.8 378.0,359.9 375.7,357.6 378.6,357.6" fill="#ffffff" />
<circle cx="132.2" cy="386.2" r="11.5" fill="#f1c40f" stroke="#e67e22" stroke-width="1.2" /><circle cx="132.2" cy="386.2" r="8.1" fill="none" stroke="#f39c12" stroke-width="1.2" stroke-dasharray="1.5,1.5" /><polygon points="132.2,382.2 133.4,385.1 136.3,385.1 134.0,387.4 135.1,390.3 132.2,388.6 129.4,390.3 130.5,387.4 128.2,385.1 131.1,385.1" fill="#ffffff" />
<circle cx="159.8" cy="386.2" r="11.5" fill="#f1c40f" stroke="#e67e22" stroke-width="1.2" /><circle cx="159.8" cy="386.2" r="8.1" fill="none" stroke="#f39c12" stroke-width="1.2" stroke-dasharray="1.5,1.5" /><polygon points="159.8,382.2 160.9,385.1 163.8,385.1 161.5,387.4 162.6,390.3 159.8,388.6 156.9,390.3 158.0,387.4 155.7,385.1 158.6,385.1" fill="#ffffff" />
<circle cx="187.2" cy="386.2" r="11.5" fill="#f1c40f" stroke="#e67e22" stroke-width="1.2" /><circle cx="187.2" cy="386.2" r="8.1" fill="none" stroke="#f39c12" stroke-width="1.2" stroke-dasharray="1.5,1.5" /><polygon points="187.2,382.2 188.4,385.1 191.3,385.1 189.0,387.4 190.1,390.3 187.2,388.6 184.4,390.3 185.5,387.4 183.2,385.1 186.1,385.1" fill="#ffffff" />
<circle cx="214.8" cy="386.2" r="11.5" fill="#f1c40f" stroke="#e67e22" stroke-width="1.2" /><circle cx="214.8" cy="386.2" r="8.1" fill="none" stroke="#f39c12" stroke-width="1.2" stroke-dasharray="1.5,1.5" /><polygon points="214.8,382.2 215.9,385.1 218.8,385.1 216.5,387.4 217.6,390.3 214.8,388.6 211.9,390.3 213.0,387.4 210.7,385.1 213.6,385.1" fill="#ffffff" />
<circle cx="242.2" cy="386.2" r="11.5" fill="#f1c40f" stroke="#e67e22" stroke-width="1.2" /><circle cx="242.2" cy="386.2" r="8.1" fill="none" stroke="#f39c12" stroke-width="1.2" stroke-dasharray="1.5,1.5" /><polygon points="242.2,382.2 243.4,385.1 246.3,385.1 244.0,387.4 245.1,390.3 242.2,388.6 239.4,390.3 240.5,387.4 238.2,385.1 241.1,385.1" fill="#ffffff" />
<circle cx="269.8" cy="386.2" r="11.5" fill="#f1c40f" stroke="#e67e22" stroke-width="1.2" /><circle cx="269.8" cy="386.2" r="8.1" fill="none" stroke="#f39c12" stroke-width="1.2" stroke-dasharray="1.5,1.5" /><polygon points="269.8,382.2 270.9,385.1 273.8,385.1 271.5,387.4 272.6,390.3 269.8,388.6 266.9,390.3 268.0,387.4 265.7,385.1 268.6,385.1" fill="#ffffff" />
<circle cx="297.2" cy="386.2" r="11.5" fill="#f1c40f" stroke="#e67e22" stroke-width="1.2" /><circle cx="297.2" cy="386.2" r="8.1" fill="none" stroke="#f39c12" stroke-width="1.2" stroke-dasharray="1.5,1.5" /><polygon points="297.2,382.2 298.4,385.1 301.3,385.1 299.0,387.4 300.1,390.3 297.2,388.6 294.4,390.3 295.5,387.4 293.2,385.1 296.1,385.1" fill="#ffffff" />
<circle cx="324.8" cy="386.2" r="11.5" fill="#f1c40f" stroke="#e67e22" stroke-width="1.2" /><circle cx="324.8" cy="386.2" r="8.1" fill="none" stroke="#f39c12" stroke-width="1.2" stroke-dasharray="1.5,1.5" /><polygon points="324.8,382.2 325.9,385.1 328.8,385.1 326.5,387.4 327.6,390.3 324.8,388.6 321.9,390.3 323.0,387.4 320.7,385.1 323.6,385.1" fill="#ffffff" />
  </g>

  <!-- Bottom Banner -->
  <g filter="url(#shadow-38)">
    <rect x="96" y="420" width="320" height="54" rx="27" fill="#FFF" stroke="#c6eace" stroke-width="4" />
    <text x="256" y="455" 
          text-anchor="middle" 
          font-size="28" 
          font-weight="900" 
          font-family="Comic Sans MS, Arial Rounded MT Bold, sans-serif" 
          fill="#7C5730">38 - Thirty Eight</text>
  </g>
</svg>