<svg xmlns="http://www.w3.org/2000/svg" viewBox="0 0 512 512" width="100%" height="100%">
  <defs>
    <!-- Background Gradient -->
    <linearGradient id="bg-40" x1="0%" y1="0%" x2="0%" y2="100%">
      <stop offset="0%" stop-color="#f9fffb" />
      <stop offset="100%" stop-color="#effff4" />
    </linearGradient>

    <!-- Front Face Gradient -->
    <linearGradient id="front-40" x1="0%" y1="0%" x2="0%" y2="100%">
      <stop offset="0%" stop-color="#89ffb0" />
      <stop offset="100%" stop-color="#00f451" />
    </linearGradient>

    <!-- 3D Side/Extrusion Color -->
    <linearGradient id="side-40" x1="0%" y1="0%" x2="0%" y2="100%">
      <stop offset="0%" stop-color="#00c140" />
      <stop offset="100%" stop-color="#008e2f" />
    </linearGradient>

    <!-- Leaf Sprout Gradient -->
    <linearGradient id="leaf-40" x1="0%" y1="0%" x2="100%" y2="100%">
      <stop offset="0%" stop-color="#7BED9F" />
      <stop offset="100%" stop-color="#2ED573" />
    </linearGradient>

    <!-- 3D Base Shadow -->
    <filter id="shadow-40">
      <feDropShadow dx="0" dy="10" stdDeviation="8" flood-color="#000000" flood-opacity="0.25" />
    </filter>
  </defs>

  <!-- Background -->
  <circle cx="256" cy="256" r="236" fill="url(#bg-40)" stroke="#c6ead2" stroke-width="6" />

  <!-- Sparkles -->
  <g fill="#FFD43B">
    <circle cx="100" cy="130" r="8" />
    <circle cx="400" cy="120" r="10" />
    <circle cx="430" cy="330" r="7" />
  </g>

  <!-- Number -->
  <g filter="url(#shadow-40)">
    <!-- Side -->
    <text x="256" y="215" 
          text-anchor="middle" 
          font-size="180" 
          font-weight="900" 
          font-family="Comic Sans MS, Arial Rounded MT Bold, sans-serif" 
          fill="url(#side-40)" 
          stroke="url(#side-40)" 
          stroke-width="18" 
          transform="translate(0, 12)">40</text>

    <!-- Front -->
    <text x="256" y="215" 
          text-anchor="middle" 
          font-size="180" 
          font-weight="900" 
          font-family="Comic Sans MS, Arial Rounded MT Bold, sans-serif" 
          fill="url(#front-40)" 
          stroke="url(#front-40)" 
          stroke-width="18">40</text>
  </g>

  <!-- Cute Sprout -->
  <g transform="translate(256 65)">
    <path d="M0 0 Q-4 -15 -8 -24" stroke="#8B5A2B" stroke-width="5" fill="none" />
    <path d="M-8 -24 C-28 -28 -30 -5 -10 0 Z" fill="url(#leaf-40)" />
    <path d="M-8 -24 C5 -35 22 -20 5 -5 Z" fill="url(#leaf-40)" />
  </g>

  <!-- Eyes -->
  <g>
    <circle cx="215" cy="180" r="18" fill="#222" />
    <circle cx="208" cy="172" r="6" fill="#FFF" />

    <circle cx="297" cy="180" r="18" fill="#222" />
    <circle cx="290" cy="172" r="6" fill="#FFF" />
  </g>

  <!-- Cheeks -->
  <ellipse cx="185" cy="210" rx="18" ry="12" fill="#FF6B81" opacity="0.45" />
  <ellipse cx="327" cy="210" rx="18" ry="12" fill="#FF6B81" opacity="0.45" />

  <!-- Smile -->
  <path d="M225 225 Q256 255 287 225" stroke="#7A1022" stroke-width="8" fill="none" stroke-linecap="round" />

  <!-- Counting Object -->
  <g>
    <circle cx="132.2" cy="303.8" r="6.9" fill="#f1c40f" /><line x1="140.3" y1="303.8" x2="143.2" y2="303.8" stroke="#f39c12" stroke-width="1.2" stroke-linecap="round" /><line x1="138.0" y1="309.5" x2="140.0" y2="311.5" stroke="#f39c12" stroke-width="1.2" stroke-linecap="round" /><line x1="132.3" y1="311.8" x2="132.3" y2="314.7" stroke="#f39c12" stroke-width="1.2" stroke-linecap="round" /><line x1="126.5" y1="309.5" x2="124.5" y2="311.5" stroke="#f39c12" stroke-width="1.2" stroke-linecap="round" /><line x1="124.2" y1="303.8" x2="121.3" y2="303.8" stroke="#f39c12" stroke-width="1.2" stroke-linecap="round" /><line x1="126.5" y1="298.0" x2="124.5" y2="296.0" stroke="#f39c12" stroke-width="1.2" stroke-linecap="round" /><line x1="132.2" y1="295.7" x2="132.2" y2="292.8" stroke="#f39c12" stroke-width="1.2" stroke-linecap="round" /><line x1="138.0" y1="298.0" x2="140.0" y2="296.0" stroke="#f39c12" stroke-width="1.2" stroke-linecap="round" />
<circle cx="159.8" cy="303.8" r="6.9" fill="#f1c40f" /><line x1="167.8" y1="303.8" x2="170.7" y2="303.8" stroke="#f39c12" stroke-width="1.2" stroke-linecap="round" /><line x1="165.5" y1="309.5" x2="167.5" y2="311.5" stroke="#f39c12" stroke-width="1.2" stroke-linecap="round" /><line x1="159.8" y1="311.8" x2="159.8" y2="314.7" stroke="#f39c12" stroke-width="1.2" stroke-linecap="round" /><line x1="154.0" y1="309.5" x2="152.0" y2="311.5" stroke="#f39c12" stroke-width="1.2" stroke-linecap="round" /><line x1="151.7" y1="303.8" x2="148.8" y2="303.8" stroke="#f39c12" stroke-width="1.2" stroke-linecap="round" /><line x1="154.0" y1="298.0" x2="152.0" y2="296.0" stroke="#f39c12" stroke-width="1.2" stroke-linecap="round" /><line x1="159.7" y1="295.7" x2="159.7" y2="292.8" stroke="#f39c12" stroke-width="1.2" stroke-linecap="round" /><line x1="165.5" y1="298.0" x2="167.5" y2="296.0" stroke="#f39c12" stroke-width="1.2" stroke-linecap="round" />
<circle cx="187.2" cy="303.8" r="6.9" fill="#f1c40f" /><line x1="195.3" y1="303.8" x2="198.2" y2="303.8" stroke="#f39c12" stroke-width="1.2" stroke-linecap="round" /><line x1="193.0" y1="309.5" x2="195.0" y2="311.5" stroke="#f39c12" stroke-width="1.2" stroke-linecap="round" /><line x1="187.3" y1="311.8" x2="187.3" y2="314.7" stroke="#f39c12" stroke-width="1.2" stroke-linecap="round" /><line x1="181.5" y1="309.5" x2="179.5" y2="311.5" stroke="#f39c12" stroke-width="1.2" stroke-linecap="round" /><line x1="179.2" y1="303.8" x2="176.3" y2="303.8" stroke="#f39c12" stroke-width="1.2" stroke-linecap="round" /><line x1="181.5" y1="298.0" x2="179.5" y2="296.0" stroke="#f39c12" stroke-width="1.2" stroke-linecap="round" /><line x1="187.2" y1="295.7" x2="187.2" y2="292.8" stroke="#f39c12" stroke-width="1.2" stroke-linecap="round" /><line x1="193.0" y1="298.0" x2="195.0" y2="296.0" stroke="#f39c12" stroke-width="1.2" stroke-linecap="round" />
<circle cx="214.8" cy="303.8" r="6.9" fill="#f1c40f" /><line x1="222.8" y1="303.8" x2="225.7" y2="303.8" stroke="#f39c12" stroke-width="1.2" stroke-linecap="round" /><line x1="220.5" y1="309.5" x2="222.5" y2="311.5" stroke="#f39c12" stroke-width="1.2" stroke-linecap="round" /><line x1="214.8" y1="311.8" x2="214.8" y2="314.7" stroke="#f39c12" stroke-width="1.2" stroke-linecap="round" /><line x1="209.0" y1="309.5" x2="207.0" y2="311.5" stroke="#f39c12" stroke-width="1.2" stroke-linecap="round" /><line x1="206.7" y1="303.8" x2="203.8" y2="303.8" stroke="#f39c12" stroke-width="1.2" stroke-linecap="round" /><line x1="209.0" y1="298.0" x2="207.0" y2="296.0" stroke="#f39c12" stroke-width="1.2" stroke-linecap="round" /><line x1="214.7" y1="295.7" x2="214.7" y2="292.8" stroke="#f39c12" stroke-width="1.2" stroke-linecap="round" /><line x1="220.5" y1="298.0" x2="222.5" y2="296.0" stroke="#f39c12" stroke-width="1.2" stroke-linecap="round" />
<circle cx="242.2" cy="303.8" r="6.9" fill="#f1c40f" /><line x1="250.3" y1="303.8" x2="253.2" y2="303.8" stroke="#f39c12" stroke-width="1.2" stroke-linecap="round" /><line x1="248.0" y1="309.5" x2="250.0" y2="311.5" stroke="#f39c12" stroke-width="1.2" stroke-linecap="round" /><line x1="242.3" y1="311.8" x2="242.3" y2="314.7" stroke="#f39c12" stroke-width="1.2" stroke-linecap="round" /><line x1="236.5" y1="309.5" x2="234.5" y2="311.5" stroke="#f39c12" stroke-width="1.2" stroke-linecap="round" /><line x1="234.2" y1="303.8" x2="231.3" y2="303.8" stroke="#f39c12" stroke-width="1.2" stroke-linecap="round" /><line x1="236.5" y1="298.0" x2="234.5" y2="296.0" stroke="#f39c12" stroke-width="1.2" stroke-linecap="round" /><line x1="242.2" y1="295.7" x2="242.2" y2="292.8" stroke="#f39c12" stroke-width="1.2" stroke-linecap="round" /><line x1="248.0" y1="298.0" x2="250.0" y2="296.0" stroke="#f39c12" stroke-width="1.2" stroke-linecap="round" />
<circle cx="269.8" cy="303.8" r="6.9" fill="#f1c40f" /><line x1="277.8" y1="303.8" x2="280.7" y2="303.8" stroke="#f39c12" stroke-width="1.2" stroke-linecap="round" /><line x1="275.5" y1="309.5" x2="277.5" y2="311.5" stroke="#f39c12" stroke-width="1.2" stroke-linecap="round" /><line x1="269.8" y1="311.8" x2="269.8" y2="314.7" stroke="#f39c12" stroke-width="1.2" stroke-linecap="round" /><line x1="264.0" y1="309.5" x2="262.0" y2="311.5" stroke="#f39c12" stroke-width="1.2" stroke-linecap="round" /><line x1="261.7" y1="303.8" x2="258.8" y2="303.8" stroke="#f39c12" stroke-width="1.2" stroke-linecap="round" /><line x1="264.0" y1="298.0" x2="262.0" y2="296.0" stroke="#f39c12" stroke-width="1.2" stroke-linecap="round" /><line x1="269.7" y1="295.7" x2="269.7" y2="292.8" stroke="#f39c12" stroke-width="1.2" stroke-linecap="round" /><line x1="275.5" y1="298.0" x2="277.5" y2="296.0" stroke="#f39c12" stroke-width="1.2" stroke-linecap="round" />
<circle cx="297.2" cy="303.8" r="6.9" fill="#f1c40f" /><line x1="305.3" y1="303.8" x2="308.2" y2="303.8" stroke="#f39c12" stroke-width="1.2" stroke-linecap="round" /><line x1="303.0" y1="309.5" x2="305.0" y2="311.5" stroke="#f39c12" stroke-width="1.2" stroke-linecap="round" /><line x1="297.3" y1="311.8" x2="297.3" y2="314.7" stroke="#f39c12" stroke-width="1.2" stroke-linecap="round" /><line x1="291.5" y1="309.5" x2="289.5" y2="311.5" stroke="#f39c12" stroke-width="1.2" stroke-linecap="round" /><line x1="289.2" y1="303.8" x2="286.3" y2="303.8" stroke="#f39c12" stroke-width="1.2" stroke-linecap="round" /><line x1="291.5" y1="298.0" x2="289.5" y2="296.0" stroke="#f39c12" stroke-width="1.2" stroke-linecap="round" /><line x1="297.2" y1="295.7" x2="297.2" y2="292.8" stroke="#f39c12" stroke-width="1.2" stroke-linecap="round" /><line x1="303.0" y1="298.0" x2="305.0" y2="296.0" stroke="#f39c12" stroke-width="1.2" stroke-linecap="round" />
<circle cx="324.8" cy="303.8" r="6.9" fill="#f1c40f" /><line x1="332.8" y1="303.8" x2="335.7" y2="303.8" stroke="#f39c12" stroke-width="1.2" stroke-linecap="round" /><line x1="330.5" y1="309.5" x2="332.5" y2="311.5" stroke="#f39c12" stroke-width="1.2" stroke-linecap="round" /><line x1="324.8" y1="311.8" x2="324.8" y2="314.7" stroke="#f39c12" stroke-width="1.2" stroke-linecap="round" /><line x1="319.0" y1="309.5" x2="317.0" y2="311.5" stroke="#f39c12" stroke-width="1.2" stroke-linecap="round" /><line x1="316.7" y1="303.8" x2="313.8" y2="303.8" stroke="#f39c12" stroke-width="1.2" stroke-linecap="round" /><line x1="319.0" y1="298.0" x2="317.0" y2="296.0" stroke="#f39c12" stroke-width="1.2" stroke-linecap="round" /><line x1="324.7" y1="295.7" x2="324.7" y2="292.8" stroke="#f39c12" stroke-width="1.2" stroke-linecap="round" /><line x1="330.5" y1="298.0" x2="332.5" y2="296.0" stroke="#f39c12" stroke-width="1.2" stroke-linecap="round" />
<circle cx="352.2" cy="303.8" r="6.9" fill="#f1c40f" /><line x1="360.3" y1="303.8" x2="363.2" y2="303.8" stroke="#f39c12" stroke-width="1.2" stroke-linecap="round" /><line x1="358.0" y1="309.5" x2="360.0" y2="311.5" stroke="#f39c12" stroke-width="1.2" stroke-linecap="round" /><line x1="352.3" y1="311.8" x2="352.3" y2="314.7" stroke="#f39c12" stroke-width="1.2" stroke-linecap="round" /><line x1="346.5" y1="309.5" x2="344.5" y2="311.5" stroke="#f39c12" stroke-width="1.2" stroke-linecap="round" /><line x1="344.2" y1="303.8" x2="341.3" y2="303.8" stroke="#f39c12" stroke-width="1.2" stroke-linecap="round" /><line x1="346.5" y1="298.0" x2="344.5" y2="296.0" stroke="#f39c12" stroke-width="1.2" stroke-linecap="round" /><line x1="352.2" y1="295.7" x2="352.2" y2="292.8" stroke="#f39c12" stroke-width="1.2" stroke-linecap="round" /><line x1="358.0" y1="298.0" x2="360.0" y2="296.0" stroke="#f39c12" stroke-width="1.2" stroke-linecap="round" />
<circle cx="379.8" cy="303.8" r="6.9" fill="#f1c40f" /><line x1="387.8" y1="303.8" x2="390.7" y2="303.8" stroke="#f39c12" stroke-width="1.2" stroke-linecap="round" /><line x1="385.5" y1="309.5" x2="387.5" y2="311.5" stroke="#f39c12" stroke-width="1.2" stroke-linecap="round" /><line x1="379.8" y1="311.8" x2="379.8" y2="314.7" stroke="#f39c12" stroke-width="1.2" stroke-linecap="round" /><line x1="374.0" y1="309.5" x2="372.0" y2="311.5" stroke="#f39c12" stroke-width="1.2" stroke-linecap="round" /><line x1="371.7" y1="303.8" x2="368.8" y2="303.8" stroke="#f39c12" stroke-width="1.2" stroke-linecap="round" /><line x1="374.0" y1="298.0" x2="372.0" y2="296.0" stroke="#f39c12" stroke-width="1.2" stroke-linecap="round" /><line x1="379.7" y1="295.7" x2="379.7" y2="292.8" stroke="#f39c12" stroke-width="1.2" stroke-linecap="round" /><line x1="385.5" y1="298.0" x2="387.5" y2="296.0" stroke="#f39c12" stroke-width="1.2" stroke-linecap="round" />
<circle cx="132.2" cy="331.2" r="6.9" fill="#f1c40f" /><line x1="140.3" y1="331.2" x2="143.2" y2="331.2" stroke="#f39c12" stroke-width="1.2" stroke-linecap="round" /><line x1="138.0" y1="337.0" x2="140.0" y2="339.0" stroke="#f39c12" stroke-width="1.2" stroke-linecap="round" /><line x1="132.3" y1="339.3" x2="132.3" y2="342.2" stroke="#f39c12" stroke-width="1.2" stroke-linecap="round" /><line x1="126.5" y1="337.0" x2="124.5" y2="339.0" stroke="#f39c12" stroke-width="1.2" stroke-linecap="round" /><line x1="124.2" y1="331.3" x2="121.3" y2="331.3" stroke="#f39c12" stroke-width="1.2" stroke-linecap="round" /><line x1="126.5" y1="325.5" x2="124.5" y2="323.5" stroke="#f39c12" stroke-width="1.2" stroke-linecap="round" /><line x1="132.2" y1="323.2" x2="132.2" y2="320.3" stroke="#f39c12" stroke-width="1.2" stroke-linecap="round" /><line x1="138.0" y1="325.5" x2="140.0" y2="323.5" stroke="#f39c12" stroke-width="1.2" stroke-linecap="round" />
<circle cx="159.8" cy="331.2" r="6.9" fill="#f1c40f" /><line x1="167.8" y1="331.2" x2="170.7" y2="331.2" stroke="#f39c12" stroke-width="1.2" stroke-linecap="round" /><line x1="165.5" y1="337.0" x2="167.5" y2="339.0" stroke="#f39c12" stroke-width="1.2" stroke-linecap="round" /><line x1="159.8" y1="339.3" x2="159.8" y2="342.2" stroke="#f39c12" stroke-width="1.2" stroke-linecap="round" /><line x1="154.0" y1="337.0" x2="152.0" y2="339.0" stroke="#f39c12" stroke-width="1.2" stroke-linecap="round" /><line x1="151.7" y1="331.3" x2="148.8" y2="331.3" stroke="#f39c12" stroke-width="1.2" stroke-linecap="round" /><line x1="154.0" y1="325.5" x2="152.0" y2="323.5" stroke="#f39c12" stroke-width="1.2" stroke-linecap="round" /><line x1="159.7" y1="323.2" x2="159.7" y2="320.3" stroke="#f39c12" stroke-width="1.2" stroke-linecap="round" /><line x1="165.5" y1="325.5" x2="167.5" y2="323.5" stroke="#f39c12" stroke-width="1.2" stroke-linecap="round" />
<circle cx="187.2" cy="331.2" r="6.9" fill="#f1c40f" /><line x1="195.3" y1="331.2" x2="198.2" y2="331.2" stroke="#f39c12" stroke-width="1.2" stroke-linecap="round" /><line x1="193.0" y1="337.0" x2="195.0" y2="339.0" stroke="#f39c12" stroke-width="1.2" stroke-linecap="round" /><line x1="187.3" y1="339.3" x2="187.3" y2="342.2" stroke="#f39c12" stroke-width="1.2" stroke-linecap="round" /><line x1="181.5" y1="337.0" x2="179.5" y2="339.0" stroke="#f39c12" stroke-width="1.2" stroke-linecap="round" /><line x1="179.2" y1="331.3" x2="176.3" y2="331.3" stroke="#f39c12" stroke-width="1.2" stroke-linecap="round" /><line x1="181.5" y1="325.5" x2="179.5" y2="323.5" stroke="#f39c12" stroke-width="1.2" stroke-linecap="round" /><line x1="187.2" y1="323.2" x2="187.2" y2="320.3" stroke="#f39c12" stroke-width="1.2" stroke-linecap="round" /><line x1="193.0" y1="325.5" x2="195.0" y2="323.5" stroke="#f39c12" stroke-width="1.2" stroke-linecap="round" />
<circle cx="214.8" cy="331.2" r="6.9" fill="#f1c40f" /><line x1="222.8" y1="331.2" x2="225.7" y2="331.2" stroke="#f39c12" stroke-width="1.2" stroke-linecap="round" /><line x1="220.5" y1="337.0" x2="222.5" y2="339.0" stroke="#f39c12" stroke-width="1.2" stroke-linecap="round" /><line x1="214.8" y1="339.3" x2="214.8" y2="342.2" stroke="#f39c12" stroke-width="1.2" stroke-linecap="round" /><line x1="209.0" y1="337.0" x2="207.0" y2="339.0" stroke="#f39c12" stroke-width="1.2" stroke-linecap="round" /><line x1="206.7" y1="331.3" x2="203.8" y2="331.3" stroke="#f39c12" stroke-width="1.2" stroke-linecap="round" /><line x1="209.0" y1="325.5" x2="207.0" y2="323.5" stroke="#f39c12" stroke-width="1.2" stroke-linecap="round" /><line x1="214.7" y1="323.2" x2="214.7" y2="320.3" stroke="#f39c12" stroke-width="1.2" stroke-linecap="round" /><line x1="220.5" y1="325.5" x2="222.5" y2="323.5" stroke="#f39c12" stroke-width="1.2" stroke-linecap="round" />
<circle cx="242.2" cy="331.2" r="6.9" fill="#f1c40f" /><line x1="250.3" y1="331.2" x2="253.2" y2="331.2" stroke="#f39c12" stroke-width="1.2" stroke-linecap="round" /><line x1="248.0" y1="337.0" x2="250.0" y2="339.0" stroke="#f39c12" stroke-width="1.2" stroke-linecap="round" /><line x1="242.3" y1="339.3" x2="242.3" y2="342.2" stroke="#f39c12" stroke-width="1.2" stroke-linecap="round" /><line x1="236.5" y1="337.0" x2="234.5" y2="339.0" stroke="#f39c12" stroke-width="1.2" stroke-linecap="round" /><line x1="234.2" y1="331.3" x2="231.3" y2="331.3" stroke="#f39c12" stroke-width="1.2" stroke-linecap="round" /><line x1="236.5" y1="325.5" x2="234.5" y2="323.5" stroke="#f39c12" stroke-width="1.2" stroke-linecap="round" /><line x1="242.2" y1="323.2" x2="242.2" y2="320.3" stroke="#f39c12" stroke-width="1.2" stroke-linecap="round" /><line x1="248.0" y1="325.5" x2="250.0" y2="323.5" stroke="#f39c12" stroke-width="1.2" stroke-linecap="round" />
<circle cx="269.8" cy="331.2" r="6.9" fill="#f1c40f" /><line x1="277.8" y1="331.2" x2="280.7" y2="331.2" stroke="#f39c12" stroke-width="1.2" stroke-linecap="round" /><line x1="275.5" y1="337.0" x2="277.5" y2="339.0" stroke="#f39c12" stroke-width="1.2" stroke-linecap="round" /><line x1="269.8" y1="339.3" x2="269.8" y2="342.2" stroke="#f39c12" stroke-width="1.2" stroke-linecap="round" /><line x1="264.0" y1="337.0" x2="262.0" y2="339.0" stroke="#f39c12" stroke-width="1.2" stroke-linecap="round" /><line x1="261.7" y1="331.3" x2="258.8" y2="331.3" stroke="#f39c12" stroke-width="1.2" stroke-linecap="round" /><line x1="264.0" y1="325.5" x2="262.0" y2="323.5" stroke="#f39c12" stroke-width="1.2" stroke-linecap="round" /><line x1="269.7" y1="323.2" x2="269.7" y2="320.3" stroke="#f39c12" stroke-width="1.2" stroke-linecap="round" /><line x1="275.5" y1="325.5" x2="277.5" y2="323.5" stroke="#f39c12" stroke-width="1.2" stroke-linecap="round" />
<circle cx="297.2" cy="331.2" r="6.9" fill="#f1c40f" /><line x1="305.3" y1="331.2" x2="308.2" y2="331.2" stroke="#f39c12" stroke-width="1.2" stroke-linecap="round" /><line x1="303.0" y1="337.0" x2="305.0" y2="339.0" stroke="#f39c12" stroke-width="1.2" stroke-linecap="round" /><line x1="297.3" y1="339.3" x2="297.3" y2="342.2" stroke="#f39c12" stroke-width="1.2" stroke-linecap="round" /><line x1="291.5" y1="337.0" x2="289.5" y2="339.0" stroke="#f39c12" stroke-width="1.2" stroke-linecap="round" /><line x1="289.2" y1="331.3" x2="286.3" y2="331.3" stroke="#f39c12" stroke-width="1.2" stroke-linecap="round" /><line x1="291.5" y1="325.5" x2="289.5" y2="323.5" stroke="#f39c12" stroke-width="1.2" stroke-linecap="round" /><line x1="297.2" y1="323.2" x2="297.2" y2="320.3" stroke="#f39c12" stroke-width="1.2" stroke-linecap="round" /><line x1="303.0" y1="325.5" x2="305.0" y2="323.5" stroke="#f39c12" stroke-width="1.2" stroke-linecap="round" />
<circle cx="324.8" cy="331.2" r="6.9" fill="#f1c40f" /><line x1="332.8" y1="331.2" x2="335.7" y2="331.2" stroke="#f39c12" stroke-width="1.2" stroke-linecap="round" /><line x1="330.5" y1="337.0" x2="332.5" y2="339.0" stroke="#f39c12" stroke-width="1.2" stroke-linecap="round" /><line x1="324.8" y1="339.3" x2="324.8" y2="342.2" stroke="#f39c12" stroke-width="1.2" stroke-linecap="round" /><line x1="319.0" y1="337.0" x2="317.0" y2="339.0" stroke="#f39c12" stroke-width="1.2" stroke-linecap="round" /><line x1="316.7" y1="331.3" x2="313.8" y2="331.3" stroke="#f39c12" stroke-width="1.2" stroke-linecap="round" /><line x1="319.0" y1="325.5" x2="317.0" y2="323.5" stroke="#f39c12" stroke-width="1.2" stroke-linecap="round" /><line x1="324.7" y1="323.2" x2="324.7" y2="320.3" stroke="#f39c12" stroke-width="1.2" stroke-linecap="round" /><line x1="330.5" y1="325.5" x2="332.5" y2="323.5" stroke="#f39c12" stroke-width="1.2" stroke-linecap="round" />
<circle cx="352.2" cy="331.2" r="6.9" fill="#f1c40f" /><line x1="360.3" y1="331.2" x2="363.2" y2="331.2" stroke="#f39c12" stroke-width="1.2" stroke-linecap="round" /><line x1="358.0" y1="337.0" x2="360.0" y2="339.0" stroke="#f39c12" stroke-width="1.2" stroke-linecap="round" /><line x1="352.3" y1="339.3" x2="352.3" y2="342.2" stroke="#f39c12" stroke-width="1.2" stroke-linecap="round" /><line x1="346.5" y1="337.0" x2="344.5" y2="339.0" stroke="#f39c12" stroke-width="1.2" stroke-linecap="round" /><line x1="344.2" y1="331.3" x2="341.3" y2="331.3" stroke="#f39c12" stroke-width="1.2" stroke-linecap="round" /><line x1="346.5" y1="325.5" x2="344.5" y2="323.5" stroke="#f39c12" stroke-width="1.2" stroke-linecap="round" /><line x1="352.2" y1="323.2" x2="352.2" y2="320.3" stroke="#f39c12" stroke-width="1.2" stroke-linecap="round" /><line x1="358.0" y1="325.5" x2="360.0" y2="323.5" stroke="#f39c12" stroke-width="1.2" stroke-linecap="round" />
<circle cx="379.8" cy="331.2" r="6.9" fill="#f1c40f" /><line x1="387.8" y1="331.2" x2="390.7" y2="331.2" stroke="#f39c12" stroke-width="1.2" stroke-linecap="round" /><line x1="385.5" y1="337.0" x2="387.5" y2="339.0" stroke="#f39c12" stroke-width="1.2" stroke-linecap="round" /><line x1="379.8" y1="339.3" x2="379.8" y2="342.2" stroke="#f39c12" stroke-width="1.2" stroke-linecap="round" /><line x1="374.0" y1="337.0" x2="372.0" y2="339.0" stroke="#f39c12" stroke-width="1.2" stroke-linecap="round" /><line x1="371.7" y1="331.3" x2="368.8" y2="331.3" stroke="#f39c12" stroke-width="1.2" stroke-linecap="round" /><line x1="374.0" y1="325.5" x2="372.0" y2="323.5" stroke="#f39c12" stroke-width="1.2" stroke-linecap="round" /><line x1="379.7" y1="323.2" x2="379.7" y2="320.3" stroke="#f39c12" stroke-width="1.2" stroke-linecap="round" /><line x1="385.5" y1="325.5" x2="387.5" y2="323.5" stroke="#f39c12" stroke-width="1.2" stroke-linecap="round" />
<circle cx="132.2" cy="358.8" r="6.9" fill="#f1c40f" /><line x1="140.3" y1="358.8" x2="143.2" y2="358.8" stroke="#f39c12" stroke-width="1.2" stroke-linecap="round" /><line x1="138.0" y1="364.5" x2="140.0" y2="366.5" stroke="#f39c12" stroke-width="1.2" stroke-linecap="round" /><line x1="132.3" y1="366.8" x2="132.3" y2="369.7" stroke="#f39c12" stroke-width="1.2" stroke-linecap="round" /><line x1="126.5" y1="364.5" x2="124.5" y2="366.5" stroke="#f39c12" stroke-width="1.2" stroke-linecap="round" /><line x1="124.2" y1="358.8" x2="121.3" y2="358.8" stroke="#f39c12" stroke-width="1.2" stroke-linecap="round" /><line x1="126.5" y1="353.0" x2="124.5" y2="351.0" stroke="#f39c12" stroke-width="1.2" stroke-linecap="round" /><line x1="132.2" y1="350.7" x2="132.2" y2="347.8" stroke="#f39c12" stroke-width="1.2" stroke-linecap="round" /><line x1="138.0" y1="353.0" x2="140.0" y2="351.0" stroke="#f39c12" stroke-width="1.2" stroke-linecap="round" />
<circle cx="159.8" cy="358.8" r="6.9" fill="#f1c40f" /><line x1="167.8" y1="358.8" x2="170.7" y2="358.8" stroke="#f39c12" stroke-width="1.2" stroke-linecap="round" /><line x1="165.5" y1="364.5" x2="167.5" y2="366.5" stroke="#f39c12" stroke-width="1.2" stroke-linecap="round" /><line x1="159.8" y1="366.8" x2="159.8" y2="369.7" stroke="#f39c12" stroke-width="1.2" stroke-linecap="round" /><line x1="154.0" y1="364.5" x2="152.0" y2="366.5" stroke="#f39c12" stroke-width="1.2" stroke-linecap="round" /><line x1="151.7" y1="358.8" x2="148.8" y2="358.8" stroke="#f39c12" stroke-width="1.2" stroke-linecap="round" /><line x1="154.0" y1="353.0" x2="152.0" y2="351.0" stroke="#f39c12" stroke-width="1.2" stroke-linecap="round" /><line x1="159.7" y1="350.7" x2="159.7" y2="347.8" stroke="#f39c12" stroke-width="1.2" stroke-linecap="round" /><line x1="165.5" y1="353.0" x2="167.5" y2="351.0" stroke="#f39c12" stroke-width="1.2" stroke-linecap="round" />
<circle cx="187.2" cy="358.8" r="6.9" fill="#f1c40f" /><line x1="195.3" y1="358.8" x2="198.2" y2="358.8" stroke="#f39c12" stroke-width="1.2" stroke-linecap="round" /><line x1="193.0" y1="364.5" x2="195.0" y2="366.5" stroke="#f39c12" stroke-width="1.2" stroke-linecap="round" /><line x1="187.3" y1="366.8" x2="187.3" y2="369.7" stroke="#f39c12" stroke-width="1.2" stroke-linecap="round" /><line x1="181.5" y1="364.5" x2="179.5" y2="366.5" stroke="#f39c12" stroke-width="1.2" stroke-linecap="round" /><line x1="179.2" y1="358.8" x2="176.3" y2="358.8" stroke="#f39c12" stroke-width="1.2" stroke-linecap="round" /><line x1="181.5" y1="353.0" x2="179.5" y2="351.0" stroke="#f39c12" stroke-width="1.2" stroke-linecap="round" /><line x1="187.2" y1="350.7" x2="187.2" y2="347.8" stroke="#f39c12" stroke-width="1.2" stroke-linecap="round" /><line x1="193.0" y1="353.0" x2="195.0" y2="351.0" stroke="#f39c12" stroke-width="1.2" stroke-linecap="round" />
<circle cx="214.8" cy="358.8" r="6.9" fill="#f1c40f" /><line x1="222.8" y1="358.8" x2="225.7" y2="358.8" stroke="#f39c12" stroke-width="1.2" stroke-linecap="round" /><line x1="220.5" y1="364.5" x2="222.5" y2="366.5" stroke="#f39c12" stroke-width="1.2" stroke-linecap="round" /><line x1="214.8" y1="366.8" x2="214.8" y2="369.7" stroke="#f39c12" stroke-width="1.2" stroke-linecap="round" /><line x1="209.0" y1="364.5" x2="207.0" y2="366.5" stroke="#f39c12" stroke-width="1.2" stroke-linecap="round" /><line x1="206.7" y1="358.8" x2="203.8" y2="358.8" stroke="#f39c12" stroke-width="1.2" stroke-linecap="round" /><line x1="209.0" y1="353.0" x2="207.0" y2="351.0" stroke="#f39c12" stroke-width="1.2" stroke-linecap="round" /><line x1="214.7" y1="350.7" x2="214.7" y2="347.8" stroke="#f39c12" stroke-width="1.2" stroke-linecap="round" /><line x1="220.5" y1="353.0" x2="222.5" y2="351.0" stroke="#f39c12" stroke-width="1.2" stroke-linecap="round" />
<circle cx="242.2" cy="358.8" r="6.9" fill="#f1c40f" /><line x1="250.3" y1="358.8" x2="253.2" y2="358.8" stroke="#f39c12" stroke-width="1.2" stroke-linecap="round" /><line x1="248.0" y1="364.5" x2="250.0" y2="366.5" stroke="#f39c12" stroke-width="1.2" stroke-linecap="round" /><line x1="242.3" y1="366.8" x2="242.3" y2="369.7" stroke="#f39c12" stroke-width="1.2" stroke-linecap="round" /><line x1="236.5" y1="364.5" x2="234.5" y2="366.5" stroke="#f39c12" stroke-width="1.2" stroke-linecap="round" /><line x1="234.2" y1="358.8" x2="231.3" y2="358.8" stroke="#f39c12" stroke-width="1.2" stroke-linecap="round" /><line x1="236.5" y1="353.0" x2="234.5" y2="351.0" stroke="#f39c12" stroke-width="1.2" stroke-linecap="round" /><line x1="242.2" y1="350.7" x2="242.2" y2="347.8" stroke="#f39c12" stroke-width="1.2" stroke-linecap="round" /><line x1="248.0" y1="353.0" x2="250.0" y2="351.0" stroke="#f39c12" stroke-width="1.2" stroke-linecap="round" />
<circle cx="269.8" cy="358.8" r="6.9" fill="#f1c40f" /><line x1="277.8" y1="358.8" x2="280.7" y2="358.8" stroke="#f39c12" stroke-width="1.2" stroke-linecap="round" /><line x1="275.5" y1="364.5" x2="277.5" y2="366.5" stroke="#f39c12" stroke-width="1.2" stroke-linecap="round" /><line x1="269.8" y1="366.8" x2="269.8" y2="369.7" stroke="#f39c12" stroke-width="1.2" stroke-linecap="round" /><line x1="264.0" y1="364.5" x2="262.0" y2="366.5" stroke="#f39c12" stroke-width="1.2" stroke-linecap="round" /><line x1="261.7" y1="358.8" x2="258.8" y2="358.8" stroke="#f39c12" stroke-width="1.2" stroke-linecap="round" /><line x1="264.0" y1="353.0" x2="262.0" y2="351.0" stroke="#f39c12" stroke-width="1.2" stroke-linecap="round" /><line x1="269.7" y1="350.7" x2="269.7" y2="347.8" stroke="#f39c12" stroke-width="1.2" stroke-linecap="round" /><line x1="275.5" y1="353.0" x2="277.5" y2="351.0" stroke="#f39c12" stroke-width="1.2" stroke-linecap="round" />
<circle cx="297.2" cy="358.8" r="6.9" fill="#f1c40f" /><line x1="305.3" y1="358.8" x2="308.2" y2="358.8" stroke="#f39c12" stroke-width="1.2" stroke-linecap="round" /><line x1="303.0" y1="364.5" x2="305.0" y2="366.5" stroke="#f39c12" stroke-width="1.2" stroke-linecap="round" /><line x1="297.3" y1="366.8" x2="297.3" y2="369.7" stroke="#f39c12" stroke-width="1.2" stroke-linecap="round" /><line x1="291.5" y1="364.5" x2="289.5" y2="366.5" stroke="#f39c12" stroke-width="1.2" stroke-linecap="round" /><line x1="289.2" y1="358.8" x2="286.3" y2="358.8" stroke="#f39c12" stroke-width="1.2" stroke-linecap="round" /><line x1="291.5" y1="353.0" x2="289.5" y2="351.0" stroke="#f39c12" stroke-width="1.2" stroke-linecap="round" /><line x1="297.2" y1="350.7" x2="297.2" y2="347.8" stroke="#f39c12" stroke-width="1.2" stroke-linecap="round" /><line x1="303.0" y1="353.0" x2="305.0" y2="351.0" stroke="#f39c12" stroke-width="1.2" stroke-linecap="round" />
<circle cx="324.8" cy="358.8" r="6.9" fill="#f1c40f" /><line x1="332.8" y1="358.8" x2="335.7" y2="358.8" stroke="#f39c12" stroke-width="1.2" stroke-linecap="round" /><line x1="330.5" y1="364.5" x2="332.5" y2="366.5" stroke="#f39c12" stroke-width="1.2" stroke-linecap="round" /><line x1="324.8" y1="366.8" x2="324.8" y2="369.7" stroke="#f39c12" stroke-width="1.2" stroke-linecap="round" /><line x1="319.0" y1="364.5" x2="317.0" y2="366.5" stroke="#f39c12" stroke-width="1.2" stroke-linecap="round" /><line x1="316.7" y1="358.8" x2="313.8" y2="358.8" stroke="#f39c12" stroke-width="1.2" stroke-linecap="round" /><line x1="319.0" y1="353.0" x2="317.0" y2="351.0" stroke="#f39c12" stroke-width="1.2" stroke-linecap="round" /><line x1="324.7" y1="350.7" x2="324.7" y2="347.8" stroke="#f39c12" stroke-width="1.2" stroke-linecap="round" /><line x1="330.5" y1="353.0" x2="332.5" y2="351.0" stroke="#f39c12" stroke-width="1.2" stroke-linecap="round" />
<circle cx="352.2" cy="358.8" r="6.9" fill="#f1c40f" /><line x1="360.3" y1="358.8" x2="363.2" y2="358.8" stroke="#f39c12" stroke-width="1.2" stroke-linecap="round" /><line x1="358.0" y1="364.5" x2="360.0" y2="366.5" stroke="#f39c12" stroke-width="1.2" stroke-linecap="round" /><line x1="352.3" y1="366.8" x2="352.3" y2="369.7" stroke="#f39c12" stroke-width="1.2" stroke-linecap="round" /><line x1="346.5" y1="364.5" x2="344.5" y2="366.5" stroke="#f39c12" stroke-width="1.2" stroke-linecap="round" /><line x1="344.2" y1="358.8" x2="341.3" y2="358.8" stroke="#f39c12" stroke-width="1.2" stroke-linecap="round" /><line x1="346.5" y1="353.0" x2="344.5" y2="351.0" stroke="#f39c12" stroke-width="1.2" stroke-linecap="round" /><line x1="352.2" y1="350.7" x2="352.2" y2="347.8" stroke="#f39c12" stroke-width="1.2" stroke-linecap="round" /><line x1="358.0" y1="353.0" x2="360.0" y2="351.0" stroke="#f39c12" stroke-width="1.2" stroke-linecap="round" />
<circle cx="379.8" cy="358.8" r="6.9" fill="#f1c40f" /><line x1="387.8" y1="358.8" x2="390.7" y2="358.8" stroke="#f39c12" stroke-width="1.2" stroke-linecap="round" /><line x1="385.5" y1="364.5" x2="387.5" y2="366.5" stroke="#f39c12" stroke-width="1.2" stroke-linecap="round" /><line x1="379.8" y1="366.8" x2="379.8" y2="369.7" stroke="#f39c12" stroke-width="1.2" stroke-linecap="round" /><line x1="374.0" y1="364.5" x2="372.0" y2="366.5" stroke="#f39c12" stroke-width="1.2" stroke-linecap="round" /><line x1="371.7" y1="358.8" x2="368.8" y2="358.8" stroke="#f39c12" stroke-width="1.2" stroke-linecap="round" /><line x1="374.0" y1="353.0" x2="372.0" y2="351.0" stroke="#f39c12" stroke-width="1.2" stroke-linecap="round" /><line x1="379.7" y1="350.7" x2="379.7" y2="347.8" stroke="#f39c12" stroke-width="1.2" stroke-linecap="round" /><line x1="385.5" y1="353.0" x2="387.5" y2="351.0" stroke="#f39c12" stroke-width="1.2" stroke-linecap="round" />
<circle cx="132.2" cy="386.2" r="6.9" fill="#f1c40f" /><line x1="140.3" y1="386.2" x2="143.2" y2="386.2" stroke="#f39c12" stroke-width="1.2" stroke-linecap="round" /><line x1="138.0" y1="392.0" x2="140.0" y2="394.0" stroke="#f39c12" stroke-width="1.2" stroke-linecap="round" /><line x1="132.3" y1="394.3" x2="132.3" y2="397.2" stroke="#f39c12" stroke-width="1.2" stroke-linecap="round" /><line x1="126.5" y1="392.0" x2="124.5" y2="394.0" stroke="#f39c12" stroke-width="1.2" stroke-linecap="round" /><line x1="124.2" y1="386.3" x2="121.3" y2="386.3" stroke="#f39c12" stroke-width="1.2" stroke-linecap="round" /><line x1="126.5" y1="380.5" x2="124.5" y2="378.5" stroke="#f39c12" stroke-width="1.2" stroke-linecap="round" /><line x1="132.2" y1="378.2" x2="132.2" y2="375.3" stroke="#f39c12" stroke-width="1.2" stroke-linecap="round" /><line x1="138.0" y1="380.5" x2="140.0" y2="378.5" stroke="#f39c12" stroke-width="1.2" stroke-linecap="round" />
<circle cx="159.8" cy="386.2" r="6.9" fill="#f1c40f" /><line x1="167.8" y1="386.2" x2="170.7" y2="386.2" stroke="#f39c12" stroke-width="1.2" stroke-linecap="round" /><line x1="165.5" y1="392.0" x2="167.5" y2="394.0" stroke="#f39c12" stroke-width="1.2" stroke-linecap="round" /><line x1="159.8" y1="394.3" x2="159.8" y2="397.2" stroke="#f39c12" stroke-width="1.2" stroke-linecap="round" /><line x1="154.0" y1="392.0" x2="152.0" y2="394.0" stroke="#f39c12" stroke-width="1.2" stroke-linecap="round" /><line x1="151.7" y1="386.3" x2="148.8" y2="386.3" stroke="#f39c12" stroke-width="1.2" stroke-linecap="round" /><line x1="154.0" y1="380.5" x2="152.0" y2="378.5" stroke="#f39c12" stroke-width="1.2" stroke-linecap="round" /><line x1="159.7" y1="378.2" x2="159.7" y2="375.3" stroke="#f39c12" stroke-width="1.2" stroke-linecap="round" /><line x1="165.5" y1="380.5" x2="167.5" y2="378.5" stroke="#f39c12" stroke-width="1.2" stroke-linecap="round" />
<circle cx="187.2" cy="386.2" r="6.9" fill="#f1c40f" /><line x1="195.3" y1="386.2" x2="198.2" y2="386.2" stroke="#f39c12" stroke-width="1.2" stroke-linecap="round" /><line x1="193.0" y1="392.0" x2="195.0" y2="394.0" stroke="#f39c12" stroke-width="1.2" stroke-linecap="round" /><line x1="187.3" y1="394.3" x2="187.3" y2="397.2" stroke="#f39c12" stroke-width="1.2" stroke-linecap="round" /><line x1="181.5" y1="392.0" x2="179.5" y2="394.0" stroke="#f39c12" stroke-width="1.2" stroke-linecap="round" /><line x1="179.2" y1="386.3" x2="176.3" y2="386.3" stroke="#f39c12" stroke-width="1.2" stroke-linecap="round" /><line x1="181.5" y1="380.5" x2="179.5" y2="378.5" stroke="#f39c12" stroke-width="1.2" stroke-linecap="round" /><line x1="187.2" y1="378.2" x2="187.2" y2="375.3" stroke="#f39c12" stroke-width="1.2" stroke-linecap="round" /><line x1="193.0" y1="380.5" x2="195.0" y2="378.5" stroke="#f39c12" stroke-width="1.2" stroke-linecap="round" />
<circle cx="214.8" cy="386.2" r="6.9" fill="#f1c40f" /><line x1="222.8" y1="386.2" x2="225.7" y2="386.2" stroke="#f39c12" stroke-width="1.2" stroke-linecap="round" /><line x1="220.5" y1="392.0" x2="222.5" y2="394.0" stroke="#f39c12" stroke-width="1.2" stroke-linecap="round" /><line x1="214.8" y1="394.3" x2="214.8" y2="397.2" stroke="#f39c12" stroke-width="1.2" stroke-linecap="round" /><line x1="209.0" y1="392.0" x2="207.0" y2="394.0" stroke="#f39c12" stroke-width="1.2" stroke-linecap="round" /><line x1="206.7" y1="386.3" x2="203.8" y2="386.3" stroke="#f39c12" stroke-width="1.2" stroke-linecap="round" /><line x1="209.0" y1="380.5" x2="207.0" y2="378.5" stroke="#f39c12" stroke-width="1.2" stroke-linecap="round" /><line x1="214.7" y1="378.2" x2="214.7" y2="375.3" stroke="#f39c12" stroke-width="1.2" stroke-linecap="round" /><line x1="220.5" y1="380.5" x2="222.5" y2="378.5" stroke="#f39c12" stroke-width="1.2" stroke-linecap="round" />
<circle cx="242.2" cy="386.2" r="6.9" fill="#f1c40f" /><line x1="250.3" y1="386.2" x2="253.2" y2="386.2" stroke="#f39c12" stroke-width="1.2" stroke-linecap="round" /><line x1="248.0" y1="392.0" x2="250.0" y2="394.0" stroke="#f39c12" stroke-width="1.2" stroke-linecap="round" /><line x1="242.3" y1="394.3" x2="242.3" y2="397.2" stroke="#f39c12" stroke-width="1.2" stroke-linecap="round" /><line x1="236.5" y1="392.0" x2="234.5" y2="394.0" stroke="#f39c12" stroke-width="1.2" stroke-linecap="round" /><line x1="234.2" y1="386.3" x2="231.3" y2="386.3" stroke="#f39c12" stroke-width="1.2" stroke-linecap="round" /><line x1="236.5" y1="380.5" x2="234.5" y2="378.5" stroke="#f39c12" stroke-width="1.2" stroke-linecap="round" /><line x1="242.2" y1="378.2" x2="242.2" y2="375.3" stroke="#f39c12" stroke-width="1.2" stroke-linecap="round" /><line x1="248.0" y1="380.5" x2="250.0" y2="378.5" stroke="#f39c12" stroke-width="1.2" stroke-linecap="round" />
<circle cx="269.8" cy="386.2" r="6.9" fill="#f1c40f" /><line x1="277.8" y1="386.2" x2="280.7" y2="386.2" stroke="#f39c12" stroke-width="1.2" stroke-linecap="round" /><line x1="275.5" y1="392.0" x2="277.5" y2="394.0" stroke="#f39c12" stroke-width="1.2" stroke-linecap="round" /><line x1="269.8" y1="394.3" x2="269.8" y2="397.2" stroke="#f39c12" stroke-width="1.2" stroke-linecap="round" /><line x1="264.0" y1="392.0" x2="262.0" y2="394.0" stroke="#f39c12" stroke-width="1.2" stroke-linecap="round" /><line x1="261.7" y1="386.3" x2="258.8" y2="386.3" stroke="#f39c12" stroke-width="1.2" stroke-linecap="round" /><line x1="264.0" y1="380.5" x2="262.0" y2="378.5" stroke="#f39c12" stroke-width="1.2" stroke-linecap="round" /><line x1="269.7" y1="378.2" x2="269.7" y2="375.3" stroke="#f39c12" stroke-width="1.2" stroke-linecap="round" /><line x1="275.5" y1="380.5" x2="277.5" y2="378.5" stroke="#f39c12" stroke-width="1.2" stroke-linecap="round" />
<circle cx="297.2" cy="386.2" r="6.9" fill="#f1c40f" /><line x1="305.3" y1="386.2" x2="308.2" y2="386.2" stroke="#f39c12" stroke-width="1.2" stroke-linecap="round" /><line x1="303.0" y1="392.0" x2="305.0" y2="394.0" stroke="#f39c12" stroke-width="1.2" stroke-linecap="round" /><line x1="297.3" y1="394.3" x2="297.3" y2="397.2" stroke="#f39c12" stroke-width="1.2" stroke-linecap="round" /><line x1="291.5" y1="392.0" x2="289.5" y2="394.0" stroke="#f39c12" stroke-width="1.2" stroke-linecap="round" /><line x1="289.2" y1="386.3" x2="286.3" y2="386.3" stroke="#f39c12" stroke-width="1.2" stroke-linecap="round" /><line x1="291.5" y1="380.5" x2="289.5" y2="378.5" stroke="#f39c12" stroke-width="1.2" stroke-linecap="round" /><line x1="297.2" y1="378.2" x2="297.2" y2="375.3" stroke="#f39c12" stroke-width="1.2" stroke-linecap="round" /><line x1="303.0" y1="380.5" x2="305.0" y2="378.5" stroke="#f39c12" stroke-width="1.2" stroke-linecap="round" />
<circle cx="324.8" cy="386.2" r="6.9" fill="#f1c40f" /><line x1="332.8" y1="386.2" x2="335.7" y2="386.2" stroke="#f39c12" stroke-width="1.2" stroke-linecap="round" /><line x1="330.5" y1="392.0" x2="332.5" y2="394.0" stroke="#f39c12" stroke-width="1.2" stroke-linecap="round" /><line x1="324.8" y1="394.3" x2="324.8" y2="397.2" stroke="#f39c12" stroke-width="1.2" stroke-linecap="round" /><line x1="319.0" y1="392.0" x2="317.0" y2="394.0" stroke="#f39c12" stroke-width="1.2" stroke-linecap="round" /><line x1="316.7" y1="386.3" x2="313.8" y2="386.3" stroke="#f39c12" stroke-width="1.2" stroke-linecap="round" /><line x1="319.0" y1="380.5" x2="317.0" y2="378.5" stroke="#f39c12" stroke-width="1.2" stroke-linecap="round" /><line x1="324.7" y1="378.2" x2="324.7" y2="375.3" stroke="#f39c12" stroke-width="1.2" stroke-linecap="round" /><line x1="330.5" y1="380.5" x2="332.5" y2="378.5" stroke="#f39c12" stroke-width="1.2" stroke-linecap="round" />
<circle cx="352.2" cy="386.2" r="6.9" fill="#f1c40f" /><line x1="360.3" y1="386.2" x2="363.2" y2="386.2" stroke="#f39c12" stroke-width="1.2" stroke-linecap="round" /><line x1="358.0" y1="392.0" x2="360.0" y2="394.0" stroke="#f39c12" stroke-width="1.2" stroke-linecap="round" /><line x1="352.3" y1="394.3" x2="352.3" y2="397.2" stroke="#f39c12" stroke-width="1.2" stroke-linecap="round" /><line x1="346.5" y1="392.0" x2="344.5" y2="394.0" stroke="#f39c12" stroke-width="1.2" stroke-linecap="round" /><line x1="344.2" y1="386.3" x2="341.3" y2="386.3" stroke="#f39c12" stroke-width="1.2" stroke-linecap="round" /><line x1="346.5" y1="380.5" x2="344.5" y2="378.5" stroke="#f39c12" stroke-width="1.2" stroke-linecap="round" /><line x1="352.2" y1="378.2" x2="352.2" y2="375.3" stroke="#f39c12" stroke-width="1.2" stroke-linecap="round" /><line x1="358.0" y1="380.5" x2="360.0" y2="378.5" stroke="#f39c12" stroke-width="1.2" stroke-linecap="round" />
<circle cx="379.8" cy="386.2" r="6.9" fill="#f1c40f" /><line x1="387.8" y1="386.2" x2="390.7" y2="386.2" stroke="#f39c12" stroke-width="1.2" stroke-linecap="round" /><line x1="385.5" y1="392.0" x2="387.5" y2="394.0" stroke="#f39c12" stroke-width="1.2" stroke-linecap="round" /><line x1="379.8" y1="394.3" x2="379.8" y2="397.2" stroke="#f39c12" stroke-width="1.2" stroke-linecap="round" /><line x1="374.0" y1="392.0" x2="372.0" y2="394.0" stroke="#f39c12" stroke-width="1.2" stroke-linecap="round" /><line x1="371.7" y1="386.3" x2="368.8" y2="386.3" stroke="#f39c12" stroke-width="1.2" stroke-linecap="round" /><line x1="374.0" y1="380.5" x2="372.0" y2="378.5" stroke="#f39c12" stroke-width="1.2" stroke-linecap="round" /><line x1="379.7" y1="378.2" x2="379.7" y2="375.3" stroke="#f39c12" stroke-width="1.2" stroke-linecap="round" /><line x1="385.5" y1="380.5" x2="387.5" y2="378.5" stroke="#f39c12" stroke-width="1.2" stroke-linecap="round" />
  </g>

  <!-- Bottom Banner -->
  <g filter="url(#shadow-40)">
    <rect x="96" y="420" width="320" height="54" rx="27" fill="#FFF" stroke="#c6ead2" stroke-width="4" />
    <text x="256" y="455" 
          text-anchor="middle" 
          font-size="28" 
          font-weight="900" 
          font-family="Comic Sans MS, Arial Rounded MT Bold, sans-serif" 
          fill="#7C5730">40 - Forty</text>
  </g>
</svg>