<svg xmlns="http://www.w3.org/2000/svg" viewBox="0 0 512 512" width="100%" height="100%">
  <defs>
    <!-- Background Gradient -->
    <linearGradient id="bg-46" x1="0%" y1="0%" x2="0%" y2="100%">
      <stop offset="0%" stop-color="#f9fffd" />
      <stop offset="100%" stop-color="#effffa" />
    </linearGradient>

    <!-- Front Face Gradient -->
    <linearGradient id="front-46" x1="0%" y1="0%" x2="0%" y2="100%">
      <stop offset="0%" stop-color="#89ffdb" />
      <stop offset="100%" stop-color="#00f4ab" />
    </linearGradient>

    <!-- 3D Side/Extrusion Color -->
    <linearGradient id="side-46" x1="0%" y1="0%" x2="0%" y2="100%">
      <stop offset="0%" stop-color="#00c187" />
      <stop offset="100%" stop-color="#008e63" />
    </linearGradient>

    <!-- Leaf Sprout Gradient -->
    <linearGradient id="leaf-46" x1="0%" y1="0%" x2="100%" y2="100%">
      <stop offset="0%" stop-color="#7BED9F" />
      <stop offset="100%" stop-color="#2ED573" />
    </linearGradient>

    <!-- 3D Base Shadow -->
    <filter id="shadow-46">
      <feDropShadow dx="0" dy="10" stdDeviation="8" flood-color="#000000" flood-opacity="0.25" />
    </filter>
  </defs>

  <!-- Background -->
  <circle cx="256" cy="256" r="236" fill="url(#bg-46)" stroke="#c6eadf" stroke-width="6" />

  <!-- Sparkles -->
  <g fill="#FFD43B">
    <circle cx="100" cy="130" r="8" />
    <circle cx="400" cy="120" r="10" />
    <circle cx="430" cy="330" r="7" />
  </g>

  <!-- Number -->
  <g filter="url(#shadow-46)">
    <!-- Side -->
    <text x="256" y="215" 
          text-anchor="middle" 
          font-size="180" 
          font-weight="900" 
          font-family="Comic Sans MS, Arial Rounded MT Bold, sans-serif" 
          fill="url(#side-46)" 
          stroke="url(#side-46)" 
          stroke-width="18" 
          transform="translate(0, 12)">46</text>

    <!-- Front -->
    <text x="256" y="215" 
          text-anchor="middle" 
          font-size="180" 
          font-weight="900" 
          font-family="Comic Sans MS, Arial Rounded MT Bold, sans-serif" 
          fill="url(#front-46)" 
          stroke="url(#front-46)" 
          stroke-width="18">46</text>
  </g>

  <!-- Cute Sprout -->
  <g transform="translate(256 65)">
    <path d="M0 0 Q-4 -15 -8 -24" stroke="#8B5A2B" stroke-width="5" fill="none" />
    <path d="M-8 -24 C-28 -28 -30 -5 -10 0 Z" fill="url(#leaf-46)" />
    <path d="M-8 -24 C5 -35 22 -20 5 -5 Z" fill="url(#leaf-46)" />
  </g>

  <!-- Eyes -->
  <g>
    <circle cx="215" cy="180" r="18" fill="#222" />
    <circle cx="208" cy="172" r="6" fill="#FFF" />

    <circle cx="297" cy="180" r="18" fill="#222" />
    <circle cx="290" cy="172" r="6" fill="#FFF" />
  </g>

  <!-- Cheeks -->
  <ellipse cx="185" cy="210" rx="18" ry="12" fill="#FF6B81" opacity="0.45" />
  <ellipse cx="327" cy="210" rx="18" ry="12" fill="#FF6B81" opacity="0.45" />

  <!-- Smile -->
  <path d="M225 225 Q256 255 287 225" stroke="#7A1022" stroke-width="8" fill="none" stroke-linecap="round" />

  <!-- Counting Object -->
  <g>
    <polygon points="109.3,305.0 98.1,299.4 98.1,310.6" fill="#a29bfe" /><polygon points="109.3,305.0 120.5,299.4 120.5,310.6" fill="#a29bfe" /><circle cx="109.3" cy="305.0" r="7.8" fill="#fd79a8" stroke="#ffffff" stroke-width="1.0" />
<polygon points="136.0,305.0 124.8,299.4 124.8,310.6" fill="#a29bfe" /><polygon points="136.0,305.0 147.2,299.4 147.2,310.6" fill="#a29bfe" /><circle cx="136.0" cy="305.0" r="7.8" fill="#fd79a8" stroke="#ffffff" stroke-width="1.0" />
<polygon points="162.7,305.0 151.5,299.4 151.5,310.6" fill="#a29bfe" /><polygon points="162.7,305.0 173.9,299.4 173.9,310.6" fill="#a29bfe" /><circle cx="162.7" cy="305.0" r="7.8" fill="#fd79a8" stroke="#ffffff" stroke-width="1.0" />
<polygon points="189.3,305.0 178.1,299.4 178.1,310.6" fill="#a29bfe" /><polygon points="189.3,305.0 200.5,299.4 200.5,310.6" fill="#a29bfe" /><circle cx="189.3" cy="305.0" r="7.8" fill="#fd79a8" stroke="#ffffff" stroke-width="1.0" />
<polygon points="216.0,305.0 204.8,299.4 204.8,310.6" fill="#a29bfe" /><polygon points="216.0,305.0 227.2,299.4 227.2,310.6" fill="#a29bfe" /><circle cx="216.0" cy="305.0" r="7.8" fill="#fd79a8" stroke="#ffffff" stroke-width="1.0" />
<polygon points="242.7,305.0 231.5,299.4 231.5,310.6" fill="#a29bfe" /><polygon points="242.7,305.0 253.9,299.4 253.9,310.6" fill="#a29bfe" /><circle cx="242.7" cy="305.0" r="7.8" fill="#fd79a8" stroke="#ffffff" stroke-width="1.0" />
<polygon points="269.3,305.0 258.1,299.4 258.1,310.6" fill="#a29bfe" /><polygon points="269.3,305.0 280.5,299.4 280.5,310.6" fill="#a29bfe" /><circle cx="269.3" cy="305.0" r="7.8" fill="#fd79a8" stroke="#ffffff" stroke-width="1.0" />
<polygon points="296.0,305.0 284.8,299.4 284.8,310.6" fill="#a29bfe" /><polygon points="296.0,305.0 307.2,299.4 307.2,310.6" fill="#a29bfe" /><circle cx="296.0" cy="305.0" r="7.8" fill="#fd79a8" stroke="#ffffff" stroke-width="1.0" />
<polygon points="322.7,305.0 311.5,299.4 311.5,310.6" fill="#a29bfe" /><polygon points="322.7,305.0 333.9,299.4 333.9,310.6" fill="#a29bfe" /><circle cx="322.7" cy="305.0" r="7.8" fill="#fd79a8" stroke="#ffffff" stroke-width="1.0" />
<polygon points="349.3,305.0 338.1,299.4 338.1,310.6" fill="#a29bfe" /><polygon points="349.3,305.0 360.5,299.4 360.5,310.6" fill="#a29bfe" /><circle cx="349.3" cy="305.0" r="7.8" fill="#fd79a8" stroke="#ffffff" stroke-width="1.0" />
<polygon points="376.0,305.0 364.8,299.4 364.8,310.6" fill="#a29bfe" /><polygon points="376.0,305.0 387.2,299.4 387.2,310.6" fill="#a29bfe" /><circle cx="376.0" cy="305.0" r="7.8" fill="#fd79a8" stroke="#ffffff" stroke-width="1.0" />
<polygon points="402.7,305.0 391.5,299.4 391.5,310.6" fill="#a29bfe" /><polygon points="402.7,305.0 413.9,299.4 413.9,310.6" fill="#a29bfe" /><circle cx="402.7" cy="305.0" r="7.8" fill="#fd79a8" stroke="#ffffff" stroke-width="1.0" />
<polygon points="109.3,331.7 98.1,326.1 98.1,337.3" fill="#a29bfe" /><polygon points="109.3,331.7 120.5,326.1 120.5,337.3" fill="#a29bfe" /><circle cx="109.3" cy="331.7" r="7.8" fill="#fd79a8" stroke="#ffffff" stroke-width="1.0" />
<polygon points="136.0,331.7 124.8,326.1 124.8,337.3" fill="#a29bfe" /><polygon points="136.0,331.7 147.2,326.1 147.2,337.3" fill="#a29bfe" /><circle cx="136.0" cy="331.7" r="7.8" fill="#fd79a8" stroke="#ffffff" stroke-width="1.0" />
<polygon points="162.7,331.7 151.5,326.1 151.5,337.3" fill="#a29bfe" /><polygon points="162.7,331.7 173.9,326.1 173.9,337.3" fill="#a29bfe" /><circle cx="162.7" cy="331.7" r="7.8" fill="#fd79a8" stroke="#ffffff" stroke-width="1.0" />
<polygon points="189.3,331.7 178.1,326.1 178.1,337.3" fill="#a29bfe" /><polygon points="189.3,331.7 200.5,326.1 200.5,337.3" fill="#a29bfe" /><circle cx="189.3" cy="331.7" r="7.8" fill="#fd79a8" stroke="#ffffff" stroke-width="1.0" />
<polygon points="216.0,331.7 204.8,326.1 204.8,337.3" fill="#a29bfe" /><polygon points="216.0,331.7 227.2,326.1 227.2,337.3" fill="#a29bfe" /><circle cx="216.0" cy="331.7" r="7.8" fill="#fd79a8" stroke="#ffffff" stroke-width="1.0" />
<polygon points="242.7,331.7 231.5,326.1 231.5,337.3" fill="#a29bfe" /><polygon points="242.7,331.7 253.9,326.1 253.9,337.3" fill="#a29bfe" /><circle cx="242.7" cy="331.7" r="7.8" fill="#fd79a8" stroke="#ffffff" stroke-width="1.0" />
<polygon points="269.3,331.7 258.1,326.1 258.1,337.3" fill="#a29bfe" /><polygon points="269.3,331.7 280.5,326.1 280.5,337.3" fill="#a29bfe" /><circle cx="269.3" cy="331.7" r="7.8" fill="#fd79a8" stroke="#ffffff" stroke-width="1.0" />
<polygon points="296.0,331.7 284.8,326.1 284.8,337.3" fill="#a29bfe" /><polygon points="296.0,331.7 307.2,326.1 307.2,337.3" fill="#a29bfe" /><circle cx="296.0" cy="331.7" r="7.8" fill="#fd79a8" stroke="#ffffff" stroke-width="1.0" />
<polygon points="322.7,331.7 311.5,326.1 311.5,337.3" fill="#a29bfe" /><polygon points="322.7,331.7 333.9,326.1 333.9,337.3" fill="#a29bfe" /><circle cx="322.7" cy="331.7" r="7.8" fill="#fd79a8" stroke="#ffffff" stroke-width="1.0" />
<polygon points="349.3,331.7 338.1,326.1 338.1,337.3" fill="#a29bfe" /><polygon points="349.3,331.7 360.5,326.1 360.5,337.3" fill="#a29bfe" /><circle cx="349.3" cy="331.7" r="7.8" fill="#fd79a8" stroke="#ffffff" stroke-width="1.0" />
<polygon points="376.0,331.7 364.8,326.1 364.8,337.3" fill="#a29bfe" /><polygon points="376.0,331.7 387.2,326.1 387.2,337.3" fill="#a29bfe" /><circle cx="376.0" cy="331.7" r="7.8" fill="#fd79a8" stroke="#ffffff" stroke-width="1.0" />
<polygon points="402.7,331.7 391.5,326.1 391.5,337.3" fill="#a29bfe" /><polygon points="402.7,331.7 413.9,326.1 413.9,337.3" fill="#a29bfe" /><circle cx="402.7" cy="331.7" r="7.8" fill="#fd79a8" stroke="#ffffff" stroke-width="1.0" />
<polygon points="109.3,358.3 98.1,352.7 98.1,363.9" fill="#a29bfe" /><polygon points="109.3,358.3 120.5,352.7 120.5,363.9" fill="#a29bfe" /><circle cx="109.3" cy="358.3" r="7.8" fill="#fd79a8" stroke="#ffffff" stroke-width="1.0" />
<polygon points="136.0,358.3 124.8,352.7 124.8,363.9" fill="#a29bfe" /><polygon points="136.0,358.3 147.2,352.7 147.2,363.9" fill="#a29bfe" /><circle cx="136.0" cy="358.3" r="7.8" fill="#fd79a8" stroke="#ffffff" stroke-width="1.0" />
<polygon points="162.7,358.3 151.5,352.7 151.5,363.9" fill="#a29bfe" /><polygon points="162.7,358.3 173.9,352.7 173.9,363.9" fill="#a29bfe" /><circle cx="162.7" cy="358.3" r="7.8" fill="#fd79a8" stroke="#ffffff" stroke-width="1.0" />
<polygon points="189.3,358.3 178.1,352.7 178.1,363.9" fill="#a29bfe" /><polygon points="189.3,358.3 200.5,352.7 200.5,363.9" fill="#a29bfe" /><circle cx="189.3" cy="358.3" r="7.8" fill="#fd79a8" stroke="#ffffff" stroke-width="1.0" />
<polygon points="216.0,358.3 204.8,352.7 204.8,363.9" fill="#a29bfe" /><polygon points="216.0,358.3 227.2,352.7 227.2,363.9" fill="#a29bfe" /><circle cx="216.0" cy="358.3" r="7.8" fill="#fd79a8" stroke="#ffffff" stroke-width="1.0" />
<polygon points="242.7,358.3 231.5,352.7 231.5,363.9" fill="#a29bfe" /><polygon points="242.7,358.3 253.9,352.7 253.9,363.9" fill="#a29bfe" /><circle cx="242.7" cy="358.3" r="7.8" fill="#fd79a8" stroke="#ffffff" stroke-width="1.0" />
<polygon points="269.3,358.3 258.1,352.7 258.1,363.9" fill="#a29bfe" /><polygon points="269.3,358.3 280.5,352.7 280.5,363.9" fill="#a29bfe" /><circle cx="269.3" cy="358.3" r="7.8" fill="#fd79a8" stroke="#ffffff" stroke-width="1.0" />
<polygon points="296.0,358.3 284.8,352.7 284.8,363.9" fill="#a29bfe" /><polygon points="296.0,358.3 307.2,352.7 307.2,363.9" fill="#a29bfe" /><circle cx="296.0" cy="358.3" r="7.8" fill="#fd79a8" stroke="#ffffff" stroke-width="1.0" />
<polygon points="322.7,358.3 311.5,352.7 311.5,363.9" fill="#a29bfe" /><polygon points="322.7,358.3 333.9,352.7 333.9,363.9" fill="#a29bfe" /><circle cx="322.7" cy="358.3" r="7.8" fill="#fd79a8" stroke="#ffffff" stroke-width="1.0" />
<polygon points="349.3,358.3 338.1,352.7 338.1,363.9" fill="#a29bfe" /><polygon points="349.3,358.3 360.5,352.7 360.5,363.9" fill="#a29bfe" /><circle cx="349.3" cy="358.3" r="7.8" fill="#fd79a8" stroke="#ffffff" stroke-width="1.0" />
<polygon points="376.0,358.3 364.8,352.7 364.8,363.9" fill="#a29bfe" /><polygon points="376.0,358.3 387.2,352.7 387.2,363.9" fill="#a29bfe" /><circle cx="376.0" cy="358.3" r="7.8" fill="#fd79a8" stroke="#ffffff" stroke-width="1.0" />
<polygon points="402.7,358.3 391.5,352.7 391.5,363.9" fill="#a29bfe" /><polygon points="402.7,358.3 413.9,352.7 413.9,363.9" fill="#a29bfe" /><circle cx="402.7" cy="358.3" r="7.8" fill="#fd79a8" stroke="#ffffff" stroke-width="1.0" />
<polygon points="109.3,385.0 98.1,379.4 98.1,390.6" fill="#a29bfe" /><polygon points="109.3,385.0 120.5,379.4 120.5,390.6" fill="#a29bfe" /><circle cx="109.3" cy="385.0" r="7.8" fill="#fd79a8" stroke="#ffffff" stroke-width="1.0" />
<polygon points="136.0,385.0 124.8,379.4 124.8,390.6" fill="#a29bfe" /><polygon points="136.0,385.0 147.2,379.4 147.2,390.6" fill="#a29bfe" /><circle cx="136.0" cy="385.0" r="7.8" fill="#fd79a8" stroke="#ffffff" stroke-width="1.0" />
<polygon points="162.7,385.0 151.5,379.4 151.5,390.6" fill="#a29bfe" /><polygon points="162.7,385.0 173.9,379.4 173.9,390.6" fill="#a29bfe" /><circle cx="162.7" cy="385.0" r="7.8" fill="#fd79a8" stroke="#ffffff" stroke-width="1.0" />
<polygon points="189.3,385.0 178.1,379.4 178.1,390.6" fill="#a29bfe" /><polygon points="189.3,385.0 200.5,379.4 200.5,390.6" fill="#a29bfe" /><circle cx="189.3" cy="385.0" r="7.8" fill="#fd79a8" stroke="#ffffff" stroke-width="1.0" />
<polygon points="216.0,385.0 204.8,379.4 204.8,390.6" fill="#a29bfe" /><polygon points="216.0,385.0 227.2,379.4 227.2,390.6" fill="#a29bfe" /><circle cx="216.0" cy="385.0" r="7.8" fill="#fd79a8" stroke="#ffffff" stroke-width="1.0" />
<polygon points="242.7,385.0 231.5,379.4 231.5,390.6" fill="#a29bfe" /><polygon points="242.7,385.0 253.9,379.4 253.9,390.6" fill="#a29bfe" /><circle cx="242.7" cy="385.0" r="7.8" fill="#fd79a8" stroke="#ffffff" stroke-width="1.0" />
<polygon points="269.3,385.0 258.1,379.4 258.1,390.6" fill="#a29bfe" /><polygon points="269.3,385.0 280.5,379.4 280.5,390.6" fill="#a29bfe" /><circle cx="269.3" cy="385.0" r="7.8" fill="#fd79a8" stroke="#ffffff" stroke-width="1.0" />
<polygon points="296.0,385.0 284.8,379.4 284.8,390.6" fill="#a29bfe" /><polygon points="296.0,385.0 307.2,379.4 307.2,390.6" fill="#a29bfe" /><circle cx="296.0" cy="385.0" r="7.8" fill="#fd79a8" stroke="#ffffff" stroke-width="1.0" />
<polygon points="322.7,385.0 311.5,379.4 311.5,390.6" fill="#a29bfe" /><polygon points="322.7,385.0 333.9,379.4 333.9,390.6" fill="#a29bfe" /><circle cx="322.7" cy="385.0" r="7.8" fill="#fd79a8" stroke="#ffffff" stroke-width="1.0" />
<polygon points="349.3,385.0 338.1,379.4 338.1,390.6" fill="#a29bfe" /><polygon points="349.3,385.0 360.5,379.4 360.5,390.6" fill="#a29bfe" /><circle cx="349.3" cy="385.0" r="7.8" fill="#fd79a8" stroke="#ffffff" stroke-width="1.0" />
  </g>

  <!-- Bottom Banner -->
  <g filter="url(#shadow-46)">
    <rect x="96" y="420" width="320" height="54" rx="27" fill="#FFF" stroke="#c6eadf" stroke-width="4" />
    <text x="256" y="455" 
          text-anchor="middle" 
          font-size="28" 
          font-weight="900" 
          font-family="Comic Sans MS, Arial Rounded MT Bold, sans-serif" 
          fill="#7C5730">46 - Forty Six</text>
  </g>
</svg>