<svg xmlns="http://www.w3.org/2000/svg" viewBox="0 0 512 512" width="100%" height="100%">
  <defs>
    <!-- Background Gradient -->
    <linearGradient id="bg-51" x1="0%" y1="0%" x2="0%" y2="100%">
      <stop offset="0%" stop-color="#f9ffff" />
      <stop offset="100%" stop-color="#efffff" />
    </linearGradient>

    <!-- Front Face Gradient -->
    <linearGradient id="front-51" x1="0%" y1="0%" x2="0%" y2="100%">
      <stop offset="0%" stop-color="#89feff" />
      <stop offset="100%" stop-color="#00f4f4" />
    </linearGradient>

    <!-- 3D Side/Extrusion Color -->
    <linearGradient id="side-51" x1="0%" y1="0%" x2="0%" y2="100%">
      <stop offset="0%" stop-color="#00c1c1" />
      <stop offset="100%" stop-color="#008e8e" />
    </linearGradient>

    <!-- Leaf Sprout Gradient -->
    <linearGradient id="leaf-51" x1="0%" y1="0%" x2="100%" y2="100%">
      <stop offset="0%" stop-color="#7BED9F" />
      <stop offset="100%" stop-color="#2ED573" />
    </linearGradient>

    <!-- 3D Base Shadow -->
    <filter id="shadow-51">
      <feDropShadow dx="0" dy="10" stdDeviation="8" flood-color="#000000" flood-opacity="0.25" />
    </filter>
  </defs>

  <!-- Background -->
  <circle cx="256" cy="256" r="236" fill="url(#bg-51)" stroke="#c6eaea" stroke-width="6" />

  <!-- Sparkles -->
  <g fill="#FFD43B">
    <circle cx="100" cy="130" r="8" />
    <circle cx="400" cy="120" r="10" />
    <circle cx="430" cy="330" r="7" />
  </g>

  <!-- Number -->
  <g filter="url(#shadow-51)">
    <!-- Side -->
    <text x="256" y="215" 
          text-anchor="middle" 
          font-size="180" 
          font-weight="900" 
          font-family="Comic Sans MS, Arial Rounded MT Bold, sans-serif" 
          fill="url(#side-51)" 
          stroke="url(#side-51)" 
          stroke-width="18" 
          transform="translate(0, 12)">51</text>

    <!-- Front -->
    <text x="256" y="215" 
          text-anchor="middle" 
          font-size="180" 
          font-weight="900" 
          font-family="Comic Sans MS, Arial Rounded MT Bold, sans-serif" 
          fill="url(#front-51)" 
          stroke="url(#front-51)" 
          stroke-width="18">51</text>
  </g>

  <!-- Cute Sprout -->
  <g transform="translate(256 65)">
    <path d="M0 0 Q-4 -15 -8 -24" stroke="#8B5A2B" stroke-width="5" fill="none" />
    <path d="M-8 -24 C-28 -28 -30 -5 -10 0 Z" fill="url(#leaf-51)" />
    <path d="M-8 -24 C5 -35 22 -20 5 -5 Z" fill="url(#leaf-51)" />
  </g>

  <!-- Eyes -->
  <g>
    <circle cx="215" cy="180" r="18" fill="#222" />
    <circle cx="208" cy="172" r="6" fill="#FFF" />

    <circle cx="297" cy="180" r="18" fill="#222" />
    <circle cx="290" cy="172" r="6" fill="#FFF" />
  </g>

  <!-- Cheeks -->
  <ellipse cx="185" cy="210" rx="18" ry="12" fill="#FF6B81" opacity="0.45" />
  <ellipse cx="327" cy="210" rx="18" ry="12" fill="#FF6B81" opacity="0.45" />

  <!-- Smile -->
  <path d="M225 225 Q256 255 287 225" stroke="#7A1022" stroke-width="8" fill="none" stroke-linecap="round" />

  <!-- Counting Object -->
  <g>
    <circle cx="108.3" cy="308.1" r="10.3" fill="#FF4757" /><path d="M 108.3 297.7 Q 111.4 292.6 113.5 290.0" stroke="#8B5A2B" stroke-width="3" fill="none" stroke-linecap="round" /><path d="M 108.3 298.3 C 102.6 294.1 100.6 295.2 104.2 300.3 Z" fill="#2ED573" />
<circle cx="132.9" cy="308.1" r="10.3" fill="#FF4757" /><path d="M 132.9 297.7 Q 136.0 292.6 138.1 290.0" stroke="#8B5A2B" stroke-width="3" fill="none" stroke-linecap="round" /><path d="M 132.9 298.3 C 127.2 294.1 125.2 295.2 128.8 300.3 Z" fill="#2ED573" />
<circle cx="157.5" cy="308.1" r="10.3" fill="#FF4757" /><path d="M 157.5 297.7 Q 160.6 292.6 162.7 290.0" stroke="#8B5A2B" stroke-width="3" fill="none" stroke-linecap="round" /><path d="M 157.5 298.3 C 151.9 294.1 149.8 295.2 153.4 300.3 Z" fill="#2ED573" />
<circle cx="182.2" cy="308.1" r="10.3" fill="#FF4757" /><path d="M 182.2 297.7 Q 185.3 292.6 187.3 290.0" stroke="#8B5A2B" stroke-width="3" fill="none" stroke-linecap="round" /><path d="M 182.2 298.3 C 176.5 294.1 174.4 295.2 178.0 300.3 Z" fill="#2ED573" />
<circle cx="206.8" cy="308.1" r="10.3" fill="#FF4757" /><path d="M 206.8 297.7 Q 209.9 292.6 211.9 290.0" stroke="#8B5A2B" stroke-width="3" fill="none" stroke-linecap="round" /><path d="M 206.8 298.3 C 201.1 294.1 199.0 295.2 202.6 300.3 Z" fill="#2ED573" />
<circle cx="231.4" cy="308.1" r="10.3" fill="#FF4757" /><path d="M 231.4 297.7 Q 234.5 292.6 236.6 290.0" stroke="#8B5A2B" stroke-width="3" fill="none" stroke-linecap="round" /><path d="M 231.4 298.3 C 225.7 294.1 223.6 295.2 227.2 300.3 Z" fill="#2ED573" />
<circle cx="256.0" cy="308.1" r="10.3" fill="#FF4757" /><path d="M 256.0 297.7 Q 259.1 292.6 261.2 290.0" stroke="#8B5A2B" stroke-width="3" fill="none" stroke-linecap="round" /><path d="M 256.0 298.3 C 250.3 294.1 248.2 295.2 251.9 300.3 Z" fill="#2ED573" />
<circle cx="280.6" cy="308.1" r="10.3" fill="#FF4757" /><path d="M 280.6 297.7 Q 283.7 292.6 285.8 290.0" stroke="#8B5A2B" stroke-width="3" fill="none" stroke-linecap="round" /><path d="M 280.6 298.3 C 274.9 294.1 272.9 295.2 276.5 300.3 Z" fill="#2ED573" />
<circle cx="305.2" cy="308.1" r="10.3" fill="#FF4757" /><path d="M 305.2 297.7 Q 308.3 292.6 310.4 290.0" stroke="#8B5A2B" stroke-width="3" fill="none" stroke-linecap="round" /><path d="M 305.2 298.3 C 299.5 294.1 297.5 295.2 301.1 300.3 Z" fill="#2ED573" />
<circle cx="329.8" cy="308.1" r="10.3" fill="#FF4757" /><path d="M 329.8 297.7 Q 332.9 292.6 335.0 290.0" stroke="#8B5A2B" stroke-width="3" fill="none" stroke-linecap="round" /><path d="M 329.8 298.3 C 324.2 294.1 322.1 295.2 325.7 300.3 Z" fill="#2ED573" />
<circle cx="354.5" cy="308.1" r="10.3" fill="#FF4757" /><path d="M 354.5 297.7 Q 357.6 292.6 359.6 290.0" stroke="#8B5A2B" stroke-width="3" fill="none" stroke-linecap="round" /><path d="M 354.5 298.3 C 348.8 294.1 346.7 295.2 350.3 300.3 Z" fill="#2ED573" />
<circle cx="379.1" cy="308.1" r="10.3" fill="#FF4757" /><path d="M 379.1 297.7 Q 382.2 292.6 384.2 290.0" stroke="#8B5A2B" stroke-width="3" fill="none" stroke-linecap="round" /><path d="M 379.1 298.3 C 373.4 294.1 371.3 295.2 374.9 300.3 Z" fill="#2ED573" />
<circle cx="403.7" cy="308.1" r="10.3" fill="#FF4757" /><path d="M 403.7 297.7 Q 406.8 292.6 408.9 290.0" stroke="#8B5A2B" stroke-width="3" fill="none" stroke-linecap="round" /><path d="M 403.7 298.3 C 398.0 294.1 395.9 295.2 399.6 300.3 Z" fill="#2ED573" />
<circle cx="108.3" cy="332.7" r="10.3" fill="#FF4757" /><path d="M 108.3 322.4 Q 111.4 317.2 113.5 314.6" stroke="#8B5A2B" stroke-width="3" fill="none" stroke-linecap="round" /><path d="M 108.3 322.9 C 102.6 318.7 100.6 319.8 104.2 324.9 Z" fill="#2ED573" />
<circle cx="132.9" cy="332.7" r="10.3" fill="#FF4757" /><path d="M 132.9 322.4 Q 136.0 317.2 138.1 314.6" stroke="#8B5A2B" stroke-width="3" fill="none" stroke-linecap="round" /><path d="M 132.9 322.9 C 127.2 318.7 125.2 319.8 128.8 324.9 Z" fill="#2ED573" />
<circle cx="157.5" cy="332.7" r="10.3" fill="#FF4757" /><path d="M 157.5 322.4 Q 160.6 317.2 162.7 314.6" stroke="#8B5A2B" stroke-width="3" fill="none" stroke-linecap="round" /><path d="M 157.5 322.9 C 151.9 318.7 149.8 319.8 153.4 324.9 Z" fill="#2ED573" />
<circle cx="182.2" cy="332.7" r="10.3" fill="#FF4757" /><path d="M 182.2 322.4 Q 185.3 317.2 187.3 314.6" stroke="#8B5A2B" stroke-width="3" fill="none" stroke-linecap="round" /><path d="M 182.2 322.9 C 176.5 318.7 174.4 319.8 178.0 324.9 Z" fill="#2ED573" />
<circle cx="206.8" cy="332.7" r="10.3" fill="#FF4757" /><path d="M 206.8 322.4 Q 209.9 317.2 211.9 314.6" stroke="#8B5A2B" stroke-width="3" fill="none" stroke-linecap="round" /><path d="M 206.8 322.9 C 201.1 318.7 199.0 319.8 202.6 324.9 Z" fill="#2ED573" />
<circle cx="231.4" cy="332.7" r="10.3" fill="#FF4757" /><path d="M 231.4 322.4 Q 234.5 317.2 236.6 314.6" stroke="#8B5A2B" stroke-width="3" fill="none" stroke-linecap="round" /><path d="M 231.4 322.9 C 225.7 318.7 223.6 319.8 227.2 324.9 Z" fill="#2ED573" />
<circle cx="256.0" cy="332.7" r="10.3" fill="#FF4757" /><path d="M 256.0 322.4 Q 259.1 317.2 261.2 314.6" stroke="#8B5A2B" stroke-width="3" fill="none" stroke-linecap="round" /><path d="M 256.0 322.9 C 250.3 318.7 248.2 319.8 251.9 324.9 Z" fill="#2ED573" />
<circle cx="280.6" cy="332.7" r="10.3" fill="#FF4757" /><path d="M 280.6 322.4 Q 283.7 317.2 285.8 314.6" stroke="#8B5A2B" stroke-width="3" fill="none" stroke-linecap="round" /><path d="M 280.6 322.9 C 274.9 318.7 272.9 319.8 276.5 324.9 Z" fill="#2ED573" />
<circle cx="305.2" cy="332.7" r="10.3" fill="#FF4757" /><path d="M 305.2 322.4 Q 308.3 317.2 310.4 314.6" stroke="#8B5A2B" stroke-width="3" fill="none" stroke-linecap="round" /><path d="M 305.2 322.9 C 299.5 318.7 297.5 319.8 301.1 324.9 Z" fill="#2ED573" />
<circle cx="329.8" cy="332.7" r="10.3" fill="#FF4757" /><path d="M 329.8 322.4 Q 332.9 317.2 335.0 314.6" stroke="#8B5A2B" stroke-width="3" fill="none" stroke-linecap="round" /><path d="M 329.8 322.9 C 324.2 318.7 322.1 319.8 325.7 324.9 Z" fill="#2ED573" />
<circle cx="354.5" cy="332.7" r="10.3" fill="#FF4757" /><path d="M 354.5 322.4 Q 357.6 317.2 359.6 314.6" stroke="#8B5A2B" stroke-width="3" fill="none" stroke-linecap="round" /><path d="M 354.5 322.9 C 348.8 318.7 346.7 319.8 350.3 324.9 Z" fill="#2ED573" />
<circle cx="379.1" cy="332.7" r="10.3" fill="#FF4757" /><path d="M 379.1 322.4 Q 382.2 317.2 384.2 314.6" stroke="#8B5A2B" stroke-width="3" fill="none" stroke-linecap="round" /><path d="M 379.1 322.9 C 373.4 318.7 371.3 319.8 374.9 324.9 Z" fill="#2ED573" />
<circle cx="403.7" cy="332.7" r="10.3" fill="#FF4757" /><path d="M 403.7 322.4 Q 406.8 317.2 408.9 314.6" stroke="#8B5A2B" stroke-width="3" fill="none" stroke-linecap="round" /><path d="M 403.7 322.9 C 398.0 318.7 395.9 319.8 399.6 324.9 Z" fill="#2ED573" />
<circle cx="108.3" cy="357.3" r="10.3" fill="#FF4757" /><path d="M 108.3 347.0 Q 111.4 341.8 113.5 339.2" stroke="#8B5A2B" stroke-width="3" fill="none" stroke-linecap="round" /><path d="M 108.3 347.5 C 102.6 343.4 100.6 344.4 104.2 349.6 Z" fill="#2ED573" />
<circle cx="132.9" cy="357.3" r="10.3" fill="#FF4757" /><path d="M 132.9 347.0 Q 136.0 341.8 138.1 339.2" stroke="#8B5A2B" stroke-width="3" fill="none" stroke-linecap="round" /><path d="M 132.9 347.5 C 127.2 343.4 125.2 344.4 128.8 349.6 Z" fill="#2ED573" />
<circle cx="157.5" cy="357.3" r="10.3" fill="#FF4757" /><path d="M 157.5 347.0 Q 160.6 341.8 162.7 339.2" stroke="#8B5A2B" stroke-width="3" fill="none" stroke-linecap="round" /><path d="M 157.5 347.5 C 151.9 343.4 149.8 344.4 153.4 349.6 Z" fill="#2ED573" />
<circle cx="182.2" cy="357.3" r="10.3" fill="#FF4757" /><path d="M 182.2 347.0 Q 185.3 341.8 187.3 339.2" stroke="#8B5A2B" stroke-width="3" fill="none" stroke-linecap="round" /><path d="M 182.2 347.5 C 176.5 343.4 174.4 344.4 178.0 349.6 Z" fill="#2ED573" />
<circle cx="206.8" cy="357.3" r="10.3" fill="#FF4757" /><path d="M 206.8 347.0 Q 209.9 341.8 211.9 339.2" stroke="#8B5A2B" stroke-width="3" fill="none" stroke-linecap="round" /><path d="M 206.8 347.5 C 201.1 343.4 199.0 344.4 202.6 349.6 Z" fill="#2ED573" />
<circle cx="231.4" cy="357.3" r="10.3" fill="#FF4757" /><path d="M 231.4 347.0 Q 234.5 341.8 236.6 339.2" stroke="#8B5A2B" stroke-width="3" fill="none" stroke-linecap="round" /><path d="M 231.4 347.5 C 225.7 343.4 223.6 344.4 227.2 349.6 Z" fill="#2ED573" />
<circle cx="256.0" cy="357.3" r="10.3" fill="#FF4757" /><path d="M 256.0 347.0 Q 259.1 341.8 261.2 339.2" stroke="#8B5A2B" stroke-width="3" fill="none" stroke-linecap="round" /><path d="M 256.0 347.5 C 250.3 343.4 248.2 344.4 251.9 349.6 Z" fill="#2ED573" />
<circle cx="280.6" cy="357.3" r="10.3" fill="#FF4757" /><path d="M 280.6 347.0 Q 283.7 341.8 285.8 339.2" stroke="#8B5A2B" stroke-width="3" fill="none" stroke-linecap="round" /><path d="M 280.6 347.5 C 274.9 343.4 272.9 344.4 276.5 349.6 Z" fill="#2ED573" />
<circle cx="305.2" cy="357.3" r="10.3" fill="#FF4757" /><path d="M 305.2 347.0 Q 308.3 341.8 310.4 339.2" stroke="#8B5A2B" stroke-width="3" fill="none" stroke-linecap="round" /><path d="M 305.2 347.5 C 299.5 343.4 297.5 344.4 301.1 349.6 Z" fill="#2ED573" />
<circle cx="329.8" cy="357.3" r="10.3" fill="#FF4757" /><path d="M 329.8 347.0 Q 332.9 341.8 335.0 339.2" stroke="#8B5A2B" stroke-width="3" fill="none" stroke-linecap="round" /><path d="M 329.8 347.5 C 324.2 343.4 322.1 344.4 325.7 349.6 Z" fill="#2ED573" />
<circle cx="354.5" cy="357.3" r="10.3" fill="#FF4757" /><path d="M 354.5 347.0 Q 357.6 341.8 359.6 339.2" stroke="#8B5A2B" stroke-width="3" fill="none" stroke-linecap="round" /><path d="M 354.5 347.5 C 348.8 343.4 346.7 344.4 350.3 349.6 Z" fill="#2ED573" />
<circle cx="379.1" cy="357.3" r="10.3" fill="#FF4757" /><path d="M 379.1 347.0 Q 382.2 341.8 384.2 339.2" stroke="#8B5A2B" stroke-width="3" fill="none" stroke-linecap="round" /><path d="M 379.1 347.5 C 373.4 343.4 371.3 344.4 374.9 349.6 Z" fill="#2ED573" />
<circle cx="403.7" cy="357.3" r="10.3" fill="#FF4757" /><path d="M 403.7 347.0 Q 406.8 341.8 408.9 339.2" stroke="#8B5A2B" stroke-width="3" fill="none" stroke-linecap="round" /><path d="M 403.7 347.5 C 398.0 343.4 395.9 344.4 399.6 349.6 Z" fill="#2ED573" />
<circle cx="108.3" cy="381.9" r="10.3" fill="#FF4757" /><path d="M 108.3 371.6 Q 111.4 366.4 113.5 363.8" stroke="#8B5A2B" stroke-width="3" fill="none" stroke-linecap="round" /><path d="M 108.3 372.1 C 102.6 368.0 100.6 369.0 104.2 374.2 Z" fill="#2ED573" />
<circle cx="132.9" cy="381.9" r="10.3" fill="#FF4757" /><path d="M 132.9 371.6 Q 136.0 366.4 138.1 363.8" stroke="#8B5A2B" stroke-width="3" fill="none" stroke-linecap="round" /><path d="M 132.9 372.1 C 127.2 368.0 125.2 369.0 128.8 374.2 Z" fill="#2ED573" />
<circle cx="157.5" cy="381.9" r="10.3" fill="#FF4757" /><path d="M 157.5 371.6 Q 160.6 366.4 162.7 363.8" stroke="#8B5A2B" stroke-width="3" fill="none" stroke-linecap="round" /><path d="M 157.5 372.1 C 151.9 368.0 149.8 369.0 153.4 374.2 Z" fill="#2ED573" />
<circle cx="182.2" cy="381.9" r="10.3" fill="#FF4757" /><path d="M 182.2 371.6 Q 185.3 366.4 187.3 363.8" stroke="#8B5A2B" stroke-width="3" fill="none" stroke-linecap="round" /><path d="M 182.2 372.1 C 176.5 368.0 174.4 369.0 178.0 374.2 Z" fill="#2ED573" />
<circle cx="206.8" cy="381.9" r="10.3" fill="#FF4757" /><path d="M 206.8 371.6 Q 209.9 366.4 211.9 363.8" stroke="#8B5A2B" stroke-width="3" fill="none" stroke-linecap="round" /><path d="M 206.8 372.1 C 201.1 368.0 199.0 369.0 202.6 374.2 Z" fill="#2ED573" />
<circle cx="231.4" cy="381.9" r="10.3" fill="#FF4757" /><path d="M 231.4 371.6 Q 234.5 366.4 236.6 363.8" stroke="#8B5A2B" stroke-width="3" fill="none" stroke-linecap="round" /><path d="M 231.4 372.1 C 225.7 368.0 223.6 369.0 227.2 374.2 Z" fill="#2ED573" />
<circle cx="256.0" cy="381.9" r="10.3" fill="#FF4757" /><path d="M 256.0 371.6 Q 259.1 366.4 261.2 363.8" stroke="#8B5A2B" stroke-width="3" fill="none" stroke-linecap="round" /><path d="M 256.0 372.1 C 250.3 368.0 248.2 369.0 251.9 374.2 Z" fill="#2ED573" />
<circle cx="280.6" cy="381.9" r="10.3" fill="#FF4757" /><path d="M 280.6 371.6 Q 283.7 366.4 285.8 363.8" stroke="#8B5A2B" stroke-width="3" fill="none" stroke-linecap="round" /><path d="M 280.6 372.1 C 274.9 368.0 272.9 369.0 276.5 374.2 Z" fill="#2ED573" />
<circle cx="305.2" cy="381.9" r="10.3" fill="#FF4757" /><path d="M 305.2 371.6 Q 308.3 366.4 310.4 363.8" stroke="#8B5A2B" stroke-width="3" fill="none" stroke-linecap="round" /><path d="M 305.2 372.1 C 299.5 368.0 297.5 369.0 301.1 374.2 Z" fill="#2ED573" />
<circle cx="329.8" cy="381.9" r="10.3" fill="#FF4757" /><path d="M 329.8 371.6 Q 332.9 366.4 335.0 363.8" stroke="#8B5A2B" stroke-width="3" fill="none" stroke-linecap="round" /><path d="M 329.8 372.1 C 324.2 368.0 322.1 369.0 325.7 374.2 Z" fill="#2ED573" />
<circle cx="354.5" cy="381.9" r="10.3" fill="#FF4757" /><path d="M 354.5 371.6 Q 357.6 366.4 359.6 363.8" stroke="#8B5A2B" stroke-width="3" fill="none" stroke-linecap="round" /><path d="M 354.5 372.1 C 348.8 368.0 346.7 369.0 350.3 374.2 Z" fill="#2ED573" />
<circle cx="379.1" cy="381.9" r="10.3" fill="#FF4757" /><path d="M 379.1 371.6 Q 382.2 366.4 384.2 363.8" stroke="#8B5A2B" stroke-width="3" fill="none" stroke-linecap="round" /><path d="M 379.1 372.1 C 373.4 368.0 371.3 369.0 374.9 374.2 Z" fill="#2ED573" />
  </g>

  <!-- Bottom Banner -->
  <g filter="url(#shadow-51)">
    <rect x="96" y="420" width="320" height="54" rx="27" fill="#FFF" stroke="#c6eaea" stroke-width="4" />
    <text x="256" y="455" 
          text-anchor="middle" 
          font-size="28" 
          font-weight="900" 
          font-family="Comic Sans MS, Arial Rounded MT Bold, sans-serif" 
          fill="#7C5730">51 - Fifty One</text>
  </g>
</svg>