<svg xmlns="http://www.w3.org/2000/svg" viewBox="0 0 512 512" width="100%" height="100%">
  <defs>
    <!-- Background Gradient -->
    <linearGradient id="bg-52" x1="0%" y1="0%" x2="0%" y2="100%">
      <stop offset="0%" stop-color="#f9feff" />
      <stop offset="100%" stop-color="#effeff" />
    </linearGradient>

    <!-- Front Face Gradient -->
    <linearGradient id="front-52" x1="0%" y1="0%" x2="0%" y2="100%">
      <stop offset="0%" stop-color="#89f9ff" />
      <stop offset="100%" stop-color="#00e8f4" />
    </linearGradient>

    <!-- 3D Side/Extrusion Color -->
    <linearGradient id="side-52" x1="0%" y1="0%" x2="0%" y2="100%">
      <stop offset="0%" stop-color="#00b8c1" />
      <stop offset="100%" stop-color="#00878e" />
    </linearGradient>

    <!-- Leaf Sprout Gradient -->
    <linearGradient id="leaf-52" x1="0%" y1="0%" x2="100%" y2="100%">
      <stop offset="0%" stop-color="#7BED9F" />
      <stop offset="100%" stop-color="#2ED573" />
    </linearGradient>

    <!-- 3D Base Shadow -->
    <filter id="shadow-52">
      <feDropShadow dx="0" dy="10" stdDeviation="8" flood-color="#000000" flood-opacity="0.25" />
    </filter>
  </defs>

  <!-- Background -->
  <circle cx="256" cy="256" r="236" fill="url(#bg-52)" stroke="#c6e8ea" stroke-width="6" />

  <!-- Sparkles -->
  <g fill="#FFD43B">
    <circle cx="100" cy="130" r="8" />
    <circle cx="400" cy="120" r="10" />
    <circle cx="430" cy="330" r="7" />
  </g>

  <!-- Number -->
  <g filter="url(#shadow-52)">
    <!-- Side -->
    <text x="256" y="215" 
          text-anchor="middle" 
          font-size="180" 
          font-weight="900" 
          font-family="Comic Sans MS, Arial Rounded MT Bold, sans-serif" 
          fill="url(#side-52)" 
          stroke="url(#side-52)" 
          stroke-width="18" 
          transform="translate(0, 12)">52</text>

    <!-- Front -->
    <text x="256" y="215" 
          text-anchor="middle" 
          font-size="180" 
          font-weight="900" 
          font-family="Comic Sans MS, Arial Rounded MT Bold, sans-serif" 
          fill="url(#front-52)" 
          stroke="url(#front-52)" 
          stroke-width="18">52</text>
  </g>

  <!-- Cute Sprout -->
  <g transform="translate(256 65)">
    <path d="M0 0 Q-4 -15 -8 -24" stroke="#8B5A2B" stroke-width="5" fill="none" />
    <path d="M-8 -24 C-28 -28 -30 -5 -10 0 Z" fill="url(#leaf-52)" />
    <path d="M-8 -24 C5 -35 22 -20 5 -5 Z" fill="url(#leaf-52)" />
  </g>

  <!-- Eyes -->
  <g>
    <circle cx="215" cy="180" r="18" fill="#222" />
    <circle cx="208" cy="172" r="6" fill="#FFF" />

    <circle cx="297" cy="180" r="18" fill="#222" />
    <circle cx="290" cy="172" r="6" fill="#FFF" />
  </g>

  <!-- Cheeks -->
  <ellipse cx="185" cy="210" rx="18" ry="12" fill="#FF6B81" opacity="0.45" />
  <ellipse cx="327" cy="210" rx="18" ry="12" fill="#FF6B81" opacity="0.45" />

  <!-- Smile -->
  <path d="M225 225 Q256 255 287 225" stroke="#7A1022" stroke-width="8" fill="none" stroke-linecap="round" />

  <!-- Counting Object -->
  <g>
    <polygon points="108.3,297.7 111.0,304.3 118.1,304.9 112.7,309.5 114.4,316.4 108.3,312.7 102.2,316.4 103.9,309.5 98.5,304.9 105.6,304.3" fill="#FFD43B" stroke="#e67e22" stroke-width="1.2" />
<polygon points="132.9,297.7 135.7,304.3 142.8,304.9 137.3,309.5 139.0,316.4 132.9,312.7 126.8,316.4 128.5,309.5 123.1,304.9 130.2,304.3" fill="#FFD43B" stroke="#e67e22" stroke-width="1.2" />
<polygon points="157.5,297.7 160.3,304.3 167.4,304.9 162.0,309.5 163.6,316.4 157.5,312.7 151.5,316.4 153.1,309.5 147.7,304.9 154.8,304.3" fill="#FFD43B" stroke="#e67e22" stroke-width="1.2" />
<polygon points="182.2,297.7 184.9,304.3 192.0,304.9 186.6,309.5 188.2,316.4 182.2,312.7 176.1,316.4 177.7,309.5 172.3,304.9 179.4,304.3" fill="#FFD43B" stroke="#e67e22" stroke-width="1.2" />
<polygon points="206.8,297.7 209.5,304.3 216.6,304.9 211.2,309.5 212.8,316.4 206.8,312.7 200.7,316.4 202.3,309.5 196.9,304.9 204.0,304.3" fill="#FFD43B" stroke="#e67e22" stroke-width="1.2" />
<polygon points="231.4,297.7 234.1,304.3 241.2,304.9 235.8,309.5 237.5,316.4 231.4,312.7 225.3,316.4 227.0,309.5 221.6,304.9 228.7,304.3" fill="#FFD43B" stroke="#e67e22" stroke-width="1.2" />
<polygon points="256.0,297.7 258.7,304.3 265.8,304.9 260.4,309.5 262.1,316.4 256.0,312.7 249.9,316.4 251.6,309.5 246.2,304.9 253.3,304.3" fill="#FFD43B" stroke="#e67e22" stroke-width="1.2" />
<polygon points="280.6,297.7 283.3,304.3 290.4,304.9 285.0,309.5 286.7,316.4 280.6,312.7 274.5,316.4 276.2,309.5 270.8,304.9 277.9,304.3" fill="#FFD43B" stroke="#e67e22" stroke-width="1.2" />
<polygon points="305.2,297.7 308.0,304.3 315.1,304.9 309.7,309.5 311.3,316.4 305.2,312.7 299.2,316.4 300.8,309.5 295.4,304.9 302.5,304.3" fill="#FFD43B" stroke="#e67e22" stroke-width="1.2" />
<polygon points="329.8,297.7 332.6,304.3 339.7,304.9 334.3,309.5 335.9,316.4 329.8,312.7 323.8,316.4 325.4,309.5 320.0,304.9 327.1,304.3" fill="#FFD43B" stroke="#e67e22" stroke-width="1.2" />
<polygon points="354.5,297.7 357.2,304.3 364.3,304.9 358.9,309.5 360.5,316.4 354.5,312.7 348.4,316.4 350.0,309.5 344.6,304.9 351.7,304.3" fill="#FFD43B" stroke="#e67e22" stroke-width="1.2" />
<polygon points="379.1,297.7 381.8,304.3 388.9,304.9 383.5,309.5 385.2,316.4 379.1,312.7 373.0,316.4 374.7,309.5 369.2,304.9 376.3,304.3" fill="#FFD43B" stroke="#e67e22" stroke-width="1.2" />
<polygon points="403.7,297.7 406.4,304.3 413.5,304.9 408.1,309.5 409.8,316.4 403.7,312.7 397.6,316.4 399.3,309.5 393.9,304.9 401.0,304.3" fill="#FFD43B" stroke="#e67e22" stroke-width="1.2" />
<polygon points="108.3,322.4 111.0,328.9 118.1,329.5 112.7,334.1 114.4,341.1 108.3,337.3 102.2,341.1 103.9,334.1 98.5,329.5 105.6,328.9" fill="#FFD43B" stroke="#e67e22" stroke-width="1.2" />
<polygon points="132.9,322.4 135.7,328.9 142.8,329.5 137.3,334.1 139.0,341.1 132.9,337.3 126.8,341.1 128.5,334.1 123.1,329.5 130.2,328.9" fill="#FFD43B" stroke="#e67e22" stroke-width="1.2" />
<polygon points="157.5,322.4 160.3,328.9 167.4,329.5 162.0,334.1 163.6,341.1 157.5,337.3 151.5,341.1 153.1,334.1 147.7,329.5 154.8,328.9" fill="#FFD43B" stroke="#e67e22" stroke-width="1.2" />
<polygon points="182.2,322.4 184.9,328.9 192.0,329.5 186.6,334.1 188.2,341.1 182.2,337.3 176.1,341.1 177.7,334.1 172.3,329.5 179.4,328.9" fill="#FFD43B" stroke="#e67e22" stroke-width="1.2" />
<polygon points="206.8,322.4 209.5,328.9 216.6,329.5 211.2,334.1 212.8,341.1 206.8,337.3 200.7,341.1 202.3,334.1 196.9,329.5 204.0,328.9" fill="#FFD43B" stroke="#e67e22" stroke-width="1.2" />
<polygon points="231.4,322.4 234.1,328.9 241.2,329.5 235.8,334.1 237.5,341.1 231.4,337.3 225.3,341.1 227.0,334.1 221.6,329.5 228.7,328.9" fill="#FFD43B" stroke="#e67e22" stroke-width="1.2" />
<polygon points="256.0,322.4 258.7,328.9 265.8,329.5 260.4,334.1 262.1,341.1 256.0,337.3 249.9,341.1 251.6,334.1 246.2,329.5 253.3,328.9" fill="#FFD43B" stroke="#e67e22" stroke-width="1.2" />
<polygon points="280.6,322.4 283.3,328.9 290.4,329.5 285.0,334.1 286.7,341.1 280.6,337.3 274.5,341.1 276.2,334.1 270.8,329.5 277.9,328.9" fill="#FFD43B" stroke="#e67e22" stroke-width="1.2" />
<polygon points="305.2,322.4 308.0,328.9 315.1,329.5 309.7,334.1 311.3,341.1 305.2,337.3 299.2,341.1 300.8,334.1 295.4,329.5 302.5,328.9" fill="#FFD43B" stroke="#e67e22" stroke-width="1.2" />
<polygon points="329.8,322.4 332.6,328.9 339.7,329.5 334.3,334.1 335.9,341.1 329.8,337.3 323.8,341.1 325.4,334.1 320.0,329.5 327.1,328.9" fill="#FFD43B" stroke="#e67e22" stroke-width="1.2" />
<polygon points="354.5,322.4 357.2,328.9 364.3,329.5 358.9,334.1 360.5,341.1 354.5,337.3 348.4,341.1 350.0,334.1 344.6,329.5 351.7,328.9" fill="#FFD43B" stroke="#e67e22" stroke-width="1.2" />
<polygon points="379.1,322.4 381.8,328.9 388.9,329.5 383.5,334.1 385.2,341.1 379.1,337.3 373.0,341.1 374.7,334.1 369.2,329.5 376.3,328.9" fill="#FFD43B" stroke="#e67e22" stroke-width="1.2" />
<polygon points="403.7,322.4 406.4,328.9 413.5,329.5 408.1,334.1 409.8,341.1 403.7,337.3 397.6,341.1 399.3,334.1 393.9,329.5 401.0,328.9" fill="#FFD43B" stroke="#e67e22" stroke-width="1.2" />
<polygon points="108.3,347.0 111.0,353.5 118.1,354.1 112.7,358.7 114.4,365.7 108.3,362.0 102.2,365.7 103.9,358.7 98.5,354.1 105.6,353.5" fill="#FFD43B" stroke="#e67e22" stroke-width="1.2" />
<polygon points="132.9,347.0 135.7,353.5 142.8,354.1 137.3,358.7 139.0,365.7 132.9,362.0 126.8,365.7 128.5,358.7 123.1,354.1 130.2,353.5" fill="#FFD43B" stroke="#e67e22" stroke-width="1.2" />
<polygon points="157.5,347.0 160.3,353.5 167.4,354.1 162.0,358.7 163.6,365.7 157.5,362.0 151.5,365.7 153.1,358.7 147.7,354.1 154.8,353.5" fill="#FFD43B" stroke="#e67e22" stroke-width="1.2" />
<polygon points="182.2,347.0 184.9,353.5 192.0,354.1 186.6,358.7 188.2,365.7 182.2,362.0 176.1,365.7 177.7,358.7 172.3,354.1 179.4,353.5" fill="#FFD43B" stroke="#e67e22" stroke-width="1.2" />
<polygon points="206.8,347.0 209.5,353.5 216.6,354.1 211.2,358.7 212.8,365.7 206.8,362.0 200.7,365.7 202.3,358.7 196.9,354.1 204.0,353.5" fill="#FFD43B" stroke="#e67e22" stroke-width="1.2" />
<polygon points="231.4,347.0 234.1,353.5 241.2,354.1 235.8,358.7 237.5,365.7 231.4,362.0 225.3,365.7 227.0,358.7 221.6,354.1 228.7,353.5" fill="#FFD43B" stroke="#e67e22" stroke-width="1.2" />
<polygon points="256.0,347.0 258.7,353.5 265.8,354.1 260.4,358.7 262.1,365.7 256.0,362.0 249.9,365.7 251.6,358.7 246.2,354.1 253.3,353.5" fill="#FFD43B" stroke="#e67e22" stroke-width="1.2" />
<polygon points="280.6,347.0 283.3,353.5 290.4,354.1 285.0,358.7 286.7,365.7 280.6,362.0 274.5,365.7 276.2,358.7 270.8,354.1 277.9,353.5" fill="#FFD43B" stroke="#e67e22" stroke-width="1.2" />
<polygon points="305.2,347.0 308.0,353.5 315.1,354.1 309.7,358.7 311.3,365.7 305.2,362.0 299.2,365.7 300.8,358.7 295.4,354.1 302.5,353.5" fill="#FFD43B" stroke="#e67e22" stroke-width="1.2" />
<polygon points="329.8,347.0 332.6,353.5 339.7,354.1 334.3,358.7 335.9,365.7 329.8,362.0 323.8,365.7 325.4,358.7 320.0,354.1 327.1,353.5" fill="#FFD43B" stroke="#e67e22" stroke-width="1.2" />
<polygon points="354.5,347.0 357.2,353.5 364.3,354.1 358.9,358.7 360.5,365.7 354.5,362.0 348.4,365.7 350.0,358.7 344.6,354.1 351.7,353.5" fill="#FFD43B" stroke="#e67e22" stroke-width="1.2" />
<polygon points="379.1,347.0 381.8,353.5 388.9,354.1 383.5,358.7 385.2,365.7 379.1,362.0 373.0,365.7 374.7,358.7 369.2,354.1 376.3,353.5" fill="#FFD43B" stroke="#e67e22" stroke-width="1.2" />
<polygon points="403.7,347.0 406.4,353.5 413.5,354.1 408.1,358.7 409.8,365.7 403.7,362.0 397.6,365.7 399.3,358.7 393.9,354.1 401.0,353.5" fill="#FFD43B" stroke="#e67e22" stroke-width="1.2" />
<polygon points="108.3,371.6 111.0,378.2 118.1,378.7 112.7,383.4 114.4,390.3 108.3,386.6 102.2,390.3 103.9,383.4 98.5,378.7 105.6,378.2" fill="#FFD43B" stroke="#e67e22" stroke-width="1.2" />
<polygon points="132.9,371.6 135.7,378.2 142.8,378.7 137.3,383.4 139.0,390.3 132.9,386.6 126.8,390.3 128.5,383.4 123.1,378.7 130.2,378.2" fill="#FFD43B" stroke="#e67e22" stroke-width="1.2" />
<polygon points="157.5,371.6 160.3,378.2 167.4,378.7 162.0,383.4 163.6,390.3 157.5,386.6 151.5,390.3 153.1,383.4 147.7,378.7 154.8,378.2" fill="#FFD43B" stroke="#e67e22" stroke-width="1.2" />
<polygon points="182.2,371.6 184.9,378.2 192.0,378.7 186.6,383.4 188.2,390.3 182.2,386.6 176.1,390.3 177.7,383.4 172.3,378.7 179.4,378.2" fill="#FFD43B" stroke="#e67e22" stroke-width="1.2" />
<polygon points="206.8,371.6 209.5,378.2 216.6,378.7 211.2,383.4 212.8,390.3 206.8,386.6 200.7,390.3 202.3,383.4 196.9,378.7 204.0,378.2" fill="#FFD43B" stroke="#e67e22" stroke-width="1.2" />
<polygon points="231.4,371.6 234.1,378.2 241.2,378.7 235.8,383.4 237.5,390.3 231.4,386.6 225.3,390.3 227.0,383.4 221.6,378.7 228.7,378.2" fill="#FFD43B" stroke="#e67e22" stroke-width="1.2" />
<polygon points="256.0,371.6 258.7,378.2 265.8,378.7 260.4,383.4 262.1,390.3 256.0,386.6 249.9,390.3 251.6,383.4 246.2,378.7 253.3,378.2" fill="#FFD43B" stroke="#e67e22" stroke-width="1.2" />
<polygon points="280.6,371.6 283.3,378.2 290.4,378.7 285.0,383.4 286.7,390.3 280.6,386.6 274.5,390.3 276.2,383.4 270.8,378.7 277.9,378.2" fill="#FFD43B" stroke="#e67e22" stroke-width="1.2" />
<polygon points="305.2,371.6 308.0,378.2 315.1,378.7 309.7,383.4 311.3,390.3 305.2,386.6 299.2,390.3 300.8,383.4 295.4,378.7 302.5,378.2" fill="#FFD43B" stroke="#e67e22" stroke-width="1.2" />
<polygon points="329.8,371.6 332.6,378.2 339.7,378.7 334.3,383.4 335.9,390.3 329.8,386.6 323.8,390.3 325.4,383.4 320.0,378.7 327.1,378.2" fill="#FFD43B" stroke="#e67e22" stroke-width="1.2" />
<polygon points="354.5,371.6 357.2,378.2 364.3,378.7 358.9,383.4 360.5,390.3 354.5,386.6 348.4,390.3 350.0,383.4 344.6,378.7 351.7,378.2" fill="#FFD43B" stroke="#e67e22" stroke-width="1.2" />
<polygon points="379.1,371.6 381.8,378.2 388.9,378.7 383.5,383.4 385.2,390.3 379.1,386.6 373.0,390.3 374.7,383.4 369.2,378.7 376.3,378.2" fill="#FFD43B" stroke="#e67e22" stroke-width="1.2" />
<polygon points="403.7,371.6 406.4,378.2 413.5,378.7 408.1,383.4 409.8,390.3 403.7,386.6 397.6,390.3 399.3,383.4 393.9,378.7 401.0,378.2" fill="#FFD43B" stroke="#e67e22" stroke-width="1.2" />
  </g>

  <!-- Bottom Banner -->
  <g filter="url(#shadow-52)">
    <rect x="96" y="420" width="320" height="54" rx="27" fill="#FFF" stroke="#c6e8ea" stroke-width="4" />
    <text x="256" y="455" 
          text-anchor="middle" 
          font-size="28" 
          font-weight="900" 
          font-family="Comic Sans MS, Arial Rounded MT Bold, sans-serif" 
          fill="#7C5730">52 - Fifty Two</text>
  </g>
</svg>