<svg xmlns="http://www.w3.org/2000/svg" viewBox="0 0 512 512" width="100%" height="100%">
  <defs>
    <!-- Background Gradient -->
    <linearGradient id="bg-53" x1="0%" y1="0%" x2="0%" y2="100%">
      <stop offset="0%" stop-color="#f9feff" />
      <stop offset="100%" stop-color="#effdff" />
    </linearGradient>

    <!-- Front Face Gradient -->
    <linearGradient id="front-53" x1="0%" y1="0%" x2="0%" y2="100%">
      <stop offset="0%" stop-color="#89f1ff" />
      <stop offset="100%" stop-color="#00d8f4" />
    </linearGradient>

    <!-- 3D Side/Extrusion Color -->
    <linearGradient id="side-53" x1="0%" y1="0%" x2="0%" y2="100%">
      <stop offset="0%" stop-color="#00abc1" />
      <stop offset="100%" stop-color="#007e8e" />
    </linearGradient>

    <!-- Leaf Sprout Gradient -->
    <linearGradient id="leaf-53" x1="0%" y1="0%" x2="100%" y2="100%">
      <stop offset="0%" stop-color="#7BED9F" />
      <stop offset="100%" stop-color="#2ED573" />
    </linearGradient>

    <!-- 3D Base Shadow -->
    <filter id="shadow-53">
      <feDropShadow dx="0" dy="10" stdDeviation="8" flood-color="#000000" flood-opacity="0.25" />
    </filter>
  </defs>

  <!-- Background -->
  <circle cx="256" cy="256" r="236" fill="url(#bg-53)" stroke="#c6e6ea" stroke-width="6" />

  <!-- Sparkles -->
  <g fill="#FFD43B">
    <circle cx="100" cy="130" r="8" />
    <circle cx="400" cy="120" r="10" />
    <circle cx="430" cy="330" r="7" />
  </g>

  <!-- Number -->
  <g filter="url(#shadow-53)">
    <!-- Side -->
    <text x="256" y="215" 
          text-anchor="middle" 
          font-size="180" 
          font-weight="900" 
          font-family="Comic Sans MS, Arial Rounded MT Bold, sans-serif" 
          fill="url(#side-53)" 
          stroke="url(#side-53)" 
          stroke-width="18" 
          transform="translate(0, 12)">53</text>

    <!-- Front -->
    <text x="256" y="215" 
          text-anchor="middle" 
          font-size="180" 
          font-weight="900" 
          font-family="Comic Sans MS, Arial Rounded MT Bold, sans-serif" 
          fill="url(#front-53)" 
          stroke="url(#front-53)" 
          stroke-width="18">53</text>
  </g>

  <!-- Cute Sprout -->
  <g transform="translate(256 65)">
    <path d="M0 0 Q-4 -15 -8 -24" stroke="#8B5A2B" stroke-width="5" fill="none" />
    <path d="M-8 -24 C-28 -28 -30 -5 -10 0 Z" fill="url(#leaf-53)" />
    <path d="M-8 -24 C5 -35 22 -20 5 -5 Z" fill="url(#leaf-53)" />
  </g>

  <!-- Eyes -->
  <g>
    <circle cx="215" cy="180" r="18" fill="#222" />
    <circle cx="208" cy="172" r="6" fill="#FFF" />

    <circle cx="297" cy="180" r="18" fill="#222" />
    <circle cx="290" cy="172" r="6" fill="#FFF" />
  </g>

  <!-- Cheeks -->
  <ellipse cx="185" cy="210" rx="18" ry="12" fill="#FF6B81" opacity="0.45" />
  <ellipse cx="327" cy="210" rx="18" ry="12" fill="#FF6B81" opacity="0.45" />

  <!-- Smile -->
  <path d="M225 225 Q256 255 287 225" stroke="#7A1022" stroke-width="8" fill="none" stroke-linecap="round" />

  <!-- Counting Object -->
  <g>
    <circle cx="107.4" cy="308.8" r="7.7" fill="#3498db" /><polygon points="107.4,316.5 106.0,318.4 108.9,318.4" fill="#3498db" /><path d="M 107.4 318.4 Q 105.5 323.2 107.4 328.0" stroke="#b2bec3" stroke-width="1.5" fill="none" />
<circle cx="130.3" cy="308.8" r="7.7" fill="#3498db" /><polygon points="130.3,316.5 128.8,318.4 131.7,318.4" fill="#3498db" /><path d="M 130.3 318.4 Q 128.4 323.2 130.3 328.0" stroke="#b2bec3" stroke-width="1.5" fill="none" />
<circle cx="153.1" cy="308.8" r="7.7" fill="#3498db" /><polygon points="153.1,316.5 151.7,318.4 154.6,318.4" fill="#3498db" /><path d="M 153.1 318.4 Q 151.2 323.2 153.1 328.0" stroke="#b2bec3" stroke-width="1.5" fill="none" />
<circle cx="176.0" cy="308.8" r="7.7" fill="#3498db" /><polygon points="176.0,316.5 174.6,318.4 177.4,318.4" fill="#3498db" /><path d="M 176.0 318.4 Q 174.1 323.2 176.0 328.0" stroke="#b2bec3" stroke-width="1.5" fill="none" />
<circle cx="198.9" cy="308.8" r="7.7" fill="#3498db" /><polygon points="198.9,316.5 197.4,318.4 200.3,318.4" fill="#3498db" /><path d="M 198.9 318.4 Q 196.9 323.2 198.9 328.0" stroke="#b2bec3" stroke-width="1.5" fill="none" />
<circle cx="221.7" cy="308.8" r="7.7" fill="#3498db" /><polygon points="221.7,316.5 220.3,318.4 223.2,318.4" fill="#3498db" /><path d="M 221.7 318.4 Q 219.8 323.2 221.7 328.0" stroke="#b2bec3" stroke-width="1.5" fill="none" />
<circle cx="244.6" cy="308.8" r="7.7" fill="#3498db" /><polygon points="244.6,316.5 243.1,318.4 246.0,318.4" fill="#3498db" /><path d="M 244.6 318.4 Q 242.7 323.2 244.6 328.0" stroke="#b2bec3" stroke-width="1.5" fill="none" />
<circle cx="267.4" cy="308.8" r="7.7" fill="#3498db" /><polygon points="267.4,316.5 266.0,318.4 268.9,318.4" fill="#3498db" /><path d="M 267.4 318.4 Q 265.5 323.2 267.4 328.0" stroke="#b2bec3" stroke-width="1.5" fill="none" />
<circle cx="290.3" cy="308.8" r="7.7" fill="#3498db" /><polygon points="290.3,316.5 288.8,318.4 291.7,318.4" fill="#3498db" /><path d="M 290.3 318.4 Q 288.4 323.2 290.3 328.0" stroke="#b2bec3" stroke-width="1.5" fill="none" />
<circle cx="313.1" cy="308.8" r="7.7" fill="#3498db" /><polygon points="313.1,316.5 311.7,318.4 314.6,318.4" fill="#3498db" /><path d="M 313.1 318.4 Q 311.2 323.2 313.1 328.0" stroke="#b2bec3" stroke-width="1.5" fill="none" />
<circle cx="336.0" cy="308.8" r="7.7" fill="#3498db" /><polygon points="336.0,316.5 334.6,318.4 337.4,318.4" fill="#3498db" /><path d="M 336.0 318.4 Q 334.1 323.2 336.0 328.0" stroke="#b2bec3" stroke-width="1.5" fill="none" />
<circle cx="358.9" cy="308.8" r="7.7" fill="#3498db" /><polygon points="358.9,316.5 357.4,318.4 360.3,318.4" fill="#3498db" /><path d="M 358.9 318.4 Q 356.9 323.2 358.9 328.0" stroke="#b2bec3" stroke-width="1.5" fill="none" />
<circle cx="381.7" cy="308.8" r="7.7" fill="#3498db" /><polygon points="381.7,316.5 380.3,318.4 383.2,318.4" fill="#3498db" /><path d="M 381.7 318.4 Q 379.8 323.2 381.7 328.0" stroke="#b2bec3" stroke-width="1.5" fill="none" />
<circle cx="404.6" cy="308.8" r="7.7" fill="#3498db" /><polygon points="404.6,316.5 403.1,318.4 406.0,318.4" fill="#3498db" /><path d="M 404.6 318.4 Q 402.7 323.2 404.6 328.0" stroke="#b2bec3" stroke-width="1.5" fill="none" />
<circle cx="107.4" cy="331.7" r="7.7" fill="#3498db" /><polygon points="107.4,339.3 106.0,341.3 108.9,341.3" fill="#3498db" /><path d="M 107.4 341.3 Q 105.5 346.1 107.4 350.9" stroke="#b2bec3" stroke-width="1.5" fill="none" />
<circle cx="130.3" cy="331.7" r="7.7" fill="#3498db" /><polygon points="130.3,339.3 128.8,341.3 131.7,341.3" fill="#3498db" /><path d="M 130.3 341.3 Q 128.4 346.1 130.3 350.9" stroke="#b2bec3" stroke-width="1.5" fill="none" />
<circle cx="153.1" cy="331.7" r="7.7" fill="#3498db" /><polygon points="153.1,339.3 151.7,341.3 154.6,341.3" fill="#3498db" /><path d="M 153.1 341.3 Q 151.2 346.1 153.1 350.9" stroke="#b2bec3" stroke-width="1.5" fill="none" />
<circle cx="176.0" cy="331.7" r="7.7" fill="#3498db" /><polygon points="176.0,339.3 174.6,341.3 177.4,341.3" fill="#3498db" /><path d="M 176.0 341.3 Q 174.1 346.1 176.0 350.9" stroke="#b2bec3" stroke-width="1.5" fill="none" />
<circle cx="198.9" cy="331.7" r="7.7" fill="#3498db" /><polygon points="198.9,339.3 197.4,341.3 200.3,341.3" fill="#3498db" /><path d="M 198.9 341.3 Q 196.9 346.1 198.9 350.9" stroke="#b2bec3" stroke-width="1.5" fill="none" />
<circle cx="221.7" cy="331.7" r="7.7" fill="#3498db" /><polygon points="221.7,339.3 220.3,341.3 223.2,341.3" fill="#3498db" /><path d="M 221.7 341.3 Q 219.8 346.1 221.7 350.9" stroke="#b2bec3" stroke-width="1.5" fill="none" />
<circle cx="244.6" cy="331.7" r="7.7" fill="#3498db" /><polygon points="244.6,339.3 243.1,341.3 246.0,341.3" fill="#3498db" /><path d="M 244.6 341.3 Q 242.7 346.1 244.6 350.9" stroke="#b2bec3" stroke-width="1.5" fill="none" />
<circle cx="267.4" cy="331.7" r="7.7" fill="#3498db" /><polygon points="267.4,339.3 266.0,341.3 268.9,341.3" fill="#3498db" /><path d="M 267.4 341.3 Q 265.5 346.1 267.4 350.9" stroke="#b2bec3" stroke-width="1.5" fill="none" />
<circle cx="290.3" cy="331.7" r="7.7" fill="#3498db" /><polygon points="290.3,339.3 288.8,341.3 291.7,341.3" fill="#3498db" /><path d="M 290.3 341.3 Q 288.4 346.1 290.3 350.9" stroke="#b2bec3" stroke-width="1.5" fill="none" />
<circle cx="313.1" cy="331.7" r="7.7" fill="#3498db" /><polygon points="313.1,339.3 311.7,341.3 314.6,341.3" fill="#3498db" /><path d="M 313.1 341.3 Q 311.2 346.1 313.1 350.9" stroke="#b2bec3" stroke-width="1.5" fill="none" />
<circle cx="336.0" cy="331.7" r="7.7" fill="#3498db" /><polygon points="336.0,339.3 334.6,341.3 337.4,341.3" fill="#3498db" /><path d="M 336.0 341.3 Q 334.1 346.1 336.0 350.9" stroke="#b2bec3" stroke-width="1.5" fill="none" />
<circle cx="358.9" cy="331.7" r="7.7" fill="#3498db" /><polygon points="358.9,339.3 357.4,341.3 360.3,341.3" fill="#3498db" /><path d="M 358.9 341.3 Q 356.9 346.1 358.9 350.9" stroke="#b2bec3" stroke-width="1.5" fill="none" />
<circle cx="381.7" cy="331.7" r="7.7" fill="#3498db" /><polygon points="381.7,339.3 380.3,341.3 383.2,341.3" fill="#3498db" /><path d="M 381.7 341.3 Q 379.8 346.1 381.7 350.9" stroke="#b2bec3" stroke-width="1.5" fill="none" />
<circle cx="404.6" cy="331.7" r="7.7" fill="#3498db" /><polygon points="404.6,339.3 403.1,341.3 406.0,341.3" fill="#3498db" /><path d="M 404.6 341.3 Q 402.7 346.1 404.6 350.9" stroke="#b2bec3" stroke-width="1.5" fill="none" />
<circle cx="107.4" cy="354.5" r="7.7" fill="#3498db" /><polygon points="107.4,362.2 106.0,364.1 108.9,364.1" fill="#3498db" /><path d="M 107.4 364.1 Q 105.5 368.9 107.4 373.7" stroke="#b2bec3" stroke-width="1.5" fill="none" />
<circle cx="130.3" cy="354.5" r="7.7" fill="#3498db" /><polygon points="130.3,362.2 128.8,364.1 131.7,364.1" fill="#3498db" /><path d="M 130.3 364.1 Q 128.4 368.9 130.3 373.7" stroke="#b2bec3" stroke-width="1.5" fill="none" />
<circle cx="153.1" cy="354.5" r="7.7" fill="#3498db" /><polygon points="153.1,362.2 151.7,364.1 154.6,364.1" fill="#3498db" /><path d="M 153.1 364.1 Q 151.2 368.9 153.1 373.7" stroke="#b2bec3" stroke-width="1.5" fill="none" />
<circle cx="176.0" cy="354.5" r="7.7" fill="#3498db" /><polygon points="176.0,362.2 174.6,364.1 177.4,364.1" fill="#3498db" /><path d="M 176.0 364.1 Q 174.1 368.9 176.0 373.7" stroke="#b2bec3" stroke-width="1.5" fill="none" />
<circle cx="198.9" cy="354.5" r="7.7" fill="#3498db" /><polygon points="198.9,362.2 197.4,364.1 200.3,364.1" fill="#3498db" /><path d="M 198.9 364.1 Q 196.9 368.9 198.9 373.7" stroke="#b2bec3" stroke-width="1.5" fill="none" />
<circle cx="221.7" cy="354.5" r="7.7" fill="#3498db" /><polygon points="221.7,362.2 220.3,364.1 223.2,364.1" fill="#3498db" /><path d="M 221.7 364.1 Q 219.8 368.9 221.7 373.7" stroke="#b2bec3" stroke-width="1.5" fill="none" />
<circle cx="244.6" cy="354.5" r="7.7" fill="#3498db" /><polygon points="244.6,362.2 243.1,364.1 246.0,364.1" fill="#3498db" /><path d="M 244.6 364.1 Q 242.7 368.9 244.6 373.7" stroke="#b2bec3" stroke-width="1.5" fill="none" />
<circle cx="267.4" cy="354.5" r="7.7" fill="#3498db" /><polygon points="267.4,362.2 266.0,364.1 268.9,364.1" fill="#3498db" /><path d="M 267.4 364.1 Q 265.5 368.9 267.4 373.7" stroke="#b2bec3" stroke-width="1.5" fill="none" />
<circle cx="290.3" cy="354.5" r="7.7" fill="#3498db" /><polygon points="290.3,362.2 288.8,364.1 291.7,364.1" fill="#3498db" /><path d="M 290.3 364.1 Q 288.4 368.9 290.3 373.7" stroke="#b2bec3" stroke-width="1.5" fill="none" />
<circle cx="313.1" cy="354.5" r="7.7" fill="#3498db" /><polygon points="313.1,362.2 311.7,364.1 314.6,364.1" fill="#3498db" /><path d="M 313.1 364.1 Q 311.2 368.9 313.1 373.7" stroke="#b2bec3" stroke-width="1.5" fill="none" />
<circle cx="336.0" cy="354.5" r="7.7" fill="#3498db" /><polygon points="336.0,362.2 334.6,364.1 337.4,364.1" fill="#3498db" /><path d="M 336.0 364.1 Q 334.1 368.9 336.0 373.7" stroke="#b2bec3" stroke-width="1.5" fill="none" />
<circle cx="358.9" cy="354.5" r="7.7" fill="#3498db" /><polygon points="358.9,362.2 357.4,364.1 360.3,364.1" fill="#3498db" /><path d="M 358.9 364.1 Q 356.9 368.9 358.9 373.7" stroke="#b2bec3" stroke-width="1.5" fill="none" />
<circle cx="381.7" cy="354.5" r="7.7" fill="#3498db" /><polygon points="381.7,362.2 380.3,364.1 383.2,364.1" fill="#3498db" /><path d="M 381.7 364.1 Q 379.8 368.9 381.7 373.7" stroke="#b2bec3" stroke-width="1.5" fill="none" />
<circle cx="404.6" cy="354.5" r="7.7" fill="#3498db" /><polygon points="404.6,362.2 403.1,364.1 406.0,364.1" fill="#3498db" /><path d="M 404.6 364.1 Q 402.7 368.9 404.6 373.7" stroke="#b2bec3" stroke-width="1.5" fill="none" />
<circle cx="107.4" cy="377.4" r="7.7" fill="#3498db" /><polygon points="107.4,385.0 106.0,387.0 108.9,387.0" fill="#3498db" /><path d="M 107.4 387.0 Q 105.5 391.8 107.4 396.6" stroke="#b2bec3" stroke-width="1.5" fill="none" />
<circle cx="130.3" cy="377.4" r="7.7" fill="#3498db" /><polygon points="130.3,385.0 128.8,387.0 131.7,387.0" fill="#3498db" /><path d="M 130.3 387.0 Q 128.4 391.8 130.3 396.6" stroke="#b2bec3" stroke-width="1.5" fill="none" />
<circle cx="153.1" cy="377.4" r="7.7" fill="#3498db" /><polygon points="153.1,385.0 151.7,387.0 154.6,387.0" fill="#3498db" /><path d="M 153.1 387.0 Q 151.2 391.8 153.1 396.6" stroke="#b2bec3" stroke-width="1.5" fill="none" />
<circle cx="176.0" cy="377.4" r="7.7" fill="#3498db" /><polygon points="176.0,385.0 174.6,387.0 177.4,387.0" fill="#3498db" /><path d="M 176.0 387.0 Q 174.1 391.8 176.0 396.6" stroke="#b2bec3" stroke-width="1.5" fill="none" />
<circle cx="198.9" cy="377.4" r="7.7" fill="#3498db" /><polygon points="198.9,385.0 197.4,387.0 200.3,387.0" fill="#3498db" /><path d="M 198.9 387.0 Q 196.9 391.8 198.9 396.6" stroke="#b2bec3" stroke-width="1.5" fill="none" />
<circle cx="221.7" cy="377.4" r="7.7" fill="#3498db" /><polygon points="221.7,385.0 220.3,387.0 223.2,387.0" fill="#3498db" /><path d="M 221.7 387.0 Q 219.8 391.8 221.7 396.6" stroke="#b2bec3" stroke-width="1.5" fill="none" />
<circle cx="244.6" cy="377.4" r="7.7" fill="#3498db" /><polygon points="244.6,385.0 243.1,387.0 246.0,387.0" fill="#3498db" /><path d="M 244.6 387.0 Q 242.7 391.8 244.6 396.6" stroke="#b2bec3" stroke-width="1.5" fill="none" />
<circle cx="267.4" cy="377.4" r="7.7" fill="#3498db" /><polygon points="267.4,385.0 266.0,387.0 268.9,387.0" fill="#3498db" /><path d="M 267.4 387.0 Q 265.5 391.8 267.4 396.6" stroke="#b2bec3" stroke-width="1.5" fill="none" />
<circle cx="290.3" cy="377.4" r="7.7" fill="#3498db" /><polygon points="290.3,385.0 288.8,387.0 291.7,387.0" fill="#3498db" /><path d="M 290.3 387.0 Q 288.4 391.8 290.3 396.6" stroke="#b2bec3" stroke-width="1.5" fill="none" />
<circle cx="313.1" cy="377.4" r="7.7" fill="#3498db" /><polygon points="313.1,385.0 311.7,387.0 314.6,387.0" fill="#3498db" /><path d="M 313.1 387.0 Q 311.2 391.8 313.1 396.6" stroke="#b2bec3" stroke-width="1.5" fill="none" />
<circle cx="336.0" cy="377.4" r="7.7" fill="#3498db" /><polygon points="336.0,385.0 334.6,387.0 337.4,387.0" fill="#3498db" /><path d="M 336.0 387.0 Q 334.1 391.8 336.0 396.6" stroke="#b2bec3" stroke-width="1.5" fill="none" />
  </g>

  <!-- Bottom Banner -->
  <g filter="url(#shadow-53)">
    <rect x="96" y="420" width="320" height="54" rx="27" fill="#FFF" stroke="#c6e6ea" stroke-width="4" />
    <text x="256" y="455" 
          text-anchor="middle" 
          font-size="28" 
          font-weight="900" 
          font-family="Comic Sans MS, Arial Rounded MT Bold, sans-serif" 
          fill="#7C5730">53 - Fifty Three</text>
  </g>
</svg>