<svg xmlns="http://www.w3.org/2000/svg" viewBox="0 0 512 512" width="100%" height="100%">
  <defs>
    <!-- Background Gradient -->
    <linearGradient id="bg-55" x1="0%" y1="0%" x2="0%" y2="100%">
      <stop offset="0%" stop-color="#f9fdff" />
      <stop offset="100%" stop-color="#effbff" />
    </linearGradient>

    <!-- Front Face Gradient -->
    <linearGradient id="front-55" x1="0%" y1="0%" x2="0%" y2="100%">
      <stop offset="0%" stop-color="#89e3ff" />
      <stop offset="100%" stop-color="#00bbf4" />
    </linearGradient>

    <!-- 3D Side/Extrusion Color -->
    <linearGradient id="side-55" x1="0%" y1="0%" x2="0%" y2="100%">
      <stop offset="0%" stop-color="#0094c1" />
      <stop offset="100%" stop-color="#006d8e" />
    </linearGradient>

    <!-- Leaf Sprout Gradient -->
    <linearGradient id="leaf-55" x1="0%" y1="0%" x2="100%" y2="100%">
      <stop offset="0%" stop-color="#7BED9F" />
      <stop offset="100%" stop-color="#2ED573" />
    </linearGradient>

    <!-- 3D Base Shadow -->
    <filter id="shadow-55">
      <feDropShadow dx="0" dy="10" stdDeviation="8" flood-color="#000000" flood-opacity="0.25" />
    </filter>
  </defs>

  <!-- Background -->
  <circle cx="256" cy="256" r="236" fill="url(#bg-55)" stroke="#c6e2ea" stroke-width="6" />

  <!-- Sparkles -->
  <g fill="#FFD43B">
    <circle cx="100" cy="130" r="8" />
    <circle cx="400" cy="120" r="10" />
    <circle cx="430" cy="330" r="7" />
  </g>

  <!-- Number -->
  <g filter="url(#shadow-55)">
    <!-- Side -->
    <text x="256" y="215" 
          text-anchor="middle" 
          font-size="180" 
          font-weight="900" 
          font-family="Comic Sans MS, Arial Rounded MT Bold, sans-serif" 
          fill="url(#side-55)" 
          stroke="url(#side-55)" 
          stroke-width="18" 
          transform="translate(0, 12)">55</text>

    <!-- Front -->
    <text x="256" y="215" 
          text-anchor="middle" 
          font-size="180" 
          font-weight="900" 
          font-family="Comic Sans MS, Arial Rounded MT Bold, sans-serif" 
          fill="url(#front-55)" 
          stroke="url(#front-55)" 
          stroke-width="18">55</text>
  </g>

  <!-- Cute Sprout -->
  <g transform="translate(256 65)">
    <path d="M0 0 Q-4 -15 -8 -24" stroke="#8B5A2B" stroke-width="5" fill="none" />
    <path d="M-8 -24 C-28 -28 -30 -5 -10 0 Z" fill="url(#leaf-55)" />
    <path d="M-8 -24 C5 -35 22 -20 5 -5 Z" fill="url(#leaf-55)" />
  </g>

  <!-- Eyes -->
  <g>
    <circle cx="215" cy="180" r="18" fill="#222" />
    <circle cx="208" cy="172" r="6" fill="#FFF" />

    <circle cx="297" cy="180" r="18" fill="#222" />
    <circle cx="290" cy="172" r="6" fill="#FFF" />
  </g>

  <!-- Cheeks -->
  <ellipse cx="185" cy="210" rx="18" ry="12" fill="#FF6B81" opacity="0.45" />
  <ellipse cx="327" cy="210" rx="18" ry="12" fill="#FF6B81" opacity="0.45" />

  <!-- Smile -->
  <path d="M225 225 Q256 255 287 225" stroke="#7A1022" stroke-width="8" fill="none" stroke-linecap="round" />

  <!-- Counting Object -->
  <g>
    <path d="M 107.4 318.4 C 95.9 308.8 99.7 303.0 107.4 306.9 C 115.1 303.0 118.9 308.8 107.4 318.4 Z" fill="#ff7675" />
<path d="M 130.3 318.4 C 118.8 308.8 122.6 303.0 130.3 306.9 C 138.0 303.0 141.8 308.8 130.3 318.4 Z" fill="#ff7675" />
<path d="M 153.1 318.4 C 141.6 308.8 145.5 303.0 153.1 306.9 C 160.8 303.0 164.7 308.8 153.1 318.4 Z" fill="#ff7675" />
<path d="M 176.0 318.4 C 164.5 308.8 168.3 303.0 176.0 306.9 C 183.7 303.0 187.5 308.8 176.0 318.4 Z" fill="#ff7675" />
<path d="M 198.9 318.4 C 187.3 308.8 191.2 303.0 198.9 306.9 C 206.5 303.0 210.4 308.8 198.9 318.4 Z" fill="#ff7675" />
<path d="M 221.7 318.4 C 210.2 308.8 214.0 303.0 221.7 306.9 C 229.4 303.0 233.2 308.8 221.7 318.4 Z" fill="#ff7675" />
<path d="M 244.6 318.4 C 233.1 308.8 236.9 303.0 244.6 306.9 C 252.3 303.0 256.1 308.8 244.6 318.4 Z" fill="#ff7675" />
<path d="M 267.4 318.4 C 255.9 308.8 259.7 303.0 267.4 306.9 C 275.1 303.0 278.9 308.8 267.4 318.4 Z" fill="#ff7675" />
<path d="M 290.3 318.4 C 278.8 308.8 282.6 303.0 290.3 306.9 C 298.0 303.0 301.8 308.8 290.3 318.4 Z" fill="#ff7675" />
<path d="M 313.1 318.4 C 301.6 308.8 305.5 303.0 313.1 306.9 C 320.8 303.0 324.7 308.8 313.1 318.4 Z" fill="#ff7675" />
<path d="M 336.0 318.4 C 324.5 308.8 328.3 303.0 336.0 306.9 C 343.7 303.0 347.5 308.8 336.0 318.4 Z" fill="#ff7675" />
<path d="M 358.9 318.4 C 347.3 308.8 351.2 303.0 358.9 306.9 C 366.5 303.0 370.4 308.8 358.9 318.4 Z" fill="#ff7675" />
<path d="M 381.7 318.4 C 370.2 308.8 374.0 303.0 381.7 306.9 C 389.4 303.0 393.2 308.8 381.7 318.4 Z" fill="#ff7675" />
<path d="M 404.6 318.4 C 393.1 308.8 396.9 303.0 404.6 306.9 C 412.3 303.0 416.1 308.8 404.6 318.4 Z" fill="#ff7675" />
<path d="M 107.4 341.3 C 95.9 331.7 99.7 325.9 107.4 329.7 C 115.1 325.9 118.9 331.7 107.4 341.3 Z" fill="#ff7675" />
<path d="M 130.3 341.3 C 118.8 331.7 122.6 325.9 130.3 329.7 C 138.0 325.9 141.8 331.7 130.3 341.3 Z" fill="#ff7675" />
<path d="M 153.1 341.3 C 141.6 331.7 145.5 325.9 153.1 329.7 C 160.8 325.9 164.7 331.7 153.1 341.3 Z" fill="#ff7675" />
<path d="M 176.0 341.3 C 164.5 331.7 168.3 325.9 176.0 329.7 C 183.7 325.9 187.5 331.7 176.0 341.3 Z" fill="#ff7675" />
<path d="M 198.9 341.3 C 187.3 331.7 191.2 325.9 198.9 329.7 C 206.5 325.9 210.4 331.7 198.9 341.3 Z" fill="#ff7675" />
<path d="M 221.7 341.3 C 210.2 331.7 214.0 325.9 221.7 329.7 C 229.4 325.9 233.2 331.7 221.7 341.3 Z" fill="#ff7675" />
<path d="M 244.6 341.3 C 233.1 331.7 236.9 325.9 244.6 329.7 C 252.3 325.9 256.1 331.7 244.6 341.3 Z" fill="#ff7675" />
<path d="M 267.4 341.3 C 255.9 331.7 259.7 325.9 267.4 329.7 C 275.1 325.9 278.9 331.7 267.4 341.3 Z" fill="#ff7675" />
<path d="M 290.3 341.3 C 278.8 331.7 282.6 325.9 290.3 329.7 C 298.0 325.9 301.8 331.7 290.3 341.3 Z" fill="#ff7675" />
<path d="M 313.1 341.3 C 301.6 331.7 305.5 325.9 313.1 329.7 C 320.8 325.9 324.7 331.7 313.1 341.3 Z" fill="#ff7675" />
<path d="M 336.0 341.3 C 324.5 331.7 328.3 325.9 336.0 329.7 C 343.7 325.9 347.5 331.7 336.0 341.3 Z" fill="#ff7675" />
<path d="M 358.9 341.3 C 347.3 331.7 351.2 325.9 358.9 329.7 C 366.5 325.9 370.4 331.7 358.9 341.3 Z" fill="#ff7675" />
<path d="M 381.7 341.3 C 370.2 331.7 374.0 325.9 381.7 329.7 C 389.4 325.9 393.2 331.7 381.7 341.3 Z" fill="#ff7675" />
<path d="M 404.6 341.3 C 393.1 331.7 396.9 325.9 404.6 329.7 C 412.3 325.9 416.1 331.7 404.6 341.3 Z" fill="#ff7675" />
<path d="M 107.4 364.1 C 95.9 354.5 99.7 348.7 107.4 352.6 C 115.1 348.7 118.9 354.5 107.4 364.1 Z" fill="#ff7675" />
<path d="M 130.3 364.1 C 118.8 354.5 122.6 348.7 130.3 352.6 C 138.0 348.7 141.8 354.5 130.3 364.1 Z" fill="#ff7675" />
<path d="M 153.1 364.1 C 141.6 354.5 145.5 348.7 153.1 352.6 C 160.8 348.7 164.7 354.5 153.1 364.1 Z" fill="#ff7675" />
<path d="M 176.0 364.1 C 164.5 354.5 168.3 348.7 176.0 352.6 C 183.7 348.7 187.5 354.5 176.0 364.1 Z" fill="#ff7675" />
<path d="M 198.9 364.1 C 187.3 354.5 191.2 348.7 198.9 352.6 C 206.5 348.7 210.4 354.5 198.9 364.1 Z" fill="#ff7675" />
<path d="M 221.7 364.1 C 210.2 354.5 214.0 348.7 221.7 352.6 C 229.4 348.7 233.2 354.5 221.7 364.1 Z" fill="#ff7675" />
<path d="M 244.6 364.1 C 233.1 354.5 236.9 348.7 244.6 352.6 C 252.3 348.7 256.1 354.5 244.6 364.1 Z" fill="#ff7675" />
<path d="M 267.4 364.1 C 255.9 354.5 259.7 348.7 267.4 352.6 C 275.1 348.7 278.9 354.5 267.4 364.1 Z" fill="#ff7675" />
<path d="M 290.3 364.1 C 278.8 354.5 282.6 348.7 290.3 352.6 C 298.0 348.7 301.8 354.5 290.3 364.1 Z" fill="#ff7675" />
<path d="M 313.1 364.1 C 301.6 354.5 305.5 348.7 313.1 352.6 C 320.8 348.7 324.7 354.5 313.1 364.1 Z" fill="#ff7675" />
<path d="M 336.0 364.1 C 324.5 354.5 328.3 348.7 336.0 352.6 C 343.7 348.7 347.5 354.5 336.0 364.1 Z" fill="#ff7675" />
<path d="M 358.9 364.1 C 347.3 354.5 351.2 348.7 358.9 352.6 C 366.5 348.7 370.4 354.5 358.9 364.1 Z" fill="#ff7675" />
<path d="M 381.7 364.1 C 370.2 354.5 374.0 348.7 381.7 352.6 C 389.4 348.7 393.2 354.5 381.7 364.1 Z" fill="#ff7675" />
<path d="M 404.6 364.1 C 393.1 354.5 396.9 348.7 404.6 352.6 C 412.3 348.7 416.1 354.5 404.6 364.1 Z" fill="#ff7675" />
<path d="M 107.4 387.0 C 95.9 377.4 99.7 371.6 107.4 375.4 C 115.1 371.6 118.9 377.4 107.4 387.0 Z" fill="#ff7675" />
<path d="M 130.3 387.0 C 118.8 377.4 122.6 371.6 130.3 375.4 C 138.0 371.6 141.8 377.4 130.3 387.0 Z" fill="#ff7675" />
<path d="M 153.1 387.0 C 141.6 377.4 145.5 371.6 153.1 375.4 C 160.8 371.6 164.7 377.4 153.1 387.0 Z" fill="#ff7675" />
<path d="M 176.0 387.0 C 164.5 377.4 168.3 371.6 176.0 375.4 C 183.7 371.6 187.5 377.4 176.0 387.0 Z" fill="#ff7675" />
<path d="M 198.9 387.0 C 187.3 377.4 191.2 371.6 198.9 375.4 C 206.5 371.6 210.4 377.4 198.9 387.0 Z" fill="#ff7675" />
<path d="M 221.7 387.0 C 210.2 377.4 214.0 371.6 221.7 375.4 C 229.4 371.6 233.2 377.4 221.7 387.0 Z" fill="#ff7675" />
<path d="M 244.6 387.0 C 233.1 377.4 236.9 371.6 244.6 375.4 C 252.3 371.6 256.1 377.4 244.6 387.0 Z" fill="#ff7675" />
<path d="M 267.4 387.0 C 255.9 377.4 259.7 371.6 267.4 375.4 C 275.1 371.6 278.9 377.4 267.4 387.0 Z" fill="#ff7675" />
<path d="M 290.3 387.0 C 278.8 377.4 282.6 371.6 290.3 375.4 C 298.0 371.6 301.8 377.4 290.3 387.0 Z" fill="#ff7675" />
<path d="M 313.1 387.0 C 301.6 377.4 305.5 371.6 313.1 375.4 C 320.8 371.6 324.7 377.4 313.1 387.0 Z" fill="#ff7675" />
<path d="M 336.0 387.0 C 324.5 377.4 328.3 371.6 336.0 375.4 C 343.7 371.6 347.5 377.4 336.0 387.0 Z" fill="#ff7675" />
<path d="M 358.9 387.0 C 347.3 377.4 351.2 371.6 358.9 375.4 C 366.5 371.6 370.4 377.4 358.9 387.0 Z" fill="#ff7675" />
<path d="M 381.7 387.0 C 370.2 377.4 374.0 371.6 381.7 375.4 C 389.4 371.6 393.2 377.4 381.7 387.0 Z" fill="#ff7675" />
  </g>

  <!-- Bottom Banner -->
  <g filter="url(#shadow-55)">
    <rect x="96" y="420" width="320" height="54" rx="27" fill="#FFF" stroke="#c6e2ea" stroke-width="4" />
    <text x="256" y="455" 
          text-anchor="middle" 
          font-size="28" 
          font-weight="900" 
          font-family="Comic Sans MS, Arial Rounded MT Bold, sans-serif" 
          fill="#7C5730">55 - Fifty Five</text>
  </g>
</svg>