<svg xmlns="http://www.w3.org/2000/svg" viewBox="0 0 512 512" width="100%" height="100%">
  <defs>
    <!-- Background Gradient -->
    <linearGradient id="bg-62" x1="0%" y1="0%" x2="0%" y2="100%">
      <stop offset="0%" stop-color="#f9fbff" />
      <stop offset="100%" stop-color="#eff5ff" />
    </linearGradient>

    <!-- Front Face Gradient -->
    <linearGradient id="front-62" x1="0%" y1="0%" x2="0%" y2="100%">
      <stop offset="0%" stop-color="#89b2ff" />
      <stop offset="100%" stop-color="#0055f4" />
    </linearGradient>

    <!-- 3D Side/Extrusion Color -->
    <linearGradient id="side-62" x1="0%" y1="0%" x2="0%" y2="100%">
      <stop offset="0%" stop-color="#0043c1" />
      <stop offset="100%" stop-color="#00318e" />
    </linearGradient>

    <!-- Leaf Sprout Gradient -->
    <linearGradient id="leaf-62" x1="0%" y1="0%" x2="100%" y2="100%">
      <stop offset="0%" stop-color="#7BED9F" />
      <stop offset="100%" stop-color="#2ED573" />
    </linearGradient>

    <!-- 3D Base Shadow -->
    <filter id="shadow-62">
      <feDropShadow dx="0" dy="10" stdDeviation="8" flood-color="#000000" flood-opacity="0.25" />
    </filter>
  </defs>

  <!-- Background -->
  <circle cx="256" cy="256" r="236" fill="url(#bg-62)" stroke="#c6d3ea" stroke-width="6" />

  <!-- Sparkles -->
  <g fill="#FFD43B">
    <circle cx="100" cy="130" r="8" />
    <circle cx="400" cy="120" r="10" />
    <circle cx="430" cy="330" r="7" />
  </g>

  <!-- Number -->
  <g filter="url(#shadow-62)">
    <!-- Side -->
    <text x="256" y="215" 
          text-anchor="middle" 
          font-size="180" 
          font-weight="900" 
          font-family="Comic Sans MS, Arial Rounded MT Bold, sans-serif" 
          fill="url(#side-62)" 
          stroke="url(#side-62)" 
          stroke-width="18" 
          transform="translate(0, 12)">62</text>

    <!-- Front -->
    <text x="256" y="215" 
          text-anchor="middle" 
          font-size="180" 
          font-weight="900" 
          font-family="Comic Sans MS, Arial Rounded MT Bold, sans-serif" 
          fill="url(#front-62)" 
          stroke="url(#front-62)" 
          stroke-width="18">62</text>
  </g>

  <!-- Cute Sprout -->
  <g transform="translate(256 65)">
    <path d="M0 0 Q-4 -15 -8 -24" stroke="#8B5A2B" stroke-width="5" fill="none" />
    <path d="M-8 -24 C-28 -28 -30 -5 -10 0 Z" fill="url(#leaf-62)" />
    <path d="M-8 -24 C5 -35 22 -20 5 -5 Z" fill="url(#leaf-62)" />
  </g>

  <!-- Eyes -->
  <g>
    <circle cx="215" cy="180" r="18" fill="#222" />
    <circle cx="208" cy="172" r="6" fill="#FFF" />

    <circle cx="297" cy="180" r="18" fill="#222" />
    <circle cx="290" cy="172" r="6" fill="#FFF" />
  </g>

  <!-- Cheeks -->
  <ellipse cx="185" cy="210" rx="18" ry="12" fill="#FF6B81" opacity="0.45" />
  <ellipse cx="327" cy="210" rx="18" ry="12" fill="#FF6B81" opacity="0.45" />

  <!-- Smile -->
  <path d="M225 225 Q256 255 287 225" stroke="#7A1022" stroke-width="8" fill="none" stroke-linecap="round" />

  <!-- Counting Object -->
  <g>
    <polygon points="124.0,291.8 126.4,297.6 132.8,298.1 128.0,302.3 129.4,308.5 124.0,305.2 118.6,308.5 120.0,302.3 115.2,298.1 121.6,297.6" fill="#FFD43B" stroke="#e67e22" stroke-width="1.2" />
<polygon points="146.0,291.8 148.4,297.6 154.8,298.1 150.0,302.3 151.4,308.5 146.0,305.2 140.6,308.5 142.0,302.3 137.2,298.1 143.6,297.6" fill="#FFD43B" stroke="#e67e22" stroke-width="1.2" />
<polygon points="168.0,291.8 170.4,297.6 176.8,298.1 172.0,302.3 173.4,308.5 168.0,305.2 162.6,308.5 164.0,302.3 159.2,298.1 165.6,297.6" fill="#FFD43B" stroke="#e67e22" stroke-width="1.2" />
<polygon points="190.0,291.8 192.4,297.6 198.8,298.1 194.0,302.3 195.4,308.5 190.0,305.2 184.6,308.5 186.0,302.3 181.2,298.1 187.6,297.6" fill="#FFD43B" stroke="#e67e22" stroke-width="1.2" />
<polygon points="212.0,291.8 214.4,297.6 220.8,298.1 216.0,302.3 217.4,308.5 212.0,305.2 206.6,308.5 208.0,302.3 203.2,298.1 209.6,297.6" fill="#FFD43B" stroke="#e67e22" stroke-width="1.2" />
<polygon points="234.0,291.8 236.4,297.6 242.8,298.1 238.0,302.3 239.4,308.5 234.0,305.2 228.6,308.5 230.0,302.3 225.2,298.1 231.6,297.6" fill="#FFD43B" stroke="#e67e22" stroke-width="1.2" />
<polygon points="256.0,291.8 258.4,297.6 264.8,298.1 260.0,302.3 261.4,308.5 256.0,305.2 250.6,308.5 252.0,302.3 247.2,298.1 253.6,297.6" fill="#FFD43B" stroke="#e67e22" stroke-width="1.2" />
<polygon points="278.0,291.8 280.4,297.6 286.8,298.1 282.0,302.3 283.4,308.5 278.0,305.2 272.6,308.5 274.0,302.3 269.2,298.1 275.6,297.6" fill="#FFD43B" stroke="#e67e22" stroke-width="1.2" />
<polygon points="300.0,291.8 302.4,297.6 308.8,298.1 304.0,302.3 305.4,308.5 300.0,305.2 294.6,308.5 296.0,302.3 291.2,298.1 297.6,297.6" fill="#FFD43B" stroke="#e67e22" stroke-width="1.2" />
<polygon points="322.0,291.8 324.4,297.6 330.8,298.1 326.0,302.3 327.4,308.5 322.0,305.2 316.6,308.5 318.0,302.3 313.2,298.1 319.6,297.6" fill="#FFD43B" stroke="#e67e22" stroke-width="1.2" />
<polygon points="344.0,291.8 346.4,297.6 352.8,298.1 348.0,302.3 349.4,308.5 344.0,305.2 338.6,308.5 340.0,302.3 335.2,298.1 341.6,297.6" fill="#FFD43B" stroke="#e67e22" stroke-width="1.2" />
<polygon points="366.0,291.8 368.4,297.6 374.8,298.1 370.0,302.3 371.4,308.5 366.0,305.2 360.6,308.5 362.0,302.3 357.2,298.1 363.6,297.6" fill="#FFD43B" stroke="#e67e22" stroke-width="1.2" />
<polygon points="388.0,291.8 390.4,297.6 396.8,298.1 392.0,302.3 393.4,308.5 388.0,305.2 382.6,308.5 384.0,302.3 379.2,298.1 385.6,297.6" fill="#FFD43B" stroke="#e67e22" stroke-width="1.2" />
<polygon points="124.0,313.8 126.4,319.6 132.8,320.1 128.0,324.3 129.4,330.5 124.0,327.2 118.6,330.5 120.0,324.3 115.2,320.1 121.6,319.6" fill="#FFD43B" stroke="#e67e22" stroke-width="1.2" />
<polygon points="146.0,313.8 148.4,319.6 154.8,320.1 150.0,324.3 151.4,330.5 146.0,327.2 140.6,330.5 142.0,324.3 137.2,320.1 143.6,319.6" fill="#FFD43B" stroke="#e67e22" stroke-width="1.2" />
<polygon points="168.0,313.8 170.4,319.6 176.8,320.1 172.0,324.3 173.4,330.5 168.0,327.2 162.6,330.5 164.0,324.3 159.2,320.1 165.6,319.6" fill="#FFD43B" stroke="#e67e22" stroke-width="1.2" />
<polygon points="190.0,313.8 192.4,319.6 198.8,320.1 194.0,324.3 195.4,330.5 190.0,327.2 184.6,330.5 186.0,324.3 181.2,320.1 187.6,319.6" fill="#FFD43B" stroke="#e67e22" stroke-width="1.2" />
<polygon points="212.0,313.8 214.4,319.6 220.8,320.1 216.0,324.3 217.4,330.5 212.0,327.2 206.6,330.5 208.0,324.3 203.2,320.1 209.6,319.6" fill="#FFD43B" stroke="#e67e22" stroke-width="1.2" />
<polygon points="234.0,313.8 236.4,319.6 242.8,320.1 238.0,324.3 239.4,330.5 234.0,327.2 228.6,330.5 230.0,324.3 225.2,320.1 231.6,319.6" fill="#FFD43B" stroke="#e67e22" stroke-width="1.2" />
<polygon points="256.0,313.8 258.4,319.6 264.8,320.1 260.0,324.3 261.4,330.5 256.0,327.2 250.6,330.5 252.0,324.3 247.2,320.1 253.6,319.6" fill="#FFD43B" stroke="#e67e22" stroke-width="1.2" />
<polygon points="278.0,313.8 280.4,319.6 286.8,320.1 282.0,324.3 283.4,330.5 278.0,327.2 272.6,330.5 274.0,324.3 269.2,320.1 275.6,319.6" fill="#FFD43B" stroke="#e67e22" stroke-width="1.2" />
<polygon points="300.0,313.8 302.4,319.6 308.8,320.1 304.0,324.3 305.4,330.5 300.0,327.2 294.6,330.5 296.0,324.3 291.2,320.1 297.6,319.6" fill="#FFD43B" stroke="#e67e22" stroke-width="1.2" />
<polygon points="322.0,313.8 324.4,319.6 330.8,320.1 326.0,324.3 327.4,330.5 322.0,327.2 316.6,330.5 318.0,324.3 313.2,320.1 319.6,319.6" fill="#FFD43B" stroke="#e67e22" stroke-width="1.2" />
<polygon points="344.0,313.8 346.4,319.6 352.8,320.1 348.0,324.3 349.4,330.5 344.0,327.2 338.6,330.5 340.0,324.3 335.2,320.1 341.6,319.6" fill="#FFD43B" stroke="#e67e22" stroke-width="1.2" />
<polygon points="366.0,313.8 368.4,319.6 374.8,320.1 370.0,324.3 371.4,330.5 366.0,327.2 360.6,330.5 362.0,324.3 357.2,320.1 363.6,319.6" fill="#FFD43B" stroke="#e67e22" stroke-width="1.2" />
<polygon points="388.0,313.8 390.4,319.6 396.8,320.1 392.0,324.3 393.4,330.5 388.0,327.2 382.6,330.5 384.0,324.3 379.2,320.1 385.6,319.6" fill="#FFD43B" stroke="#e67e22" stroke-width="1.2" />
<polygon points="124.0,335.8 126.4,341.6 132.8,342.1 128.0,346.3 129.4,352.5 124.0,349.2 118.6,352.5 120.0,346.3 115.2,342.1 121.6,341.6" fill="#FFD43B" stroke="#e67e22" stroke-width="1.2" />
<polygon points="146.0,335.8 148.4,341.6 154.8,342.1 150.0,346.3 151.4,352.5 146.0,349.2 140.6,352.5 142.0,346.3 137.2,342.1 143.6,341.6" fill="#FFD43B" stroke="#e67e22" stroke-width="1.2" />
<polygon points="168.0,335.8 170.4,341.6 176.8,342.1 172.0,346.3 173.4,352.5 168.0,349.2 162.6,352.5 164.0,346.3 159.2,342.1 165.6,341.6" fill="#FFD43B" stroke="#e67e22" stroke-width="1.2" />
<polygon points="190.0,335.8 192.4,341.6 198.8,342.1 194.0,346.3 195.4,352.5 190.0,349.2 184.6,352.5 186.0,346.3 181.2,342.1 187.6,341.6" fill="#FFD43B" stroke="#e67e22" stroke-width="1.2" />
<polygon points="212.0,335.8 214.4,341.6 220.8,342.1 216.0,346.3 217.4,352.5 212.0,349.2 206.6,352.5 208.0,346.3 203.2,342.1 209.6,341.6" fill="#FFD43B" stroke="#e67e22" stroke-width="1.2" />
<polygon points="234.0,335.8 236.4,341.6 242.8,342.1 238.0,346.3 239.4,352.5 234.0,349.2 228.6,352.5 230.0,346.3 225.2,342.1 231.6,341.6" fill="#FFD43B" stroke="#e67e22" stroke-width="1.2" />
<polygon points="256.0,335.8 258.4,341.6 264.8,342.1 260.0,346.3 261.4,352.5 256.0,349.2 250.6,352.5 252.0,346.3 247.2,342.1 253.6,341.6" fill="#FFD43B" stroke="#e67e22" stroke-width="1.2" />
<polygon points="278.0,335.8 280.4,341.6 286.8,342.1 282.0,346.3 283.4,352.5 278.0,349.2 272.6,352.5 274.0,346.3 269.2,342.1 275.6,341.6" fill="#FFD43B" stroke="#e67e22" stroke-width="1.2" />
<polygon points="300.0,335.8 302.4,341.6 308.8,342.1 304.0,346.3 305.4,352.5 300.0,349.2 294.6,352.5 296.0,346.3 291.2,342.1 297.6,341.6" fill="#FFD43B" stroke="#e67e22" stroke-width="1.2" />
<polygon points="322.0,335.8 324.4,341.6 330.8,342.1 326.0,346.3 327.4,352.5 322.0,349.2 316.6,352.5 318.0,346.3 313.2,342.1 319.6,341.6" fill="#FFD43B" stroke="#e67e22" stroke-width="1.2" />
<polygon points="344.0,335.8 346.4,341.6 352.8,342.1 348.0,346.3 349.4,352.5 344.0,349.2 338.6,352.5 340.0,346.3 335.2,342.1 341.6,341.6" fill="#FFD43B" stroke="#e67e22" stroke-width="1.2" />
<polygon points="366.0,335.8 368.4,341.6 374.8,342.1 370.0,346.3 371.4,352.5 366.0,349.2 360.6,352.5 362.0,346.3 357.2,342.1 363.6,341.6" fill="#FFD43B" stroke="#e67e22" stroke-width="1.2" />
<polygon points="388.0,335.8 390.4,341.6 396.8,342.1 392.0,346.3 393.4,352.5 388.0,349.2 382.6,352.5 384.0,346.3 379.2,342.1 385.6,341.6" fill="#FFD43B" stroke="#e67e22" stroke-width="1.2" />
<polygon points="124.0,357.8 126.4,363.6 132.8,364.1 128.0,368.3 129.4,374.5 124.0,371.2 118.6,374.5 120.0,368.3 115.2,364.1 121.6,363.6" fill="#FFD43B" stroke="#e67e22" stroke-width="1.2" />
<polygon points="146.0,357.8 148.4,363.6 154.8,364.1 150.0,368.3 151.4,374.5 146.0,371.2 140.6,374.5 142.0,368.3 137.2,364.1 143.6,363.6" fill="#FFD43B" stroke="#e67e22" stroke-width="1.2" />
<polygon points="168.0,357.8 170.4,363.6 176.8,364.1 172.0,368.3 173.4,374.5 168.0,371.2 162.6,374.5 164.0,368.3 159.2,364.1 165.6,363.6" fill="#FFD43B" stroke="#e67e22" stroke-width="1.2" />
<polygon points="190.0,357.8 192.4,363.6 198.8,364.1 194.0,368.3 195.4,374.5 190.0,371.2 184.6,374.5 186.0,368.3 181.2,364.1 187.6,363.6" fill="#FFD43B" stroke="#e67e22" stroke-width="1.2" />
<polygon points="212.0,357.8 214.4,363.6 220.8,364.1 216.0,368.3 217.4,374.5 212.0,371.2 206.6,374.5 208.0,368.3 203.2,364.1 209.6,363.6" fill="#FFD43B" stroke="#e67e22" stroke-width="1.2" />
<polygon points="234.0,357.8 236.4,363.6 242.8,364.1 238.0,368.3 239.4,374.5 234.0,371.2 228.6,374.5 230.0,368.3 225.2,364.1 231.6,363.6" fill="#FFD43B" stroke="#e67e22" stroke-width="1.2" />
<polygon points="256.0,357.8 258.4,363.6 264.8,364.1 260.0,368.3 261.4,374.5 256.0,371.2 250.6,374.5 252.0,368.3 247.2,364.1 253.6,363.6" fill="#FFD43B" stroke="#e67e22" stroke-width="1.2" />
<polygon points="278.0,357.8 280.4,363.6 286.8,364.1 282.0,368.3 283.4,374.5 278.0,371.2 272.6,374.5 274.0,368.3 269.2,364.1 275.6,363.6" fill="#FFD43B" stroke="#e67e22" stroke-width="1.2" />
<polygon points="300.0,357.8 302.4,363.6 308.8,364.1 304.0,368.3 305.4,374.5 300.0,371.2 294.6,374.5 296.0,368.3 291.2,364.1 297.6,363.6" fill="#FFD43B" stroke="#e67e22" stroke-width="1.2" />
<polygon points="322.0,357.8 324.4,363.6 330.8,364.1 326.0,368.3 327.4,374.5 322.0,371.2 316.6,374.5 318.0,368.3 313.2,364.1 319.6,363.6" fill="#FFD43B" stroke="#e67e22" stroke-width="1.2" />
<polygon points="344.0,357.8 346.4,363.6 352.8,364.1 348.0,368.3 349.4,374.5 344.0,371.2 338.6,374.5 340.0,368.3 335.2,364.1 341.6,363.6" fill="#FFD43B" stroke="#e67e22" stroke-width="1.2" />
<polygon points="366.0,357.8 368.4,363.6 374.8,364.1 370.0,368.3 371.4,374.5 366.0,371.2 360.6,374.5 362.0,368.3 357.2,364.1 363.6,363.6" fill="#FFD43B" stroke="#e67e22" stroke-width="1.2" />
<polygon points="388.0,357.8 390.4,363.6 396.8,364.1 392.0,368.3 393.4,374.5 388.0,371.2 382.6,374.5 384.0,368.3 379.2,364.1 385.6,363.6" fill="#FFD43B" stroke="#e67e22" stroke-width="1.2" />
<polygon points="124.0,379.8 126.4,385.6 132.8,386.1 128.0,390.3 129.4,396.5 124.0,393.2 118.6,396.5 120.0,390.3 115.2,386.1 121.6,385.6" fill="#FFD43B" stroke="#e67e22" stroke-width="1.2" />
<polygon points="146.0,379.8 148.4,385.6 154.8,386.1 150.0,390.3 151.4,396.5 146.0,393.2 140.6,396.5 142.0,390.3 137.2,386.1 143.6,385.6" fill="#FFD43B" stroke="#e67e22" stroke-width="1.2" />
<polygon points="168.0,379.8 170.4,385.6 176.8,386.1 172.0,390.3 173.4,396.5 168.0,393.2 162.6,396.5 164.0,390.3 159.2,386.1 165.6,385.6" fill="#FFD43B" stroke="#e67e22" stroke-width="1.2" />
<polygon points="190.0,379.8 192.4,385.6 198.8,386.1 194.0,390.3 195.4,396.5 190.0,393.2 184.6,396.5 186.0,390.3 181.2,386.1 187.6,385.6" fill="#FFD43B" stroke="#e67e22" stroke-width="1.2" />
<polygon points="212.0,379.8 214.4,385.6 220.8,386.1 216.0,390.3 217.4,396.5 212.0,393.2 206.6,396.5 208.0,390.3 203.2,386.1 209.6,385.6" fill="#FFD43B" stroke="#e67e22" stroke-width="1.2" />
<polygon points="234.0,379.8 236.4,385.6 242.8,386.1 238.0,390.3 239.4,396.5 234.0,393.2 228.6,396.5 230.0,390.3 225.2,386.1 231.6,385.6" fill="#FFD43B" stroke="#e67e22" stroke-width="1.2" />
<polygon points="256.0,379.8 258.4,385.6 264.8,386.1 260.0,390.3 261.4,396.5 256.0,393.2 250.6,396.5 252.0,390.3 247.2,386.1 253.6,385.6" fill="#FFD43B" stroke="#e67e22" stroke-width="1.2" />
<polygon points="278.0,379.8 280.4,385.6 286.8,386.1 282.0,390.3 283.4,396.5 278.0,393.2 272.6,396.5 274.0,390.3 269.2,386.1 275.6,385.6" fill="#FFD43B" stroke="#e67e22" stroke-width="1.2" />
<polygon points="300.0,379.8 302.4,385.6 308.8,386.1 304.0,390.3 305.4,396.5 300.0,393.2 294.6,396.5 296.0,390.3 291.2,386.1 297.6,385.6" fill="#FFD43B" stroke="#e67e22" stroke-width="1.2" />
<polygon points="322.0,379.8 324.4,385.6 330.8,386.1 326.0,390.3 327.4,396.5 322.0,393.2 316.6,396.5 318.0,390.3 313.2,386.1 319.6,385.6" fill="#FFD43B" stroke="#e67e22" stroke-width="1.2" />
  </g>

  <!-- Bottom Banner -->
  <g filter="url(#shadow-62)">
    <rect x="96" y="420" width="320" height="54" rx="27" fill="#FFF" stroke="#c6d3ea" stroke-width="4" />
    <text x="256" y="455" 
          text-anchor="middle" 
          font-size="28" 
          font-weight="900" 
          font-family="Comic Sans MS, Arial Rounded MT Bold, sans-serif" 
          fill="#7C5730">62 - Sixty Two</text>
  </g>
</svg>