<svg xmlns="http://www.w3.org/2000/svg" viewBox="0 0 512 512" width="100%" height="100%">
  <defs>
    <!-- Background Gradient -->
    <linearGradient id="bg-63" x1="0%" y1="0%" x2="0%" y2="100%">
      <stop offset="0%" stop-color="#f9fbff" />
      <stop offset="100%" stop-color="#eff4ff" />
    </linearGradient>

    <!-- Front Face Gradient -->
    <linearGradient id="front-63" x1="0%" y1="0%" x2="0%" y2="100%">
      <stop offset="0%" stop-color="#89aaff" />
      <stop offset="100%" stop-color="#0045f4" />
    </linearGradient>

    <!-- 3D Side/Extrusion Color -->
    <linearGradient id="side-63" x1="0%" y1="0%" x2="0%" y2="100%">
      <stop offset="0%" stop-color="#0036c1" />
      <stop offset="100%" stop-color="#00288e" />
    </linearGradient>

    <!-- Leaf Sprout Gradient -->
    <linearGradient id="leaf-63" x1="0%" y1="0%" x2="100%" y2="100%">
      <stop offset="0%" stop-color="#7BED9F" />
      <stop offset="100%" stop-color="#2ED573" />
    </linearGradient>

    <!-- 3D Base Shadow -->
    <filter id="shadow-63">
      <feDropShadow dx="0" dy="10" stdDeviation="8" flood-color="#000000" flood-opacity="0.25" />
    </filter>
  </defs>

  <!-- Background -->
  <circle cx="256" cy="256" r="236" fill="url(#bg-63)" stroke="#c6d0ea" stroke-width="6" />

  <!-- Sparkles -->
  <g fill="#FFD43B">
    <circle cx="100" cy="130" r="8" />
    <circle cx="400" cy="120" r="10" />
    <circle cx="430" cy="330" r="7" />
  </g>

  <!-- Number -->
  <g filter="url(#shadow-63)">
    <!-- Side -->
    <text x="256" y="215" 
          text-anchor="middle" 
          font-size="180" 
          font-weight="900" 
          font-family="Comic Sans MS, Arial Rounded MT Bold, sans-serif" 
          fill="url(#side-63)" 
          stroke="url(#side-63)" 
          stroke-width="18" 
          transform="translate(0, 12)">63</text>

    <!-- Front -->
    <text x="256" y="215" 
          text-anchor="middle" 
          font-size="180" 
          font-weight="900" 
          font-family="Comic Sans MS, Arial Rounded MT Bold, sans-serif" 
          fill="url(#front-63)" 
          stroke="url(#front-63)" 
          stroke-width="18">63</text>
  </g>

  <!-- Cute Sprout -->
  <g transform="translate(256 65)">
    <path d="M0 0 Q-4 -15 -8 -24" stroke="#8B5A2B" stroke-width="5" fill="none" />
    <path d="M-8 -24 C-28 -28 -30 -5 -10 0 Z" fill="url(#leaf-63)" />
    <path d="M-8 -24 C5 -35 22 -20 5 -5 Z" fill="url(#leaf-63)" />
  </g>

  <!-- Eyes -->
  <g>
    <circle cx="215" cy="180" r="18" fill="#222" />
    <circle cx="208" cy="172" r="6" fill="#FFF" />

    <circle cx="297" cy="180" r="18" fill="#222" />
    <circle cx="290" cy="172" r="6" fill="#FFF" />
  </g>

  <!-- Cheeks -->
  <ellipse cx="185" cy="210" rx="18" ry="12" fill="#FF6B81" opacity="0.45" />
  <ellipse cx="327" cy="210" rx="18" ry="12" fill="#FF6B81" opacity="0.45" />

  <!-- Smile -->
  <path d="M225 225 Q256 255 287 225" stroke="#7A1022" stroke-width="8" fill="none" stroke-linecap="round" />

  <!-- Counting Object -->
  <g>
    <circle cx="124.0" cy="299.2" r="7.4" fill="#3498db" /><polygon points="124.0,306.5 122.6,308.4 125.4,308.4" fill="#3498db" /><path d="M 124.0 308.4 Q 122.2 313.0 124.0 317.6" stroke="#b2bec3" stroke-width="1.5" fill="none" />
<circle cx="146.0" cy="299.2" r="7.4" fill="#3498db" /><polygon points="146.0,306.5 144.6,308.4 147.4,308.4" fill="#3498db" /><path d="M 146.0 308.4 Q 144.2 313.0 146.0 317.6" stroke="#b2bec3" stroke-width="1.5" fill="none" />
<circle cx="168.0" cy="299.2" r="7.4" fill="#3498db" /><polygon points="168.0,306.5 166.6,308.4 169.4,308.4" fill="#3498db" /><path d="M 168.0 308.4 Q 166.2 313.0 168.0 317.6" stroke="#b2bec3" stroke-width="1.5" fill="none" />
<circle cx="190.0" cy="299.2" r="7.4" fill="#3498db" /><polygon points="190.0,306.5 188.6,308.4 191.4,308.4" fill="#3498db" /><path d="M 190.0 308.4 Q 188.2 313.0 190.0 317.6" stroke="#b2bec3" stroke-width="1.5" fill="none" />
<circle cx="212.0" cy="299.2" r="7.4" fill="#3498db" /><polygon points="212.0,306.5 210.6,308.4 213.4,308.4" fill="#3498db" /><path d="M 212.0 308.4 Q 210.2 313.0 212.0 317.6" stroke="#b2bec3" stroke-width="1.5" fill="none" />
<circle cx="234.0" cy="299.2" r="7.4" fill="#3498db" /><polygon points="234.0,306.5 232.6,308.4 235.4,308.4" fill="#3498db" /><path d="M 234.0 308.4 Q 232.2 313.0 234.0 317.6" stroke="#b2bec3" stroke-width="1.5" fill="none" />
<circle cx="256.0" cy="299.2" r="7.4" fill="#3498db" /><polygon points="256.0,306.5 254.6,308.4 257.4,308.4" fill="#3498db" /><path d="M 256.0 308.4 Q 254.2 313.0 256.0 317.6" stroke="#b2bec3" stroke-width="1.5" fill="none" />
<circle cx="278.0" cy="299.2" r="7.4" fill="#3498db" /><polygon points="278.0,306.5 276.6,308.4 279.4,308.4" fill="#3498db" /><path d="M 278.0 308.4 Q 276.2 313.0 278.0 317.6" stroke="#b2bec3" stroke-width="1.5" fill="none" />
<circle cx="300.0" cy="299.2" r="7.4" fill="#3498db" /><polygon points="300.0,306.5 298.6,308.4 301.4,308.4" fill="#3498db" /><path d="M 300.0 308.4 Q 298.2 313.0 300.0 317.6" stroke="#b2bec3" stroke-width="1.5" fill="none" />
<circle cx="322.0" cy="299.2" r="7.4" fill="#3498db" /><polygon points="322.0,306.5 320.6,308.4 323.4,308.4" fill="#3498db" /><path d="M 322.0 308.4 Q 320.2 313.0 322.0 317.6" stroke="#b2bec3" stroke-width="1.5" fill="none" />
<circle cx="344.0" cy="299.2" r="7.4" fill="#3498db" /><polygon points="344.0,306.5 342.6,308.4 345.4,308.4" fill="#3498db" /><path d="M 344.0 308.4 Q 342.2 313.0 344.0 317.6" stroke="#b2bec3" stroke-width="1.5" fill="none" />
<circle cx="366.0" cy="299.2" r="7.4" fill="#3498db" /><polygon points="366.0,306.5 364.6,308.4 367.4,308.4" fill="#3498db" /><path d="M 366.0 308.4 Q 364.2 313.0 366.0 317.6" stroke="#b2bec3" stroke-width="1.5" fill="none" />
<circle cx="388.0" cy="299.2" r="7.4" fill="#3498db" /><polygon points="388.0,306.5 386.6,308.4 389.4,308.4" fill="#3498db" /><path d="M 388.0 308.4 Q 386.2 313.0 388.0 317.6" stroke="#b2bec3" stroke-width="1.5" fill="none" />
<circle cx="124.0" cy="321.2" r="7.4" fill="#3498db" /><polygon points="124.0,328.5 122.6,330.4 125.4,330.4" fill="#3498db" /><path d="M 124.0 330.4 Q 122.2 335.0 124.0 339.6" stroke="#b2bec3" stroke-width="1.5" fill="none" />
<circle cx="146.0" cy="321.2" r="7.4" fill="#3498db" /><polygon points="146.0,328.5 144.6,330.4 147.4,330.4" fill="#3498db" /><path d="M 146.0 330.4 Q 144.2 335.0 146.0 339.6" stroke="#b2bec3" stroke-width="1.5" fill="none" />
<circle cx="168.0" cy="321.2" r="7.4" fill="#3498db" /><polygon points="168.0,328.5 166.6,330.4 169.4,330.4" fill="#3498db" /><path d="M 168.0 330.4 Q 166.2 335.0 168.0 339.6" stroke="#b2bec3" stroke-width="1.5" fill="none" />
<circle cx="190.0" cy="321.2" r="7.4" fill="#3498db" /><polygon points="190.0,328.5 188.6,330.4 191.4,330.4" fill="#3498db" /><path d="M 190.0 330.4 Q 188.2 335.0 190.0 339.6" stroke="#b2bec3" stroke-width="1.5" fill="none" />
<circle cx="212.0" cy="321.2" r="7.4" fill="#3498db" /><polygon points="212.0,328.5 210.6,330.4 213.4,330.4" fill="#3498db" /><path d="M 212.0 330.4 Q 210.2 335.0 212.0 339.6" stroke="#b2bec3" stroke-width="1.5" fill="none" />
<circle cx="234.0" cy="321.2" r="7.4" fill="#3498db" /><polygon points="234.0,328.5 232.6,330.4 235.4,330.4" fill="#3498db" /><path d="M 234.0 330.4 Q 232.2 335.0 234.0 339.6" stroke="#b2bec3" stroke-width="1.5" fill="none" />
<circle cx="256.0" cy="321.2" r="7.4" fill="#3498db" /><polygon points="256.0,328.5 254.6,330.4 257.4,330.4" fill="#3498db" /><path d="M 256.0 330.4 Q 254.2 335.0 256.0 339.6" stroke="#b2bec3" stroke-width="1.5" fill="none" />
<circle cx="278.0" cy="321.2" r="7.4" fill="#3498db" /><polygon points="278.0,328.5 276.6,330.4 279.4,330.4" fill="#3498db" /><path d="M 278.0 330.4 Q 276.2 335.0 278.0 339.6" stroke="#b2bec3" stroke-width="1.5" fill="none" />
<circle cx="300.0" cy="321.2" r="7.4" fill="#3498db" /><polygon points="300.0,328.5 298.6,330.4 301.4,330.4" fill="#3498db" /><path d="M 300.0 330.4 Q 298.2 335.0 300.0 339.6" stroke="#b2bec3" stroke-width="1.5" fill="none" />
<circle cx="322.0" cy="321.2" r="7.4" fill="#3498db" /><polygon points="322.0,328.5 320.6,330.4 323.4,330.4" fill="#3498db" /><path d="M 322.0 330.4 Q 320.2 335.0 322.0 339.6" stroke="#b2bec3" stroke-width="1.5" fill="none" />
<circle cx="344.0" cy="321.2" r="7.4" fill="#3498db" /><polygon points="344.0,328.5 342.6,330.4 345.4,330.4" fill="#3498db" /><path d="M 344.0 330.4 Q 342.2 335.0 344.0 339.6" stroke="#b2bec3" stroke-width="1.5" fill="none" />
<circle cx="366.0" cy="321.2" r="7.4" fill="#3498db" /><polygon points="366.0,328.5 364.6,330.4 367.4,330.4" fill="#3498db" /><path d="M 366.0 330.4 Q 364.2 335.0 366.0 339.6" stroke="#b2bec3" stroke-width="1.5" fill="none" />
<circle cx="388.0" cy="321.2" r="7.4" fill="#3498db" /><polygon points="388.0,328.5 386.6,330.4 389.4,330.4" fill="#3498db" /><path d="M 388.0 330.4 Q 386.2 335.0 388.0 339.6" stroke="#b2bec3" stroke-width="1.5" fill="none" />
<circle cx="124.0" cy="343.2" r="7.4" fill="#3498db" /><polygon points="124.0,350.5 122.6,352.4 125.4,352.4" fill="#3498db" /><path d="M 124.0 352.4 Q 122.2 357.0 124.0 361.6" stroke="#b2bec3" stroke-width="1.5" fill="none" />
<circle cx="146.0" cy="343.2" r="7.4" fill="#3498db" /><polygon points="146.0,350.5 144.6,352.4 147.4,352.4" fill="#3498db" /><path d="M 146.0 352.4 Q 144.2 357.0 146.0 361.6" stroke="#b2bec3" stroke-width="1.5" fill="none" />
<circle cx="168.0" cy="343.2" r="7.4" fill="#3498db" /><polygon points="168.0,350.5 166.6,352.4 169.4,352.4" fill="#3498db" /><path d="M 168.0 352.4 Q 166.2 357.0 168.0 361.6" stroke="#b2bec3" stroke-width="1.5" fill="none" />
<circle cx="190.0" cy="343.2" r="7.4" fill="#3498db" /><polygon points="190.0,350.5 188.6,352.4 191.4,352.4" fill="#3498db" /><path d="M 190.0 352.4 Q 188.2 357.0 190.0 361.6" stroke="#b2bec3" stroke-width="1.5" fill="none" />
<circle cx="212.0" cy="343.2" r="7.4" fill="#3498db" /><polygon points="212.0,350.5 210.6,352.4 213.4,352.4" fill="#3498db" /><path d="M 212.0 352.4 Q 210.2 357.0 212.0 361.6" stroke="#b2bec3" stroke-width="1.5" fill="none" />
<circle cx="234.0" cy="343.2" r="7.4" fill="#3498db" /><polygon points="234.0,350.5 232.6,352.4 235.4,352.4" fill="#3498db" /><path d="M 234.0 352.4 Q 232.2 357.0 234.0 361.6" stroke="#b2bec3" stroke-width="1.5" fill="none" />
<circle cx="256.0" cy="343.2" r="7.4" fill="#3498db" /><polygon points="256.0,350.5 254.6,352.4 257.4,352.4" fill="#3498db" /><path d="M 256.0 352.4 Q 254.2 357.0 256.0 361.6" stroke="#b2bec3" stroke-width="1.5" fill="none" />
<circle cx="278.0" cy="343.2" r="7.4" fill="#3498db" /><polygon points="278.0,350.5 276.6,352.4 279.4,352.4" fill="#3498db" /><path d="M 278.0 352.4 Q 276.2 357.0 278.0 361.6" stroke="#b2bec3" stroke-width="1.5" fill="none" />
<circle cx="300.0" cy="343.2" r="7.4" fill="#3498db" /><polygon points="300.0,350.5 298.6,352.4 301.4,352.4" fill="#3498db" /><path d="M 300.0 352.4 Q 298.2 357.0 300.0 361.6" stroke="#b2bec3" stroke-width="1.5" fill="none" />
<circle cx="322.0" cy="343.2" r="7.4" fill="#3498db" /><polygon points="322.0,350.5 320.6,352.4 323.4,352.4" fill="#3498db" /><path d="M 322.0 352.4 Q 320.2 357.0 322.0 361.6" stroke="#b2bec3" stroke-width="1.5" fill="none" />
<circle cx="344.0" cy="343.2" r="7.4" fill="#3498db" /><polygon points="344.0,350.5 342.6,352.4 345.4,352.4" fill="#3498db" /><path d="M 344.0 352.4 Q 342.2 357.0 344.0 361.6" stroke="#b2bec3" stroke-width="1.5" fill="none" />
<circle cx="366.0" cy="343.2" r="7.4" fill="#3498db" /><polygon points="366.0,350.5 364.6,352.4 367.4,352.4" fill="#3498db" /><path d="M 366.0 352.4 Q 364.2 357.0 366.0 361.6" stroke="#b2bec3" stroke-width="1.5" fill="none" />
<circle cx="388.0" cy="343.2" r="7.4" fill="#3498db" /><polygon points="388.0,350.5 386.6,352.4 389.4,352.4" fill="#3498db" /><path d="M 388.0 352.4 Q 386.2 357.0 388.0 361.6" stroke="#b2bec3" stroke-width="1.5" fill="none" />
<circle cx="124.0" cy="365.2" r="7.4" fill="#3498db" /><polygon points="124.0,372.5 122.6,374.4 125.4,374.4" fill="#3498db" /><path d="M 124.0 374.4 Q 122.2 379.0 124.0 383.6" stroke="#b2bec3" stroke-width="1.5" fill="none" />
<circle cx="146.0" cy="365.2" r="7.4" fill="#3498db" /><polygon points="146.0,372.5 144.6,374.4 147.4,374.4" fill="#3498db" /><path d="M 146.0 374.4 Q 144.2 379.0 146.0 383.6" stroke="#b2bec3" stroke-width="1.5" fill="none" />
<circle cx="168.0" cy="365.2" r="7.4" fill="#3498db" /><polygon points="168.0,372.5 166.6,374.4 169.4,374.4" fill="#3498db" /><path d="M 168.0 374.4 Q 166.2 379.0 168.0 383.6" stroke="#b2bec3" stroke-width="1.5" fill="none" />
<circle cx="190.0" cy="365.2" r="7.4" fill="#3498db" /><polygon points="190.0,372.5 188.6,374.4 191.4,374.4" fill="#3498db" /><path d="M 190.0 374.4 Q 188.2 379.0 190.0 383.6" stroke="#b2bec3" stroke-width="1.5" fill="none" />
<circle cx="212.0" cy="365.2" r="7.4" fill="#3498db" /><polygon points="212.0,372.5 210.6,374.4 213.4,374.4" fill="#3498db" /><path d="M 212.0 374.4 Q 210.2 379.0 212.0 383.6" stroke="#b2bec3" stroke-width="1.5" fill="none" />
<circle cx="234.0" cy="365.2" r="7.4" fill="#3498db" /><polygon points="234.0,372.5 232.6,374.4 235.4,374.4" fill="#3498db" /><path d="M 234.0 374.4 Q 232.2 379.0 234.0 383.6" stroke="#b2bec3" stroke-width="1.5" fill="none" />
<circle cx="256.0" cy="365.2" r="7.4" fill="#3498db" /><polygon points="256.0,372.5 254.6,374.4 257.4,374.4" fill="#3498db" /><path d="M 256.0 374.4 Q 254.2 379.0 256.0 383.6" stroke="#b2bec3" stroke-width="1.5" fill="none" />
<circle cx="278.0" cy="365.2" r="7.4" fill="#3498db" /><polygon points="278.0,372.5 276.6,374.4 279.4,374.4" fill="#3498db" /><path d="M 278.0 374.4 Q 276.2 379.0 278.0 383.6" stroke="#b2bec3" stroke-width="1.5" fill="none" />
<circle cx="300.0" cy="365.2" r="7.4" fill="#3498db" /><polygon points="300.0,372.5 298.6,374.4 301.4,374.4" fill="#3498db" /><path d="M 300.0 374.4 Q 298.2 379.0 300.0 383.6" stroke="#b2bec3" stroke-width="1.5" fill="none" />
<circle cx="322.0" cy="365.2" r="7.4" fill="#3498db" /><polygon points="322.0,372.5 320.6,374.4 323.4,374.4" fill="#3498db" /><path d="M 322.0 374.4 Q 320.2 379.0 322.0 383.6" stroke="#b2bec3" stroke-width="1.5" fill="none" />
<circle cx="344.0" cy="365.2" r="7.4" fill="#3498db" /><polygon points="344.0,372.5 342.6,374.4 345.4,374.4" fill="#3498db" /><path d="M 344.0 374.4 Q 342.2 379.0 344.0 383.6" stroke="#b2bec3" stroke-width="1.5" fill="none" />
<circle cx="366.0" cy="365.2" r="7.4" fill="#3498db" /><polygon points="366.0,372.5 364.6,374.4 367.4,374.4" fill="#3498db" /><path d="M 366.0 374.4 Q 364.2 379.0 366.0 383.6" stroke="#b2bec3" stroke-width="1.5" fill="none" />
<circle cx="388.0" cy="365.2" r="7.4" fill="#3498db" /><polygon points="388.0,372.5 386.6,374.4 389.4,374.4" fill="#3498db" /><path d="M 388.0 374.4 Q 386.2 379.0 388.0 383.6" stroke="#b2bec3" stroke-width="1.5" fill="none" />
<circle cx="124.0" cy="387.2" r="7.4" fill="#3498db" /><polygon points="124.0,394.5 122.6,396.4 125.4,396.4" fill="#3498db" /><path d="M 124.0 396.4 Q 122.2 401.0 124.0 405.6" stroke="#b2bec3" stroke-width="1.5" fill="none" />
<circle cx="146.0" cy="387.2" r="7.4" fill="#3498db" /><polygon points="146.0,394.5 144.6,396.4 147.4,396.4" fill="#3498db" /><path d="M 146.0 396.4 Q 144.2 401.0 146.0 405.6" stroke="#b2bec3" stroke-width="1.5" fill="none" />
<circle cx="168.0" cy="387.2" r="7.4" fill="#3498db" /><polygon points="168.0,394.5 166.6,396.4 169.4,396.4" fill="#3498db" /><path d="M 168.0 396.4 Q 166.2 401.0 168.0 405.6" stroke="#b2bec3" stroke-width="1.5" fill="none" />
<circle cx="190.0" cy="387.2" r="7.4" fill="#3498db" /><polygon points="190.0,394.5 188.6,396.4 191.4,396.4" fill="#3498db" /><path d="M 190.0 396.4 Q 188.2 401.0 190.0 405.6" stroke="#b2bec3" stroke-width="1.5" fill="none" />
<circle cx="212.0" cy="387.2" r="7.4" fill="#3498db" /><polygon points="212.0,394.5 210.6,396.4 213.4,396.4" fill="#3498db" /><path d="M 212.0 396.4 Q 210.2 401.0 212.0 405.6" stroke="#b2bec3" stroke-width="1.5" fill="none" />
<circle cx="234.0" cy="387.2" r="7.4" fill="#3498db" /><polygon points="234.0,394.5 232.6,396.4 235.4,396.4" fill="#3498db" /><path d="M 234.0 396.4 Q 232.2 401.0 234.0 405.6" stroke="#b2bec3" stroke-width="1.5" fill="none" />
<circle cx="256.0" cy="387.2" r="7.4" fill="#3498db" /><polygon points="256.0,394.5 254.6,396.4 257.4,396.4" fill="#3498db" /><path d="M 256.0 396.4 Q 254.2 401.0 256.0 405.6" stroke="#b2bec3" stroke-width="1.5" fill="none" />
<circle cx="278.0" cy="387.2" r="7.4" fill="#3498db" /><polygon points="278.0,394.5 276.6,396.4 279.4,396.4" fill="#3498db" /><path d="M 278.0 396.4 Q 276.2 401.0 278.0 405.6" stroke="#b2bec3" stroke-width="1.5" fill="none" />
<circle cx="300.0" cy="387.2" r="7.4" fill="#3498db" /><polygon points="300.0,394.5 298.6,396.4 301.4,396.4" fill="#3498db" /><path d="M 300.0 396.4 Q 298.2 401.0 300.0 405.6" stroke="#b2bec3" stroke-width="1.5" fill="none" />
<circle cx="322.0" cy="387.2" r="7.4" fill="#3498db" /><polygon points="322.0,394.5 320.6,396.4 323.4,396.4" fill="#3498db" /><path d="M 322.0 396.4 Q 320.2 401.0 322.0 405.6" stroke="#b2bec3" stroke-width="1.5" fill="none" />
<circle cx="344.0" cy="387.2" r="7.4" fill="#3498db" /><polygon points="344.0,394.5 342.6,396.4 345.4,396.4" fill="#3498db" /><path d="M 344.0 396.4 Q 342.2 401.0 344.0 405.6" stroke="#b2bec3" stroke-width="1.5" fill="none" />
  </g>

  <!-- Bottom Banner -->
  <g filter="url(#shadow-63)">
    <rect x="96" y="420" width="320" height="54" rx="27" fill="#FFF" stroke="#c6d0ea" stroke-width="4" />
    <text x="256" y="455" 
          text-anchor="middle" 
          font-size="28" 
          font-weight="900" 
          font-family="Comic Sans MS, Arial Rounded MT Bold, sans-serif" 
          fill="#7C5730">63 - Sixty Three</text>
  </g>
</svg>