<svg xmlns="http://www.w3.org/2000/svg" viewBox="0 0 512 512" width="100%" height="100%">
  <defs>
    <!-- Background Gradient -->
    <linearGradient id="bg-65" x1="0%" y1="0%" x2="0%" y2="100%">
      <stop offset="0%" stop-color="#f9faff" />
      <stop offset="100%" stop-color="#eff2ff" />
    </linearGradient>

    <!-- Front Face Gradient -->
    <linearGradient id="front-65" x1="0%" y1="0%" x2="0%" y2="100%">
      <stop offset="0%" stop-color="#899dff" />
      <stop offset="100%" stop-color="#0028f4" />
    </linearGradient>

    <!-- 3D Side/Extrusion Color -->
    <linearGradient id="side-65" x1="0%" y1="0%" x2="0%" y2="100%">
      <stop offset="0%" stop-color="#0020c1" />
      <stop offset="100%" stop-color="#00178e" />
    </linearGradient>

    <!-- Leaf Sprout Gradient -->
    <linearGradient id="leaf-65" x1="0%" y1="0%" x2="100%" y2="100%">
      <stop offset="0%" stop-color="#7BED9F" />
      <stop offset="100%" stop-color="#2ED573" />
    </linearGradient>

    <!-- 3D Base Shadow -->
    <filter id="shadow-65">
      <feDropShadow dx="0" dy="10" stdDeviation="8" flood-color="#000000" flood-opacity="0.25" />
    </filter>
  </defs>

  <!-- Background -->
  <circle cx="256" cy="256" r="236" fill="url(#bg-65)" stroke="#c6ccea" stroke-width="6" />

  <!-- Sparkles -->
  <g fill="#FFD43B">
    <circle cx="100" cy="130" r="8" />
    <circle cx="400" cy="120" r="10" />
    <circle cx="430" cy="330" r="7" />
  </g>

  <!-- Number -->
  <g filter="url(#shadow-65)">
    <!-- Side -->
    <text x="256" y="215" 
          text-anchor="middle" 
          font-size="180" 
          font-weight="900" 
          font-family="Comic Sans MS, Arial Rounded MT Bold, sans-serif" 
          fill="url(#side-65)" 
          stroke="url(#side-65)" 
          stroke-width="18" 
          transform="translate(0, 12)">65</text>

    <!-- Front -->
    <text x="256" y="215" 
          text-anchor="middle" 
          font-size="180" 
          font-weight="900" 
          font-family="Comic Sans MS, Arial Rounded MT Bold, sans-serif" 
          fill="url(#front-65)" 
          stroke="url(#front-65)" 
          stroke-width="18">65</text>
  </g>

  <!-- Cute Sprout -->
  <g transform="translate(256 65)">
    <path d="M0 0 Q-4 -15 -8 -24" stroke="#8B5A2B" stroke-width="5" fill="none" />
    <path d="M-8 -24 C-28 -28 -30 -5 -10 0 Z" fill="url(#leaf-65)" />
    <path d="M-8 -24 C5 -35 22 -20 5 -5 Z" fill="url(#leaf-65)" />
  </g>

  <!-- Eyes -->
  <g>
    <circle cx="215" cy="180" r="18" fill="#222" />
    <circle cx="208" cy="172" r="6" fill="#FFF" />

    <circle cx="297" cy="180" r="18" fill="#222" />
    <circle cx="290" cy="172" r="6" fill="#FFF" />
  </g>

  <!-- Cheeks -->
  <ellipse cx="185" cy="210" rx="18" ry="12" fill="#FF6B81" opacity="0.45" />
  <ellipse cx="327" cy="210" rx="18" ry="12" fill="#FF6B81" opacity="0.45" />

  <!-- Smile -->
  <path d="M225 225 Q256 255 287 225" stroke="#7A1022" stroke-width="8" fill="none" stroke-linecap="round" />

  <!-- Counting Object -->
  <g>
    <path d="M 124.0 308.4 C 112.9 299.2 116.6 293.6 124.0 297.3 C 131.4 293.6 135.1 299.2 124.0 308.4 Z" fill="#ff7675" />
<path d="M 146.0 308.4 C 134.9 299.2 138.6 293.6 146.0 297.3 C 153.4 293.6 157.1 299.2 146.0 308.4 Z" fill="#ff7675" />
<path d="M 168.0 308.4 C 156.9 299.2 160.6 293.6 168.0 297.3 C 175.4 293.6 179.1 299.2 168.0 308.4 Z" fill="#ff7675" />
<path d="M 190.0 308.4 C 178.9 299.2 182.6 293.6 190.0 297.3 C 197.4 293.6 201.1 299.2 190.0 308.4 Z" fill="#ff7675" />
<path d="M 212.0 308.4 C 200.9 299.2 204.6 293.6 212.0 297.3 C 219.4 293.6 223.1 299.2 212.0 308.4 Z" fill="#ff7675" />
<path d="M 234.0 308.4 C 222.9 299.2 226.6 293.6 234.0 297.3 C 241.4 293.6 245.1 299.2 234.0 308.4 Z" fill="#ff7675" />
<path d="M 256.0 308.4 C 244.9 299.2 248.6 293.6 256.0 297.3 C 263.4 293.6 267.1 299.2 256.0 308.4 Z" fill="#ff7675" />
<path d="M 278.0 308.4 C 266.9 299.2 270.6 293.6 278.0 297.3 C 285.4 293.6 289.1 299.2 278.0 308.4 Z" fill="#ff7675" />
<path d="M 300.0 308.4 C 288.9 299.2 292.6 293.6 300.0 297.3 C 307.4 293.6 311.1 299.2 300.0 308.4 Z" fill="#ff7675" />
<path d="M 322.0 308.4 C 310.9 299.2 314.6 293.6 322.0 297.3 C 329.4 293.6 333.1 299.2 322.0 308.4 Z" fill="#ff7675" />
<path d="M 344.0 308.4 C 332.9 299.2 336.6 293.6 344.0 297.3 C 351.4 293.6 355.1 299.2 344.0 308.4 Z" fill="#ff7675" />
<path d="M 366.0 308.4 C 354.9 299.2 358.6 293.6 366.0 297.3 C 373.4 293.6 377.1 299.2 366.0 308.4 Z" fill="#ff7675" />
<path d="M 388.0 308.4 C 376.9 299.2 380.6 293.6 388.0 297.3 C 395.4 293.6 399.1 299.2 388.0 308.4 Z" fill="#ff7675" />
<path d="M 124.0 330.4 C 112.9 321.2 116.6 315.6 124.0 319.3 C 131.4 315.6 135.1 321.2 124.0 330.4 Z" fill="#ff7675" />
<path d="M 146.0 330.4 C 134.9 321.2 138.6 315.6 146.0 319.3 C 153.4 315.6 157.1 321.2 146.0 330.4 Z" fill="#ff7675" />
<path d="M 168.0 330.4 C 156.9 321.2 160.6 315.6 168.0 319.3 C 175.4 315.6 179.1 321.2 168.0 330.4 Z" fill="#ff7675" />
<path d="M 190.0 330.4 C 178.9 321.2 182.6 315.6 190.0 319.3 C 197.4 315.6 201.1 321.2 190.0 330.4 Z" fill="#ff7675" />
<path d="M 212.0 330.4 C 200.9 321.2 204.6 315.6 212.0 319.3 C 219.4 315.6 223.1 321.2 212.0 330.4 Z" fill="#ff7675" />
<path d="M 234.0 330.4 C 222.9 321.2 226.6 315.6 234.0 319.3 C 241.4 315.6 245.1 321.2 234.0 330.4 Z" fill="#ff7675" />
<path d="M 256.0 330.4 C 244.9 321.2 248.6 315.6 256.0 319.3 C 263.4 315.6 267.1 321.2 256.0 330.4 Z" fill="#ff7675" />
<path d="M 278.0 330.4 C 266.9 321.2 270.6 315.6 278.0 319.3 C 285.4 315.6 289.1 321.2 278.0 330.4 Z" fill="#ff7675" />
<path d="M 300.0 330.4 C 288.9 321.2 292.6 315.6 300.0 319.3 C 307.4 315.6 311.1 321.2 300.0 330.4 Z" fill="#ff7675" />
<path d="M 322.0 330.4 C 310.9 321.2 314.6 315.6 322.0 319.3 C 329.4 315.6 333.1 321.2 322.0 330.4 Z" fill="#ff7675" />
<path d="M 344.0 330.4 C 332.9 321.2 336.6 315.6 344.0 319.3 C 351.4 315.6 355.1 321.2 344.0 330.4 Z" fill="#ff7675" />
<path d="M 366.0 330.4 C 354.9 321.2 358.6 315.6 366.0 319.3 C 373.4 315.6 377.1 321.2 366.0 330.4 Z" fill="#ff7675" />
<path d="M 388.0 330.4 C 376.9 321.2 380.6 315.6 388.0 319.3 C 395.4 315.6 399.1 321.2 388.0 330.4 Z" fill="#ff7675" />
<path d="M 124.0 352.4 C 112.9 343.2 116.6 337.6 124.0 341.3 C 131.4 337.6 135.1 343.2 124.0 352.4 Z" fill="#ff7675" />
<path d="M 146.0 352.4 C 134.9 343.2 138.6 337.6 146.0 341.3 C 153.4 337.6 157.1 343.2 146.0 352.4 Z" fill="#ff7675" />
<path d="M 168.0 352.4 C 156.9 343.2 160.6 337.6 168.0 341.3 C 175.4 337.6 179.1 343.2 168.0 352.4 Z" fill="#ff7675" />
<path d="M 190.0 352.4 C 178.9 343.2 182.6 337.6 190.0 341.3 C 197.4 337.6 201.1 343.2 190.0 352.4 Z" fill="#ff7675" />
<path d="M 212.0 352.4 C 200.9 343.2 204.6 337.6 212.0 341.3 C 219.4 337.6 223.1 343.2 212.0 352.4 Z" fill="#ff7675" />
<path d="M 234.0 352.4 C 222.9 343.2 226.6 337.6 234.0 341.3 C 241.4 337.6 245.1 343.2 234.0 352.4 Z" fill="#ff7675" />
<path d="M 256.0 352.4 C 244.9 343.2 248.6 337.6 256.0 341.3 C 263.4 337.6 267.1 343.2 256.0 352.4 Z" fill="#ff7675" />
<path d="M 278.0 352.4 C 266.9 343.2 270.6 337.6 278.0 341.3 C 285.4 337.6 289.1 343.2 278.0 352.4 Z" fill="#ff7675" />
<path d="M 300.0 352.4 C 288.9 343.2 292.6 337.6 300.0 341.3 C 307.4 337.6 311.1 343.2 300.0 352.4 Z" fill="#ff7675" />
<path d="M 322.0 352.4 C 310.9 343.2 314.6 337.6 322.0 341.3 C 329.4 337.6 333.1 343.2 322.0 352.4 Z" fill="#ff7675" />
<path d="M 344.0 352.4 C 332.9 343.2 336.6 337.6 344.0 341.3 C 351.4 337.6 355.1 343.2 344.0 352.4 Z" fill="#ff7675" />
<path d="M 366.0 352.4 C 354.9 343.2 358.6 337.6 366.0 341.3 C 373.4 337.6 377.1 343.2 366.0 352.4 Z" fill="#ff7675" />
<path d="M 388.0 352.4 C 376.9 343.2 380.6 337.6 388.0 341.3 C 395.4 337.6 399.1 343.2 388.0 352.4 Z" fill="#ff7675" />
<path d="M 124.0 374.4 C 112.9 365.2 116.6 359.6 124.0 363.3 C 131.4 359.6 135.1 365.2 124.0 374.4 Z" fill="#ff7675" />
<path d="M 146.0 374.4 C 134.9 365.2 138.6 359.6 146.0 363.3 C 153.4 359.6 157.1 365.2 146.0 374.4 Z" fill="#ff7675" />
<path d="M 168.0 374.4 C 156.9 365.2 160.6 359.6 168.0 363.3 C 175.4 359.6 179.1 365.2 168.0 374.4 Z" fill="#ff7675" />
<path d="M 190.0 374.4 C 178.9 365.2 182.6 359.6 190.0 363.3 C 197.4 359.6 201.1 365.2 190.0 374.4 Z" fill="#ff7675" />
<path d="M 212.0 374.4 C 200.9 365.2 204.6 359.6 212.0 363.3 C 219.4 359.6 223.1 365.2 212.0 374.4 Z" fill="#ff7675" />
<path d="M 234.0 374.4 C 222.9 365.2 226.6 359.6 234.0 363.3 C 241.4 359.6 245.1 365.2 234.0 374.4 Z" fill="#ff7675" />
<path d="M 256.0 374.4 C 244.9 365.2 248.6 359.6 256.0 363.3 C 263.4 359.6 267.1 365.2 256.0 374.4 Z" fill="#ff7675" />
<path d="M 278.0 374.4 C 266.9 365.2 270.6 359.6 278.0 363.3 C 285.4 359.6 289.1 365.2 278.0 374.4 Z" fill="#ff7675" />
<path d="M 300.0 374.4 C 288.9 365.2 292.6 359.6 300.0 363.3 C 307.4 359.6 311.1 365.2 300.0 374.4 Z" fill="#ff7675" />
<path d="M 322.0 374.4 C 310.9 365.2 314.6 359.6 322.0 363.3 C 329.4 359.6 333.1 365.2 322.0 374.4 Z" fill="#ff7675" />
<path d="M 344.0 374.4 C 332.9 365.2 336.6 359.6 344.0 363.3 C 351.4 359.6 355.1 365.2 344.0 374.4 Z" fill="#ff7675" />
<path d="M 366.0 374.4 C 354.9 365.2 358.6 359.6 366.0 363.3 C 373.4 359.6 377.1 365.2 366.0 374.4 Z" fill="#ff7675" />
<path d="M 388.0 374.4 C 376.9 365.2 380.6 359.6 388.0 363.3 C 395.4 359.6 399.1 365.2 388.0 374.4 Z" fill="#ff7675" />
<path d="M 124.0 396.4 C 112.9 387.2 116.6 381.6 124.0 385.3 C 131.4 381.6 135.1 387.2 124.0 396.4 Z" fill="#ff7675" />
<path d="M 146.0 396.4 C 134.9 387.2 138.6 381.6 146.0 385.3 C 153.4 381.6 157.1 387.2 146.0 396.4 Z" fill="#ff7675" />
<path d="M 168.0 396.4 C 156.9 387.2 160.6 381.6 168.0 385.3 C 175.4 381.6 179.1 387.2 168.0 396.4 Z" fill="#ff7675" />
<path d="M 190.0 396.4 C 178.9 387.2 182.6 381.6 190.0 385.3 C 197.4 381.6 201.1 387.2 190.0 396.4 Z" fill="#ff7675" />
<path d="M 212.0 396.4 C 200.9 387.2 204.6 381.6 212.0 385.3 C 219.4 381.6 223.1 387.2 212.0 396.4 Z" fill="#ff7675" />
<path d="M 234.0 396.4 C 222.9 387.2 226.6 381.6 234.0 385.3 C 241.4 381.6 245.1 387.2 234.0 396.4 Z" fill="#ff7675" />
<path d="M 256.0 396.4 C 244.9 387.2 248.6 381.6 256.0 385.3 C 263.4 381.6 267.1 387.2 256.0 396.4 Z" fill="#ff7675" />
<path d="M 278.0 396.4 C 266.9 387.2 270.6 381.6 278.0 385.3 C 285.4 381.6 289.1 387.2 278.0 396.4 Z" fill="#ff7675" />
<path d="M 300.0 396.4 C 288.9 387.2 292.6 381.6 300.0 385.3 C 307.4 381.6 311.1 387.2 300.0 396.4 Z" fill="#ff7675" />
<path d="M 322.0 396.4 C 310.9 387.2 314.6 381.6 322.0 385.3 C 329.4 381.6 333.1 387.2 322.0 396.4 Z" fill="#ff7675" />
<path d="M 344.0 396.4 C 332.9 387.2 336.6 381.6 344.0 385.3 C 351.4 381.6 355.1 387.2 344.0 396.4 Z" fill="#ff7675" />
<path d="M 366.0 396.4 C 354.9 387.2 358.6 381.6 366.0 385.3 C 373.4 381.6 377.1 387.2 366.0 396.4 Z" fill="#ff7675" />
<path d="M 388.0 396.4 C 376.9 387.2 380.6 381.6 388.0 385.3 C 395.4 381.6 399.1 387.2 388.0 396.4 Z" fill="#ff7675" />
  </g>

  <!-- Bottom Banner -->
  <g filter="url(#shadow-65)">
    <rect x="96" y="420" width="320" height="54" rx="27" fill="#FFF" stroke="#c6ccea" stroke-width="4" />
    <text x="256" y="455" 
          text-anchor="middle" 
          font-size="28" 
          font-weight="900" 
          font-family="Comic Sans MS, Arial Rounded MT Bold, sans-serif" 
          fill="#7C5730">65 - Sixty Five</text>
  </g>
</svg>