<svg xmlns="http://www.w3.org/2000/svg" viewBox="0 0 512 512" width="100%" height="100%">
  <defs>
    <!-- Background Gradient -->
    <linearGradient id="bg-66" x1="0%" y1="0%" x2="0%" y2="100%">
      <stop offset="0%" stop-color="#f9faff" />
      <stop offset="100%" stop-color="#eff1ff" />
    </linearGradient>

    <!-- Front Face Gradient -->
    <linearGradient id="front-66" x1="0%" y1="0%" x2="0%" y2="100%">
      <stop offset="0%" stop-color="#8995ff" />
      <stop offset="100%" stop-color="#0018f4" />
    </linearGradient>

    <!-- 3D Side/Extrusion Color -->
    <linearGradient id="side-66" x1="0%" y1="0%" x2="0%" y2="100%">
      <stop offset="0%" stop-color="#0013c1" />
      <stop offset="100%" stop-color="#000e8e" />
    </linearGradient>

    <!-- Leaf Sprout Gradient -->
    <linearGradient id="leaf-66" x1="0%" y1="0%" x2="100%" y2="100%">
      <stop offset="0%" stop-color="#7BED9F" />
      <stop offset="100%" stop-color="#2ED573" />
    </linearGradient>

    <!-- 3D Base Shadow -->
    <filter id="shadow-66">
      <feDropShadow dx="0" dy="10" stdDeviation="8" flood-color="#000000" flood-opacity="0.25" />
    </filter>
  </defs>

  <!-- Background -->
  <circle cx="256" cy="256" r="236" fill="url(#bg-66)" stroke="#c6caea" stroke-width="6" />

  <!-- Sparkles -->
  <g fill="#FFD43B">
    <circle cx="100" cy="130" r="8" />
    <circle cx="400" cy="120" r="10" />
    <circle cx="430" cy="330" r="7" />
  </g>

  <!-- Number -->
  <g filter="url(#shadow-66)">
    <!-- Side -->
    <text x="256" y="215" 
          text-anchor="middle" 
          font-size="180" 
          font-weight="900" 
          font-family="Comic Sans MS, Arial Rounded MT Bold, sans-serif" 
          fill="url(#side-66)" 
          stroke="url(#side-66)" 
          stroke-width="18" 
          transform="translate(0, 12)">66</text>

    <!-- Front -->
    <text x="256" y="215" 
          text-anchor="middle" 
          font-size="180" 
          font-weight="900" 
          font-family="Comic Sans MS, Arial Rounded MT Bold, sans-serif" 
          fill="url(#front-66)" 
          stroke="url(#front-66)" 
          stroke-width="18">66</text>
  </g>

  <!-- Cute Sprout -->
  <g transform="translate(256 65)">
    <path d="M0 0 Q-4 -15 -8 -24" stroke="#8B5A2B" stroke-width="5" fill="none" />
    <path d="M-8 -24 C-28 -28 -30 -5 -10 0 Z" fill="url(#leaf-66)" />
    <path d="M-8 -24 C5 -35 22 -20 5 -5 Z" fill="url(#leaf-66)" />
  </g>

  <!-- Eyes -->
  <g>
    <circle cx="215" cy="180" r="18" fill="#222" />
    <circle cx="208" cy="172" r="6" fill="#FFF" />

    <circle cx="297" cy="180" r="18" fill="#222" />
    <circle cx="290" cy="172" r="6" fill="#FFF" />
  </g>

  <!-- Cheeks -->
  <ellipse cx="185" cy="210" rx="18" ry="12" fill="#FF6B81" opacity="0.45" />
  <ellipse cx="327" cy="210" rx="18" ry="12" fill="#FF6B81" opacity="0.45" />

  <!-- Smile -->
  <path d="M225 225 Q256 255 287 225" stroke="#7A1022" stroke-width="8" fill="none" stroke-linecap="round" />

  <!-- Counting Object -->
  <g>
    <polygon points="113.0,301.0 103.8,296.4 103.8,305.6" fill="#a29bfe" /><polygon points="113.0,301.0 122.2,296.4 122.2,305.6" fill="#a29bfe" /><circle cx="113.0" cy="301.0" r="6.5" fill="#fd79a8" stroke="#ffffff" stroke-width="1.0" />
<polygon points="135.0,301.0 125.8,296.4 125.8,305.6" fill="#a29bfe" /><polygon points="135.0,301.0 144.2,296.4 144.2,305.6" fill="#a29bfe" /><circle cx="135.0" cy="301.0" r="6.5" fill="#fd79a8" stroke="#ffffff" stroke-width="1.0" />
<polygon points="157.0,301.0 147.8,296.4 147.8,305.6" fill="#a29bfe" /><polygon points="157.0,301.0 166.2,296.4 166.2,305.6" fill="#a29bfe" /><circle cx="157.0" cy="301.0" r="6.5" fill="#fd79a8" stroke="#ffffff" stroke-width="1.0" />
<polygon points="179.0,301.0 169.8,296.4 169.8,305.6" fill="#a29bfe" /><polygon points="179.0,301.0 188.2,296.4 188.2,305.6" fill="#a29bfe" /><circle cx="179.0" cy="301.0" r="6.5" fill="#fd79a8" stroke="#ffffff" stroke-width="1.0" />
<polygon points="201.0,301.0 191.8,296.4 191.8,305.6" fill="#a29bfe" /><polygon points="201.0,301.0 210.2,296.4 210.2,305.6" fill="#a29bfe" /><circle cx="201.0" cy="301.0" r="6.5" fill="#fd79a8" stroke="#ffffff" stroke-width="1.0" />
<polygon points="223.0,301.0 213.8,296.4 213.8,305.6" fill="#a29bfe" /><polygon points="223.0,301.0 232.2,296.4 232.2,305.6" fill="#a29bfe" /><circle cx="223.0" cy="301.0" r="6.5" fill="#fd79a8" stroke="#ffffff" stroke-width="1.0" />
<polygon points="245.0,301.0 235.8,296.4 235.8,305.6" fill="#a29bfe" /><polygon points="245.0,301.0 254.2,296.4 254.2,305.6" fill="#a29bfe" /><circle cx="245.0" cy="301.0" r="6.5" fill="#fd79a8" stroke="#ffffff" stroke-width="1.0" />
<polygon points="267.0,301.0 257.8,296.4 257.8,305.6" fill="#a29bfe" /><polygon points="267.0,301.0 276.2,296.4 276.2,305.6" fill="#a29bfe" /><circle cx="267.0" cy="301.0" r="6.5" fill="#fd79a8" stroke="#ffffff" stroke-width="1.0" />
<polygon points="289.0,301.0 279.8,296.4 279.8,305.6" fill="#a29bfe" /><polygon points="289.0,301.0 298.2,296.4 298.2,305.6" fill="#a29bfe" /><circle cx="289.0" cy="301.0" r="6.5" fill="#fd79a8" stroke="#ffffff" stroke-width="1.0" />
<polygon points="311.0,301.0 301.8,296.4 301.8,305.6" fill="#a29bfe" /><polygon points="311.0,301.0 320.2,296.4 320.2,305.6" fill="#a29bfe" /><circle cx="311.0" cy="301.0" r="6.5" fill="#fd79a8" stroke="#ffffff" stroke-width="1.0" />
<polygon points="333.0,301.0 323.8,296.4 323.8,305.6" fill="#a29bfe" /><polygon points="333.0,301.0 342.2,296.4 342.2,305.6" fill="#a29bfe" /><circle cx="333.0" cy="301.0" r="6.5" fill="#fd79a8" stroke="#ffffff" stroke-width="1.0" />
<polygon points="355.0,301.0 345.8,296.4 345.8,305.6" fill="#a29bfe" /><polygon points="355.0,301.0 364.2,296.4 364.2,305.6" fill="#a29bfe" /><circle cx="355.0" cy="301.0" r="6.5" fill="#fd79a8" stroke="#ffffff" stroke-width="1.0" />
<polygon points="377.0,301.0 367.8,296.4 367.8,305.6" fill="#a29bfe" /><polygon points="377.0,301.0 386.2,296.4 386.2,305.6" fill="#a29bfe" /><circle cx="377.0" cy="301.0" r="6.5" fill="#fd79a8" stroke="#ffffff" stroke-width="1.0" />
<polygon points="399.0,301.0 389.8,296.4 389.8,305.6" fill="#a29bfe" /><polygon points="399.0,301.0 408.2,296.4 408.2,305.6" fill="#a29bfe" /><circle cx="399.0" cy="301.0" r="6.5" fill="#fd79a8" stroke="#ffffff" stroke-width="1.0" />
<polygon points="113.0,323.0 103.8,318.4 103.8,327.6" fill="#a29bfe" /><polygon points="113.0,323.0 122.2,318.4 122.2,327.6" fill="#a29bfe" /><circle cx="113.0" cy="323.0" r="6.5" fill="#fd79a8" stroke="#ffffff" stroke-width="1.0" />
<polygon points="135.0,323.0 125.8,318.4 125.8,327.6" fill="#a29bfe" /><polygon points="135.0,323.0 144.2,318.4 144.2,327.6" fill="#a29bfe" /><circle cx="135.0" cy="323.0" r="6.5" fill="#fd79a8" stroke="#ffffff" stroke-width="1.0" />
<polygon points="157.0,323.0 147.8,318.4 147.8,327.6" fill="#a29bfe" /><polygon points="157.0,323.0 166.2,318.4 166.2,327.6" fill="#a29bfe" /><circle cx="157.0" cy="323.0" r="6.5" fill="#fd79a8" stroke="#ffffff" stroke-width="1.0" />
<polygon points="179.0,323.0 169.8,318.4 169.8,327.6" fill="#a29bfe" /><polygon points="179.0,323.0 188.2,318.4 188.2,327.6" fill="#a29bfe" /><circle cx="179.0" cy="323.0" r="6.5" fill="#fd79a8" stroke="#ffffff" stroke-width="1.0" />
<polygon points="201.0,323.0 191.8,318.4 191.8,327.6" fill="#a29bfe" /><polygon points="201.0,323.0 210.2,318.4 210.2,327.6" fill="#a29bfe" /><circle cx="201.0" cy="323.0" r="6.5" fill="#fd79a8" stroke="#ffffff" stroke-width="1.0" />
<polygon points="223.0,323.0 213.8,318.4 213.8,327.6" fill="#a29bfe" /><polygon points="223.0,323.0 232.2,318.4 232.2,327.6" fill="#a29bfe" /><circle cx="223.0" cy="323.0" r="6.5" fill="#fd79a8" stroke="#ffffff" stroke-width="1.0" />
<polygon points="245.0,323.0 235.8,318.4 235.8,327.6" fill="#a29bfe" /><polygon points="245.0,323.0 254.2,318.4 254.2,327.6" fill="#a29bfe" /><circle cx="245.0" cy="323.0" r="6.5" fill="#fd79a8" stroke="#ffffff" stroke-width="1.0" />
<polygon points="267.0,323.0 257.8,318.4 257.8,327.6" fill="#a29bfe" /><polygon points="267.0,323.0 276.2,318.4 276.2,327.6" fill="#a29bfe" /><circle cx="267.0" cy="323.0" r="6.5" fill="#fd79a8" stroke="#ffffff" stroke-width="1.0" />
<polygon points="289.0,323.0 279.8,318.4 279.8,327.6" fill="#a29bfe" /><polygon points="289.0,323.0 298.2,318.4 298.2,327.6" fill="#a29bfe" /><circle cx="289.0" cy="323.0" r="6.5" fill="#fd79a8" stroke="#ffffff" stroke-width="1.0" />
<polygon points="311.0,323.0 301.8,318.4 301.8,327.6" fill="#a29bfe" /><polygon points="311.0,323.0 320.2,318.4 320.2,327.6" fill="#a29bfe" /><circle cx="311.0" cy="323.0" r="6.5" fill="#fd79a8" stroke="#ffffff" stroke-width="1.0" />
<polygon points="333.0,323.0 323.8,318.4 323.8,327.6" fill="#a29bfe" /><polygon points="333.0,323.0 342.2,318.4 342.2,327.6" fill="#a29bfe" /><circle cx="333.0" cy="323.0" r="6.5" fill="#fd79a8" stroke="#ffffff" stroke-width="1.0" />
<polygon points="355.0,323.0 345.8,318.4 345.8,327.6" fill="#a29bfe" /><polygon points="355.0,323.0 364.2,318.4 364.2,327.6" fill="#a29bfe" /><circle cx="355.0" cy="323.0" r="6.5" fill="#fd79a8" stroke="#ffffff" stroke-width="1.0" />
<polygon points="377.0,323.0 367.8,318.4 367.8,327.6" fill="#a29bfe" /><polygon points="377.0,323.0 386.2,318.4 386.2,327.6" fill="#a29bfe" /><circle cx="377.0" cy="323.0" r="6.5" fill="#fd79a8" stroke="#ffffff" stroke-width="1.0" />
<polygon points="399.0,323.0 389.8,318.4 389.8,327.6" fill="#a29bfe" /><polygon points="399.0,323.0 408.2,318.4 408.2,327.6" fill="#a29bfe" /><circle cx="399.0" cy="323.0" r="6.5" fill="#fd79a8" stroke="#ffffff" stroke-width="1.0" />
<polygon points="113.0,345.0 103.8,340.4 103.8,349.6" fill="#a29bfe" /><polygon points="113.0,345.0 122.2,340.4 122.2,349.6" fill="#a29bfe" /><circle cx="113.0" cy="345.0" r="6.5" fill="#fd79a8" stroke="#ffffff" stroke-width="1.0" />
<polygon points="135.0,345.0 125.8,340.4 125.8,349.6" fill="#a29bfe" /><polygon points="135.0,345.0 144.2,340.4 144.2,349.6" fill="#a29bfe" /><circle cx="135.0" cy="345.0" r="6.5" fill="#fd79a8" stroke="#ffffff" stroke-width="1.0" />
<polygon points="157.0,345.0 147.8,340.4 147.8,349.6" fill="#a29bfe" /><polygon points="157.0,345.0 166.2,340.4 166.2,349.6" fill="#a29bfe" /><circle cx="157.0" cy="345.0" r="6.5" fill="#fd79a8" stroke="#ffffff" stroke-width="1.0" />
<polygon points="179.0,345.0 169.8,340.4 169.8,349.6" fill="#a29bfe" /><polygon points="179.0,345.0 188.2,340.4 188.2,349.6" fill="#a29bfe" /><circle cx="179.0" cy="345.0" r="6.5" fill="#fd79a8" stroke="#ffffff" stroke-width="1.0" />
<polygon points="201.0,345.0 191.8,340.4 191.8,349.6" fill="#a29bfe" /><polygon points="201.0,345.0 210.2,340.4 210.2,349.6" fill="#a29bfe" /><circle cx="201.0" cy="345.0" r="6.5" fill="#fd79a8" stroke="#ffffff" stroke-width="1.0" />
<polygon points="223.0,345.0 213.8,340.4 213.8,349.6" fill="#a29bfe" /><polygon points="223.0,345.0 232.2,340.4 232.2,349.6" fill="#a29bfe" /><circle cx="223.0" cy="345.0" r="6.5" fill="#fd79a8" stroke="#ffffff" stroke-width="1.0" />
<polygon points="245.0,345.0 235.8,340.4 235.8,349.6" fill="#a29bfe" /><polygon points="245.0,345.0 254.2,340.4 254.2,349.6" fill="#a29bfe" /><circle cx="245.0" cy="345.0" r="6.5" fill="#fd79a8" stroke="#ffffff" stroke-width="1.0" />
<polygon points="267.0,345.0 257.8,340.4 257.8,349.6" fill="#a29bfe" /><polygon points="267.0,345.0 276.2,340.4 276.2,349.6" fill="#a29bfe" /><circle cx="267.0" cy="345.0" r="6.5" fill="#fd79a8" stroke="#ffffff" stroke-width="1.0" />
<polygon points="289.0,345.0 279.8,340.4 279.8,349.6" fill="#a29bfe" /><polygon points="289.0,345.0 298.2,340.4 298.2,349.6" fill="#a29bfe" /><circle cx="289.0" cy="345.0" r="6.5" fill="#fd79a8" stroke="#ffffff" stroke-width="1.0" />
<polygon points="311.0,345.0 301.8,340.4 301.8,349.6" fill="#a29bfe" /><polygon points="311.0,345.0 320.2,340.4 320.2,349.6" fill="#a29bfe" /><circle cx="311.0" cy="345.0" r="6.5" fill="#fd79a8" stroke="#ffffff" stroke-width="1.0" />
<polygon points="333.0,345.0 323.8,340.4 323.8,349.6" fill="#a29bfe" /><polygon points="333.0,345.0 342.2,340.4 342.2,349.6" fill="#a29bfe" /><circle cx="333.0" cy="345.0" r="6.5" fill="#fd79a8" stroke="#ffffff" stroke-width="1.0" />
<polygon points="355.0,345.0 345.8,340.4 345.8,349.6" fill="#a29bfe" /><polygon points="355.0,345.0 364.2,340.4 364.2,349.6" fill="#a29bfe" /><circle cx="355.0" cy="345.0" r="6.5" fill="#fd79a8" stroke="#ffffff" stroke-width="1.0" />
<polygon points="377.0,345.0 367.8,340.4 367.8,349.6" fill="#a29bfe" /><polygon points="377.0,345.0 386.2,340.4 386.2,349.6" fill="#a29bfe" /><circle cx="377.0" cy="345.0" r="6.5" fill="#fd79a8" stroke="#ffffff" stroke-width="1.0" />
<polygon points="399.0,345.0 389.8,340.4 389.8,349.6" fill="#a29bfe" /><polygon points="399.0,345.0 408.2,340.4 408.2,349.6" fill="#a29bfe" /><circle cx="399.0" cy="345.0" r="6.5" fill="#fd79a8" stroke="#ffffff" stroke-width="1.0" />
<polygon points="113.0,367.0 103.8,362.4 103.8,371.6" fill="#a29bfe" /><polygon points="113.0,367.0 122.2,362.4 122.2,371.6" fill="#a29bfe" /><circle cx="113.0" cy="367.0" r="6.5" fill="#fd79a8" stroke="#ffffff" stroke-width="1.0" />
<polygon points="135.0,367.0 125.8,362.4 125.8,371.6" fill="#a29bfe" /><polygon points="135.0,367.0 144.2,362.4 144.2,371.6" fill="#a29bfe" /><circle cx="135.0" cy="367.0" r="6.5" fill="#fd79a8" stroke="#ffffff" stroke-width="1.0" />
<polygon points="157.0,367.0 147.8,362.4 147.8,371.6" fill="#a29bfe" /><polygon points="157.0,367.0 166.2,362.4 166.2,371.6" fill="#a29bfe" /><circle cx="157.0" cy="367.0" r="6.5" fill="#fd79a8" stroke="#ffffff" stroke-width="1.0" />
<polygon points="179.0,367.0 169.8,362.4 169.8,371.6" fill="#a29bfe" /><polygon points="179.0,367.0 188.2,362.4 188.2,371.6" fill="#a29bfe" /><circle cx="179.0" cy="367.0" r="6.5" fill="#fd79a8" stroke="#ffffff" stroke-width="1.0" />
<polygon points="201.0,367.0 191.8,362.4 191.8,371.6" fill="#a29bfe" /><polygon points="201.0,367.0 210.2,362.4 210.2,371.6" fill="#a29bfe" /><circle cx="201.0" cy="367.0" r="6.5" fill="#fd79a8" stroke="#ffffff" stroke-width="1.0" />
<polygon points="223.0,367.0 213.8,362.4 213.8,371.6" fill="#a29bfe" /><polygon points="223.0,367.0 232.2,362.4 232.2,371.6" fill="#a29bfe" /><circle cx="223.0" cy="367.0" r="6.5" fill="#fd79a8" stroke="#ffffff" stroke-width="1.0" />
<polygon points="245.0,367.0 235.8,362.4 235.8,371.6" fill="#a29bfe" /><polygon points="245.0,367.0 254.2,362.4 254.2,371.6" fill="#a29bfe" /><circle cx="245.0" cy="367.0" r="6.5" fill="#fd79a8" stroke="#ffffff" stroke-width="1.0" />
<polygon points="267.0,367.0 257.8,362.4 257.8,371.6" fill="#a29bfe" /><polygon points="267.0,367.0 276.2,362.4 276.2,371.6" fill="#a29bfe" /><circle cx="267.0" cy="367.0" r="6.5" fill="#fd79a8" stroke="#ffffff" stroke-width="1.0" />
<polygon points="289.0,367.0 279.8,362.4 279.8,371.6" fill="#a29bfe" /><polygon points="289.0,367.0 298.2,362.4 298.2,371.6" fill="#a29bfe" /><circle cx="289.0" cy="367.0" r="6.5" fill="#fd79a8" stroke="#ffffff" stroke-width="1.0" />
<polygon points="311.0,367.0 301.8,362.4 301.8,371.6" fill="#a29bfe" /><polygon points="311.0,367.0 320.2,362.4 320.2,371.6" fill="#a29bfe" /><circle cx="311.0" cy="367.0" r="6.5" fill="#fd79a8" stroke="#ffffff" stroke-width="1.0" />
<polygon points="333.0,367.0 323.8,362.4 323.8,371.6" fill="#a29bfe" /><polygon points="333.0,367.0 342.2,362.4 342.2,371.6" fill="#a29bfe" /><circle cx="333.0" cy="367.0" r="6.5" fill="#fd79a8" stroke="#ffffff" stroke-width="1.0" />
<polygon points="355.0,367.0 345.8,362.4 345.8,371.6" fill="#a29bfe" /><polygon points="355.0,367.0 364.2,362.4 364.2,371.6" fill="#a29bfe" /><circle cx="355.0" cy="367.0" r="6.5" fill="#fd79a8" stroke="#ffffff" stroke-width="1.0" />
<polygon points="377.0,367.0 367.8,362.4 367.8,371.6" fill="#a29bfe" /><polygon points="377.0,367.0 386.2,362.4 386.2,371.6" fill="#a29bfe" /><circle cx="377.0" cy="367.0" r="6.5" fill="#fd79a8" stroke="#ffffff" stroke-width="1.0" />
<polygon points="399.0,367.0 389.8,362.4 389.8,371.6" fill="#a29bfe" /><polygon points="399.0,367.0 408.2,362.4 408.2,371.6" fill="#a29bfe" /><circle cx="399.0" cy="367.0" r="6.5" fill="#fd79a8" stroke="#ffffff" stroke-width="1.0" />
<polygon points="113.0,389.0 103.8,384.4 103.8,393.6" fill="#a29bfe" /><polygon points="113.0,389.0 122.2,384.4 122.2,393.6" fill="#a29bfe" /><circle cx="113.0" cy="389.0" r="6.5" fill="#fd79a8" stroke="#ffffff" stroke-width="1.0" />
<polygon points="135.0,389.0 125.8,384.4 125.8,393.6" fill="#a29bfe" /><polygon points="135.0,389.0 144.2,384.4 144.2,393.6" fill="#a29bfe" /><circle cx="135.0" cy="389.0" r="6.5" fill="#fd79a8" stroke="#ffffff" stroke-width="1.0" />
<polygon points="157.0,389.0 147.8,384.4 147.8,393.6" fill="#a29bfe" /><polygon points="157.0,389.0 166.2,384.4 166.2,393.6" fill="#a29bfe" /><circle cx="157.0" cy="389.0" r="6.5" fill="#fd79a8" stroke="#ffffff" stroke-width="1.0" />
<polygon points="179.0,389.0 169.8,384.4 169.8,393.6" fill="#a29bfe" /><polygon points="179.0,389.0 188.2,384.4 188.2,393.6" fill="#a29bfe" /><circle cx="179.0" cy="389.0" r="6.5" fill="#fd79a8" stroke="#ffffff" stroke-width="1.0" />
<polygon points="201.0,389.0 191.8,384.4 191.8,393.6" fill="#a29bfe" /><polygon points="201.0,389.0 210.2,384.4 210.2,393.6" fill="#a29bfe" /><circle cx="201.0" cy="389.0" r="6.5" fill="#fd79a8" stroke="#ffffff" stroke-width="1.0" />
<polygon points="223.0,389.0 213.8,384.4 213.8,393.6" fill="#a29bfe" /><polygon points="223.0,389.0 232.2,384.4 232.2,393.6" fill="#a29bfe" /><circle cx="223.0" cy="389.0" r="6.5" fill="#fd79a8" stroke="#ffffff" stroke-width="1.0" />
<polygon points="245.0,389.0 235.8,384.4 235.8,393.6" fill="#a29bfe" /><polygon points="245.0,389.0 254.2,384.4 254.2,393.6" fill="#a29bfe" /><circle cx="245.0" cy="389.0" r="6.5" fill="#fd79a8" stroke="#ffffff" stroke-width="1.0" />
<polygon points="267.0,389.0 257.8,384.4 257.8,393.6" fill="#a29bfe" /><polygon points="267.0,389.0 276.2,384.4 276.2,393.6" fill="#a29bfe" /><circle cx="267.0" cy="389.0" r="6.5" fill="#fd79a8" stroke="#ffffff" stroke-width="1.0" />
<polygon points="289.0,389.0 279.8,384.4 279.8,393.6" fill="#a29bfe" /><polygon points="289.0,389.0 298.2,384.4 298.2,393.6" fill="#a29bfe" /><circle cx="289.0" cy="389.0" r="6.5" fill="#fd79a8" stroke="#ffffff" stroke-width="1.0" />
<polygon points="311.0,389.0 301.8,384.4 301.8,393.6" fill="#a29bfe" /><polygon points="311.0,389.0 320.2,384.4 320.2,393.6" fill="#a29bfe" /><circle cx="311.0" cy="389.0" r="6.5" fill="#fd79a8" stroke="#ffffff" stroke-width="1.0" />
  </g>

  <!-- Bottom Banner -->
  <g filter="url(#shadow-66)">
    <rect x="96" y="420" width="320" height="54" rx="27" fill="#FFF" stroke="#c6caea" stroke-width="4" />
    <text x="256" y="455" 
          text-anchor="middle" 
          font-size="28" 
          font-weight="900" 
          font-family="Comic Sans MS, Arial Rounded MT Bold, sans-serif" 
          fill="#7C5730">66 - Sixty Six</text>
  </g>
</svg>