<svg xmlns="http://www.w3.org/2000/svg" viewBox="0 0 512 512" width="100%" height="100%">
  <defs>
    <!-- Background Gradient -->
    <linearGradient id="bg-67" x1="0%" y1="0%" x2="0%" y2="100%">
      <stop offset="0%" stop-color="#f9faff" />
      <stop offset="100%" stop-color="#eff0ff" />
    </linearGradient>

    <!-- Front Face Gradient -->
    <linearGradient id="front-67" x1="0%" y1="0%" x2="0%" y2="100%">
      <stop offset="0%" stop-color="#898fff" />
      <stop offset="100%" stop-color="#000cf4" />
    </linearGradient>

    <!-- 3D Side/Extrusion Color -->
    <linearGradient id="side-67" x1="0%" y1="0%" x2="0%" y2="100%">
      <stop offset="0%" stop-color="#0009c1" />
      <stop offset="100%" stop-color="#00078e" />
    </linearGradient>

    <!-- Leaf Sprout Gradient -->
    <linearGradient id="leaf-67" x1="0%" y1="0%" x2="100%" y2="100%">
      <stop offset="0%" stop-color="#7BED9F" />
      <stop offset="100%" stop-color="#2ED573" />
    </linearGradient>

    <!-- 3D Base Shadow -->
    <filter id="shadow-67">
      <feDropShadow dx="0" dy="10" stdDeviation="8" flood-color="#000000" flood-opacity="0.25" />
    </filter>
  </defs>

  <!-- Background -->
  <circle cx="256" cy="256" r="236" fill="url(#bg-67)" stroke="#c6c8ea" stroke-width="6" />

  <!-- Sparkles -->
  <g fill="#FFD43B">
    <circle cx="100" cy="130" r="8" />
    <circle cx="400" cy="120" r="10" />
    <circle cx="430" cy="330" r="7" />
  </g>

  <!-- Number -->
  <g filter="url(#shadow-67)">
    <!-- Side -->
    <text x="256" y="215" 
          text-anchor="middle" 
          font-size="180" 
          font-weight="900" 
          font-family="Comic Sans MS, Arial Rounded MT Bold, sans-serif" 
          fill="url(#side-67)" 
          stroke="url(#side-67)" 
          stroke-width="18" 
          transform="translate(0, 12)">67</text>

    <!-- Front -->
    <text x="256" y="215" 
          text-anchor="middle" 
          font-size="180" 
          font-weight="900" 
          font-family="Comic Sans MS, Arial Rounded MT Bold, sans-serif" 
          fill="url(#front-67)" 
          stroke="url(#front-67)" 
          stroke-width="18">67</text>
  </g>

  <!-- Cute Sprout -->
  <g transform="translate(256 65)">
    <path d="M0 0 Q-4 -15 -8 -24" stroke="#8B5A2B" stroke-width="5" fill="none" />
    <path d="M-8 -24 C-28 -28 -30 -5 -10 0 Z" fill="url(#leaf-67)" />
    <path d="M-8 -24 C5 -35 22 -20 5 -5 Z" fill="url(#leaf-67)" />
  </g>

  <!-- Eyes -->
  <g>
    <circle cx="215" cy="180" r="18" fill="#222" />
    <circle cx="208" cy="172" r="6" fill="#FFF" />

    <circle cx="297" cy="180" r="18" fill="#222" />
    <circle cx="290" cy="172" r="6" fill="#FFF" />
  </g>

  <!-- Cheeks -->
  <ellipse cx="185" cy="210" rx="18" ry="12" fill="#FF6B81" opacity="0.45" />
  <ellipse cx="327" cy="210" rx="18" ry="12" fill="#FF6B81" opacity="0.45" />

  <!-- Smile -->
  <path d="M225 225 Q256 255 287 225" stroke="#7A1022" stroke-width="8" fill="none" stroke-linecap="round" />

  <!-- Counting Object -->
  <g>
    <circle cx="113.0" cy="296.8" r="3.7" fill="#ffbe76" /><circle cx="117.0" cy="299.7" r="3.7" fill="#ffbe76" /><circle cx="115.4" cy="304.4" r="3.7" fill="#ffbe76" /><circle cx="110.6" cy="304.4" r="3.7" fill="#ffbe76" /><circle cx="109.0" cy="299.7" r="3.7" fill="#ffbe76" /><circle cx="113.0" cy="301.0" r="3.2" fill="#f1c40f" />
<circle cx="135.0" cy="296.8" r="3.7" fill="#ffbe76" /><circle cx="139.0" cy="299.7" r="3.7" fill="#ffbe76" /><circle cx="137.4" cy="304.4" r="3.7" fill="#ffbe76" /><circle cx="132.6" cy="304.4" r="3.7" fill="#ffbe76" /><circle cx="131.0" cy="299.7" r="3.7" fill="#ffbe76" /><circle cx="135.0" cy="301.0" r="3.2" fill="#f1c40f" />
<circle cx="157.0" cy="296.8" r="3.7" fill="#ffbe76" /><circle cx="161.0" cy="299.7" r="3.7" fill="#ffbe76" /><circle cx="159.4" cy="304.4" r="3.7" fill="#ffbe76" /><circle cx="154.6" cy="304.4" r="3.7" fill="#ffbe76" /><circle cx="153.0" cy="299.7" r="3.7" fill="#ffbe76" /><circle cx="157.0" cy="301.0" r="3.2" fill="#f1c40f" />
<circle cx="179.0" cy="296.8" r="3.7" fill="#ffbe76" /><circle cx="183.0" cy="299.7" r="3.7" fill="#ffbe76" /><circle cx="181.4" cy="304.4" r="3.7" fill="#ffbe76" /><circle cx="176.6" cy="304.4" r="3.7" fill="#ffbe76" /><circle cx="175.0" cy="299.7" r="3.7" fill="#ffbe76" /><circle cx="179.0" cy="301.0" r="3.2" fill="#f1c40f" />
<circle cx="201.0" cy="296.8" r="3.7" fill="#ffbe76" /><circle cx="205.0" cy="299.7" r="3.7" fill="#ffbe76" /><circle cx="203.4" cy="304.4" r="3.7" fill="#ffbe76" /><circle cx="198.6" cy="304.4" r="3.7" fill="#ffbe76" /><circle cx="197.0" cy="299.7" r="3.7" fill="#ffbe76" /><circle cx="201.0" cy="301.0" r="3.2" fill="#f1c40f" />
<circle cx="223.0" cy="296.8" r="3.7" fill="#ffbe76" /><circle cx="227.0" cy="299.7" r="3.7" fill="#ffbe76" /><circle cx="225.4" cy="304.4" r="3.7" fill="#ffbe76" /><circle cx="220.6" cy="304.4" r="3.7" fill="#ffbe76" /><circle cx="219.0" cy="299.7" r="3.7" fill="#ffbe76" /><circle cx="223.0" cy="301.0" r="3.2" fill="#f1c40f" />
<circle cx="245.0" cy="296.8" r="3.7" fill="#ffbe76" /><circle cx="249.0" cy="299.7" r="3.7" fill="#ffbe76" /><circle cx="247.4" cy="304.4" r="3.7" fill="#ffbe76" /><circle cx="242.6" cy="304.4" r="3.7" fill="#ffbe76" /><circle cx="241.0" cy="299.7" r="3.7" fill="#ffbe76" /><circle cx="245.0" cy="301.0" r="3.2" fill="#f1c40f" />
<circle cx="267.0" cy="296.8" r="3.7" fill="#ffbe76" /><circle cx="271.0" cy="299.7" r="3.7" fill="#ffbe76" /><circle cx="269.4" cy="304.4" r="3.7" fill="#ffbe76" /><circle cx="264.6" cy="304.4" r="3.7" fill="#ffbe76" /><circle cx="263.0" cy="299.7" r="3.7" fill="#ffbe76" /><circle cx="267.0" cy="301.0" r="3.2" fill="#f1c40f" />
<circle cx="289.0" cy="296.8" r="3.7" fill="#ffbe76" /><circle cx="293.0" cy="299.7" r="3.7" fill="#ffbe76" /><circle cx="291.4" cy="304.4" r="3.7" fill="#ffbe76" /><circle cx="286.6" cy="304.4" r="3.7" fill="#ffbe76" /><circle cx="285.0" cy="299.7" r="3.7" fill="#ffbe76" /><circle cx="289.0" cy="301.0" r="3.2" fill="#f1c40f" />
<circle cx="311.0" cy="296.8" r="3.7" fill="#ffbe76" /><circle cx="315.0" cy="299.7" r="3.7" fill="#ffbe76" /><circle cx="313.4" cy="304.4" r="3.7" fill="#ffbe76" /><circle cx="308.6" cy="304.4" r="3.7" fill="#ffbe76" /><circle cx="307.0" cy="299.7" r="3.7" fill="#ffbe76" /><circle cx="311.0" cy="301.0" r="3.2" fill="#f1c40f" />
<circle cx="333.0" cy="296.8" r="3.7" fill="#ffbe76" /><circle cx="337.0" cy="299.7" r="3.7" fill="#ffbe76" /><circle cx="335.4" cy="304.4" r="3.7" fill="#ffbe76" /><circle cx="330.6" cy="304.4" r="3.7" fill="#ffbe76" /><circle cx="329.0" cy="299.7" r="3.7" fill="#ffbe76" /><circle cx="333.0" cy="301.0" r="3.2" fill="#f1c40f" />
<circle cx="355.0" cy="296.8" r="3.7" fill="#ffbe76" /><circle cx="359.0" cy="299.7" r="3.7" fill="#ffbe76" /><circle cx="357.4" cy="304.4" r="3.7" fill="#ffbe76" /><circle cx="352.6" cy="304.4" r="3.7" fill="#ffbe76" /><circle cx="351.0" cy="299.7" r="3.7" fill="#ffbe76" /><circle cx="355.0" cy="301.0" r="3.2" fill="#f1c40f" />
<circle cx="377.0" cy="296.8" r="3.7" fill="#ffbe76" /><circle cx="381.0" cy="299.7" r="3.7" fill="#ffbe76" /><circle cx="379.4" cy="304.4" r="3.7" fill="#ffbe76" /><circle cx="374.6" cy="304.4" r="3.7" fill="#ffbe76" /><circle cx="373.0" cy="299.7" r="3.7" fill="#ffbe76" /><circle cx="377.0" cy="301.0" r="3.2" fill="#f1c40f" />
<circle cx="399.0" cy="296.8" r="3.7" fill="#ffbe76" /><circle cx="403.0" cy="299.7" r="3.7" fill="#ffbe76" /><circle cx="401.4" cy="304.4" r="3.7" fill="#ffbe76" /><circle cx="396.6" cy="304.4" r="3.7" fill="#ffbe76" /><circle cx="395.0" cy="299.7" r="3.7" fill="#ffbe76" /><circle cx="399.0" cy="301.0" r="3.2" fill="#f1c40f" />
<circle cx="113.0" cy="318.8" r="3.7" fill="#ffbe76" /><circle cx="117.0" cy="321.7" r="3.7" fill="#ffbe76" /><circle cx="115.4" cy="326.4" r="3.7" fill="#ffbe76" /><circle cx="110.6" cy="326.4" r="3.7" fill="#ffbe76" /><circle cx="109.0" cy="321.7" r="3.7" fill="#ffbe76" /><circle cx="113.0" cy="323.0" r="3.2" fill="#f1c40f" />
<circle cx="135.0" cy="318.8" r="3.7" fill="#ffbe76" /><circle cx="139.0" cy="321.7" r="3.7" fill="#ffbe76" /><circle cx="137.4" cy="326.4" r="3.7" fill="#ffbe76" /><circle cx="132.6" cy="326.4" r="3.7" fill="#ffbe76" /><circle cx="131.0" cy="321.7" r="3.7" fill="#ffbe76" /><circle cx="135.0" cy="323.0" r="3.2" fill="#f1c40f" />
<circle cx="157.0" cy="318.8" r="3.7" fill="#ffbe76" /><circle cx="161.0" cy="321.7" r="3.7" fill="#ffbe76" /><circle cx="159.4" cy="326.4" r="3.7" fill="#ffbe76" /><circle cx="154.6" cy="326.4" r="3.7" fill="#ffbe76" /><circle cx="153.0" cy="321.7" r="3.7" fill="#ffbe76" /><circle cx="157.0" cy="323.0" r="3.2" fill="#f1c40f" />
<circle cx="179.0" cy="318.8" r="3.7" fill="#ffbe76" /><circle cx="183.0" cy="321.7" r="3.7" fill="#ffbe76" /><circle cx="181.4" cy="326.4" r="3.7" fill="#ffbe76" /><circle cx="176.6" cy="326.4" r="3.7" fill="#ffbe76" /><circle cx="175.0" cy="321.7" r="3.7" fill="#ffbe76" /><circle cx="179.0" cy="323.0" r="3.2" fill="#f1c40f" />
<circle cx="201.0" cy="318.8" r="3.7" fill="#ffbe76" /><circle cx="205.0" cy="321.7" r="3.7" fill="#ffbe76" /><circle cx="203.4" cy="326.4" r="3.7" fill="#ffbe76" /><circle cx="198.6" cy="326.4" r="3.7" fill="#ffbe76" /><circle cx="197.0" cy="321.7" r="3.7" fill="#ffbe76" /><circle cx="201.0" cy="323.0" r="3.2" fill="#f1c40f" />
<circle cx="223.0" cy="318.8" r="3.7" fill="#ffbe76" /><circle cx="227.0" cy="321.7" r="3.7" fill="#ffbe76" /><circle cx="225.4" cy="326.4" r="3.7" fill="#ffbe76" /><circle cx="220.6" cy="326.4" r="3.7" fill="#ffbe76" /><circle cx="219.0" cy="321.7" r="3.7" fill="#ffbe76" /><circle cx="223.0" cy="323.0" r="3.2" fill="#f1c40f" />
<circle cx="245.0" cy="318.8" r="3.7" fill="#ffbe76" /><circle cx="249.0" cy="321.7" r="3.7" fill="#ffbe76" /><circle cx="247.4" cy="326.4" r="3.7" fill="#ffbe76" /><circle cx="242.6" cy="326.4" r="3.7" fill="#ffbe76" /><circle cx="241.0" cy="321.7" r="3.7" fill="#ffbe76" /><circle cx="245.0" cy="323.0" r="3.2" fill="#f1c40f" />
<circle cx="267.0" cy="318.8" r="3.7" fill="#ffbe76" /><circle cx="271.0" cy="321.7" r="3.7" fill="#ffbe76" /><circle cx="269.4" cy="326.4" r="3.7" fill="#ffbe76" /><circle cx="264.6" cy="326.4" r="3.7" fill="#ffbe76" /><circle cx="263.0" cy="321.7" r="3.7" fill="#ffbe76" /><circle cx="267.0" cy="323.0" r="3.2" fill="#f1c40f" />
<circle cx="289.0" cy="318.8" r="3.7" fill="#ffbe76" /><circle cx="293.0" cy="321.7" r="3.7" fill="#ffbe76" /><circle cx="291.4" cy="326.4" r="3.7" fill="#ffbe76" /><circle cx="286.6" cy="326.4" r="3.7" fill="#ffbe76" /><circle cx="285.0" cy="321.7" r="3.7" fill="#ffbe76" /><circle cx="289.0" cy="323.0" r="3.2" fill="#f1c40f" />
<circle cx="311.0" cy="318.8" r="3.7" fill="#ffbe76" /><circle cx="315.0" cy="321.7" r="3.7" fill="#ffbe76" /><circle cx="313.4" cy="326.4" r="3.7" fill="#ffbe76" /><circle cx="308.6" cy="326.4" r="3.7" fill="#ffbe76" /><circle cx="307.0" cy="321.7" r="3.7" fill="#ffbe76" /><circle cx="311.0" cy="323.0" r="3.2" fill="#f1c40f" />
<circle cx="333.0" cy="318.8" r="3.7" fill="#ffbe76" /><circle cx="337.0" cy="321.7" r="3.7" fill="#ffbe76" /><circle cx="335.4" cy="326.4" r="3.7" fill="#ffbe76" /><circle cx="330.6" cy="326.4" r="3.7" fill="#ffbe76" /><circle cx="329.0" cy="321.7" r="3.7" fill="#ffbe76" /><circle cx="333.0" cy="323.0" r="3.2" fill="#f1c40f" />
<circle cx="355.0" cy="318.8" r="3.7" fill="#ffbe76" /><circle cx="359.0" cy="321.7" r="3.7" fill="#ffbe76" /><circle cx="357.4" cy="326.4" r="3.7" fill="#ffbe76" /><circle cx="352.6" cy="326.4" r="3.7" fill="#ffbe76" /><circle cx="351.0" cy="321.7" r="3.7" fill="#ffbe76" /><circle cx="355.0" cy="323.0" r="3.2" fill="#f1c40f" />
<circle cx="377.0" cy="318.8" r="3.7" fill="#ffbe76" /><circle cx="381.0" cy="321.7" r="3.7" fill="#ffbe76" /><circle cx="379.4" cy="326.4" r="3.7" fill="#ffbe76" /><circle cx="374.6" cy="326.4" r="3.7" fill="#ffbe76" /><circle cx="373.0" cy="321.7" r="3.7" fill="#ffbe76" /><circle cx="377.0" cy="323.0" r="3.2" fill="#f1c40f" />
<circle cx="399.0" cy="318.8" r="3.7" fill="#ffbe76" /><circle cx="403.0" cy="321.7" r="3.7" fill="#ffbe76" /><circle cx="401.4" cy="326.4" r="3.7" fill="#ffbe76" /><circle cx="396.6" cy="326.4" r="3.7" fill="#ffbe76" /><circle cx="395.0" cy="321.7" r="3.7" fill="#ffbe76" /><circle cx="399.0" cy="323.0" r="3.2" fill="#f1c40f" />
<circle cx="113.0" cy="340.8" r="3.7" fill="#ffbe76" /><circle cx="117.0" cy="343.7" r="3.7" fill="#ffbe76" /><circle cx="115.4" cy="348.4" r="3.7" fill="#ffbe76" /><circle cx="110.6" cy="348.4" r="3.7" fill="#ffbe76" /><circle cx="109.0" cy="343.7" r="3.7" fill="#ffbe76" /><circle cx="113.0" cy="345.0" r="3.2" fill="#f1c40f" />
<circle cx="135.0" cy="340.8" r="3.7" fill="#ffbe76" /><circle cx="139.0" cy="343.7" r="3.7" fill="#ffbe76" /><circle cx="137.4" cy="348.4" r="3.7" fill="#ffbe76" /><circle cx="132.6" cy="348.4" r="3.7" fill="#ffbe76" /><circle cx="131.0" cy="343.7" r="3.7" fill="#ffbe76" /><circle cx="135.0" cy="345.0" r="3.2" fill="#f1c40f" />
<circle cx="157.0" cy="340.8" r="3.7" fill="#ffbe76" /><circle cx="161.0" cy="343.7" r="3.7" fill="#ffbe76" /><circle cx="159.4" cy="348.4" r="3.7" fill="#ffbe76" /><circle cx="154.6" cy="348.4" r="3.7" fill="#ffbe76" /><circle cx="153.0" cy="343.7" r="3.7" fill="#ffbe76" /><circle cx="157.0" cy="345.0" r="3.2" fill="#f1c40f" />
<circle cx="179.0" cy="340.8" r="3.7" fill="#ffbe76" /><circle cx="183.0" cy="343.7" r="3.7" fill="#ffbe76" /><circle cx="181.4" cy="348.4" r="3.7" fill="#ffbe76" /><circle cx="176.6" cy="348.4" r="3.7" fill="#ffbe76" /><circle cx="175.0" cy="343.7" r="3.7" fill="#ffbe76" /><circle cx="179.0" cy="345.0" r="3.2" fill="#f1c40f" />
<circle cx="201.0" cy="340.8" r="3.7" fill="#ffbe76" /><circle cx="205.0" cy="343.7" r="3.7" fill="#ffbe76" /><circle cx="203.4" cy="348.4" r="3.7" fill="#ffbe76" /><circle cx="198.6" cy="348.4" r="3.7" fill="#ffbe76" /><circle cx="197.0" cy="343.7" r="3.7" fill="#ffbe76" /><circle cx="201.0" cy="345.0" r="3.2" fill="#f1c40f" />
<circle cx="223.0" cy="340.8" r="3.7" fill="#ffbe76" /><circle cx="227.0" cy="343.7" r="3.7" fill="#ffbe76" /><circle cx="225.4" cy="348.4" r="3.7" fill="#ffbe76" /><circle cx="220.6" cy="348.4" r="3.7" fill="#ffbe76" /><circle cx="219.0" cy="343.7" r="3.7" fill="#ffbe76" /><circle cx="223.0" cy="345.0" r="3.2" fill="#f1c40f" />
<circle cx="245.0" cy="340.8" r="3.7" fill="#ffbe76" /><circle cx="249.0" cy="343.7" r="3.7" fill="#ffbe76" /><circle cx="247.4" cy="348.4" r="3.7" fill="#ffbe76" /><circle cx="242.6" cy="348.4" r="3.7" fill="#ffbe76" /><circle cx="241.0" cy="343.7" r="3.7" fill="#ffbe76" /><circle cx="245.0" cy="345.0" r="3.2" fill="#f1c40f" />
<circle cx="267.0" cy="340.8" r="3.7" fill="#ffbe76" /><circle cx="271.0" cy="343.7" r="3.7" fill="#ffbe76" /><circle cx="269.4" cy="348.4" r="3.7" fill="#ffbe76" /><circle cx="264.6" cy="348.4" r="3.7" fill="#ffbe76" /><circle cx="263.0" cy="343.7" r="3.7" fill="#ffbe76" /><circle cx="267.0" cy="345.0" r="3.2" fill="#f1c40f" />
<circle cx="289.0" cy="340.8" r="3.7" fill="#ffbe76" /><circle cx="293.0" cy="343.7" r="3.7" fill="#ffbe76" /><circle cx="291.4" cy="348.4" r="3.7" fill="#ffbe76" /><circle cx="286.6" cy="348.4" r="3.7" fill="#ffbe76" /><circle cx="285.0" cy="343.7" r="3.7" fill="#ffbe76" /><circle cx="289.0" cy="345.0" r="3.2" fill="#f1c40f" />
<circle cx="311.0" cy="340.8" r="3.7" fill="#ffbe76" /><circle cx="315.0" cy="343.7" r="3.7" fill="#ffbe76" /><circle cx="313.4" cy="348.4" r="3.7" fill="#ffbe76" /><circle cx="308.6" cy="348.4" r="3.7" fill="#ffbe76" /><circle cx="307.0" cy="343.7" r="3.7" fill="#ffbe76" /><circle cx="311.0" cy="345.0" r="3.2" fill="#f1c40f" />
<circle cx="333.0" cy="340.8" r="3.7" fill="#ffbe76" /><circle cx="337.0" cy="343.7" r="3.7" fill="#ffbe76" /><circle cx="335.4" cy="348.4" r="3.7" fill="#ffbe76" /><circle cx="330.6" cy="348.4" r="3.7" fill="#ffbe76" /><circle cx="329.0" cy="343.7" r="3.7" fill="#ffbe76" /><circle cx="333.0" cy="345.0" r="3.2" fill="#f1c40f" />
<circle cx="355.0" cy="340.8" r="3.7" fill="#ffbe76" /><circle cx="359.0" cy="343.7" r="3.7" fill="#ffbe76" /><circle cx="357.4" cy="348.4" r="3.7" fill="#ffbe76" /><circle cx="352.6" cy="348.4" r="3.7" fill="#ffbe76" /><circle cx="351.0" cy="343.7" r="3.7" fill="#ffbe76" /><circle cx="355.0" cy="345.0" r="3.2" fill="#f1c40f" />
<circle cx="377.0" cy="340.8" r="3.7" fill="#ffbe76" /><circle cx="381.0" cy="343.7" r="3.7" fill="#ffbe76" /><circle cx="379.4" cy="348.4" r="3.7" fill="#ffbe76" /><circle cx="374.6" cy="348.4" r="3.7" fill="#ffbe76" /><circle cx="373.0" cy="343.7" r="3.7" fill="#ffbe76" /><circle cx="377.0" cy="345.0" r="3.2" fill="#f1c40f" />
<circle cx="399.0" cy="340.8" r="3.7" fill="#ffbe76" /><circle cx="403.0" cy="343.7" r="3.7" fill="#ffbe76" /><circle cx="401.4" cy="348.4" r="3.7" fill="#ffbe76" /><circle cx="396.6" cy="348.4" r="3.7" fill="#ffbe76" /><circle cx="395.0" cy="343.7" r="3.7" fill="#ffbe76" /><circle cx="399.0" cy="345.0" r="3.2" fill="#f1c40f" />
<circle cx="113.0" cy="362.8" r="3.7" fill="#ffbe76" /><circle cx="117.0" cy="365.7" r="3.7" fill="#ffbe76" /><circle cx="115.4" cy="370.4" r="3.7" fill="#ffbe76" /><circle cx="110.6" cy="370.4" r="3.7" fill="#ffbe76" /><circle cx="109.0" cy="365.7" r="3.7" fill="#ffbe76" /><circle cx="113.0" cy="367.0" r="3.2" fill="#f1c40f" />
<circle cx="135.0" cy="362.8" r="3.7" fill="#ffbe76" /><circle cx="139.0" cy="365.7" r="3.7" fill="#ffbe76" /><circle cx="137.4" cy="370.4" r="3.7" fill="#ffbe76" /><circle cx="132.6" cy="370.4" r="3.7" fill="#ffbe76" /><circle cx="131.0" cy="365.7" r="3.7" fill="#ffbe76" /><circle cx="135.0" cy="367.0" r="3.2" fill="#f1c40f" />
<circle cx="157.0" cy="362.8" r="3.7" fill="#ffbe76" /><circle cx="161.0" cy="365.7" r="3.7" fill="#ffbe76" /><circle cx="159.4" cy="370.4" r="3.7" fill="#ffbe76" /><circle cx="154.6" cy="370.4" r="3.7" fill="#ffbe76" /><circle cx="153.0" cy="365.7" r="3.7" fill="#ffbe76" /><circle cx="157.0" cy="367.0" r="3.2" fill="#f1c40f" />
<circle cx="179.0" cy="362.8" r="3.7" fill="#ffbe76" /><circle cx="183.0" cy="365.7" r="3.7" fill="#ffbe76" /><circle cx="181.4" cy="370.4" r="3.7" fill="#ffbe76" /><circle cx="176.6" cy="370.4" r="3.7" fill="#ffbe76" /><circle cx="175.0" cy="365.7" r="3.7" fill="#ffbe76" /><circle cx="179.0" cy="367.0" r="3.2" fill="#f1c40f" />
<circle cx="201.0" cy="362.8" r="3.7" fill="#ffbe76" /><circle cx="205.0" cy="365.7" r="3.7" fill="#ffbe76" /><circle cx="203.4" cy="370.4" r="3.7" fill="#ffbe76" /><circle cx="198.6" cy="370.4" r="3.7" fill="#ffbe76" /><circle cx="197.0" cy="365.7" r="3.7" fill="#ffbe76" /><circle cx="201.0" cy="367.0" r="3.2" fill="#f1c40f" />
<circle cx="223.0" cy="362.8" r="3.7" fill="#ffbe76" /><circle cx="227.0" cy="365.7" r="3.7" fill="#ffbe76" /><circle cx="225.4" cy="370.4" r="3.7" fill="#ffbe76" /><circle cx="220.6" cy="370.4" r="3.7" fill="#ffbe76" /><circle cx="219.0" cy="365.7" r="3.7" fill="#ffbe76" /><circle cx="223.0" cy="367.0" r="3.2" fill="#f1c40f" />
<circle cx="245.0" cy="362.8" r="3.7" fill="#ffbe76" /><circle cx="249.0" cy="365.7" r="3.7" fill="#ffbe76" /><circle cx="247.4" cy="370.4" r="3.7" fill="#ffbe76" /><circle cx="242.6" cy="370.4" r="3.7" fill="#ffbe76" /><circle cx="241.0" cy="365.7" r="3.7" fill="#ffbe76" /><circle cx="245.0" cy="367.0" r="3.2" fill="#f1c40f" />
<circle cx="267.0" cy="362.8" r="3.7" fill="#ffbe76" /><circle cx="271.0" cy="365.7" r="3.7" fill="#ffbe76" /><circle cx="269.4" cy="370.4" r="3.7" fill="#ffbe76" /><circle cx="264.6" cy="370.4" r="3.7" fill="#ffbe76" /><circle cx="263.0" cy="365.7" r="3.7" fill="#ffbe76" /><circle cx="267.0" cy="367.0" r="3.2" fill="#f1c40f" />
<circle cx="289.0" cy="362.8" r="3.7" fill="#ffbe76" /><circle cx="293.0" cy="365.7" r="3.7" fill="#ffbe76" /><circle cx="291.4" cy="370.4" r="3.7" fill="#ffbe76" /><circle cx="286.6" cy="370.4" r="3.7" fill="#ffbe76" /><circle cx="285.0" cy="365.7" r="3.7" fill="#ffbe76" /><circle cx="289.0" cy="367.0" r="3.2" fill="#f1c40f" />
<circle cx="311.0" cy="362.8" r="3.7" fill="#ffbe76" /><circle cx="315.0" cy="365.7" r="3.7" fill="#ffbe76" /><circle cx="313.4" cy="370.4" r="3.7" fill="#ffbe76" /><circle cx="308.6" cy="370.4" r="3.7" fill="#ffbe76" /><circle cx="307.0" cy="365.7" r="3.7" fill="#ffbe76" /><circle cx="311.0" cy="367.0" r="3.2" fill="#f1c40f" />
<circle cx="333.0" cy="362.8" r="3.7" fill="#ffbe76" /><circle cx="337.0" cy="365.7" r="3.7" fill="#ffbe76" /><circle cx="335.4" cy="370.4" r="3.7" fill="#ffbe76" /><circle cx="330.6" cy="370.4" r="3.7" fill="#ffbe76" /><circle cx="329.0" cy="365.7" r="3.7" fill="#ffbe76" /><circle cx="333.0" cy="367.0" r="3.2" fill="#f1c40f" />
<circle cx="355.0" cy="362.8" r="3.7" fill="#ffbe76" /><circle cx="359.0" cy="365.7" r="3.7" fill="#ffbe76" /><circle cx="357.4" cy="370.4" r="3.7" fill="#ffbe76" /><circle cx="352.6" cy="370.4" r="3.7" fill="#ffbe76" /><circle cx="351.0" cy="365.7" r="3.7" fill="#ffbe76" /><circle cx="355.0" cy="367.0" r="3.2" fill="#f1c40f" />
<circle cx="377.0" cy="362.8" r="3.7" fill="#ffbe76" /><circle cx="381.0" cy="365.7" r="3.7" fill="#ffbe76" /><circle cx="379.4" cy="370.4" r="3.7" fill="#ffbe76" /><circle cx="374.6" cy="370.4" r="3.7" fill="#ffbe76" /><circle cx="373.0" cy="365.7" r="3.7" fill="#ffbe76" /><circle cx="377.0" cy="367.0" r="3.2" fill="#f1c40f" />
<circle cx="399.0" cy="362.8" r="3.7" fill="#ffbe76" /><circle cx="403.0" cy="365.7" r="3.7" fill="#ffbe76" /><circle cx="401.4" cy="370.4" r="3.7" fill="#ffbe76" /><circle cx="396.6" cy="370.4" r="3.7" fill="#ffbe76" /><circle cx="395.0" cy="365.7" r="3.7" fill="#ffbe76" /><circle cx="399.0" cy="367.0" r="3.2" fill="#f1c40f" />
<circle cx="113.0" cy="384.8" r="3.7" fill="#ffbe76" /><circle cx="117.0" cy="387.7" r="3.7" fill="#ffbe76" /><circle cx="115.4" cy="392.4" r="3.7" fill="#ffbe76" /><circle cx="110.6" cy="392.4" r="3.7" fill="#ffbe76" /><circle cx="109.0" cy="387.7" r="3.7" fill="#ffbe76" /><circle cx="113.0" cy="389.0" r="3.2" fill="#f1c40f" />
<circle cx="135.0" cy="384.8" r="3.7" fill="#ffbe76" /><circle cx="139.0" cy="387.7" r="3.7" fill="#ffbe76" /><circle cx="137.4" cy="392.4" r="3.7" fill="#ffbe76" /><circle cx="132.6" cy="392.4" r="3.7" fill="#ffbe76" /><circle cx="131.0" cy="387.7" r="3.7" fill="#ffbe76" /><circle cx="135.0" cy="389.0" r="3.2" fill="#f1c40f" />
<circle cx="157.0" cy="384.8" r="3.7" fill="#ffbe76" /><circle cx="161.0" cy="387.7" r="3.7" fill="#ffbe76" /><circle cx="159.4" cy="392.4" r="3.7" fill="#ffbe76" /><circle cx="154.6" cy="392.4" r="3.7" fill="#ffbe76" /><circle cx="153.0" cy="387.7" r="3.7" fill="#ffbe76" /><circle cx="157.0" cy="389.0" r="3.2" fill="#f1c40f" />
<circle cx="179.0" cy="384.8" r="3.7" fill="#ffbe76" /><circle cx="183.0" cy="387.7" r="3.7" fill="#ffbe76" /><circle cx="181.4" cy="392.4" r="3.7" fill="#ffbe76" /><circle cx="176.6" cy="392.4" r="3.7" fill="#ffbe76" /><circle cx="175.0" cy="387.7" r="3.7" fill="#ffbe76" /><circle cx="179.0" cy="389.0" r="3.2" fill="#f1c40f" />
<circle cx="201.0" cy="384.8" r="3.7" fill="#ffbe76" /><circle cx="205.0" cy="387.7" r="3.7" fill="#ffbe76" /><circle cx="203.4" cy="392.4" r="3.7" fill="#ffbe76" /><circle cx="198.6" cy="392.4" r="3.7" fill="#ffbe76" /><circle cx="197.0" cy="387.7" r="3.7" fill="#ffbe76" /><circle cx="201.0" cy="389.0" r="3.2" fill="#f1c40f" />
<circle cx="223.0" cy="384.8" r="3.7" fill="#ffbe76" /><circle cx="227.0" cy="387.7" r="3.7" fill="#ffbe76" /><circle cx="225.4" cy="392.4" r="3.7" fill="#ffbe76" /><circle cx="220.6" cy="392.4" r="3.7" fill="#ffbe76" /><circle cx="219.0" cy="387.7" r="3.7" fill="#ffbe76" /><circle cx="223.0" cy="389.0" r="3.2" fill="#f1c40f" />
<circle cx="245.0" cy="384.8" r="3.7" fill="#ffbe76" /><circle cx="249.0" cy="387.7" r="3.7" fill="#ffbe76" /><circle cx="247.4" cy="392.4" r="3.7" fill="#ffbe76" /><circle cx="242.6" cy="392.4" r="3.7" fill="#ffbe76" /><circle cx="241.0" cy="387.7" r="3.7" fill="#ffbe76" /><circle cx="245.0" cy="389.0" r="3.2" fill="#f1c40f" />
<circle cx="267.0" cy="384.8" r="3.7" fill="#ffbe76" /><circle cx="271.0" cy="387.7" r="3.7" fill="#ffbe76" /><circle cx="269.4" cy="392.4" r="3.7" fill="#ffbe76" /><circle cx="264.6" cy="392.4" r="3.7" fill="#ffbe76" /><circle cx="263.0" cy="387.7" r="3.7" fill="#ffbe76" /><circle cx="267.0" cy="389.0" r="3.2" fill="#f1c40f" />
<circle cx="289.0" cy="384.8" r="3.7" fill="#ffbe76" /><circle cx="293.0" cy="387.7" r="3.7" fill="#ffbe76" /><circle cx="291.4" cy="392.4" r="3.7" fill="#ffbe76" /><circle cx="286.6" cy="392.4" r="3.7" fill="#ffbe76" /><circle cx="285.0" cy="387.7" r="3.7" fill="#ffbe76" /><circle cx="289.0" cy="389.0" r="3.2" fill="#f1c40f" />
<circle cx="311.0" cy="384.8" r="3.7" fill="#ffbe76" /><circle cx="315.0" cy="387.7" r="3.7" fill="#ffbe76" /><circle cx="313.4" cy="392.4" r="3.7" fill="#ffbe76" /><circle cx="308.6" cy="392.4" r="3.7" fill="#ffbe76" /><circle cx="307.0" cy="387.7" r="3.7" fill="#ffbe76" /><circle cx="311.0" cy="389.0" r="3.2" fill="#f1c40f" />
<circle cx="333.0" cy="384.8" r="3.7" fill="#ffbe76" /><circle cx="337.0" cy="387.7" r="3.7" fill="#ffbe76" /><circle cx="335.4" cy="392.4" r="3.7" fill="#ffbe76" /><circle cx="330.6" cy="392.4" r="3.7" fill="#ffbe76" /><circle cx="329.0" cy="387.7" r="3.7" fill="#ffbe76" /><circle cx="333.0" cy="389.0" r="3.2" fill="#f1c40f" />
  </g>

  <!-- Bottom Banner -->
  <g filter="url(#shadow-67)">
    <rect x="96" y="420" width="320" height="54" rx="27" fill="#FFF" stroke="#c6c8ea" stroke-width="4" />
    <text x="256" y="455" 
          text-anchor="middle" 
          font-size="28" 
          font-weight="900" 
          font-family="Comic Sans MS, Arial Rounded MT Bold, sans-serif" 
          fill="#7C5730">67 - Sixty Seven</text>
  </g>
</svg>