<svg xmlns="http://www.w3.org/2000/svg" viewBox="0 0 512 512" width="100%" height="100%">
  <defs>
    <!-- Background Gradient -->
    <linearGradient id="bg-72" x1="0%" y1="0%" x2="0%" y2="100%">
      <stop offset="0%" stop-color="#fbf9ff" />
      <stop offset="100%" stop-color="#f3efff" />
    </linearGradient>

    <!-- Front Face Gradient -->
    <linearGradient id="front-72" x1="0%" y1="0%" x2="0%" y2="100%">
      <stop offset="0%" stop-color="#a789ff" />
      <stop offset="100%" stop-color="#3d00f4" />
    </linearGradient>

    <!-- 3D Side/Extrusion Color -->
    <linearGradient id="side-72" x1="0%" y1="0%" x2="0%" y2="100%">
      <stop offset="0%" stop-color="#3000c1" />
      <stop offset="100%" stop-color="#23008e" />
    </linearGradient>

    <!-- Leaf Sprout Gradient -->
    <linearGradient id="leaf-72" x1="0%" y1="0%" x2="100%" y2="100%">
      <stop offset="0%" stop-color="#7BED9F" />
      <stop offset="100%" stop-color="#2ED573" />
    </linearGradient>

    <!-- 3D Base Shadow -->
    <filter id="shadow-72">
      <feDropShadow dx="0" dy="10" stdDeviation="8" flood-color="#000000" flood-opacity="0.25" />
    </filter>
  </defs>

  <!-- Background -->
  <circle cx="256" cy="256" r="236" fill="url(#bg-72)" stroke="#cfc6ea" stroke-width="6" />

  <!-- Sparkles -->
  <g fill="#FFD43B">
    <circle cx="100" cy="130" r="8" />
    <circle cx="400" cy="120" r="10" />
    <circle cx="430" cy="330" r="7" />
  </g>

  <!-- Number -->
  <g filter="url(#shadow-72)">
    <!-- Side -->
    <text x="256" y="215" 
          text-anchor="middle" 
          font-size="180" 
          font-weight="900" 
          font-family="Comic Sans MS, Arial Rounded MT Bold, sans-serif" 
          fill="url(#side-72)" 
          stroke="url(#side-72)" 
          stroke-width="18" 
          transform="translate(0, 12)">72</text>

    <!-- Front -->
    <text x="256" y="215" 
          text-anchor="middle" 
          font-size="180" 
          font-weight="900" 
          font-family="Comic Sans MS, Arial Rounded MT Bold, sans-serif" 
          fill="url(#front-72)" 
          stroke="url(#front-72)" 
          stroke-width="18">72</text>
  </g>

  <!-- Cute Sprout -->
  <g transform="translate(256 65)">
    <path d="M0 0 Q-4 -15 -8 -24" stroke="#8B5A2B" stroke-width="5" fill="none" />
    <path d="M-8 -24 C-28 -28 -30 -5 -10 0 Z" fill="url(#leaf-72)" />
    <path d="M-8 -24 C5 -35 22 -20 5 -5 Z" fill="url(#leaf-72)" />
  </g>

  <!-- Eyes -->
  <g>
    <circle cx="215" cy="180" r="18" fill="#222" />
    <circle cx="208" cy="172" r="6" fill="#FFF" />

    <circle cx="297" cy="180" r="18" fill="#222" />
    <circle cx="290" cy="172" r="6" fill="#FFF" />
  </g>

  <!-- Cheeks -->
  <ellipse cx="185" cy="210" rx="18" ry="12" fill="#FF6B81" opacity="0.45" />
  <ellipse cx="327" cy="210" rx="18" ry="12" fill="#FF6B81" opacity="0.45" />

  <!-- Smile -->
  <path d="M225 225 Q256 255 287 225" stroke="#7A1022" stroke-width="8" fill="none" stroke-linecap="round" />

  <!-- Counting Object -->
  <g>
    <polygon points="106.7,293.4 109.0,299.1 115.2,299.6 110.5,303.6 111.9,309.6 106.7,306.4 101.4,309.6 102.8,303.6 98.1,299.6 104.3,299.1" fill="#FFD43B" stroke="#e67e22" stroke-width="1.2" />
<polygon points="128.0,293.4 130.4,299.1 136.5,299.6 131.8,303.6 133.3,309.6 128.0,306.4 122.7,309.6 124.2,303.6 119.5,299.6 125.6,299.1" fill="#FFD43B" stroke="#e67e22" stroke-width="1.2" />
<polygon points="149.3,293.4 151.7,299.1 157.9,299.6 153.2,303.6 154.6,309.6 149.3,306.4 144.1,309.6 145.5,303.6 140.8,299.6 147.0,299.1" fill="#FFD43B" stroke="#e67e22" stroke-width="1.2" />
<polygon points="170.7,293.4 173.0,299.1 179.2,299.6 174.5,303.6 175.9,309.6 170.7,306.4 165.4,309.6 166.8,303.6 162.1,299.6 168.3,299.1" fill="#FFD43B" stroke="#e67e22" stroke-width="1.2" />
<polygon points="192.0,293.4 194.4,299.1 200.5,299.6 195.8,303.6 197.3,309.6 192.0,306.4 186.7,309.6 188.2,303.6 183.5,299.6 189.6,299.1" fill="#FFD43B" stroke="#e67e22" stroke-width="1.2" />
<polygon points="213.3,293.4 215.7,299.1 221.9,299.6 217.2,303.6 218.6,309.6 213.3,306.4 208.1,309.6 209.5,303.6 204.8,299.6 211.0,299.1" fill="#FFD43B" stroke="#e67e22" stroke-width="1.2" />
<polygon points="234.7,293.4 237.0,299.1 243.2,299.6 238.5,303.6 239.9,309.6 234.7,306.4 229.4,309.6 230.8,303.6 226.1,299.6 232.3,299.1" fill="#FFD43B" stroke="#e67e22" stroke-width="1.2" />
<polygon points="256.0,293.4 258.4,299.1 264.5,299.6 259.8,303.6 261.3,309.6 256.0,306.4 250.7,309.6 252.2,303.6 247.5,299.6 253.6,299.1" fill="#FFD43B" stroke="#e67e22" stroke-width="1.2" />
<polygon points="277.3,293.4 279.7,299.1 285.9,299.6 281.2,303.6 282.6,309.6 277.3,306.4 272.1,309.6 273.5,303.6 268.8,299.6 275.0,299.1" fill="#FFD43B" stroke="#e67e22" stroke-width="1.2" />
<polygon points="298.7,293.4 301.0,299.1 307.2,299.6 302.5,303.6 303.9,309.6 298.7,306.4 293.4,309.6 294.8,303.6 290.1,299.6 296.3,299.1" fill="#FFD43B" stroke="#e67e22" stroke-width="1.2" />
<polygon points="320.0,293.4 322.4,299.1 328.5,299.6 323.8,303.6 325.3,309.6 320.0,306.4 314.7,309.6 316.2,303.6 311.5,299.6 317.6,299.1" fill="#FFD43B" stroke="#e67e22" stroke-width="1.2" />
<polygon points="341.3,293.4 343.7,299.1 349.9,299.6 345.2,303.6 346.6,309.6 341.3,306.4 336.1,309.6 337.5,303.6 332.8,299.6 339.0,299.1" fill="#FFD43B" stroke="#e67e22" stroke-width="1.2" />
<polygon points="362.7,293.4 365.0,299.1 371.2,299.6 366.5,303.6 367.9,309.6 362.7,306.4 357.4,309.6 358.8,303.6 354.1,299.6 360.3,299.1" fill="#FFD43B" stroke="#e67e22" stroke-width="1.2" />
<polygon points="384.0,293.4 386.4,299.1 392.5,299.6 387.8,303.6 389.3,309.6 384.0,306.4 378.7,309.6 380.2,303.6 375.5,299.6 381.6,299.1" fill="#FFD43B" stroke="#e67e22" stroke-width="1.2" />
<polygon points="405.3,293.4 407.7,299.1 413.9,299.6 409.2,303.6 410.6,309.6 405.3,306.4 400.1,309.6 401.5,303.6 396.8,299.6 403.0,299.1" fill="#FFD43B" stroke="#e67e22" stroke-width="1.2" />
<polygon points="106.7,314.7 109.0,320.4 115.2,320.9 110.5,324.9 111.9,330.9 106.7,327.7 101.4,330.9 102.8,324.9 98.1,320.9 104.3,320.4" fill="#FFD43B" stroke="#e67e22" stroke-width="1.2" />
<polygon points="128.0,314.7 130.4,320.4 136.5,320.9 131.8,324.9 133.3,330.9 128.0,327.7 122.7,330.9 124.2,324.9 119.5,320.9 125.6,320.4" fill="#FFD43B" stroke="#e67e22" stroke-width="1.2" />
<polygon points="149.3,314.7 151.7,320.4 157.9,320.9 153.2,324.9 154.6,330.9 149.3,327.7 144.1,330.9 145.5,324.9 140.8,320.9 147.0,320.4" fill="#FFD43B" stroke="#e67e22" stroke-width="1.2" />
<polygon points="170.7,314.7 173.0,320.4 179.2,320.9 174.5,324.9 175.9,330.9 170.7,327.7 165.4,330.9 166.8,324.9 162.1,320.9 168.3,320.4" fill="#FFD43B" stroke="#e67e22" stroke-width="1.2" />
<polygon points="192.0,314.7 194.4,320.4 200.5,320.9 195.8,324.9 197.3,330.9 192.0,327.7 186.7,330.9 188.2,324.9 183.5,320.9 189.6,320.4" fill="#FFD43B" stroke="#e67e22" stroke-width="1.2" />
<polygon points="213.3,314.7 215.7,320.4 221.9,320.9 217.2,324.9 218.6,330.9 213.3,327.7 208.1,330.9 209.5,324.9 204.8,320.9 211.0,320.4" fill="#FFD43B" stroke="#e67e22" stroke-width="1.2" />
<polygon points="234.7,314.7 237.0,320.4 243.2,320.9 238.5,324.9 239.9,330.9 234.7,327.7 229.4,330.9 230.8,324.9 226.1,320.9 232.3,320.4" fill="#FFD43B" stroke="#e67e22" stroke-width="1.2" />
<polygon points="256.0,314.7 258.4,320.4 264.5,320.9 259.8,324.9 261.3,330.9 256.0,327.7 250.7,330.9 252.2,324.9 247.5,320.9 253.6,320.4" fill="#FFD43B" stroke="#e67e22" stroke-width="1.2" />
<polygon points="277.3,314.7 279.7,320.4 285.9,320.9 281.2,324.9 282.6,330.9 277.3,327.7 272.1,330.9 273.5,324.9 268.8,320.9 275.0,320.4" fill="#FFD43B" stroke="#e67e22" stroke-width="1.2" />
<polygon points="298.7,314.7 301.0,320.4 307.2,320.9 302.5,324.9 303.9,330.9 298.7,327.7 293.4,330.9 294.8,324.9 290.1,320.9 296.3,320.4" fill="#FFD43B" stroke="#e67e22" stroke-width="1.2" />
<polygon points="320.0,314.7 322.4,320.4 328.5,320.9 323.8,324.9 325.3,330.9 320.0,327.7 314.7,330.9 316.2,324.9 311.5,320.9 317.6,320.4" fill="#FFD43B" stroke="#e67e22" stroke-width="1.2" />
<polygon points="341.3,314.7 343.7,320.4 349.9,320.9 345.2,324.9 346.6,330.9 341.3,327.7 336.1,330.9 337.5,324.9 332.8,320.9 339.0,320.4" fill="#FFD43B" stroke="#e67e22" stroke-width="1.2" />
<polygon points="362.7,314.7 365.0,320.4 371.2,320.9 366.5,324.9 367.9,330.9 362.7,327.7 357.4,330.9 358.8,324.9 354.1,320.9 360.3,320.4" fill="#FFD43B" stroke="#e67e22" stroke-width="1.2" />
<polygon points="384.0,314.7 386.4,320.4 392.5,320.9 387.8,324.9 389.3,330.9 384.0,327.7 378.7,330.9 380.2,324.9 375.5,320.9 381.6,320.4" fill="#FFD43B" stroke="#e67e22" stroke-width="1.2" />
<polygon points="405.3,314.7 407.7,320.4 413.9,320.9 409.2,324.9 410.6,330.9 405.3,327.7 400.1,330.9 401.5,324.9 396.8,320.9 403.0,320.4" fill="#FFD43B" stroke="#e67e22" stroke-width="1.2" />
<polygon points="106.7,336.0 109.0,341.7 115.2,342.2 110.5,346.2 111.9,352.2 106.7,349.0 101.4,352.2 102.8,346.2 98.1,342.2 104.3,341.7" fill="#FFD43B" stroke="#e67e22" stroke-width="1.2" />
<polygon points="128.0,336.0 130.4,341.7 136.5,342.2 131.8,346.2 133.3,352.2 128.0,349.0 122.7,352.2 124.2,346.2 119.5,342.2 125.6,341.7" fill="#FFD43B" stroke="#e67e22" stroke-width="1.2" />
<polygon points="149.3,336.0 151.7,341.7 157.9,342.2 153.2,346.2 154.6,352.2 149.3,349.0 144.1,352.2 145.5,346.2 140.8,342.2 147.0,341.7" fill="#FFD43B" stroke="#e67e22" stroke-width="1.2" />
<polygon points="170.7,336.0 173.0,341.7 179.2,342.2 174.5,346.2 175.9,352.2 170.7,349.0 165.4,352.2 166.8,346.2 162.1,342.2 168.3,341.7" fill="#FFD43B" stroke="#e67e22" stroke-width="1.2" />
<polygon points="192.0,336.0 194.4,341.7 200.5,342.2 195.8,346.2 197.3,352.2 192.0,349.0 186.7,352.2 188.2,346.2 183.5,342.2 189.6,341.7" fill="#FFD43B" stroke="#e67e22" stroke-width="1.2" />
<polygon points="213.3,336.0 215.7,341.7 221.9,342.2 217.2,346.2 218.6,352.2 213.3,349.0 208.1,352.2 209.5,346.2 204.8,342.2 211.0,341.7" fill="#FFD43B" stroke="#e67e22" stroke-width="1.2" />
<polygon points="234.7,336.0 237.0,341.7 243.2,342.2 238.5,346.2 239.9,352.2 234.7,349.0 229.4,352.2 230.8,346.2 226.1,342.2 232.3,341.7" fill="#FFD43B" stroke="#e67e22" stroke-width="1.2" />
<polygon points="256.0,336.0 258.4,341.7 264.5,342.2 259.8,346.2 261.3,352.2 256.0,349.0 250.7,352.2 252.2,346.2 247.5,342.2 253.6,341.7" fill="#FFD43B" stroke="#e67e22" stroke-width="1.2" />
<polygon points="277.3,336.0 279.7,341.7 285.9,342.2 281.2,346.2 282.6,352.2 277.3,349.0 272.1,352.2 273.5,346.2 268.8,342.2 275.0,341.7" fill="#FFD43B" stroke="#e67e22" stroke-width="1.2" />
<polygon points="298.7,336.0 301.0,341.7 307.2,342.2 302.5,346.2 303.9,352.2 298.7,349.0 293.4,352.2 294.8,346.2 290.1,342.2 296.3,341.7" fill="#FFD43B" stroke="#e67e22" stroke-width="1.2" />
<polygon points="320.0,336.0 322.4,341.7 328.5,342.2 323.8,346.2 325.3,352.2 320.0,349.0 314.7,352.2 316.2,346.2 311.5,342.2 317.6,341.7" fill="#FFD43B" stroke="#e67e22" stroke-width="1.2" />
<polygon points="341.3,336.0 343.7,341.7 349.9,342.2 345.2,346.2 346.6,352.2 341.3,349.0 336.1,352.2 337.5,346.2 332.8,342.2 339.0,341.7" fill="#FFD43B" stroke="#e67e22" stroke-width="1.2" />
<polygon points="362.7,336.0 365.0,341.7 371.2,342.2 366.5,346.2 367.9,352.2 362.7,349.0 357.4,352.2 358.8,346.2 354.1,342.2 360.3,341.7" fill="#FFD43B" stroke="#e67e22" stroke-width="1.2" />
<polygon points="384.0,336.0 386.4,341.7 392.5,342.2 387.8,346.2 389.3,352.2 384.0,349.0 378.7,352.2 380.2,346.2 375.5,342.2 381.6,341.7" fill="#FFD43B" stroke="#e67e22" stroke-width="1.2" />
<polygon points="405.3,336.0 407.7,341.7 413.9,342.2 409.2,346.2 410.6,352.2 405.3,349.0 400.1,352.2 401.5,346.2 396.8,342.2 403.0,341.7" fill="#FFD43B" stroke="#e67e22" stroke-width="1.2" />
<polygon points="106.7,357.4 109.0,363.1 115.2,363.6 110.5,367.6 111.9,373.6 106.7,370.4 101.4,373.6 102.8,367.6 98.1,363.6 104.3,363.1" fill="#FFD43B" stroke="#e67e22" stroke-width="1.2" />
<polygon points="128.0,357.4 130.4,363.1 136.5,363.6 131.8,367.6 133.3,373.6 128.0,370.4 122.7,373.6 124.2,367.6 119.5,363.6 125.6,363.1" fill="#FFD43B" stroke="#e67e22" stroke-width="1.2" />
<polygon points="149.3,357.4 151.7,363.1 157.9,363.6 153.2,367.6 154.6,373.6 149.3,370.4 144.1,373.6 145.5,367.6 140.8,363.6 147.0,363.1" fill="#FFD43B" stroke="#e67e22" stroke-width="1.2" />
<polygon points="170.7,357.4 173.0,363.1 179.2,363.6 174.5,367.6 175.9,373.6 170.7,370.4 165.4,373.6 166.8,367.6 162.1,363.6 168.3,363.1" fill="#FFD43B" stroke="#e67e22" stroke-width="1.2" />
<polygon points="192.0,357.4 194.4,363.1 200.5,363.6 195.8,367.6 197.3,373.6 192.0,370.4 186.7,373.6 188.2,367.6 183.5,363.6 189.6,363.1" fill="#FFD43B" stroke="#e67e22" stroke-width="1.2" />
<polygon points="213.3,357.4 215.7,363.1 221.9,363.6 217.2,367.6 218.6,373.6 213.3,370.4 208.1,373.6 209.5,367.6 204.8,363.6 211.0,363.1" fill="#FFD43B" stroke="#e67e22" stroke-width="1.2" />
<polygon points="234.7,357.4 237.0,363.1 243.2,363.6 238.5,367.6 239.9,373.6 234.7,370.4 229.4,373.6 230.8,367.6 226.1,363.6 232.3,363.1" fill="#FFD43B" stroke="#e67e22" stroke-width="1.2" />
<polygon points="256.0,357.4 258.4,363.1 264.5,363.6 259.8,367.6 261.3,373.6 256.0,370.4 250.7,373.6 252.2,367.6 247.5,363.6 253.6,363.1" fill="#FFD43B" stroke="#e67e22" stroke-width="1.2" />
<polygon points="277.3,357.4 279.7,363.1 285.9,363.6 281.2,367.6 282.6,373.6 277.3,370.4 272.1,373.6 273.5,367.6 268.8,363.6 275.0,363.1" fill="#FFD43B" stroke="#e67e22" stroke-width="1.2" />
<polygon points="298.7,357.4 301.0,363.1 307.2,363.6 302.5,367.6 303.9,373.6 298.7,370.4 293.4,373.6 294.8,367.6 290.1,363.6 296.3,363.1" fill="#FFD43B" stroke="#e67e22" stroke-width="1.2" />
<polygon points="320.0,357.4 322.4,363.1 328.5,363.6 323.8,367.6 325.3,373.6 320.0,370.4 314.7,373.6 316.2,367.6 311.5,363.6 317.6,363.1" fill="#FFD43B" stroke="#e67e22" stroke-width="1.2" />
<polygon points="341.3,357.4 343.7,363.1 349.9,363.6 345.2,367.6 346.6,373.6 341.3,370.4 336.1,373.6 337.5,367.6 332.8,363.6 339.0,363.1" fill="#FFD43B" stroke="#e67e22" stroke-width="1.2" />
<polygon points="362.7,357.4 365.0,363.1 371.2,363.6 366.5,367.6 367.9,373.6 362.7,370.4 357.4,373.6 358.8,367.6 354.1,363.6 360.3,363.1" fill="#FFD43B" stroke="#e67e22" stroke-width="1.2" />
<polygon points="384.0,357.4 386.4,363.1 392.5,363.6 387.8,367.6 389.3,373.6 384.0,370.4 378.7,373.6 380.2,367.6 375.5,363.6 381.6,363.1" fill="#FFD43B" stroke="#e67e22" stroke-width="1.2" />
<polygon points="405.3,357.4 407.7,363.1 413.9,363.6 409.2,367.6 410.6,373.6 405.3,370.4 400.1,373.6 401.5,367.6 396.8,363.6 403.0,363.1" fill="#FFD43B" stroke="#e67e22" stroke-width="1.2" />
<polygon points="106.7,378.7 109.0,384.4 115.2,384.9 110.5,388.9 111.9,394.9 106.7,391.7 101.4,394.9 102.8,388.9 98.1,384.9 104.3,384.4" fill="#FFD43B" stroke="#e67e22" stroke-width="1.2" />
<polygon points="128.0,378.7 130.4,384.4 136.5,384.9 131.8,388.9 133.3,394.9 128.0,391.7 122.7,394.9 124.2,388.9 119.5,384.9 125.6,384.4" fill="#FFD43B" stroke="#e67e22" stroke-width="1.2" />
<polygon points="149.3,378.7 151.7,384.4 157.9,384.9 153.2,388.9 154.6,394.9 149.3,391.7 144.1,394.9 145.5,388.9 140.8,384.9 147.0,384.4" fill="#FFD43B" stroke="#e67e22" stroke-width="1.2" />
<polygon points="170.7,378.7 173.0,384.4 179.2,384.9 174.5,388.9 175.9,394.9 170.7,391.7 165.4,394.9 166.8,388.9 162.1,384.9 168.3,384.4" fill="#FFD43B" stroke="#e67e22" stroke-width="1.2" />
<polygon points="192.0,378.7 194.4,384.4 200.5,384.9 195.8,388.9 197.3,394.9 192.0,391.7 186.7,394.9 188.2,388.9 183.5,384.9 189.6,384.4" fill="#FFD43B" stroke="#e67e22" stroke-width="1.2" />
<polygon points="213.3,378.7 215.7,384.4 221.9,384.9 217.2,388.9 218.6,394.9 213.3,391.7 208.1,394.9 209.5,388.9 204.8,384.9 211.0,384.4" fill="#FFD43B" stroke="#e67e22" stroke-width="1.2" />
<polygon points="234.7,378.7 237.0,384.4 243.2,384.9 238.5,388.9 239.9,394.9 234.7,391.7 229.4,394.9 230.8,388.9 226.1,384.9 232.3,384.4" fill="#FFD43B" stroke="#e67e22" stroke-width="1.2" />
<polygon points="256.0,378.7 258.4,384.4 264.5,384.9 259.8,388.9 261.3,394.9 256.0,391.7 250.7,394.9 252.2,388.9 247.5,384.9 253.6,384.4" fill="#FFD43B" stroke="#e67e22" stroke-width="1.2" />
<polygon points="277.3,378.7 279.7,384.4 285.9,384.9 281.2,388.9 282.6,394.9 277.3,391.7 272.1,394.9 273.5,388.9 268.8,384.9 275.0,384.4" fill="#FFD43B" stroke="#e67e22" stroke-width="1.2" />
<polygon points="298.7,378.7 301.0,384.4 307.2,384.9 302.5,388.9 303.9,394.9 298.7,391.7 293.4,394.9 294.8,388.9 290.1,384.9 296.3,384.4" fill="#FFD43B" stroke="#e67e22" stroke-width="1.2" />
<polygon points="320.0,378.7 322.4,384.4 328.5,384.9 323.8,388.9 325.3,394.9 320.0,391.7 314.7,394.9 316.2,388.9 311.5,384.9 317.6,384.4" fill="#FFD43B" stroke="#e67e22" stroke-width="1.2" />
<polygon points="341.3,378.7 343.7,384.4 349.9,384.9 345.2,388.9 346.6,394.9 341.3,391.7 336.1,394.9 337.5,388.9 332.8,384.9 339.0,384.4" fill="#FFD43B" stroke="#e67e22" stroke-width="1.2" />
  </g>

  <!-- Bottom Banner -->
  <g filter="url(#shadow-72)">
    <rect x="96" y="420" width="320" height="54" rx="27" fill="#FFF" stroke="#cfc6ea" stroke-width="4" />
    <text x="256" y="455" 
          text-anchor="middle" 
          font-size="28" 
          font-weight="900" 
          font-family="Comic Sans MS, Arial Rounded MT Bold, sans-serif" 
          fill="#7C5730">72 - Seventy Two</text>
  </g>
</svg>