<svg xmlns="http://www.w3.org/2000/svg" viewBox="0 0 512 512" width="100%" height="100%">
  <defs>
    <!-- Background Gradient -->
    <linearGradient id="bg-74" x1="0%" y1="0%" x2="0%" y2="100%">
      <stop offset="0%" stop-color="#fbf9ff" />
      <stop offset="100%" stop-color="#f5efff" />
    </linearGradient>

    <!-- Front Face Gradient -->
    <linearGradient id="front-74" x1="0%" y1="0%" x2="0%" y2="100%">
      <stop offset="0%" stop-color="#b489ff" />
      <stop offset="100%" stop-color="#5900f4" />
    </linearGradient>

    <!-- 3D Side/Extrusion Color -->
    <linearGradient id="side-74" x1="0%" y1="0%" x2="0%" y2="100%">
      <stop offset="0%" stop-color="#4700c1" />
      <stop offset="100%" stop-color="#34008e" />
    </linearGradient>

    <!-- Leaf Sprout Gradient -->
    <linearGradient id="leaf-74" x1="0%" y1="0%" x2="100%" y2="100%">
      <stop offset="0%" stop-color="#7BED9F" />
      <stop offset="100%" stop-color="#2ED573" />
    </linearGradient>

    <!-- 3D Base Shadow -->
    <filter id="shadow-74">
      <feDropShadow dx="0" dy="10" stdDeviation="8" flood-color="#000000" flood-opacity="0.25" />
    </filter>
  </defs>

  <!-- Background -->
  <circle cx="256" cy="256" r="236" fill="url(#bg-74)" stroke="#d3c6ea" stroke-width="6" />

  <!-- Sparkles -->
  <g fill="#FFD43B">
    <circle cx="100" cy="130" r="8" />
    <circle cx="400" cy="120" r="10" />
    <circle cx="430" cy="330" r="7" />
  </g>

  <!-- Number -->
  <g filter="url(#shadow-74)">
    <!-- Side -->
    <text x="256" y="215" 
          text-anchor="middle" 
          font-size="180" 
          font-weight="900" 
          font-family="Comic Sans MS, Arial Rounded MT Bold, sans-serif" 
          fill="url(#side-74)" 
          stroke="url(#side-74)" 
          stroke-width="18" 
          transform="translate(0, 12)">74</text>

    <!-- Front -->
    <text x="256" y="215" 
          text-anchor="middle" 
          font-size="180" 
          font-weight="900" 
          font-family="Comic Sans MS, Arial Rounded MT Bold, sans-serif" 
          fill="url(#front-74)" 
          stroke="url(#front-74)" 
          stroke-width="18">74</text>
  </g>

  <!-- Cute Sprout -->
  <g transform="translate(256 65)">
    <path d="M0 0 Q-4 -15 -8 -24" stroke="#8B5A2B" stroke-width="5" fill="none" />
    <path d="M-8 -24 C-28 -28 -30 -5 -10 0 Z" fill="url(#leaf-74)" />
    <path d="M-8 -24 C5 -35 22 -20 5 -5 Z" fill="url(#leaf-74)" />
  </g>

  <!-- Eyes -->
  <g>
    <circle cx="215" cy="180" r="18" fill="#222" />
    <circle cx="208" cy="172" r="6" fill="#FFF" />

    <circle cx="297" cy="180" r="18" fill="#222" />
    <circle cx="290" cy="172" r="6" fill="#FFF" />
  </g>

  <!-- Cheeks -->
  <ellipse cx="185" cy="210" rx="18" ry="12" fill="#FF6B81" opacity="0.45" />
  <ellipse cx="327" cy="210" rx="18" ry="12" fill="#FF6B81" opacity="0.45" />

  <!-- Smile -->
  <path d="M225 225 Q256 255 287 225" stroke="#7A1022" stroke-width="8" fill="none" stroke-linecap="round" />

  <!-- Counting Object -->
  <g>
    <circle cx="106.7" cy="302.3" r="9.0" fill="#81ecec" opacity="0.65" stroke="#00cec9" stroke-width="1.5" /><circle cx="104.0" cy="299.6" r="2.7" fill="#ffffff" opacity="0.85" />
<circle cx="128.0" cy="302.3" r="9.0" fill="#81ecec" opacity="0.65" stroke="#00cec9" stroke-width="1.5" /><circle cx="125.3" cy="299.6" r="2.7" fill="#ffffff" opacity="0.85" />
<circle cx="149.3" cy="302.3" r="9.0" fill="#81ecec" opacity="0.65" stroke="#00cec9" stroke-width="1.5" /><circle cx="146.6" cy="299.6" r="2.7" fill="#ffffff" opacity="0.85" />
<circle cx="170.7" cy="302.3" r="9.0" fill="#81ecec" opacity="0.65" stroke="#00cec9" stroke-width="1.5" /><circle cx="168.0" cy="299.6" r="2.7" fill="#ffffff" opacity="0.85" />
<circle cx="192.0" cy="302.3" r="9.0" fill="#81ecec" opacity="0.65" stroke="#00cec9" stroke-width="1.5" /><circle cx="189.3" cy="299.6" r="2.7" fill="#ffffff" opacity="0.85" />
<circle cx="213.3" cy="302.3" r="9.0" fill="#81ecec" opacity="0.65" stroke="#00cec9" stroke-width="1.5" /><circle cx="210.6" cy="299.6" r="2.7" fill="#ffffff" opacity="0.85" />
<circle cx="234.7" cy="302.3" r="9.0" fill="#81ecec" opacity="0.65" stroke="#00cec9" stroke-width="1.5" /><circle cx="232.0" cy="299.6" r="2.7" fill="#ffffff" opacity="0.85" />
<circle cx="256.0" cy="302.3" r="9.0" fill="#81ecec" opacity="0.65" stroke="#00cec9" stroke-width="1.5" /><circle cx="253.3" cy="299.6" r="2.7" fill="#ffffff" opacity="0.85" />
<circle cx="277.3" cy="302.3" r="9.0" fill="#81ecec" opacity="0.65" stroke="#00cec9" stroke-width="1.5" /><circle cx="274.6" cy="299.6" r="2.7" fill="#ffffff" opacity="0.85" />
<circle cx="298.7" cy="302.3" r="9.0" fill="#81ecec" opacity="0.65" stroke="#00cec9" stroke-width="1.5" /><circle cx="296.0" cy="299.6" r="2.7" fill="#ffffff" opacity="0.85" />
<circle cx="320.0" cy="302.3" r="9.0" fill="#81ecec" opacity="0.65" stroke="#00cec9" stroke-width="1.5" /><circle cx="317.3" cy="299.6" r="2.7" fill="#ffffff" opacity="0.85" />
<circle cx="341.3" cy="302.3" r="9.0" fill="#81ecec" opacity="0.65" stroke="#00cec9" stroke-width="1.5" /><circle cx="338.6" cy="299.6" r="2.7" fill="#ffffff" opacity="0.85" />
<circle cx="362.7" cy="302.3" r="9.0" fill="#81ecec" opacity="0.65" stroke="#00cec9" stroke-width="1.5" /><circle cx="360.0" cy="299.6" r="2.7" fill="#ffffff" opacity="0.85" />
<circle cx="384.0" cy="302.3" r="9.0" fill="#81ecec" opacity="0.65" stroke="#00cec9" stroke-width="1.5" /><circle cx="381.3" cy="299.6" r="2.7" fill="#ffffff" opacity="0.85" />
<circle cx="405.3" cy="302.3" r="9.0" fill="#81ecec" opacity="0.65" stroke="#00cec9" stroke-width="1.5" /><circle cx="402.6" cy="299.6" r="2.7" fill="#ffffff" opacity="0.85" />
<circle cx="106.7" cy="323.7" r="9.0" fill="#81ecec" opacity="0.65" stroke="#00cec9" stroke-width="1.5" /><circle cx="104.0" cy="321.0" r="2.7" fill="#ffffff" opacity="0.85" />
<circle cx="128.0" cy="323.7" r="9.0" fill="#81ecec" opacity="0.65" stroke="#00cec9" stroke-width="1.5" /><circle cx="125.3" cy="321.0" r="2.7" fill="#ffffff" opacity="0.85" />
<circle cx="149.3" cy="323.7" r="9.0" fill="#81ecec" opacity="0.65" stroke="#00cec9" stroke-width="1.5" /><circle cx="146.6" cy="321.0" r="2.7" fill="#ffffff" opacity="0.85" />
<circle cx="170.7" cy="323.7" r="9.0" fill="#81ecec" opacity="0.65" stroke="#00cec9" stroke-width="1.5" /><circle cx="168.0" cy="321.0" r="2.7" fill="#ffffff" opacity="0.85" />
<circle cx="192.0" cy="323.7" r="9.0" fill="#81ecec" opacity="0.65" stroke="#00cec9" stroke-width="1.5" /><circle cx="189.3" cy="321.0" r="2.7" fill="#ffffff" opacity="0.85" />
<circle cx="213.3" cy="323.7" r="9.0" fill="#81ecec" opacity="0.65" stroke="#00cec9" stroke-width="1.5" /><circle cx="210.6" cy="321.0" r="2.7" fill="#ffffff" opacity="0.85" />
<circle cx="234.7" cy="323.7" r="9.0" fill="#81ecec" opacity="0.65" stroke="#00cec9" stroke-width="1.5" /><circle cx="232.0" cy="321.0" r="2.7" fill="#ffffff" opacity="0.85" />
<circle cx="256.0" cy="323.7" r="9.0" fill="#81ecec" opacity="0.65" stroke="#00cec9" stroke-width="1.5" /><circle cx="253.3" cy="321.0" r="2.7" fill="#ffffff" opacity="0.85" />
<circle cx="277.3" cy="323.7" r="9.0" fill="#81ecec" opacity="0.65" stroke="#00cec9" stroke-width="1.5" /><circle cx="274.6" cy="321.0" r="2.7" fill="#ffffff" opacity="0.85" />
<circle cx="298.7" cy="323.7" r="9.0" fill="#81ecec" opacity="0.65" stroke="#00cec9" stroke-width="1.5" /><circle cx="296.0" cy="321.0" r="2.7" fill="#ffffff" opacity="0.85" />
<circle cx="320.0" cy="323.7" r="9.0" fill="#81ecec" opacity="0.65" stroke="#00cec9" stroke-width="1.5" /><circle cx="317.3" cy="321.0" r="2.7" fill="#ffffff" opacity="0.85" />
<circle cx="341.3" cy="323.7" r="9.0" fill="#81ecec" opacity="0.65" stroke="#00cec9" stroke-width="1.5" /><circle cx="338.6" cy="321.0" r="2.7" fill="#ffffff" opacity="0.85" />
<circle cx="362.7" cy="323.7" r="9.0" fill="#81ecec" opacity="0.65" stroke="#00cec9" stroke-width="1.5" /><circle cx="360.0" cy="321.0" r="2.7" fill="#ffffff" opacity="0.85" />
<circle cx="384.0" cy="323.7" r="9.0" fill="#81ecec" opacity="0.65" stroke="#00cec9" stroke-width="1.5" /><circle cx="381.3" cy="321.0" r="2.7" fill="#ffffff" opacity="0.85" />
<circle cx="405.3" cy="323.7" r="9.0" fill="#81ecec" opacity="0.65" stroke="#00cec9" stroke-width="1.5" /><circle cx="402.6" cy="321.0" r="2.7" fill="#ffffff" opacity="0.85" />
<circle cx="106.7" cy="345.0" r="9.0" fill="#81ecec" opacity="0.65" stroke="#00cec9" stroke-width="1.5" /><circle cx="104.0" cy="342.3" r="2.7" fill="#ffffff" opacity="0.85" />
<circle cx="128.0" cy="345.0" r="9.0" fill="#81ecec" opacity="0.65" stroke="#00cec9" stroke-width="1.5" /><circle cx="125.3" cy="342.3" r="2.7" fill="#ffffff" opacity="0.85" />
<circle cx="149.3" cy="345.0" r="9.0" fill="#81ecec" opacity="0.65" stroke="#00cec9" stroke-width="1.5" /><circle cx="146.6" cy="342.3" r="2.7" fill="#ffffff" opacity="0.85" />
<circle cx="170.7" cy="345.0" r="9.0" fill="#81ecec" opacity="0.65" stroke="#00cec9" stroke-width="1.5" /><circle cx="168.0" cy="342.3" r="2.7" fill="#ffffff" opacity="0.85" />
<circle cx="192.0" cy="345.0" r="9.0" fill="#81ecec" opacity="0.65" stroke="#00cec9" stroke-width="1.5" /><circle cx="189.3" cy="342.3" r="2.7" fill="#ffffff" opacity="0.85" />
<circle cx="213.3" cy="345.0" r="9.0" fill="#81ecec" opacity="0.65" stroke="#00cec9" stroke-width="1.5" /><circle cx="210.6" cy="342.3" r="2.7" fill="#ffffff" opacity="0.85" />
<circle cx="234.7" cy="345.0" r="9.0" fill="#81ecec" opacity="0.65" stroke="#00cec9" stroke-width="1.5" /><circle cx="232.0" cy="342.3" r="2.7" fill="#ffffff" opacity="0.85" />
<circle cx="256.0" cy="345.0" r="9.0" fill="#81ecec" opacity="0.65" stroke="#00cec9" stroke-width="1.5" /><circle cx="253.3" cy="342.3" r="2.7" fill="#ffffff" opacity="0.85" />
<circle cx="277.3" cy="345.0" r="9.0" fill="#81ecec" opacity="0.65" stroke="#00cec9" stroke-width="1.5" /><circle cx="274.6" cy="342.3" r="2.7" fill="#ffffff" opacity="0.85" />
<circle cx="298.7" cy="345.0" r="9.0" fill="#81ecec" opacity="0.65" stroke="#00cec9" stroke-width="1.5" /><circle cx="296.0" cy="342.3" r="2.7" fill="#ffffff" opacity="0.85" />
<circle cx="320.0" cy="345.0" r="9.0" fill="#81ecec" opacity="0.65" stroke="#00cec9" stroke-width="1.5" /><circle cx="317.3" cy="342.3" r="2.7" fill="#ffffff" opacity="0.85" />
<circle cx="341.3" cy="345.0" r="9.0" fill="#81ecec" opacity="0.65" stroke="#00cec9" stroke-width="1.5" /><circle cx="338.6" cy="342.3" r="2.7" fill="#ffffff" opacity="0.85" />
<circle cx="362.7" cy="345.0" r="9.0" fill="#81ecec" opacity="0.65" stroke="#00cec9" stroke-width="1.5" /><circle cx="360.0" cy="342.3" r="2.7" fill="#ffffff" opacity="0.85" />
<circle cx="384.0" cy="345.0" r="9.0" fill="#81ecec" opacity="0.65" stroke="#00cec9" stroke-width="1.5" /><circle cx="381.3" cy="342.3" r="2.7" fill="#ffffff" opacity="0.85" />
<circle cx="405.3" cy="345.0" r="9.0" fill="#81ecec" opacity="0.65" stroke="#00cec9" stroke-width="1.5" /><circle cx="402.6" cy="342.3" r="2.7" fill="#ffffff" opacity="0.85" />
<circle cx="106.7" cy="366.3" r="9.0" fill="#81ecec" opacity="0.65" stroke="#00cec9" stroke-width="1.5" /><circle cx="104.0" cy="363.6" r="2.7" fill="#ffffff" opacity="0.85" />
<circle cx="128.0" cy="366.3" r="9.0" fill="#81ecec" opacity="0.65" stroke="#00cec9" stroke-width="1.5" /><circle cx="125.3" cy="363.6" r="2.7" fill="#ffffff" opacity="0.85" />
<circle cx="149.3" cy="366.3" r="9.0" fill="#81ecec" opacity="0.65" stroke="#00cec9" stroke-width="1.5" /><circle cx="146.6" cy="363.6" r="2.7" fill="#ffffff" opacity="0.85" />
<circle cx="170.7" cy="366.3" r="9.0" fill="#81ecec" opacity="0.65" stroke="#00cec9" stroke-width="1.5" /><circle cx="168.0" cy="363.6" r="2.7" fill="#ffffff" opacity="0.85" />
<circle cx="192.0" cy="366.3" r="9.0" fill="#81ecec" opacity="0.65" stroke="#00cec9" stroke-width="1.5" /><circle cx="189.3" cy="363.6" r="2.7" fill="#ffffff" opacity="0.85" />
<circle cx="213.3" cy="366.3" r="9.0" fill="#81ecec" opacity="0.65" stroke="#00cec9" stroke-width="1.5" /><circle cx="210.6" cy="363.6" r="2.7" fill="#ffffff" opacity="0.85" />
<circle cx="234.7" cy="366.3" r="9.0" fill="#81ecec" opacity="0.65" stroke="#00cec9" stroke-width="1.5" /><circle cx="232.0" cy="363.6" r="2.7" fill="#ffffff" opacity="0.85" />
<circle cx="256.0" cy="366.3" r="9.0" fill="#81ecec" opacity="0.65" stroke="#00cec9" stroke-width="1.5" /><circle cx="253.3" cy="363.6" r="2.7" fill="#ffffff" opacity="0.85" />
<circle cx="277.3" cy="366.3" r="9.0" fill="#81ecec" opacity="0.65" stroke="#00cec9" stroke-width="1.5" /><circle cx="274.6" cy="363.6" r="2.7" fill="#ffffff" opacity="0.85" />
<circle cx="298.7" cy="366.3" r="9.0" fill="#81ecec" opacity="0.65" stroke="#00cec9" stroke-width="1.5" /><circle cx="296.0" cy="363.6" r="2.7" fill="#ffffff" opacity="0.85" />
<circle cx="320.0" cy="366.3" r="9.0" fill="#81ecec" opacity="0.65" stroke="#00cec9" stroke-width="1.5" /><circle cx="317.3" cy="363.6" r="2.7" fill="#ffffff" opacity="0.85" />
<circle cx="341.3" cy="366.3" r="9.0" fill="#81ecec" opacity="0.65" stroke="#00cec9" stroke-width="1.5" /><circle cx="338.6" cy="363.6" r="2.7" fill="#ffffff" opacity="0.85" />
<circle cx="362.7" cy="366.3" r="9.0" fill="#81ecec" opacity="0.65" stroke="#00cec9" stroke-width="1.5" /><circle cx="360.0" cy="363.6" r="2.7" fill="#ffffff" opacity="0.85" />
<circle cx="384.0" cy="366.3" r="9.0" fill="#81ecec" opacity="0.65" stroke="#00cec9" stroke-width="1.5" /><circle cx="381.3" cy="363.6" r="2.7" fill="#ffffff" opacity="0.85" />
<circle cx="405.3" cy="366.3" r="9.0" fill="#81ecec" opacity="0.65" stroke="#00cec9" stroke-width="1.5" /><circle cx="402.6" cy="363.6" r="2.7" fill="#ffffff" opacity="0.85" />
<circle cx="106.7" cy="387.7" r="9.0" fill="#81ecec" opacity="0.65" stroke="#00cec9" stroke-width="1.5" /><circle cx="104.0" cy="385.0" r="2.7" fill="#ffffff" opacity="0.85" />
<circle cx="128.0" cy="387.7" r="9.0" fill="#81ecec" opacity="0.65" stroke="#00cec9" stroke-width="1.5" /><circle cx="125.3" cy="385.0" r="2.7" fill="#ffffff" opacity="0.85" />
<circle cx="149.3" cy="387.7" r="9.0" fill="#81ecec" opacity="0.65" stroke="#00cec9" stroke-width="1.5" /><circle cx="146.6" cy="385.0" r="2.7" fill="#ffffff" opacity="0.85" />
<circle cx="170.7" cy="387.7" r="9.0" fill="#81ecec" opacity="0.65" stroke="#00cec9" stroke-width="1.5" /><circle cx="168.0" cy="385.0" r="2.7" fill="#ffffff" opacity="0.85" />
<circle cx="192.0" cy="387.7" r="9.0" fill="#81ecec" opacity="0.65" stroke="#00cec9" stroke-width="1.5" /><circle cx="189.3" cy="385.0" r="2.7" fill="#ffffff" opacity="0.85" />
<circle cx="213.3" cy="387.7" r="9.0" fill="#81ecec" opacity="0.65" stroke="#00cec9" stroke-width="1.5" /><circle cx="210.6" cy="385.0" r="2.7" fill="#ffffff" opacity="0.85" />
<circle cx="234.7" cy="387.7" r="9.0" fill="#81ecec" opacity="0.65" stroke="#00cec9" stroke-width="1.5" /><circle cx="232.0" cy="385.0" r="2.7" fill="#ffffff" opacity="0.85" />
<circle cx="256.0" cy="387.7" r="9.0" fill="#81ecec" opacity="0.65" stroke="#00cec9" stroke-width="1.5" /><circle cx="253.3" cy="385.0" r="2.7" fill="#ffffff" opacity="0.85" />
<circle cx="277.3" cy="387.7" r="9.0" fill="#81ecec" opacity="0.65" stroke="#00cec9" stroke-width="1.5" /><circle cx="274.6" cy="385.0" r="2.7" fill="#ffffff" opacity="0.85" />
<circle cx="298.7" cy="387.7" r="9.0" fill="#81ecec" opacity="0.65" stroke="#00cec9" stroke-width="1.5" /><circle cx="296.0" cy="385.0" r="2.7" fill="#ffffff" opacity="0.85" />
<circle cx="320.0" cy="387.7" r="9.0" fill="#81ecec" opacity="0.65" stroke="#00cec9" stroke-width="1.5" /><circle cx="317.3" cy="385.0" r="2.7" fill="#ffffff" opacity="0.85" />
<circle cx="341.3" cy="387.7" r="9.0" fill="#81ecec" opacity="0.65" stroke="#00cec9" stroke-width="1.5" /><circle cx="338.6" cy="385.0" r="2.7" fill="#ffffff" opacity="0.85" />
<circle cx="362.7" cy="387.7" r="9.0" fill="#81ecec" opacity="0.65" stroke="#00cec9" stroke-width="1.5" /><circle cx="360.0" cy="385.0" r="2.7" fill="#ffffff" opacity="0.85" />
<circle cx="384.0" cy="387.7" r="9.0" fill="#81ecec" opacity="0.65" stroke="#00cec9" stroke-width="1.5" /><circle cx="381.3" cy="385.0" r="2.7" fill="#ffffff" opacity="0.85" />
  </g>

  <!-- Bottom Banner -->
  <g filter="url(#shadow-74)">
    <rect x="96" y="420" width="320" height="54" rx="27" fill="#FFF" stroke="#d3c6ea" stroke-width="4" />
    <text x="256" y="455" 
          text-anchor="middle" 
          font-size="28" 
          font-weight="900" 
          font-family="Comic Sans MS, Arial Rounded MT Bold, sans-serif" 
          fill="#7C5730">74 - Seventy Four</text>
  </g>
</svg>