<svg xmlns="http://www.w3.org/2000/svg" viewBox="0 0 512 512" width="100%" height="100%">
  <defs>
    <!-- Background Gradient -->
    <linearGradient id="bg-75" x1="0%" y1="0%" x2="0%" y2="100%">
      <stop offset="0%" stop-color="#fcf9ff" />
      <stop offset="100%" stop-color="#f6efff" />
    </linearGradient>

    <!-- Front Face Gradient -->
    <linearGradient id="front-75" x1="0%" y1="0%" x2="0%" y2="100%">
      <stop offset="0%" stop-color="#bc89ff" />
      <stop offset="100%" stop-color="#6a00f4" />
    </linearGradient>

    <!-- 3D Side/Extrusion Color -->
    <linearGradient id="side-75" x1="0%" y1="0%" x2="0%" y2="100%">
      <stop offset="0%" stop-color="#5300c1" />
      <stop offset="100%" stop-color="#3d008e" />
    </linearGradient>

    <!-- Leaf Sprout Gradient -->
    <linearGradient id="leaf-75" x1="0%" y1="0%" x2="100%" y2="100%">
      <stop offset="0%" stop-color="#7BED9F" />
      <stop offset="100%" stop-color="#2ED573" />
    </linearGradient>

    <!-- 3D Base Shadow -->
    <filter id="shadow-75">
      <feDropShadow dx="0" dy="10" stdDeviation="8" flood-color="#000000" flood-opacity="0.25" />
    </filter>
  </defs>

  <!-- Background -->
  <circle cx="256" cy="256" r="236" fill="url(#bg-75)" stroke="#d6c6ea" stroke-width="6" />

  <!-- Sparkles -->
  <g fill="#FFD43B">
    <circle cx="100" cy="130" r="8" />
    <circle cx="400" cy="120" r="10" />
    <circle cx="430" cy="330" r="7" />
  </g>

  <!-- Number -->
  <g filter="url(#shadow-75)">
    <!-- Side -->
    <text x="256" y="215" 
          text-anchor="middle" 
          font-size="180" 
          font-weight="900" 
          font-family="Comic Sans MS, Arial Rounded MT Bold, sans-serif" 
          fill="url(#side-75)" 
          stroke="url(#side-75)" 
          stroke-width="18" 
          transform="translate(0, 12)">75</text>

    <!-- Front -->
    <text x="256" y="215" 
          text-anchor="middle" 
          font-size="180" 
          font-weight="900" 
          font-family="Comic Sans MS, Arial Rounded MT Bold, sans-serif" 
          fill="url(#front-75)" 
          stroke="url(#front-75)" 
          stroke-width="18">75</text>
  </g>

  <!-- Cute Sprout -->
  <g transform="translate(256 65)">
    <path d="M0 0 Q-4 -15 -8 -24" stroke="#8B5A2B" stroke-width="5" fill="none" />
    <path d="M-8 -24 C-28 -28 -30 -5 -10 0 Z" fill="url(#leaf-75)" />
    <path d="M-8 -24 C5 -35 22 -20 5 -5 Z" fill="url(#leaf-75)" />
  </g>

  <!-- Eyes -->
  <g>
    <circle cx="215" cy="180" r="18" fill="#222" />
    <circle cx="208" cy="172" r="6" fill="#FFF" />

    <circle cx="297" cy="180" r="18" fill="#222" />
    <circle cx="290" cy="172" r="6" fill="#FFF" />
  </g>

  <!-- Cheeks -->
  <ellipse cx="185" cy="210" rx="18" ry="12" fill="#FF6B81" opacity="0.45" />
  <ellipse cx="327" cy="210" rx="18" ry="12" fill="#FF6B81" opacity="0.45" />

  <!-- Smile -->
  <path d="M225 225 Q256 255 287 225" stroke="#7A1022" stroke-width="8" fill="none" stroke-linecap="round" />

  <!-- Counting Object -->
  <g>
    <path d="M 106.7 309.5 C 95.9 300.5 99.5 295.2 106.7 298.7 C 113.8 295.2 117.4 300.5 106.7 309.5 Z" fill="#ff7675" />
<path d="M 128.0 309.5 C 117.2 300.5 120.8 295.2 128.0 298.7 C 135.2 295.2 138.8 300.5 128.0 309.5 Z" fill="#ff7675" />
<path d="M 149.3 309.5 C 138.6 300.5 142.2 295.2 149.3 298.7 C 156.5 295.2 160.1 300.5 149.3 309.5 Z" fill="#ff7675" />
<path d="M 170.7 309.5 C 159.9 300.5 163.5 295.2 170.7 298.7 C 177.8 295.2 181.4 300.5 170.7 309.5 Z" fill="#ff7675" />
<path d="M 192.0 309.5 C 181.2 300.5 184.8 295.2 192.0 298.7 C 199.2 295.2 202.8 300.5 192.0 309.5 Z" fill="#ff7675" />
<path d="M 213.3 309.5 C 202.6 300.5 206.2 295.2 213.3 298.7 C 220.5 295.2 224.1 300.5 213.3 309.5 Z" fill="#ff7675" />
<path d="M 234.7 309.5 C 223.9 300.5 227.5 295.2 234.7 298.7 C 241.8 295.2 245.4 300.5 234.7 309.5 Z" fill="#ff7675" />
<path d="M 256.0 309.5 C 245.2 300.5 248.8 295.2 256.0 298.7 C 263.2 295.2 266.8 300.5 256.0 309.5 Z" fill="#ff7675" />
<path d="M 277.3 309.5 C 266.6 300.5 270.2 295.2 277.3 298.7 C 284.5 295.2 288.1 300.5 277.3 309.5 Z" fill="#ff7675" />
<path d="M 298.7 309.5 C 287.9 300.5 291.5 295.2 298.7 298.7 C 305.8 295.2 309.4 300.5 298.7 309.5 Z" fill="#ff7675" />
<path d="M 320.0 309.5 C 309.2 300.5 312.8 295.2 320.0 298.7 C 327.2 295.2 330.8 300.5 320.0 309.5 Z" fill="#ff7675" />
<path d="M 341.3 309.5 C 330.6 300.5 334.2 295.2 341.3 298.7 C 348.5 295.2 352.1 300.5 341.3 309.5 Z" fill="#ff7675" />
<path d="M 362.7 309.5 C 351.9 300.5 355.5 295.2 362.7 298.7 C 369.8 295.2 373.4 300.5 362.7 309.5 Z" fill="#ff7675" />
<path d="M 384.0 309.5 C 373.2 300.5 376.8 295.2 384.0 298.7 C 391.2 295.2 394.8 300.5 384.0 309.5 Z" fill="#ff7675" />
<path d="M 405.3 309.5 C 394.6 300.5 398.2 295.2 405.3 298.7 C 412.5 295.2 416.1 300.5 405.3 309.5 Z" fill="#ff7675" />
<path d="M 106.7 330.8 C 95.9 321.9 99.5 316.5 106.7 320.1 C 113.8 316.5 117.4 321.9 106.7 330.8 Z" fill="#ff7675" />
<path d="M 128.0 330.8 C 117.2 321.9 120.8 316.5 128.0 320.1 C 135.2 316.5 138.8 321.9 128.0 330.8 Z" fill="#ff7675" />
<path d="M 149.3 330.8 C 138.6 321.9 142.2 316.5 149.3 320.1 C 156.5 316.5 160.1 321.9 149.3 330.8 Z" fill="#ff7675" />
<path d="M 170.7 330.8 C 159.9 321.9 163.5 316.5 170.7 320.1 C 177.8 316.5 181.4 321.9 170.7 330.8 Z" fill="#ff7675" />
<path d="M 192.0 330.8 C 181.2 321.9 184.8 316.5 192.0 320.1 C 199.2 316.5 202.8 321.9 192.0 330.8 Z" fill="#ff7675" />
<path d="M 213.3 330.8 C 202.6 321.9 206.2 316.5 213.3 320.1 C 220.5 316.5 224.1 321.9 213.3 330.8 Z" fill="#ff7675" />
<path d="M 234.7 330.8 C 223.9 321.9 227.5 316.5 234.7 320.1 C 241.8 316.5 245.4 321.9 234.7 330.8 Z" fill="#ff7675" />
<path d="M 256.0 330.8 C 245.2 321.9 248.8 316.5 256.0 320.1 C 263.2 316.5 266.8 321.9 256.0 330.8 Z" fill="#ff7675" />
<path d="M 277.3 330.8 C 266.6 321.9 270.2 316.5 277.3 320.1 C 284.5 316.5 288.1 321.9 277.3 330.8 Z" fill="#ff7675" />
<path d="M 298.7 330.8 C 287.9 321.9 291.5 316.5 298.7 320.1 C 305.8 316.5 309.4 321.9 298.7 330.8 Z" fill="#ff7675" />
<path d="M 320.0 330.8 C 309.2 321.9 312.8 316.5 320.0 320.1 C 327.2 316.5 330.8 321.9 320.0 330.8 Z" fill="#ff7675" />
<path d="M 341.3 330.8 C 330.6 321.9 334.2 316.5 341.3 320.1 C 348.5 316.5 352.1 321.9 341.3 330.8 Z" fill="#ff7675" />
<path d="M 362.7 330.8 C 351.9 321.9 355.5 316.5 362.7 320.1 C 369.8 316.5 373.4 321.9 362.7 330.8 Z" fill="#ff7675" />
<path d="M 384.0 330.8 C 373.2 321.9 376.8 316.5 384.0 320.1 C 391.2 316.5 394.8 321.9 384.0 330.8 Z" fill="#ff7675" />
<path d="M 405.3 330.8 C 394.6 321.9 398.2 316.5 405.3 320.1 C 412.5 316.5 416.1 321.9 405.3 330.8 Z" fill="#ff7675" />
<path d="M 106.7 352.2 C 95.9 343.2 99.5 337.8 106.7 341.4 C 113.8 337.8 117.4 343.2 106.7 352.2 Z" fill="#ff7675" />
<path d="M 128.0 352.2 C 117.2 343.2 120.8 337.8 128.0 341.4 C 135.2 337.8 138.8 343.2 128.0 352.2 Z" fill="#ff7675" />
<path d="M 149.3 352.2 C 138.6 343.2 142.2 337.8 149.3 341.4 C 156.5 337.8 160.1 343.2 149.3 352.2 Z" fill="#ff7675" />
<path d="M 170.7 352.2 C 159.9 343.2 163.5 337.8 170.7 341.4 C 177.8 337.8 181.4 343.2 170.7 352.2 Z" fill="#ff7675" />
<path d="M 192.0 352.2 C 181.2 343.2 184.8 337.8 192.0 341.4 C 199.2 337.8 202.8 343.2 192.0 352.2 Z" fill="#ff7675" />
<path d="M 213.3 352.2 C 202.6 343.2 206.2 337.8 213.3 341.4 C 220.5 337.8 224.1 343.2 213.3 352.2 Z" fill="#ff7675" />
<path d="M 234.7 352.2 C 223.9 343.2 227.5 337.8 234.7 341.4 C 241.8 337.8 245.4 343.2 234.7 352.2 Z" fill="#ff7675" />
<path d="M 256.0 352.2 C 245.2 343.2 248.8 337.8 256.0 341.4 C 263.2 337.8 266.8 343.2 256.0 352.2 Z" fill="#ff7675" />
<path d="M 277.3 352.2 C 266.6 343.2 270.2 337.8 277.3 341.4 C 284.5 337.8 288.1 343.2 277.3 352.2 Z" fill="#ff7675" />
<path d="M 298.7 352.2 C 287.9 343.2 291.5 337.8 298.7 341.4 C 305.8 337.8 309.4 343.2 298.7 352.2 Z" fill="#ff7675" />
<path d="M 320.0 352.2 C 309.2 343.2 312.8 337.8 320.0 341.4 C 327.2 337.8 330.8 343.2 320.0 352.2 Z" fill="#ff7675" />
<path d="M 341.3 352.2 C 330.6 343.2 334.2 337.8 341.3 341.4 C 348.5 337.8 352.1 343.2 341.3 352.2 Z" fill="#ff7675" />
<path d="M 362.7 352.2 C 351.9 343.2 355.5 337.8 362.7 341.4 C 369.8 337.8 373.4 343.2 362.7 352.2 Z" fill="#ff7675" />
<path d="M 384.0 352.2 C 373.2 343.2 376.8 337.8 384.0 341.4 C 391.2 337.8 394.8 343.2 384.0 352.2 Z" fill="#ff7675" />
<path d="M 405.3 352.2 C 394.6 343.2 398.2 337.8 405.3 341.4 C 412.5 337.8 416.1 343.2 405.3 352.2 Z" fill="#ff7675" />
<path d="M 106.7 373.5 C 95.9 364.5 99.5 359.2 106.7 362.7 C 113.8 359.2 117.4 364.5 106.7 373.5 Z" fill="#ff7675" />
<path d="M 128.0 373.5 C 117.2 364.5 120.8 359.2 128.0 362.7 C 135.2 359.2 138.8 364.5 128.0 373.5 Z" fill="#ff7675" />
<path d="M 149.3 373.5 C 138.6 364.5 142.2 359.2 149.3 362.7 C 156.5 359.2 160.1 364.5 149.3 373.5 Z" fill="#ff7675" />
<path d="M 170.7 373.5 C 159.9 364.5 163.5 359.2 170.7 362.7 C 177.8 359.2 181.4 364.5 170.7 373.5 Z" fill="#ff7675" />
<path d="M 192.0 373.5 C 181.2 364.5 184.8 359.2 192.0 362.7 C 199.2 359.2 202.8 364.5 192.0 373.5 Z" fill="#ff7675" />
<path d="M 213.3 373.5 C 202.6 364.5 206.2 359.2 213.3 362.7 C 220.5 359.2 224.1 364.5 213.3 373.5 Z" fill="#ff7675" />
<path d="M 234.7 373.5 C 223.9 364.5 227.5 359.2 234.7 362.7 C 241.8 359.2 245.4 364.5 234.7 373.5 Z" fill="#ff7675" />
<path d="M 256.0 373.5 C 245.2 364.5 248.8 359.2 256.0 362.7 C 263.2 359.2 266.8 364.5 256.0 373.5 Z" fill="#ff7675" />
<path d="M 277.3 373.5 C 266.6 364.5 270.2 359.2 277.3 362.7 C 284.5 359.2 288.1 364.5 277.3 373.5 Z" fill="#ff7675" />
<path d="M 298.7 373.5 C 287.9 364.5 291.5 359.2 298.7 362.7 C 305.8 359.2 309.4 364.5 298.7 373.5 Z" fill="#ff7675" />
<path d="M 320.0 373.5 C 309.2 364.5 312.8 359.2 320.0 362.7 C 327.2 359.2 330.8 364.5 320.0 373.5 Z" fill="#ff7675" />
<path d="M 341.3 373.5 C 330.6 364.5 334.2 359.2 341.3 362.7 C 348.5 359.2 352.1 364.5 341.3 373.5 Z" fill="#ff7675" />
<path d="M 362.7 373.5 C 351.9 364.5 355.5 359.2 362.7 362.7 C 369.8 359.2 373.4 364.5 362.7 373.5 Z" fill="#ff7675" />
<path d="M 384.0 373.5 C 373.2 364.5 376.8 359.2 384.0 362.7 C 391.2 359.2 394.8 364.5 384.0 373.5 Z" fill="#ff7675" />
<path d="M 405.3 373.5 C 394.6 364.5 398.2 359.2 405.3 362.7 C 412.5 359.2 416.1 364.5 405.3 373.5 Z" fill="#ff7675" />
<path d="M 106.7 394.8 C 95.9 385.9 99.5 380.5 106.7 384.1 C 113.8 380.5 117.4 385.9 106.7 394.8 Z" fill="#ff7675" />
<path d="M 128.0 394.8 C 117.2 385.9 120.8 380.5 128.0 384.1 C 135.2 380.5 138.8 385.9 128.0 394.8 Z" fill="#ff7675" />
<path d="M 149.3 394.8 C 138.6 385.9 142.2 380.5 149.3 384.1 C 156.5 380.5 160.1 385.9 149.3 394.8 Z" fill="#ff7675" />
<path d="M 170.7 394.8 C 159.9 385.9 163.5 380.5 170.7 384.1 C 177.8 380.5 181.4 385.9 170.7 394.8 Z" fill="#ff7675" />
<path d="M 192.0 394.8 C 181.2 385.9 184.8 380.5 192.0 384.1 C 199.2 380.5 202.8 385.9 192.0 394.8 Z" fill="#ff7675" />
<path d="M 213.3 394.8 C 202.6 385.9 206.2 380.5 213.3 384.1 C 220.5 380.5 224.1 385.9 213.3 394.8 Z" fill="#ff7675" />
<path d="M 234.7 394.8 C 223.9 385.9 227.5 380.5 234.7 384.1 C 241.8 380.5 245.4 385.9 234.7 394.8 Z" fill="#ff7675" />
<path d="M 256.0 394.8 C 245.2 385.9 248.8 380.5 256.0 384.1 C 263.2 380.5 266.8 385.9 256.0 394.8 Z" fill="#ff7675" />
<path d="M 277.3 394.8 C 266.6 385.9 270.2 380.5 277.3 384.1 C 284.5 380.5 288.1 385.9 277.3 394.8 Z" fill="#ff7675" />
<path d="M 298.7 394.8 C 287.9 385.9 291.5 380.5 298.7 384.1 C 305.8 380.5 309.4 385.9 298.7 394.8 Z" fill="#ff7675" />
<path d="M 320.0 394.8 C 309.2 385.9 312.8 380.5 320.0 384.1 C 327.2 380.5 330.8 385.9 320.0 394.8 Z" fill="#ff7675" />
<path d="M 341.3 394.8 C 330.6 385.9 334.2 380.5 341.3 384.1 C 348.5 380.5 352.1 385.9 341.3 394.8 Z" fill="#ff7675" />
<path d="M 362.7 394.8 C 351.9 385.9 355.5 380.5 362.7 384.1 C 369.8 380.5 373.4 385.9 362.7 394.8 Z" fill="#ff7675" />
<path d="M 384.0 394.8 C 373.2 385.9 376.8 380.5 384.0 384.1 C 391.2 380.5 394.8 385.9 384.0 394.8 Z" fill="#ff7675" />
<path d="M 405.3 394.8 C 394.6 385.9 398.2 380.5 405.3 384.1 C 412.5 380.5 416.1 385.9 405.3 394.8 Z" fill="#ff7675" />
  </g>

  <!-- Bottom Banner -->
  <g filter="url(#shadow-75)">
    <rect x="96" y="420" width="320" height="54" rx="27" fill="#FFF" stroke="#d6c6ea" stroke-width="4" />
    <text x="256" y="455" 
          text-anchor="middle" 
          font-size="28" 
          font-weight="900" 
          font-family="Comic Sans MS, Arial Rounded MT Bold, sans-serif" 
          fill="#7C5730">75 - Seventy Five</text>
  </g>
</svg>