<svg xmlns="http://www.w3.org/2000/svg" viewBox="0 0 512 512" width="100%" height="100%">
  <defs>
    <!-- Background Gradient -->
    <linearGradient id="bg-81" x1="0%" y1="0%" x2="0%" y2="100%">
      <stop offset="0%" stop-color="#fdf9ff" />
      <stop offset="100%" stop-color="#fbefff" />
    </linearGradient>

    <!-- Front Face Gradient -->
    <linearGradient id="front-81" x1="0%" y1="0%" x2="0%" y2="100%">
      <stop offset="0%" stop-color="#e789ff" />
      <stop offset="100%" stop-color="#c300f4" />
    </linearGradient>

    <!-- 3D Side/Extrusion Color -->
    <linearGradient id="side-81" x1="0%" y1="0%" x2="0%" y2="100%">
      <stop offset="0%" stop-color="#9b00c1" />
      <stop offset="100%" stop-color="#72008e" />
    </linearGradient>

    <!-- Leaf Sprout Gradient -->
    <linearGradient id="leaf-81" x1="0%" y1="0%" x2="100%" y2="100%">
      <stop offset="0%" stop-color="#7BED9F" />
      <stop offset="100%" stop-color="#2ED573" />
    </linearGradient>

    <!-- 3D Base Shadow -->
    <filter id="shadow-81">
      <feDropShadow dx="0" dy="10" stdDeviation="8" flood-color="#000000" flood-opacity="0.25" />
    </filter>
  </defs>

  <!-- Background -->
  <circle cx="256" cy="256" r="236" fill="url(#bg-81)" stroke="#e3c6ea" stroke-width="6" />

  <!-- Sparkles -->
  <g fill="#FFD43B">
    <circle cx="100" cy="130" r="8" />
    <circle cx="400" cy="120" r="10" />
    <circle cx="430" cy="330" r="7" />
  </g>

  <!-- Number -->
  <g filter="url(#shadow-81)">
    <!-- Side -->
    <text x="256" y="215" 
          text-anchor="middle" 
          font-size="180" 
          font-weight="900" 
          font-family="Comic Sans MS, Arial Rounded MT Bold, sans-serif" 
          fill="url(#side-81)" 
          stroke="url(#side-81)" 
          stroke-width="18" 
          transform="translate(0, 12)">81</text>

    <!-- Front -->
    <text x="256" y="215" 
          text-anchor="middle" 
          font-size="180" 
          font-weight="900" 
          font-family="Comic Sans MS, Arial Rounded MT Bold, sans-serif" 
          fill="url(#front-81)" 
          stroke="url(#front-81)" 
          stroke-width="18">81</text>
  </g>

  <!-- Cute Sprout -->
  <g transform="translate(256 65)">
    <path d="M0 0 Q-4 -15 -8 -24" stroke="#8B5A2B" stroke-width="5" fill="none" />
    <path d="M-8 -24 C-28 -28 -30 -5 -10 0 Z" fill="url(#leaf-81)" />
    <path d="M-8 -24 C5 -35 22 -20 5 -5 Z" fill="url(#leaf-81)" />
  </g>

  <!-- Eyes -->
  <g>
    <circle cx="215" cy="180" r="18" fill="#222" />
    <circle cx="208" cy="172" r="6" fill="#FFF" />

    <circle cx="297" cy="180" r="18" fill="#222" />
    <circle cx="290" cy="172" r="6" fill="#FFF" />
  </g>

  <!-- Cheeks -->
  <ellipse cx="185" cy="210" rx="18" ry="12" fill="#FF6B81" opacity="0.45" />
  <ellipse cx="327" cy="210" rx="18" ry="12" fill="#FF6B81" opacity="0.45" />

  <!-- Smile -->
  <path d="M225 225 Q256 255 287 225" stroke="#7A1022" stroke-width="8" fill="none" stroke-linecap="round" />

  <!-- Counting Object -->
  <g>
    <circle cx="105.4" cy="307.4" r="7.9" fill="#FF4757" /><path d="M 105.4 299.4 Q 107.8 295.5 109.4 293.5" stroke="#8B5A2B" stroke-width="3" fill="none" stroke-linecap="round" /><path d="M 105.4 299.8 C 101.1 296.7 99.5 297.5 102.2 301.4 Z" fill="#2ED573" />
<circle cx="124.2" cy="307.4" r="7.9" fill="#FF4757" /><path d="M 124.2 299.4 Q 126.6 295.5 128.2 293.5" stroke="#8B5A2B" stroke-width="3" fill="none" stroke-linecap="round" /><path d="M 124.2 299.8 C 119.9 296.7 118.3 297.5 121.1 301.4 Z" fill="#2ED573" />
<circle cx="143.1" cy="307.4" r="7.9" fill="#FF4757" /><path d="M 143.1 299.4 Q 145.4 295.5 147.0 293.5" stroke="#8B5A2B" stroke-width="3" fill="none" stroke-linecap="round" /><path d="M 143.1 299.8 C 138.7 296.7 137.1 297.5 139.9 301.4 Z" fill="#2ED573" />
<circle cx="161.9" cy="307.4" r="7.9" fill="#FF4757" /><path d="M 161.9 299.4 Q 164.3 295.5 165.8 293.5" stroke="#8B5A2B" stroke-width="3" fill="none" stroke-linecap="round" /><path d="M 161.9 299.8 C 157.5 296.7 156.0 297.5 158.7 301.4 Z" fill="#2ED573" />
<circle cx="180.7" cy="307.4" r="7.9" fill="#FF4757" /><path d="M 180.7 299.4 Q 183.1 295.5 184.7 293.5" stroke="#8B5A2B" stroke-width="3" fill="none" stroke-linecap="round" /><path d="M 180.7 299.8 C 176.4 296.7 174.8 297.5 177.5 301.4 Z" fill="#2ED573" />
<circle cx="199.5" cy="307.4" r="7.9" fill="#FF4757" /><path d="M 199.5 299.4 Q 201.9 295.5 203.5 293.5" stroke="#8B5A2B" stroke-width="3" fill="none" stroke-linecap="round" /><path d="M 199.5 299.8 C 195.2 296.7 193.6 297.5 196.4 301.4 Z" fill="#2ED573" />
<circle cx="218.4" cy="307.4" r="7.9" fill="#FF4757" /><path d="M 218.4 299.4 Q 220.7 295.5 222.3 293.5" stroke="#8B5A2B" stroke-width="3" fill="none" stroke-linecap="round" /><path d="M 218.4 299.8 C 214.0 296.7 212.4 297.5 215.2 301.4 Z" fill="#2ED573" />
<circle cx="237.2" cy="307.4" r="7.9" fill="#FF4757" /><path d="M 237.2 299.4 Q 239.5 295.5 241.1 293.5" stroke="#8B5A2B" stroke-width="3" fill="none" stroke-linecap="round" /><path d="M 237.2 299.8 C 232.8 296.7 231.2 297.5 234.0 301.4 Z" fill="#2ED573" />
<circle cx="256.0" cy="307.4" r="7.9" fill="#FF4757" /><path d="M 256.0 299.4 Q 258.4 295.5 260.0 293.5" stroke="#8B5A2B" stroke-width="3" fill="none" stroke-linecap="round" /><path d="M 256.0 299.8 C 251.7 296.7 250.1 297.5 252.8 301.4 Z" fill="#2ED573" />
<circle cx="274.8" cy="307.4" r="7.9" fill="#FF4757" /><path d="M 274.8 299.4 Q 277.2 295.5 278.8 293.5" stroke="#8B5A2B" stroke-width="3" fill="none" stroke-linecap="round" /><path d="M 274.8 299.8 C 270.5 296.7 268.9 297.5 271.7 301.4 Z" fill="#2ED573" />
<circle cx="293.6" cy="307.4" r="7.9" fill="#FF4757" /><path d="M 293.6 299.4 Q 296.0 295.5 297.6 293.5" stroke="#8B5A2B" stroke-width="3" fill="none" stroke-linecap="round" /><path d="M 293.6 299.8 C 289.3 296.7 287.7 297.5 290.5 301.4 Z" fill="#2ED573" />
<circle cx="312.5" cy="307.4" r="7.9" fill="#FF4757" /><path d="M 312.5 299.4 Q 314.8 295.5 316.4 293.5" stroke="#8B5A2B" stroke-width="3" fill="none" stroke-linecap="round" /><path d="M 312.5 299.8 C 308.1 296.7 306.5 297.5 309.3 301.4 Z" fill="#2ED573" />
<circle cx="331.3" cy="307.4" r="7.9" fill="#FF4757" /><path d="M 331.3 299.4 Q 333.7 295.5 335.2 293.5" stroke="#8B5A2B" stroke-width="3" fill="none" stroke-linecap="round" /><path d="M 331.3 299.8 C 326.9 296.7 325.4 297.5 328.1 301.4 Z" fill="#2ED573" />
<circle cx="350.1" cy="307.4" r="7.9" fill="#FF4757" /><path d="M 350.1 299.4 Q 352.5 295.5 354.1 293.5" stroke="#8B5A2B" stroke-width="3" fill="none" stroke-linecap="round" /><path d="M 350.1 299.8 C 345.8 296.7 344.2 297.5 347.0 301.4 Z" fill="#2ED573" />
<circle cx="368.9" cy="307.4" r="7.9" fill="#FF4757" /><path d="M 368.9 299.4 Q 371.3 295.5 372.9 293.5" stroke="#8B5A2B" stroke-width="3" fill="none" stroke-linecap="round" /><path d="M 368.9 299.8 C 364.6 296.7 363.0 297.5 365.8 301.4 Z" fill="#2ED573" />
<circle cx="387.8" cy="307.4" r="7.9" fill="#FF4757" /><path d="M 387.8 299.4 Q 390.1 295.5 391.7 293.5" stroke="#8B5A2B" stroke-width="3" fill="none" stroke-linecap="round" /><path d="M 387.8 299.8 C 383.4 296.7 381.8 297.5 384.6 301.4 Z" fill="#2ED573" />
<circle cx="406.6" cy="307.4" r="7.9" fill="#FF4757" /><path d="M 406.6 299.4 Q 409.0 295.5 410.5 293.5" stroke="#8B5A2B" stroke-width="3" fill="none" stroke-linecap="round" /><path d="M 406.6 299.8 C 402.2 296.7 400.7 297.5 403.4 301.4 Z" fill="#2ED573" />
<circle cx="105.4" cy="326.2" r="7.9" fill="#FF4757" /><path d="M 105.4 318.3 Q 107.8 314.3 109.4 312.3" stroke="#8B5A2B" stroke-width="3" fill="none" stroke-linecap="round" /><path d="M 105.4 318.7 C 101.1 315.5 99.5 316.3 102.2 320.2 Z" fill="#2ED573" />
<circle cx="124.2" cy="326.2" r="7.9" fill="#FF4757" /><path d="M 124.2 318.3 Q 126.6 314.3 128.2 312.3" stroke="#8B5A2B" stroke-width="3" fill="none" stroke-linecap="round" /><path d="M 124.2 318.7 C 119.9 315.5 118.3 316.3 121.1 320.2 Z" fill="#2ED573" />
<circle cx="143.1" cy="326.2" r="7.9" fill="#FF4757" /><path d="M 143.1 318.3 Q 145.4 314.3 147.0 312.3" stroke="#8B5A2B" stroke-width="3" fill="none" stroke-linecap="round" /><path d="M 143.1 318.7 C 138.7 315.5 137.1 316.3 139.9 320.2 Z" fill="#2ED573" />
<circle cx="161.9" cy="326.2" r="7.9" fill="#FF4757" /><path d="M 161.9 318.3 Q 164.3 314.3 165.8 312.3" stroke="#8B5A2B" stroke-width="3" fill="none" stroke-linecap="round" /><path d="M 161.9 318.7 C 157.5 315.5 156.0 316.3 158.7 320.2 Z" fill="#2ED573" />
<circle cx="180.7" cy="326.2" r="7.9" fill="#FF4757" /><path d="M 180.7 318.3 Q 183.1 314.3 184.7 312.3" stroke="#8B5A2B" stroke-width="3" fill="none" stroke-linecap="round" /><path d="M 180.7 318.7 C 176.4 315.5 174.8 316.3 177.5 320.2 Z" fill="#2ED573" />
<circle cx="199.5" cy="326.2" r="7.9" fill="#FF4757" /><path d="M 199.5 318.3 Q 201.9 314.3 203.5 312.3" stroke="#8B5A2B" stroke-width="3" fill="none" stroke-linecap="round" /><path d="M 199.5 318.7 C 195.2 315.5 193.6 316.3 196.4 320.2 Z" fill="#2ED573" />
<circle cx="218.4" cy="326.2" r="7.9" fill="#FF4757" /><path d="M 218.4 318.3 Q 220.7 314.3 222.3 312.3" stroke="#8B5A2B" stroke-width="3" fill="none" stroke-linecap="round" /><path d="M 218.4 318.7 C 214.0 315.5 212.4 316.3 215.2 320.2 Z" fill="#2ED573" />
<circle cx="237.2" cy="326.2" r="7.9" fill="#FF4757" /><path d="M 237.2 318.3 Q 239.5 314.3 241.1 312.3" stroke="#8B5A2B" stroke-width="3" fill="none" stroke-linecap="round" /><path d="M 237.2 318.7 C 232.8 315.5 231.2 316.3 234.0 320.2 Z" fill="#2ED573" />
<circle cx="256.0" cy="326.2" r="7.9" fill="#FF4757" /><path d="M 256.0 318.3 Q 258.4 314.3 260.0 312.3" stroke="#8B5A2B" stroke-width="3" fill="none" stroke-linecap="round" /><path d="M 256.0 318.7 C 251.7 315.5 250.1 316.3 252.8 320.2 Z" fill="#2ED573" />
<circle cx="274.8" cy="326.2" r="7.9" fill="#FF4757" /><path d="M 274.8 318.3 Q 277.2 314.3 278.8 312.3" stroke="#8B5A2B" stroke-width="3" fill="none" stroke-linecap="round" /><path d="M 274.8 318.7 C 270.5 315.5 268.9 316.3 271.7 320.2 Z" fill="#2ED573" />
<circle cx="293.6" cy="326.2" r="7.9" fill="#FF4757" /><path d="M 293.6 318.3 Q 296.0 314.3 297.6 312.3" stroke="#8B5A2B" stroke-width="3" fill="none" stroke-linecap="round" /><path d="M 293.6 318.7 C 289.3 315.5 287.7 316.3 290.5 320.2 Z" fill="#2ED573" />
<circle cx="312.5" cy="326.2" r="7.9" fill="#FF4757" /><path d="M 312.5 318.3 Q 314.8 314.3 316.4 312.3" stroke="#8B5A2B" stroke-width="3" fill="none" stroke-linecap="round" /><path d="M 312.5 318.7 C 308.1 315.5 306.5 316.3 309.3 320.2 Z" fill="#2ED573" />
<circle cx="331.3" cy="326.2" r="7.9" fill="#FF4757" /><path d="M 331.3 318.3 Q 333.7 314.3 335.2 312.3" stroke="#8B5A2B" stroke-width="3" fill="none" stroke-linecap="round" /><path d="M 331.3 318.7 C 326.9 315.5 325.4 316.3 328.1 320.2 Z" fill="#2ED573" />
<circle cx="350.1" cy="326.2" r="7.9" fill="#FF4757" /><path d="M 350.1 318.3 Q 352.5 314.3 354.1 312.3" stroke="#8B5A2B" stroke-width="3" fill="none" stroke-linecap="round" /><path d="M 350.1 318.7 C 345.8 315.5 344.2 316.3 347.0 320.2 Z" fill="#2ED573" />
<circle cx="368.9" cy="326.2" r="7.9" fill="#FF4757" /><path d="M 368.9 318.3 Q 371.3 314.3 372.9 312.3" stroke="#8B5A2B" stroke-width="3" fill="none" stroke-linecap="round" /><path d="M 368.9 318.7 C 364.6 315.5 363.0 316.3 365.8 320.2 Z" fill="#2ED573" />
<circle cx="387.8" cy="326.2" r="7.9" fill="#FF4757" /><path d="M 387.8 318.3 Q 390.1 314.3 391.7 312.3" stroke="#8B5A2B" stroke-width="3" fill="none" stroke-linecap="round" /><path d="M 387.8 318.7 C 383.4 315.5 381.8 316.3 384.6 320.2 Z" fill="#2ED573" />
<circle cx="406.6" cy="326.2" r="7.9" fill="#FF4757" /><path d="M 406.6 318.3 Q 409.0 314.3 410.5 312.3" stroke="#8B5A2B" stroke-width="3" fill="none" stroke-linecap="round" /><path d="M 406.6 318.7 C 402.2 315.5 400.7 316.3 403.4 320.2 Z" fill="#2ED573" />
<circle cx="105.4" cy="345.0" r="7.9" fill="#FF4757" /><path d="M 105.4 337.1 Q 107.8 333.1 109.4 331.2" stroke="#8B5A2B" stroke-width="3" fill="none" stroke-linecap="round" /><path d="M 105.4 337.5 C 101.1 334.3 99.5 335.1 102.2 339.1 Z" fill="#2ED573" />
<circle cx="124.2" cy="345.0" r="7.9" fill="#FF4757" /><path d="M 124.2 337.1 Q 126.6 333.1 128.2 331.2" stroke="#8B5A2B" stroke-width="3" fill="none" stroke-linecap="round" /><path d="M 124.2 337.5 C 119.9 334.3 118.3 335.1 121.1 339.1 Z" fill="#2ED573" />
<circle cx="143.1" cy="345.0" r="7.9" fill="#FF4757" /><path d="M 143.1 337.1 Q 145.4 333.1 147.0 331.2" stroke="#8B5A2B" stroke-width="3" fill="none" stroke-linecap="round" /><path d="M 143.1 337.5 C 138.7 334.3 137.1 335.1 139.9 339.1 Z" fill="#2ED573" />
<circle cx="161.9" cy="345.0" r="7.9" fill="#FF4757" /><path d="M 161.9 337.1 Q 164.3 333.1 165.8 331.2" stroke="#8B5A2B" stroke-width="3" fill="none" stroke-linecap="round" /><path d="M 161.9 337.5 C 157.5 334.3 156.0 335.1 158.7 339.1 Z" fill="#2ED573" />
<circle cx="180.7" cy="345.0" r="7.9" fill="#FF4757" /><path d="M 180.7 337.1 Q 183.1 333.1 184.7 331.2" stroke="#8B5A2B" stroke-width="3" fill="none" stroke-linecap="round" /><path d="M 180.7 337.5 C 176.4 334.3 174.8 335.1 177.5 339.1 Z" fill="#2ED573" />
<circle cx="199.5" cy="345.0" r="7.9" fill="#FF4757" /><path d="M 199.5 337.1 Q 201.9 333.1 203.5 331.2" stroke="#8B5A2B" stroke-width="3" fill="none" stroke-linecap="round" /><path d="M 199.5 337.5 C 195.2 334.3 193.6 335.1 196.4 339.1 Z" fill="#2ED573" />
<circle cx="218.4" cy="345.0" r="7.9" fill="#FF4757" /><path d="M 218.4 337.1 Q 220.7 333.1 222.3 331.2" stroke="#8B5A2B" stroke-width="3" fill="none" stroke-linecap="round" /><path d="M 218.4 337.5 C 214.0 334.3 212.4 335.1 215.2 339.1 Z" fill="#2ED573" />
<circle cx="237.2" cy="345.0" r="7.9" fill="#FF4757" /><path d="M 237.2 337.1 Q 239.5 333.1 241.1 331.2" stroke="#8B5A2B" stroke-width="3" fill="none" stroke-linecap="round" /><path d="M 237.2 337.5 C 232.8 334.3 231.2 335.1 234.0 339.1 Z" fill="#2ED573" />
<circle cx="256.0" cy="345.0" r="7.9" fill="#FF4757" /><path d="M 256.0 337.1 Q 258.4 333.1 260.0 331.2" stroke="#8B5A2B" stroke-width="3" fill="none" stroke-linecap="round" /><path d="M 256.0 337.5 C 251.7 334.3 250.1 335.1 252.8 339.1 Z" fill="#2ED573" />
<circle cx="274.8" cy="345.0" r="7.9" fill="#FF4757" /><path d="M 274.8 337.1 Q 277.2 333.1 278.8 331.2" stroke="#8B5A2B" stroke-width="3" fill="none" stroke-linecap="round" /><path d="M 274.8 337.5 C 270.5 334.3 268.9 335.1 271.7 339.1 Z" fill="#2ED573" />
<circle cx="293.6" cy="345.0" r="7.9" fill="#FF4757" /><path d="M 293.6 337.1 Q 296.0 333.1 297.6 331.2" stroke="#8B5A2B" stroke-width="3" fill="none" stroke-linecap="round" /><path d="M 293.6 337.5 C 289.3 334.3 287.7 335.1 290.5 339.1 Z" fill="#2ED573" />
<circle cx="312.5" cy="345.0" r="7.9" fill="#FF4757" /><path d="M 312.5 337.1 Q 314.8 333.1 316.4 331.2" stroke="#8B5A2B" stroke-width="3" fill="none" stroke-linecap="round" /><path d="M 312.5 337.5 C 308.1 334.3 306.5 335.1 309.3 339.1 Z" fill="#2ED573" />
<circle cx="331.3" cy="345.0" r="7.9" fill="#FF4757" /><path d="M 331.3 337.1 Q 333.7 333.1 335.2 331.2" stroke="#8B5A2B" stroke-width="3" fill="none" stroke-linecap="round" /><path d="M 331.3 337.5 C 326.9 334.3 325.4 335.1 328.1 339.1 Z" fill="#2ED573" />
<circle cx="350.1" cy="345.0" r="7.9" fill="#FF4757" /><path d="M 350.1 337.1 Q 352.5 333.1 354.1 331.2" stroke="#8B5A2B" stroke-width="3" fill="none" stroke-linecap="round" /><path d="M 350.1 337.5 C 345.8 334.3 344.2 335.1 347.0 339.1 Z" fill="#2ED573" />
<circle cx="368.9" cy="345.0" r="7.9" fill="#FF4757" /><path d="M 368.9 337.1 Q 371.3 333.1 372.9 331.2" stroke="#8B5A2B" stroke-width="3" fill="none" stroke-linecap="round" /><path d="M 368.9 337.5 C 364.6 334.3 363.0 335.1 365.8 339.1 Z" fill="#2ED573" />
<circle cx="387.8" cy="345.0" r="7.9" fill="#FF4757" /><path d="M 387.8 337.1 Q 390.1 333.1 391.7 331.2" stroke="#8B5A2B" stroke-width="3" fill="none" stroke-linecap="round" /><path d="M 387.8 337.5 C 383.4 334.3 381.8 335.1 384.6 339.1 Z" fill="#2ED573" />
<circle cx="406.6" cy="345.0" r="7.9" fill="#FF4757" /><path d="M 406.6 337.1 Q 409.0 333.1 410.5 331.2" stroke="#8B5A2B" stroke-width="3" fill="none" stroke-linecap="round" /><path d="M 406.6 337.5 C 402.2 334.3 400.7 335.1 403.4 339.1 Z" fill="#2ED573" />
<circle cx="105.4" cy="363.8" r="7.9" fill="#FF4757" /><path d="M 105.4 355.9 Q 107.8 352.0 109.4 350.0" stroke="#8B5A2B" stroke-width="3" fill="none" stroke-linecap="round" /><path d="M 105.4 356.3 C 101.1 353.2 99.5 353.9 102.2 357.9 Z" fill="#2ED573" />
<circle cx="124.2" cy="363.8" r="7.9" fill="#FF4757" /><path d="M 124.2 355.9 Q 126.6 352.0 128.2 350.0" stroke="#8B5A2B" stroke-width="3" fill="none" stroke-linecap="round" /><path d="M 124.2 356.3 C 119.9 353.2 118.3 353.9 121.1 357.9 Z" fill="#2ED573" />
<circle cx="143.1" cy="363.8" r="7.9" fill="#FF4757" /><path d="M 143.1 355.9 Q 145.4 352.0 147.0 350.0" stroke="#8B5A2B" stroke-width="3" fill="none" stroke-linecap="round" /><path d="M 143.1 356.3 C 138.7 353.2 137.1 353.9 139.9 357.9 Z" fill="#2ED573" />
<circle cx="161.9" cy="363.8" r="7.9" fill="#FF4757" /><path d="M 161.9 355.9 Q 164.3 352.0 165.8 350.0" stroke="#8B5A2B" stroke-width="3" fill="none" stroke-linecap="round" /><path d="M 161.9 356.3 C 157.5 353.2 156.0 353.9 158.7 357.9 Z" fill="#2ED573" />
<circle cx="180.7" cy="363.8" r="7.9" fill="#FF4757" /><path d="M 180.7 355.9 Q 183.1 352.0 184.7 350.0" stroke="#8B5A2B" stroke-width="3" fill="none" stroke-linecap="round" /><path d="M 180.7 356.3 C 176.4 353.2 174.8 353.9 177.5 357.9 Z" fill="#2ED573" />
<circle cx="199.5" cy="363.8" r="7.9" fill="#FF4757" /><path d="M 199.5 355.9 Q 201.9 352.0 203.5 350.0" stroke="#8B5A2B" stroke-width="3" fill="none" stroke-linecap="round" /><path d="M 199.5 356.3 C 195.2 353.2 193.6 353.9 196.4 357.9 Z" fill="#2ED573" />
<circle cx="218.4" cy="363.8" r="7.9" fill="#FF4757" /><path d="M 218.4 355.9 Q 220.7 352.0 222.3 350.0" stroke="#8B5A2B" stroke-width="3" fill="none" stroke-linecap="round" /><path d="M 218.4 356.3 C 214.0 353.2 212.4 353.9 215.2 357.9 Z" fill="#2ED573" />
<circle cx="237.2" cy="363.8" r="7.9" fill="#FF4757" /><path d="M 237.2 355.9 Q 239.5 352.0 241.1 350.0" stroke="#8B5A2B" stroke-width="3" fill="none" stroke-linecap="round" /><path d="M 237.2 356.3 C 232.8 353.2 231.2 353.9 234.0 357.9 Z" fill="#2ED573" />
<circle cx="256.0" cy="363.8" r="7.9" fill="#FF4757" /><path d="M 256.0 355.9 Q 258.4 352.0 260.0 350.0" stroke="#8B5A2B" stroke-width="3" fill="none" stroke-linecap="round" /><path d="M 256.0 356.3 C 251.7 353.2 250.1 353.9 252.8 357.9 Z" fill="#2ED573" />
<circle cx="274.8" cy="363.8" r="7.9" fill="#FF4757" /><path d="M 274.8 355.9 Q 277.2 352.0 278.8 350.0" stroke="#8B5A2B" stroke-width="3" fill="none" stroke-linecap="round" /><path d="M 274.8 356.3 C 270.5 353.2 268.9 353.9 271.7 357.9 Z" fill="#2ED573" />
<circle cx="293.6" cy="363.8" r="7.9" fill="#FF4757" /><path d="M 293.6 355.9 Q 296.0 352.0 297.6 350.0" stroke="#8B5A2B" stroke-width="3" fill="none" stroke-linecap="round" /><path d="M 293.6 356.3 C 289.3 353.2 287.7 353.9 290.5 357.9 Z" fill="#2ED573" />
<circle cx="312.5" cy="363.8" r="7.9" fill="#FF4757" /><path d="M 312.5 355.9 Q 314.8 352.0 316.4 350.0" stroke="#8B5A2B" stroke-width="3" fill="none" stroke-linecap="round" /><path d="M 312.5 356.3 C 308.1 353.2 306.5 353.9 309.3 357.9 Z" fill="#2ED573" />
<circle cx="331.3" cy="363.8" r="7.9" fill="#FF4757" /><path d="M 331.3 355.9 Q 333.7 352.0 335.2 350.0" stroke="#8B5A2B" stroke-width="3" fill="none" stroke-linecap="round" /><path d="M 331.3 356.3 C 326.9 353.2 325.4 353.9 328.1 357.9 Z" fill="#2ED573" />
<circle cx="350.1" cy="363.8" r="7.9" fill="#FF4757" /><path d="M 350.1 355.9 Q 352.5 352.0 354.1 350.0" stroke="#8B5A2B" stroke-width="3" fill="none" stroke-linecap="round" /><path d="M 350.1 356.3 C 345.8 353.2 344.2 353.9 347.0 357.9 Z" fill="#2ED573" />
<circle cx="368.9" cy="363.8" r="7.9" fill="#FF4757" /><path d="M 368.9 355.9 Q 371.3 352.0 372.9 350.0" stroke="#8B5A2B" stroke-width="3" fill="none" stroke-linecap="round" /><path d="M 368.9 356.3 C 364.6 353.2 363.0 353.9 365.8 357.9 Z" fill="#2ED573" />
<circle cx="387.8" cy="363.8" r="7.9" fill="#FF4757" /><path d="M 387.8 355.9 Q 390.1 352.0 391.7 350.0" stroke="#8B5A2B" stroke-width="3" fill="none" stroke-linecap="round" /><path d="M 387.8 356.3 C 383.4 353.2 381.8 353.9 384.6 357.9 Z" fill="#2ED573" />
<circle cx="406.6" cy="363.8" r="7.9" fill="#FF4757" /><path d="M 406.6 355.9 Q 409.0 352.0 410.5 350.0" stroke="#8B5A2B" stroke-width="3" fill="none" stroke-linecap="round" /><path d="M 406.6 356.3 C 402.2 353.2 400.7 353.9 403.4 357.9 Z" fill="#2ED573" />
<circle cx="105.4" cy="382.6" r="7.9" fill="#FF4757" /><path d="M 105.4 374.7 Q 107.8 370.8 109.4 368.8" stroke="#8B5A2B" stroke-width="3" fill="none" stroke-linecap="round" /><path d="M 105.4 375.1 C 101.1 372.0 99.5 372.8 102.2 376.7 Z" fill="#2ED573" />
<circle cx="124.2" cy="382.6" r="7.9" fill="#FF4757" /><path d="M 124.2 374.7 Q 126.6 370.8 128.2 368.8" stroke="#8B5A2B" stroke-width="3" fill="none" stroke-linecap="round" /><path d="M 124.2 375.1 C 119.9 372.0 118.3 372.8 121.1 376.7 Z" fill="#2ED573" />
<circle cx="143.1" cy="382.6" r="7.9" fill="#FF4757" /><path d="M 143.1 374.7 Q 145.4 370.8 147.0 368.8" stroke="#8B5A2B" stroke-width="3" fill="none" stroke-linecap="round" /><path d="M 143.1 375.1 C 138.7 372.0 137.1 372.8 139.9 376.7 Z" fill="#2ED573" />
<circle cx="161.9" cy="382.6" r="7.9" fill="#FF4757" /><path d="M 161.9 374.7 Q 164.3 370.8 165.8 368.8" stroke="#8B5A2B" stroke-width="3" fill="none" stroke-linecap="round" /><path d="M 161.9 375.1 C 157.5 372.0 156.0 372.8 158.7 376.7 Z" fill="#2ED573" />
<circle cx="180.7" cy="382.6" r="7.9" fill="#FF4757" /><path d="M 180.7 374.7 Q 183.1 370.8 184.7 368.8" stroke="#8B5A2B" stroke-width="3" fill="none" stroke-linecap="round" /><path d="M 180.7 375.1 C 176.4 372.0 174.8 372.8 177.5 376.7 Z" fill="#2ED573" />
<circle cx="199.5" cy="382.6" r="7.9" fill="#FF4757" /><path d="M 199.5 374.7 Q 201.9 370.8 203.5 368.8" stroke="#8B5A2B" stroke-width="3" fill="none" stroke-linecap="round" /><path d="M 199.5 375.1 C 195.2 372.0 193.6 372.8 196.4 376.7 Z" fill="#2ED573" />
<circle cx="218.4" cy="382.6" r="7.9" fill="#FF4757" /><path d="M 218.4 374.7 Q 220.7 370.8 222.3 368.8" stroke="#8B5A2B" stroke-width="3" fill="none" stroke-linecap="round" /><path d="M 218.4 375.1 C 214.0 372.0 212.4 372.8 215.2 376.7 Z" fill="#2ED573" />
<circle cx="237.2" cy="382.6" r="7.9" fill="#FF4757" /><path d="M 237.2 374.7 Q 239.5 370.8 241.1 368.8" stroke="#8B5A2B" stroke-width="3" fill="none" stroke-linecap="round" /><path d="M 237.2 375.1 C 232.8 372.0 231.2 372.8 234.0 376.7 Z" fill="#2ED573" />
<circle cx="256.0" cy="382.6" r="7.9" fill="#FF4757" /><path d="M 256.0 374.7 Q 258.4 370.8 260.0 368.8" stroke="#8B5A2B" stroke-width="3" fill="none" stroke-linecap="round" /><path d="M 256.0 375.1 C 251.7 372.0 250.1 372.8 252.8 376.7 Z" fill="#2ED573" />
<circle cx="274.8" cy="382.6" r="7.9" fill="#FF4757" /><path d="M 274.8 374.7 Q 277.2 370.8 278.8 368.8" stroke="#8B5A2B" stroke-width="3" fill="none" stroke-linecap="round" /><path d="M 274.8 375.1 C 270.5 372.0 268.9 372.8 271.7 376.7 Z" fill="#2ED573" />
<circle cx="293.6" cy="382.6" r="7.9" fill="#FF4757" /><path d="M 293.6 374.7 Q 296.0 370.8 297.6 368.8" stroke="#8B5A2B" stroke-width="3" fill="none" stroke-linecap="round" /><path d="M 293.6 375.1 C 289.3 372.0 287.7 372.8 290.5 376.7 Z" fill="#2ED573" />
<circle cx="312.5" cy="382.6" r="7.9" fill="#FF4757" /><path d="M 312.5 374.7 Q 314.8 370.8 316.4 368.8" stroke="#8B5A2B" stroke-width="3" fill="none" stroke-linecap="round" /><path d="M 312.5 375.1 C 308.1 372.0 306.5 372.8 309.3 376.7 Z" fill="#2ED573" />
<circle cx="331.3" cy="382.6" r="7.9" fill="#FF4757" /><path d="M 331.3 374.7 Q 333.7 370.8 335.2 368.8" stroke="#8B5A2B" stroke-width="3" fill="none" stroke-linecap="round" /><path d="M 331.3 375.1 C 326.9 372.0 325.4 372.8 328.1 376.7 Z" fill="#2ED573" />
  </g>

  <!-- Bottom Banner -->
  <g filter="url(#shadow-81)">
    <rect x="96" y="420" width="320" height="54" rx="27" fill="#FFF" stroke="#e3c6ea" stroke-width="4" />
    <text x="256" y="455" 
          text-anchor="middle" 
          font-size="28" 
          font-weight="900" 
          font-family="Comic Sans MS, Arial Rounded MT Bold, sans-serif" 
          fill="#7C5730">81 - Eighty One</text>
  </g>
</svg>