<svg xmlns="http://www.w3.org/2000/svg" viewBox="0 0 512 512" width="100%" height="100%">
  <defs>
    <!-- Background Gradient -->
    <linearGradient id="bg-85" x1="0%" y1="0%" x2="0%" y2="100%">
      <stop offset="0%" stop-color="#fff9fe" />
      <stop offset="100%" stop-color="#ffeffe" />
    </linearGradient>

    <!-- Front Face Gradient -->
    <linearGradient id="front-85" x1="0%" y1="0%" x2="0%" y2="100%">
      <stop offset="0%" stop-color="#ff89fb" />
      <stop offset="100%" stop-color="#f400ec" />
    </linearGradient>

    <!-- 3D Side/Extrusion Color -->
    <linearGradient id="side-85" x1="0%" y1="0%" x2="0%" y2="100%">
      <stop offset="0%" stop-color="#c100bb" />
      <stop offset="100%" stop-color="#8e008a" />
    </linearGradient>

    <!-- Leaf Sprout Gradient -->
    <linearGradient id="leaf-85" x1="0%" y1="0%" x2="100%" y2="100%">
      <stop offset="0%" stop-color="#7BED9F" />
      <stop offset="100%" stop-color="#2ED573" />
    </linearGradient>

    <!-- 3D Base Shadow -->
    <filter id="shadow-85">
      <feDropShadow dx="0" dy="10" stdDeviation="8" flood-color="#000000" flood-opacity="0.25" />
    </filter>
  </defs>

  <!-- Background -->
  <circle cx="256" cy="256" r="236" fill="url(#bg-85)" stroke="#eac6e9" stroke-width="6" />

  <!-- Sparkles -->
  <g fill="#FFD43B">
    <circle cx="100" cy="130" r="8" />
    <circle cx="400" cy="120" r="10" />
    <circle cx="430" cy="330" r="7" />
  </g>

  <!-- Number -->
  <g filter="url(#shadow-85)">
    <!-- Side -->
    <text x="256" y="215" 
          text-anchor="middle" 
          font-size="180" 
          font-weight="900" 
          font-family="Comic Sans MS, Arial Rounded MT Bold, sans-serif" 
          fill="url(#side-85)" 
          stroke="url(#side-85)" 
          stroke-width="18" 
          transform="translate(0, 12)">85</text>

    <!-- Front -->
    <text x="256" y="215" 
          text-anchor="middle" 
          font-size="180" 
          font-weight="900" 
          font-family="Comic Sans MS, Arial Rounded MT Bold, sans-serif" 
          fill="url(#front-85)" 
          stroke="url(#front-85)" 
          stroke-width="18">85</text>
  </g>

  <!-- Cute Sprout -->
  <g transform="translate(256 65)">
    <path d="M0 0 Q-4 -15 -8 -24" stroke="#8B5A2B" stroke-width="5" fill="none" />
    <path d="M-8 -24 C-28 -28 -30 -5 -10 0 Z" fill="url(#leaf-85)" />
    <path d="M-8 -24 C5 -35 22 -20 5 -5 Z" fill="url(#leaf-85)" />
  </g>

  <!-- Eyes -->
  <g>
    <circle cx="215" cy="180" r="18" fill="#222" />
    <circle cx="208" cy="172" r="6" fill="#FFF" />

    <circle cx="297" cy="180" r="18" fill="#222" />
    <circle cx="290" cy="172" r="6" fill="#FFF" />
  </g>

  <!-- Cheeks -->
  <ellipse cx="185" cy="210" rx="18" ry="12" fill="#FF6B81" opacity="0.45" />
  <ellipse cx="327" cy="210" rx="18" ry="12" fill="#FF6B81" opacity="0.45" />

  <!-- Smile -->
  <path d="M225 225 Q256 255 287 225" stroke="#7A1022" stroke-width="8" fill="none" stroke-linecap="round" />

  <!-- Counting Object -->
  <g>
    <path d="M 105.4 313.7 C 95.9 305.8 99.1 301.0 105.4 304.2 C 111.7 301.0 114.9 305.8 105.4 313.7 Z" fill="#ff7675" />
<path d="M 124.2 313.7 C 114.7 305.8 117.9 301.0 124.2 304.2 C 130.6 301.0 133.7 305.8 124.2 313.7 Z" fill="#ff7675" />
<path d="M 143.1 313.7 C 133.6 305.8 136.7 301.0 143.1 304.2 C 149.4 301.0 152.5 305.8 143.1 313.7 Z" fill="#ff7675" />
<path d="M 161.9 313.7 C 152.4 305.8 155.6 301.0 161.9 304.2 C 168.2 301.0 171.4 305.8 161.9 313.7 Z" fill="#ff7675" />
<path d="M 180.7 313.7 C 171.2 305.8 174.4 301.0 180.7 304.2 C 187.0 301.0 190.2 305.8 180.7 313.7 Z" fill="#ff7675" />
<path d="M 199.5 313.7 C 190.0 305.8 193.2 301.0 199.5 304.2 C 205.9 301.0 209.0 305.8 199.5 313.7 Z" fill="#ff7675" />
<path d="M 218.4 313.7 C 208.9 305.8 212.0 301.0 218.4 304.2 C 224.7 301.0 227.8 305.8 218.4 313.7 Z" fill="#ff7675" />
<path d="M 237.2 313.7 C 227.7 305.8 230.9 301.0 237.2 304.2 C 243.5 301.0 246.7 305.8 237.2 313.7 Z" fill="#ff7675" />
<path d="M 256.0 313.7 C 246.5 305.8 249.7 301.0 256.0 304.2 C 262.3 301.0 265.5 305.8 256.0 313.7 Z" fill="#ff7675" />
<path d="M 274.8 313.7 C 265.3 305.8 268.5 301.0 274.8 304.2 C 281.1 301.0 284.3 305.8 274.8 313.7 Z" fill="#ff7675" />
<path d="M 293.6 313.7 C 284.2 305.8 287.3 301.0 293.6 304.2 C 300.0 301.0 303.1 305.8 293.6 313.7 Z" fill="#ff7675" />
<path d="M 312.5 313.7 C 303.0 305.8 306.1 301.0 312.5 304.2 C 318.8 301.0 322.0 305.8 312.5 313.7 Z" fill="#ff7675" />
<path d="M 331.3 313.7 C 321.8 305.8 325.0 301.0 331.3 304.2 C 337.6 301.0 340.8 305.8 331.3 313.7 Z" fill="#ff7675" />
<path d="M 350.1 313.7 C 340.6 305.8 343.8 301.0 350.1 304.2 C 356.4 301.0 359.6 305.8 350.1 313.7 Z" fill="#ff7675" />
<path d="M 368.9 313.7 C 359.5 305.8 362.6 301.0 368.9 304.2 C 375.3 301.0 378.4 305.8 368.9 313.7 Z" fill="#ff7675" />
<path d="M 387.8 313.7 C 378.3 305.8 381.4 301.0 387.8 304.2 C 394.1 301.0 397.3 305.8 387.8 313.7 Z" fill="#ff7675" />
<path d="M 406.6 313.7 C 397.1 305.8 400.3 301.0 406.6 304.2 C 412.9 301.0 416.1 305.8 406.6 313.7 Z" fill="#ff7675" />
<path d="M 105.4 332.5 C 95.9 324.6 99.1 319.9 105.4 323.0 C 111.7 319.9 114.9 324.6 105.4 332.5 Z" fill="#ff7675" />
<path d="M 124.2 332.5 C 114.7 324.6 117.9 319.9 124.2 323.0 C 130.6 319.9 133.7 324.6 124.2 332.5 Z" fill="#ff7675" />
<path d="M 143.1 332.5 C 133.6 324.6 136.7 319.9 143.1 323.0 C 149.4 319.9 152.5 324.6 143.1 332.5 Z" fill="#ff7675" />
<path d="M 161.9 332.5 C 152.4 324.6 155.6 319.9 161.9 323.0 C 168.2 319.9 171.4 324.6 161.9 332.5 Z" fill="#ff7675" />
<path d="M 180.7 332.5 C 171.2 324.6 174.4 319.9 180.7 323.0 C 187.0 319.9 190.2 324.6 180.7 332.5 Z" fill="#ff7675" />
<path d="M 199.5 332.5 C 190.0 324.6 193.2 319.9 199.5 323.0 C 205.9 319.9 209.0 324.6 199.5 332.5 Z" fill="#ff7675" />
<path d="M 218.4 332.5 C 208.9 324.6 212.0 319.9 218.4 323.0 C 224.7 319.9 227.8 324.6 218.4 332.5 Z" fill="#ff7675" />
<path d="M 237.2 332.5 C 227.7 324.6 230.9 319.9 237.2 323.0 C 243.5 319.9 246.7 324.6 237.2 332.5 Z" fill="#ff7675" />
<path d="M 256.0 332.5 C 246.5 324.6 249.7 319.9 256.0 323.0 C 262.3 319.9 265.5 324.6 256.0 332.5 Z" fill="#ff7675" />
<path d="M 274.8 332.5 C 265.3 324.6 268.5 319.9 274.8 323.0 C 281.1 319.9 284.3 324.6 274.8 332.5 Z" fill="#ff7675" />
<path d="M 293.6 332.5 C 284.2 324.6 287.3 319.9 293.6 323.0 C 300.0 319.9 303.1 324.6 293.6 332.5 Z" fill="#ff7675" />
<path d="M 312.5 332.5 C 303.0 324.6 306.1 319.9 312.5 323.0 C 318.8 319.9 322.0 324.6 312.5 332.5 Z" fill="#ff7675" />
<path d="M 331.3 332.5 C 321.8 324.6 325.0 319.9 331.3 323.0 C 337.6 319.9 340.8 324.6 331.3 332.5 Z" fill="#ff7675" />
<path d="M 350.1 332.5 C 340.6 324.6 343.8 319.9 350.1 323.0 C 356.4 319.9 359.6 324.6 350.1 332.5 Z" fill="#ff7675" />
<path d="M 368.9 332.5 C 359.5 324.6 362.6 319.9 368.9 323.0 C 375.3 319.9 378.4 324.6 368.9 332.5 Z" fill="#ff7675" />
<path d="M 387.8 332.5 C 378.3 324.6 381.4 319.9 387.8 323.0 C 394.1 319.9 397.3 324.6 387.8 332.5 Z" fill="#ff7675" />
<path d="M 406.6 332.5 C 397.1 324.6 400.3 319.9 406.6 323.0 C 412.9 319.9 416.1 324.6 406.6 332.5 Z" fill="#ff7675" />
<path d="M 105.4 351.3 C 95.9 343.4 99.1 338.7 105.4 341.8 C 111.7 338.7 114.9 343.4 105.4 351.3 Z" fill="#ff7675" />
<path d="M 124.2 351.3 C 114.7 343.4 117.9 338.7 124.2 341.8 C 130.6 338.7 133.7 343.4 124.2 351.3 Z" fill="#ff7675" />
<path d="M 143.1 351.3 C 133.6 343.4 136.7 338.7 143.1 341.8 C 149.4 338.7 152.5 343.4 143.1 351.3 Z" fill="#ff7675" />
<path d="M 161.9 351.3 C 152.4 343.4 155.6 338.7 161.9 341.8 C 168.2 338.7 171.4 343.4 161.9 351.3 Z" fill="#ff7675" />
<path d="M 180.7 351.3 C 171.2 343.4 174.4 338.7 180.7 341.8 C 187.0 338.7 190.2 343.4 180.7 351.3 Z" fill="#ff7675" />
<path d="M 199.5 351.3 C 190.0 343.4 193.2 338.7 199.5 341.8 C 205.9 338.7 209.0 343.4 199.5 351.3 Z" fill="#ff7675" />
<path d="M 218.4 351.3 C 208.9 343.4 212.0 338.7 218.4 341.8 C 224.7 338.7 227.8 343.4 218.4 351.3 Z" fill="#ff7675" />
<path d="M 237.2 351.3 C 227.7 343.4 230.9 338.7 237.2 341.8 C 243.5 338.7 246.7 343.4 237.2 351.3 Z" fill="#ff7675" />
<path d="M 256.0 351.3 C 246.5 343.4 249.7 338.7 256.0 341.8 C 262.3 338.7 265.5 343.4 256.0 351.3 Z" fill="#ff7675" />
<path d="M 274.8 351.3 C 265.3 343.4 268.5 338.7 274.8 341.8 C 281.1 338.7 284.3 343.4 274.8 351.3 Z" fill="#ff7675" />
<path d="M 293.6 351.3 C 284.2 343.4 287.3 338.7 293.6 341.8 C 300.0 338.7 303.1 343.4 293.6 351.3 Z" fill="#ff7675" />
<path d="M 312.5 351.3 C 303.0 343.4 306.1 338.7 312.5 341.8 C 318.8 338.7 322.0 343.4 312.5 351.3 Z" fill="#ff7675" />
<path d="M 331.3 351.3 C 321.8 343.4 325.0 338.7 331.3 341.8 C 337.6 338.7 340.8 343.4 331.3 351.3 Z" fill="#ff7675" />
<path d="M 350.1 351.3 C 340.6 343.4 343.8 338.7 350.1 341.8 C 356.4 338.7 359.6 343.4 350.1 351.3 Z" fill="#ff7675" />
<path d="M 368.9 351.3 C 359.5 343.4 362.6 338.7 368.9 341.8 C 375.3 338.7 378.4 343.4 368.9 351.3 Z" fill="#ff7675" />
<path d="M 387.8 351.3 C 378.3 343.4 381.4 338.7 387.8 341.8 C 394.1 338.7 397.3 343.4 387.8 351.3 Z" fill="#ff7675" />
<path d="M 406.6 351.3 C 397.1 343.4 400.3 338.7 406.6 341.8 C 412.9 338.7 416.1 343.4 406.6 351.3 Z" fill="#ff7675" />
<path d="M 105.4 370.1 C 95.9 362.2 99.1 357.5 105.4 360.7 C 111.7 357.5 114.9 362.2 105.4 370.1 Z" fill="#ff7675" />
<path d="M 124.2 370.1 C 114.7 362.2 117.9 357.5 124.2 360.7 C 130.6 357.5 133.7 362.2 124.2 370.1 Z" fill="#ff7675" />
<path d="M 143.1 370.1 C 133.6 362.2 136.7 357.5 143.1 360.7 C 149.4 357.5 152.5 362.2 143.1 370.1 Z" fill="#ff7675" />
<path d="M 161.9 370.1 C 152.4 362.2 155.6 357.5 161.9 360.7 C 168.2 357.5 171.4 362.2 161.9 370.1 Z" fill="#ff7675" />
<path d="M 180.7 370.1 C 171.2 362.2 174.4 357.5 180.7 360.7 C 187.0 357.5 190.2 362.2 180.7 370.1 Z" fill="#ff7675" />
<path d="M 199.5 370.1 C 190.0 362.2 193.2 357.5 199.5 360.7 C 205.9 357.5 209.0 362.2 199.5 370.1 Z" fill="#ff7675" />
<path d="M 218.4 370.1 C 208.9 362.2 212.0 357.5 218.4 360.7 C 224.7 357.5 227.8 362.2 218.4 370.1 Z" fill="#ff7675" />
<path d="M 237.2 370.1 C 227.7 362.2 230.9 357.5 237.2 360.7 C 243.5 357.5 246.7 362.2 237.2 370.1 Z" fill="#ff7675" />
<path d="M 256.0 370.1 C 246.5 362.2 249.7 357.5 256.0 360.7 C 262.3 357.5 265.5 362.2 256.0 370.1 Z" fill="#ff7675" />
<path d="M 274.8 370.1 C 265.3 362.2 268.5 357.5 274.8 360.7 C 281.1 357.5 284.3 362.2 274.8 370.1 Z" fill="#ff7675" />
<path d="M 293.6 370.1 C 284.2 362.2 287.3 357.5 293.6 360.7 C 300.0 357.5 303.1 362.2 293.6 370.1 Z" fill="#ff7675" />
<path d="M 312.5 370.1 C 303.0 362.2 306.1 357.5 312.5 360.7 C 318.8 357.5 322.0 362.2 312.5 370.1 Z" fill="#ff7675" />
<path d="M 331.3 370.1 C 321.8 362.2 325.0 357.5 331.3 360.7 C 337.6 357.5 340.8 362.2 331.3 370.1 Z" fill="#ff7675" />
<path d="M 350.1 370.1 C 340.6 362.2 343.8 357.5 350.1 360.7 C 356.4 357.5 359.6 362.2 350.1 370.1 Z" fill="#ff7675" />
<path d="M 368.9 370.1 C 359.5 362.2 362.6 357.5 368.9 360.7 C 375.3 357.5 378.4 362.2 368.9 370.1 Z" fill="#ff7675" />
<path d="M 387.8 370.1 C 378.3 362.2 381.4 357.5 387.8 360.7 C 394.1 357.5 397.3 362.2 387.8 370.1 Z" fill="#ff7675" />
<path d="M 406.6 370.1 C 397.1 362.2 400.3 357.5 406.6 360.7 C 412.9 357.5 416.1 362.2 406.6 370.1 Z" fill="#ff7675" />
<path d="M 105.4 389.0 C 95.9 381.1 99.1 376.3 105.4 379.5 C 111.7 376.3 114.9 381.1 105.4 389.0 Z" fill="#ff7675" />
<path d="M 124.2 389.0 C 114.7 381.1 117.9 376.3 124.2 379.5 C 130.6 376.3 133.7 381.1 124.2 389.0 Z" fill="#ff7675" />
<path d="M 143.1 389.0 C 133.6 381.1 136.7 376.3 143.1 379.5 C 149.4 376.3 152.5 381.1 143.1 389.0 Z" fill="#ff7675" />
<path d="M 161.9 389.0 C 152.4 381.1 155.6 376.3 161.9 379.5 C 168.2 376.3 171.4 381.1 161.9 389.0 Z" fill="#ff7675" />
<path d="M 180.7 389.0 C 171.2 381.1 174.4 376.3 180.7 379.5 C 187.0 376.3 190.2 381.1 180.7 389.0 Z" fill="#ff7675" />
<path d="M 199.5 389.0 C 190.0 381.1 193.2 376.3 199.5 379.5 C 205.9 376.3 209.0 381.1 199.5 389.0 Z" fill="#ff7675" />
<path d="M 218.4 389.0 C 208.9 381.1 212.0 376.3 218.4 379.5 C 224.7 376.3 227.8 381.1 218.4 389.0 Z" fill="#ff7675" />
<path d="M 237.2 389.0 C 227.7 381.1 230.9 376.3 237.2 379.5 C 243.5 376.3 246.7 381.1 237.2 389.0 Z" fill="#ff7675" />
<path d="M 256.0 389.0 C 246.5 381.1 249.7 376.3 256.0 379.5 C 262.3 376.3 265.5 381.1 256.0 389.0 Z" fill="#ff7675" />
<path d="M 274.8 389.0 C 265.3 381.1 268.5 376.3 274.8 379.5 C 281.1 376.3 284.3 381.1 274.8 389.0 Z" fill="#ff7675" />
<path d="M 293.6 389.0 C 284.2 381.1 287.3 376.3 293.6 379.5 C 300.0 376.3 303.1 381.1 293.6 389.0 Z" fill="#ff7675" />
<path d="M 312.5 389.0 C 303.0 381.1 306.1 376.3 312.5 379.5 C 318.8 376.3 322.0 381.1 312.5 389.0 Z" fill="#ff7675" />
<path d="M 331.3 389.0 C 321.8 381.1 325.0 376.3 331.3 379.5 C 337.6 376.3 340.8 381.1 331.3 389.0 Z" fill="#ff7675" />
<path d="M 350.1 389.0 C 340.6 381.1 343.8 376.3 350.1 379.5 C 356.4 376.3 359.6 381.1 350.1 389.0 Z" fill="#ff7675" />
<path d="M 368.9 389.0 C 359.5 381.1 362.6 376.3 368.9 379.5 C 375.3 376.3 378.4 381.1 368.9 389.0 Z" fill="#ff7675" />
<path d="M 387.8 389.0 C 378.3 381.1 381.4 376.3 387.8 379.5 C 394.1 376.3 397.3 381.1 387.8 389.0 Z" fill="#ff7675" />
<path d="M 406.6 389.0 C 397.1 381.1 400.3 376.3 406.6 379.5 C 412.9 376.3 416.1 381.1 406.6 389.0 Z" fill="#ff7675" />
  </g>

  <!-- Bottom Banner -->
  <g filter="url(#shadow-85)">
    <rect x="96" y="420" width="320" height="54" rx="27" fill="#FFF" stroke="#eac6e9" stroke-width="4" />
    <text x="256" y="455" 
          text-anchor="middle" 
          font-size="28" 
          font-weight="900" 
          font-family="Comic Sans MS, Arial Rounded MT Bold, sans-serif" 
          fill="#7C5730">85 - Eighty Five</text>
  </g>
</svg>