<svg xmlns="http://www.w3.org/2000/svg" viewBox="0 0 512 512" width="100%" height="100%">
  <defs>
    <!-- Background Gradient -->
    <linearGradient id="bg-88" x1="0%" y1="0%" x2="0%" y2="100%">
      <stop offset="0%" stop-color="#fff9fd" />
      <stop offset="100%" stop-color="#ffeffb" />
    </linearGradient>

    <!-- Front Face Gradient -->
    <linearGradient id="front-88" x1="0%" y1="0%" x2="0%" y2="100%">
      <stop offset="0%" stop-color="#ff89e5" />
      <stop offset="100%" stop-color="#f400bf" />
    </linearGradient>

    <!-- 3D Side/Extrusion Color -->
    <linearGradient id="side-88" x1="0%" y1="0%" x2="0%" y2="100%">
      <stop offset="0%" stop-color="#c10097" />
      <stop offset="100%" stop-color="#8e006f" />
    </linearGradient>

    <!-- Leaf Sprout Gradient -->
    <linearGradient id="leaf-88" x1="0%" y1="0%" x2="100%" y2="100%">
      <stop offset="0%" stop-color="#7BED9F" />
      <stop offset="100%" stop-color="#2ED573" />
    </linearGradient>

    <!-- 3D Base Shadow -->
    <filter id="shadow-88">
      <feDropShadow dx="0" dy="10" stdDeviation="8" flood-color="#000000" flood-opacity="0.25" />
    </filter>
  </defs>

  <!-- Background -->
  <circle cx="256" cy="256" r="236" fill="url(#bg-88)" stroke="#eac6e2" stroke-width="6" />

  <!-- Sparkles -->
  <g fill="#FFD43B">
    <circle cx="100" cy="130" r="8" />
    <circle cx="400" cy="120" r="10" />
    <circle cx="430" cy="330" r="7" />
  </g>

  <!-- Number -->
  <g filter="url(#shadow-88)">
    <!-- Side -->
    <text x="256" y="215" 
          text-anchor="middle" 
          font-size="180" 
          font-weight="900" 
          font-family="Comic Sans MS, Arial Rounded MT Bold, sans-serif" 
          fill="url(#side-88)" 
          stroke="url(#side-88)" 
          stroke-width="18" 
          transform="translate(0, 12)">88</text>

    <!-- Front -->
    <text x="256" y="215" 
          text-anchor="middle" 
          font-size="180" 
          font-weight="900" 
          font-family="Comic Sans MS, Arial Rounded MT Bold, sans-serif" 
          fill="url(#front-88)" 
          stroke="url(#front-88)" 
          stroke-width="18">88</text>
  </g>

  <!-- Cute Sprout -->
  <g transform="translate(256 65)">
    <path d="M0 0 Q-4 -15 -8 -24" stroke="#8B5A2B" stroke-width="5" fill="none" />
    <path d="M-8 -24 C-28 -28 -30 -5 -10 0 Z" fill="url(#leaf-88)" />
    <path d="M-8 -24 C5 -35 22 -20 5 -5 Z" fill="url(#leaf-88)" />
  </g>

  <!-- Eyes -->
  <g>
    <circle cx="215" cy="180" r="18" fill="#222" />
    <circle cx="208" cy="172" r="6" fill="#FFF" />

    <circle cx="297" cy="180" r="18" fill="#222" />
    <circle cx="290" cy="172" r="6" fill="#FFF" />
  </g>

  <!-- Cheeks -->
  <ellipse cx="185" cy="210" rx="18" ry="12" fill="#FF6B81" opacity="0.45" />
  <ellipse cx="327" cy="210" rx="18" ry="12" fill="#FF6B81" opacity="0.45" />

  <!-- Smile -->
  <path d="M225 225 Q256 255 287 225" stroke="#7A1022" stroke-width="8" fill="none" stroke-linecap="round" />

  <!-- Counting Object -->
  <g>
    <circle cx="127.7" cy="299.2" r="7.7" fill="#f1c40f" stroke="#e67e22" stroke-width="1.2" /><circle cx="127.7" cy="299.2" r="5.4" fill="none" stroke="#f39c12" stroke-width="1.2" stroke-dasharray="1.5,1.5" /><polygon points="127.7,296.5 128.4,298.4 130.4,298.4 128.8,299.9 129.6,301.9 127.7,300.7 125.7,301.9 126.5,299.9 125.0,298.4 126.9,298.4" fill="#ffffff" />
<circle cx="146.0" cy="299.2" r="7.7" fill="#f1c40f" stroke="#e67e22" stroke-width="1.2" /><circle cx="146.0" cy="299.2" r="5.4" fill="none" stroke="#f39c12" stroke-width="1.2" stroke-dasharray="1.5,1.5" /><polygon points="146.0,296.5 146.8,298.4 148.7,298.4 147.2,299.9 147.9,301.9 146.0,300.7 144.1,301.9 144.8,299.9 143.3,298.4 145.2,298.4" fill="#ffffff" />
<circle cx="164.3" cy="299.2" r="7.7" fill="#f1c40f" stroke="#e67e22" stroke-width="1.2" /><circle cx="164.3" cy="299.2" r="5.4" fill="none" stroke="#f39c12" stroke-width="1.2" stroke-dasharray="1.5,1.5" /><polygon points="164.3,296.5 165.1,298.4 167.0,298.4 165.5,299.9 166.3,301.9 164.3,300.7 162.4,301.9 163.2,299.9 161.6,298.4 163.6,298.4" fill="#ffffff" />
<circle cx="182.7" cy="299.2" r="7.7" fill="#f1c40f" stroke="#e67e22" stroke-width="1.2" /><circle cx="182.7" cy="299.2" r="5.4" fill="none" stroke="#f39c12" stroke-width="1.2" stroke-dasharray="1.5,1.5" /><polygon points="182.7,296.5 183.4,298.4 185.4,298.4 183.8,299.9 184.6,301.9 182.7,300.7 180.7,301.9 181.5,299.9 180.0,298.4 181.9,298.4" fill="#ffffff" />
<circle cx="201.0" cy="299.2" r="7.7" fill="#f1c40f" stroke="#e67e22" stroke-width="1.2" /><circle cx="201.0" cy="299.2" r="5.4" fill="none" stroke="#f39c12" stroke-width="1.2" stroke-dasharray="1.5,1.5" /><polygon points="201.0,296.5 201.8,298.4 203.7,298.4 202.2,299.9 202.9,301.9 201.0,300.7 199.1,301.9 199.8,299.9 198.3,298.4 200.2,298.4" fill="#ffffff" />
<circle cx="219.3" cy="299.2" r="7.7" fill="#f1c40f" stroke="#e67e22" stroke-width="1.2" /><circle cx="219.3" cy="299.2" r="5.4" fill="none" stroke="#f39c12" stroke-width="1.2" stroke-dasharray="1.5,1.5" /><polygon points="219.3,296.5 220.1,298.4 222.0,298.4 220.5,299.9 221.3,301.9 219.3,300.7 217.4,301.9 218.2,299.9 216.6,298.4 218.6,298.4" fill="#ffffff" />
<circle cx="237.7" cy="299.2" r="7.7" fill="#f1c40f" stroke="#e67e22" stroke-width="1.2" /><circle cx="237.7" cy="299.2" r="5.4" fill="none" stroke="#f39c12" stroke-width="1.2" stroke-dasharray="1.5,1.5" /><polygon points="237.7,296.5 238.4,298.4 240.4,298.4 238.8,299.9 239.6,301.9 237.7,300.7 235.7,301.9 236.5,299.9 235.0,298.4 236.9,298.4" fill="#ffffff" />
<circle cx="256.0" cy="299.2" r="7.7" fill="#f1c40f" stroke="#e67e22" stroke-width="1.2" /><circle cx="256.0" cy="299.2" r="5.4" fill="none" stroke="#f39c12" stroke-width="1.2" stroke-dasharray="1.5,1.5" /><polygon points="256.0,296.5 256.8,298.4 258.7,298.4 257.2,299.9 257.9,301.9 256.0,300.7 254.1,301.9 254.8,299.9 253.3,298.4 255.2,298.4" fill="#ffffff" />
<circle cx="274.3" cy="299.2" r="7.7" fill="#f1c40f" stroke="#e67e22" stroke-width="1.2" /><circle cx="274.3" cy="299.2" r="5.4" fill="none" stroke="#f39c12" stroke-width="1.2" stroke-dasharray="1.5,1.5" /><polygon points="274.3,296.5 275.1,298.4 277.0,298.4 275.5,299.9 276.3,301.9 274.3,300.7 272.4,301.9 273.2,299.9 271.6,298.4 273.6,298.4" fill="#ffffff" />
<circle cx="292.7" cy="299.2" r="7.7" fill="#f1c40f" stroke="#e67e22" stroke-width="1.2" /><circle cx="292.7" cy="299.2" r="5.4" fill="none" stroke="#f39c12" stroke-width="1.2" stroke-dasharray="1.5,1.5" /><polygon points="292.7,296.5 293.4,298.4 295.4,298.4 293.8,299.9 294.6,301.9 292.7,300.7 290.7,301.9 291.5,299.9 290.0,298.4 291.9,298.4" fill="#ffffff" />
<circle cx="311.0" cy="299.2" r="7.7" fill="#f1c40f" stroke="#e67e22" stroke-width="1.2" /><circle cx="311.0" cy="299.2" r="5.4" fill="none" stroke="#f39c12" stroke-width="1.2" stroke-dasharray="1.5,1.5" /><polygon points="311.0,296.5 311.8,298.4 313.7,298.4 312.2,299.9 312.9,301.9 311.0,300.7 309.1,301.9 309.8,299.9 308.3,298.4 310.2,298.4" fill="#ffffff" />
<circle cx="329.3" cy="299.2" r="7.7" fill="#f1c40f" stroke="#e67e22" stroke-width="1.2" /><circle cx="329.3" cy="299.2" r="5.4" fill="none" stroke="#f39c12" stroke-width="1.2" stroke-dasharray="1.5,1.5" /><polygon points="329.3,296.5 330.1,298.4 332.0,298.4 330.5,299.9 331.3,301.9 329.3,300.7 327.4,301.9 328.2,299.9 326.6,298.4 328.6,298.4" fill="#ffffff" />
<circle cx="347.7" cy="299.2" r="7.7" fill="#f1c40f" stroke="#e67e22" stroke-width="1.2" /><circle cx="347.7" cy="299.2" r="5.4" fill="none" stroke="#f39c12" stroke-width="1.2" stroke-dasharray="1.5,1.5" /><polygon points="347.7,296.5 348.4,298.4 350.4,298.4 348.8,299.9 349.6,301.9 347.7,300.7 345.7,301.9 346.5,299.9 345.0,298.4 346.9,298.4" fill="#ffffff" />
<circle cx="366.0" cy="299.2" r="7.7" fill="#f1c40f" stroke="#e67e22" stroke-width="1.2" /><circle cx="366.0" cy="299.2" r="5.4" fill="none" stroke="#f39c12" stroke-width="1.2" stroke-dasharray="1.5,1.5" /><polygon points="366.0,296.5 366.8,298.4 368.7,298.4 367.2,299.9 367.9,301.9 366.0,300.7 364.1,301.9 364.8,299.9 363.3,298.4 365.2,298.4" fill="#ffffff" />
<circle cx="384.3" cy="299.2" r="7.7" fill="#f1c40f" stroke="#e67e22" stroke-width="1.2" /><circle cx="384.3" cy="299.2" r="5.4" fill="none" stroke="#f39c12" stroke-width="1.2" stroke-dasharray="1.5,1.5" /><polygon points="384.3,296.5 385.1,298.4 387.0,298.4 385.5,299.9 386.3,301.9 384.3,300.7 382.4,301.9 383.2,299.9 381.6,298.4 383.6,298.4" fill="#ffffff" />
<circle cx="127.7" cy="317.5" r="7.7" fill="#f1c40f" stroke="#e67e22" stroke-width="1.2" /><circle cx="127.7" cy="317.5" r="5.4" fill="none" stroke="#f39c12" stroke-width="1.2" stroke-dasharray="1.5,1.5" /><polygon points="127.7,314.8 128.4,316.7 130.4,316.7 128.8,318.3 129.6,320.2 127.7,319.0 125.7,320.2 126.5,318.3 125.0,316.7 126.9,316.7" fill="#ffffff" />
<circle cx="146.0" cy="317.5" r="7.7" fill="#f1c40f" stroke="#e67e22" stroke-width="1.2" /><circle cx="146.0" cy="317.5" r="5.4" fill="none" stroke="#f39c12" stroke-width="1.2" stroke-dasharray="1.5,1.5" /><polygon points="146.0,314.8 146.8,316.7 148.7,316.7 147.2,318.3 147.9,320.2 146.0,319.0 144.1,320.2 144.8,318.3 143.3,316.7 145.2,316.7" fill="#ffffff" />
<circle cx="164.3" cy="317.5" r="7.7" fill="#f1c40f" stroke="#e67e22" stroke-width="1.2" /><circle cx="164.3" cy="317.5" r="5.4" fill="none" stroke="#f39c12" stroke-width="1.2" stroke-dasharray="1.5,1.5" /><polygon points="164.3,314.8 165.1,316.7 167.0,316.7 165.5,318.3 166.3,320.2 164.3,319.0 162.4,320.2 163.2,318.3 161.6,316.7 163.6,316.7" fill="#ffffff" />
<circle cx="182.7" cy="317.5" r="7.7" fill="#f1c40f" stroke="#e67e22" stroke-width="1.2" /><circle cx="182.7" cy="317.5" r="5.4" fill="none" stroke="#f39c12" stroke-width="1.2" stroke-dasharray="1.5,1.5" /><polygon points="182.7,314.8 183.4,316.7 185.4,316.7 183.8,318.3 184.6,320.2 182.7,319.0 180.7,320.2 181.5,318.3 180.0,316.7 181.9,316.7" fill="#ffffff" />
<circle cx="201.0" cy="317.5" r="7.7" fill="#f1c40f" stroke="#e67e22" stroke-width="1.2" /><circle cx="201.0" cy="317.5" r="5.4" fill="none" stroke="#f39c12" stroke-width="1.2" stroke-dasharray="1.5,1.5" /><polygon points="201.0,314.8 201.8,316.7 203.7,316.7 202.2,318.3 202.9,320.2 201.0,319.0 199.1,320.2 199.8,318.3 198.3,316.7 200.2,316.7" fill="#ffffff" />
<circle cx="219.3" cy="317.5" r="7.7" fill="#f1c40f" stroke="#e67e22" stroke-width="1.2" /><circle cx="219.3" cy="317.5" r="5.4" fill="none" stroke="#f39c12" stroke-width="1.2" stroke-dasharray="1.5,1.5" /><polygon points="219.3,314.8 220.1,316.7 222.0,316.7 220.5,318.3 221.3,320.2 219.3,319.0 217.4,320.2 218.2,318.3 216.6,316.7 218.6,316.7" fill="#ffffff" />
<circle cx="237.7" cy="317.5" r="7.7" fill="#f1c40f" stroke="#e67e22" stroke-width="1.2" /><circle cx="237.7" cy="317.5" r="5.4" fill="none" stroke="#f39c12" stroke-width="1.2" stroke-dasharray="1.5,1.5" /><polygon points="237.7,314.8 238.4,316.7 240.4,316.7 238.8,318.3 239.6,320.2 237.7,319.0 235.7,320.2 236.5,318.3 235.0,316.7 236.9,316.7" fill="#ffffff" />
<circle cx="256.0" cy="317.5" r="7.7" fill="#f1c40f" stroke="#e67e22" stroke-width="1.2" /><circle cx="256.0" cy="317.5" r="5.4" fill="none" stroke="#f39c12" stroke-width="1.2" stroke-dasharray="1.5,1.5" /><polygon points="256.0,314.8 256.8,316.7 258.7,316.7 257.2,318.3 257.9,320.2 256.0,319.0 254.1,320.2 254.8,318.3 253.3,316.7 255.2,316.7" fill="#ffffff" />
<circle cx="274.3" cy="317.5" r="7.7" fill="#f1c40f" stroke="#e67e22" stroke-width="1.2" /><circle cx="274.3" cy="317.5" r="5.4" fill="none" stroke="#f39c12" stroke-width="1.2" stroke-dasharray="1.5,1.5" /><polygon points="274.3,314.8 275.1,316.7 277.0,316.7 275.5,318.3 276.3,320.2 274.3,319.0 272.4,320.2 273.2,318.3 271.6,316.7 273.6,316.7" fill="#ffffff" />
<circle cx="292.7" cy="317.5" r="7.7" fill="#f1c40f" stroke="#e67e22" stroke-width="1.2" /><circle cx="292.7" cy="317.5" r="5.4" fill="none" stroke="#f39c12" stroke-width="1.2" stroke-dasharray="1.5,1.5" /><polygon points="292.7,314.8 293.4,316.7 295.4,316.7 293.8,318.3 294.6,320.2 292.7,319.0 290.7,320.2 291.5,318.3 290.0,316.7 291.9,316.7" fill="#ffffff" />
<circle cx="311.0" cy="317.5" r="7.7" fill="#f1c40f" stroke="#e67e22" stroke-width="1.2" /><circle cx="311.0" cy="317.5" r="5.4" fill="none" stroke="#f39c12" stroke-width="1.2" stroke-dasharray="1.5,1.5" /><polygon points="311.0,314.8 311.8,316.7 313.7,316.7 312.2,318.3 312.9,320.2 311.0,319.0 309.1,320.2 309.8,318.3 308.3,316.7 310.2,316.7" fill="#ffffff" />
<circle cx="329.3" cy="317.5" r="7.7" fill="#f1c40f" stroke="#e67e22" stroke-width="1.2" /><circle cx="329.3" cy="317.5" r="5.4" fill="none" stroke="#f39c12" stroke-width="1.2" stroke-dasharray="1.5,1.5" /><polygon points="329.3,314.8 330.1,316.7 332.0,316.7 330.5,318.3 331.3,320.2 329.3,319.0 327.4,320.2 328.2,318.3 326.6,316.7 328.6,316.7" fill="#ffffff" />
<circle cx="347.7" cy="317.5" r="7.7" fill="#f1c40f" stroke="#e67e22" stroke-width="1.2" /><circle cx="347.7" cy="317.5" r="5.4" fill="none" stroke="#f39c12" stroke-width="1.2" stroke-dasharray="1.5,1.5" /><polygon points="347.7,314.8 348.4,316.7 350.4,316.7 348.8,318.3 349.6,320.2 347.7,319.0 345.7,320.2 346.5,318.3 345.0,316.7 346.9,316.7" fill="#ffffff" />
<circle cx="366.0" cy="317.5" r="7.7" fill="#f1c40f" stroke="#e67e22" stroke-width="1.2" /><circle cx="366.0" cy="317.5" r="5.4" fill="none" stroke="#f39c12" stroke-width="1.2" stroke-dasharray="1.5,1.5" /><polygon points="366.0,314.8 366.8,316.7 368.7,316.7 367.2,318.3 367.9,320.2 366.0,319.0 364.1,320.2 364.8,318.3 363.3,316.7 365.2,316.7" fill="#ffffff" />
<circle cx="384.3" cy="317.5" r="7.7" fill="#f1c40f" stroke="#e67e22" stroke-width="1.2" /><circle cx="384.3" cy="317.5" r="5.4" fill="none" stroke="#f39c12" stroke-width="1.2" stroke-dasharray="1.5,1.5" /><polygon points="384.3,314.8 385.1,316.7 387.0,316.7 385.5,318.3 386.3,320.2 384.3,319.0 382.4,320.2 383.2,318.3 381.6,316.7 383.6,316.7" fill="#ffffff" />
<circle cx="127.7" cy="335.8" r="7.7" fill="#f1c40f" stroke="#e67e22" stroke-width="1.2" /><circle cx="127.7" cy="335.8" r="5.4" fill="none" stroke="#f39c12" stroke-width="1.2" stroke-dasharray="1.5,1.5" /><polygon points="127.7,333.1 128.4,335.1 130.4,335.1 128.8,336.6 129.6,338.5 127.7,337.4 125.7,338.5 126.5,336.6 125.0,335.1 126.9,335.1" fill="#ffffff" />
<circle cx="146.0" cy="335.8" r="7.7" fill="#f1c40f" stroke="#e67e22" stroke-width="1.2" /><circle cx="146.0" cy="335.8" r="5.4" fill="none" stroke="#f39c12" stroke-width="1.2" stroke-dasharray="1.5,1.5" /><polygon points="146.0,333.1 146.8,335.1 148.7,335.1 147.2,336.6 147.9,338.5 146.0,337.4 144.1,338.5 144.8,336.6 143.3,335.1 145.2,335.1" fill="#ffffff" />
<circle cx="164.3" cy="335.8" r="7.7" fill="#f1c40f" stroke="#e67e22" stroke-width="1.2" /><circle cx="164.3" cy="335.8" r="5.4" fill="none" stroke="#f39c12" stroke-width="1.2" stroke-dasharray="1.5,1.5" /><polygon points="164.3,333.1 165.1,335.1 167.0,335.1 165.5,336.6 166.3,338.5 164.3,337.4 162.4,338.5 163.2,336.6 161.6,335.1 163.6,335.1" fill="#ffffff" />
<circle cx="182.7" cy="335.8" r="7.7" fill="#f1c40f" stroke="#e67e22" stroke-width="1.2" /><circle cx="182.7" cy="335.8" r="5.4" fill="none" stroke="#f39c12" stroke-width="1.2" stroke-dasharray="1.5,1.5" /><polygon points="182.7,333.1 183.4,335.1 185.4,335.1 183.8,336.6 184.6,338.5 182.7,337.4 180.7,338.5 181.5,336.6 180.0,335.1 181.9,335.1" fill="#ffffff" />
<circle cx="201.0" cy="335.8" r="7.7" fill="#f1c40f" stroke="#e67e22" stroke-width="1.2" /><circle cx="201.0" cy="335.8" r="5.4" fill="none" stroke="#f39c12" stroke-width="1.2" stroke-dasharray="1.5,1.5" /><polygon points="201.0,333.1 201.8,335.1 203.7,335.1 202.2,336.6 202.9,338.5 201.0,337.4 199.1,338.5 199.8,336.6 198.3,335.1 200.2,335.1" fill="#ffffff" />
<circle cx="219.3" cy="335.8" r="7.7" fill="#f1c40f" stroke="#e67e22" stroke-width="1.2" /><circle cx="219.3" cy="335.8" r="5.4" fill="none" stroke="#f39c12" stroke-width="1.2" stroke-dasharray="1.5,1.5" /><polygon points="219.3,333.1 220.1,335.1 222.0,335.1 220.5,336.6 221.3,338.5 219.3,337.4 217.4,338.5 218.2,336.6 216.6,335.1 218.6,335.1" fill="#ffffff" />
<circle cx="237.7" cy="335.8" r="7.7" fill="#f1c40f" stroke="#e67e22" stroke-width="1.2" /><circle cx="237.7" cy="335.8" r="5.4" fill="none" stroke="#f39c12" stroke-width="1.2" stroke-dasharray="1.5,1.5" /><polygon points="237.7,333.1 238.4,335.1 240.4,335.1 238.8,336.6 239.6,338.5 237.7,337.4 235.7,338.5 236.5,336.6 235.0,335.1 236.9,335.1" fill="#ffffff" />
<circle cx="256.0" cy="335.8" r="7.7" fill="#f1c40f" stroke="#e67e22" stroke-width="1.2" /><circle cx="256.0" cy="335.8" r="5.4" fill="none" stroke="#f39c12" stroke-width="1.2" stroke-dasharray="1.5,1.5" /><polygon points="256.0,333.1 256.8,335.1 258.7,335.1 257.2,336.6 257.9,338.5 256.0,337.4 254.1,338.5 254.8,336.6 253.3,335.1 255.2,335.1" fill="#ffffff" />
<circle cx="274.3" cy="335.8" r="7.7" fill="#f1c40f" stroke="#e67e22" stroke-width="1.2" /><circle cx="274.3" cy="335.8" r="5.4" fill="none" stroke="#f39c12" stroke-width="1.2" stroke-dasharray="1.5,1.5" /><polygon points="274.3,333.1 275.1,335.1 277.0,335.1 275.5,336.6 276.3,338.5 274.3,337.4 272.4,338.5 273.2,336.6 271.6,335.1 273.6,335.1" fill="#ffffff" />
<circle cx="292.7" cy="335.8" r="7.7" fill="#f1c40f" stroke="#e67e22" stroke-width="1.2" /><circle cx="292.7" cy="335.8" r="5.4" fill="none" stroke="#f39c12" stroke-width="1.2" stroke-dasharray="1.5,1.5" /><polygon points="292.7,333.1 293.4,335.1 295.4,335.1 293.8,336.6 294.6,338.5 292.7,337.4 290.7,338.5 291.5,336.6 290.0,335.1 291.9,335.1" fill="#ffffff" />
<circle cx="311.0" cy="335.8" r="7.7" fill="#f1c40f" stroke="#e67e22" stroke-width="1.2" /><circle cx="311.0" cy="335.8" r="5.4" fill="none" stroke="#f39c12" stroke-width="1.2" stroke-dasharray="1.5,1.5" /><polygon points="311.0,333.1 311.8,335.1 313.7,335.1 312.2,336.6 312.9,338.5 311.0,337.4 309.1,338.5 309.8,336.6 308.3,335.1 310.2,335.1" fill="#ffffff" />
<circle cx="329.3" cy="335.8" r="7.7" fill="#f1c40f" stroke="#e67e22" stroke-width="1.2" /><circle cx="329.3" cy="335.8" r="5.4" fill="none" stroke="#f39c12" stroke-width="1.2" stroke-dasharray="1.5,1.5" /><polygon points="329.3,333.1 330.1,335.1 332.0,335.1 330.5,336.6 331.3,338.5 329.3,337.4 327.4,338.5 328.2,336.6 326.6,335.1 328.6,335.1" fill="#ffffff" />
<circle cx="347.7" cy="335.8" r="7.7" fill="#f1c40f" stroke="#e67e22" stroke-width="1.2" /><circle cx="347.7" cy="335.8" r="5.4" fill="none" stroke="#f39c12" stroke-width="1.2" stroke-dasharray="1.5,1.5" /><polygon points="347.7,333.1 348.4,335.1 350.4,335.1 348.8,336.6 349.6,338.5 347.7,337.4 345.7,338.5 346.5,336.6 345.0,335.1 346.9,335.1" fill="#ffffff" />
<circle cx="366.0" cy="335.8" r="7.7" fill="#f1c40f" stroke="#e67e22" stroke-width="1.2" /><circle cx="366.0" cy="335.8" r="5.4" fill="none" stroke="#f39c12" stroke-width="1.2" stroke-dasharray="1.5,1.5" /><polygon points="366.0,333.1 366.8,335.1 368.7,335.1 367.2,336.6 367.9,338.5 366.0,337.4 364.1,338.5 364.8,336.6 363.3,335.1 365.2,335.1" fill="#ffffff" />
<circle cx="384.3" cy="335.8" r="7.7" fill="#f1c40f" stroke="#e67e22" stroke-width="1.2" /><circle cx="384.3" cy="335.8" r="5.4" fill="none" stroke="#f39c12" stroke-width="1.2" stroke-dasharray="1.5,1.5" /><polygon points="384.3,333.1 385.1,335.1 387.0,335.1 385.5,336.6 386.3,338.5 384.3,337.4 382.4,338.5 383.2,336.6 381.6,335.1 383.6,335.1" fill="#ffffff" />
<circle cx="127.7" cy="354.2" r="7.7" fill="#f1c40f" stroke="#e67e22" stroke-width="1.2" /><circle cx="127.7" cy="354.2" r="5.4" fill="none" stroke="#f39c12" stroke-width="1.2" stroke-dasharray="1.5,1.5" /><polygon points="127.7,351.5 128.4,353.4 130.4,353.4 128.8,354.9 129.6,356.9 127.7,355.7 125.7,356.9 126.5,354.9 125.0,353.4 126.9,353.4" fill="#ffffff" />
<circle cx="146.0" cy="354.2" r="7.7" fill="#f1c40f" stroke="#e67e22" stroke-width="1.2" /><circle cx="146.0" cy="354.2" r="5.4" fill="none" stroke="#f39c12" stroke-width="1.2" stroke-dasharray="1.5,1.5" /><polygon points="146.0,351.5 146.8,353.4 148.7,353.4 147.2,354.9 147.9,356.9 146.0,355.7 144.1,356.9 144.8,354.9 143.3,353.4 145.2,353.4" fill="#ffffff" />
<circle cx="164.3" cy="354.2" r="7.7" fill="#f1c40f" stroke="#e67e22" stroke-width="1.2" /><circle cx="164.3" cy="354.2" r="5.4" fill="none" stroke="#f39c12" stroke-width="1.2" stroke-dasharray="1.5,1.5" /><polygon points="164.3,351.5 165.1,353.4 167.0,353.4 165.5,354.9 166.3,356.9 164.3,355.7 162.4,356.9 163.2,354.9 161.6,353.4 163.6,353.4" fill="#ffffff" />
<circle cx="182.7" cy="354.2" r="7.7" fill="#f1c40f" stroke="#e67e22" stroke-width="1.2" /><circle cx="182.7" cy="354.2" r="5.4" fill="none" stroke="#f39c12" stroke-width="1.2" stroke-dasharray="1.5,1.5" /><polygon points="182.7,351.5 183.4,353.4 185.4,353.4 183.8,354.9 184.6,356.9 182.7,355.7 180.7,356.9 181.5,354.9 180.0,353.4 181.9,353.4" fill="#ffffff" />
<circle cx="201.0" cy="354.2" r="7.7" fill="#f1c40f" stroke="#e67e22" stroke-width="1.2" /><circle cx="201.0" cy="354.2" r="5.4" fill="none" stroke="#f39c12" stroke-width="1.2" stroke-dasharray="1.5,1.5" /><polygon points="201.0,351.5 201.8,353.4 203.7,353.4 202.2,354.9 202.9,356.9 201.0,355.7 199.1,356.9 199.8,354.9 198.3,353.4 200.2,353.4" fill="#ffffff" />
<circle cx="219.3" cy="354.2" r="7.7" fill="#f1c40f" stroke="#e67e22" stroke-width="1.2" /><circle cx="219.3" cy="354.2" r="5.4" fill="none" stroke="#f39c12" stroke-width="1.2" stroke-dasharray="1.5,1.5" /><polygon points="219.3,351.5 220.1,353.4 222.0,353.4 220.5,354.9 221.3,356.9 219.3,355.7 217.4,356.9 218.2,354.9 216.6,353.4 218.6,353.4" fill="#ffffff" />
<circle cx="237.7" cy="354.2" r="7.7" fill="#f1c40f" stroke="#e67e22" stroke-width="1.2" /><circle cx="237.7" cy="354.2" r="5.4" fill="none" stroke="#f39c12" stroke-width="1.2" stroke-dasharray="1.5,1.5" /><polygon points="237.7,351.5 238.4,353.4 240.4,353.4 238.8,354.9 239.6,356.9 237.7,355.7 235.7,356.9 236.5,354.9 235.0,353.4 236.9,353.4" fill="#ffffff" />
<circle cx="256.0" cy="354.2" r="7.7" fill="#f1c40f" stroke="#e67e22" stroke-width="1.2" /><circle cx="256.0" cy="354.2" r="5.4" fill="none" stroke="#f39c12" stroke-width="1.2" stroke-dasharray="1.5,1.5" /><polygon points="256.0,351.5 256.8,353.4 258.7,353.4 257.2,354.9 257.9,356.9 256.0,355.7 254.1,356.9 254.8,354.9 253.3,353.4 255.2,353.4" fill="#ffffff" />
<circle cx="274.3" cy="354.2" r="7.7" fill="#f1c40f" stroke="#e67e22" stroke-width="1.2" /><circle cx="274.3" cy="354.2" r="5.4" fill="none" stroke="#f39c12" stroke-width="1.2" stroke-dasharray="1.5,1.5" /><polygon points="274.3,351.5 275.1,353.4 277.0,353.4 275.5,354.9 276.3,356.9 274.3,355.7 272.4,356.9 273.2,354.9 271.6,353.4 273.6,353.4" fill="#ffffff" />
<circle cx="292.7" cy="354.2" r="7.7" fill="#f1c40f" stroke="#e67e22" stroke-width="1.2" /><circle cx="292.7" cy="354.2" r="5.4" fill="none" stroke="#f39c12" stroke-width="1.2" stroke-dasharray="1.5,1.5" /><polygon points="292.7,351.5 293.4,353.4 295.4,353.4 293.8,354.9 294.6,356.9 292.7,355.7 290.7,356.9 291.5,354.9 290.0,353.4 291.9,353.4" fill="#ffffff" />
<circle cx="311.0" cy="354.2" r="7.7" fill="#f1c40f" stroke="#e67e22" stroke-width="1.2" /><circle cx="311.0" cy="354.2" r="5.4" fill="none" stroke="#f39c12" stroke-width="1.2" stroke-dasharray="1.5,1.5" /><polygon points="311.0,351.5 311.8,353.4 313.7,353.4 312.2,354.9 312.9,356.9 311.0,355.7 309.1,356.9 309.8,354.9 308.3,353.4 310.2,353.4" fill="#ffffff" />
<circle cx="329.3" cy="354.2" r="7.7" fill="#f1c40f" stroke="#e67e22" stroke-width="1.2" /><circle cx="329.3" cy="354.2" r="5.4" fill="none" stroke="#f39c12" stroke-width="1.2" stroke-dasharray="1.5,1.5" /><polygon points="329.3,351.5 330.1,353.4 332.0,353.4 330.5,354.9 331.3,356.9 329.3,355.7 327.4,356.9 328.2,354.9 326.6,353.4 328.6,353.4" fill="#ffffff" />
<circle cx="347.7" cy="354.2" r="7.7" fill="#f1c40f" stroke="#e67e22" stroke-width="1.2" /><circle cx="347.7" cy="354.2" r="5.4" fill="none" stroke="#f39c12" stroke-width="1.2" stroke-dasharray="1.5,1.5" /><polygon points="347.7,351.5 348.4,353.4 350.4,353.4 348.8,354.9 349.6,356.9 347.7,355.7 345.7,356.9 346.5,354.9 345.0,353.4 346.9,353.4" fill="#ffffff" />
<circle cx="366.0" cy="354.2" r="7.7" fill="#f1c40f" stroke="#e67e22" stroke-width="1.2" /><circle cx="366.0" cy="354.2" r="5.4" fill="none" stroke="#f39c12" stroke-width="1.2" stroke-dasharray="1.5,1.5" /><polygon points="366.0,351.5 366.8,353.4 368.7,353.4 367.2,354.9 367.9,356.9 366.0,355.7 364.1,356.9 364.8,354.9 363.3,353.4 365.2,353.4" fill="#ffffff" />
<circle cx="384.3" cy="354.2" r="7.7" fill="#f1c40f" stroke="#e67e22" stroke-width="1.2" /><circle cx="384.3" cy="354.2" r="5.4" fill="none" stroke="#f39c12" stroke-width="1.2" stroke-dasharray="1.5,1.5" /><polygon points="384.3,351.5 385.1,353.4 387.0,353.4 385.5,354.9 386.3,356.9 384.3,355.7 382.4,356.9 383.2,354.9 381.6,353.4 383.6,353.4" fill="#ffffff" />
<circle cx="127.7" cy="372.5" r="7.7" fill="#f1c40f" stroke="#e67e22" stroke-width="1.2" /><circle cx="127.7" cy="372.5" r="5.4" fill="none" stroke="#f39c12" stroke-width="1.2" stroke-dasharray="1.5,1.5" /><polygon points="127.7,369.8 128.4,371.7 130.4,371.7 128.8,373.3 129.6,375.2 127.7,374.0 125.7,375.2 126.5,373.3 125.0,371.7 126.9,371.7" fill="#ffffff" />
<circle cx="146.0" cy="372.5" r="7.7" fill="#f1c40f" stroke="#e67e22" stroke-width="1.2" /><circle cx="146.0" cy="372.5" r="5.4" fill="none" stroke="#f39c12" stroke-width="1.2" stroke-dasharray="1.5,1.5" /><polygon points="146.0,369.8 146.8,371.7 148.7,371.7 147.2,373.3 147.9,375.2 146.0,374.0 144.1,375.2 144.8,373.3 143.3,371.7 145.2,371.7" fill="#ffffff" />
<circle cx="164.3" cy="372.5" r="7.7" fill="#f1c40f" stroke="#e67e22" stroke-width="1.2" /><circle cx="164.3" cy="372.5" r="5.4" fill="none" stroke="#f39c12" stroke-width="1.2" stroke-dasharray="1.5,1.5" /><polygon points="164.3,369.8 165.1,371.7 167.0,371.7 165.5,373.3 166.3,375.2 164.3,374.0 162.4,375.2 163.2,373.3 161.6,371.7 163.6,371.7" fill="#ffffff" />
<circle cx="182.7" cy="372.5" r="7.7" fill="#f1c40f" stroke="#e67e22" stroke-width="1.2" /><circle cx="182.7" cy="372.5" r="5.4" fill="none" stroke="#f39c12" stroke-width="1.2" stroke-dasharray="1.5,1.5" /><polygon points="182.7,369.8 183.4,371.7 185.4,371.7 183.8,373.3 184.6,375.2 182.7,374.0 180.7,375.2 181.5,373.3 180.0,371.7 181.9,371.7" fill="#ffffff" />
<circle cx="201.0" cy="372.5" r="7.7" fill="#f1c40f" stroke="#e67e22" stroke-width="1.2" /><circle cx="201.0" cy="372.5" r="5.4" fill="none" stroke="#f39c12" stroke-width="1.2" stroke-dasharray="1.5,1.5" /><polygon points="201.0,369.8 201.8,371.7 203.7,371.7 202.2,373.3 202.9,375.2 201.0,374.0 199.1,375.2 199.8,373.3 198.3,371.7 200.2,371.7" fill="#ffffff" />
<circle cx="219.3" cy="372.5" r="7.7" fill="#f1c40f" stroke="#e67e22" stroke-width="1.2" /><circle cx="219.3" cy="372.5" r="5.4" fill="none" stroke="#f39c12" stroke-width="1.2" stroke-dasharray="1.5,1.5" /><polygon points="219.3,369.8 220.1,371.7 222.0,371.7 220.5,373.3 221.3,375.2 219.3,374.0 217.4,375.2 218.2,373.3 216.6,371.7 218.6,371.7" fill="#ffffff" />
<circle cx="237.7" cy="372.5" r="7.7" fill="#f1c40f" stroke="#e67e22" stroke-width="1.2" /><circle cx="237.7" cy="372.5" r="5.4" fill="none" stroke="#f39c12" stroke-width="1.2" stroke-dasharray="1.5,1.5" /><polygon points="237.7,369.8 238.4,371.7 240.4,371.7 238.8,373.3 239.6,375.2 237.7,374.0 235.7,375.2 236.5,373.3 235.0,371.7 236.9,371.7" fill="#ffffff" />
<circle cx="256.0" cy="372.5" r="7.7" fill="#f1c40f" stroke="#e67e22" stroke-width="1.2" /><circle cx="256.0" cy="372.5" r="5.4" fill="none" stroke="#f39c12" stroke-width="1.2" stroke-dasharray="1.5,1.5" /><polygon points="256.0,369.8 256.8,371.7 258.7,371.7 257.2,373.3 257.9,375.2 256.0,374.0 254.1,375.2 254.8,373.3 253.3,371.7 255.2,371.7" fill="#ffffff" />
<circle cx="274.3" cy="372.5" r="7.7" fill="#f1c40f" stroke="#e67e22" stroke-width="1.2" /><circle cx="274.3" cy="372.5" r="5.4" fill="none" stroke="#f39c12" stroke-width="1.2" stroke-dasharray="1.5,1.5" /><polygon points="274.3,369.8 275.1,371.7 277.0,371.7 275.5,373.3 276.3,375.2 274.3,374.0 272.4,375.2 273.2,373.3 271.6,371.7 273.6,371.7" fill="#ffffff" />
<circle cx="292.7" cy="372.5" r="7.7" fill="#f1c40f" stroke="#e67e22" stroke-width="1.2" /><circle cx="292.7" cy="372.5" r="5.4" fill="none" stroke="#f39c12" stroke-width="1.2" stroke-dasharray="1.5,1.5" /><polygon points="292.7,369.8 293.4,371.7 295.4,371.7 293.8,373.3 294.6,375.2 292.7,374.0 290.7,375.2 291.5,373.3 290.0,371.7 291.9,371.7" fill="#ffffff" />
<circle cx="311.0" cy="372.5" r="7.7" fill="#f1c40f" stroke="#e67e22" stroke-width="1.2" /><circle cx="311.0" cy="372.5" r="5.4" fill="none" stroke="#f39c12" stroke-width="1.2" stroke-dasharray="1.5,1.5" /><polygon points="311.0,369.8 311.8,371.7 313.7,371.7 312.2,373.3 312.9,375.2 311.0,374.0 309.1,375.2 309.8,373.3 308.3,371.7 310.2,371.7" fill="#ffffff" />
<circle cx="329.3" cy="372.5" r="7.7" fill="#f1c40f" stroke="#e67e22" stroke-width="1.2" /><circle cx="329.3" cy="372.5" r="5.4" fill="none" stroke="#f39c12" stroke-width="1.2" stroke-dasharray="1.5,1.5" /><polygon points="329.3,369.8 330.1,371.7 332.0,371.7 330.5,373.3 331.3,375.2 329.3,374.0 327.4,375.2 328.2,373.3 326.6,371.7 328.6,371.7" fill="#ffffff" />
<circle cx="347.7" cy="372.5" r="7.7" fill="#f1c40f" stroke="#e67e22" stroke-width="1.2" /><circle cx="347.7" cy="372.5" r="5.4" fill="none" stroke="#f39c12" stroke-width="1.2" stroke-dasharray="1.5,1.5" /><polygon points="347.7,369.8 348.4,371.7 350.4,371.7 348.8,373.3 349.6,375.2 347.7,374.0 345.7,375.2 346.5,373.3 345.0,371.7 346.9,371.7" fill="#ffffff" />
<circle cx="366.0" cy="372.5" r="7.7" fill="#f1c40f" stroke="#e67e22" stroke-width="1.2" /><circle cx="366.0" cy="372.5" r="5.4" fill="none" stroke="#f39c12" stroke-width="1.2" stroke-dasharray="1.5,1.5" /><polygon points="366.0,369.8 366.8,371.7 368.7,371.7 367.2,373.3 367.9,375.2 366.0,374.0 364.1,375.2 364.8,373.3 363.3,371.7 365.2,371.7" fill="#ffffff" />
<circle cx="384.3" cy="372.5" r="7.7" fill="#f1c40f" stroke="#e67e22" stroke-width="1.2" /><circle cx="384.3" cy="372.5" r="5.4" fill="none" stroke="#f39c12" stroke-width="1.2" stroke-dasharray="1.5,1.5" /><polygon points="384.3,369.8 385.1,371.7 387.0,371.7 385.5,373.3 386.3,375.2 384.3,374.0 382.4,375.2 383.2,373.3 381.6,371.7 383.6,371.7" fill="#ffffff" />
<circle cx="127.7" cy="390.8" r="7.7" fill="#f1c40f" stroke="#e67e22" stroke-width="1.2" /><circle cx="127.7" cy="390.8" r="5.4" fill="none" stroke="#f39c12" stroke-width="1.2" stroke-dasharray="1.5,1.5" /><polygon points="127.7,388.1 128.4,390.1 130.4,390.1 128.8,391.6 129.6,393.5 127.7,392.4 125.7,393.5 126.5,391.6 125.0,390.1 126.9,390.1" fill="#ffffff" />
<circle cx="146.0" cy="390.8" r="7.7" fill="#f1c40f" stroke="#e67e22" stroke-width="1.2" /><circle cx="146.0" cy="390.8" r="5.4" fill="none" stroke="#f39c12" stroke-width="1.2" stroke-dasharray="1.5,1.5" /><polygon points="146.0,388.1 146.8,390.1 148.7,390.1 147.2,391.6 147.9,393.5 146.0,392.4 144.1,393.5 144.8,391.6 143.3,390.1 145.2,390.1" fill="#ffffff" />
<circle cx="164.3" cy="390.8" r="7.7" fill="#f1c40f" stroke="#e67e22" stroke-width="1.2" /><circle cx="164.3" cy="390.8" r="5.4" fill="none" stroke="#f39c12" stroke-width="1.2" stroke-dasharray="1.5,1.5" /><polygon points="164.3,388.1 165.1,390.1 167.0,390.1 165.5,391.6 166.3,393.5 164.3,392.4 162.4,393.5 163.2,391.6 161.6,390.1 163.6,390.1" fill="#ffffff" />
<circle cx="182.7" cy="390.8" r="7.7" fill="#f1c40f" stroke="#e67e22" stroke-width="1.2" /><circle cx="182.7" cy="390.8" r="5.4" fill="none" stroke="#f39c12" stroke-width="1.2" stroke-dasharray="1.5,1.5" /><polygon points="182.7,388.1 183.4,390.1 185.4,390.1 183.8,391.6 184.6,393.5 182.7,392.4 180.7,393.5 181.5,391.6 180.0,390.1 181.9,390.1" fill="#ffffff" />
<circle cx="201.0" cy="390.8" r="7.7" fill="#f1c40f" stroke="#e67e22" stroke-width="1.2" /><circle cx="201.0" cy="390.8" r="5.4" fill="none" stroke="#f39c12" stroke-width="1.2" stroke-dasharray="1.5,1.5" /><polygon points="201.0,388.1 201.8,390.1 203.7,390.1 202.2,391.6 202.9,393.5 201.0,392.4 199.1,393.5 199.8,391.6 198.3,390.1 200.2,390.1" fill="#ffffff" />
<circle cx="219.3" cy="390.8" r="7.7" fill="#f1c40f" stroke="#e67e22" stroke-width="1.2" /><circle cx="219.3" cy="390.8" r="5.4" fill="none" stroke="#f39c12" stroke-width="1.2" stroke-dasharray="1.5,1.5" /><polygon points="219.3,388.1 220.1,390.1 222.0,390.1 220.5,391.6 221.3,393.5 219.3,392.4 217.4,393.5 218.2,391.6 216.6,390.1 218.6,390.1" fill="#ffffff" />
<circle cx="237.7" cy="390.8" r="7.7" fill="#f1c40f" stroke="#e67e22" stroke-width="1.2" /><circle cx="237.7" cy="390.8" r="5.4" fill="none" stroke="#f39c12" stroke-width="1.2" stroke-dasharray="1.5,1.5" /><polygon points="237.7,388.1 238.4,390.1 240.4,390.1 238.8,391.6 239.6,393.5 237.7,392.4 235.7,393.5 236.5,391.6 235.0,390.1 236.9,390.1" fill="#ffffff" />
<circle cx="256.0" cy="390.8" r="7.7" fill="#f1c40f" stroke="#e67e22" stroke-width="1.2" /><circle cx="256.0" cy="390.8" r="5.4" fill="none" stroke="#f39c12" stroke-width="1.2" stroke-dasharray="1.5,1.5" /><polygon points="256.0,388.1 256.8,390.1 258.7,390.1 257.2,391.6 257.9,393.5 256.0,392.4 254.1,393.5 254.8,391.6 253.3,390.1 255.2,390.1" fill="#ffffff" />
<circle cx="274.3" cy="390.8" r="7.7" fill="#f1c40f" stroke="#e67e22" stroke-width="1.2" /><circle cx="274.3" cy="390.8" r="5.4" fill="none" stroke="#f39c12" stroke-width="1.2" stroke-dasharray="1.5,1.5" /><polygon points="274.3,388.1 275.1,390.1 277.0,390.1 275.5,391.6 276.3,393.5 274.3,392.4 272.4,393.5 273.2,391.6 271.6,390.1 273.6,390.1" fill="#ffffff" />
<circle cx="292.7" cy="390.8" r="7.7" fill="#f1c40f" stroke="#e67e22" stroke-width="1.2" /><circle cx="292.7" cy="390.8" r="5.4" fill="none" stroke="#f39c12" stroke-width="1.2" stroke-dasharray="1.5,1.5" /><polygon points="292.7,388.1 293.4,390.1 295.4,390.1 293.8,391.6 294.6,393.5 292.7,392.4 290.7,393.5 291.5,391.6 290.0,390.1 291.9,390.1" fill="#ffffff" />
<circle cx="311.0" cy="390.8" r="7.7" fill="#f1c40f" stroke="#e67e22" stroke-width="1.2" /><circle cx="311.0" cy="390.8" r="5.4" fill="none" stroke="#f39c12" stroke-width="1.2" stroke-dasharray="1.5,1.5" /><polygon points="311.0,388.1 311.8,390.1 313.7,390.1 312.2,391.6 312.9,393.5 311.0,392.4 309.1,393.5 309.8,391.6 308.3,390.1 310.2,390.1" fill="#ffffff" />
<circle cx="329.3" cy="390.8" r="7.7" fill="#f1c40f" stroke="#e67e22" stroke-width="1.2" /><circle cx="329.3" cy="390.8" r="5.4" fill="none" stroke="#f39c12" stroke-width="1.2" stroke-dasharray="1.5,1.5" /><polygon points="329.3,388.1 330.1,390.1 332.0,390.1 330.5,391.6 331.3,393.5 329.3,392.4 327.4,393.5 328.2,391.6 326.6,390.1 328.6,390.1" fill="#ffffff" />
<circle cx="347.7" cy="390.8" r="7.7" fill="#f1c40f" stroke="#e67e22" stroke-width="1.2" /><circle cx="347.7" cy="390.8" r="5.4" fill="none" stroke="#f39c12" stroke-width="1.2" stroke-dasharray="1.5,1.5" /><polygon points="347.7,388.1 348.4,390.1 350.4,390.1 348.8,391.6 349.6,393.5 347.7,392.4 345.7,393.5 346.5,391.6 345.0,390.1 346.9,390.1" fill="#ffffff" />
  </g>

  <!-- Bottom Banner -->
  <g filter="url(#shadow-88)">
    <rect x="96" y="420" width="320" height="54" rx="27" fill="#FFF" stroke="#eac6e2" stroke-width="4" />
    <text x="256" y="455" 
          text-anchor="middle" 
          font-size="28" 
          font-weight="900" 
          font-family="Comic Sans MS, Arial Rounded MT Bold, sans-serif" 
          fill="#7C5730">88 - Eighty Eight</text>
  </g>
</svg>