<svg xmlns="http://www.w3.org/2000/svg" viewBox="0 0 512 512" width="100%" height="100%">
  <defs>
    <!-- Background Gradient -->
    <linearGradient id="bg-89" x1="0%" y1="0%" x2="0%" y2="100%">
      <stop offset="0%" stop-color="#fff9fd" />
      <stop offset="100%" stop-color="#ffeffa" />
    </linearGradient>

    <!-- Front Face Gradient -->
    <linearGradient id="front-89" x1="0%" y1="0%" x2="0%" y2="100%">
      <stop offset="0%" stop-color="#ff89df" />
      <stop offset="100%" stop-color="#f400b3" />
    </linearGradient>

    <!-- 3D Side/Extrusion Color -->
    <linearGradient id="side-89" x1="0%" y1="0%" x2="0%" y2="100%">
      <stop offset="0%" stop-color="#c1008e" />
      <stop offset="100%" stop-color="#8e0068" />
    </linearGradient>

    <!-- Leaf Sprout Gradient -->
    <linearGradient id="leaf-89" x1="0%" y1="0%" x2="100%" y2="100%">
      <stop offset="0%" stop-color="#7BED9F" />
      <stop offset="100%" stop-color="#2ED573" />
    </linearGradient>

    <!-- 3D Base Shadow -->
    <filter id="shadow-89">
      <feDropShadow dx="0" dy="10" stdDeviation="8" flood-color="#000000" flood-opacity="0.25" />
    </filter>
  </defs>

  <!-- Background -->
  <circle cx="256" cy="256" r="236" fill="url(#bg-89)" stroke="#eac6e1" stroke-width="6" />

  <!-- Sparkles -->
  <g fill="#FFD43B">
    <circle cx="100" cy="130" r="8" />
    <circle cx="400" cy="120" r="10" />
    <circle cx="430" cy="330" r="7" />
  </g>

  <!-- Number -->
  <g filter="url(#shadow-89)">
    <!-- Side -->
    <text x="256" y="215" 
          text-anchor="middle" 
          font-size="180" 
          font-weight="900" 
          font-family="Comic Sans MS, Arial Rounded MT Bold, sans-serif" 
          fill="url(#side-89)" 
          stroke="url(#side-89)" 
          stroke-width="18" 
          transform="translate(0, 12)">89</text>

    <!-- Front -->
    <text x="256" y="215" 
          text-anchor="middle" 
          font-size="180" 
          font-weight="900" 
          font-family="Comic Sans MS, Arial Rounded MT Bold, sans-serif" 
          fill="url(#front-89)" 
          stroke="url(#front-89)" 
          stroke-width="18">89</text>
  </g>

  <!-- Cute Sprout -->
  <g transform="translate(256 65)">
    <path d="M0 0 Q-4 -15 -8 -24" stroke="#8B5A2B" stroke-width="5" fill="none" />
    <path d="M-8 -24 C-28 -28 -30 -5 -10 0 Z" fill="url(#leaf-89)" />
    <path d="M-8 -24 C5 -35 22 -20 5 -5 Z" fill="url(#leaf-89)" />
  </g>

  <!-- Eyes -->
  <g>
    <circle cx="215" cy="180" r="18" fill="#222" />
    <circle cx="208" cy="172" r="6" fill="#FFF" />

    <circle cx="297" cy="180" r="18" fill="#222" />
    <circle cx="290" cy="172" r="6" fill="#FFF" />
  </g>

  <!-- Cheeks -->
  <ellipse cx="185" cy="210" rx="18" ry="12" fill="#FF6B81" opacity="0.45" />
  <ellipse cx="327" cy="210" rx="18" ry="12" fill="#FF6B81" opacity="0.45" />

  <!-- Smile -->
  <path d="M225 225 Q256 255 287 225" stroke="#7A1022" stroke-width="8" fill="none" stroke-linecap="round" />

  <!-- Counting Object -->
  <g>
    <circle cx="125.0" cy="301.9" r="3.5" fill="#d63031" /><circle cx="130.4" cy="301.9" r="3.5" fill="#d63031" /><path d="M 125.0 301.9 Q 127.7 295.3 127.7 293.8 Q 127.7 295.3 130.4 301.9" stroke="#8B5A2B" stroke-width="1.5" fill="none" stroke-linecap="round" />
<circle cx="143.3" cy="301.9" r="3.5" fill="#d63031" /><circle cx="148.7" cy="301.9" r="3.5" fill="#d63031" /><path d="M 143.3 301.9 Q 146.0 295.3 146.0 293.8 Q 146.0 295.3 148.7 301.9" stroke="#8B5A2B" stroke-width="1.5" fill="none" stroke-linecap="round" />
<circle cx="161.6" cy="301.9" r="3.5" fill="#d63031" /><circle cx="167.0" cy="301.9" r="3.5" fill="#d63031" /><path d="M 161.6 301.9 Q 164.3 295.3 164.3 293.8 Q 164.3 295.3 167.0 301.9" stroke="#8B5A2B" stroke-width="1.5" fill="none" stroke-linecap="round" />
<circle cx="180.0" cy="301.9" r="3.5" fill="#d63031" /><circle cx="185.4" cy="301.9" r="3.5" fill="#d63031" /><path d="M 180.0 301.9 Q 182.7 295.3 182.7 293.8 Q 182.7 295.3 185.4 301.9" stroke="#8B5A2B" stroke-width="1.5" fill="none" stroke-linecap="round" />
<circle cx="198.3" cy="301.9" r="3.5" fill="#d63031" /><circle cx="203.7" cy="301.9" r="3.5" fill="#d63031" /><path d="M 198.3 301.9 Q 201.0 295.3 201.0 293.8 Q 201.0 295.3 203.7 301.9" stroke="#8B5A2B" stroke-width="1.5" fill="none" stroke-linecap="round" />
<circle cx="216.6" cy="301.9" r="3.5" fill="#d63031" /><circle cx="222.0" cy="301.9" r="3.5" fill="#d63031" /><path d="M 216.6 301.9 Q 219.3 295.3 219.3 293.8 Q 219.3 295.3 222.0 301.9" stroke="#8B5A2B" stroke-width="1.5" fill="none" stroke-linecap="round" />
<circle cx="235.0" cy="301.9" r="3.5" fill="#d63031" /><circle cx="240.4" cy="301.9" r="3.5" fill="#d63031" /><path d="M 235.0 301.9 Q 237.7 295.3 237.7 293.8 Q 237.7 295.3 240.4 301.9" stroke="#8B5A2B" stroke-width="1.5" fill="none" stroke-linecap="round" />
<circle cx="253.3" cy="301.9" r="3.5" fill="#d63031" /><circle cx="258.7" cy="301.9" r="3.5" fill="#d63031" /><path d="M 253.3 301.9 Q 256.0 295.3 256.0 293.8 Q 256.0 295.3 258.7 301.9" stroke="#8B5A2B" stroke-width="1.5" fill="none" stroke-linecap="round" />
<circle cx="271.6" cy="301.9" r="3.5" fill="#d63031" /><circle cx="277.0" cy="301.9" r="3.5" fill="#d63031" /><path d="M 271.6 301.9 Q 274.3 295.3 274.3 293.8 Q 274.3 295.3 277.0 301.9" stroke="#8B5A2B" stroke-width="1.5" fill="none" stroke-linecap="round" />
<circle cx="290.0" cy="301.9" r="3.5" fill="#d63031" /><circle cx="295.4" cy="301.9" r="3.5" fill="#d63031" /><path d="M 290.0 301.9 Q 292.7 295.3 292.7 293.8 Q 292.7 295.3 295.4 301.9" stroke="#8B5A2B" stroke-width="1.5" fill="none" stroke-linecap="round" />
<circle cx="308.3" cy="301.9" r="3.5" fill="#d63031" /><circle cx="313.7" cy="301.9" r="3.5" fill="#d63031" /><path d="M 308.3 301.9 Q 311.0 295.3 311.0 293.8 Q 311.0 295.3 313.7 301.9" stroke="#8B5A2B" stroke-width="1.5" fill="none" stroke-linecap="round" />
<circle cx="326.6" cy="301.9" r="3.5" fill="#d63031" /><circle cx="332.0" cy="301.9" r="3.5" fill="#d63031" /><path d="M 326.6 301.9 Q 329.3 295.3 329.3 293.8 Q 329.3 295.3 332.0 301.9" stroke="#8B5A2B" stroke-width="1.5" fill="none" stroke-linecap="round" />
<circle cx="345.0" cy="301.9" r="3.5" fill="#d63031" /><circle cx="350.4" cy="301.9" r="3.5" fill="#d63031" /><path d="M 345.0 301.9 Q 347.7 295.3 347.7 293.8 Q 347.7 295.3 350.4 301.9" stroke="#8B5A2B" stroke-width="1.5" fill="none" stroke-linecap="round" />
<circle cx="363.3" cy="301.9" r="3.5" fill="#d63031" /><circle cx="368.7" cy="301.9" r="3.5" fill="#d63031" /><path d="M 363.3 301.9 Q 366.0 295.3 366.0 293.8 Q 366.0 295.3 368.7 301.9" stroke="#8B5A2B" stroke-width="1.5" fill="none" stroke-linecap="round" />
<circle cx="381.6" cy="301.9" r="3.5" fill="#d63031" /><circle cx="387.0" cy="301.9" r="3.5" fill="#d63031" /><path d="M 381.6 301.9 Q 384.3 295.3 384.3 293.8 Q 384.3 295.3 387.0 301.9" stroke="#8B5A2B" stroke-width="1.5" fill="none" stroke-linecap="round" />
<circle cx="125.0" cy="320.2" r="3.5" fill="#d63031" /><circle cx="130.4" cy="320.2" r="3.5" fill="#d63031" /><path d="M 125.0 320.2 Q 127.7 313.6 127.7 312.1 Q 127.7 313.6 130.4 320.2" stroke="#8B5A2B" stroke-width="1.5" fill="none" stroke-linecap="round" />
<circle cx="143.3" cy="320.2" r="3.5" fill="#d63031" /><circle cx="148.7" cy="320.2" r="3.5" fill="#d63031" /><path d="M 143.3 320.2 Q 146.0 313.6 146.0 312.1 Q 146.0 313.6 148.7 320.2" stroke="#8B5A2B" stroke-width="1.5" fill="none" stroke-linecap="round" />
<circle cx="161.6" cy="320.2" r="3.5" fill="#d63031" /><circle cx="167.0" cy="320.2" r="3.5" fill="#d63031" /><path d="M 161.6 320.2 Q 164.3 313.6 164.3 312.1 Q 164.3 313.6 167.0 320.2" stroke="#8B5A2B" stroke-width="1.5" fill="none" stroke-linecap="round" />
<circle cx="180.0" cy="320.2" r="3.5" fill="#d63031" /><circle cx="185.4" cy="320.2" r="3.5" fill="#d63031" /><path d="M 180.0 320.2 Q 182.7 313.6 182.7 312.1 Q 182.7 313.6 185.4 320.2" stroke="#8B5A2B" stroke-width="1.5" fill="none" stroke-linecap="round" />
<circle cx="198.3" cy="320.2" r="3.5" fill="#d63031" /><circle cx="203.7" cy="320.2" r="3.5" fill="#d63031" /><path d="M 198.3 320.2 Q 201.0 313.6 201.0 312.1 Q 201.0 313.6 203.7 320.2" stroke="#8B5A2B" stroke-width="1.5" fill="none" stroke-linecap="round" />
<circle cx="216.6" cy="320.2" r="3.5" fill="#d63031" /><circle cx="222.0" cy="320.2" r="3.5" fill="#d63031" /><path d="M 216.6 320.2 Q 219.3 313.6 219.3 312.1 Q 219.3 313.6 222.0 320.2" stroke="#8B5A2B" stroke-width="1.5" fill="none" stroke-linecap="round" />
<circle cx="235.0" cy="320.2" r="3.5" fill="#d63031" /><circle cx="240.4" cy="320.2" r="3.5" fill="#d63031" /><path d="M 235.0 320.2 Q 237.7 313.6 237.7 312.1 Q 237.7 313.6 240.4 320.2" stroke="#8B5A2B" stroke-width="1.5" fill="none" stroke-linecap="round" />
<circle cx="253.3" cy="320.2" r="3.5" fill="#d63031" /><circle cx="258.7" cy="320.2" r="3.5" fill="#d63031" /><path d="M 253.3 320.2 Q 256.0 313.6 256.0 312.1 Q 256.0 313.6 258.7 320.2" stroke="#8B5A2B" stroke-width="1.5" fill="none" stroke-linecap="round" />
<circle cx="271.6" cy="320.2" r="3.5" fill="#d63031" /><circle cx="277.0" cy="320.2" r="3.5" fill="#d63031" /><path d="M 271.6 320.2 Q 274.3 313.6 274.3 312.1 Q 274.3 313.6 277.0 320.2" stroke="#8B5A2B" stroke-width="1.5" fill="none" stroke-linecap="round" />
<circle cx="290.0" cy="320.2" r="3.5" fill="#d63031" /><circle cx="295.4" cy="320.2" r="3.5" fill="#d63031" /><path d="M 290.0 320.2 Q 292.7 313.6 292.7 312.1 Q 292.7 313.6 295.4 320.2" stroke="#8B5A2B" stroke-width="1.5" fill="none" stroke-linecap="round" />
<circle cx="308.3" cy="320.2" r="3.5" fill="#d63031" /><circle cx="313.7" cy="320.2" r="3.5" fill="#d63031" /><path d="M 308.3 320.2 Q 311.0 313.6 311.0 312.1 Q 311.0 313.6 313.7 320.2" stroke="#8B5A2B" stroke-width="1.5" fill="none" stroke-linecap="round" />
<circle cx="326.6" cy="320.2" r="3.5" fill="#d63031" /><circle cx="332.0" cy="320.2" r="3.5" fill="#d63031" /><path d="M 326.6 320.2 Q 329.3 313.6 329.3 312.1 Q 329.3 313.6 332.0 320.2" stroke="#8B5A2B" stroke-width="1.5" fill="none" stroke-linecap="round" />
<circle cx="345.0" cy="320.2" r="3.5" fill="#d63031" /><circle cx="350.4" cy="320.2" r="3.5" fill="#d63031" /><path d="M 345.0 320.2 Q 347.7 313.6 347.7 312.1 Q 347.7 313.6 350.4 320.2" stroke="#8B5A2B" stroke-width="1.5" fill="none" stroke-linecap="round" />
<circle cx="363.3" cy="320.2" r="3.5" fill="#d63031" /><circle cx="368.7" cy="320.2" r="3.5" fill="#d63031" /><path d="M 363.3 320.2 Q 366.0 313.6 366.0 312.1 Q 366.0 313.6 368.7 320.2" stroke="#8B5A2B" stroke-width="1.5" fill="none" stroke-linecap="round" />
<circle cx="381.6" cy="320.2" r="3.5" fill="#d63031" /><circle cx="387.0" cy="320.2" r="3.5" fill="#d63031" /><path d="M 381.6 320.2 Q 384.3 313.6 384.3 312.1 Q 384.3 313.6 387.0 320.2" stroke="#8B5A2B" stroke-width="1.5" fill="none" stroke-linecap="round" />
<circle cx="125.0" cy="338.5" r="3.5" fill="#d63031" /><circle cx="130.4" cy="338.5" r="3.5" fill="#d63031" /><path d="M 125.0 338.5 Q 127.7 332.0 127.7 330.4 Q 127.7 332.0 130.4 338.5" stroke="#8B5A2B" stroke-width="1.5" fill="none" stroke-linecap="round" />
<circle cx="143.3" cy="338.5" r="3.5" fill="#d63031" /><circle cx="148.7" cy="338.5" r="3.5" fill="#d63031" /><path d="M 143.3 338.5 Q 146.0 332.0 146.0 330.4 Q 146.0 332.0 148.7 338.5" stroke="#8B5A2B" stroke-width="1.5" fill="none" stroke-linecap="round" />
<circle cx="161.6" cy="338.5" r="3.5" fill="#d63031" /><circle cx="167.0" cy="338.5" r="3.5" fill="#d63031" /><path d="M 161.6 338.5 Q 164.3 332.0 164.3 330.4 Q 164.3 332.0 167.0 338.5" stroke="#8B5A2B" stroke-width="1.5" fill="none" stroke-linecap="round" />
<circle cx="180.0" cy="338.5" r="3.5" fill="#d63031" /><circle cx="185.4" cy="338.5" r="3.5" fill="#d63031" /><path d="M 180.0 338.5 Q 182.7 332.0 182.7 330.4 Q 182.7 332.0 185.4 338.5" stroke="#8B5A2B" stroke-width="1.5" fill="none" stroke-linecap="round" />
<circle cx="198.3" cy="338.5" r="3.5" fill="#d63031" /><circle cx="203.7" cy="338.5" r="3.5" fill="#d63031" /><path d="M 198.3 338.5 Q 201.0 332.0 201.0 330.4 Q 201.0 332.0 203.7 338.5" stroke="#8B5A2B" stroke-width="1.5" fill="none" stroke-linecap="round" />
<circle cx="216.6" cy="338.5" r="3.5" fill="#d63031" /><circle cx="222.0" cy="338.5" r="3.5" fill="#d63031" /><path d="M 216.6 338.5 Q 219.3 332.0 219.3 330.4 Q 219.3 332.0 222.0 338.5" stroke="#8B5A2B" stroke-width="1.5" fill="none" stroke-linecap="round" />
<circle cx="235.0" cy="338.5" r="3.5" fill="#d63031" /><circle cx="240.4" cy="338.5" r="3.5" fill="#d63031" /><path d="M 235.0 338.5 Q 237.7 332.0 237.7 330.4 Q 237.7 332.0 240.4 338.5" stroke="#8B5A2B" stroke-width="1.5" fill="none" stroke-linecap="round" />
<circle cx="253.3" cy="338.5" r="3.5" fill="#d63031" /><circle cx="258.7" cy="338.5" r="3.5" fill="#d63031" /><path d="M 253.3 338.5 Q 256.0 332.0 256.0 330.4 Q 256.0 332.0 258.7 338.5" stroke="#8B5A2B" stroke-width="1.5" fill="none" stroke-linecap="round" />
<circle cx="271.6" cy="338.5" r="3.5" fill="#d63031" /><circle cx="277.0" cy="338.5" r="3.5" fill="#d63031" /><path d="M 271.6 338.5 Q 274.3 332.0 274.3 330.4 Q 274.3 332.0 277.0 338.5" stroke="#8B5A2B" stroke-width="1.5" fill="none" stroke-linecap="round" />
<circle cx="290.0" cy="338.5" r="3.5" fill="#d63031" /><circle cx="295.4" cy="338.5" r="3.5" fill="#d63031" /><path d="M 290.0 338.5 Q 292.7 332.0 292.7 330.4 Q 292.7 332.0 295.4 338.5" stroke="#8B5A2B" stroke-width="1.5" fill="none" stroke-linecap="round" />
<circle cx="308.3" cy="338.5" r="3.5" fill="#d63031" /><circle cx="313.7" cy="338.5" r="3.5" fill="#d63031" /><path d="M 308.3 338.5 Q 311.0 332.0 311.0 330.4 Q 311.0 332.0 313.7 338.5" stroke="#8B5A2B" stroke-width="1.5" fill="none" stroke-linecap="round" />
<circle cx="326.6" cy="338.5" r="3.5" fill="#d63031" /><circle cx="332.0" cy="338.5" r="3.5" fill="#d63031" /><path d="M 326.6 338.5 Q 329.3 332.0 329.3 330.4 Q 329.3 332.0 332.0 338.5" stroke="#8B5A2B" stroke-width="1.5" fill="none" stroke-linecap="round" />
<circle cx="345.0" cy="338.5" r="3.5" fill="#d63031" /><circle cx="350.4" cy="338.5" r="3.5" fill="#d63031" /><path d="M 345.0 338.5 Q 347.7 332.0 347.7 330.4 Q 347.7 332.0 350.4 338.5" stroke="#8B5A2B" stroke-width="1.5" fill="none" stroke-linecap="round" />
<circle cx="363.3" cy="338.5" r="3.5" fill="#d63031" /><circle cx="368.7" cy="338.5" r="3.5" fill="#d63031" /><path d="M 363.3 338.5 Q 366.0 332.0 366.0 330.4 Q 366.0 332.0 368.7 338.5" stroke="#8B5A2B" stroke-width="1.5" fill="none" stroke-linecap="round" />
<circle cx="381.6" cy="338.5" r="3.5" fill="#d63031" /><circle cx="387.0" cy="338.5" r="3.5" fill="#d63031" /><path d="M 381.6 338.5 Q 384.3 332.0 384.3 330.4 Q 384.3 332.0 387.0 338.5" stroke="#8B5A2B" stroke-width="1.5" fill="none" stroke-linecap="round" />
<circle cx="125.0" cy="356.9" r="3.5" fill="#d63031" /><circle cx="130.4" cy="356.9" r="3.5" fill="#d63031" /><path d="M 125.0 356.9 Q 127.7 350.3 127.7 348.8 Q 127.7 350.3 130.4 356.9" stroke="#8B5A2B" stroke-width="1.5" fill="none" stroke-linecap="round" />
<circle cx="143.3" cy="356.9" r="3.5" fill="#d63031" /><circle cx="148.7" cy="356.9" r="3.5" fill="#d63031" /><path d="M 143.3 356.9 Q 146.0 350.3 146.0 348.8 Q 146.0 350.3 148.7 356.9" stroke="#8B5A2B" stroke-width="1.5" fill="none" stroke-linecap="round" />
<circle cx="161.6" cy="356.9" r="3.5" fill="#d63031" /><circle cx="167.0" cy="356.9" r="3.5" fill="#d63031" /><path d="M 161.6 356.9 Q 164.3 350.3 164.3 348.8 Q 164.3 350.3 167.0 356.9" stroke="#8B5A2B" stroke-width="1.5" fill="none" stroke-linecap="round" />
<circle cx="180.0" cy="356.9" r="3.5" fill="#d63031" /><circle cx="185.4" cy="356.9" r="3.5" fill="#d63031" /><path d="M 180.0 356.9 Q 182.7 350.3 182.7 348.8 Q 182.7 350.3 185.4 356.9" stroke="#8B5A2B" stroke-width="1.5" fill="none" stroke-linecap="round" />
<circle cx="198.3" cy="356.9" r="3.5" fill="#d63031" /><circle cx="203.7" cy="356.9" r="3.5" fill="#d63031" /><path d="M 198.3 356.9 Q 201.0 350.3 201.0 348.8 Q 201.0 350.3 203.7 356.9" stroke="#8B5A2B" stroke-width="1.5" fill="none" stroke-linecap="round" />
<circle cx="216.6" cy="356.9" r="3.5" fill="#d63031" /><circle cx="222.0" cy="356.9" r="3.5" fill="#d63031" /><path d="M 216.6 356.9 Q 219.3 350.3 219.3 348.8 Q 219.3 350.3 222.0 356.9" stroke="#8B5A2B" stroke-width="1.5" fill="none" stroke-linecap="round" />
<circle cx="235.0" cy="356.9" r="3.5" fill="#d63031" /><circle cx="240.4" cy="356.9" r="3.5" fill="#d63031" /><path d="M 235.0 356.9 Q 237.7 350.3 237.7 348.8 Q 237.7 350.3 240.4 356.9" stroke="#8B5A2B" stroke-width="1.5" fill="none" stroke-linecap="round" />
<circle cx="253.3" cy="356.9" r="3.5" fill="#d63031" /><circle cx="258.7" cy="356.9" r="3.5" fill="#d63031" /><path d="M 253.3 356.9 Q 256.0 350.3 256.0 348.8 Q 256.0 350.3 258.7 356.9" stroke="#8B5A2B" stroke-width="1.5" fill="none" stroke-linecap="round" />
<circle cx="271.6" cy="356.9" r="3.5" fill="#d63031" /><circle cx="277.0" cy="356.9" r="3.5" fill="#d63031" /><path d="M 271.6 356.9 Q 274.3 350.3 274.3 348.8 Q 274.3 350.3 277.0 356.9" stroke="#8B5A2B" stroke-width="1.5" fill="none" stroke-linecap="round" />
<circle cx="290.0" cy="356.9" r="3.5" fill="#d63031" /><circle cx="295.4" cy="356.9" r="3.5" fill="#d63031" /><path d="M 290.0 356.9 Q 292.7 350.3 292.7 348.8 Q 292.7 350.3 295.4 356.9" stroke="#8B5A2B" stroke-width="1.5" fill="none" stroke-linecap="round" />
<circle cx="308.3" cy="356.9" r="3.5" fill="#d63031" /><circle cx="313.7" cy="356.9" r="3.5" fill="#d63031" /><path d="M 308.3 356.9 Q 311.0 350.3 311.0 348.8 Q 311.0 350.3 313.7 356.9" stroke="#8B5A2B" stroke-width="1.5" fill="none" stroke-linecap="round" />
<circle cx="326.6" cy="356.9" r="3.5" fill="#d63031" /><circle cx="332.0" cy="356.9" r="3.5" fill="#d63031" /><path d="M 326.6 356.9 Q 329.3 350.3 329.3 348.8 Q 329.3 350.3 332.0 356.9" stroke="#8B5A2B" stroke-width="1.5" fill="none" stroke-linecap="round" />
<circle cx="345.0" cy="356.9" r="3.5" fill="#d63031" /><circle cx="350.4" cy="356.9" r="3.5" fill="#d63031" /><path d="M 345.0 356.9 Q 347.7 350.3 347.7 348.8 Q 347.7 350.3 350.4 356.9" stroke="#8B5A2B" stroke-width="1.5" fill="none" stroke-linecap="round" />
<circle cx="363.3" cy="356.9" r="3.5" fill="#d63031" /><circle cx="368.7" cy="356.9" r="3.5" fill="#d63031" /><path d="M 363.3 356.9 Q 366.0 350.3 366.0 348.8 Q 366.0 350.3 368.7 356.9" stroke="#8B5A2B" stroke-width="1.5" fill="none" stroke-linecap="round" />
<circle cx="381.6" cy="356.9" r="3.5" fill="#d63031" /><circle cx="387.0" cy="356.9" r="3.5" fill="#d63031" /><path d="M 381.6 356.9 Q 384.3 350.3 384.3 348.8 Q 384.3 350.3 387.0 356.9" stroke="#8B5A2B" stroke-width="1.5" fill="none" stroke-linecap="round" />
<circle cx="125.0" cy="375.2" r="3.5" fill="#d63031" /><circle cx="130.4" cy="375.2" r="3.5" fill="#d63031" /><path d="M 125.0 375.2 Q 127.7 368.6 127.7 367.1 Q 127.7 368.6 130.4 375.2" stroke="#8B5A2B" stroke-width="1.5" fill="none" stroke-linecap="round" />
<circle cx="143.3" cy="375.2" r="3.5" fill="#d63031" /><circle cx="148.7" cy="375.2" r="3.5" fill="#d63031" /><path d="M 143.3 375.2 Q 146.0 368.6 146.0 367.1 Q 146.0 368.6 148.7 375.2" stroke="#8B5A2B" stroke-width="1.5" fill="none" stroke-linecap="round" />
<circle cx="161.6" cy="375.2" r="3.5" fill="#d63031" /><circle cx="167.0" cy="375.2" r="3.5" fill="#d63031" /><path d="M 161.6 375.2 Q 164.3 368.6 164.3 367.1 Q 164.3 368.6 167.0 375.2" stroke="#8B5A2B" stroke-width="1.5" fill="none" stroke-linecap="round" />
<circle cx="180.0" cy="375.2" r="3.5" fill="#d63031" /><circle cx="185.4" cy="375.2" r="3.5" fill="#d63031" /><path d="M 180.0 375.2 Q 182.7 368.6 182.7 367.1 Q 182.7 368.6 185.4 375.2" stroke="#8B5A2B" stroke-width="1.5" fill="none" stroke-linecap="round" />
<circle cx="198.3" cy="375.2" r="3.5" fill="#d63031" /><circle cx="203.7" cy="375.2" r="3.5" fill="#d63031" /><path d="M 198.3 375.2 Q 201.0 368.6 201.0 367.1 Q 201.0 368.6 203.7 375.2" stroke="#8B5A2B" stroke-width="1.5" fill="none" stroke-linecap="round" />
<circle cx="216.6" cy="375.2" r="3.5" fill="#d63031" /><circle cx="222.0" cy="375.2" r="3.5" fill="#d63031" /><path d="M 216.6 375.2 Q 219.3 368.6 219.3 367.1 Q 219.3 368.6 222.0 375.2" stroke="#8B5A2B" stroke-width="1.5" fill="none" stroke-linecap="round" />
<circle cx="235.0" cy="375.2" r="3.5" fill="#d63031" /><circle cx="240.4" cy="375.2" r="3.5" fill="#d63031" /><path d="M 235.0 375.2 Q 237.7 368.6 237.7 367.1 Q 237.7 368.6 240.4 375.2" stroke="#8B5A2B" stroke-width="1.5" fill="none" stroke-linecap="round" />
<circle cx="253.3" cy="375.2" r="3.5" fill="#d63031" /><circle cx="258.7" cy="375.2" r="3.5" fill="#d63031" /><path d="M 253.3 375.2 Q 256.0 368.6 256.0 367.1 Q 256.0 368.6 258.7 375.2" stroke="#8B5A2B" stroke-width="1.5" fill="none" stroke-linecap="round" />
<circle cx="271.6" cy="375.2" r="3.5" fill="#d63031" /><circle cx="277.0" cy="375.2" r="3.5" fill="#d63031" /><path d="M 271.6 375.2 Q 274.3 368.6 274.3 367.1 Q 274.3 368.6 277.0 375.2" stroke="#8B5A2B" stroke-width="1.5" fill="none" stroke-linecap="round" />
<circle cx="290.0" cy="375.2" r="3.5" fill="#d63031" /><circle cx="295.4" cy="375.2" r="3.5" fill="#d63031" /><path d="M 290.0 375.2 Q 292.7 368.6 292.7 367.1 Q 292.7 368.6 295.4 375.2" stroke="#8B5A2B" stroke-width="1.5" fill="none" stroke-linecap="round" />
<circle cx="308.3" cy="375.2" r="3.5" fill="#d63031" /><circle cx="313.7" cy="375.2" r="3.5" fill="#d63031" /><path d="M 308.3 375.2 Q 311.0 368.6 311.0 367.1 Q 311.0 368.6 313.7 375.2" stroke="#8B5A2B" stroke-width="1.5" fill="none" stroke-linecap="round" />
<circle cx="326.6" cy="375.2" r="3.5" fill="#d63031" /><circle cx="332.0" cy="375.2" r="3.5" fill="#d63031" /><path d="M 326.6 375.2 Q 329.3 368.6 329.3 367.1 Q 329.3 368.6 332.0 375.2" stroke="#8B5A2B" stroke-width="1.5" fill="none" stroke-linecap="round" />
<circle cx="345.0" cy="375.2" r="3.5" fill="#d63031" /><circle cx="350.4" cy="375.2" r="3.5" fill="#d63031" /><path d="M 345.0 375.2 Q 347.7 368.6 347.7 367.1 Q 347.7 368.6 350.4 375.2" stroke="#8B5A2B" stroke-width="1.5" fill="none" stroke-linecap="round" />
<circle cx="363.3" cy="375.2" r="3.5" fill="#d63031" /><circle cx="368.7" cy="375.2" r="3.5" fill="#d63031" /><path d="M 363.3 375.2 Q 366.0 368.6 366.0 367.1 Q 366.0 368.6 368.7 375.2" stroke="#8B5A2B" stroke-width="1.5" fill="none" stroke-linecap="round" />
<circle cx="381.6" cy="375.2" r="3.5" fill="#d63031" /><circle cx="387.0" cy="375.2" r="3.5" fill="#d63031" /><path d="M 381.6 375.2 Q 384.3 368.6 384.3 367.1 Q 384.3 368.6 387.0 375.2" stroke="#8B5A2B" stroke-width="1.5" fill="none" stroke-linecap="round" />
<circle cx="125.0" cy="393.5" r="3.5" fill="#d63031" /><circle cx="130.4" cy="393.5" r="3.5" fill="#d63031" /><path d="M 125.0 393.5 Q 127.7 387.0 127.7 385.4 Q 127.7 387.0 130.4 393.5" stroke="#8B5A2B" stroke-width="1.5" fill="none" stroke-linecap="round" />
<circle cx="143.3" cy="393.5" r="3.5" fill="#d63031" /><circle cx="148.7" cy="393.5" r="3.5" fill="#d63031" /><path d="M 143.3 393.5 Q 146.0 387.0 146.0 385.4 Q 146.0 387.0 148.7 393.5" stroke="#8B5A2B" stroke-width="1.5" fill="none" stroke-linecap="round" />
<circle cx="161.6" cy="393.5" r="3.5" fill="#d63031" /><circle cx="167.0" cy="393.5" r="3.5" fill="#d63031" /><path d="M 161.6 393.5 Q 164.3 387.0 164.3 385.4 Q 164.3 387.0 167.0 393.5" stroke="#8B5A2B" stroke-width="1.5" fill="none" stroke-linecap="round" />
<circle cx="180.0" cy="393.5" r="3.5" fill="#d63031" /><circle cx="185.4" cy="393.5" r="3.5" fill="#d63031" /><path d="M 180.0 393.5 Q 182.7 387.0 182.7 385.4 Q 182.7 387.0 185.4 393.5" stroke="#8B5A2B" stroke-width="1.5" fill="none" stroke-linecap="round" />
<circle cx="198.3" cy="393.5" r="3.5" fill="#d63031" /><circle cx="203.7" cy="393.5" r="3.5" fill="#d63031" /><path d="M 198.3 393.5 Q 201.0 387.0 201.0 385.4 Q 201.0 387.0 203.7 393.5" stroke="#8B5A2B" stroke-width="1.5" fill="none" stroke-linecap="round" />
<circle cx="216.6" cy="393.5" r="3.5" fill="#d63031" /><circle cx="222.0" cy="393.5" r="3.5" fill="#d63031" /><path d="M 216.6 393.5 Q 219.3 387.0 219.3 385.4 Q 219.3 387.0 222.0 393.5" stroke="#8B5A2B" stroke-width="1.5" fill="none" stroke-linecap="round" />
<circle cx="235.0" cy="393.5" r="3.5" fill="#d63031" /><circle cx="240.4" cy="393.5" r="3.5" fill="#d63031" /><path d="M 235.0 393.5 Q 237.7 387.0 237.7 385.4 Q 237.7 387.0 240.4 393.5" stroke="#8B5A2B" stroke-width="1.5" fill="none" stroke-linecap="round" />
<circle cx="253.3" cy="393.5" r="3.5" fill="#d63031" /><circle cx="258.7" cy="393.5" r="3.5" fill="#d63031" /><path d="M 253.3 393.5 Q 256.0 387.0 256.0 385.4 Q 256.0 387.0 258.7 393.5" stroke="#8B5A2B" stroke-width="1.5" fill="none" stroke-linecap="round" />
<circle cx="271.6" cy="393.5" r="3.5" fill="#d63031" /><circle cx="277.0" cy="393.5" r="3.5" fill="#d63031" /><path d="M 271.6 393.5 Q 274.3 387.0 274.3 385.4 Q 274.3 387.0 277.0 393.5" stroke="#8B5A2B" stroke-width="1.5" fill="none" stroke-linecap="round" />
<circle cx="290.0" cy="393.5" r="3.5" fill="#d63031" /><circle cx="295.4" cy="393.5" r="3.5" fill="#d63031" /><path d="M 290.0 393.5 Q 292.7 387.0 292.7 385.4 Q 292.7 387.0 295.4 393.5" stroke="#8B5A2B" stroke-width="1.5" fill="none" stroke-linecap="round" />
<circle cx="308.3" cy="393.5" r="3.5" fill="#d63031" /><circle cx="313.7" cy="393.5" r="3.5" fill="#d63031" /><path d="M 308.3 393.5 Q 311.0 387.0 311.0 385.4 Q 311.0 387.0 313.7 393.5" stroke="#8B5A2B" stroke-width="1.5" fill="none" stroke-linecap="round" />
<circle cx="326.6" cy="393.5" r="3.5" fill="#d63031" /><circle cx="332.0" cy="393.5" r="3.5" fill="#d63031" /><path d="M 326.6 393.5 Q 329.3 387.0 329.3 385.4 Q 329.3 387.0 332.0 393.5" stroke="#8B5A2B" stroke-width="1.5" fill="none" stroke-linecap="round" />
<circle cx="345.0" cy="393.5" r="3.5" fill="#d63031" /><circle cx="350.4" cy="393.5" r="3.5" fill="#d63031" /><path d="M 345.0 393.5 Q 347.7 387.0 347.7 385.4 Q 347.7 387.0 350.4 393.5" stroke="#8B5A2B" stroke-width="1.5" fill="none" stroke-linecap="round" />
<circle cx="363.3" cy="393.5" r="3.5" fill="#d63031" /><circle cx="368.7" cy="393.5" r="3.5" fill="#d63031" /><path d="M 363.3 393.5 Q 366.0 387.0 366.0 385.4 Q 366.0 387.0 368.7 393.5" stroke="#8B5A2B" stroke-width="1.5" fill="none" stroke-linecap="round" />
  </g>

  <!-- Bottom Banner -->
  <g filter="url(#shadow-89)">
    <rect x="96" y="420" width="320" height="54" rx="27" fill="#FFF" stroke="#eac6e1" stroke-width="4" />
    <text x="256" y="455" 
          text-anchor="middle" 
          font-size="28" 
          font-weight="900" 
          font-family="Comic Sans MS, Arial Rounded MT Bold, sans-serif" 
          fill="#7C5730">89 - Eighty Nine</text>
  </g>
</svg>