<svg xmlns="http://www.w3.org/2000/svg" viewBox="0 0 512 512" width="100%" height="100%">
  <defs>
    <!-- Background Gradient -->
    <linearGradient id="bg-9" x1="0%" y1="0%" x2="0%" y2="100%">
      <stop offset="0%" stop-color="#fffcf9" />
      <stop offset="100%" stop-color="#fff6ef" />
    </linearGradient>

    <!-- Front Face Gradient -->
    <linearGradient id="front-9" x1="0%" y1="0%" x2="0%" y2="100%">
      <stop offset="0%" stop-color="#ffc089" />
      <stop offset="100%" stop-color="#f47200" />
    </linearGradient>

    <!-- 3D Side/Extrusion Color -->
    <linearGradient id="side-9" x1="0%" y1="0%" x2="0%" y2="100%">
      <stop offset="0%" stop-color="#c15a00" />
      <stop offset="100%" stop-color="#8e4200" />
    </linearGradient>

    <!-- Leaf Sprout Gradient -->
    <linearGradient id="leaf-9" x1="0%" y1="0%" x2="100%" y2="100%">
      <stop offset="0%" stop-color="#7BED9F" />
      <stop offset="100%" stop-color="#2ED573" />
    </linearGradient>

    <!-- 3D Base Shadow -->
    <filter id="shadow-9">
      <feDropShadow dx="0" dy="10" stdDeviation="8" flood-color="#000000" flood-opacity="0.25" />
    </filter>
  </defs>

  <!-- Background -->
  <circle cx="256" cy="256" r="236" fill="url(#bg-9)" stroke="#ead7c6" stroke-width="6" />

  <!-- Sparkles -->
  <g fill="#FFD43B">
    <circle cx="100" cy="130" r="8" />
    <circle cx="400" cy="120" r="10" />
    <circle cx="430" cy="330" r="7" />
  </g>

  <!-- Number -->
  <g filter="url(#shadow-9)">
    <!-- Side -->
    <text x="256" y="215" 
          text-anchor="middle" 
          font-size="180" 
          font-weight="900" 
          font-family="Comic Sans MS, Arial Rounded MT Bold, sans-serif" 
          fill="url(#side-9)" 
          stroke="url(#side-9)" 
          stroke-width="18" 
          transform="translate(0, 12)">9</text>

    <!-- Front -->
    <text x="256" y="215" 
          text-anchor="middle" 
          font-size="180" 
          font-weight="900" 
          font-family="Comic Sans MS, Arial Rounded MT Bold, sans-serif" 
          fill="url(#front-9)" 
          stroke="url(#front-9)" 
          stroke-width="18">9</text>
  </g>

  <!-- Cute Sprout -->
  <g transform="translate(256 65)">
    <path d="M0 0 Q-4 -15 -8 -24" stroke="#8B5A2B" stroke-width="5" fill="none" />
    <path d="M-8 -24 C-28 -28 -30 -5 -10 0 Z" fill="url(#leaf-9)" />
    <path d="M-8 -24 C5 -35 22 -20 5 -5 Z" fill="url(#leaf-9)" />
  </g>

  <!-- Eyes -->
  <g>
    <circle cx="215" cy="180" r="18" fill="#222" />
    <circle cx="208" cy="172" r="6" fill="#FFF" />

    <circle cx="297" cy="180" r="18" fill="#222" />
    <circle cx="290" cy="172" r="6" fill="#FFF" />
  </g>

  <!-- Cheeks -->
  <ellipse cx="185" cy="210" rx="18" ry="12" fill="#FF6B81" opacity="0.45" />
  <ellipse cx="327" cy="210" rx="18" ry="12" fill="#FF6B81" opacity="0.45" />

  <!-- Smile -->
  <path d="M225 225 Q256 255 287 225" stroke="#7A1022" stroke-width="8" fill="none" stroke-linecap="round" />

  <!-- Counting Object -->
  <g>
    <circle cx="139.0" cy="324.5" r="9.0" fill="#d63031" /><circle cx="153.0" cy="324.5" r="9.0" fill="#d63031" /><path d="M 139.0 324.5 Q 146.0 307.5 146.0 303.5 Q 146.0 307.5 153.0 324.5" stroke="#8B5A2B" stroke-width="1.5" fill="none" stroke-linecap="round" />
<circle cx="194.0" cy="324.5" r="9.0" fill="#d63031" /><circle cx="208.0" cy="324.5" r="9.0" fill="#d63031" /><path d="M 194.0 324.5 Q 201.0 307.5 201.0 303.5 Q 201.0 307.5 208.0 324.5" stroke="#8B5A2B" stroke-width="1.5" fill="none" stroke-linecap="round" />
<circle cx="249.0" cy="324.5" r="9.0" fill="#d63031" /><circle cx="263.0" cy="324.5" r="9.0" fill="#d63031" /><path d="M 249.0 324.5 Q 256.0 307.5 256.0 303.5 Q 256.0 307.5 263.0 324.5" stroke="#8B5A2B" stroke-width="1.5" fill="none" stroke-linecap="round" />
<circle cx="304.0" cy="324.5" r="9.0" fill="#d63031" /><circle cx="318.0" cy="324.5" r="9.0" fill="#d63031" /><path d="M 304.0 324.5 Q 311.0 307.5 311.0 303.5 Q 311.0 307.5 318.0 324.5" stroke="#8B5A2B" stroke-width="1.5" fill="none" stroke-linecap="round" />
<circle cx="359.0" cy="324.5" r="9.0" fill="#d63031" /><circle cx="373.0" cy="324.5" r="9.0" fill="#d63031" /><path d="M 359.0 324.5 Q 366.0 307.5 366.0 303.5 Q 366.0 307.5 373.0 324.5" stroke="#8B5A2B" stroke-width="1.5" fill="none" stroke-linecap="round" />
<circle cx="139.0" cy="379.5" r="9.0" fill="#d63031" /><circle cx="153.0" cy="379.5" r="9.0" fill="#d63031" /><path d="M 139.0 379.5 Q 146.0 362.5 146.0 358.5 Q 146.0 362.5 153.0 379.5" stroke="#8B5A2B" stroke-width="1.5" fill="none" stroke-linecap="round" />
<circle cx="194.0" cy="379.5" r="9.0" fill="#d63031" /><circle cx="208.0" cy="379.5" r="9.0" fill="#d63031" /><path d="M 194.0 379.5 Q 201.0 362.5 201.0 358.5 Q 201.0 362.5 208.0 379.5" stroke="#8B5A2B" stroke-width="1.5" fill="none" stroke-linecap="round" />
<circle cx="249.0" cy="379.5" r="9.0" fill="#d63031" /><circle cx="263.0" cy="379.5" r="9.0" fill="#d63031" /><path d="M 249.0 379.5 Q 256.0 362.5 256.0 358.5 Q 256.0 362.5 263.0 379.5" stroke="#8B5A2B" stroke-width="1.5" fill="none" stroke-linecap="round" />
<circle cx="304.0" cy="379.5" r="9.0" fill="#d63031" /><circle cx="318.0" cy="379.5" r="9.0" fill="#d63031" /><path d="M 304.0 379.5 Q 311.0 362.5 311.0 358.5 Q 311.0 362.5 318.0 379.5" stroke="#8B5A2B" stroke-width="1.5" fill="none" stroke-linecap="round" />
  </g>

  <!-- Bottom Banner -->
  <g filter="url(#shadow-9)">
    <rect x="96" y="420" width="320" height="54" rx="27" fill="#FFF" stroke="#ead7c6" stroke-width="4" />
    <text x="256" y="455" 
          text-anchor="middle" 
          font-size="28" 
          font-weight="900" 
          font-family="Comic Sans MS, Arial Rounded MT Bold, sans-serif" 
          fill="#7C5730">9 - Nine</text>
  </g>
</svg>