<svg xmlns="http://www.w3.org/2000/svg" viewBox="0 0 512 512" width="100%" height="100%">
  <defs>
    <!-- Background Gradient -->
    <linearGradient id="bg-91" x1="0%" y1="0%" x2="0%" y2="100%">
      <stop offset="0%" stop-color="#fff9fc" />
      <stop offset="100%" stop-color="#ffeff8" />
    </linearGradient>

    <!-- Front Face Gradient -->
    <linearGradient id="front-91" x1="0%" y1="0%" x2="0%" y2="100%">
      <stop offset="0%" stop-color="#ff89d0" />
      <stop offset="100%" stop-color="#f40092" />
    </linearGradient>

    <!-- 3D Side/Extrusion Color -->
    <linearGradient id="side-91" x1="0%" y1="0%" x2="0%" y2="100%">
      <stop offset="0%" stop-color="#c10074" />
      <stop offset="100%" stop-color="#8e0055" />
    </linearGradient>

    <!-- Leaf Sprout Gradient -->
    <linearGradient id="leaf-91" x1="0%" y1="0%" x2="100%" y2="100%">
      <stop offset="0%" stop-color="#7BED9F" />
      <stop offset="100%" stop-color="#2ED573" />
    </linearGradient>

    <!-- 3D Base Shadow -->
    <filter id="shadow-91">
      <feDropShadow dx="0" dy="10" stdDeviation="8" flood-color="#000000" flood-opacity="0.25" />
    </filter>
  </defs>

  <!-- Background -->
  <circle cx="256" cy="256" r="236" fill="url(#bg-91)" stroke="#eac6dc" stroke-width="6" />

  <!-- Sparkles -->
  <g fill="#FFD43B">
    <circle cx="100" cy="130" r="8" />
    <circle cx="400" cy="120" r="10" />
    <circle cx="430" cy="330" r="7" />
  </g>

  <!-- Number -->
  <g filter="url(#shadow-91)">
    <!-- Side -->
    <text x="256" y="215" 
          text-anchor="middle" 
          font-size="180" 
          font-weight="900" 
          font-family="Comic Sans MS, Arial Rounded MT Bold, sans-serif" 
          fill="url(#side-91)" 
          stroke="url(#side-91)" 
          stroke-width="18" 
          transform="translate(0, 12)">91</text>

    <!-- Front -->
    <text x="256" y="215" 
          text-anchor="middle" 
          font-size="180" 
          font-weight="900" 
          font-family="Comic Sans MS, Arial Rounded MT Bold, sans-serif" 
          fill="url(#front-91)" 
          stroke="url(#front-91)" 
          stroke-width="18">91</text>
  </g>

  <!-- Cute Sprout -->
  <g transform="translate(256 65)">
    <path d="M0 0 Q-4 -15 -8 -24" stroke="#8B5A2B" stroke-width="5" fill="none" />
    <path d="M-8 -24 C-28 -28 -30 -5 -10 0 Z" fill="url(#leaf-91)" />
    <path d="M-8 -24 C5 -35 22 -20 5 -5 Z" fill="url(#leaf-91)" />
  </g>

  <!-- Eyes -->
  <g>
    <circle cx="215" cy="180" r="18" fill="#222" />
    <circle cx="208" cy="172" r="6" fill="#FFF" />

    <circle cx="297" cy="180" r="18" fill="#222" />
    <circle cx="290" cy="172" r="6" fill="#FFF" />
  </g>

  <!-- Cheeks -->
  <ellipse cx="185" cy="210" rx="18" ry="12" fill="#FF6B81" opacity="0.45" />
  <ellipse cx="327" cy="210" rx="18" ry="12" fill="#FF6B81" opacity="0.45" />

  <!-- Smile -->
  <path d="M225 225 Q256 255 287 225" stroke="#7A1022" stroke-width="8" fill="none" stroke-linecap="round" />

  <!-- Counting Object -->
  <g>
    <circle cx="118.5" cy="299.2" r="7.7" fill="#FF4757" /><path d="M 118.5 291.5 Q 120.8 287.6 122.4 285.7" stroke="#8B5A2B" stroke-width="3" fill="none" stroke-linecap="round" /><path d="M 118.5 291.9 C 114.3 288.8 112.7 289.5 115.4 293.4 Z" fill="#2ED573" />
<circle cx="136.8" cy="299.2" r="7.7" fill="#FF4757" /><path d="M 136.8 291.5 Q 139.1 287.6 140.7 285.7" stroke="#8B5A2B" stroke-width="3" fill="none" stroke-linecap="round" /><path d="M 136.8 291.9 C 132.6 288.8 131.1 289.5 133.8 293.4 Z" fill="#2ED573" />
<circle cx="155.2" cy="299.2" r="7.7" fill="#FF4757" /><path d="M 155.2 291.5 Q 157.5 287.6 159.0 285.7" stroke="#8B5A2B" stroke-width="3" fill="none" stroke-linecap="round" /><path d="M 155.2 291.9 C 150.9 288.8 149.4 289.5 152.1 293.4 Z" fill="#2ED573" />
<circle cx="173.5" cy="299.2" r="7.7" fill="#FF4757" /><path d="M 173.5 291.5 Q 175.8 287.6 177.3 285.7" stroke="#8B5A2B" stroke-width="3" fill="none" stroke-linecap="round" /><path d="M 173.5 291.9 C 169.3 288.8 167.7 289.5 170.4 293.4 Z" fill="#2ED573" />
<circle cx="191.8" cy="299.2" r="7.7" fill="#FF4757" /><path d="M 191.8 291.5 Q 194.1 287.6 195.7 285.7" stroke="#8B5A2B" stroke-width="3" fill="none" stroke-linecap="round" /><path d="M 191.8 291.9 C 187.6 288.8 186.1 289.5 188.8 293.4 Z" fill="#2ED573" />
<circle cx="210.2" cy="299.2" r="7.7" fill="#FF4757" /><path d="M 210.2 291.5 Q 212.5 287.6 214.0 285.7" stroke="#8B5A2B" stroke-width="3" fill="none" stroke-linecap="round" /><path d="M 210.2 291.9 C 205.9 288.8 204.4 289.5 207.1 293.4 Z" fill="#2ED573" />
<circle cx="228.5" cy="299.2" r="7.7" fill="#FF4757" /><path d="M 228.5 291.5 Q 230.8 287.6 232.3 285.7" stroke="#8B5A2B" stroke-width="3" fill="none" stroke-linecap="round" /><path d="M 228.5 291.9 C 224.3 288.8 222.7 289.5 225.4 293.4 Z" fill="#2ED573" />
<circle cx="246.8" cy="299.2" r="7.7" fill="#FF4757" /><path d="M 246.8 291.5 Q 249.1 287.6 250.7 285.7" stroke="#8B5A2B" stroke-width="3" fill="none" stroke-linecap="round" /><path d="M 246.8 291.9 C 242.6 288.8 241.1 289.5 243.8 293.4 Z" fill="#2ED573" />
<circle cx="265.2" cy="299.2" r="7.7" fill="#FF4757" /><path d="M 265.2 291.5 Q 267.5 287.6 269.0 285.7" stroke="#8B5A2B" stroke-width="3" fill="none" stroke-linecap="round" /><path d="M 265.2 291.9 C 260.9 288.8 259.4 289.5 262.1 293.4 Z" fill="#2ED573" />
<circle cx="283.5" cy="299.2" r="7.7" fill="#FF4757" /><path d="M 283.5 291.5 Q 285.8 287.6 287.4 285.7" stroke="#8B5A2B" stroke-width="3" fill="none" stroke-linecap="round" /><path d="M 283.5 291.9 C 279.3 288.8 277.7 289.5 280.4 293.4 Z" fill="#2ED573" />
<circle cx="301.8" cy="299.2" r="7.7" fill="#FF4757" /><path d="M 301.8 291.5 Q 304.1 287.6 305.7 285.7" stroke="#8B5A2B" stroke-width="3" fill="none" stroke-linecap="round" /><path d="M 301.8 291.9 C 297.6 288.8 296.1 289.5 298.8 293.4 Z" fill="#2ED573" />
<circle cx="320.2" cy="299.2" r="7.7" fill="#FF4757" /><path d="M 320.2 291.5 Q 322.5 287.6 324.0 285.7" stroke="#8B5A2B" stroke-width="3" fill="none" stroke-linecap="round" /><path d="M 320.2 291.9 C 315.9 288.8 314.4 289.5 317.1 293.4 Z" fill="#2ED573" />
<circle cx="338.5" cy="299.2" r="7.7" fill="#FF4757" /><path d="M 338.5 291.5 Q 340.8 287.6 342.4 285.7" stroke="#8B5A2B" stroke-width="3" fill="none" stroke-linecap="round" /><path d="M 338.5 291.9 C 334.3 288.8 332.7 289.5 335.4 293.4 Z" fill="#2ED573" />
<circle cx="356.8" cy="299.2" r="7.7" fill="#FF4757" /><path d="M 356.8 291.5 Q 359.1 287.6 360.7 285.7" stroke="#8B5A2B" stroke-width="3" fill="none" stroke-linecap="round" /><path d="M 356.8 291.9 C 352.6 288.8 351.1 289.5 353.8 293.4 Z" fill="#2ED573" />
<circle cx="375.2" cy="299.2" r="7.7" fill="#FF4757" /><path d="M 375.2 291.5 Q 377.5 287.6 379.0 285.7" stroke="#8B5A2B" stroke-width="3" fill="none" stroke-linecap="round" /><path d="M 375.2 291.9 C 370.9 288.8 369.4 289.5 372.1 293.4 Z" fill="#2ED573" />
<circle cx="393.5" cy="299.2" r="7.7" fill="#FF4757" /><path d="M 393.5 291.5 Q 395.8 287.6 397.4 285.7" stroke="#8B5A2B" stroke-width="3" fill="none" stroke-linecap="round" /><path d="M 393.5 291.9 C 389.3 288.8 387.7 289.5 390.4 293.4 Z" fill="#2ED573" />
<circle cx="118.5" cy="317.5" r="7.7" fill="#FF4757" /><path d="M 118.5 309.8 Q 120.8 305.9 122.4 304.0" stroke="#8B5A2B" stroke-width="3" fill="none" stroke-linecap="round" /><path d="M 118.5 310.2 C 114.3 307.1 112.7 307.9 115.4 311.7 Z" fill="#2ED573" />
<circle cx="136.8" cy="317.5" r="7.7" fill="#FF4757" /><path d="M 136.8 309.8 Q 139.1 305.9 140.7 304.0" stroke="#8B5A2B" stroke-width="3" fill="none" stroke-linecap="round" /><path d="M 136.8 310.2 C 132.6 307.1 131.1 307.9 133.8 311.7 Z" fill="#2ED573" />
<circle cx="155.2" cy="317.5" r="7.7" fill="#FF4757" /><path d="M 155.2 309.8 Q 157.5 305.9 159.0 304.0" stroke="#8B5A2B" stroke-width="3" fill="none" stroke-linecap="round" /><path d="M 155.2 310.2 C 150.9 307.1 149.4 307.9 152.1 311.7 Z" fill="#2ED573" />
<circle cx="173.5" cy="317.5" r="7.7" fill="#FF4757" /><path d="M 173.5 309.8 Q 175.8 305.9 177.3 304.0" stroke="#8B5A2B" stroke-width="3" fill="none" stroke-linecap="round" /><path d="M 173.5 310.2 C 169.3 307.1 167.7 307.9 170.4 311.7 Z" fill="#2ED573" />
<circle cx="191.8" cy="317.5" r="7.7" fill="#FF4757" /><path d="M 191.8 309.8 Q 194.1 305.9 195.7 304.0" stroke="#8B5A2B" stroke-width="3" fill="none" stroke-linecap="round" /><path d="M 191.8 310.2 C 187.6 307.1 186.1 307.9 188.8 311.7 Z" fill="#2ED573" />
<circle cx="210.2" cy="317.5" r="7.7" fill="#FF4757" /><path d="M 210.2 309.8 Q 212.5 305.9 214.0 304.0" stroke="#8B5A2B" stroke-width="3" fill="none" stroke-linecap="round" /><path d="M 210.2 310.2 C 205.9 307.1 204.4 307.9 207.1 311.7 Z" fill="#2ED573" />
<circle cx="228.5" cy="317.5" r="7.7" fill="#FF4757" /><path d="M 228.5 309.8 Q 230.8 305.9 232.3 304.0" stroke="#8B5A2B" stroke-width="3" fill="none" stroke-linecap="round" /><path d="M 228.5 310.2 C 224.3 307.1 222.7 307.9 225.4 311.7 Z" fill="#2ED573" />
<circle cx="246.8" cy="317.5" r="7.7" fill="#FF4757" /><path d="M 246.8 309.8 Q 249.1 305.9 250.7 304.0" stroke="#8B5A2B" stroke-width="3" fill="none" stroke-linecap="round" /><path d="M 246.8 310.2 C 242.6 307.1 241.1 307.9 243.8 311.7 Z" fill="#2ED573" />
<circle cx="265.2" cy="317.5" r="7.7" fill="#FF4757" /><path d="M 265.2 309.8 Q 267.5 305.9 269.0 304.0" stroke="#8B5A2B" stroke-width="3" fill="none" stroke-linecap="round" /><path d="M 265.2 310.2 C 260.9 307.1 259.4 307.9 262.1 311.7 Z" fill="#2ED573" />
<circle cx="283.5" cy="317.5" r="7.7" fill="#FF4757" /><path d="M 283.5 309.8 Q 285.8 305.9 287.4 304.0" stroke="#8B5A2B" stroke-width="3" fill="none" stroke-linecap="round" /><path d="M 283.5 310.2 C 279.3 307.1 277.7 307.9 280.4 311.7 Z" fill="#2ED573" />
<circle cx="301.8" cy="317.5" r="7.7" fill="#FF4757" /><path d="M 301.8 309.8 Q 304.1 305.9 305.7 304.0" stroke="#8B5A2B" stroke-width="3" fill="none" stroke-linecap="round" /><path d="M 301.8 310.2 C 297.6 307.1 296.1 307.9 298.8 311.7 Z" fill="#2ED573" />
<circle cx="320.2" cy="317.5" r="7.7" fill="#FF4757" /><path d="M 320.2 309.8 Q 322.5 305.9 324.0 304.0" stroke="#8B5A2B" stroke-width="3" fill="none" stroke-linecap="round" /><path d="M 320.2 310.2 C 315.9 307.1 314.4 307.9 317.1 311.7 Z" fill="#2ED573" />
<circle cx="338.5" cy="317.5" r="7.7" fill="#FF4757" /><path d="M 338.5 309.8 Q 340.8 305.9 342.4 304.0" stroke="#8B5A2B" stroke-width="3" fill="none" stroke-linecap="round" /><path d="M 338.5 310.2 C 334.3 307.1 332.7 307.9 335.4 311.7 Z" fill="#2ED573" />
<circle cx="356.8" cy="317.5" r="7.7" fill="#FF4757" /><path d="M 356.8 309.8 Q 359.1 305.9 360.7 304.0" stroke="#8B5A2B" stroke-width="3" fill="none" stroke-linecap="round" /><path d="M 356.8 310.2 C 352.6 307.1 351.1 307.9 353.8 311.7 Z" fill="#2ED573" />
<circle cx="375.2" cy="317.5" r="7.7" fill="#FF4757" /><path d="M 375.2 309.8 Q 377.5 305.9 379.0 304.0" stroke="#8B5A2B" stroke-width="3" fill="none" stroke-linecap="round" /><path d="M 375.2 310.2 C 370.9 307.1 369.4 307.9 372.1 311.7 Z" fill="#2ED573" />
<circle cx="393.5" cy="317.5" r="7.7" fill="#FF4757" /><path d="M 393.5 309.8 Q 395.8 305.9 397.4 304.0" stroke="#8B5A2B" stroke-width="3" fill="none" stroke-linecap="round" /><path d="M 393.5 310.2 C 389.3 307.1 387.7 307.9 390.4 311.7 Z" fill="#2ED573" />
<circle cx="118.5" cy="335.8" r="7.7" fill="#FF4757" /><path d="M 118.5 328.1 Q 120.8 324.3 122.4 322.4" stroke="#8B5A2B" stroke-width="3" fill="none" stroke-linecap="round" /><path d="M 118.5 328.5 C 114.3 325.4 112.7 326.2 115.4 330.1 Z" fill="#2ED573" />
<circle cx="136.8" cy="335.8" r="7.7" fill="#FF4757" /><path d="M 136.8 328.1 Q 139.1 324.3 140.7 322.4" stroke="#8B5A2B" stroke-width="3" fill="none" stroke-linecap="round" /><path d="M 136.8 328.5 C 132.6 325.4 131.1 326.2 133.8 330.1 Z" fill="#2ED573" />
<circle cx="155.2" cy="335.8" r="7.7" fill="#FF4757" /><path d="M 155.2 328.1 Q 157.5 324.3 159.0 322.4" stroke="#8B5A2B" stroke-width="3" fill="none" stroke-linecap="round" /><path d="M 155.2 328.5 C 150.9 325.4 149.4 326.2 152.1 330.1 Z" fill="#2ED573" />
<circle cx="173.5" cy="335.8" r="7.7" fill="#FF4757" /><path d="M 173.5 328.1 Q 175.8 324.3 177.3 322.4" stroke="#8B5A2B" stroke-width="3" fill="none" stroke-linecap="round" /><path d="M 173.5 328.5 C 169.3 325.4 167.7 326.2 170.4 330.1 Z" fill="#2ED573" />
<circle cx="191.8" cy="335.8" r="7.7" fill="#FF4757" /><path d="M 191.8 328.1 Q 194.1 324.3 195.7 322.4" stroke="#8B5A2B" stroke-width="3" fill="none" stroke-linecap="round" /><path d="M 191.8 328.5 C 187.6 325.4 186.1 326.2 188.8 330.1 Z" fill="#2ED573" />
<circle cx="210.2" cy="335.8" r="7.7" fill="#FF4757" /><path d="M 210.2 328.1 Q 212.5 324.3 214.0 322.4" stroke="#8B5A2B" stroke-width="3" fill="none" stroke-linecap="round" /><path d="M 210.2 328.5 C 205.9 325.4 204.4 326.2 207.1 330.1 Z" fill="#2ED573" />
<circle cx="228.5" cy="335.8" r="7.7" fill="#FF4757" /><path d="M 228.5 328.1 Q 230.8 324.3 232.3 322.4" stroke="#8B5A2B" stroke-width="3" fill="none" stroke-linecap="round" /><path d="M 228.5 328.5 C 224.3 325.4 222.7 326.2 225.4 330.1 Z" fill="#2ED573" />
<circle cx="246.8" cy="335.8" r="7.7" fill="#FF4757" /><path d="M 246.8 328.1 Q 249.1 324.3 250.7 322.4" stroke="#8B5A2B" stroke-width="3" fill="none" stroke-linecap="round" /><path d="M 246.8 328.5 C 242.6 325.4 241.1 326.2 243.8 330.1 Z" fill="#2ED573" />
<circle cx="265.2" cy="335.8" r="7.7" fill="#FF4757" /><path d="M 265.2 328.1 Q 267.5 324.3 269.0 322.4" stroke="#8B5A2B" stroke-width="3" fill="none" stroke-linecap="round" /><path d="M 265.2 328.5 C 260.9 325.4 259.4 326.2 262.1 330.1 Z" fill="#2ED573" />
<circle cx="283.5" cy="335.8" r="7.7" fill="#FF4757" /><path d="M 283.5 328.1 Q 285.8 324.3 287.4 322.4" stroke="#8B5A2B" stroke-width="3" fill="none" stroke-linecap="round" /><path d="M 283.5 328.5 C 279.3 325.4 277.7 326.2 280.4 330.1 Z" fill="#2ED573" />
<circle cx="301.8" cy="335.8" r="7.7" fill="#FF4757" /><path d="M 301.8 328.1 Q 304.1 324.3 305.7 322.4" stroke="#8B5A2B" stroke-width="3" fill="none" stroke-linecap="round" /><path d="M 301.8 328.5 C 297.6 325.4 296.1 326.2 298.8 330.1 Z" fill="#2ED573" />
<circle cx="320.2" cy="335.8" r="7.7" fill="#FF4757" /><path d="M 320.2 328.1 Q 322.5 324.3 324.0 322.4" stroke="#8B5A2B" stroke-width="3" fill="none" stroke-linecap="round" /><path d="M 320.2 328.5 C 315.9 325.4 314.4 326.2 317.1 330.1 Z" fill="#2ED573" />
<circle cx="338.5" cy="335.8" r="7.7" fill="#FF4757" /><path d="M 338.5 328.1 Q 340.8 324.3 342.4 322.4" stroke="#8B5A2B" stroke-width="3" fill="none" stroke-linecap="round" /><path d="M 338.5 328.5 C 334.3 325.4 332.7 326.2 335.4 330.1 Z" fill="#2ED573" />
<circle cx="356.8" cy="335.8" r="7.7" fill="#FF4757" /><path d="M 356.8 328.1 Q 359.1 324.3 360.7 322.4" stroke="#8B5A2B" stroke-width="3" fill="none" stroke-linecap="round" /><path d="M 356.8 328.5 C 352.6 325.4 351.1 326.2 353.8 330.1 Z" fill="#2ED573" />
<circle cx="375.2" cy="335.8" r="7.7" fill="#FF4757" /><path d="M 375.2 328.1 Q 377.5 324.3 379.0 322.4" stroke="#8B5A2B" stroke-width="3" fill="none" stroke-linecap="round" /><path d="M 375.2 328.5 C 370.9 325.4 369.4 326.2 372.1 330.1 Z" fill="#2ED573" />
<circle cx="393.5" cy="335.8" r="7.7" fill="#FF4757" /><path d="M 393.5 328.1 Q 395.8 324.3 397.4 322.4" stroke="#8B5A2B" stroke-width="3" fill="none" stroke-linecap="round" /><path d="M 393.5 328.5 C 389.3 325.4 387.7 326.2 390.4 330.1 Z" fill="#2ED573" />
<circle cx="118.5" cy="354.2" r="7.7" fill="#FF4757" /><path d="M 118.5 346.5 Q 120.8 342.6 122.4 340.7" stroke="#8B5A2B" stroke-width="3" fill="none" stroke-linecap="round" /><path d="M 118.5 346.9 C 114.3 343.8 112.7 344.5 115.4 348.4 Z" fill="#2ED573" />
<circle cx="136.8" cy="354.2" r="7.7" fill="#FF4757" /><path d="M 136.8 346.5 Q 139.1 342.6 140.7 340.7" stroke="#8B5A2B" stroke-width="3" fill="none" stroke-linecap="round" /><path d="M 136.8 346.9 C 132.6 343.8 131.1 344.5 133.8 348.4 Z" fill="#2ED573" />
<circle cx="155.2" cy="354.2" r="7.7" fill="#FF4757" /><path d="M 155.2 346.5 Q 157.5 342.6 159.0 340.7" stroke="#8B5A2B" stroke-width="3" fill="none" stroke-linecap="round" /><path d="M 155.2 346.9 C 150.9 343.8 149.4 344.5 152.1 348.4 Z" fill="#2ED573" />
<circle cx="173.5" cy="354.2" r="7.7" fill="#FF4757" /><path d="M 173.5 346.5 Q 175.8 342.6 177.3 340.7" stroke="#8B5A2B" stroke-width="3" fill="none" stroke-linecap="round" /><path d="M 173.5 346.9 C 169.3 343.8 167.7 344.5 170.4 348.4 Z" fill="#2ED573" />
<circle cx="191.8" cy="354.2" r="7.7" fill="#FF4757" /><path d="M 191.8 346.5 Q 194.1 342.6 195.7 340.7" stroke="#8B5A2B" stroke-width="3" fill="none" stroke-linecap="round" /><path d="M 191.8 346.9 C 187.6 343.8 186.1 344.5 188.8 348.4 Z" fill="#2ED573" />
<circle cx="210.2" cy="354.2" r="7.7" fill="#FF4757" /><path d="M 210.2 346.5 Q 212.5 342.6 214.0 340.7" stroke="#8B5A2B" stroke-width="3" fill="none" stroke-linecap="round" /><path d="M 210.2 346.9 C 205.9 343.8 204.4 344.5 207.1 348.4 Z" fill="#2ED573" />
<circle cx="228.5" cy="354.2" r="7.7" fill="#FF4757" /><path d="M 228.5 346.5 Q 230.8 342.6 232.3 340.7" stroke="#8B5A2B" stroke-width="3" fill="none" stroke-linecap="round" /><path d="M 228.5 346.9 C 224.3 343.8 222.7 344.5 225.4 348.4 Z" fill="#2ED573" />
<circle cx="246.8" cy="354.2" r="7.7" fill="#FF4757" /><path d="M 246.8 346.5 Q 249.1 342.6 250.7 340.7" stroke="#8B5A2B" stroke-width="3" fill="none" stroke-linecap="round" /><path d="M 246.8 346.9 C 242.6 343.8 241.1 344.5 243.8 348.4 Z" fill="#2ED573" />
<circle cx="265.2" cy="354.2" r="7.7" fill="#FF4757" /><path d="M 265.2 346.5 Q 267.5 342.6 269.0 340.7" stroke="#8B5A2B" stroke-width="3" fill="none" stroke-linecap="round" /><path d="M 265.2 346.9 C 260.9 343.8 259.4 344.5 262.1 348.4 Z" fill="#2ED573" />
<circle cx="283.5" cy="354.2" r="7.7" fill="#FF4757" /><path d="M 283.5 346.5 Q 285.8 342.6 287.4 340.7" stroke="#8B5A2B" stroke-width="3" fill="none" stroke-linecap="round" /><path d="M 283.5 346.9 C 279.3 343.8 277.7 344.5 280.4 348.4 Z" fill="#2ED573" />
<circle cx="301.8" cy="354.2" r="7.7" fill="#FF4757" /><path d="M 301.8 346.5 Q 304.1 342.6 305.7 340.7" stroke="#8B5A2B" stroke-width="3" fill="none" stroke-linecap="round" /><path d="M 301.8 346.9 C 297.6 343.8 296.1 344.5 298.8 348.4 Z" fill="#2ED573" />
<circle cx="320.2" cy="354.2" r="7.7" fill="#FF4757" /><path d="M 320.2 346.5 Q 322.5 342.6 324.0 340.7" stroke="#8B5A2B" stroke-width="3" fill="none" stroke-linecap="round" /><path d="M 320.2 346.9 C 315.9 343.8 314.4 344.5 317.1 348.4 Z" fill="#2ED573" />
<circle cx="338.5" cy="354.2" r="7.7" fill="#FF4757" /><path d="M 338.5 346.5 Q 340.8 342.6 342.4 340.7" stroke="#8B5A2B" stroke-width="3" fill="none" stroke-linecap="round" /><path d="M 338.5 346.9 C 334.3 343.8 332.7 344.5 335.4 348.4 Z" fill="#2ED573" />
<circle cx="356.8" cy="354.2" r="7.7" fill="#FF4757" /><path d="M 356.8 346.5 Q 359.1 342.6 360.7 340.7" stroke="#8B5A2B" stroke-width="3" fill="none" stroke-linecap="round" /><path d="M 356.8 346.9 C 352.6 343.8 351.1 344.5 353.8 348.4 Z" fill="#2ED573" />
<circle cx="375.2" cy="354.2" r="7.7" fill="#FF4757" /><path d="M 375.2 346.5 Q 377.5 342.6 379.0 340.7" stroke="#8B5A2B" stroke-width="3" fill="none" stroke-linecap="round" /><path d="M 375.2 346.9 C 370.9 343.8 369.4 344.5 372.1 348.4 Z" fill="#2ED573" />
<circle cx="393.5" cy="354.2" r="7.7" fill="#FF4757" /><path d="M 393.5 346.5 Q 395.8 342.6 397.4 340.7" stroke="#8B5A2B" stroke-width="3" fill="none" stroke-linecap="round" /><path d="M 393.5 346.9 C 389.3 343.8 387.7 344.5 390.4 348.4 Z" fill="#2ED573" />
<circle cx="118.5" cy="372.5" r="7.7" fill="#FF4757" /><path d="M 118.5 364.8 Q 120.8 360.9 122.4 359.0" stroke="#8B5A2B" stroke-width="3" fill="none" stroke-linecap="round" /><path d="M 118.5 365.2 C 114.3 362.1 112.7 362.9 115.4 366.7 Z" fill="#2ED573" />
<circle cx="136.8" cy="372.5" r="7.7" fill="#FF4757" /><path d="M 136.8 364.8 Q 139.1 360.9 140.7 359.0" stroke="#8B5A2B" stroke-width="3" fill="none" stroke-linecap="round" /><path d="M 136.8 365.2 C 132.6 362.1 131.1 362.9 133.8 366.7 Z" fill="#2ED573" />
<circle cx="155.2" cy="372.5" r="7.7" fill="#FF4757" /><path d="M 155.2 364.8 Q 157.5 360.9 159.0 359.0" stroke="#8B5A2B" stroke-width="3" fill="none" stroke-linecap="round" /><path d="M 155.2 365.2 C 150.9 362.1 149.4 362.9 152.1 366.7 Z" fill="#2ED573" />
<circle cx="173.5" cy="372.5" r="7.7" fill="#FF4757" /><path d="M 173.5 364.8 Q 175.8 360.9 177.3 359.0" stroke="#8B5A2B" stroke-width="3" fill="none" stroke-linecap="round" /><path d="M 173.5 365.2 C 169.3 362.1 167.7 362.9 170.4 366.7 Z" fill="#2ED573" />
<circle cx="191.8" cy="372.5" r="7.7" fill="#FF4757" /><path d="M 191.8 364.8 Q 194.1 360.9 195.7 359.0" stroke="#8B5A2B" stroke-width="3" fill="none" stroke-linecap="round" /><path d="M 191.8 365.2 C 187.6 362.1 186.1 362.9 188.8 366.7 Z" fill="#2ED573" />
<circle cx="210.2" cy="372.5" r="7.7" fill="#FF4757" /><path d="M 210.2 364.8 Q 212.5 360.9 214.0 359.0" stroke="#8B5A2B" stroke-width="3" fill="none" stroke-linecap="round" /><path d="M 210.2 365.2 C 205.9 362.1 204.4 362.9 207.1 366.7 Z" fill="#2ED573" />
<circle cx="228.5" cy="372.5" r="7.7" fill="#FF4757" /><path d="M 228.5 364.8 Q 230.8 360.9 232.3 359.0" stroke="#8B5A2B" stroke-width="3" fill="none" stroke-linecap="round" /><path d="M 228.5 365.2 C 224.3 362.1 222.7 362.9 225.4 366.7 Z" fill="#2ED573" />
<circle cx="246.8" cy="372.5" r="7.7" fill="#FF4757" /><path d="M 246.8 364.8 Q 249.1 360.9 250.7 359.0" stroke="#8B5A2B" stroke-width="3" fill="none" stroke-linecap="round" /><path d="M 246.8 365.2 C 242.6 362.1 241.1 362.9 243.8 366.7 Z" fill="#2ED573" />
<circle cx="265.2" cy="372.5" r="7.7" fill="#FF4757" /><path d="M 265.2 364.8 Q 267.5 360.9 269.0 359.0" stroke="#8B5A2B" stroke-width="3" fill="none" stroke-linecap="round" /><path d="M 265.2 365.2 C 260.9 362.1 259.4 362.9 262.1 366.7 Z" fill="#2ED573" />
<circle cx="283.5" cy="372.5" r="7.7" fill="#FF4757" /><path d="M 283.5 364.8 Q 285.8 360.9 287.4 359.0" stroke="#8B5A2B" stroke-width="3" fill="none" stroke-linecap="round" /><path d="M 283.5 365.2 C 279.3 362.1 277.7 362.9 280.4 366.7 Z" fill="#2ED573" />
<circle cx="301.8" cy="372.5" r="7.7" fill="#FF4757" /><path d="M 301.8 364.8 Q 304.1 360.9 305.7 359.0" stroke="#8B5A2B" stroke-width="3" fill="none" stroke-linecap="round" /><path d="M 301.8 365.2 C 297.6 362.1 296.1 362.9 298.8 366.7 Z" fill="#2ED573" />
<circle cx="320.2" cy="372.5" r="7.7" fill="#FF4757" /><path d="M 320.2 364.8 Q 322.5 360.9 324.0 359.0" stroke="#8B5A2B" stroke-width="3" fill="none" stroke-linecap="round" /><path d="M 320.2 365.2 C 315.9 362.1 314.4 362.9 317.1 366.7 Z" fill="#2ED573" />
<circle cx="338.5" cy="372.5" r="7.7" fill="#FF4757" /><path d="M 338.5 364.8 Q 340.8 360.9 342.4 359.0" stroke="#8B5A2B" stroke-width="3" fill="none" stroke-linecap="round" /><path d="M 338.5 365.2 C 334.3 362.1 332.7 362.9 335.4 366.7 Z" fill="#2ED573" />
<circle cx="356.8" cy="372.5" r="7.7" fill="#FF4757" /><path d="M 356.8 364.8 Q 359.1 360.9 360.7 359.0" stroke="#8B5A2B" stroke-width="3" fill="none" stroke-linecap="round" /><path d="M 356.8 365.2 C 352.6 362.1 351.1 362.9 353.8 366.7 Z" fill="#2ED573" />
<circle cx="375.2" cy="372.5" r="7.7" fill="#FF4757" /><path d="M 375.2 364.8 Q 377.5 360.9 379.0 359.0" stroke="#8B5A2B" stroke-width="3" fill="none" stroke-linecap="round" /><path d="M 375.2 365.2 C 370.9 362.1 369.4 362.9 372.1 366.7 Z" fill="#2ED573" />
<circle cx="393.5" cy="372.5" r="7.7" fill="#FF4757" /><path d="M 393.5 364.8 Q 395.8 360.9 397.4 359.0" stroke="#8B5A2B" stroke-width="3" fill="none" stroke-linecap="round" /><path d="M 393.5 365.2 C 389.3 362.1 387.7 362.9 390.4 366.7 Z" fill="#2ED573" />
<circle cx="118.5" cy="390.8" r="7.7" fill="#FF4757" /><path d="M 118.5 383.1 Q 120.8 379.3 122.4 377.4" stroke="#8B5A2B" stroke-width="3" fill="none" stroke-linecap="round" /><path d="M 118.5 383.5 C 114.3 380.4 112.7 381.2 115.4 385.1 Z" fill="#2ED573" />
<circle cx="136.8" cy="390.8" r="7.7" fill="#FF4757" /><path d="M 136.8 383.1 Q 139.1 379.3 140.7 377.4" stroke="#8B5A2B" stroke-width="3" fill="none" stroke-linecap="round" /><path d="M 136.8 383.5 C 132.6 380.4 131.1 381.2 133.8 385.1 Z" fill="#2ED573" />
<circle cx="155.2" cy="390.8" r="7.7" fill="#FF4757" /><path d="M 155.2 383.1 Q 157.5 379.3 159.0 377.4" stroke="#8B5A2B" stroke-width="3" fill="none" stroke-linecap="round" /><path d="M 155.2 383.5 C 150.9 380.4 149.4 381.2 152.1 385.1 Z" fill="#2ED573" />
<circle cx="173.5" cy="390.8" r="7.7" fill="#FF4757" /><path d="M 173.5 383.1 Q 175.8 379.3 177.3 377.4" stroke="#8B5A2B" stroke-width="3" fill="none" stroke-linecap="round" /><path d="M 173.5 383.5 C 169.3 380.4 167.7 381.2 170.4 385.1 Z" fill="#2ED573" />
<circle cx="191.8" cy="390.8" r="7.7" fill="#FF4757" /><path d="M 191.8 383.1 Q 194.1 379.3 195.7 377.4" stroke="#8B5A2B" stroke-width="3" fill="none" stroke-linecap="round" /><path d="M 191.8 383.5 C 187.6 380.4 186.1 381.2 188.8 385.1 Z" fill="#2ED573" />
<circle cx="210.2" cy="390.8" r="7.7" fill="#FF4757" /><path d="M 210.2 383.1 Q 212.5 379.3 214.0 377.4" stroke="#8B5A2B" stroke-width="3" fill="none" stroke-linecap="round" /><path d="M 210.2 383.5 C 205.9 380.4 204.4 381.2 207.1 385.1 Z" fill="#2ED573" />
<circle cx="228.5" cy="390.8" r="7.7" fill="#FF4757" /><path d="M 228.5 383.1 Q 230.8 379.3 232.3 377.4" stroke="#8B5A2B" stroke-width="3" fill="none" stroke-linecap="round" /><path d="M 228.5 383.5 C 224.3 380.4 222.7 381.2 225.4 385.1 Z" fill="#2ED573" />
<circle cx="246.8" cy="390.8" r="7.7" fill="#FF4757" /><path d="M 246.8 383.1 Q 249.1 379.3 250.7 377.4" stroke="#8B5A2B" stroke-width="3" fill="none" stroke-linecap="round" /><path d="M 246.8 383.5 C 242.6 380.4 241.1 381.2 243.8 385.1 Z" fill="#2ED573" />
<circle cx="265.2" cy="390.8" r="7.7" fill="#FF4757" /><path d="M 265.2 383.1 Q 267.5 379.3 269.0 377.4" stroke="#8B5A2B" stroke-width="3" fill="none" stroke-linecap="round" /><path d="M 265.2 383.5 C 260.9 380.4 259.4 381.2 262.1 385.1 Z" fill="#2ED573" />
<circle cx="283.5" cy="390.8" r="7.7" fill="#FF4757" /><path d="M 283.5 383.1 Q 285.8 379.3 287.4 377.4" stroke="#8B5A2B" stroke-width="3" fill="none" stroke-linecap="round" /><path d="M 283.5 383.5 C 279.3 380.4 277.7 381.2 280.4 385.1 Z" fill="#2ED573" />
<circle cx="301.8" cy="390.8" r="7.7" fill="#FF4757" /><path d="M 301.8 383.1 Q 304.1 379.3 305.7 377.4" stroke="#8B5A2B" stroke-width="3" fill="none" stroke-linecap="round" /><path d="M 301.8 383.5 C 297.6 380.4 296.1 381.2 298.8 385.1 Z" fill="#2ED573" />
  </g>

  <!-- Bottom Banner -->
  <g filter="url(#shadow-91)">
    <rect x="96" y="420" width="320" height="54" rx="27" fill="#FFF" stroke="#eac6dc" stroke-width="4" />
    <text x="256" y="455" 
          text-anchor="middle" 
          font-size="28" 
          font-weight="900" 
          font-family="Comic Sans MS, Arial Rounded MT Bold, sans-serif" 
          fill="#7C5730">91 - Ninety One</text>
  </g>
</svg>