<svg xmlns="http://www.w3.org/2000/svg" viewBox="0 0 512 512" width="100%" height="100%">
  <defs>
    <!-- Background Gradient -->
    <linearGradient id="bg-92" x1="0%" y1="0%" x2="0%" y2="100%">
      <stop offset="0%" stop-color="#fff9fc" />
      <stop offset="100%" stop-color="#ffeff8" />
    </linearGradient>

    <!-- Front Face Gradient -->
    <linearGradient id="front-92" x1="0%" y1="0%" x2="0%" y2="100%">
      <stop offset="0%" stop-color="#ff89ca" />
      <stop offset="100%" stop-color="#f40086" />
    </linearGradient>

    <!-- 3D Side/Extrusion Color -->
    <linearGradient id="side-92" x1="0%" y1="0%" x2="0%" y2="100%">
      <stop offset="0%" stop-color="#c1006a" />
      <stop offset="100%" stop-color="#8e004e" />
    </linearGradient>

    <!-- Leaf Sprout Gradient -->
    <linearGradient id="leaf-92" x1="0%" y1="0%" x2="100%" y2="100%">
      <stop offset="0%" stop-color="#7BED9F" />
      <stop offset="100%" stop-color="#2ED573" />
    </linearGradient>

    <!-- 3D Base Shadow -->
    <filter id="shadow-92">
      <feDropShadow dx="0" dy="10" stdDeviation="8" flood-color="#000000" flood-opacity="0.25" />
    </filter>
  </defs>

  <!-- Background -->
  <circle cx="256" cy="256" r="236" fill="url(#bg-92)" stroke="#eac6da" stroke-width="6" />

  <!-- Sparkles -->
  <g fill="#FFD43B">
    <circle cx="100" cy="130" r="8" />
    <circle cx="400" cy="120" r="10" />
    <circle cx="430" cy="330" r="7" />
  </g>

  <!-- Number -->
  <g filter="url(#shadow-92)">
    <!-- Side -->
    <text x="256" y="215" 
          text-anchor="middle" 
          font-size="180" 
          font-weight="900" 
          font-family="Comic Sans MS, Arial Rounded MT Bold, sans-serif" 
          fill="url(#side-92)" 
          stroke="url(#side-92)" 
          stroke-width="18" 
          transform="translate(0, 12)">92</text>

    <!-- Front -->
    <text x="256" y="215" 
          text-anchor="middle" 
          font-size="180" 
          font-weight="900" 
          font-family="Comic Sans MS, Arial Rounded MT Bold, sans-serif" 
          fill="url(#front-92)" 
          stroke="url(#front-92)" 
          stroke-width="18">92</text>
  </g>

  <!-- Cute Sprout -->
  <g transform="translate(256 65)">
    <path d="M0 0 Q-4 -15 -8 -24" stroke="#8B5A2B" stroke-width="5" fill="none" />
    <path d="M-8 -24 C-28 -28 -30 -5 -10 0 Z" fill="url(#leaf-92)" />
    <path d="M-8 -24 C5 -35 22 -20 5 -5 Z" fill="url(#leaf-92)" />
  </g>

  <!-- Eyes -->
  <g>
    <circle cx="215" cy="180" r="18" fill="#222" />
    <circle cx="208" cy="172" r="6" fill="#FFF" />

    <circle cx="297" cy="180" r="18" fill="#222" />
    <circle cx="290" cy="172" r="6" fill="#FFF" />
  </g>

  <!-- Cheeks -->
  <ellipse cx="185" cy="210" rx="18" ry="12" fill="#FF6B81" opacity="0.45" />
  <ellipse cx="327" cy="210" rx="18" ry="12" fill="#FF6B81" opacity="0.45" />

  <!-- Smile -->
  <path d="M225 225 Q256 255 287 225" stroke="#7A1022" stroke-width="8" fill="none" stroke-linecap="round" />

  <!-- Counting Object -->
  <g>
    <polygon points="118.5,291.5 120.5,296.4 125.8,296.8 121.8,300.2 123.0,305.4 118.5,302.6 114.0,305.4 115.2,300.2 111.2,296.8 116.5,296.4" fill="#FFD43B" stroke="#e67e22" stroke-width="1.2" />
<polygon points="136.8,291.5 138.9,296.4 144.2,296.8 140.1,300.2 141.4,305.4 136.8,302.6 132.3,305.4 133.5,300.2 129.5,296.8 134.8,296.4" fill="#FFD43B" stroke="#e67e22" stroke-width="1.2" />
<polygon points="155.2,291.5 157.2,296.4 162.5,296.8 158.5,300.2 159.7,305.4 155.2,302.6 150.6,305.4 151.9,300.2 147.8,296.8 153.1,296.4" fill="#FFD43B" stroke="#e67e22" stroke-width="1.2" />
<polygon points="173.5,291.5 175.5,296.4 180.8,296.8 176.8,300.2 178.0,305.4 173.5,302.6 169.0,305.4 170.2,300.2 166.2,296.8 171.5,296.4" fill="#FFD43B" stroke="#e67e22" stroke-width="1.2" />
<polygon points="191.8,291.5 193.9,296.4 199.2,296.8 195.1,300.2 196.4,305.4 191.8,302.6 187.3,305.4 188.5,300.2 184.5,296.8 189.8,296.4" fill="#FFD43B" stroke="#e67e22" stroke-width="1.2" />
<polygon points="210.2,291.5 212.2,296.4 217.5,296.8 213.5,300.2 214.7,305.4 210.2,302.6 205.6,305.4 206.9,300.2 202.8,296.8 208.1,296.4" fill="#FFD43B" stroke="#e67e22" stroke-width="1.2" />
<polygon points="228.5,291.5 230.5,296.4 235.8,296.8 231.8,300.2 233.0,305.4 228.5,302.6 224.0,305.4 225.2,300.2 221.2,296.8 226.5,296.4" fill="#FFD43B" stroke="#e67e22" stroke-width="1.2" />
<polygon points="246.8,291.5 248.9,296.4 254.2,296.8 250.1,300.2 251.4,305.4 246.8,302.6 242.3,305.4 243.5,300.2 239.5,296.8 244.8,296.4" fill="#FFD43B" stroke="#e67e22" stroke-width="1.2" />
<polygon points="265.2,291.5 267.2,296.4 272.5,296.8 268.5,300.2 269.7,305.4 265.2,302.6 260.6,305.4 261.9,300.2 257.8,296.8 263.1,296.4" fill="#FFD43B" stroke="#e67e22" stroke-width="1.2" />
<polygon points="283.5,291.5 285.5,296.4 290.8,296.8 286.8,300.2 288.0,305.4 283.5,302.6 279.0,305.4 280.2,300.2 276.2,296.8 281.5,296.4" fill="#FFD43B" stroke="#e67e22" stroke-width="1.2" />
<polygon points="301.8,291.5 303.9,296.4 309.2,296.8 305.1,300.2 306.4,305.4 301.8,302.6 297.3,305.4 298.5,300.2 294.5,296.8 299.8,296.4" fill="#FFD43B" stroke="#e67e22" stroke-width="1.2" />
<polygon points="320.2,291.5 322.2,296.4 327.5,296.8 323.5,300.2 324.7,305.4 320.2,302.6 315.6,305.4 316.9,300.2 312.8,296.8 318.1,296.4" fill="#FFD43B" stroke="#e67e22" stroke-width="1.2" />
<polygon points="338.5,291.5 340.5,296.4 345.8,296.8 341.8,300.2 343.0,305.4 338.5,302.6 334.0,305.4 335.2,300.2 331.2,296.8 336.5,296.4" fill="#FFD43B" stroke="#e67e22" stroke-width="1.2" />
<polygon points="356.8,291.5 358.9,296.4 364.2,296.8 360.1,300.2 361.4,305.4 356.8,302.6 352.3,305.4 353.5,300.2 349.5,296.8 354.8,296.4" fill="#FFD43B" stroke="#e67e22" stroke-width="1.2" />
<polygon points="375.2,291.5 377.2,296.4 382.5,296.8 378.5,300.2 379.7,305.4 375.2,302.6 370.6,305.4 371.9,300.2 367.8,296.8 373.1,296.4" fill="#FFD43B" stroke="#e67e22" stroke-width="1.2" />
<polygon points="393.5,291.5 395.5,296.4 400.8,296.8 396.8,300.2 398.0,305.4 393.5,302.6 389.0,305.4 390.2,300.2 386.2,296.8 391.5,296.4" fill="#FFD43B" stroke="#e67e22" stroke-width="1.2" />
<polygon points="118.5,309.8 120.5,314.7 125.8,315.1 121.8,318.6 123.0,323.7 118.5,321.0 114.0,323.7 115.2,318.6 111.2,315.1 116.5,314.7" fill="#FFD43B" stroke="#e67e22" stroke-width="1.2" />
<polygon points="136.8,309.8 138.9,314.7 144.2,315.1 140.1,318.6 141.4,323.7 136.8,321.0 132.3,323.7 133.5,318.6 129.5,315.1 134.8,314.7" fill="#FFD43B" stroke="#e67e22" stroke-width="1.2" />
<polygon points="155.2,309.8 157.2,314.7 162.5,315.1 158.5,318.6 159.7,323.7 155.2,321.0 150.6,323.7 151.9,318.6 147.8,315.1 153.1,314.7" fill="#FFD43B" stroke="#e67e22" stroke-width="1.2" />
<polygon points="173.5,309.8 175.5,314.7 180.8,315.1 176.8,318.6 178.0,323.7 173.5,321.0 169.0,323.7 170.2,318.6 166.2,315.1 171.5,314.7" fill="#FFD43B" stroke="#e67e22" stroke-width="1.2" />
<polygon points="191.8,309.8 193.9,314.7 199.2,315.1 195.1,318.6 196.4,323.7 191.8,321.0 187.3,323.7 188.5,318.6 184.5,315.1 189.8,314.7" fill="#FFD43B" stroke="#e67e22" stroke-width="1.2" />
<polygon points="210.2,309.8 212.2,314.7 217.5,315.1 213.5,318.6 214.7,323.7 210.2,321.0 205.6,323.7 206.9,318.6 202.8,315.1 208.1,314.7" fill="#FFD43B" stroke="#e67e22" stroke-width="1.2" />
<polygon points="228.5,309.8 230.5,314.7 235.8,315.1 231.8,318.6 233.0,323.7 228.5,321.0 224.0,323.7 225.2,318.6 221.2,315.1 226.5,314.7" fill="#FFD43B" stroke="#e67e22" stroke-width="1.2" />
<polygon points="246.8,309.8 248.9,314.7 254.2,315.1 250.1,318.6 251.4,323.7 246.8,321.0 242.3,323.7 243.5,318.6 239.5,315.1 244.8,314.7" fill="#FFD43B" stroke="#e67e22" stroke-width="1.2" />
<polygon points="265.2,309.8 267.2,314.7 272.5,315.1 268.5,318.6 269.7,323.7 265.2,321.0 260.6,323.7 261.9,318.6 257.8,315.1 263.1,314.7" fill="#FFD43B" stroke="#e67e22" stroke-width="1.2" />
<polygon points="283.5,309.8 285.5,314.7 290.8,315.1 286.8,318.6 288.0,323.7 283.5,321.0 279.0,323.7 280.2,318.6 276.2,315.1 281.5,314.7" fill="#FFD43B" stroke="#e67e22" stroke-width="1.2" />
<polygon points="301.8,309.8 303.9,314.7 309.2,315.1 305.1,318.6 306.4,323.7 301.8,321.0 297.3,323.7 298.5,318.6 294.5,315.1 299.8,314.7" fill="#FFD43B" stroke="#e67e22" stroke-width="1.2" />
<polygon points="320.2,309.8 322.2,314.7 327.5,315.1 323.5,318.6 324.7,323.7 320.2,321.0 315.6,323.7 316.9,318.6 312.8,315.1 318.1,314.7" fill="#FFD43B" stroke="#e67e22" stroke-width="1.2" />
<polygon points="338.5,309.8 340.5,314.7 345.8,315.1 341.8,318.6 343.0,323.7 338.5,321.0 334.0,323.7 335.2,318.6 331.2,315.1 336.5,314.7" fill="#FFD43B" stroke="#e67e22" stroke-width="1.2" />
<polygon points="356.8,309.8 358.9,314.7 364.2,315.1 360.1,318.6 361.4,323.7 356.8,321.0 352.3,323.7 353.5,318.6 349.5,315.1 354.8,314.7" fill="#FFD43B" stroke="#e67e22" stroke-width="1.2" />
<polygon points="375.2,309.8 377.2,314.7 382.5,315.1 378.5,318.6 379.7,323.7 375.2,321.0 370.6,323.7 371.9,318.6 367.8,315.1 373.1,314.7" fill="#FFD43B" stroke="#e67e22" stroke-width="1.2" />
<polygon points="393.5,309.8 395.5,314.7 400.8,315.1 396.8,318.6 398.0,323.7 393.5,321.0 389.0,323.7 390.2,318.6 386.2,315.1 391.5,314.7" fill="#FFD43B" stroke="#e67e22" stroke-width="1.2" />
<polygon points="118.5,328.1 120.5,333.0 125.8,333.5 121.8,336.9 123.0,342.1 118.5,339.3 114.0,342.1 115.2,336.9 111.2,333.5 116.5,333.0" fill="#FFD43B" stroke="#e67e22" stroke-width="1.2" />
<polygon points="136.8,328.1 138.9,333.0 144.2,333.5 140.1,336.9 141.4,342.1 136.8,339.3 132.3,342.1 133.5,336.9 129.5,333.5 134.8,333.0" fill="#FFD43B" stroke="#e67e22" stroke-width="1.2" />
<polygon points="155.2,328.1 157.2,333.0 162.5,333.5 158.5,336.9 159.7,342.1 155.2,339.3 150.6,342.1 151.9,336.9 147.8,333.5 153.1,333.0" fill="#FFD43B" stroke="#e67e22" stroke-width="1.2" />
<polygon points="173.5,328.1 175.5,333.0 180.8,333.5 176.8,336.9 178.0,342.1 173.5,339.3 169.0,342.1 170.2,336.9 166.2,333.5 171.5,333.0" fill="#FFD43B" stroke="#e67e22" stroke-width="1.2" />
<polygon points="191.8,328.1 193.9,333.0 199.2,333.5 195.1,336.9 196.4,342.1 191.8,339.3 187.3,342.1 188.5,336.9 184.5,333.5 189.8,333.0" fill="#FFD43B" stroke="#e67e22" stroke-width="1.2" />
<polygon points="210.2,328.1 212.2,333.0 217.5,333.5 213.5,336.9 214.7,342.1 210.2,339.3 205.6,342.1 206.9,336.9 202.8,333.5 208.1,333.0" fill="#FFD43B" stroke="#e67e22" stroke-width="1.2" />
<polygon points="228.5,328.1 230.5,333.0 235.8,333.5 231.8,336.9 233.0,342.1 228.5,339.3 224.0,342.1 225.2,336.9 221.2,333.5 226.5,333.0" fill="#FFD43B" stroke="#e67e22" stroke-width="1.2" />
<polygon points="246.8,328.1 248.9,333.0 254.2,333.5 250.1,336.9 251.4,342.1 246.8,339.3 242.3,342.1 243.5,336.9 239.5,333.5 244.8,333.0" fill="#FFD43B" stroke="#e67e22" stroke-width="1.2" />
<polygon points="265.2,328.1 267.2,333.0 272.5,333.5 268.5,336.9 269.7,342.1 265.2,339.3 260.6,342.1 261.9,336.9 257.8,333.5 263.1,333.0" fill="#FFD43B" stroke="#e67e22" stroke-width="1.2" />
<polygon points="283.5,328.1 285.5,333.0 290.8,333.5 286.8,336.9 288.0,342.1 283.5,339.3 279.0,342.1 280.2,336.9 276.2,333.5 281.5,333.0" fill="#FFD43B" stroke="#e67e22" stroke-width="1.2" />
<polygon points="301.8,328.1 303.9,333.0 309.2,333.5 305.1,336.9 306.4,342.1 301.8,339.3 297.3,342.1 298.5,336.9 294.5,333.5 299.8,333.0" fill="#FFD43B" stroke="#e67e22" stroke-width="1.2" />
<polygon points="320.2,328.1 322.2,333.0 327.5,333.5 323.5,336.9 324.7,342.1 320.2,339.3 315.6,342.1 316.9,336.9 312.8,333.5 318.1,333.0" fill="#FFD43B" stroke="#e67e22" stroke-width="1.2" />
<polygon points="338.5,328.1 340.5,333.0 345.8,333.5 341.8,336.9 343.0,342.1 338.5,339.3 334.0,342.1 335.2,336.9 331.2,333.5 336.5,333.0" fill="#FFD43B" stroke="#e67e22" stroke-width="1.2" />
<polygon points="356.8,328.1 358.9,333.0 364.2,333.5 360.1,336.9 361.4,342.1 356.8,339.3 352.3,342.1 353.5,336.9 349.5,333.5 354.8,333.0" fill="#FFD43B" stroke="#e67e22" stroke-width="1.2" />
<polygon points="375.2,328.1 377.2,333.0 382.5,333.5 378.5,336.9 379.7,342.1 375.2,339.3 370.6,342.1 371.9,336.9 367.8,333.5 373.1,333.0" fill="#FFD43B" stroke="#e67e22" stroke-width="1.2" />
<polygon points="393.5,328.1 395.5,333.0 400.8,333.5 396.8,336.9 398.0,342.1 393.5,339.3 389.0,342.1 390.2,336.9 386.2,333.5 391.5,333.0" fill="#FFD43B" stroke="#e67e22" stroke-width="1.2" />
<polygon points="118.5,346.5 120.5,351.4 125.8,351.8 121.8,355.2 123.0,360.4 118.5,357.6 114.0,360.4 115.2,355.2 111.2,351.8 116.5,351.4" fill="#FFD43B" stroke="#e67e22" stroke-width="1.2" />
<polygon points="136.8,346.5 138.9,351.4 144.2,351.8 140.1,355.2 141.4,360.4 136.8,357.6 132.3,360.4 133.5,355.2 129.5,351.8 134.8,351.4" fill="#FFD43B" stroke="#e67e22" stroke-width="1.2" />
<polygon points="155.2,346.5 157.2,351.4 162.5,351.8 158.5,355.2 159.7,360.4 155.2,357.6 150.6,360.4 151.9,355.2 147.8,351.8 153.1,351.4" fill="#FFD43B" stroke="#e67e22" stroke-width="1.2" />
<polygon points="173.5,346.5 175.5,351.4 180.8,351.8 176.8,355.2 178.0,360.4 173.5,357.6 169.0,360.4 170.2,355.2 166.2,351.8 171.5,351.4" fill="#FFD43B" stroke="#e67e22" stroke-width="1.2" />
<polygon points="191.8,346.5 193.9,351.4 199.2,351.8 195.1,355.2 196.4,360.4 191.8,357.6 187.3,360.4 188.5,355.2 184.5,351.8 189.8,351.4" fill="#FFD43B" stroke="#e67e22" stroke-width="1.2" />
<polygon points="210.2,346.5 212.2,351.4 217.5,351.8 213.5,355.2 214.7,360.4 210.2,357.6 205.6,360.4 206.9,355.2 202.8,351.8 208.1,351.4" fill="#FFD43B" stroke="#e67e22" stroke-width="1.2" />
<polygon points="228.5,346.5 230.5,351.4 235.8,351.8 231.8,355.2 233.0,360.4 228.5,357.6 224.0,360.4 225.2,355.2 221.2,351.8 226.5,351.4" fill="#FFD43B" stroke="#e67e22" stroke-width="1.2" />
<polygon points="246.8,346.5 248.9,351.4 254.2,351.8 250.1,355.2 251.4,360.4 246.8,357.6 242.3,360.4 243.5,355.2 239.5,351.8 244.8,351.4" fill="#FFD43B" stroke="#e67e22" stroke-width="1.2" />
<polygon points="265.2,346.5 267.2,351.4 272.5,351.8 268.5,355.2 269.7,360.4 265.2,357.6 260.6,360.4 261.9,355.2 257.8,351.8 263.1,351.4" fill="#FFD43B" stroke="#e67e22" stroke-width="1.2" />
<polygon points="283.5,346.5 285.5,351.4 290.8,351.8 286.8,355.2 288.0,360.4 283.5,357.6 279.0,360.4 280.2,355.2 276.2,351.8 281.5,351.4" fill="#FFD43B" stroke="#e67e22" stroke-width="1.2" />
<polygon points="301.8,346.5 303.9,351.4 309.2,351.8 305.1,355.2 306.4,360.4 301.8,357.6 297.3,360.4 298.5,355.2 294.5,351.8 299.8,351.4" fill="#FFD43B" stroke="#e67e22" stroke-width="1.2" />
<polygon points="320.2,346.5 322.2,351.4 327.5,351.8 323.5,355.2 324.7,360.4 320.2,357.6 315.6,360.4 316.9,355.2 312.8,351.8 318.1,351.4" fill="#FFD43B" stroke="#e67e22" stroke-width="1.2" />
<polygon points="338.5,346.5 340.5,351.4 345.8,351.8 341.8,355.2 343.0,360.4 338.5,357.6 334.0,360.4 335.2,355.2 331.2,351.8 336.5,351.4" fill="#FFD43B" stroke="#e67e22" stroke-width="1.2" />
<polygon points="356.8,346.5 358.9,351.4 364.2,351.8 360.1,355.2 361.4,360.4 356.8,357.6 352.3,360.4 353.5,355.2 349.5,351.8 354.8,351.4" fill="#FFD43B" stroke="#e67e22" stroke-width="1.2" />
<polygon points="375.2,346.5 377.2,351.4 382.5,351.8 378.5,355.2 379.7,360.4 375.2,357.6 370.6,360.4 371.9,355.2 367.8,351.8 373.1,351.4" fill="#FFD43B" stroke="#e67e22" stroke-width="1.2" />
<polygon points="393.5,346.5 395.5,351.4 400.8,351.8 396.8,355.2 398.0,360.4 393.5,357.6 389.0,360.4 390.2,355.2 386.2,351.8 391.5,351.4" fill="#FFD43B" stroke="#e67e22" stroke-width="1.2" />
<polygon points="118.5,364.8 120.5,369.7 125.8,370.1 121.8,373.6 123.0,378.7 118.5,376.0 114.0,378.7 115.2,373.6 111.2,370.1 116.5,369.7" fill="#FFD43B" stroke="#e67e22" stroke-width="1.2" />
<polygon points="136.8,364.8 138.9,369.7 144.2,370.1 140.1,373.6 141.4,378.7 136.8,376.0 132.3,378.7 133.5,373.6 129.5,370.1 134.8,369.7" fill="#FFD43B" stroke="#e67e22" stroke-width="1.2" />
<polygon points="155.2,364.8 157.2,369.7 162.5,370.1 158.5,373.6 159.7,378.7 155.2,376.0 150.6,378.7 151.9,373.6 147.8,370.1 153.1,369.7" fill="#FFD43B" stroke="#e67e22" stroke-width="1.2" />
<polygon points="173.5,364.8 175.5,369.7 180.8,370.1 176.8,373.6 178.0,378.7 173.5,376.0 169.0,378.7 170.2,373.6 166.2,370.1 171.5,369.7" fill="#FFD43B" stroke="#e67e22" stroke-width="1.2" />
<polygon points="191.8,364.8 193.9,369.7 199.2,370.1 195.1,373.6 196.4,378.7 191.8,376.0 187.3,378.7 188.5,373.6 184.5,370.1 189.8,369.7" fill="#FFD43B" stroke="#e67e22" stroke-width="1.2" />
<polygon points="210.2,364.8 212.2,369.7 217.5,370.1 213.5,373.6 214.7,378.7 210.2,376.0 205.6,378.7 206.9,373.6 202.8,370.1 208.1,369.7" fill="#FFD43B" stroke="#e67e22" stroke-width="1.2" />
<polygon points="228.5,364.8 230.5,369.7 235.8,370.1 231.8,373.6 233.0,378.7 228.5,376.0 224.0,378.7 225.2,373.6 221.2,370.1 226.5,369.7" fill="#FFD43B" stroke="#e67e22" stroke-width="1.2" />
<polygon points="246.8,364.8 248.9,369.7 254.2,370.1 250.1,373.6 251.4,378.7 246.8,376.0 242.3,378.7 243.5,373.6 239.5,370.1 244.8,369.7" fill="#FFD43B" stroke="#e67e22" stroke-width="1.2" />
<polygon points="265.2,364.8 267.2,369.7 272.5,370.1 268.5,373.6 269.7,378.7 265.2,376.0 260.6,378.7 261.9,373.6 257.8,370.1 263.1,369.7" fill="#FFD43B" stroke="#e67e22" stroke-width="1.2" />
<polygon points="283.5,364.8 285.5,369.7 290.8,370.1 286.8,373.6 288.0,378.7 283.5,376.0 279.0,378.7 280.2,373.6 276.2,370.1 281.5,369.7" fill="#FFD43B" stroke="#e67e22" stroke-width="1.2" />
<polygon points="301.8,364.8 303.9,369.7 309.2,370.1 305.1,373.6 306.4,378.7 301.8,376.0 297.3,378.7 298.5,373.6 294.5,370.1 299.8,369.7" fill="#FFD43B" stroke="#e67e22" stroke-width="1.2" />
<polygon points="320.2,364.8 322.2,369.7 327.5,370.1 323.5,373.6 324.7,378.7 320.2,376.0 315.6,378.7 316.9,373.6 312.8,370.1 318.1,369.7" fill="#FFD43B" stroke="#e67e22" stroke-width="1.2" />
<polygon points="338.5,364.8 340.5,369.7 345.8,370.1 341.8,373.6 343.0,378.7 338.5,376.0 334.0,378.7 335.2,373.6 331.2,370.1 336.5,369.7" fill="#FFD43B" stroke="#e67e22" stroke-width="1.2" />
<polygon points="356.8,364.8 358.9,369.7 364.2,370.1 360.1,373.6 361.4,378.7 356.8,376.0 352.3,378.7 353.5,373.6 349.5,370.1 354.8,369.7" fill="#FFD43B" stroke="#e67e22" stroke-width="1.2" />
<polygon points="375.2,364.8 377.2,369.7 382.5,370.1 378.5,373.6 379.7,378.7 375.2,376.0 370.6,378.7 371.9,373.6 367.8,370.1 373.1,369.7" fill="#FFD43B" stroke="#e67e22" stroke-width="1.2" />
<polygon points="393.5,364.8 395.5,369.7 400.8,370.1 396.8,373.6 398.0,378.7 393.5,376.0 389.0,378.7 390.2,373.6 386.2,370.1 391.5,369.7" fill="#FFD43B" stroke="#e67e22" stroke-width="1.2" />
<polygon points="118.5,383.1 120.5,388.0 125.8,388.5 121.8,391.9 123.0,397.1 118.5,394.3 114.0,397.1 115.2,391.9 111.2,388.5 116.5,388.0" fill="#FFD43B" stroke="#e67e22" stroke-width="1.2" />
<polygon points="136.8,383.1 138.9,388.0 144.2,388.5 140.1,391.9 141.4,397.1 136.8,394.3 132.3,397.1 133.5,391.9 129.5,388.5 134.8,388.0" fill="#FFD43B" stroke="#e67e22" stroke-width="1.2" />
<polygon points="155.2,383.1 157.2,388.0 162.5,388.5 158.5,391.9 159.7,397.1 155.2,394.3 150.6,397.1 151.9,391.9 147.8,388.5 153.1,388.0" fill="#FFD43B" stroke="#e67e22" stroke-width="1.2" />
<polygon points="173.5,383.1 175.5,388.0 180.8,388.5 176.8,391.9 178.0,397.1 173.5,394.3 169.0,397.1 170.2,391.9 166.2,388.5 171.5,388.0" fill="#FFD43B" stroke="#e67e22" stroke-width="1.2" />
<polygon points="191.8,383.1 193.9,388.0 199.2,388.5 195.1,391.9 196.4,397.1 191.8,394.3 187.3,397.1 188.5,391.9 184.5,388.5 189.8,388.0" fill="#FFD43B" stroke="#e67e22" stroke-width="1.2" />
<polygon points="210.2,383.1 212.2,388.0 217.5,388.5 213.5,391.9 214.7,397.1 210.2,394.3 205.6,397.1 206.9,391.9 202.8,388.5 208.1,388.0" fill="#FFD43B" stroke="#e67e22" stroke-width="1.2" />
<polygon points="228.5,383.1 230.5,388.0 235.8,388.5 231.8,391.9 233.0,397.1 228.5,394.3 224.0,397.1 225.2,391.9 221.2,388.5 226.5,388.0" fill="#FFD43B" stroke="#e67e22" stroke-width="1.2" />
<polygon points="246.8,383.1 248.9,388.0 254.2,388.5 250.1,391.9 251.4,397.1 246.8,394.3 242.3,397.1 243.5,391.9 239.5,388.5 244.8,388.0" fill="#FFD43B" stroke="#e67e22" stroke-width="1.2" />
<polygon points="265.2,383.1 267.2,388.0 272.5,388.5 268.5,391.9 269.7,397.1 265.2,394.3 260.6,397.1 261.9,391.9 257.8,388.5 263.1,388.0" fill="#FFD43B" stroke="#e67e22" stroke-width="1.2" />
<polygon points="283.5,383.1 285.5,388.0 290.8,388.5 286.8,391.9 288.0,397.1 283.5,394.3 279.0,397.1 280.2,391.9 276.2,388.5 281.5,388.0" fill="#FFD43B" stroke="#e67e22" stroke-width="1.2" />
<polygon points="301.8,383.1 303.9,388.0 309.2,388.5 305.1,391.9 306.4,397.1 301.8,394.3 297.3,397.1 298.5,391.9 294.5,388.5 299.8,388.0" fill="#FFD43B" stroke="#e67e22" stroke-width="1.2" />
<polygon points="320.2,383.1 322.2,388.0 327.5,388.5 323.5,391.9 324.7,397.1 320.2,394.3 315.6,397.1 316.9,391.9 312.8,388.5 318.1,388.0" fill="#FFD43B" stroke="#e67e22" stroke-width="1.2" />
  </g>

  <!-- Bottom Banner -->
  <g filter="url(#shadow-92)">
    <rect x="96" y="420" width="320" height="54" rx="27" fill="#FFF" stroke="#eac6da" stroke-width="4" />
    <text x="256" y="455" 
          text-anchor="middle" 
          font-size="28" 
          font-weight="900" 
          font-family="Comic Sans MS, Arial Rounded MT Bold, sans-serif" 
          fill="#7C5730">92 - Ninety Two</text>
  </g>
</svg>