<svg xmlns="http://www.w3.org/2000/svg" viewBox="0 0 512 512" width="100%" height="100%">
  <defs>
    <!-- Background Gradient -->
    <linearGradient id="bg-93" x1="0%" y1="0%" x2="0%" y2="100%">
      <stop offset="0%" stop-color="#fff9fc" />
      <stop offset="100%" stop-color="#ffeff7" />
    </linearGradient>

    <!-- Front Face Gradient -->
    <linearGradient id="front-93" x1="0%" y1="0%" x2="0%" y2="100%">
      <stop offset="0%" stop-color="#ff89c2" />
      <stop offset="100%" stop-color="#f40076" />
    </linearGradient>

    <!-- 3D Side/Extrusion Color -->
    <linearGradient id="side-93" x1="0%" y1="0%" x2="0%" y2="100%">
      <stop offset="0%" stop-color="#c1005d" />
      <stop offset="100%" stop-color="#8e0045" />
    </linearGradient>

    <!-- Leaf Sprout Gradient -->
    <linearGradient id="leaf-93" x1="0%" y1="0%" x2="100%" y2="100%">
      <stop offset="0%" stop-color="#7BED9F" />
      <stop offset="100%" stop-color="#2ED573" />
    </linearGradient>

    <!-- 3D Base Shadow -->
    <filter id="shadow-93">
      <feDropShadow dx="0" dy="10" stdDeviation="8" flood-color="#000000" flood-opacity="0.25" />
    </filter>
  </defs>

  <!-- Background -->
  <circle cx="256" cy="256" r="236" fill="url(#bg-93)" stroke="#eac6d8" stroke-width="6" />

  <!-- Sparkles -->
  <g fill="#FFD43B">
    <circle cx="100" cy="130" r="8" />
    <circle cx="400" cy="120" r="10" />
    <circle cx="430" cy="330" r="7" />
  </g>

  <!-- Number -->
  <g filter="url(#shadow-93)">
    <!-- Side -->
    <text x="256" y="215" 
          text-anchor="middle" 
          font-size="180" 
          font-weight="900" 
          font-family="Comic Sans MS, Arial Rounded MT Bold, sans-serif" 
          fill="url(#side-93)" 
          stroke="url(#side-93)" 
          stroke-width="18" 
          transform="translate(0, 12)">93</text>

    <!-- Front -->
    <text x="256" y="215" 
          text-anchor="middle" 
          font-size="180" 
          font-weight="900" 
          font-family="Comic Sans MS, Arial Rounded MT Bold, sans-serif" 
          fill="url(#front-93)" 
          stroke="url(#front-93)" 
          stroke-width="18">93</text>
  </g>

  <!-- Cute Sprout -->
  <g transform="translate(256 65)">
    <path d="M0 0 Q-4 -15 -8 -24" stroke="#8B5A2B" stroke-width="5" fill="none" />
    <path d="M-8 -24 C-28 -28 -30 -5 -10 0 Z" fill="url(#leaf-93)" />
    <path d="M-8 -24 C5 -35 22 -20 5 -5 Z" fill="url(#leaf-93)" />
  </g>

  <!-- Eyes -->
  <g>
    <circle cx="215" cy="180" r="18" fill="#222" />
    <circle cx="208" cy="172" r="6" fill="#FFF" />

    <circle cx="297" cy="180" r="18" fill="#222" />
    <circle cx="290" cy="172" r="6" fill="#FFF" />
  </g>

  <!-- Cheeks -->
  <ellipse cx="185" cy="210" rx="18" ry="12" fill="#FF6B81" opacity="0.45" />
  <ellipse cx="327" cy="210" rx="18" ry="12" fill="#FF6B81" opacity="0.45" />

  <!-- Smile -->
  <path d="M225 225 Q256 255 287 225" stroke="#7A1022" stroke-width="8" fill="none" stroke-linecap="round" />

  <!-- Counting Object -->
  <g>
    <circle cx="118.5" cy="297.6" r="6.2" fill="#3498db" /><polygon points="118.5,303.8 117.3,305.3 119.7,305.3" fill="#3498db" /><path d="M 118.5 305.3 Q 117.0 309.2 118.5 313.0" stroke="#b2bec3" stroke-width="1.5" fill="none" />
<circle cx="136.8" cy="297.6" r="6.2" fill="#3498db" /><polygon points="136.8,303.8 135.7,305.3 138.0,305.3" fill="#3498db" /><path d="M 136.8 305.3 Q 135.3 309.2 136.8 313.0" stroke="#b2bec3" stroke-width="1.5" fill="none" />
<circle cx="155.2" cy="297.6" r="6.2" fill="#3498db" /><polygon points="155.2,303.8 154.0,305.3 156.3,305.3" fill="#3498db" /><path d="M 155.2 305.3 Q 153.6 309.2 155.2 313.0" stroke="#b2bec3" stroke-width="1.5" fill="none" />
<circle cx="173.5" cy="297.6" r="6.2" fill="#3498db" /><polygon points="173.5,303.8 172.3,305.3 174.7,305.3" fill="#3498db" /><path d="M 173.5 305.3 Q 172.0 309.2 173.5 313.0" stroke="#b2bec3" stroke-width="1.5" fill="none" />
<circle cx="191.8" cy="297.6" r="6.2" fill="#3498db" /><polygon points="191.8,303.8 190.7,305.3 193.0,305.3" fill="#3498db" /><path d="M 191.8 305.3 Q 190.3 309.2 191.8 313.0" stroke="#b2bec3" stroke-width="1.5" fill="none" />
<circle cx="210.2" cy="297.6" r="6.2" fill="#3498db" /><polygon points="210.2,303.8 209.0,305.3 211.3,305.3" fill="#3498db" /><path d="M 210.2 305.3 Q 208.6 309.2 210.2 313.0" stroke="#b2bec3" stroke-width="1.5" fill="none" />
<circle cx="228.5" cy="297.6" r="6.2" fill="#3498db" /><polygon points="228.5,303.8 227.3,305.3 229.7,305.3" fill="#3498db" /><path d="M 228.5 305.3 Q 227.0 309.2 228.5 313.0" stroke="#b2bec3" stroke-width="1.5" fill="none" />
<circle cx="246.8" cy="297.6" r="6.2" fill="#3498db" /><polygon points="246.8,303.8 245.7,305.3 248.0,305.3" fill="#3498db" /><path d="M 246.8 305.3 Q 245.3 309.2 246.8 313.0" stroke="#b2bec3" stroke-width="1.5" fill="none" />
<circle cx="265.2" cy="297.6" r="6.2" fill="#3498db" /><polygon points="265.2,303.8 264.0,305.3 266.3,305.3" fill="#3498db" /><path d="M 265.2 305.3 Q 263.6 309.2 265.2 313.0" stroke="#b2bec3" stroke-width="1.5" fill="none" />
<circle cx="283.5" cy="297.6" r="6.2" fill="#3498db" /><polygon points="283.5,303.8 282.3,305.3 284.7,305.3" fill="#3498db" /><path d="M 283.5 305.3 Q 282.0 309.2 283.5 313.0" stroke="#b2bec3" stroke-width="1.5" fill="none" />
<circle cx="301.8" cy="297.6" r="6.2" fill="#3498db" /><polygon points="301.8,303.8 300.7,305.3 303.0,305.3" fill="#3498db" /><path d="M 301.8 305.3 Q 300.3 309.2 301.8 313.0" stroke="#b2bec3" stroke-width="1.5" fill="none" />
<circle cx="320.2" cy="297.6" r="6.2" fill="#3498db" /><polygon points="320.2,303.8 319.0,305.3 321.3,305.3" fill="#3498db" /><path d="M 320.2 305.3 Q 318.6 309.2 320.2 313.0" stroke="#b2bec3" stroke-width="1.5" fill="none" />
<circle cx="338.5" cy="297.6" r="6.2" fill="#3498db" /><polygon points="338.5,303.8 337.3,305.3 339.7,305.3" fill="#3498db" /><path d="M 338.5 305.3 Q 337.0 309.2 338.5 313.0" stroke="#b2bec3" stroke-width="1.5" fill="none" />
<circle cx="356.8" cy="297.6" r="6.2" fill="#3498db" /><polygon points="356.8,303.8 355.7,305.3 358.0,305.3" fill="#3498db" /><path d="M 356.8 305.3 Q 355.3 309.2 356.8 313.0" stroke="#b2bec3" stroke-width="1.5" fill="none" />
<circle cx="375.2" cy="297.6" r="6.2" fill="#3498db" /><polygon points="375.2,303.8 374.0,305.3 376.3,305.3" fill="#3498db" /><path d="M 375.2 305.3 Q 373.6 309.2 375.2 313.0" stroke="#b2bec3" stroke-width="1.5" fill="none" />
<circle cx="393.5" cy="297.6" r="6.2" fill="#3498db" /><polygon points="393.5,303.8 392.3,305.3 394.7,305.3" fill="#3498db" /><path d="M 393.5 305.3 Q 392.0 309.2 393.5 313.0" stroke="#b2bec3" stroke-width="1.5" fill="none" />
<circle cx="118.5" cy="316.0" r="6.2" fill="#3498db" /><polygon points="118.5,322.1 117.3,323.7 119.7,323.7" fill="#3498db" /><path d="M 118.5 323.7 Q 117.0 327.5 118.5 331.4" stroke="#b2bec3" stroke-width="1.5" fill="none" />
<circle cx="136.8" cy="316.0" r="6.2" fill="#3498db" /><polygon points="136.8,322.1 135.7,323.7 138.0,323.7" fill="#3498db" /><path d="M 136.8 323.7 Q 135.3 327.5 136.8 331.4" stroke="#b2bec3" stroke-width="1.5" fill="none" />
<circle cx="155.2" cy="316.0" r="6.2" fill="#3498db" /><polygon points="155.2,322.1 154.0,323.7 156.3,323.7" fill="#3498db" /><path d="M 155.2 323.7 Q 153.6 327.5 155.2 331.4" stroke="#b2bec3" stroke-width="1.5" fill="none" />
<circle cx="173.5" cy="316.0" r="6.2" fill="#3498db" /><polygon points="173.5,322.1 172.3,323.7 174.7,323.7" fill="#3498db" /><path d="M 173.5 323.7 Q 172.0 327.5 173.5 331.4" stroke="#b2bec3" stroke-width="1.5" fill="none" />
<circle cx="191.8" cy="316.0" r="6.2" fill="#3498db" /><polygon points="191.8,322.1 190.7,323.7 193.0,323.7" fill="#3498db" /><path d="M 191.8 323.7 Q 190.3 327.5 191.8 331.4" stroke="#b2bec3" stroke-width="1.5" fill="none" />
<circle cx="210.2" cy="316.0" r="6.2" fill="#3498db" /><polygon points="210.2,322.1 209.0,323.7 211.3,323.7" fill="#3498db" /><path d="M 210.2 323.7 Q 208.6 327.5 210.2 331.4" stroke="#b2bec3" stroke-width="1.5" fill="none" />
<circle cx="228.5" cy="316.0" r="6.2" fill="#3498db" /><polygon points="228.5,322.1 227.3,323.7 229.7,323.7" fill="#3498db" /><path d="M 228.5 323.7 Q 227.0 327.5 228.5 331.4" stroke="#b2bec3" stroke-width="1.5" fill="none" />
<circle cx="246.8" cy="316.0" r="6.2" fill="#3498db" /><polygon points="246.8,322.1 245.7,323.7 248.0,323.7" fill="#3498db" /><path d="M 246.8 323.7 Q 245.3 327.5 246.8 331.4" stroke="#b2bec3" stroke-width="1.5" fill="none" />
<circle cx="265.2" cy="316.0" r="6.2" fill="#3498db" /><polygon points="265.2,322.1 264.0,323.7 266.3,323.7" fill="#3498db" /><path d="M 265.2 323.7 Q 263.6 327.5 265.2 331.4" stroke="#b2bec3" stroke-width="1.5" fill="none" />
<circle cx="283.5" cy="316.0" r="6.2" fill="#3498db" /><polygon points="283.5,322.1 282.3,323.7 284.7,323.7" fill="#3498db" /><path d="M 283.5 323.7 Q 282.0 327.5 283.5 331.4" stroke="#b2bec3" stroke-width="1.5" fill="none" />
<circle cx="301.8" cy="316.0" r="6.2" fill="#3498db" /><polygon points="301.8,322.1 300.7,323.7 303.0,323.7" fill="#3498db" /><path d="M 301.8 323.7 Q 300.3 327.5 301.8 331.4" stroke="#b2bec3" stroke-width="1.5" fill="none" />
<circle cx="320.2" cy="316.0" r="6.2" fill="#3498db" /><polygon points="320.2,322.1 319.0,323.7 321.3,323.7" fill="#3498db" /><path d="M 320.2 323.7 Q 318.6 327.5 320.2 331.4" stroke="#b2bec3" stroke-width="1.5" fill="none" />
<circle cx="338.5" cy="316.0" r="6.2" fill="#3498db" /><polygon points="338.5,322.1 337.3,323.7 339.7,323.7" fill="#3498db" /><path d="M 338.5 323.7 Q 337.0 327.5 338.5 331.4" stroke="#b2bec3" stroke-width="1.5" fill="none" />
<circle cx="356.8" cy="316.0" r="6.2" fill="#3498db" /><polygon points="356.8,322.1 355.7,323.7 358.0,323.7" fill="#3498db" /><path d="M 356.8 323.7 Q 355.3 327.5 356.8 331.4" stroke="#b2bec3" stroke-width="1.5" fill="none" />
<circle cx="375.2" cy="316.0" r="6.2" fill="#3498db" /><polygon points="375.2,322.1 374.0,323.7 376.3,323.7" fill="#3498db" /><path d="M 375.2 323.7 Q 373.6 327.5 375.2 331.4" stroke="#b2bec3" stroke-width="1.5" fill="none" />
<circle cx="393.5" cy="316.0" r="6.2" fill="#3498db" /><polygon points="393.5,322.1 392.3,323.7 394.7,323.7" fill="#3498db" /><path d="M 393.5 323.7 Q 392.0 327.5 393.5 331.4" stroke="#b2bec3" stroke-width="1.5" fill="none" />
<circle cx="118.5" cy="334.3" r="6.2" fill="#3498db" /><polygon points="118.5,340.5 117.3,342.0 119.7,342.0" fill="#3498db" /><path d="M 118.5 342.0 Q 117.0 345.8 118.5 349.7" stroke="#b2bec3" stroke-width="1.5" fill="none" />
<circle cx="136.8" cy="334.3" r="6.2" fill="#3498db" /><polygon points="136.8,340.5 135.7,342.0 138.0,342.0" fill="#3498db" /><path d="M 136.8 342.0 Q 135.3 345.8 136.8 349.7" stroke="#b2bec3" stroke-width="1.5" fill="none" />
<circle cx="155.2" cy="334.3" r="6.2" fill="#3498db" /><polygon points="155.2,340.5 154.0,342.0 156.3,342.0" fill="#3498db" /><path d="M 155.2 342.0 Q 153.6 345.8 155.2 349.7" stroke="#b2bec3" stroke-width="1.5" fill="none" />
<circle cx="173.5" cy="334.3" r="6.2" fill="#3498db" /><polygon points="173.5,340.5 172.3,342.0 174.7,342.0" fill="#3498db" /><path d="M 173.5 342.0 Q 172.0 345.8 173.5 349.7" stroke="#b2bec3" stroke-width="1.5" fill="none" />
<circle cx="191.8" cy="334.3" r="6.2" fill="#3498db" /><polygon points="191.8,340.5 190.7,342.0 193.0,342.0" fill="#3498db" /><path d="M 191.8 342.0 Q 190.3 345.8 191.8 349.7" stroke="#b2bec3" stroke-width="1.5" fill="none" />
<circle cx="210.2" cy="334.3" r="6.2" fill="#3498db" /><polygon points="210.2,340.5 209.0,342.0 211.3,342.0" fill="#3498db" /><path d="M 210.2 342.0 Q 208.6 345.8 210.2 349.7" stroke="#b2bec3" stroke-width="1.5" fill="none" />
<circle cx="228.5" cy="334.3" r="6.2" fill="#3498db" /><polygon points="228.5,340.5 227.3,342.0 229.7,342.0" fill="#3498db" /><path d="M 228.5 342.0 Q 227.0 345.8 228.5 349.7" stroke="#b2bec3" stroke-width="1.5" fill="none" />
<circle cx="246.8" cy="334.3" r="6.2" fill="#3498db" /><polygon points="246.8,340.5 245.7,342.0 248.0,342.0" fill="#3498db" /><path d="M 246.8 342.0 Q 245.3 345.8 246.8 349.7" stroke="#b2bec3" stroke-width="1.5" fill="none" />
<circle cx="265.2" cy="334.3" r="6.2" fill="#3498db" /><polygon points="265.2,340.5 264.0,342.0 266.3,342.0" fill="#3498db" /><path d="M 265.2 342.0 Q 263.6 345.8 265.2 349.7" stroke="#b2bec3" stroke-width="1.5" fill="none" />
<circle cx="283.5" cy="334.3" r="6.2" fill="#3498db" /><polygon points="283.5,340.5 282.3,342.0 284.7,342.0" fill="#3498db" /><path d="M 283.5 342.0 Q 282.0 345.8 283.5 349.7" stroke="#b2bec3" stroke-width="1.5" fill="none" />
<circle cx="301.8" cy="334.3" r="6.2" fill="#3498db" /><polygon points="301.8,340.5 300.7,342.0 303.0,342.0" fill="#3498db" /><path d="M 301.8 342.0 Q 300.3 345.8 301.8 349.7" stroke="#b2bec3" stroke-width="1.5" fill="none" />
<circle cx="320.2" cy="334.3" r="6.2" fill="#3498db" /><polygon points="320.2,340.5 319.0,342.0 321.3,342.0" fill="#3498db" /><path d="M 320.2 342.0 Q 318.6 345.8 320.2 349.7" stroke="#b2bec3" stroke-width="1.5" fill="none" />
<circle cx="338.5" cy="334.3" r="6.2" fill="#3498db" /><polygon points="338.5,340.5 337.3,342.0 339.7,342.0" fill="#3498db" /><path d="M 338.5 342.0 Q 337.0 345.8 338.5 349.7" stroke="#b2bec3" stroke-width="1.5" fill="none" />
<circle cx="356.8" cy="334.3" r="6.2" fill="#3498db" /><polygon points="356.8,340.5 355.7,342.0 358.0,342.0" fill="#3498db" /><path d="M 356.8 342.0 Q 355.3 345.8 356.8 349.7" stroke="#b2bec3" stroke-width="1.5" fill="none" />
<circle cx="375.2" cy="334.3" r="6.2" fill="#3498db" /><polygon points="375.2,340.5 374.0,342.0 376.3,342.0" fill="#3498db" /><path d="M 375.2 342.0 Q 373.6 345.8 375.2 349.7" stroke="#b2bec3" stroke-width="1.5" fill="none" />
<circle cx="393.5" cy="334.3" r="6.2" fill="#3498db" /><polygon points="393.5,340.5 392.3,342.0 394.7,342.0" fill="#3498db" /><path d="M 393.5 342.0 Q 392.0 345.8 393.5 349.7" stroke="#b2bec3" stroke-width="1.5" fill="none" />
<circle cx="118.5" cy="352.6" r="6.2" fill="#3498db" /><polygon points="118.5,358.8 117.3,360.3 119.7,360.3" fill="#3498db" /><path d="M 118.5 360.3 Q 117.0 364.2 118.5 368.0" stroke="#b2bec3" stroke-width="1.5" fill="none" />
<circle cx="136.8" cy="352.6" r="6.2" fill="#3498db" /><polygon points="136.8,358.8 135.7,360.3 138.0,360.3" fill="#3498db" /><path d="M 136.8 360.3 Q 135.3 364.2 136.8 368.0" stroke="#b2bec3" stroke-width="1.5" fill="none" />
<circle cx="155.2" cy="352.6" r="6.2" fill="#3498db" /><polygon points="155.2,358.8 154.0,360.3 156.3,360.3" fill="#3498db" /><path d="M 155.2 360.3 Q 153.6 364.2 155.2 368.0" stroke="#b2bec3" stroke-width="1.5" fill="none" />
<circle cx="173.5" cy="352.6" r="6.2" fill="#3498db" /><polygon points="173.5,358.8 172.3,360.3 174.7,360.3" fill="#3498db" /><path d="M 173.5 360.3 Q 172.0 364.2 173.5 368.0" stroke="#b2bec3" stroke-width="1.5" fill="none" />
<circle cx="191.8" cy="352.6" r="6.2" fill="#3498db" /><polygon points="191.8,358.8 190.7,360.3 193.0,360.3" fill="#3498db" /><path d="M 191.8 360.3 Q 190.3 364.2 191.8 368.0" stroke="#b2bec3" stroke-width="1.5" fill="none" />
<circle cx="210.2" cy="352.6" r="6.2" fill="#3498db" /><polygon points="210.2,358.8 209.0,360.3 211.3,360.3" fill="#3498db" /><path d="M 210.2 360.3 Q 208.6 364.2 210.2 368.0" stroke="#b2bec3" stroke-width="1.5" fill="none" />
<circle cx="228.5" cy="352.6" r="6.2" fill="#3498db" /><polygon points="228.5,358.8 227.3,360.3 229.7,360.3" fill="#3498db" /><path d="M 228.5 360.3 Q 227.0 364.2 228.5 368.0" stroke="#b2bec3" stroke-width="1.5" fill="none" />
<circle cx="246.8" cy="352.6" r="6.2" fill="#3498db" /><polygon points="246.8,358.8 245.7,360.3 248.0,360.3" fill="#3498db" /><path d="M 246.8 360.3 Q 245.3 364.2 246.8 368.0" stroke="#b2bec3" stroke-width="1.5" fill="none" />
<circle cx="265.2" cy="352.6" r="6.2" fill="#3498db" /><polygon points="265.2,358.8 264.0,360.3 266.3,360.3" fill="#3498db" /><path d="M 265.2 360.3 Q 263.6 364.2 265.2 368.0" stroke="#b2bec3" stroke-width="1.5" fill="none" />
<circle cx="283.5" cy="352.6" r="6.2" fill="#3498db" /><polygon points="283.5,358.8 282.3,360.3 284.7,360.3" fill="#3498db" /><path d="M 283.5 360.3 Q 282.0 364.2 283.5 368.0" stroke="#b2bec3" stroke-width="1.5" fill="none" />
<circle cx="301.8" cy="352.6" r="6.2" fill="#3498db" /><polygon points="301.8,358.8 300.7,360.3 303.0,360.3" fill="#3498db" /><path d="M 301.8 360.3 Q 300.3 364.2 301.8 368.0" stroke="#b2bec3" stroke-width="1.5" fill="none" />
<circle cx="320.2" cy="352.6" r="6.2" fill="#3498db" /><polygon points="320.2,358.8 319.0,360.3 321.3,360.3" fill="#3498db" /><path d="M 320.2 360.3 Q 318.6 364.2 320.2 368.0" stroke="#b2bec3" stroke-width="1.5" fill="none" />
<circle cx="338.5" cy="352.6" r="6.2" fill="#3498db" /><polygon points="338.5,358.8 337.3,360.3 339.7,360.3" fill="#3498db" /><path d="M 338.5 360.3 Q 337.0 364.2 338.5 368.0" stroke="#b2bec3" stroke-width="1.5" fill="none" />
<circle cx="356.8" cy="352.6" r="6.2" fill="#3498db" /><polygon points="356.8,358.8 355.7,360.3 358.0,360.3" fill="#3498db" /><path d="M 356.8 360.3 Q 355.3 364.2 356.8 368.0" stroke="#b2bec3" stroke-width="1.5" fill="none" />
<circle cx="375.2" cy="352.6" r="6.2" fill="#3498db" /><polygon points="375.2,358.8 374.0,360.3 376.3,360.3" fill="#3498db" /><path d="M 375.2 360.3 Q 373.6 364.2 375.2 368.0" stroke="#b2bec3" stroke-width="1.5" fill="none" />
<circle cx="393.5" cy="352.6" r="6.2" fill="#3498db" /><polygon points="393.5,358.8 392.3,360.3 394.7,360.3" fill="#3498db" /><path d="M 393.5 360.3 Q 392.0 364.2 393.5 368.0" stroke="#b2bec3" stroke-width="1.5" fill="none" />
<circle cx="118.5" cy="371.0" r="6.2" fill="#3498db" /><polygon points="118.5,377.1 117.3,378.7 119.7,378.7" fill="#3498db" /><path d="M 118.5 378.7 Q 117.0 382.5 118.5 386.4" stroke="#b2bec3" stroke-width="1.5" fill="none" />
<circle cx="136.8" cy="371.0" r="6.2" fill="#3498db" /><polygon points="136.8,377.1 135.7,378.7 138.0,378.7" fill="#3498db" /><path d="M 136.8 378.7 Q 135.3 382.5 136.8 386.4" stroke="#b2bec3" stroke-width="1.5" fill="none" />
<circle cx="155.2" cy="371.0" r="6.2" fill="#3498db" /><polygon points="155.2,377.1 154.0,378.7 156.3,378.7" fill="#3498db" /><path d="M 155.2 378.7 Q 153.6 382.5 155.2 386.4" stroke="#b2bec3" stroke-width="1.5" fill="none" />
<circle cx="173.5" cy="371.0" r="6.2" fill="#3498db" /><polygon points="173.5,377.1 172.3,378.7 174.7,378.7" fill="#3498db" /><path d="M 173.5 378.7 Q 172.0 382.5 173.5 386.4" stroke="#b2bec3" stroke-width="1.5" fill="none" />
<circle cx="191.8" cy="371.0" r="6.2" fill="#3498db" /><polygon points="191.8,377.1 190.7,378.7 193.0,378.7" fill="#3498db" /><path d="M 191.8 378.7 Q 190.3 382.5 191.8 386.4" stroke="#b2bec3" stroke-width="1.5" fill="none" />
<circle cx="210.2" cy="371.0" r="6.2" fill="#3498db" /><polygon points="210.2,377.1 209.0,378.7 211.3,378.7" fill="#3498db" /><path d="M 210.2 378.7 Q 208.6 382.5 210.2 386.4" stroke="#b2bec3" stroke-width="1.5" fill="none" />
<circle cx="228.5" cy="371.0" r="6.2" fill="#3498db" /><polygon points="228.5,377.1 227.3,378.7 229.7,378.7" fill="#3498db" /><path d="M 228.5 378.7 Q 227.0 382.5 228.5 386.4" stroke="#b2bec3" stroke-width="1.5" fill="none" />
<circle cx="246.8" cy="371.0" r="6.2" fill="#3498db" /><polygon points="246.8,377.1 245.7,378.7 248.0,378.7" fill="#3498db" /><path d="M 246.8 378.7 Q 245.3 382.5 246.8 386.4" stroke="#b2bec3" stroke-width="1.5" fill="none" />
<circle cx="265.2" cy="371.0" r="6.2" fill="#3498db" /><polygon points="265.2,377.1 264.0,378.7 266.3,378.7" fill="#3498db" /><path d="M 265.2 378.7 Q 263.6 382.5 265.2 386.4" stroke="#b2bec3" stroke-width="1.5" fill="none" />
<circle cx="283.5" cy="371.0" r="6.2" fill="#3498db" /><polygon points="283.5,377.1 282.3,378.7 284.7,378.7" fill="#3498db" /><path d="M 283.5 378.7 Q 282.0 382.5 283.5 386.4" stroke="#b2bec3" stroke-width="1.5" fill="none" />
<circle cx="301.8" cy="371.0" r="6.2" fill="#3498db" /><polygon points="301.8,377.1 300.7,378.7 303.0,378.7" fill="#3498db" /><path d="M 301.8 378.7 Q 300.3 382.5 301.8 386.4" stroke="#b2bec3" stroke-width="1.5" fill="none" />
<circle cx="320.2" cy="371.0" r="6.2" fill="#3498db" /><polygon points="320.2,377.1 319.0,378.7 321.3,378.7" fill="#3498db" /><path d="M 320.2 378.7 Q 318.6 382.5 320.2 386.4" stroke="#b2bec3" stroke-width="1.5" fill="none" />
<circle cx="338.5" cy="371.0" r="6.2" fill="#3498db" /><polygon points="338.5,377.1 337.3,378.7 339.7,378.7" fill="#3498db" /><path d="M 338.5 378.7 Q 337.0 382.5 338.5 386.4" stroke="#b2bec3" stroke-width="1.5" fill="none" />
<circle cx="356.8" cy="371.0" r="6.2" fill="#3498db" /><polygon points="356.8,377.1 355.7,378.7 358.0,378.7" fill="#3498db" /><path d="M 356.8 378.7 Q 355.3 382.5 356.8 386.4" stroke="#b2bec3" stroke-width="1.5" fill="none" />
<circle cx="375.2" cy="371.0" r="6.2" fill="#3498db" /><polygon points="375.2,377.1 374.0,378.7 376.3,378.7" fill="#3498db" /><path d="M 375.2 378.7 Q 373.6 382.5 375.2 386.4" stroke="#b2bec3" stroke-width="1.5" fill="none" />
<circle cx="393.5" cy="371.0" r="6.2" fill="#3498db" /><polygon points="393.5,377.1 392.3,378.7 394.7,378.7" fill="#3498db" /><path d="M 393.5 378.7 Q 392.0 382.5 393.5 386.4" stroke="#b2bec3" stroke-width="1.5" fill="none" />
<circle cx="118.5" cy="389.3" r="6.2" fill="#3498db" /><polygon points="118.5,395.5 117.3,397.0 119.7,397.0" fill="#3498db" /><path d="M 118.5 397.0 Q 117.0 400.8 118.5 404.7" stroke="#b2bec3" stroke-width="1.5" fill="none" />
<circle cx="136.8" cy="389.3" r="6.2" fill="#3498db" /><polygon points="136.8,395.5 135.7,397.0 138.0,397.0" fill="#3498db" /><path d="M 136.8 397.0 Q 135.3 400.8 136.8 404.7" stroke="#b2bec3" stroke-width="1.5" fill="none" />
<circle cx="155.2" cy="389.3" r="6.2" fill="#3498db" /><polygon points="155.2,395.5 154.0,397.0 156.3,397.0" fill="#3498db" /><path d="M 155.2 397.0 Q 153.6 400.8 155.2 404.7" stroke="#b2bec3" stroke-width="1.5" fill="none" />
<circle cx="173.5" cy="389.3" r="6.2" fill="#3498db" /><polygon points="173.5,395.5 172.3,397.0 174.7,397.0" fill="#3498db" /><path d="M 173.5 397.0 Q 172.0 400.8 173.5 404.7" stroke="#b2bec3" stroke-width="1.5" fill="none" />
<circle cx="191.8" cy="389.3" r="6.2" fill="#3498db" /><polygon points="191.8,395.5 190.7,397.0 193.0,397.0" fill="#3498db" /><path d="M 191.8 397.0 Q 190.3 400.8 191.8 404.7" stroke="#b2bec3" stroke-width="1.5" fill="none" />
<circle cx="210.2" cy="389.3" r="6.2" fill="#3498db" /><polygon points="210.2,395.5 209.0,397.0 211.3,397.0" fill="#3498db" /><path d="M 210.2 397.0 Q 208.6 400.8 210.2 404.7" stroke="#b2bec3" stroke-width="1.5" fill="none" />
<circle cx="228.5" cy="389.3" r="6.2" fill="#3498db" /><polygon points="228.5,395.5 227.3,397.0 229.7,397.0" fill="#3498db" /><path d="M 228.5 397.0 Q 227.0 400.8 228.5 404.7" stroke="#b2bec3" stroke-width="1.5" fill="none" />
<circle cx="246.8" cy="389.3" r="6.2" fill="#3498db" /><polygon points="246.8,395.5 245.7,397.0 248.0,397.0" fill="#3498db" /><path d="M 246.8 397.0 Q 245.3 400.8 246.8 404.7" stroke="#b2bec3" stroke-width="1.5" fill="none" />
<circle cx="265.2" cy="389.3" r="6.2" fill="#3498db" /><polygon points="265.2,395.5 264.0,397.0 266.3,397.0" fill="#3498db" /><path d="M 265.2 397.0 Q 263.6 400.8 265.2 404.7" stroke="#b2bec3" stroke-width="1.5" fill="none" />
<circle cx="283.5" cy="389.3" r="6.2" fill="#3498db" /><polygon points="283.5,395.5 282.3,397.0 284.7,397.0" fill="#3498db" /><path d="M 283.5 397.0 Q 282.0 400.8 283.5 404.7" stroke="#b2bec3" stroke-width="1.5" fill="none" />
<circle cx="301.8" cy="389.3" r="6.2" fill="#3498db" /><polygon points="301.8,395.5 300.7,397.0 303.0,397.0" fill="#3498db" /><path d="M 301.8 397.0 Q 300.3 400.8 301.8 404.7" stroke="#b2bec3" stroke-width="1.5" fill="none" />
<circle cx="320.2" cy="389.3" r="6.2" fill="#3498db" /><polygon points="320.2,395.5 319.0,397.0 321.3,397.0" fill="#3498db" /><path d="M 320.2 397.0 Q 318.6 400.8 320.2 404.7" stroke="#b2bec3" stroke-width="1.5" fill="none" />
<circle cx="338.5" cy="389.3" r="6.2" fill="#3498db" /><polygon points="338.5,395.5 337.3,397.0 339.7,397.0" fill="#3498db" /><path d="M 338.5 397.0 Q 337.0 400.8 338.5 404.7" stroke="#b2bec3" stroke-width="1.5" fill="none" />
  </g>

  <!-- Bottom Banner -->
  <g filter="url(#shadow-93)">
    <rect x="96" y="420" width="320" height="54" rx="27" fill="#FFF" stroke="#eac6d8" stroke-width="4" />
    <text x="256" y="455" 
          text-anchor="middle" 
          font-size="28" 
          font-weight="900" 
          font-family="Comic Sans MS, Arial Rounded MT Bold, sans-serif" 
          fill="#7C5730">93 - Ninety Three</text>
  </g>
</svg>