<svg xmlns="http://www.w3.org/2000/svg" viewBox="0 0 512 512" width="100%" height="100%">
  <defs>
    <!-- Background Gradient -->
    <linearGradient id="bg-94" x1="0%" y1="0%" x2="0%" y2="100%">
      <stop offset="0%" stop-color="#fff9fc" />
      <stop offset="100%" stop-color="#ffeff6" />
    </linearGradient>

    <!-- Front Face Gradient -->
    <linearGradient id="front-94" x1="0%" y1="0%" x2="0%" y2="100%">
      <stop offset="0%" stop-color="#ff89bc" />
      <stop offset="100%" stop-color="#f4006a" />
    </linearGradient>

    <!-- 3D Side/Extrusion Color -->
    <linearGradient id="side-94" x1="0%" y1="0%" x2="0%" y2="100%">
      <stop offset="0%" stop-color="#c10053" />
      <stop offset="100%" stop-color="#8e003d" />
    </linearGradient>

    <!-- Leaf Sprout Gradient -->
    <linearGradient id="leaf-94" x1="0%" y1="0%" x2="100%" y2="100%">
      <stop offset="0%" stop-color="#7BED9F" />
      <stop offset="100%" stop-color="#2ED573" />
    </linearGradient>

    <!-- 3D Base Shadow -->
    <filter id="shadow-94">
      <feDropShadow dx="0" dy="10" stdDeviation="8" flood-color="#000000" flood-opacity="0.25" />
    </filter>
  </defs>

  <!-- Background -->
  <circle cx="256" cy="256" r="236" fill="url(#bg-94)" stroke="#eac6d6" stroke-width="6" />

  <!-- Sparkles -->
  <g fill="#FFD43B">
    <circle cx="100" cy="130" r="8" />
    <circle cx="400" cy="120" r="10" />
    <circle cx="430" cy="330" r="7" />
  </g>

  <!-- Number -->
  <g filter="url(#shadow-94)">
    <!-- Side -->
    <text x="256" y="215" 
          text-anchor="middle" 
          font-size="180" 
          font-weight="900" 
          font-family="Comic Sans MS, Arial Rounded MT Bold, sans-serif" 
          fill="url(#side-94)" 
          stroke="url(#side-94)" 
          stroke-width="18" 
          transform="translate(0, 12)">94</text>

    <!-- Front -->
    <text x="256" y="215" 
          text-anchor="middle" 
          font-size="180" 
          font-weight="900" 
          font-family="Comic Sans MS, Arial Rounded MT Bold, sans-serif" 
          fill="url(#front-94)" 
          stroke="url(#front-94)" 
          stroke-width="18">94</text>
  </g>

  <!-- Cute Sprout -->
  <g transform="translate(256 65)">
    <path d="M0 0 Q-4 -15 -8 -24" stroke="#8B5A2B" stroke-width="5" fill="none" />
    <path d="M-8 -24 C-28 -28 -30 -5 -10 0 Z" fill="url(#leaf-94)" />
    <path d="M-8 -24 C5 -35 22 -20 5 -5 Z" fill="url(#leaf-94)" />
  </g>

  <!-- Eyes -->
  <g>
    <circle cx="215" cy="180" r="18" fill="#222" />
    <circle cx="208" cy="172" r="6" fill="#FFF" />

    <circle cx="297" cy="180" r="18" fill="#222" />
    <circle cx="290" cy="172" r="6" fill="#FFF" />
  </g>

  <!-- Cheeks -->
  <ellipse cx="185" cy="210" rx="18" ry="12" fill="#FF6B81" opacity="0.45" />
  <ellipse cx="327" cy="210" rx="18" ry="12" fill="#FF6B81" opacity="0.45" />

  <!-- Smile -->
  <path d="M225 225 Q256 255 287 225" stroke="#7A1022" stroke-width="8" fill="none" stroke-linecap="round" />

  <!-- Counting Object -->
  <g>
    <circle cx="118.5" cy="299.2" r="7.7" fill="#81ecec" opacity="0.65" stroke="#00cec9" stroke-width="1.5" /><circle cx="116.2" cy="296.9" r="2.3" fill="#ffffff" opacity="0.85" />
<circle cx="136.8" cy="299.2" r="7.7" fill="#81ecec" opacity="0.65" stroke="#00cec9" stroke-width="1.5" /><circle cx="134.5" cy="296.9" r="2.3" fill="#ffffff" opacity="0.85" />
<circle cx="155.2" cy="299.2" r="7.7" fill="#81ecec" opacity="0.65" stroke="#00cec9" stroke-width="1.5" /><circle cx="152.9" cy="296.9" r="2.3" fill="#ffffff" opacity="0.85" />
<circle cx="173.5" cy="299.2" r="7.7" fill="#81ecec" opacity="0.65" stroke="#00cec9" stroke-width="1.5" /><circle cx="171.2" cy="296.9" r="2.3" fill="#ffffff" opacity="0.85" />
<circle cx="191.8" cy="299.2" r="7.7" fill="#81ecec" opacity="0.65" stroke="#00cec9" stroke-width="1.5" /><circle cx="189.5" cy="296.9" r="2.3" fill="#ffffff" opacity="0.85" />
<circle cx="210.2" cy="299.2" r="7.7" fill="#81ecec" opacity="0.65" stroke="#00cec9" stroke-width="1.5" /><circle cx="207.9" cy="296.9" r="2.3" fill="#ffffff" opacity="0.85" />
<circle cx="228.5" cy="299.2" r="7.7" fill="#81ecec" opacity="0.65" stroke="#00cec9" stroke-width="1.5" /><circle cx="226.2" cy="296.9" r="2.3" fill="#ffffff" opacity="0.85" />
<circle cx="246.8" cy="299.2" r="7.7" fill="#81ecec" opacity="0.65" stroke="#00cec9" stroke-width="1.5" /><circle cx="244.5" cy="296.9" r="2.3" fill="#ffffff" opacity="0.85" />
<circle cx="265.2" cy="299.2" r="7.7" fill="#81ecec" opacity="0.65" stroke="#00cec9" stroke-width="1.5" /><circle cx="262.9" cy="296.9" r="2.3" fill="#ffffff" opacity="0.85" />
<circle cx="283.5" cy="299.2" r="7.7" fill="#81ecec" opacity="0.65" stroke="#00cec9" stroke-width="1.5" /><circle cx="281.2" cy="296.9" r="2.3" fill="#ffffff" opacity="0.85" />
<circle cx="301.8" cy="299.2" r="7.7" fill="#81ecec" opacity="0.65" stroke="#00cec9" stroke-width="1.5" /><circle cx="299.5" cy="296.9" r="2.3" fill="#ffffff" opacity="0.85" />
<circle cx="320.2" cy="299.2" r="7.7" fill="#81ecec" opacity="0.65" stroke="#00cec9" stroke-width="1.5" /><circle cx="317.9" cy="296.9" r="2.3" fill="#ffffff" opacity="0.85" />
<circle cx="338.5" cy="299.2" r="7.7" fill="#81ecec" opacity="0.65" stroke="#00cec9" stroke-width="1.5" /><circle cx="336.2" cy="296.9" r="2.3" fill="#ffffff" opacity="0.85" />
<circle cx="356.8" cy="299.2" r="7.7" fill="#81ecec" opacity="0.65" stroke="#00cec9" stroke-width="1.5" /><circle cx="354.5" cy="296.9" r="2.3" fill="#ffffff" opacity="0.85" />
<circle cx="375.2" cy="299.2" r="7.7" fill="#81ecec" opacity="0.65" stroke="#00cec9" stroke-width="1.5" /><circle cx="372.9" cy="296.9" r="2.3" fill="#ffffff" opacity="0.85" />
<circle cx="393.5" cy="299.2" r="7.7" fill="#81ecec" opacity="0.65" stroke="#00cec9" stroke-width="1.5" /><circle cx="391.2" cy="296.9" r="2.3" fill="#ffffff" opacity="0.85" />
<circle cx="118.5" cy="317.5" r="7.7" fill="#81ecec" opacity="0.65" stroke="#00cec9" stroke-width="1.5" /><circle cx="116.2" cy="315.2" r="2.3" fill="#ffffff" opacity="0.85" />
<circle cx="136.8" cy="317.5" r="7.7" fill="#81ecec" opacity="0.65" stroke="#00cec9" stroke-width="1.5" /><circle cx="134.5" cy="315.2" r="2.3" fill="#ffffff" opacity="0.85" />
<circle cx="155.2" cy="317.5" r="7.7" fill="#81ecec" opacity="0.65" stroke="#00cec9" stroke-width="1.5" /><circle cx="152.9" cy="315.2" r="2.3" fill="#ffffff" opacity="0.85" />
<circle cx="173.5" cy="317.5" r="7.7" fill="#81ecec" opacity="0.65" stroke="#00cec9" stroke-width="1.5" /><circle cx="171.2" cy="315.2" r="2.3" fill="#ffffff" opacity="0.85" />
<circle cx="191.8" cy="317.5" r="7.7" fill="#81ecec" opacity="0.65" stroke="#00cec9" stroke-width="1.5" /><circle cx="189.5" cy="315.2" r="2.3" fill="#ffffff" opacity="0.85" />
<circle cx="210.2" cy="317.5" r="7.7" fill="#81ecec" opacity="0.65" stroke="#00cec9" stroke-width="1.5" /><circle cx="207.9" cy="315.2" r="2.3" fill="#ffffff" opacity="0.85" />
<circle cx="228.5" cy="317.5" r="7.7" fill="#81ecec" opacity="0.65" stroke="#00cec9" stroke-width="1.5" /><circle cx="226.2" cy="315.2" r="2.3" fill="#ffffff" opacity="0.85" />
<circle cx="246.8" cy="317.5" r="7.7" fill="#81ecec" opacity="0.65" stroke="#00cec9" stroke-width="1.5" /><circle cx="244.5" cy="315.2" r="2.3" fill="#ffffff" opacity="0.85" />
<circle cx="265.2" cy="317.5" r="7.7" fill="#81ecec" opacity="0.65" stroke="#00cec9" stroke-width="1.5" /><circle cx="262.9" cy="315.2" r="2.3" fill="#ffffff" opacity="0.85" />
<circle cx="283.5" cy="317.5" r="7.7" fill="#81ecec" opacity="0.65" stroke="#00cec9" stroke-width="1.5" /><circle cx="281.2" cy="315.2" r="2.3" fill="#ffffff" opacity="0.85" />
<circle cx="301.8" cy="317.5" r="7.7" fill="#81ecec" opacity="0.65" stroke="#00cec9" stroke-width="1.5" /><circle cx="299.5" cy="315.2" r="2.3" fill="#ffffff" opacity="0.85" />
<circle cx="320.2" cy="317.5" r="7.7" fill="#81ecec" opacity="0.65" stroke="#00cec9" stroke-width="1.5" /><circle cx="317.9" cy="315.2" r="2.3" fill="#ffffff" opacity="0.85" />
<circle cx="338.5" cy="317.5" r="7.7" fill="#81ecec" opacity="0.65" stroke="#00cec9" stroke-width="1.5" /><circle cx="336.2" cy="315.2" r="2.3" fill="#ffffff" opacity="0.85" />
<circle cx="356.8" cy="317.5" r="7.7" fill="#81ecec" opacity="0.65" stroke="#00cec9" stroke-width="1.5" /><circle cx="354.5" cy="315.2" r="2.3" fill="#ffffff" opacity="0.85" />
<circle cx="375.2" cy="317.5" r="7.7" fill="#81ecec" opacity="0.65" stroke="#00cec9" stroke-width="1.5" /><circle cx="372.9" cy="315.2" r="2.3" fill="#ffffff" opacity="0.85" />
<circle cx="393.5" cy="317.5" r="7.7" fill="#81ecec" opacity="0.65" stroke="#00cec9" stroke-width="1.5" /><circle cx="391.2" cy="315.2" r="2.3" fill="#ffffff" opacity="0.85" />
<circle cx="118.5" cy="335.8" r="7.7" fill="#81ecec" opacity="0.65" stroke="#00cec9" stroke-width="1.5" /><circle cx="116.2" cy="333.5" r="2.3" fill="#ffffff" opacity="0.85" />
<circle cx="136.8" cy="335.8" r="7.7" fill="#81ecec" opacity="0.65" stroke="#00cec9" stroke-width="1.5" /><circle cx="134.5" cy="333.5" r="2.3" fill="#ffffff" opacity="0.85" />
<circle cx="155.2" cy="335.8" r="7.7" fill="#81ecec" opacity="0.65" stroke="#00cec9" stroke-width="1.5" /><circle cx="152.9" cy="333.5" r="2.3" fill="#ffffff" opacity="0.85" />
<circle cx="173.5" cy="335.8" r="7.7" fill="#81ecec" opacity="0.65" stroke="#00cec9" stroke-width="1.5" /><circle cx="171.2" cy="333.5" r="2.3" fill="#ffffff" opacity="0.85" />
<circle cx="191.8" cy="335.8" r="7.7" fill="#81ecec" opacity="0.65" stroke="#00cec9" stroke-width="1.5" /><circle cx="189.5" cy="333.5" r="2.3" fill="#ffffff" opacity="0.85" />
<circle cx="210.2" cy="335.8" r="7.7" fill="#81ecec" opacity="0.65" stroke="#00cec9" stroke-width="1.5" /><circle cx="207.9" cy="333.5" r="2.3" fill="#ffffff" opacity="0.85" />
<circle cx="228.5" cy="335.8" r="7.7" fill="#81ecec" opacity="0.65" stroke="#00cec9" stroke-width="1.5" /><circle cx="226.2" cy="333.5" r="2.3" fill="#ffffff" opacity="0.85" />
<circle cx="246.8" cy="335.8" r="7.7" fill="#81ecec" opacity="0.65" stroke="#00cec9" stroke-width="1.5" /><circle cx="244.5" cy="333.5" r="2.3" fill="#ffffff" opacity="0.85" />
<circle cx="265.2" cy="335.8" r="7.7" fill="#81ecec" opacity="0.65" stroke="#00cec9" stroke-width="1.5" /><circle cx="262.9" cy="333.5" r="2.3" fill="#ffffff" opacity="0.85" />
<circle cx="283.5" cy="335.8" r="7.7" fill="#81ecec" opacity="0.65" stroke="#00cec9" stroke-width="1.5" /><circle cx="281.2" cy="333.5" r="2.3" fill="#ffffff" opacity="0.85" />
<circle cx="301.8" cy="335.8" r="7.7" fill="#81ecec" opacity="0.65" stroke="#00cec9" stroke-width="1.5" /><circle cx="299.5" cy="333.5" r="2.3" fill="#ffffff" opacity="0.85" />
<circle cx="320.2" cy="335.8" r="7.7" fill="#81ecec" opacity="0.65" stroke="#00cec9" stroke-width="1.5" /><circle cx="317.9" cy="333.5" r="2.3" fill="#ffffff" opacity="0.85" />
<circle cx="338.5" cy="335.8" r="7.7" fill="#81ecec" opacity="0.65" stroke="#00cec9" stroke-width="1.5" /><circle cx="336.2" cy="333.5" r="2.3" fill="#ffffff" opacity="0.85" />
<circle cx="356.8" cy="335.8" r="7.7" fill="#81ecec" opacity="0.65" stroke="#00cec9" stroke-width="1.5" /><circle cx="354.5" cy="333.5" r="2.3" fill="#ffffff" opacity="0.85" />
<circle cx="375.2" cy="335.8" r="7.7" fill="#81ecec" opacity="0.65" stroke="#00cec9" stroke-width="1.5" /><circle cx="372.9" cy="333.5" r="2.3" fill="#ffffff" opacity="0.85" />
<circle cx="393.5" cy="335.8" r="7.7" fill="#81ecec" opacity="0.65" stroke="#00cec9" stroke-width="1.5" /><circle cx="391.2" cy="333.5" r="2.3" fill="#ffffff" opacity="0.85" />
<circle cx="118.5" cy="354.2" r="7.7" fill="#81ecec" opacity="0.65" stroke="#00cec9" stroke-width="1.5" /><circle cx="116.2" cy="351.9" r="2.3" fill="#ffffff" opacity="0.85" />
<circle cx="136.8" cy="354.2" r="7.7" fill="#81ecec" opacity="0.65" stroke="#00cec9" stroke-width="1.5" /><circle cx="134.5" cy="351.9" r="2.3" fill="#ffffff" opacity="0.85" />
<circle cx="155.2" cy="354.2" r="7.7" fill="#81ecec" opacity="0.65" stroke="#00cec9" stroke-width="1.5" /><circle cx="152.9" cy="351.9" r="2.3" fill="#ffffff" opacity="0.85" />
<circle cx="173.5" cy="354.2" r="7.7" fill="#81ecec" opacity="0.65" stroke="#00cec9" stroke-width="1.5" /><circle cx="171.2" cy="351.9" r="2.3" fill="#ffffff" opacity="0.85" />
<circle cx="191.8" cy="354.2" r="7.7" fill="#81ecec" opacity="0.65" stroke="#00cec9" stroke-width="1.5" /><circle cx="189.5" cy="351.9" r="2.3" fill="#ffffff" opacity="0.85" />
<circle cx="210.2" cy="354.2" r="7.7" fill="#81ecec" opacity="0.65" stroke="#00cec9" stroke-width="1.5" /><circle cx="207.9" cy="351.9" r="2.3" fill="#ffffff" opacity="0.85" />
<circle cx="228.5" cy="354.2" r="7.7" fill="#81ecec" opacity="0.65" stroke="#00cec9" stroke-width="1.5" /><circle cx="226.2" cy="351.9" r="2.3" fill="#ffffff" opacity="0.85" />
<circle cx="246.8" cy="354.2" r="7.7" fill="#81ecec" opacity="0.65" stroke="#00cec9" stroke-width="1.5" /><circle cx="244.5" cy="351.9" r="2.3" fill="#ffffff" opacity="0.85" />
<circle cx="265.2" cy="354.2" r="7.7" fill="#81ecec" opacity="0.65" stroke="#00cec9" stroke-width="1.5" /><circle cx="262.9" cy="351.9" r="2.3" fill="#ffffff" opacity="0.85" />
<circle cx="283.5" cy="354.2" r="7.7" fill="#81ecec" opacity="0.65" stroke="#00cec9" stroke-width="1.5" /><circle cx="281.2" cy="351.9" r="2.3" fill="#ffffff" opacity="0.85" />
<circle cx="301.8" cy="354.2" r="7.7" fill="#81ecec" opacity="0.65" stroke="#00cec9" stroke-width="1.5" /><circle cx="299.5" cy="351.9" r="2.3" fill="#ffffff" opacity="0.85" />
<circle cx="320.2" cy="354.2" r="7.7" fill="#81ecec" opacity="0.65" stroke="#00cec9" stroke-width="1.5" /><circle cx="317.9" cy="351.9" r="2.3" fill="#ffffff" opacity="0.85" />
<circle cx="338.5" cy="354.2" r="7.7" fill="#81ecec" opacity="0.65" stroke="#00cec9" stroke-width="1.5" /><circle cx="336.2" cy="351.9" r="2.3" fill="#ffffff" opacity="0.85" />
<circle cx="356.8" cy="354.2" r="7.7" fill="#81ecec" opacity="0.65" stroke="#00cec9" stroke-width="1.5" /><circle cx="354.5" cy="351.9" r="2.3" fill="#ffffff" opacity="0.85" />
<circle cx="375.2" cy="354.2" r="7.7" fill="#81ecec" opacity="0.65" stroke="#00cec9" stroke-width="1.5" /><circle cx="372.9" cy="351.9" r="2.3" fill="#ffffff" opacity="0.85" />
<circle cx="393.5" cy="354.2" r="7.7" fill="#81ecec" opacity="0.65" stroke="#00cec9" stroke-width="1.5" /><circle cx="391.2" cy="351.9" r="2.3" fill="#ffffff" opacity="0.85" />
<circle cx="118.5" cy="372.5" r="7.7" fill="#81ecec" opacity="0.65" stroke="#00cec9" stroke-width="1.5" /><circle cx="116.2" cy="370.2" r="2.3" fill="#ffffff" opacity="0.85" />
<circle cx="136.8" cy="372.5" r="7.7" fill="#81ecec" opacity="0.65" stroke="#00cec9" stroke-width="1.5" /><circle cx="134.5" cy="370.2" r="2.3" fill="#ffffff" opacity="0.85" />
<circle cx="155.2" cy="372.5" r="7.7" fill="#81ecec" opacity="0.65" stroke="#00cec9" stroke-width="1.5" /><circle cx="152.9" cy="370.2" r="2.3" fill="#ffffff" opacity="0.85" />
<circle cx="173.5" cy="372.5" r="7.7" fill="#81ecec" opacity="0.65" stroke="#00cec9" stroke-width="1.5" /><circle cx="171.2" cy="370.2" r="2.3" fill="#ffffff" opacity="0.85" />
<circle cx="191.8" cy="372.5" r="7.7" fill="#81ecec" opacity="0.65" stroke="#00cec9" stroke-width="1.5" /><circle cx="189.5" cy="370.2" r="2.3" fill="#ffffff" opacity="0.85" />
<circle cx="210.2" cy="372.5" r="7.7" fill="#81ecec" opacity="0.65" stroke="#00cec9" stroke-width="1.5" /><circle cx="207.9" cy="370.2" r="2.3" fill="#ffffff" opacity="0.85" />
<circle cx="228.5" cy="372.5" r="7.7" fill="#81ecec" opacity="0.65" stroke="#00cec9" stroke-width="1.5" /><circle cx="226.2" cy="370.2" r="2.3" fill="#ffffff" opacity="0.85" />
<circle cx="246.8" cy="372.5" r="7.7" fill="#81ecec" opacity="0.65" stroke="#00cec9" stroke-width="1.5" /><circle cx="244.5" cy="370.2" r="2.3" fill="#ffffff" opacity="0.85" />
<circle cx="265.2" cy="372.5" r="7.7" fill="#81ecec" opacity="0.65" stroke="#00cec9" stroke-width="1.5" /><circle cx="262.9" cy="370.2" r="2.3" fill="#ffffff" opacity="0.85" />
<circle cx="283.5" cy="372.5" r="7.7" fill="#81ecec" opacity="0.65" stroke="#00cec9" stroke-width="1.5" /><circle cx="281.2" cy="370.2" r="2.3" fill="#ffffff" opacity="0.85" />
<circle cx="301.8" cy="372.5" r="7.7" fill="#81ecec" opacity="0.65" stroke="#00cec9" stroke-width="1.5" /><circle cx="299.5" cy="370.2" r="2.3" fill="#ffffff" opacity="0.85" />
<circle cx="320.2" cy="372.5" r="7.7" fill="#81ecec" opacity="0.65" stroke="#00cec9" stroke-width="1.5" /><circle cx="317.9" cy="370.2" r="2.3" fill="#ffffff" opacity="0.85" />
<circle cx="338.5" cy="372.5" r="7.7" fill="#81ecec" opacity="0.65" stroke="#00cec9" stroke-width="1.5" /><circle cx="336.2" cy="370.2" r="2.3" fill="#ffffff" opacity="0.85" />
<circle cx="356.8" cy="372.5" r="7.7" fill="#81ecec" opacity="0.65" stroke="#00cec9" stroke-width="1.5" /><circle cx="354.5" cy="370.2" r="2.3" fill="#ffffff" opacity="0.85" />
<circle cx="375.2" cy="372.5" r="7.7" fill="#81ecec" opacity="0.65" stroke="#00cec9" stroke-width="1.5" /><circle cx="372.9" cy="370.2" r="2.3" fill="#ffffff" opacity="0.85" />
<circle cx="393.5" cy="372.5" r="7.7" fill="#81ecec" opacity="0.65" stroke="#00cec9" stroke-width="1.5" /><circle cx="391.2" cy="370.2" r="2.3" fill="#ffffff" opacity="0.85" />
<circle cx="118.5" cy="390.8" r="7.7" fill="#81ecec" opacity="0.65" stroke="#00cec9" stroke-width="1.5" /><circle cx="116.2" cy="388.5" r="2.3" fill="#ffffff" opacity="0.85" />
<circle cx="136.8" cy="390.8" r="7.7" fill="#81ecec" opacity="0.65" stroke="#00cec9" stroke-width="1.5" /><circle cx="134.5" cy="388.5" r="2.3" fill="#ffffff" opacity="0.85" />
<circle cx="155.2" cy="390.8" r="7.7" fill="#81ecec" opacity="0.65" stroke="#00cec9" stroke-width="1.5" /><circle cx="152.9" cy="388.5" r="2.3" fill="#ffffff" opacity="0.85" />
<circle cx="173.5" cy="390.8" r="7.7" fill="#81ecec" opacity="0.65" stroke="#00cec9" stroke-width="1.5" /><circle cx="171.2" cy="388.5" r="2.3" fill="#ffffff" opacity="0.85" />
<circle cx="191.8" cy="390.8" r="7.7" fill="#81ecec" opacity="0.65" stroke="#00cec9" stroke-width="1.5" /><circle cx="189.5" cy="388.5" r="2.3" fill="#ffffff" opacity="0.85" />
<circle cx="210.2" cy="390.8" r="7.7" fill="#81ecec" opacity="0.65" stroke="#00cec9" stroke-width="1.5" /><circle cx="207.9" cy="388.5" r="2.3" fill="#ffffff" opacity="0.85" />
<circle cx="228.5" cy="390.8" r="7.7" fill="#81ecec" opacity="0.65" stroke="#00cec9" stroke-width="1.5" /><circle cx="226.2" cy="388.5" r="2.3" fill="#ffffff" opacity="0.85" />
<circle cx="246.8" cy="390.8" r="7.7" fill="#81ecec" opacity="0.65" stroke="#00cec9" stroke-width="1.5" /><circle cx="244.5" cy="388.5" r="2.3" fill="#ffffff" opacity="0.85" />
<circle cx="265.2" cy="390.8" r="7.7" fill="#81ecec" opacity="0.65" stroke="#00cec9" stroke-width="1.5" /><circle cx="262.9" cy="388.5" r="2.3" fill="#ffffff" opacity="0.85" />
<circle cx="283.5" cy="390.8" r="7.7" fill="#81ecec" opacity="0.65" stroke="#00cec9" stroke-width="1.5" /><circle cx="281.2" cy="388.5" r="2.3" fill="#ffffff" opacity="0.85" />
<circle cx="301.8" cy="390.8" r="7.7" fill="#81ecec" opacity="0.65" stroke="#00cec9" stroke-width="1.5" /><circle cx="299.5" cy="388.5" r="2.3" fill="#ffffff" opacity="0.85" />
<circle cx="320.2" cy="390.8" r="7.7" fill="#81ecec" opacity="0.65" stroke="#00cec9" stroke-width="1.5" /><circle cx="317.9" cy="388.5" r="2.3" fill="#ffffff" opacity="0.85" />
<circle cx="338.5" cy="390.8" r="7.7" fill="#81ecec" opacity="0.65" stroke="#00cec9" stroke-width="1.5" /><circle cx="336.2" cy="388.5" r="2.3" fill="#ffffff" opacity="0.85" />
<circle cx="356.8" cy="390.8" r="7.7" fill="#81ecec" opacity="0.65" stroke="#00cec9" stroke-width="1.5" /><circle cx="354.5" cy="388.5" r="2.3" fill="#ffffff" opacity="0.85" />
  </g>

  <!-- Bottom Banner -->
  <g filter="url(#shadow-94)">
    <rect x="96" y="420" width="320" height="54" rx="27" fill="#FFF" stroke="#eac6d6" stroke-width="4" />
    <text x="256" y="455" 
          text-anchor="middle" 
          font-size="28" 
          font-weight="900" 
          font-family="Comic Sans MS, Arial Rounded MT Bold, sans-serif" 
          fill="#7C5730">94 - Ninety Four</text>
  </g>
</svg>