<svg xmlns="http://www.w3.org/2000/svg" viewBox="0 0 512 512" width="100%" height="100%">
  <defs>
    <!-- Background Gradient -->
    <linearGradient id="bg-95" x1="0%" y1="0%" x2="0%" y2="100%">
      <stop offset="0%" stop-color="#fff9fb" />
      <stop offset="100%" stop-color="#ffeff5" />
    </linearGradient>

    <!-- Front Face Gradient -->
    <linearGradient id="front-95" x1="0%" y1="0%" x2="0%" y2="100%">
      <stop offset="0%" stop-color="#ff89b4" />
      <stop offset="100%" stop-color="#f40059" />
    </linearGradient>

    <!-- 3D Side/Extrusion Color -->
    <linearGradient id="side-95" x1="0%" y1="0%" x2="0%" y2="100%">
      <stop offset="0%" stop-color="#c10047" />
      <stop offset="100%" stop-color="#8e0034" />
    </linearGradient>

    <!-- Leaf Sprout Gradient -->
    <linearGradient id="leaf-95" x1="0%" y1="0%" x2="100%" y2="100%">
      <stop offset="0%" stop-color="#7BED9F" />
      <stop offset="100%" stop-color="#2ED573" />
    </linearGradient>

    <!-- 3D Base Shadow -->
    <filter id="shadow-95">
      <feDropShadow dx="0" dy="10" stdDeviation="8" flood-color="#000000" flood-opacity="0.25" />
    </filter>
  </defs>

  <!-- Background -->
  <circle cx="256" cy="256" r="236" fill="url(#bg-95)" stroke="#eac6d3" stroke-width="6" />

  <!-- Sparkles -->
  <g fill="#FFD43B">
    <circle cx="100" cy="130" r="8" />
    <circle cx="400" cy="120" r="10" />
    <circle cx="430" cy="330" r="7" />
  </g>

  <!-- Number -->
  <g filter="url(#shadow-95)">
    <!-- Side -->
    <text x="256" y="215" 
          text-anchor="middle" 
          font-size="180" 
          font-weight="900" 
          font-family="Comic Sans MS, Arial Rounded MT Bold, sans-serif" 
          fill="url(#side-95)" 
          stroke="url(#side-95)" 
          stroke-width="18" 
          transform="translate(0, 12)">95</text>

    <!-- Front -->
    <text x="256" y="215" 
          text-anchor="middle" 
          font-size="180" 
          font-weight="900" 
          font-family="Comic Sans MS, Arial Rounded MT Bold, sans-serif" 
          fill="url(#front-95)" 
          stroke="url(#front-95)" 
          stroke-width="18">95</text>
  </g>

  <!-- Cute Sprout -->
  <g transform="translate(256 65)">
    <path d="M0 0 Q-4 -15 -8 -24" stroke="#8B5A2B" stroke-width="5" fill="none" />
    <path d="M-8 -24 C-28 -28 -30 -5 -10 0 Z" fill="url(#leaf-95)" />
    <path d="M-8 -24 C5 -35 22 -20 5 -5 Z" fill="url(#leaf-95)" />
  </g>

  <!-- Eyes -->
  <g>
    <circle cx="215" cy="180" r="18" fill="#222" />
    <circle cx="208" cy="172" r="6" fill="#FFF" />

    <circle cx="297" cy="180" r="18" fill="#222" />
    <circle cx="290" cy="172" r="6" fill="#FFF" />
  </g>

  <!-- Cheeks -->
  <ellipse cx="185" cy="210" rx="18" ry="12" fill="#FF6B81" opacity="0.45" />
  <ellipse cx="327" cy="210" rx="18" ry="12" fill="#FF6B81" opacity="0.45" />

  <!-- Smile -->
  <path d="M225 225 Q256 255 287 225" stroke="#7A1022" stroke-width="8" fill="none" stroke-linecap="round" />

  <!-- Counting Object -->
  <g>
    <path d="M 118.5 305.3 C 109.3 297.6 112.3 293.0 118.5 296.1 C 124.7 293.0 127.7 297.6 118.5 305.3 Z" fill="#ff7675" />
<path d="M 136.8 305.3 C 127.6 297.6 130.7 293.0 136.8 296.1 C 143.0 293.0 146.1 297.6 136.8 305.3 Z" fill="#ff7675" />
<path d="M 155.2 305.3 C 145.9 297.6 149.0 293.0 155.2 296.1 C 161.3 293.0 164.4 297.6 155.2 305.3 Z" fill="#ff7675" />
<path d="M 173.5 305.3 C 164.3 297.6 167.3 293.0 173.5 296.1 C 179.7 293.0 182.7 297.6 173.5 305.3 Z" fill="#ff7675" />
<path d="M 191.8 305.3 C 182.6 297.6 185.7 293.0 191.8 296.1 C 198.0 293.0 201.1 297.6 191.8 305.3 Z" fill="#ff7675" />
<path d="M 210.2 305.3 C 200.9 297.6 204.0 293.0 210.2 296.1 C 216.3 293.0 219.4 297.6 210.2 305.3 Z" fill="#ff7675" />
<path d="M 228.5 305.3 C 219.3 297.6 222.3 293.0 228.5 296.1 C 234.7 293.0 237.7 297.6 228.5 305.3 Z" fill="#ff7675" />
<path d="M 246.8 305.3 C 237.6 297.6 240.7 293.0 246.8 296.1 C 253.0 293.0 256.1 297.6 246.8 305.3 Z" fill="#ff7675" />
<path d="M 265.2 305.3 C 255.9 297.6 259.0 293.0 265.2 296.1 C 271.3 293.0 274.4 297.6 265.2 305.3 Z" fill="#ff7675" />
<path d="M 283.5 305.3 C 274.3 297.6 277.3 293.0 283.5 296.1 C 289.7 293.0 292.7 297.6 283.5 305.3 Z" fill="#ff7675" />
<path d="M 301.8 305.3 C 292.6 297.6 295.7 293.0 301.8 296.1 C 308.0 293.0 311.1 297.6 301.8 305.3 Z" fill="#ff7675" />
<path d="M 320.2 305.3 C 310.9 297.6 314.0 293.0 320.2 296.1 C 326.3 293.0 329.4 297.6 320.2 305.3 Z" fill="#ff7675" />
<path d="M 338.5 305.3 C 329.3 297.6 332.3 293.0 338.5 296.1 C 344.7 293.0 347.7 297.6 338.5 305.3 Z" fill="#ff7675" />
<path d="M 356.8 305.3 C 347.6 297.6 350.7 293.0 356.8 296.1 C 363.0 293.0 366.1 297.6 356.8 305.3 Z" fill="#ff7675" />
<path d="M 375.2 305.3 C 365.9 297.6 369.0 293.0 375.2 296.1 C 381.3 293.0 384.4 297.6 375.2 305.3 Z" fill="#ff7675" />
<path d="M 393.5 305.3 C 384.3 297.6 387.3 293.0 393.5 296.1 C 399.7 293.0 402.7 297.6 393.5 305.3 Z" fill="#ff7675" />
<path d="M 118.5 323.7 C 109.3 316.0 112.3 311.3 118.5 314.4 C 124.7 311.3 127.7 316.0 118.5 323.7 Z" fill="#ff7675" />
<path d="M 136.8 323.7 C 127.6 316.0 130.7 311.3 136.8 314.4 C 143.0 311.3 146.1 316.0 136.8 323.7 Z" fill="#ff7675" />
<path d="M 155.2 323.7 C 145.9 316.0 149.0 311.3 155.2 314.4 C 161.3 311.3 164.4 316.0 155.2 323.7 Z" fill="#ff7675" />
<path d="M 173.5 323.7 C 164.3 316.0 167.3 311.3 173.5 314.4 C 179.7 311.3 182.7 316.0 173.5 323.7 Z" fill="#ff7675" />
<path d="M 191.8 323.7 C 182.6 316.0 185.7 311.3 191.8 314.4 C 198.0 311.3 201.1 316.0 191.8 323.7 Z" fill="#ff7675" />
<path d="M 210.2 323.7 C 200.9 316.0 204.0 311.3 210.2 314.4 C 216.3 311.3 219.4 316.0 210.2 323.7 Z" fill="#ff7675" />
<path d="M 228.5 323.7 C 219.3 316.0 222.3 311.3 228.5 314.4 C 234.7 311.3 237.7 316.0 228.5 323.7 Z" fill="#ff7675" />
<path d="M 246.8 323.7 C 237.6 316.0 240.7 311.3 246.8 314.4 C 253.0 311.3 256.1 316.0 246.8 323.7 Z" fill="#ff7675" />
<path d="M 265.2 323.7 C 255.9 316.0 259.0 311.3 265.2 314.4 C 271.3 311.3 274.4 316.0 265.2 323.7 Z" fill="#ff7675" />
<path d="M 283.5 323.7 C 274.3 316.0 277.3 311.3 283.5 314.4 C 289.7 311.3 292.7 316.0 283.5 323.7 Z" fill="#ff7675" />
<path d="M 301.8 323.7 C 292.6 316.0 295.7 311.3 301.8 314.4 C 308.0 311.3 311.1 316.0 301.8 323.7 Z" fill="#ff7675" />
<path d="M 320.2 323.7 C 310.9 316.0 314.0 311.3 320.2 314.4 C 326.3 311.3 329.4 316.0 320.2 323.7 Z" fill="#ff7675" />
<path d="M 338.5 323.7 C 329.3 316.0 332.3 311.3 338.5 314.4 C 344.7 311.3 347.7 316.0 338.5 323.7 Z" fill="#ff7675" />
<path d="M 356.8 323.7 C 347.6 316.0 350.7 311.3 356.8 314.4 C 363.0 311.3 366.1 316.0 356.8 323.7 Z" fill="#ff7675" />
<path d="M 375.2 323.7 C 365.9 316.0 369.0 311.3 375.2 314.4 C 381.3 311.3 384.4 316.0 375.2 323.7 Z" fill="#ff7675" />
<path d="M 393.5 323.7 C 384.3 316.0 387.3 311.3 393.5 314.4 C 399.7 311.3 402.7 316.0 393.5 323.7 Z" fill="#ff7675" />
<path d="M 118.5 342.0 C 109.3 334.3 112.3 329.7 118.5 332.8 C 124.7 329.7 127.7 334.3 118.5 342.0 Z" fill="#ff7675" />
<path d="M 136.8 342.0 C 127.6 334.3 130.7 329.7 136.8 332.8 C 143.0 329.7 146.1 334.3 136.8 342.0 Z" fill="#ff7675" />
<path d="M 155.2 342.0 C 145.9 334.3 149.0 329.7 155.2 332.8 C 161.3 329.7 164.4 334.3 155.2 342.0 Z" fill="#ff7675" />
<path d="M 173.5 342.0 C 164.3 334.3 167.3 329.7 173.5 332.8 C 179.7 329.7 182.7 334.3 173.5 342.0 Z" fill="#ff7675" />
<path d="M 191.8 342.0 C 182.6 334.3 185.7 329.7 191.8 332.8 C 198.0 329.7 201.1 334.3 191.8 342.0 Z" fill="#ff7675" />
<path d="M 210.2 342.0 C 200.9 334.3 204.0 329.7 210.2 332.8 C 216.3 329.7 219.4 334.3 210.2 342.0 Z" fill="#ff7675" />
<path d="M 228.5 342.0 C 219.3 334.3 222.3 329.7 228.5 332.8 C 234.7 329.7 237.7 334.3 228.5 342.0 Z" fill="#ff7675" />
<path d="M 246.8 342.0 C 237.6 334.3 240.7 329.7 246.8 332.8 C 253.0 329.7 256.1 334.3 246.8 342.0 Z" fill="#ff7675" />
<path d="M 265.2 342.0 C 255.9 334.3 259.0 329.7 265.2 332.8 C 271.3 329.7 274.4 334.3 265.2 342.0 Z" fill="#ff7675" />
<path d="M 283.5 342.0 C 274.3 334.3 277.3 329.7 283.5 332.8 C 289.7 329.7 292.7 334.3 283.5 342.0 Z" fill="#ff7675" />
<path d="M 301.8 342.0 C 292.6 334.3 295.7 329.7 301.8 332.8 C 308.0 329.7 311.1 334.3 301.8 342.0 Z" fill="#ff7675" />
<path d="M 320.2 342.0 C 310.9 334.3 314.0 329.7 320.2 332.8 C 326.3 329.7 329.4 334.3 320.2 342.0 Z" fill="#ff7675" />
<path d="M 338.5 342.0 C 329.3 334.3 332.3 329.7 338.5 332.8 C 344.7 329.7 347.7 334.3 338.5 342.0 Z" fill="#ff7675" />
<path d="M 356.8 342.0 C 347.6 334.3 350.7 329.7 356.8 332.8 C 363.0 329.7 366.1 334.3 356.8 342.0 Z" fill="#ff7675" />
<path d="M 375.2 342.0 C 365.9 334.3 369.0 329.7 375.2 332.8 C 381.3 329.7 384.4 334.3 375.2 342.0 Z" fill="#ff7675" />
<path d="M 393.5 342.0 C 384.3 334.3 387.3 329.7 393.5 332.8 C 399.7 329.7 402.7 334.3 393.5 342.0 Z" fill="#ff7675" />
<path d="M 118.5 360.3 C 109.3 352.6 112.3 348.0 118.5 351.1 C 124.7 348.0 127.7 352.6 118.5 360.3 Z" fill="#ff7675" />
<path d="M 136.8 360.3 C 127.6 352.6 130.7 348.0 136.8 351.1 C 143.0 348.0 146.1 352.6 136.8 360.3 Z" fill="#ff7675" />
<path d="M 155.2 360.3 C 145.9 352.6 149.0 348.0 155.2 351.1 C 161.3 348.0 164.4 352.6 155.2 360.3 Z" fill="#ff7675" />
<path d="M 173.5 360.3 C 164.3 352.6 167.3 348.0 173.5 351.1 C 179.7 348.0 182.7 352.6 173.5 360.3 Z" fill="#ff7675" />
<path d="M 191.8 360.3 C 182.6 352.6 185.7 348.0 191.8 351.1 C 198.0 348.0 201.1 352.6 191.8 360.3 Z" fill="#ff7675" />
<path d="M 210.2 360.3 C 200.9 352.6 204.0 348.0 210.2 351.1 C 216.3 348.0 219.4 352.6 210.2 360.3 Z" fill="#ff7675" />
<path d="M 228.5 360.3 C 219.3 352.6 222.3 348.0 228.5 351.1 C 234.7 348.0 237.7 352.6 228.5 360.3 Z" fill="#ff7675" />
<path d="M 246.8 360.3 C 237.6 352.6 240.7 348.0 246.8 351.1 C 253.0 348.0 256.1 352.6 246.8 360.3 Z" fill="#ff7675" />
<path d="M 265.2 360.3 C 255.9 352.6 259.0 348.0 265.2 351.1 C 271.3 348.0 274.4 352.6 265.2 360.3 Z" fill="#ff7675" />
<path d="M 283.5 360.3 C 274.3 352.6 277.3 348.0 283.5 351.1 C 289.7 348.0 292.7 352.6 283.5 360.3 Z" fill="#ff7675" />
<path d="M 301.8 360.3 C 292.6 352.6 295.7 348.0 301.8 351.1 C 308.0 348.0 311.1 352.6 301.8 360.3 Z" fill="#ff7675" />
<path d="M 320.2 360.3 C 310.9 352.6 314.0 348.0 320.2 351.1 C 326.3 348.0 329.4 352.6 320.2 360.3 Z" fill="#ff7675" />
<path d="M 338.5 360.3 C 329.3 352.6 332.3 348.0 338.5 351.1 C 344.7 348.0 347.7 352.6 338.5 360.3 Z" fill="#ff7675" />
<path d="M 356.8 360.3 C 347.6 352.6 350.7 348.0 356.8 351.1 C 363.0 348.0 366.1 352.6 356.8 360.3 Z" fill="#ff7675" />
<path d="M 375.2 360.3 C 365.9 352.6 369.0 348.0 375.2 351.1 C 381.3 348.0 384.4 352.6 375.2 360.3 Z" fill="#ff7675" />
<path d="M 393.5 360.3 C 384.3 352.6 387.3 348.0 393.5 351.1 C 399.7 348.0 402.7 352.6 393.5 360.3 Z" fill="#ff7675" />
<path d="M 118.5 378.7 C 109.3 371.0 112.3 366.3 118.5 369.4 C 124.7 366.3 127.7 371.0 118.5 378.7 Z" fill="#ff7675" />
<path d="M 136.8 378.7 C 127.6 371.0 130.7 366.3 136.8 369.4 C 143.0 366.3 146.1 371.0 136.8 378.7 Z" fill="#ff7675" />
<path d="M 155.2 378.7 C 145.9 371.0 149.0 366.3 155.2 369.4 C 161.3 366.3 164.4 371.0 155.2 378.7 Z" fill="#ff7675" />
<path d="M 173.5 378.7 C 164.3 371.0 167.3 366.3 173.5 369.4 C 179.7 366.3 182.7 371.0 173.5 378.7 Z" fill="#ff7675" />
<path d="M 191.8 378.7 C 182.6 371.0 185.7 366.3 191.8 369.4 C 198.0 366.3 201.1 371.0 191.8 378.7 Z" fill="#ff7675" />
<path d="M 210.2 378.7 C 200.9 371.0 204.0 366.3 210.2 369.4 C 216.3 366.3 219.4 371.0 210.2 378.7 Z" fill="#ff7675" />
<path d="M 228.5 378.7 C 219.3 371.0 222.3 366.3 228.5 369.4 C 234.7 366.3 237.7 371.0 228.5 378.7 Z" fill="#ff7675" />
<path d="M 246.8 378.7 C 237.6 371.0 240.7 366.3 246.8 369.4 C 253.0 366.3 256.1 371.0 246.8 378.7 Z" fill="#ff7675" />
<path d="M 265.2 378.7 C 255.9 371.0 259.0 366.3 265.2 369.4 C 271.3 366.3 274.4 371.0 265.2 378.7 Z" fill="#ff7675" />
<path d="M 283.5 378.7 C 274.3 371.0 277.3 366.3 283.5 369.4 C 289.7 366.3 292.7 371.0 283.5 378.7 Z" fill="#ff7675" />
<path d="M 301.8 378.7 C 292.6 371.0 295.7 366.3 301.8 369.4 C 308.0 366.3 311.1 371.0 301.8 378.7 Z" fill="#ff7675" />
<path d="M 320.2 378.7 C 310.9 371.0 314.0 366.3 320.2 369.4 C 326.3 366.3 329.4 371.0 320.2 378.7 Z" fill="#ff7675" />
<path d="M 338.5 378.7 C 329.3 371.0 332.3 366.3 338.5 369.4 C 344.7 366.3 347.7 371.0 338.5 378.7 Z" fill="#ff7675" />
<path d="M 356.8 378.7 C 347.6 371.0 350.7 366.3 356.8 369.4 C 363.0 366.3 366.1 371.0 356.8 378.7 Z" fill="#ff7675" />
<path d="M 375.2 378.7 C 365.9 371.0 369.0 366.3 375.2 369.4 C 381.3 366.3 384.4 371.0 375.2 378.7 Z" fill="#ff7675" />
<path d="M 393.5 378.7 C 384.3 371.0 387.3 366.3 393.5 369.4 C 399.7 366.3 402.7 371.0 393.5 378.7 Z" fill="#ff7675" />
<path d="M 118.5 397.0 C 109.3 389.3 112.3 384.7 118.5 387.8 C 124.7 384.7 127.7 389.3 118.5 397.0 Z" fill="#ff7675" />
<path d="M 136.8 397.0 C 127.6 389.3 130.7 384.7 136.8 387.8 C 143.0 384.7 146.1 389.3 136.8 397.0 Z" fill="#ff7675" />
<path d="M 155.2 397.0 C 145.9 389.3 149.0 384.7 155.2 387.8 C 161.3 384.7 164.4 389.3 155.2 397.0 Z" fill="#ff7675" />
<path d="M 173.5 397.0 C 164.3 389.3 167.3 384.7 173.5 387.8 C 179.7 384.7 182.7 389.3 173.5 397.0 Z" fill="#ff7675" />
<path d="M 191.8 397.0 C 182.6 389.3 185.7 384.7 191.8 387.8 C 198.0 384.7 201.1 389.3 191.8 397.0 Z" fill="#ff7675" />
<path d="M 210.2 397.0 C 200.9 389.3 204.0 384.7 210.2 387.8 C 216.3 384.7 219.4 389.3 210.2 397.0 Z" fill="#ff7675" />
<path d="M 228.5 397.0 C 219.3 389.3 222.3 384.7 228.5 387.8 C 234.7 384.7 237.7 389.3 228.5 397.0 Z" fill="#ff7675" />
<path d="M 246.8 397.0 C 237.6 389.3 240.7 384.7 246.8 387.8 C 253.0 384.7 256.1 389.3 246.8 397.0 Z" fill="#ff7675" />
<path d="M 265.2 397.0 C 255.9 389.3 259.0 384.7 265.2 387.8 C 271.3 384.7 274.4 389.3 265.2 397.0 Z" fill="#ff7675" />
<path d="M 283.5 397.0 C 274.3 389.3 277.3 384.7 283.5 387.8 C 289.7 384.7 292.7 389.3 283.5 397.0 Z" fill="#ff7675" />
<path d="M 301.8 397.0 C 292.6 389.3 295.7 384.7 301.8 387.8 C 308.0 384.7 311.1 389.3 301.8 397.0 Z" fill="#ff7675" />
<path d="M 320.2 397.0 C 310.9 389.3 314.0 384.7 320.2 387.8 C 326.3 384.7 329.4 389.3 320.2 397.0 Z" fill="#ff7675" />
<path d="M 338.5 397.0 C 329.3 389.3 332.3 384.7 338.5 387.8 C 344.7 384.7 347.7 389.3 338.5 397.0 Z" fill="#ff7675" />
<path d="M 356.8 397.0 C 347.6 389.3 350.7 384.7 356.8 387.8 C 363.0 384.7 366.1 389.3 356.8 397.0 Z" fill="#ff7675" />
<path d="M 375.2 397.0 C 365.9 389.3 369.0 384.7 375.2 387.8 C 381.3 384.7 384.4 389.3 375.2 397.0 Z" fill="#ff7675" />
  </g>

  <!-- Bottom Banner -->
  <g filter="url(#shadow-95)">
    <rect x="96" y="420" width="320" height="54" rx="27" fill="#FFF" stroke="#eac6d3" stroke-width="4" />
    <text x="256" y="455" 
          text-anchor="middle" 
          font-size="28" 
          font-weight="900" 
          font-family="Comic Sans MS, Arial Rounded MT Bold, sans-serif" 
          fill="#7C5730">95 - Ninety Five</text>
  </g>
</svg>