<svg xmlns="http://www.w3.org/2000/svg" viewBox="0 0 512 512" width="100%" height="100%">
  <defs>
    <!-- Background Gradient -->
    <linearGradient id="bg-96" x1="0%" y1="0%" x2="0%" y2="100%">
      <stop offset="0%" stop-color="#fff9fb" />
      <stop offset="100%" stop-color="#ffeff4" />
    </linearGradient>

    <!-- Front Face Gradient -->
    <linearGradient id="front-96" x1="0%" y1="0%" x2="0%" y2="100%">
      <stop offset="0%" stop-color="#ff89ac" />
      <stop offset="100%" stop-color="#f40049" />
    </linearGradient>

    <!-- 3D Side/Extrusion Color -->
    <linearGradient id="side-96" x1="0%" y1="0%" x2="0%" y2="100%">
      <stop offset="0%" stop-color="#c1003a" />
      <stop offset="100%" stop-color="#8e002a" />
    </linearGradient>

    <!-- Leaf Sprout Gradient -->
    <linearGradient id="leaf-96" x1="0%" y1="0%" x2="100%" y2="100%">
      <stop offset="0%" stop-color="#7BED9F" />
      <stop offset="100%" stop-color="#2ED573" />
    </linearGradient>

    <!-- 3D Base Shadow -->
    <filter id="shadow-96">
      <feDropShadow dx="0" dy="10" stdDeviation="8" flood-color="#000000" flood-opacity="0.25" />
    </filter>
  </defs>

  <!-- Background -->
  <circle cx="256" cy="256" r="236" fill="url(#bg-96)" stroke="#eac6d1" stroke-width="6" />

  <!-- Sparkles -->
  <g fill="#FFD43B">
    <circle cx="100" cy="130" r="8" />
    <circle cx="400" cy="120" r="10" />
    <circle cx="430" cy="330" r="7" />
  </g>

  <!-- Number -->
  <g filter="url(#shadow-96)">
    <!-- Side -->
    <text x="256" y="215" 
          text-anchor="middle" 
          font-size="180" 
          font-weight="900" 
          font-family="Comic Sans MS, Arial Rounded MT Bold, sans-serif" 
          fill="url(#side-96)" 
          stroke="url(#side-96)" 
          stroke-width="18" 
          transform="translate(0, 12)">96</text>

    <!-- Front -->
    <text x="256" y="215" 
          text-anchor="middle" 
          font-size="180" 
          font-weight="900" 
          font-family="Comic Sans MS, Arial Rounded MT Bold, sans-serif" 
          fill="url(#front-96)" 
          stroke="url(#front-96)" 
          stroke-width="18">96</text>
  </g>

  <!-- Cute Sprout -->
  <g transform="translate(256 65)">
    <path d="M0 0 Q-4 -15 -8 -24" stroke="#8B5A2B" stroke-width="5" fill="none" />
    <path d="M-8 -24 C-28 -28 -30 -5 -10 0 Z" fill="url(#leaf-96)" />
    <path d="M-8 -24 C5 -35 22 -20 5 -5 Z" fill="url(#leaf-96)" />
  </g>

  <!-- Eyes -->
  <g>
    <circle cx="215" cy="180" r="18" fill="#222" />
    <circle cx="208" cy="172" r="6" fill="#FFF" />

    <circle cx="297" cy="180" r="18" fill="#222" />
    <circle cx="290" cy="172" r="6" fill="#FFF" />
  </g>

  <!-- Cheeks -->
  <ellipse cx="185" cy="210" rx="18" ry="12" fill="#FF6B81" opacity="0.45" />
  <ellipse cx="327" cy="210" rx="18" ry="12" fill="#FF6B81" opacity="0.45" />

  <!-- Smile -->
  <path d="M225 225 Q256 255 287 225" stroke="#7A1022" stroke-width="8" fill="none" stroke-linecap="round" />

  <!-- Counting Object -->
  <g>
    <polygon points="118.5,299.2 110.8,295.3 110.8,303.0" fill="#a29bfe" /><polygon points="118.5,299.2 126.2,295.3 126.2,303.0" fill="#a29bfe" /><circle cx="118.5" cy="299.2" r="5.4" fill="#fd79a8" stroke="#ffffff" stroke-width="1.0" />
<polygon points="136.8,299.2 129.1,295.3 129.1,303.0" fill="#a29bfe" /><polygon points="136.8,299.2 144.5,295.3 144.5,303.0" fill="#a29bfe" /><circle cx="136.8" cy="299.2" r="5.4" fill="#fd79a8" stroke="#ffffff" stroke-width="1.0" />
<polygon points="155.2,299.2 147.5,295.3 147.5,303.0" fill="#a29bfe" /><polygon points="155.2,299.2 162.9,295.3 162.9,303.0" fill="#a29bfe" /><circle cx="155.2" cy="299.2" r="5.4" fill="#fd79a8" stroke="#ffffff" stroke-width="1.0" />
<polygon points="173.5,299.2 165.8,295.3 165.8,303.0" fill="#a29bfe" /><polygon points="173.5,299.2 181.2,295.3 181.2,303.0" fill="#a29bfe" /><circle cx="173.5" cy="299.2" r="5.4" fill="#fd79a8" stroke="#ffffff" stroke-width="1.0" />
<polygon points="191.8,299.2 184.1,295.3 184.1,303.0" fill="#a29bfe" /><polygon points="191.8,299.2 199.5,295.3 199.5,303.0" fill="#a29bfe" /><circle cx="191.8" cy="299.2" r="5.4" fill="#fd79a8" stroke="#ffffff" stroke-width="1.0" />
<polygon points="210.2,299.2 202.5,295.3 202.5,303.0" fill="#a29bfe" /><polygon points="210.2,299.2 217.9,295.3 217.9,303.0" fill="#a29bfe" /><circle cx="210.2" cy="299.2" r="5.4" fill="#fd79a8" stroke="#ffffff" stroke-width="1.0" />
<polygon points="228.5,299.2 220.8,295.3 220.8,303.0" fill="#a29bfe" /><polygon points="228.5,299.2 236.2,295.3 236.2,303.0" fill="#a29bfe" /><circle cx="228.5" cy="299.2" r="5.4" fill="#fd79a8" stroke="#ffffff" stroke-width="1.0" />
<polygon points="246.8,299.2 239.1,295.3 239.1,303.0" fill="#a29bfe" /><polygon points="246.8,299.2 254.5,295.3 254.5,303.0" fill="#a29bfe" /><circle cx="246.8" cy="299.2" r="5.4" fill="#fd79a8" stroke="#ffffff" stroke-width="1.0" />
<polygon points="265.2,299.2 257.5,295.3 257.5,303.0" fill="#a29bfe" /><polygon points="265.2,299.2 272.9,295.3 272.9,303.0" fill="#a29bfe" /><circle cx="265.2" cy="299.2" r="5.4" fill="#fd79a8" stroke="#ffffff" stroke-width="1.0" />
<polygon points="283.5,299.2 275.8,295.3 275.8,303.0" fill="#a29bfe" /><polygon points="283.5,299.2 291.2,295.3 291.2,303.0" fill="#a29bfe" /><circle cx="283.5" cy="299.2" r="5.4" fill="#fd79a8" stroke="#ffffff" stroke-width="1.0" />
<polygon points="301.8,299.2 294.1,295.3 294.1,303.0" fill="#a29bfe" /><polygon points="301.8,299.2 309.5,295.3 309.5,303.0" fill="#a29bfe" /><circle cx="301.8" cy="299.2" r="5.4" fill="#fd79a8" stroke="#ffffff" stroke-width="1.0" />
<polygon points="320.2,299.2 312.5,295.3 312.5,303.0" fill="#a29bfe" /><polygon points="320.2,299.2 327.9,295.3 327.9,303.0" fill="#a29bfe" /><circle cx="320.2" cy="299.2" r="5.4" fill="#fd79a8" stroke="#ffffff" stroke-width="1.0" />
<polygon points="338.5,299.2 330.8,295.3 330.8,303.0" fill="#a29bfe" /><polygon points="338.5,299.2 346.2,295.3 346.2,303.0" fill="#a29bfe" /><circle cx="338.5" cy="299.2" r="5.4" fill="#fd79a8" stroke="#ffffff" stroke-width="1.0" />
<polygon points="356.8,299.2 349.1,295.3 349.1,303.0" fill="#a29bfe" /><polygon points="356.8,299.2 364.5,295.3 364.5,303.0" fill="#a29bfe" /><circle cx="356.8" cy="299.2" r="5.4" fill="#fd79a8" stroke="#ffffff" stroke-width="1.0" />
<polygon points="375.2,299.2 367.5,295.3 367.5,303.0" fill="#a29bfe" /><polygon points="375.2,299.2 382.9,295.3 382.9,303.0" fill="#a29bfe" /><circle cx="375.2" cy="299.2" r="5.4" fill="#fd79a8" stroke="#ffffff" stroke-width="1.0" />
<polygon points="393.5,299.2 385.8,295.3 385.8,303.0" fill="#a29bfe" /><polygon points="393.5,299.2 401.2,295.3 401.2,303.0" fill="#a29bfe" /><circle cx="393.5" cy="299.2" r="5.4" fill="#fd79a8" stroke="#ffffff" stroke-width="1.0" />
<polygon points="118.5,317.5 110.8,313.6 110.8,321.4" fill="#a29bfe" /><polygon points="118.5,317.5 126.2,313.6 126.2,321.4" fill="#a29bfe" /><circle cx="118.5" cy="317.5" r="5.4" fill="#fd79a8" stroke="#ffffff" stroke-width="1.0" />
<polygon points="136.8,317.5 129.1,313.6 129.1,321.4" fill="#a29bfe" /><polygon points="136.8,317.5 144.5,313.6 144.5,321.4" fill="#a29bfe" /><circle cx="136.8" cy="317.5" r="5.4" fill="#fd79a8" stroke="#ffffff" stroke-width="1.0" />
<polygon points="155.2,317.5 147.5,313.6 147.5,321.4" fill="#a29bfe" /><polygon points="155.2,317.5 162.9,313.6 162.9,321.4" fill="#a29bfe" /><circle cx="155.2" cy="317.5" r="5.4" fill="#fd79a8" stroke="#ffffff" stroke-width="1.0" />
<polygon points="173.5,317.5 165.8,313.6 165.8,321.4" fill="#a29bfe" /><polygon points="173.5,317.5 181.2,313.6 181.2,321.4" fill="#a29bfe" /><circle cx="173.5" cy="317.5" r="5.4" fill="#fd79a8" stroke="#ffffff" stroke-width="1.0" />
<polygon points="191.8,317.5 184.1,313.6 184.1,321.4" fill="#a29bfe" /><polygon points="191.8,317.5 199.5,313.6 199.5,321.4" fill="#a29bfe" /><circle cx="191.8" cy="317.5" r="5.4" fill="#fd79a8" stroke="#ffffff" stroke-width="1.0" />
<polygon points="210.2,317.5 202.5,313.6 202.5,321.4" fill="#a29bfe" /><polygon points="210.2,317.5 217.9,313.6 217.9,321.4" fill="#a29bfe" /><circle cx="210.2" cy="317.5" r="5.4" fill="#fd79a8" stroke="#ffffff" stroke-width="1.0" />
<polygon points="228.5,317.5 220.8,313.6 220.8,321.4" fill="#a29bfe" /><polygon points="228.5,317.5 236.2,313.6 236.2,321.4" fill="#a29bfe" /><circle cx="228.5" cy="317.5" r="5.4" fill="#fd79a8" stroke="#ffffff" stroke-width="1.0" />
<polygon points="246.8,317.5 239.1,313.6 239.1,321.4" fill="#a29bfe" /><polygon points="246.8,317.5 254.5,313.6 254.5,321.4" fill="#a29bfe" /><circle cx="246.8" cy="317.5" r="5.4" fill="#fd79a8" stroke="#ffffff" stroke-width="1.0" />
<polygon points="265.2,317.5 257.5,313.6 257.5,321.4" fill="#a29bfe" /><polygon points="265.2,317.5 272.9,313.6 272.9,321.4" fill="#a29bfe" /><circle cx="265.2" cy="317.5" r="5.4" fill="#fd79a8" stroke="#ffffff" stroke-width="1.0" />
<polygon points="283.5,317.5 275.8,313.6 275.8,321.4" fill="#a29bfe" /><polygon points="283.5,317.5 291.2,313.6 291.2,321.4" fill="#a29bfe" /><circle cx="283.5" cy="317.5" r="5.4" fill="#fd79a8" stroke="#ffffff" stroke-width="1.0" />
<polygon points="301.8,317.5 294.1,313.6 294.1,321.4" fill="#a29bfe" /><polygon points="301.8,317.5 309.5,313.6 309.5,321.4" fill="#a29bfe" /><circle cx="301.8" cy="317.5" r="5.4" fill="#fd79a8" stroke="#ffffff" stroke-width="1.0" />
<polygon points="320.2,317.5 312.5,313.6 312.5,321.4" fill="#a29bfe" /><polygon points="320.2,317.5 327.9,313.6 327.9,321.4" fill="#a29bfe" /><circle cx="320.2" cy="317.5" r="5.4" fill="#fd79a8" stroke="#ffffff" stroke-width="1.0" />
<polygon points="338.5,317.5 330.8,313.6 330.8,321.4" fill="#a29bfe" /><polygon points="338.5,317.5 346.2,313.6 346.2,321.4" fill="#a29bfe" /><circle cx="338.5" cy="317.5" r="5.4" fill="#fd79a8" stroke="#ffffff" stroke-width="1.0" />
<polygon points="356.8,317.5 349.1,313.6 349.1,321.4" fill="#a29bfe" /><polygon points="356.8,317.5 364.5,313.6 364.5,321.4" fill="#a29bfe" /><circle cx="356.8" cy="317.5" r="5.4" fill="#fd79a8" stroke="#ffffff" stroke-width="1.0" />
<polygon points="375.2,317.5 367.5,313.6 367.5,321.4" fill="#a29bfe" /><polygon points="375.2,317.5 382.9,313.6 382.9,321.4" fill="#a29bfe" /><circle cx="375.2" cy="317.5" r="5.4" fill="#fd79a8" stroke="#ffffff" stroke-width="1.0" />
<polygon points="393.5,317.5 385.8,313.6 385.8,321.4" fill="#a29bfe" /><polygon points="393.5,317.5 401.2,313.6 401.2,321.4" fill="#a29bfe" /><circle cx="393.5" cy="317.5" r="5.4" fill="#fd79a8" stroke="#ffffff" stroke-width="1.0" />
<polygon points="118.5,335.8 110.8,332.0 110.8,339.7" fill="#a29bfe" /><polygon points="118.5,335.8 126.2,332.0 126.2,339.7" fill="#a29bfe" /><circle cx="118.5" cy="335.8" r="5.4" fill="#fd79a8" stroke="#ffffff" stroke-width="1.0" />
<polygon points="136.8,335.8 129.1,332.0 129.1,339.7" fill="#a29bfe" /><polygon points="136.8,335.8 144.5,332.0 144.5,339.7" fill="#a29bfe" /><circle cx="136.8" cy="335.8" r="5.4" fill="#fd79a8" stroke="#ffffff" stroke-width="1.0" />
<polygon points="155.2,335.8 147.5,332.0 147.5,339.7" fill="#a29bfe" /><polygon points="155.2,335.8 162.9,332.0 162.9,339.7" fill="#a29bfe" /><circle cx="155.2" cy="335.8" r="5.4" fill="#fd79a8" stroke="#ffffff" stroke-width="1.0" />
<polygon points="173.5,335.8 165.8,332.0 165.8,339.7" fill="#a29bfe" /><polygon points="173.5,335.8 181.2,332.0 181.2,339.7" fill="#a29bfe" /><circle cx="173.5" cy="335.8" r="5.4" fill="#fd79a8" stroke="#ffffff" stroke-width="1.0" />
<polygon points="191.8,335.8 184.1,332.0 184.1,339.7" fill="#a29bfe" /><polygon points="191.8,335.8 199.5,332.0 199.5,339.7" fill="#a29bfe" /><circle cx="191.8" cy="335.8" r="5.4" fill="#fd79a8" stroke="#ffffff" stroke-width="1.0" />
<polygon points="210.2,335.8 202.5,332.0 202.5,339.7" fill="#a29bfe" /><polygon points="210.2,335.8 217.9,332.0 217.9,339.7" fill="#a29bfe" /><circle cx="210.2" cy="335.8" r="5.4" fill="#fd79a8" stroke="#ffffff" stroke-width="1.0" />
<polygon points="228.5,335.8 220.8,332.0 220.8,339.7" fill="#a29bfe" /><polygon points="228.5,335.8 236.2,332.0 236.2,339.7" fill="#a29bfe" /><circle cx="228.5" cy="335.8" r="5.4" fill="#fd79a8" stroke="#ffffff" stroke-width="1.0" />
<polygon points="246.8,335.8 239.1,332.0 239.1,339.7" fill="#a29bfe" /><polygon points="246.8,335.8 254.5,332.0 254.5,339.7" fill="#a29bfe" /><circle cx="246.8" cy="335.8" r="5.4" fill="#fd79a8" stroke="#ffffff" stroke-width="1.0" />
<polygon points="265.2,335.8 257.5,332.0 257.5,339.7" fill="#a29bfe" /><polygon points="265.2,335.8 272.9,332.0 272.9,339.7" fill="#a29bfe" /><circle cx="265.2" cy="335.8" r="5.4" fill="#fd79a8" stroke="#ffffff" stroke-width="1.0" />
<polygon points="283.5,335.8 275.8,332.0 275.8,339.7" fill="#a29bfe" /><polygon points="283.5,335.8 291.2,332.0 291.2,339.7" fill="#a29bfe" /><circle cx="283.5" cy="335.8" r="5.4" fill="#fd79a8" stroke="#ffffff" stroke-width="1.0" />
<polygon points="301.8,335.8 294.1,332.0 294.1,339.7" fill="#a29bfe" /><polygon points="301.8,335.8 309.5,332.0 309.5,339.7" fill="#a29bfe" /><circle cx="301.8" cy="335.8" r="5.4" fill="#fd79a8" stroke="#ffffff" stroke-width="1.0" />
<polygon points="320.2,335.8 312.5,332.0 312.5,339.7" fill="#a29bfe" /><polygon points="320.2,335.8 327.9,332.0 327.9,339.7" fill="#a29bfe" /><circle cx="320.2" cy="335.8" r="5.4" fill="#fd79a8" stroke="#ffffff" stroke-width="1.0" />
<polygon points="338.5,335.8 330.8,332.0 330.8,339.7" fill="#a29bfe" /><polygon points="338.5,335.8 346.2,332.0 346.2,339.7" fill="#a29bfe" /><circle cx="338.5" cy="335.8" r="5.4" fill="#fd79a8" stroke="#ffffff" stroke-width="1.0" />
<polygon points="356.8,335.8 349.1,332.0 349.1,339.7" fill="#a29bfe" /><polygon points="356.8,335.8 364.5,332.0 364.5,339.7" fill="#a29bfe" /><circle cx="356.8" cy="335.8" r="5.4" fill="#fd79a8" stroke="#ffffff" stroke-width="1.0" />
<polygon points="375.2,335.8 367.5,332.0 367.5,339.7" fill="#a29bfe" /><polygon points="375.2,335.8 382.9,332.0 382.9,339.7" fill="#a29bfe" /><circle cx="375.2" cy="335.8" r="5.4" fill="#fd79a8" stroke="#ffffff" stroke-width="1.0" />
<polygon points="393.5,335.8 385.8,332.0 385.8,339.7" fill="#a29bfe" /><polygon points="393.5,335.8 401.2,332.0 401.2,339.7" fill="#a29bfe" /><circle cx="393.5" cy="335.8" r="5.4" fill="#fd79a8" stroke="#ffffff" stroke-width="1.0" />
<polygon points="118.5,354.2 110.8,350.3 110.8,358.0" fill="#a29bfe" /><polygon points="118.5,354.2 126.2,350.3 126.2,358.0" fill="#a29bfe" /><circle cx="118.5" cy="354.2" r="5.4" fill="#fd79a8" stroke="#ffffff" stroke-width="1.0" />
<polygon points="136.8,354.2 129.1,350.3 129.1,358.0" fill="#a29bfe" /><polygon points="136.8,354.2 144.5,350.3 144.5,358.0" fill="#a29bfe" /><circle cx="136.8" cy="354.2" r="5.4" fill="#fd79a8" stroke="#ffffff" stroke-width="1.0" />
<polygon points="155.2,354.2 147.5,350.3 147.5,358.0" fill="#a29bfe" /><polygon points="155.2,354.2 162.9,350.3 162.9,358.0" fill="#a29bfe" /><circle cx="155.2" cy="354.2" r="5.4" fill="#fd79a8" stroke="#ffffff" stroke-width="1.0" />
<polygon points="173.5,354.2 165.8,350.3 165.8,358.0" fill="#a29bfe" /><polygon points="173.5,354.2 181.2,350.3 181.2,358.0" fill="#a29bfe" /><circle cx="173.5" cy="354.2" r="5.4" fill="#fd79a8" stroke="#ffffff" stroke-width="1.0" />
<polygon points="191.8,354.2 184.1,350.3 184.1,358.0" fill="#a29bfe" /><polygon points="191.8,354.2 199.5,350.3 199.5,358.0" fill="#a29bfe" /><circle cx="191.8" cy="354.2" r="5.4" fill="#fd79a8" stroke="#ffffff" stroke-width="1.0" />
<polygon points="210.2,354.2 202.5,350.3 202.5,358.0" fill="#a29bfe" /><polygon points="210.2,354.2 217.9,350.3 217.9,358.0" fill="#a29bfe" /><circle cx="210.2" cy="354.2" r="5.4" fill="#fd79a8" stroke="#ffffff" stroke-width="1.0" />
<polygon points="228.5,354.2 220.8,350.3 220.8,358.0" fill="#a29bfe" /><polygon points="228.5,354.2 236.2,350.3 236.2,358.0" fill="#a29bfe" /><circle cx="228.5" cy="354.2" r="5.4" fill="#fd79a8" stroke="#ffffff" stroke-width="1.0" />
<polygon points="246.8,354.2 239.1,350.3 239.1,358.0" fill="#a29bfe" /><polygon points="246.8,354.2 254.5,350.3 254.5,358.0" fill="#a29bfe" /><circle cx="246.8" cy="354.2" r="5.4" fill="#fd79a8" stroke="#ffffff" stroke-width="1.0" />
<polygon points="265.2,354.2 257.5,350.3 257.5,358.0" fill="#a29bfe" /><polygon points="265.2,354.2 272.9,350.3 272.9,358.0" fill="#a29bfe" /><circle cx="265.2" cy="354.2" r="5.4" fill="#fd79a8" stroke="#ffffff" stroke-width="1.0" />
<polygon points="283.5,354.2 275.8,350.3 275.8,358.0" fill="#a29bfe" /><polygon points="283.5,354.2 291.2,350.3 291.2,358.0" fill="#a29bfe" /><circle cx="283.5" cy="354.2" r="5.4" fill="#fd79a8" stroke="#ffffff" stroke-width="1.0" />
<polygon points="301.8,354.2 294.1,350.3 294.1,358.0" fill="#a29bfe" /><polygon points="301.8,354.2 309.5,350.3 309.5,358.0" fill="#a29bfe" /><circle cx="301.8" cy="354.2" r="5.4" fill="#fd79a8" stroke="#ffffff" stroke-width="1.0" />
<polygon points="320.2,354.2 312.5,350.3 312.5,358.0" fill="#a29bfe" /><polygon points="320.2,354.2 327.9,350.3 327.9,358.0" fill="#a29bfe" /><circle cx="320.2" cy="354.2" r="5.4" fill="#fd79a8" stroke="#ffffff" stroke-width="1.0" />
<polygon points="338.5,354.2 330.8,350.3 330.8,358.0" fill="#a29bfe" /><polygon points="338.5,354.2 346.2,350.3 346.2,358.0" fill="#a29bfe" /><circle cx="338.5" cy="354.2" r="5.4" fill="#fd79a8" stroke="#ffffff" stroke-width="1.0" />
<polygon points="356.8,354.2 349.1,350.3 349.1,358.0" fill="#a29bfe" /><polygon points="356.8,354.2 364.5,350.3 364.5,358.0" fill="#a29bfe" /><circle cx="356.8" cy="354.2" r="5.4" fill="#fd79a8" stroke="#ffffff" stroke-width="1.0" />
<polygon points="375.2,354.2 367.5,350.3 367.5,358.0" fill="#a29bfe" /><polygon points="375.2,354.2 382.9,350.3 382.9,358.0" fill="#a29bfe" /><circle cx="375.2" cy="354.2" r="5.4" fill="#fd79a8" stroke="#ffffff" stroke-width="1.0" />
<polygon points="393.5,354.2 385.8,350.3 385.8,358.0" fill="#a29bfe" /><polygon points="393.5,354.2 401.2,350.3 401.2,358.0" fill="#a29bfe" /><circle cx="393.5" cy="354.2" r="5.4" fill="#fd79a8" stroke="#ffffff" stroke-width="1.0" />
<polygon points="118.5,372.5 110.8,368.6 110.8,376.4" fill="#a29bfe" /><polygon points="118.5,372.5 126.2,368.6 126.2,376.4" fill="#a29bfe" /><circle cx="118.5" cy="372.5" r="5.4" fill="#fd79a8" stroke="#ffffff" stroke-width="1.0" />
<polygon points="136.8,372.5 129.1,368.6 129.1,376.4" fill="#a29bfe" /><polygon points="136.8,372.5 144.5,368.6 144.5,376.4" fill="#a29bfe" /><circle cx="136.8" cy="372.5" r="5.4" fill="#fd79a8" stroke="#ffffff" stroke-width="1.0" />
<polygon points="155.2,372.5 147.5,368.6 147.5,376.4" fill="#a29bfe" /><polygon points="155.2,372.5 162.9,368.6 162.9,376.4" fill="#a29bfe" /><circle cx="155.2" cy="372.5" r="5.4" fill="#fd79a8" stroke="#ffffff" stroke-width="1.0" />
<polygon points="173.5,372.5 165.8,368.6 165.8,376.4" fill="#a29bfe" /><polygon points="173.5,372.5 181.2,368.6 181.2,376.4" fill="#a29bfe" /><circle cx="173.5" cy="372.5" r="5.4" fill="#fd79a8" stroke="#ffffff" stroke-width="1.0" />
<polygon points="191.8,372.5 184.1,368.6 184.1,376.4" fill="#a29bfe" /><polygon points="191.8,372.5 199.5,368.6 199.5,376.4" fill="#a29bfe" /><circle cx="191.8" cy="372.5" r="5.4" fill="#fd79a8" stroke="#ffffff" stroke-width="1.0" />
<polygon points="210.2,372.5 202.5,368.6 202.5,376.4" fill="#a29bfe" /><polygon points="210.2,372.5 217.9,368.6 217.9,376.4" fill="#a29bfe" /><circle cx="210.2" cy="372.5" r="5.4" fill="#fd79a8" stroke="#ffffff" stroke-width="1.0" />
<polygon points="228.5,372.5 220.8,368.6 220.8,376.4" fill="#a29bfe" /><polygon points="228.5,372.5 236.2,368.6 236.2,376.4" fill="#a29bfe" /><circle cx="228.5" cy="372.5" r="5.4" fill="#fd79a8" stroke="#ffffff" stroke-width="1.0" />
<polygon points="246.8,372.5 239.1,368.6 239.1,376.4" fill="#a29bfe" /><polygon points="246.8,372.5 254.5,368.6 254.5,376.4" fill="#a29bfe" /><circle cx="246.8" cy="372.5" r="5.4" fill="#fd79a8" stroke="#ffffff" stroke-width="1.0" />
<polygon points="265.2,372.5 257.5,368.6 257.5,376.4" fill="#a29bfe" /><polygon points="265.2,372.5 272.9,368.6 272.9,376.4" fill="#a29bfe" /><circle cx="265.2" cy="372.5" r="5.4" fill="#fd79a8" stroke="#ffffff" stroke-width="1.0" />
<polygon points="283.5,372.5 275.8,368.6 275.8,376.4" fill="#a29bfe" /><polygon points="283.5,372.5 291.2,368.6 291.2,376.4" fill="#a29bfe" /><circle cx="283.5" cy="372.5" r="5.4" fill="#fd79a8" stroke="#ffffff" stroke-width="1.0" />
<polygon points="301.8,372.5 294.1,368.6 294.1,376.4" fill="#a29bfe" /><polygon points="301.8,372.5 309.5,368.6 309.5,376.4" fill="#a29bfe" /><circle cx="301.8" cy="372.5" r="5.4" fill="#fd79a8" stroke="#ffffff" stroke-width="1.0" />
<polygon points="320.2,372.5 312.5,368.6 312.5,376.4" fill="#a29bfe" /><polygon points="320.2,372.5 327.9,368.6 327.9,376.4" fill="#a29bfe" /><circle cx="320.2" cy="372.5" r="5.4" fill="#fd79a8" stroke="#ffffff" stroke-width="1.0" />
<polygon points="338.5,372.5 330.8,368.6 330.8,376.4" fill="#a29bfe" /><polygon points="338.5,372.5 346.2,368.6 346.2,376.4" fill="#a29bfe" /><circle cx="338.5" cy="372.5" r="5.4" fill="#fd79a8" stroke="#ffffff" stroke-width="1.0" />
<polygon points="356.8,372.5 349.1,368.6 349.1,376.4" fill="#a29bfe" /><polygon points="356.8,372.5 364.5,368.6 364.5,376.4" fill="#a29bfe" /><circle cx="356.8" cy="372.5" r="5.4" fill="#fd79a8" stroke="#ffffff" stroke-width="1.0" />
<polygon points="375.2,372.5 367.5,368.6 367.5,376.4" fill="#a29bfe" /><polygon points="375.2,372.5 382.9,368.6 382.9,376.4" fill="#a29bfe" /><circle cx="375.2" cy="372.5" r="5.4" fill="#fd79a8" stroke="#ffffff" stroke-width="1.0" />
<polygon points="393.5,372.5 385.8,368.6 385.8,376.4" fill="#a29bfe" /><polygon points="393.5,372.5 401.2,368.6 401.2,376.4" fill="#a29bfe" /><circle cx="393.5" cy="372.5" r="5.4" fill="#fd79a8" stroke="#ffffff" stroke-width="1.0" />
<polygon points="118.5,390.8 110.8,387.0 110.8,394.7" fill="#a29bfe" /><polygon points="118.5,390.8 126.2,387.0 126.2,394.7" fill="#a29bfe" /><circle cx="118.5" cy="390.8" r="5.4" fill="#fd79a8" stroke="#ffffff" stroke-width="1.0" />
<polygon points="136.8,390.8 129.1,387.0 129.1,394.7" fill="#a29bfe" /><polygon points="136.8,390.8 144.5,387.0 144.5,394.7" fill="#a29bfe" /><circle cx="136.8" cy="390.8" r="5.4" fill="#fd79a8" stroke="#ffffff" stroke-width="1.0" />
<polygon points="155.2,390.8 147.5,387.0 147.5,394.7" fill="#a29bfe" /><polygon points="155.2,390.8 162.9,387.0 162.9,394.7" fill="#a29bfe" /><circle cx="155.2" cy="390.8" r="5.4" fill="#fd79a8" stroke="#ffffff" stroke-width="1.0" />
<polygon points="173.5,390.8 165.8,387.0 165.8,394.7" fill="#a29bfe" /><polygon points="173.5,390.8 181.2,387.0 181.2,394.7" fill="#a29bfe" /><circle cx="173.5" cy="390.8" r="5.4" fill="#fd79a8" stroke="#ffffff" stroke-width="1.0" />
<polygon points="191.8,390.8 184.1,387.0 184.1,394.7" fill="#a29bfe" /><polygon points="191.8,390.8 199.5,387.0 199.5,394.7" fill="#a29bfe" /><circle cx="191.8" cy="390.8" r="5.4" fill="#fd79a8" stroke="#ffffff" stroke-width="1.0" />
<polygon points="210.2,390.8 202.5,387.0 202.5,394.7" fill="#a29bfe" /><polygon points="210.2,390.8 217.9,387.0 217.9,394.7" fill="#a29bfe" /><circle cx="210.2" cy="390.8" r="5.4" fill="#fd79a8" stroke="#ffffff" stroke-width="1.0" />
<polygon points="228.5,390.8 220.8,387.0 220.8,394.7" fill="#a29bfe" /><polygon points="228.5,390.8 236.2,387.0 236.2,394.7" fill="#a29bfe" /><circle cx="228.5" cy="390.8" r="5.4" fill="#fd79a8" stroke="#ffffff" stroke-width="1.0" />
<polygon points="246.8,390.8 239.1,387.0 239.1,394.7" fill="#a29bfe" /><polygon points="246.8,390.8 254.5,387.0 254.5,394.7" fill="#a29bfe" /><circle cx="246.8" cy="390.8" r="5.4" fill="#fd79a8" stroke="#ffffff" stroke-width="1.0" />
<polygon points="265.2,390.8 257.5,387.0 257.5,394.7" fill="#a29bfe" /><polygon points="265.2,390.8 272.9,387.0 272.9,394.7" fill="#a29bfe" /><circle cx="265.2" cy="390.8" r="5.4" fill="#fd79a8" stroke="#ffffff" stroke-width="1.0" />
<polygon points="283.5,390.8 275.8,387.0 275.8,394.7" fill="#a29bfe" /><polygon points="283.5,390.8 291.2,387.0 291.2,394.7" fill="#a29bfe" /><circle cx="283.5" cy="390.8" r="5.4" fill="#fd79a8" stroke="#ffffff" stroke-width="1.0" />
<polygon points="301.8,390.8 294.1,387.0 294.1,394.7" fill="#a29bfe" /><polygon points="301.8,390.8 309.5,387.0 309.5,394.7" fill="#a29bfe" /><circle cx="301.8" cy="390.8" r="5.4" fill="#fd79a8" stroke="#ffffff" stroke-width="1.0" />
<polygon points="320.2,390.8 312.5,387.0 312.5,394.7" fill="#a29bfe" /><polygon points="320.2,390.8 327.9,387.0 327.9,394.7" fill="#a29bfe" /><circle cx="320.2" cy="390.8" r="5.4" fill="#fd79a8" stroke="#ffffff" stroke-width="1.0" />
<polygon points="338.5,390.8 330.8,387.0 330.8,394.7" fill="#a29bfe" /><polygon points="338.5,390.8 346.2,387.0 346.2,394.7" fill="#a29bfe" /><circle cx="338.5" cy="390.8" r="5.4" fill="#fd79a8" stroke="#ffffff" stroke-width="1.0" />
<polygon points="356.8,390.8 349.1,387.0 349.1,394.7" fill="#a29bfe" /><polygon points="356.8,390.8 364.5,387.0 364.5,394.7" fill="#a29bfe" /><circle cx="356.8" cy="390.8" r="5.4" fill="#fd79a8" stroke="#ffffff" stroke-width="1.0" />
<polygon points="375.2,390.8 367.5,387.0 367.5,394.7" fill="#a29bfe" /><polygon points="375.2,390.8 382.9,387.0 382.9,394.7" fill="#a29bfe" /><circle cx="375.2" cy="390.8" r="5.4" fill="#fd79a8" stroke="#ffffff" stroke-width="1.0" />
<polygon points="393.5,390.8 385.8,387.0 385.8,394.7" fill="#a29bfe" /><polygon points="393.5,390.8 401.2,387.0 401.2,394.7" fill="#a29bfe" /><circle cx="393.5" cy="390.8" r="5.4" fill="#fd79a8" stroke="#ffffff" stroke-width="1.0" />
  </g>

  <!-- Bottom Banner -->
  <g filter="url(#shadow-96)">
    <rect x="96" y="420" width="320" height="54" rx="27" fill="#FFF" stroke="#eac6d1" stroke-width="4" />
    <text x="256" y="455" 
          text-anchor="middle" 
          font-size="28" 
          font-weight="900" 
          font-family="Comic Sans MS, Arial Rounded MT Bold, sans-serif" 
          fill="#7C5730">96 - Ninety Six</text>
  </g>
</svg>