<svg xmlns="http://www.w3.org/2000/svg" viewBox="0 0 512 512" width="100%" height="100%">
  <defs>
    <!-- Background Gradient -->
    <linearGradient id="bg-black" x1="0%" y1="0%" x2="0%" y2="100%">
      <stop offset="0%" stop-color="#F8F9FA" />
      <stop offset="100%" stop-color="#F1F3F5" />
    </linearGradient>

    <!-- Front Face Gradient -->
    <linearGradient id="front-black" x1="0%" y1="0%" x2="0%" y2="100%">
      <stop offset="0%" stop-color="#747d8c" />
      <stop offset="100%" stop-color="#2f3542" />
    </linearGradient>

    <!-- 3D Side/Extrusion Color -->
    <linearGradient id="side-black" x1="0%" y1="0%" x2="0%" y2="100%">
      <stop offset="0%" stop-color="#1e2229" />
      <stop offset="100%" stop-color="#0c0e12" />
    </linearGradient>

    <!-- Leaf Sprout Gradient -->
    <linearGradient id="leaf-black" x1="0%" y1="0%" x2="100%" y2="100%">
      <stop offset="0%" stop-color="#7BED9F" />
      <stop offset="100%" stop-color="#2ED573" />
    </linearGradient>

    <!-- 3D Base Shadow -->
    <filter id="shadow-black">
      <feDropShadow dx="0" dy="10" stdDeviation="8" flood-color="#000000" flood-opacity="0.25" />
    </filter>
  </defs>

  <!-- Background -->
  <circle cx="256" cy="256" r="236" fill="url(#bg-black)" stroke="#CED4DA" stroke-width="6" />

  <!-- Sparkles -->
  <g fill="#FFD43B">
    <circle cx="100" cy="130" r="8" />
    <circle cx="400" cy="120" r="10" />
    <circle cx="430" cy="330" r="7" />
  </g>

  <!-- Color Splat Body -->
  <g filter="url(#shadow-black)">
    <!-- Side (3D Offset Layer) -->
    <g fill="url(#side-black)" transform="translate(0, 12)">
      <path d="M 256 110 C 320 110, 370 140, 370 200 C 370 260, 340 310, 276 310 C 212 310, 160 260, 160 200 C 160 140, 192 110, 256 110 Z" />
      <circle cx="130" cy="150" r="12" />
      <circle cx="380" cy="250" r="16" />
      <circle cx="170" cy="290" r="10" />
    </g>

    <!-- Front Face Layer -->
    <g fill="url(#front-black)">
      <path d="M 256 110 C 320 110, 370 140, 370 200 C 370 260, 340 310, 276 310 C 212 310, 160 260, 160 200 C 160 140, 192 110, 256 110 Z" />
      <circle cx="130" cy="150" r="12" />
      <circle cx="380" cy="250" r="16" />
      <circle cx="170" cy="290" r="10" />
    </g>
  </g>

  <!-- Cute Sprout on Top of Blob -->
  <g transform="translate(256 95)">
    <path d="M0 0 Q-4 -15 -8 -24" stroke="#8B5A2B" stroke-width="5" fill="none" />
    <path d="M-8 -24 C-28 -28 -30 -5 -10 0 Z" fill="url(#leaf-black)" />
    <path d="M-8 -24 C5 -35 22 -20 5 -5 Z" fill="url(#leaf-black)" />
  </g>

  <!-- Eyes -->
  <g>
    <circle cx="215" cy="180" r="18" fill="#222" />
    <circle cx="208" cy="172" r="6" fill="#FFF" />

    <circle cx="297" cy="180" r="18" fill="#222" />
    <circle cx="290" cy="172" r="6" fill="#FFF" />
  </g>

  <!-- Cheeks -->
  <ellipse cx="185" cy="210" rx="18" ry="12" fill="#FF6B81" opacity="0.45" />
  <ellipse cx="327" cy="210" rx="18" ry="12" fill="#FF6B81" opacity="0.45" />

  <!-- Smile -->
  <path d="M225 225 Q256 255 287 225" stroke="#7A1022" stroke-width="8" fill="none" stroke-linecap="round" />

  <!-- Floating Bubble for Illustration -->
  <g filter="url(#shadow-black)">
    <circle cx="370" cy="370" r="66" fill="#ffffff" stroke="#CED4DA" stroke-width="5" />
  </g>
  
    <!-- Wizard Hat -->
    <path d="M 340 390 L 370 330 L 400 390 Z" fill="#2f3542" />
    <ellipse cx="370" cy="390" rx="40" ry="8" fill="#747d8c" />
        

  <!-- Bottom Banner -->
  <g filter="url(#shadow-black)">
    <rect x="96" y="420" width="320" height="54" rx="27" fill="#FFF" stroke="#CED4DA" stroke-width="4" />
    <text x="256" y="455" 
          text-anchor="middle" 
          font-size="28" 
          font-weight="900" 
          font-family="Comic Sans MS, Arial Rounded MT Bold, sans-serif" 
          fill="#7C5730">Black</text>
  </g>
</svg>