<svg xmlns="http://www.w3.org/2000/svg" viewBox="0 0 512 512" width="100%" height="100%">
  <defs>
    <!-- Background Gradient -->
    <linearGradient id="bg-grey" x1="0%" y1="0%" x2="0%" y2="100%">
      <stop offset="0%" stop-color="#FAF9F9" />
      <stop offset="100%" stop-color="#F2ECEC" />
    </linearGradient>

    <!-- Front Face Gradient -->
    <linearGradient id="front-grey" x1="0%" y1="0%" x2="0%" y2="100%">
      <stop offset="0%" stop-color="#a4b0be" />
      <stop offset="100%" stop-color="#747d8c" />
    </linearGradient>

    <!-- 3D Side/Extrusion Color -->
    <linearGradient id="side-grey" x1="0%" y1="0%" x2="0%" y2="100%">
      <stop offset="0%" stop-color="#57606f" />
      <stop offset="100%" stop-color="#2f3542" />
    </linearGradient>

    <!-- Leaf Sprout Gradient -->
    <linearGradient id="leaf-grey" x1="0%" y1="0%" x2="100%" y2="100%">
      <stop offset="0%" stop-color="#7BED9F" />
      <stop offset="100%" stop-color="#2ED573" />
    </linearGradient>

    <!-- 3D Base Shadow -->
    <filter id="shadow-grey">
      <feDropShadow dx="0" dy="10" stdDeviation="8" flood-color="#000000" flood-opacity="0.25" />
    </filter>
  </defs>

  <!-- Background Circle -->
  <circle cx="256" cy="256" r="236" fill="url(#bg-grey)" stroke="#CED4DA" stroke-width="6" />

  <!-- Premium Stitched-Sticker Dotted Inner Circle -->
  <circle cx="256" cy="256" r="216" fill="none" stroke="#ffffff" stroke-width="4" stroke-dasharray="8,8" opacity="0.4" />

  <!-- Soft Paint Streak behind character -->
  <path d="M 100 160 Q 256 200 412 160 L 412 280 Q 256 320 100 280 Z" fill="url(#front-grey)" opacity="0.15" />

  <!-- Sparkles -->
  <g fill="#FFD43B">
    <circle cx="100" cy="130" r="8" />
    <circle cx="400" cy="120" r="10" />
    <circle cx="430" cy="330" r="7" />
  </g>

  <!-- Back Limbs (Legs/Feet) -->
  <g>
    <rect x="210" y="295" width="20" height="40" rx="10" fill="url(#side-grey)" />
    <rect x="282" y="295" width="20" height="40" rx="10" fill="url(#side-grey)" />
    <ellipse cx="210" cy="335" rx="18" ry="10" fill="#2f3542" />
    <ellipse cx="302" cy="335" rx="18" ry="10" fill="#2f3542" />
  </g>

  <!-- Color Splat Body -->
  <g filter="url(#shadow-grey)">
    <!-- Side (3D Offset Layer) -->
    <g fill="url(#side-grey)" transform="translate(0, 12)">
      <path d="M 256 110 C 320 110, 370 140, 370 200 C 370 260, 340 310, 276 310 C 212 310, 160 260, 160 200 C 160 140, 192 110, 256 110 Z" />
      <circle cx="130" cy="150" r="12" />
      <circle cx="380" cy="250" r="16" />
      <circle cx="170" cy="290" r="10" />
    </g>

    <!-- Front Face Layer -->
    <g fill="url(#front-grey)">
      <path d="M 256 110 C 320 110, 370 140, 370 200 C 370 260, 340 310, 276 310 C 212 310, 160 260, 160 200 C 160 140, 192 110, 256 110 Z" />
      <circle cx="130" cy="150" r="12" />
      <circle cx="380" cy="250" r="16" />
      <circle cx="170" cy="290" r="10" />
    </g>
  </g>

  <!-- Front Limbs (Arms) -->
  <g>
    <!-- Left Arm holding paintbrush -->
    <path d="M 170 210 Q 130 220 145 250" stroke="url(#front-grey)" stroke-width="12" fill="none" stroke-linecap="round" />
    
    <!-- Paintbrush -->
    <g transform="translate(130 260)">
      <path d="M -15 -15 L 10 10" stroke="#8B5A2B" stroke-width="6" stroke-linecap="round" />
      <rect x="7" y="7" width="10" height="8" fill="#a4b0be" transform="rotate(45 12 12)" />
      <path d="M 12 12 Q 22 22 25 32 Q 15 25 12 12" fill="url(#front-grey)" />
      <circle cx="28" cy="38" r="4" fill="url(#front-grey)" />
    </g>

    <!-- Right Arm -->
    <path d="M 340 210 Q 380 220 370 250" stroke="url(#front-grey)" stroke-width="12" fill="none" stroke-linecap="round" />
  </g>

  <!-- Cute Sprout on Top of Blob -->
  <g transform="translate(256 95)">
    <path d="M0 0 Q-4 -15 -8 -24" stroke="#8B5A2B" stroke-width="5" fill="none" />
    <path d="M-8 -24 C-28 -28 -30 -5 -10 0 Z" fill="url(#leaf-grey)" />
    <path d="M-8 -24 C5 -35 22 -20 5 -5 Z" fill="url(#leaf-grey)" />
  </g>

  <!-- Eyes -->
  <g>
    <circle cx="215" cy="180" r="18" fill="#222" />
    <circle cx="208" cy="172" r="6" fill="#FFF" />

    <circle cx="297" cy="180" r="18" fill="#222" />
    <circle cx="290" cy="172" r="6" fill="#FFF" />
  </g>

  <!-- Cheeks -->
  <ellipse cx="185" cy="210" rx="18" ry="12" fill="#FF6B81" opacity="0.45" />
  <ellipse cx="327" cy="210" rx="18" ry="12" fill="#FF6B81" opacity="0.45" />

  <!-- Smile -->
  <path d="M225 225 Q256 255 287 225" stroke="#7A1022" stroke-width="8" fill="none" stroke-linecap="round" />

  <!-- Floating Illustration -->
  <!-- Elephant Head -->
    <g transform="translate(370 270) scale(0.85)">
      <circle cx="0" cy="0" r="24" fill="#a4b0be" stroke="#57606f" stroke-width="3" />
      <path d="M 0 5 Q -5 24 6 30" stroke="#a4b0be" stroke-width="7" fill="none" stroke-linecap="round" />
      <ellipse cx="-20" cy="-5" rx="10" ry="14" fill="#747d8c" stroke="#57606f" stroke-width="2" />
      <ellipse cx="20" cy="-5" rx="10" ry="14" fill="#747d8c" stroke="#57606f" stroke-width="2" />
    </g>

  <!-- Bottom Paint Palette Name Banner -->
  <g filter="url(#shadow-grey)">
    <path d="M 130 445 C 120 415, 180 395, 230 405 C 280 410, 360 395, 385 415 C 405 430, 410 465, 385 475 C 360 485, 280 470, 230 480 C 180 490, 120 470, 130 445 Z" fill="#EAD4B3" stroke="#8B5A2B" stroke-width="4" />
    <circle cx="170" cy="445" r="10" fill="url(#bg-grey)" stroke="#8B5A2B" stroke-width="3" />
    <circle cx="210" cy="430" r="7" fill="#ff4757" />
    <circle cx="235" cy="425" r="7" fill="#2ed573" />
    <circle cx="355" cy="435" r="7" fill="#1e90ff" />
    <text x="285" y="454" 
          text-anchor="middle" 
          font-size="26" 
          font-weight="900" 
          font-family="Comic Sans MS, Arial Rounded MT Bold, sans-serif" 
          fill="#7C5730">Grey</text>
  </g>
</svg>