<svg xmlns="http://www.w3.org/2000/svg" viewBox="0 0 512 512" width="100%" height="100%">
  <defs>
    <!-- Background Gradient -->
    <linearGradient id="bg-yellow" x1="0%" y1="0%" x2="0%" y2="100%">
      <stop offset="0%" stop-color="#FFFFF0" />
      <stop offset="100%" stop-color="#FFFDE6" />
    </linearGradient>

    <!-- Front Face Gradient -->
    <linearGradient id="front-yellow" x1="0%" y1="0%" x2="0%" y2="100%">
      <stop offset="0%" stop-color="#ffeaa7" />
      <stop offset="100%" stop-color="#ffd13b" />
    </linearGradient>

    <!-- 3D Side/Extrusion Color -->
    <linearGradient id="side-yellow" x1="0%" y1="0%" x2="0%" y2="100%">
      <stop offset="0%" stop-color="#d5a100" />
      <stop offset="100%" stop-color="#a07800" />
    </linearGradient>

    <!-- Leaf Sprout Gradient -->
    <linearGradient id="leaf-yellow" x1="0%" y1="0%" x2="100%" y2="100%">
      <stop offset="0%" stop-color="#7BED9F" />
      <stop offset="100%" stop-color="#2ED573" />
    </linearGradient>

    <!-- 3D Base Shadow -->
    <filter id="shadow-yellow">
      <feDropShadow dx="0" dy="10" stdDeviation="8" flood-color="#000000" flood-opacity="0.25" />
    </filter>
  </defs>

  <!-- Background Circle -->
  <circle cx="256" cy="256" r="236" fill="url(#bg-yellow)" stroke="#FFE0B2" stroke-width="6" />

  <!-- Premium Stitched-Sticker Dotted Inner Circle -->
  <circle cx="256" cy="256" r="216" fill="none" stroke="#ffffff" stroke-width="4" stroke-dasharray="8,8" opacity="0.4" />

  <!-- Soft Paint Streak behind character -->
  <path d="M 100 160 Q 256 200 412 160 L 412 280 Q 256 320 100 280 Z" fill="url(#front-yellow)" opacity="0.15" />

  <!-- Sparkles -->
  <g fill="#FFD43B">
    <circle cx="100" cy="130" r="8" />
    <circle cx="400" cy="120" r="10" />
    <circle cx="430" cy="330" r="7" />
  </g>

  <!-- Back Limbs (Legs/Feet) -->
  <g>
    <rect x="210" y="295" width="20" height="40" rx="10" fill="url(#side-yellow)" />
    <rect x="282" y="295" width="20" height="40" rx="10" fill="url(#side-yellow)" />
    <ellipse cx="210" cy="335" rx="18" ry="10" fill="#2f3542" />
    <ellipse cx="302" cy="335" rx="18" ry="10" fill="#2f3542" />
  </g>

  <!-- Color Splat Body -->
  <g filter="url(#shadow-yellow)">
    <!-- Side (3D Offset Layer) -->
    <g fill="url(#side-yellow)" transform="translate(0, 12)">
      <path d="M 256 110 C 320 110, 370 140, 370 200 C 370 260, 340 310, 276 310 C 212 310, 160 260, 160 200 C 160 140, 192 110, 256 110 Z" />
      <circle cx="130" cy="150" r="12" />
      <circle cx="380" cy="250" r="16" />
      <circle cx="170" cy="290" r="10" />
    </g>

    <!-- Front Face Layer -->
    <g fill="url(#front-yellow)">
      <path d="M 256 110 C 320 110, 370 140, 370 200 C 370 260, 340 310, 276 310 C 212 310, 160 260, 160 200 C 160 140, 192 110, 256 110 Z" />
      <circle cx="130" cy="150" r="12" />
      <circle cx="380" cy="250" r="16" />
      <circle cx="170" cy="290" r="10" />
    </g>
  </g>

  <!-- Front Limbs (Arms) -->
  <g>
    <!-- Left Arm holding paintbrush -->
    <path d="M 170 210 Q 130 220 145 250" stroke="url(#front-yellow)" stroke-width="12" fill="none" stroke-linecap="round" />
    
    <!-- Paintbrush -->
    <g transform="translate(130 260)">
      <path d="M -15 -15 L 10 10" stroke="#8B5A2B" stroke-width="6" stroke-linecap="round" />
      <rect x="7" y="7" width="10" height="8" fill="#a4b0be" transform="rotate(45 12 12)" />
      <path d="M 12 12 Q 22 22 25 32 Q 15 25 12 12" fill="url(#front-yellow)" />
      <circle cx="28" cy="38" r="4" fill="url(#front-yellow)" />
    </g>

    <!-- Right Arm -->
    <path d="M 340 210 Q 385 190 395 160" stroke="url(#front-yellow)" stroke-width="12" fill="none" stroke-linecap="round" />
  </g>

  <!-- Cute Sprout on Top of Blob -->
  <g transform="translate(256 95)">
    <path d="M0 0 Q-4 -15 -8 -24" stroke="#8B5A2B" stroke-width="5" fill="none" />
    <path d="M-8 -24 C-28 -28 -30 -5 -10 0 Z" fill="url(#leaf-yellow)" />
    <path d="M-8 -24 C5 -35 22 -20 5 -5 Z" fill="url(#leaf-yellow)" />
  </g>

  <!-- Eyes -->
  <g>
    <circle cx="215" cy="180" r="18" fill="#222" />
    <circle cx="208" cy="172" r="6" fill="#FFF" />

    <circle cx="297" cy="180" r="18" fill="#222" />
    <circle cx="290" cy="172" r="6" fill="#FFF" />
  </g>

  <!-- Cheeks -->
  <ellipse cx="185" cy="210" rx="18" ry="12" fill="#FF6B81" opacity="0.45" />
  <ellipse cx="327" cy="210" rx="18" ry="12" fill="#FF6B81" opacity="0.45" />

  <!-- Smile -->
  <path d="M225 225 Q256 255 287 225" stroke="#7A1022" stroke-width="8" fill="none" stroke-linecap="round" />

  <!-- Floating Illustration -->
  <!-- Sun -->
    <g transform="translate(380 270) scale(0.9)">
      <circle cx="0" cy="0" r="26" fill="#ffd13b" stroke="#d5a100" stroke-width="3" />
      <line x1="0" y1="-32" x2="0" y2="-40" stroke="#e67e22" stroke-width="4" stroke-linecap="round" />
      <line x1="0" y1="32" x2="0" y2="40" stroke="#e67e22" stroke-width="4" stroke-linecap="round" />
      <line x1="-32" y1="0" x2="-40" y2="0" stroke="#e67e22" stroke-width="4" stroke-linecap="round" />
      <line x1="32" y1="0" x2="40" y2="0" stroke="#e67e22" stroke-width="4" stroke-linecap="round" />
    </g>

  <!-- Bottom Paint Palette Name Banner -->
  <g filter="url(#shadow-yellow)">
    <path d="M 130 445 C 120 415, 180 395, 230 405 C 280 410, 360 395, 385 415 C 405 430, 410 465, 385 475 C 360 485, 280 470, 230 480 C 180 490, 120 470, 130 445 Z" fill="#EAD4B3" stroke="#8B5A2B" stroke-width="4" />
    <circle cx="170" cy="445" r="10" fill="url(#bg-yellow)" stroke="#8B5A2B" stroke-width="3" />
    <circle cx="210" cy="430" r="7" fill="#ff4757" />
    <circle cx="235" cy="425" r="7" fill="#2ed573" />
    <circle cx="355" cy="435" r="7" fill="#1e90ff" />
    <text x="285" y="454" 
          text-anchor="middle" 
          font-size="26" 
          font-weight="900" 
          font-family="Comic Sans MS, Arial Rounded MT Bold, sans-serif" 
          fill="#7C5730">Yellow</text>
  </g>
</svg>